<?xml version="1.0" encoding="utf-8"?>
<!-- Generator: Adobe Illustrator 19.2.1, SVG Export Plug-In . SVG Version: 6.00 Build 0)  -->
<svg version="1.1" id="LD:_9-Segment-Display" xmlns="http://www.w3.org/2000/svg" xmlns:xlink="http://www.w3.org/1999/xlink"
	 x="0px" y="0px" viewBox="0 0 187.4 293" style="enable-background:new 0 0 187.4 293;" xml:space="preserve">
<style type="text/css">
	.st0{fill:#00AEEF;stroke:#FFFFFF;stroke-width:4;}
	.st1{fill:#F1F2F2;}
	.st2{fill:#0C00FF;}
	.st3{fill:none;stroke:#FFF200;stroke-width:4;}
</style>
<title>nine-segment</title>
<polygon id="DIF:_Diffuser" class="st0" points="29.7,18.5 45.7,2.5 141.7,2.5 157.7,18.5 141.7,34.5 45.7,34.5 "/>
<polygon id="DIF:_Diffuser-2" class="st0" points="157.7,18.5 173.7,34.5 173.7,130.5 157.7,146.5 141.7,130.5 141.7,34.5 "/>
<polygon id="DIF:_Diffuser-3" class="st0" points="157.7,146.5 173.7,162.5 173.7,258.5 157.7,274.5 141.7,258.5 141.7,162.5 "/>
<polygon id="DIF:_Diffuser-4" class="st0" points="157.7,274.5 141.7,290.5 45.7,290.5 29.7,274.5 45.7,258.5 141.7,258.5 "/>
<polygon id="DIF:_Diffuser-5" class="st0" points="29.7,274.5 13.7,258.5 13.7,162.5 29.7,146.5 45.7,162.5 45.7,258.5 "/>
<polygon id="DIF:_Diffuser-6" class="st0" points="29.7,146.5 13.7,130.5 13.7,34.5 29.7,18.5 45.7,34.5 45.7,130.5 "/>
<polygon id="DIF:_Diffuser-7" class="st0" points="29.7,146.5 45.7,130.5 141.7,130.5 157.7,146.5 141.7,162.5 45.7,162.5 "/>
<polygon id="DIF:_Diffuser-8" class="st0" points="45.7,34.5 68.1,34.5 141.7,108.1 141.7,130.5 119.3,130.5 45.7,56.9 "/>
<polygon id="DIF:_Diffuser-9" class="st0" points="141.7,258.5 141.7,236.1 68.1,162.5 45.7,162.5 45.7,184.9 119.3,258.5 "/>
<polygon id="NLED:_APA102C" class="st1" points="39.7,81.7 29.7,91.8 19.7,81.7 29.7,71.7 35,77.1 "/>
<polygon id="NLED:_APA102C-2" class="st1" points="93.7,91.8 83.7,81.7 93.7,71.7 98.5,76.5 103.7,81.7 "/>
<polygon id="NLED:_APA102C-3" class="st1" points="164.8,88.8 150.6,88.8 150.6,74.7 164.8,74.7 164.8,81.7 "/>
<polygon id="NLED:_APA102C-4" class="st1" points="100.8,25.6 86.6,25.6 86.6,11.4 93.7,11.4 100.8,11.4 "/>
<polygon id="NLED:_APA102C-5" class="st1" points="100.8,153.6 86.6,153.6 86.6,139.4 97,139.4 100.8,139.4 "/>
<polygon id="NLED:_APA102C-6" class="st1" points="103.7,210.5 93.7,220.5 83.7,210.5 93.7,200.5 99.3,206.1 "/>
<polygon id="NLED:_APA102C-7" class="st1" points="100.8,281.6 93.7,281.6 86.6,281.6 86.6,267.4 100.8,267.4 "/>
<polygon id="NLED:_APA102C-8" class="st1" points="157.7,220.5 147.7,210.5 157.7,200.5 163.4,206.1 167.7,210.5 "/>
<polygon id="NLED:_APA102C-9" class="st1" points="37.1,217.6 23,217.6 23,203.4 37.1,203.4 37.1,210.5 "/>
<polygon id="BO:_Breakout" class="st2" points="187.4,164.5 187.4,160 187.4,157 187.4,148 187.4,145 187.4,136 187.4,124 
	176.3,124 176.3,136 176.3,145 176.3,148 176.3,157 176.3,160 176.3,164.5 176.3,169 187.4,169 "/>
<polygon id="BI:_Breakin" class="st2" points="11.1,164.5 11.1,160 11.1,157 11.1,148 11.1,145 11.1,136 11.1,124 0,124 0,136 
	0,145 0,148 0,157 0,160 0,164.5 0,169 11.1,169 "/>
<polyline id="CP:_Circuit_Path" class="st3" points="181.9,146.5 157.7,146.5 157.7,81.7 157.7,58 113.3,18.5 93.7,18.5 68.5,18.5 
	20.7,73.4 29.7,81.7 41.5,92.7 77.3,66 93.7,81.7 108.3,96.2 93.7,125.8 93.7,146.5 93.7,160.2 76.5,192.5 93.7,210.5 115.4,231.4 
	147.1,199.1 157.7,210.5 167.1,220.5 110.6,274.5 93.7,274.5 77.5,274.5 30.1,231.7 30.1,210.5 30,192 29.7,146.5 5.6,146.5 "/>
</svg>
