<?xml version="1.0" encoding="utf-8"?>
<!-- Generator: Adobe Illustrator 19.2.1, SVG Export Plug-In . SVG Version: 6.00 Build 0)  -->
<svg version="1.1" id="Layer_1" xmlns="http://www.w3.org/2000/svg" xmlns:xlink="http://www.w3.org/1999/xlink" x="0px" y="0px"
	 viewBox="0 0 908 668" style="enable-background:new 0 0 908 668;" xml:space="preserve">
<style type="text/css">
	.st0{fill:#FFFF00;}
</style>
<path class="st0" d="M620.7,431.1h-16.1h-11.1v0h-11.3v0.1v5.4l-6.9-0.1l-6.4-13.8l-31.9-0.2l0,5.1h-1.3v11.2l-2.2,0l-9.1,0
	l-5.4-0.2l0,2.2h-68.5l-1-53.5l17.7-21.8l1.5-11.7l-2.2-9.9h32.2L535,309l-27.4-58.7L384.5,258l-23.6,58.5l37.9,25.9l35.4,1.2
	l10.3,11.9l-19.2,23.7l1.6,85.9h92.2l0,2l6.3,0.1l10.4,0.1v12.3h12.4v-0.1h3.5v0.1H564v-0.1h8v-11.6l4.2,0l3.1,1.5l3,0v7.3h17h0.2
	v-7.5l5.2-0.1v7.5h1.5v0h14.6l6.8,0L620.7,431.1z M545.3,476.7h-6.7v-10.2h6.7V476.7z M553.1,476.6h-6.7v-10.2h6.7V476.6z
	 M561.2,476.7h-6.7v-10.2h6.7V476.7z M617.9,466.1v7.7H609v-7.6l-12.4,0.1v7.4h-11.6v-7.3l-5.2,0.1l-3-1.5l-8.9-0.1l0,1.5h1.2v10.2
	h-6.7v-10.2h1.9l0-1.9l-36.3-0.2v-0.1h-5.2h-3.2l-0.5,0v0h-1.5h-5.2h-5.2H502h-5.2h-5.2h-5.2h-5.2H476h-5.2h-5.2h-5.2h-5.2H450v-0.1
	h0v0.1h-22.3l-0.4-22.3l-0.1-5.2l-0.1-5.2l-0.1-5.2l-0.1-5.2l-0.1-5.2l-0.1-5.2l-0.1-5.2l-0.1-5.2l-0.1-5.2l-0.3-15.4l9.7-11.9l0,0
	l9.3-11.5l0.4-0.5l-0.8-1.2l-10.2-11.5l-0.3,0v0l-5.5-0.2l-15.2-0.5l-2-0.1l-3.2-0.1l0,0l-8.2-0.3l-1,0l-6.8-4.7l-4.5-3.1l-4.5-3.1
	l-4.5-3.1l-16.8-11.5l7.5-18.6l0.2-0.6l0,0l1.8-4.5l5.7-14.1l0.7-1.9l0.3-0.8l0,0l6.9-17l18.3-1.1l5-0.3l5-0.3l5-0.3l5-0.3l5-0.3
	l5-0.3l5-0.3l5-0.3l5-0.3l5-0.3l5-0.3l5-0.3l5-0.3l5-0.3l5-0.3l5-0.3l5-0.3l18.9-1.2l8,17.2l1,2.2l0,0l2,4.4l6.4,13.8l0.8,1.8l0.5,1
	l0,0l8.1,17.5l-13.8,13.4l-3.5,3.4l-3.5,3.4l-3.5,3.4l-11.4,11h-15.8v0h-14.7h-1.7l-3.3-3.5h2.9h3.9h2.6h2.1v-4.5l-2.8-6.1h-0.7
	h-3.5H466h-1.5v-3.5h1.5h1.4h6.4l4.1,8.8v5.3h0.3h1.3h3.1v0H497l10.3-10l3.5-3.4l3.5-3.4l3.5-3.4l12-11.7l-7.1-15.2l0,0l-0.4-0.9
	l-1.6-3.5l-1.1-2.4l-0.9-1.9l-4.1,1.9l-4.3,5.1l0.3,0.6l1.5,3.2l0.6,1.3l0.6,1.4l0,0l3.8,8.1l-6.6,6.4l-3.5,3.4l-3.5,3.4l-3.5,3.4
	l-7.2,7H486v0h-1.5h-1.4h-3.6h-3.2l-2.1-4.9h-6.8H466h-4.3v-3.5h7.4h12.3h1.2v0h6.7l4.8-4.7l3.5-3.4l3.5-3.4l3.5-3.4l2.3-2.3
	l-1.4-2.9l0,0l-1.8-3.9l-5.2-11.1l-2.7-5.9l0,0l-1-2.2l-1.5-3.2l-3.6,0.2l-5,0.3l-5,0.3l-5,0.3l-5,0.3l-5,0.3l-5,0.3l-5,0.3l-5,0.3
	l-5,0.3l-5,0.3l-5,0.3l-5,0.3l-5,0.3l-5,0.3l-5,0.3l-5,0.3l-5,0.3l-4.2,0.3l-1.6,3.9l0,0l-1.5,3.8l-4.6,11.4l-2.4,6l0,0l0,0.1
	l-0.9,2.3l1.8,1.2l4.5,3.1l4.5,3.1l4.5,3.1l1.4,1l2.7,0.1l0,0l6.4,0.2l12.3,0.4l7.5,0.3l12.9,3.1l4.8,5.7l7.9,9.4l0.8,1l3.3,3.9h0
	l0.8,0.9l2.3,9.6l-1.5,11.4l-4.7,5.8l-7.7,9.6l-0.8,1l0,0l-4.5,5.6l0.1,7.2l0.1,5.2l0.1,5.2l0.1,5.2l0.1,5.2l0.1,5.2l0.1,5.2
	l0.1,5.2l0.1,5.2l0.1,5.2l0,0.2h0.2v0.1h0v-0.1h5.2h5.2h5.2h5.2h5.2h5.2h5.2h5.2h5.2h5.2h5.2h5.2h5.2h4.5l2.3,0.1l9.2,0l5.1-0.1
	v-11.2h1.3l0-5.1l27.2,0.2l6.4,13.8l11.5,0.1V434h8.5h3h21.3v11.5h-21.3h-2.8v0h-6v0h-2.8v-1.9l-14.1-0.2l-6.4-13.8l-20.6-0.2l0,1.1
	h1.4V446h-6.7v-0.7l-5,0.1H528v-0.2h-5.2h-5.2h-5.2h-5.2H502h-5.2h-5.2h-5.2h-5.2H476h-5.2h-5.2h-5.2h-5.2h-2H450h0h-0.8h-2.8
	l-0.1-3.6l-0.1-5.2l-0.1-5.2l-0.1-5.2l-0.1-5.2l-0.1-5.2l-0.1-5.2l-0.1-5.2l-0.1-5.2l-0.1-5.2l-0.2-8.4l1.4-1.7l0,0l2.8-3.4l0.9-1.1
	l3.2-4l-1.5-0.4l-2.5,3.1l0,0l-5.6,6.9l0.2,8.9l0.1,5.2l0.1,5.2l0.1,5.2l0.1,5.2l0.1,5.2l0.1,5.2l0.1,5.2l0.1,5.2l0.1,5.2l0.1,5h5
	v0.1h0v-0.1h5.2h5.2h5.2h5.2h5.2h5.2h5.2h5.2h5.2h5.2h5.2h5.2h5.2h1.4l0,3.5h-1.5h-5.2h-5.2H502h-5.2h-5.2h-5.2h-5.2H476h-5.2h-5.2
	h-5.2h-5.2H450v-0.1h0v0.1h-8.4l-0.2-8.4l-0.1-5.2l-0.1-5.2l-0.1-5.2l-0.1-5.2l-0.1-5.2l-0.1-5.2l-0.1-5.2l-0.1-5.2l-0.1-5.2
	l-0.2-10.2l4.3-5.3l0,0l0.9-1.2l0.9-1.1l2.3-2.8l2-2.5l5.1,1.5l4.3-5.3l0.9-1.1l2.7-3.3l0.7-8.9l-1.5-7.7l-2.8-3.4l-0.9-1.1
	l-3.3-3.9l-0.7,1.4l2.9,3.4l0.9,1.1l1,1.1l-2.7,2.2l-1-1.1l-0.9-1.1l-2.3-2.8l-2.1-2.5l2.4-4.8l-4.4-5.2l-0.9-1.1l-2.8-3.3
	l-10.3-1.9l-4.4-0.2l-1.4,0l-5.1-0.2l0.6,1.4l4.5,0.2l1.4,0l1.5,0.1l-0.1,3.5l-1.5-0.1l-1.4,0l-3.6-0.1l-3.2-0.1l-1.9-5l-6.8-0.2
	l-1.4,0l-4.3-0.2l0,0l-2.6-0.1l-0.2,0l-2.2-1.5l-4.5-3.1l-4.5-3.1l-4.5-3.1l-4.1-2.8l1.6-4.1l0,0l1.6-4.1l0.5-1.3l1.9-4.7l-1.5,0
	l-1.7,4.2l-0.5,1.3l-0.6,1.4l-3.2-1.3l0.6-1.4l0.5-1.3l1.3-3.3l1.2-3l5.3-0.1l2.5-6.3l0.5-1.3l1.6-4l0,0l1.1-2.8l6.4-0.4l5-0.3
	l5-0.3l5-0.3l5-0.3l5-0.3l5-0.3l5-0.3l5-0.3l5-0.3l5-0.3l5-0.3l5-0.3l5-0.3l5-0.3l5-0.3l5-0.3l5-0.3l6-0.4l2.5,5.4l0.6,1.3l0,0
	l1.9,4l0.6,1.3l2.2,4.6l1-1.1l-1.9-4.1l-0.6-1.3l-0.6-1.4l3.2-1.5l0.6,1.4l0.6,1.3l1.5,3.3l1.4,2.9l-3.6,4l2.9,6.2l0.6,1.3l1.8,3.9
	l0,0l1.1,2.4l-4.1,4l-3.5,3.4l-3.5,3.4l-3.5,3.4l-5.8,5.6h-1.8v0h-4.4h-1.4H478l0.6,1.4h4v0h8.7l6.2-6l3.5-3.4l3.5-3.4l3.5-3.4
	l4.8-4.7l-2.8-6.1l0,0l-0.5-1.1l-0.6-1.3l-2.7-5.8l6.2-7.4l4.8-2.2l-0.1-0.3l-0.5-1.2l-2.1-4.5l-1.4-3.1l0,0l-1-2.2l-7-15l-16.5,1
	l-5,0.3l-5,0.3l-5,0.3l-5,0.3l-5,0.3l-5,0.3l-5,0.3l-5,0.3l-5,0.3l-5,0.3l-5,0.3l-5,0.3l-5,0.3l-5,0.3l-5,0.3l-5,0.3l-5,0.3l-16.1,1
	l-6,15l0,0l-0.3,0.7l-1.5,3.6l-1,2.4l-0.8,1.9l4.2,1.7l6.7-0.3l0.3-0.6l1.3-3.2l0.5-1.3l0.6-1.4l0,0l3.3-8.3l9.4-0.6l5-0.3l5-0.3
	l5-0.3l5-0.3l5-0.3l5-0.3l5-0.3l5-0.3l5-0.3l5-0.3l5-0.3l5-0.3l5-0.3l5-0.3l5-0.3l5-0.3l5-0.3l9.3-0.6l3.9,8.4l1,2.2l-3.2,1.5
	l-1-2.2l-2.9-6.3l-6.9,0.4l-5,0.3l-5,0.3l-5,0.3l-5,0.3l-5,0.3l-5,0.3l-5,0.3l-5,0.3l-5,0.3l-5,0.3l-5,0.3l-5,0.3l-5,0.3l-5,0.3
	l-5,0.3l-5,0.3l-5,0.3l-7.2,0.5l-2.7,6.7l0,0l-0.4,0.9l-0.5,1.3l-2.4,5.9l-9.7,0.5l-4.9-2l-0.1,0.3l-0.5,1.2l-1.9,4.6l-1.3,3.2l0,0
	l-0.2,0.5l-6.5,16l14.4,9.9l4.5,3.1l4.5,3.1l4.5,3.1l6,4.1l0.9,0l7.4,0.3l0,0l3.1,0.1l3.9,0.1l2.6,0.1l2.1,0.1l0.2-4.5l-2.6-6.2
	l-0.7,0l-3.5-0.1l-1.4,0l-1.5-0.1l0.1-3.5l1.5,0.1l1.4,0l6.4,0.2l3.8,8.9l-0.2,5.3l0.3,0l1.3,0l5,0.2l4.4,0.2l0,0l1.5,0.1l2.7,2.3
	l1.7,2l1.3,1.6l3.4-2.9l2.9-6.1l-0.4-0.5l-2.2-2.7l-0.9-1.1l-1-1.1l2.7-2.2l1,1.1l0.9,1.1l4.1,4.9l-4.1,8.8l-4.1,3.4l0.2,0.2l0.8,1
	l1.9,2.3v0l0.9,1.1l2.1,2.5l-0.8,1.4l-2.5,3l-1.6,2l-1.3,1.6l3.5,2.8l6.5,1.7l0.4-0.5l2.2-2.7l0.9-1.1l0.9-1.2l2.7,2.2l-0.9,1.2
	l-0.9,1.1l-4,5l-9.4-2.4l-4.1-3.3l-0.2,0.2l-0.8,1l-2,2.4l0,0l-8.9,10.9l0.3,14.1l0.1,5.2l0.1,5.2l0.1,5.2l0.1,5.2l0.1,5.2l0.1,5.2
	l0.1,5.2l0.1,5.2l0.1,5.2l0.4,18.9H450v0.1h0v-0.1h5.2h5.2h5.2h5.2h5.2h5.2h5.2h5.2h5.2h5.2h5.2h5.2h5.2h5.2h2.2l0.4,0l39.4,0.2l0,0
	l13,0.1l3,1.5l4.3,0v-0.2h11.6v0l21.4-0.2l0,4L617.9,466.1z M459,320.1v15.4l-10-13.1l-12.1-2.8l-30.3-1.1l-16.1-11l10.7-26.4
	l91.6-5.7l13.2,28.3L489,320.1H459z M461.7,330.3h3.1h6.1v3.5h-6.1h-3.1V330.3z M461.7,335h3.1h6.1v3.5h-6.1h-3.1V335z M514.1,296.9
	l-2.6-5.5l3.2-1.5l2.6,5.5l1.3,2.8l0,0l4,8.5l-9,8.7l-3.5,3.4l-3.5,3.4l-3.5,3.4l-8.6,8.3h-5.7v0h-3.2h-6.2v-3.5h3.1v0h10.5l7.6-7.3
	l3.5-3.4l3.5-3.4l3.5-3.4l7.2-7L514.1,296.9L514.1,296.9L514.1,296.9z M482.6,335L482.6,335l12.4,0l8.9-8.6l3.5-3.4l3.5-3.4l3.5-3.4
	l9.5-9.2l-5.6-12l0,0l0,0l-2.6-5.5l3.2-1.5l2.6,5.5l1.3,2.8l0,0l5.4,11.5l-11.3,11l-3.5,3.4l-3.5,3.4l-3.5,3.4l-9.9,9.6h-7.6v0h-3.2
	h-6.2V335H482.6z M582.2,446.3v2l35.8-0.4v11.8l-36.6,0l-3-1.5l-13.6-0.1l-2.4,0v-9.3h1.5v-13.6l5.1,11L582.2,446.3z M450,459.2v0.1
	h-17.5l-0.3-17.5l-0.1-5.2l-0.1-5.2l-0.1-5.2l-0.1-5.2l-0.1-5.2l-0.1-5.2l-0.1-5.2l-0.1-5.2l-0.1-5.2l-0.3-13.6l4.6-5.7l0,0l2-2.5
	l3.9-4.8l2.7,2.2l-2,2.4l0,0l-7.7,9.6l0.2,12.3l0.1,5.2l0.1,5.2l0.1,5.2l0.1,5.2l0.1,5.2l0.1,5.2l0.1,5.2l0.1,5.2l0.1,5.2l0.3,14
	h13.2v0h4v0h2h5.2h5.2h5.2h5.2h5.2h5.2h5.2h5.2h5.2h5.2h5.2h5.2h5.2h5.2v-0.2l28.1-0.7V446h-1.6v-13.4h6.7V446h-1.6v12.5l-35,0.9
	h-1.9h-5.2h-5.2h-5.2H502h-5.2h-5.2h-5.2h-5.2H476h-5.2h-5.2h-5.2h-5.2H450L450,459.2L450,459.2z M445.9,375.7l-6.7,8.3l0.2,10.6
	l0.1,5.2l0.1,5.2l0.1,5.2l0.1,5.2l0.1,5.2l0.1,5.2l0.1,5.2l0.1,5.2l0.1,5.2l0.2,9.5h9.5v0h0v0h5.2h5.2h5.2h5.2h5.2h5.2h5.2h5.2h5.2
	h5.2h5.2h5.2h5.2h5.2h5.2v0l0.7,0l13.5-2.8l5.9,0V446h-1.6v-13.4h6.7V446h-1.6v5.9l-9.3,0.1l-13.4,2.9l-1,0v-0.1h-5.2h-5.2h-5.2
	h-5.2H502h-5.2h-5.2h-5.2h-5.2H476h-5.2h-5.2h-5.2h-5.2H450v-0.1h0v0.1h-13l-0.2-13l-0.1-5.2l-0.1-5.2l-0.1-5.2l-0.1-5.2l-0.1-5.2
	l-0.1-5.2l-0.1-5.2l-0.1-5.2l-0.1-5.2l-0.2-11.9l3.5-4.4l0,0l2-2.5l3.9-4.8l2.7,2.2L445.9,375.7L445.9,375.7z M451.3,354.7l-1.3-1.5
	l-4-4.7l2.7-2.2l4,4.7l0.6,0.7l1.5,1.8l0.7,3.1l-0.7,0.9l-1.2,1.5l-3.8,4.7l-2.7-2.2l3.8-4.7l0.9-1.1L451.3,354.7z M454.4,359.6
	l2-2.4l-0.1-2l-1.3-3.3l-1.4-1.6l-4-4.7l2.7-2.2l4,4.7l2.1,2.5l0.1,4.4l0.6,4.6l-2,2.4l-3.8,4.7l-2.7-2.2L454.4,359.6z M459,348.6
	l2.2-1.1l1.8,6.9v7.5l-3-1.8l-0.5-5.4L459,348.6z M431.4,337.8l-6.2-0.2l0.1-3.5l6.2,0.2l3.2,0.1l3.8-0.4l4.7,5.6l-2.7,2.2l-3.9-4.7
	l-2,0.7l0,0.1l-0.3,0l0,0l0,0L431.4,337.8z M440.2,334.2l-1-1.1l-1,0l-3.4,0.2l-3.2-0.1l-6.2-0.2l0.1-3.5l6.2,0.2l3.2,0.1l5.9,0
	l2,2.1l3.9,4.7l-2.7,2.2L440.2,334.2z M401.4,336.8l-0.8,0l-5.6-3.9l-4.5-3.1l-4.5-3.1l-4.5-3.1l-13.5-9.2l5.9-14.6l0,0l1.2-3
	l2.3-5.7l3.2,1.3l-2.3,5.7l-0.8,2l0,0l-0.2,0.4l-5,12.5l11.2,7.7l4.5,3.1l4.5,3.1l4.5,3.1l4.8,3.3l0.6,0l6.2,0.2l0,0l2.1,0.1
	l6.1,0.2l-0.1,3.5l-6.1-0.2l-3.1-0.1l0,0L401.4,336.8z M410.7,332.5l-3.1-0.1l0,0l-4.9-0.2l-0.6,0l-4.5-3.1L393,326l-4.5-3.1
	l-4.5-3.1l-10.4-7.2l4.5-11.2l0,0l1.2-3l2.3-5.7l3.2,1.3l-2.3,5.7l-0.8,2l0,0l-0.1,0.3l-3.7,9.2l8.1,5.6l4.5,3.1l4.5,3.1l4.5,3.1
	l3.7,2.5l0.4,0l5.1,0.2l0,0l2.1,0.1l6.1,0.2l-0.1,3.5L410.7,332.5z M408.8,327.8l-4.8-0.2l-0.4,0l-3.4-2.3l-4.5-3.1l-4.5-3.1
	l-4.5-3.1l-7.4-5.1l3.4-8.4l0.1-0.3l3.2,1.3l-0.1,0.2l-2.4,5.8l5.1,3.5l4.5,3.1l4.5,3.1l4.5,3.1l2.6,1.8l0.2,0l3.9,0.1L408.8,327.8z
	 M387.1,279.1l1.2-2.9l0,0l3.4-8.4l12.3-0.8l5-0.3l5-0.3l5-0.3l5-0.3l5-0.3l5-0.3l5-0.3l5-0.3l5-0.3l5-0.3l5-0.3l5-0.3l5-0.3l5-0.3
	l5-0.3l5-0.3l5-0.3l12.4-0.8l5.3,11.3l0.6,1.3l0,0l1.4,2.9l2.6,5.6l-3.2,1.5l-2.6-5.6l-0.9-2l0,0l-1-2.2l-4.3-9.1l-10,0.6l-5,0.3
	l-5,0.3l-5,0.3l-5,0.3l-5,0.3l-5,0.3l-5,0.3l-5,0.3l-5,0.3l-5,0.3l-5,0.3l-5,0.3l-5,0.3l-5,0.3l-5,0.3l-5,0.3l-5,0.3l-10.1,0.6
	l-3.8,9.4l0,0l-2.2,5.5l-3.2-1.3L387.1,279.1z M383.8,284.4l-3.2-1.3l2.3-5.7l1.2-2.9l0,0l4.5-11.1l15.2-1l5-0.3l5-0.3l5-0.3l5-0.3
	l5-0.3l5-0.3l5-0.3l5-0.3l5-0.3l5-0.3l5-0.3l5-0.3l5-0.3l5-0.3l5-0.3l5-0.3l5-0.3l15.6-1l6.6,14.1l0.6,1.3l0,0l1.4,2.9l2.6,5.6
	l-3.2,1.5l-2.6-5.6l-0.9-2l0,0l-1-2.2l-5.6-12l-13.2,0.8l-5,0.3l-5,0.3l-5,0.3l-5,0.3l-5,0.3l-5,0.3l-5,0.3l-5,0.3l-5,0.3l-5,0.3
	l-5,0.3l-5,0.3l-5,0.3l-5,0.3l-5,0.3l-5,0.3l-5,0.3l-13,0.8l-4.9,12.1l0,0L383.8,284.4z"/>
</svg>
