<?xml version="1.0" encoding="utf-8"?>
<!-- Generator: Adobe Illustrator 19.2.1, SVG Export Plug-In . SVG Version: 6.00 Build 0)  -->
<svg version="1.1" id="ELD:_Teddy_Bear" xmlns="http://www.w3.org/2000/svg" xmlns:xlink="http://www.w3.org/1999/xlink" x="0px"
	 y="0px" viewBox="0 0 332.7 287" style="enable-background:new 0 0 332.7 287;" xml:space="preserve">
<style type="text/css">
	.st0{fill:#FFFFFF;stroke:#000000;stroke-width:3;stroke-miterlimit:10;}
	.st1{display:none;fill:#FFFFFF;stroke:#000000;stroke-width:3;stroke-miterlimit:10;}
	.st2{fill:#DFDFDF;stroke:#000000;stroke-width:3;stroke-miterlimit:10;}
	.st3{fill:#19A1E6;stroke:#000000;stroke-miterlimit:10;}
	.st4{fill:#19E5E6;stroke:#000000;stroke-miterlimit:10;}
	.st5{fill:#197FE6;stroke:#000000;stroke-miterlimit:10;}
	.st6{display:none;fill:#294DFF;}
	.st7{display:none;fill:#FFE313;}
	.st8{display:none;fill:none;stroke:#FFE313;stroke-miterlimit:10;}
	.st9{fill:#FFE313;}
</style>
<rect id="BASE:_Base_path_1_" class="st0" width="332.7" height="287"/>
<path class="st1" d="M161.4,222.8c-4.4,0-8.6-0.4-12.7-1.1c-33.8-6-59.5-35.6-59.5-71.1c0-8.4,1.4-16.5,4.1-24
	c-13.3-3.1-23.1-15.1-23.1-29.2c0-16.6,13.4-30,30-30c12.8,0,23.6,7.9,28,19.1c9.9-5.2,21.3-8.1,33.2-8.1c12.2,0,23.7,3,33.7,8.3
	c4.3-11.3,15.2-19.3,28.1-19.3c16.6,0,30,13.4,30,30c0,14.4-10.1,26.4-23.6,29.3c2.6,7.5,4,15.5,4,23.9
	C233.6,190.5,201.3,222.8,161.4,222.8z"/>
<path id="BASE:_Base_path" class="st1" d="M307.6,16c4.9,0,8.9,4,8.9,8.9c0,4.9-4,8.9-8.9,8.9c-4.9,0-8.9-4-8.9-8.9
	C298.7,20,302.7,16,307.6,16z M23.9,273.1c-4.9,0-8.9-4-8.9-8.9s4-8.9,8.9-8.9c4.9,0,8.9,4,8.9,8.9S28.8,273.1,23.9,273.1z
	 M23.9,33.8c-4.9,0-8.9-4-8.9-8.9c0-4.9,4-8.9,8.9-8.9c4.9,0,8.9,4,8.9,8.9C32.8,29.8,28.8,33.8,23.9,33.8z"/>
<path id="DIF:_bear" class="st2" d="M229.6,126.7c2.6,7.5,4,15.5,4,23.9c0,39.9-32.3,72.2-72.2,72.2c-4.4,0-8.6-0.4-12.7-1.1
	c-33.8-6-59.5-35.6-59.5-71.1c0-8.4,1.4-16.5,4.1-24c-13.3-3.1-23.1-15.1-23.1-29.2c0-16.6,13.4-30,30-30c12.8,0,23.6,7.9,28,19.1
	c9.9-5.2,21.3-8.1,33.2-8.1c12.2,0,23.7,3,33.7,8.3c4.3-11.3,15.2-19.3,28.1-19.3c16.6,0,30,13.4,30,30
	C253.2,111.8,243.1,123.8,229.6,126.7z"/>
<path id="DIF:_Left_eye_1" class="st2" d="M120.1,140c0-7.8,6.4-14.2,14.2-14.2s14.2,6.4,14.2,14.2s-6.4,14.2-14.2,14.2
	C126.4,154.2,120.1,147.8,120.1,140L120.1,140z"/>
<path id="DIF:_Right_eye_1" class="st2" d="M173.8,141.6c0-7.8,6.4-14.2,14.2-14.2s14.2,6.4,14.2,14.2s-6.4,14.2-14.2,14.2
	C180.1,155.8,173.8,149.4,173.8,141.6L173.8,141.6z"/>
<path id="DIF:_Nose_1" class="st2" d="M147.2,178.5c0-7.8,6.4-14.2,14.2-14.2s14.2,6.4,14.2,14.2s-6.4,14.2-14.2,14.2
	C153.6,192.7,147.2,186.3,147.2,178.5L147.2,178.5z"/>
<polygon id="NLED:__colorID_:_0.09804_0.63137_0.90196_target_:12_" class="st3" points="180.6,148.7 180.6,134.5 194.7,134.5 
	194.7,148.7 "/>
<polygon id="NLED:__colorID_:_0.09804_0.89804_0.90196_target_:10_forceTarget_:15_" class="st4" points="90,106.1 90,91.9 
	104.2,91.9 104.2,106.1 "/>
<polygon id="NLED:__colorID_:_0.09804_0.89804_0.90196_target_:10_forceTarget_:16_" class="st4" points="216.5,103.2 216.5,89 
	230.7,89 230.7,103.2 "/>
<polygon id="NLED:__colorID_:_0.09804_0.63137_0.90196_target_:11_" class="st3" points="126.5,147.7 126.5,133.5 140.7,133.5 
	140.7,147.7 "/>
<polygon id="NLED:__colorID_:_0.09804_0.49804_0.90196_target_:10_forceTarget_:14_" class="st5" points="153.5,157.7 153.5,143.5 
	167.7,143.5 167.7,157.7 "/>
<polygon id="NLED:__colorID_:_0.09804_0.63137_0.90196_target_:13_" class="st3" points="154.4,185.4 154.4,171.3 168.6,171.3 
	168.6,185.4 "/>
<rect x="227.6" y="242.4" class="st6" width="99.7" height="37.5"/>
<rect id="BI:_breakin" x="155.1" y="253.1" class="st7" width="22.5" height="11.1"/>
<polyline id="CP:_path" class="st8" points="193.2,257.3 142.7,257.3 152,201.7 161.5,178.3 160.6,150.6 133.6,140 97.1,103.2 
	223.2,96.1 188,143.2 "/>
<circle id="NUT:_nut" class="st9" cx="23.9" cy="24.9" r="8.9"/>
<circle id="NUT:_nut_1_" class="st9" cx="23.9" cy="264.2" r="8.9"/>
<circle id="NUT:nut" class="st9" cx="307.6" cy="24.9" r="8.9"/>
</svg>
