<?xml version="1.0" encoding="utf-8"?>
<!-- Generator: Adobe Illustrator 19.2.1, SVG Export Plug-In . SVG Version: 6.00 Build 0)  -->
<svg version="1.1" id="ELD:_Bird_and_Cage_Thermochromic_Painting"
	 xmlns="http://www.w3.org/2000/svg" xmlns:xlink="http://www.w3.org/1999/xlink" x="0px" y="0px" viewBox="0 0 769.7 523.4"
	 style="enable-background:new 0 0 769.7 523.4;" xml:space="preserve">
<style type="text/css">
	.st0{opacity:0;fill:#BF1313;}
	.st1{fill:none;stroke:#000000;stroke-width:8.894;stroke-miterlimit:1;}
	.st2{fill:#00A8E1;}
	.st3{font-family:'Avenir-Medium';}
	.st4{font-size:22.8754px;}
	.st5{fill:#F1ED5B;}
</style>
<rect id="PAPER:_paper_backing" y="0" class="st0" width="769.7" height="523.4"/>
<g id="DEVICE:_x7B__x27_id_x27_:0_x7D_">
	<g>
		<g id="HEATER:_x7B__x27_resistance_x27_:60_x7D_">
			<path id="JOULE:_draw_x5F_snake_3_" class="st1" d="M451.2,233.1l-61.5-68.9l-13.2,0.3l76.5,85.6l-6.4,7.9L366,167.7l-8.5,5.5
				l80.7,90.4l-8.5,5.6l-79.8-89.4l-5.8,8.7l76.3,85.4l-10.3,3.6L386.3,251l-6.7,7.6l18.4,20.7l-12.3,1.3L375,265.4l2.5,240.3"/>
			<path id="JOULE:_draw_x5F_snake_4_" class="st1" d="M464.5,0l0.3,109.7l64.9,75.9l-0.9,14.1l-40.1-44.9l-11.2,2.5l49.9,55.9
				l-6.8,7.5l-52.6-59l-8.2,5.9l52.7,59l-8.1,6l-52-58.3l-6.4,8l49.8,55.7l-9.3,4.7l-45.4-50.8l-3.7,10.9l38.7,43.4l-10.7,3.2
				l-28.6-32.2"/>
			<rect x="360.2" y="485.4" width="32" height="38"/>
			<rect x="260.7" y="0" width="227.3" height="38"/>
		</g>
		<g id="HEATER:_x7B__x27_resistance_x27_:30_x7D_">
			<path id="JOULE:_draw_x5F_snake_5_" class="st1" d="M275.3,222.8l79.7,21.7l2.8,11.1l-32.2-8l-5.4,9l40,10l-1.9,9.9L316.1,266
				l-3,9.6l42.2,10.6l-2.9,9.6l-41.7-10.4l-1.5,10l39.9,9.9l-3.9,9.4l-36.4-9.1l0.6,10.5l31.1,7.8l-5,9.1l-38.7-11l5.6,12.9l24.9,8
				L324,504.4"/>
			<path id="JOULE:_draw_x5F_snake_8_" class="st1" d="M279.8,0l3,184.4l-10.5,36.2"/>
			<rect x="308.9" y="485.4" width="32" height="38"/>
			<rect x="260.7" y="0" width="227.3" height="38"/>
		</g>
		<g id="HEATER:_x7B__x27_resistance_x27_:19_x7D_">
			<path id="JOULE:_draw_x5F_snake_6_" class="st1" d="M270,228.8l21.5,3.2l0.9,10.2l-11.3-1.1l-2,9.9l14,1.4l-0.8,10l-14.8-1.4
				l-1.2,10l14.8,1.5l-1.2,10l-14.6-1.4l-0.7,10.1l14,1.3l-1.5,10l-12.8-1.2l0.1,10.1l10.9,1.1l-1.9,9.9l-7.8-0.8l1.3,182.8"/>
			<path id="JOULE:_draw_x5F_snake_9_" class="st1" d="M279.8,0l3,184.4L270,228.8"/>
			<rect x="262.9" y="485.4" width="32" height="38"/>
			<rect x="260.7" y="0" width="227.3" height="38"/>
		</g>
		<g id="HEATER:_x7B__x27_resistance_x27_:39_x7D_">
			<path id="JOULE:_draw_x5F_snake_1_" class="st1" d="M259.5,265.2l-4.5,15.4l10.4,6.8l-46.9,0.6l-3.5,10.1h47l0.6,10.1H213
				l-0.6,10H262l-0.6,10.1h-49.1l1.1,10.1h46.9l-1.7,10.1h-21.4l3.7,157.3"/>
			<path id="JOULE:_draw_x5F_snake_10_" class="st1" d="M279.8,0l3,184.4L255,280.6"/>
			<rect x="223.9" y="485.4" width="32" height="38"/>
			<rect x="260.7" y="0" width="227.3" height="38"/>
		</g>
		<g id="HEATER:_x7B__x27_resistance_x27_:29_x7D_">
			<path id="JOULE:_draw_x5F_snake" class="st1" d="M255,278.1l-36.5-0.2l-32,8.6l-8.9,1.6h-28.1l-4.4,10.1h58.4l0.8,10.1h-61.6
				l-0.8,10h61.7l-0.7,10.1H142l1.3,10.1h58.2l-2.1,10.1h-53.1l4.4,10H196l-3.7,10.1h-7.9l4.4,137.2"/>
			<path id="JOULE:_draw_x5F_snake_12_" class="st1" d="M279.8,0l3,184.4L255,280.6"/>
			<rect x="172.9" y="485.4" width="32" height="38"/>
			<rect x="260.7" y="0" width="227.3" height="38"/>
		</g>
		<g id="HEATER:_x7B__x27_resistance_x27_:22_x7D_">
			<path id="JOULE:_draw_x5F_snake_2_" class="st1" d="M270,228.8l-13.8,10L229,204.9l-10.4,3.1l33.9,42.2l-7.4,6.9l-35.7-44.5
				l-8.3,5.7l35.7,44.5l-8.3,5.8l-35.3-44l-7.1,7.3l22.8,30.3l-4,9.2l-24.9-31l-5.3,9.5l18.9,23.6l-14-1.4l-5.1-6.4L136.6,278
				l-7.7,57.3l13.4,39.1l1.6,128.8"/>
			<path id="JOULE:_draw_x5F_snake_7_" class="st1" d="M279.8,0l3,184.4L270,228.8"/>
			<rect x="128" y="485.4" width="32" height="38"/>
			<rect x="260.7" y="0" width="227.3" height="38"/>
		</g>
	</g>
	<g>
		<g id="CHROME:_thermo_4_">
			<g>
				<path class="st2" d="M410.3,245.3c-2.2,0.2-3.8,0.3-5.4,0.4c-0.6,0-1.4,0.1-1.7-0.2c-3.2-2.8-7.5-3.7-10.7-6.4
					c-0.7-0.6-1-1.8-1.7-3.1c-1.8-0.4-3.3-1.5-5-3.1c-2.1-1.9-3.5-4.7-6.3-5.7c-0.4-0.1-0.9-0.5-1-0.8c-0.5-2.8-2.5-4-4.8-5.1
					c-1.2-3.4-5.4-4.5-6.1-8.2c-3.4-1.8-2.7-6.8-6.5-8.2c-0.4-3.5-3.7-4.2-6-5.8c-0.8-0.6-1.5-1.3-2.9-2.5c2.6-0.3,4.4-0.5,6.7-0.8
					c-3.6-2.1-6.8-4-10.1-6c6.8-0.5,12.8,3,19.8,3.4c-5.5-4.8-12.5-7.2-16.7-13.5c1.9-0.6,3.2,0.4,4.6,1c4.4,2.1,8.8,4.1,13.2,6.1
					c0.4,0.2,0.8,0.1,2,0.3c-4.1-5.2-9.3-8.8-11.4-14.7c7.8,5.1,14.9,11.1,23.3,15.4c-3.5-5.3-8.3-9.6-10.7-16.3
					c2.8,1.2,4.3,3,5.9,4.8c1.7,1.9,3.5,3.5,5.4,5.2c1.8,1.5,3.7,2.9,5.5,4.4c1.9,1.6,3.8,3.2,5.7,4.9c0.6-0.6,0.9-1,1.5-1.6
					c1,0.9,2,1.7,3,2.6c4.3,4.1,8.9,7.6,14.7,9.6c5.7,2,11.2,4.6,16.5,7.4c2.3,1.2,4.1,3.3,5.9,5.2c1.2,1.3,2,2.8,3.2,4.6
					c3.2-3.5,7.5-5.5,9.4-9.9c0.2-0.4,0.5-0.7,0.8-1c4.2-3.2,7.2-7.3,10.8-11.1c2-2.1,3.5-4.3,3.9-7.2c0.2-1.4,0.7-2.8,1.2-4.4
					c1,0.5,1.7,0.8,2.6,1.2c1.1-3.4-1.3-7.4,1.4-10.5c3,1.2,3.7,1.8,6.5,5.2c0.8-2.5,1-4.9,1-7.3c0-2.2,0.1-4.4,0.3-6.5
					c0.1-0.6,0.8-1.6,1.2-1.6c0.7,0,1.7,0.5,2.1,1.1c1.1,1.7,2,3.5,3.2,5.6c2-3.9-0.7-9.1,3.5-12.1c2.5,1.1,2.8,3.5,4,6.1
					c0.7-2.2,1.3-4,1.9-5.8c3.9,3.2,4.4,4.9,5.6,19.4c0.5-0.3,0.9-0.5,1.5-0.9c2.3,4.5,1.9,8.9-0.6,12.9c-1.5,2.5-3.6,4.7-5.8,6.6
					c-4,3.5-7.7,7.2-10.5,11.8c-1,1.6-3,2.7-4.6,4c-3.4,2.7-6.9,5.4-10.9,8.5c1.9,0.6,3.2,0.8,4.3,1.3c1.6,0.7,3.7,1.3,4.4,2.6
					c1.8,3.1,4.7,4.8,7.3,6.9c1.1,0.9,2.2,1.8,3.3,2.8c-2.1,2.5-4.6,1.7-6.5,1.3c-2.8-0.5-5.1-0.3-7.7,0.9c-2.2,1-4.8,1.4-7.3,1.8
					c-3.7,0.5-6.6,2.4-9.4,4.6c-3.9,3.1-7.7,6.4-12.4,8.3c-0.7,0.3-1.3,0.8-2,0.9c-2.5,0.3-4.3,1.6-5.7,3.7
					c-1.9,2.7-4.8,3.1-7.8,2.9c-2.7-0.2-5.5-0.3-8.2-0.4c-0.5,0-1.1,0.3-1.6,0.6c-3.8,2.4-7.9,2.7-12.3,2c-2-0.3-4.2,0.4-6.1-0.2
					c-3.4-0.9-6.1,0.4-9.2,1.6c-6.8,2.7-13.5,5.6-21.3,7c1-3.2,2.8-5.3,5.6-6.5c5.8-2.5,11.8-4.5,17.5-7.2
					C399.6,254.5,405.6,251.1,410.3,245.3z"/>
			</g>
		</g>
		<path id="CHROME:_chrmomic" class="st2" d="M355.2,297.9c2.1-1.6,7.1-15.7,2.5-15.9c-3.9-0.2-8.4-2.8-8.1-6
			c1-10.3,1.7-20.7,2.6-31c0.2-2.8-0.9-4.5-3.5-5.1c-11.2-2.8-22.4-5.7-33.6-8.1c-2.6-0.6-4.3-1.5-5.7-3.2c0,1.9,0.4,4.1,0.9,6.8
			c0.9-0.7,2.3-0.7,4.8-0.1c0.1,0,0.2,0.1,0.4,0.1c14.4,4.2,11.4,1.5,11.7,15.1c0.5,0.1-4.6,33-7.8,49.4c-1.1,5.5-2.9,10.9-4.4,16.3
			c-1.2,4.3-3.3,5.7-7.6,4.8c-5-1-8.2-2-9.9-3.5c-0.4,1.9-0.6,3.4-0.6,4.8h0.1c10.6,2.6,21.1,5.5,31.6,8.6c6.9,2.1,7.9,2,10-4.9
			c2.7-9.1,5.1-18.3,7.5-27.4c0.9-3.4,2.6-2.1,4.8-1.7C351.3,296.8,353.5,298.8,355.2,297.9z M348.3,253.9
			c-1.1,23.4-5.6,46.1-12.5,68.4c-1.5,4.9-3.3,5.8-8.3,4.5c-11.8-3.1-11.5-3-7.6-14.7c2.7-8,5-16.2,6.2-24.6
			c2.1-13.8,3.3-27.7,4.7-41.6c0.5-4.8,1.5-5.8,6.3-5c0.3,0,0.5,0.1,0.8,0.1C348.3,242.9,348.8,243.5,348.3,253.9z"/>
		<g id="CHROME:_thermo_3_">
			<path class="st2" d="M274.2,320.8l-4.2-0.5c2.3-18.9,11.8-39.7,12.3-59.4c0.2-10.1,0.1-20.3-0.1-30.4l3.5-0.3
				c0.3,10.3,0.3,20.7,0,30.9C285.2,281.1,276.5,301.5,274.2,320.8z"/>
		</g>
		<g id="CHROME:_thermo_2_">
			<g>
				<path class="st2" d="M205,341.3c0-0.8,0-1.6,0-2.4c1.7-1.6,2.9-3.6,5.1-5c1.9-1.2,2.8-3.8,5.6-4.1c-0.8-3.9,0.8-7.2,2.3-10.4
					c1.6-3.6,4.1-6.7,6.4-9.8c1.8-2.4,3.9-4.6,6-6.8c1.5-1.6,3.5-2.8,5-4.3c1.8-1.7,3.6-3.4,4.9-5.6c1.8-2.9,5-4.3,7.5-6.4
					c2.7,0,5.4,0,8.1,0c0.6,1.5,2.5,1,3.3,2.1c1.9,2.4,4.4,3,7.3,2.7c0.2,0,0.4,0.2,0.6,0.4c0,0.5,0,1.1,0,1.8
					c-1.1,0.3-2.3,0.6-3.5,1c-0.5,0.1-1.1,0.2-1.4,0.5c-1.1,1.3-2.7,2.5-3,3.9c-0.3,1.5-2.2,3.2-0.2,5c0.3,0.2,0.1,1,0,1.6
					c-0.3,3.1-0.5,6.2-0.8,9.3c0,0.2-0.3,0.4-0.4,0.6c-1.5,3.7-2.9,7.4-5.6,10.6c-2.5,2.9-4.2,6.4-7.8,8.3c3.7,3.8,7.7,7.2,9.8,11.9
					c-0.8,1.7-1.8-0.7-3,0.5c-0.9,0.8-1.7-1.2-2.5-1.7c0.2-0.8,0.6-1.6,0.5-2.2c-0.2-0.9-0.4-2.2-2-0.9c-0.5,0.4-2,0.5-3-0.4
					c-0.4-0.3-1.4,0.1-2.1,0.1c0-0.6,0-1.3,0-2.1c0.8,0,1.4-0.1,2.1,0c0.6,0.1,1.2,0.4,2.2,0.8c-1-2.5-2.9-3.4-4.2-5.1
					c-0.8,0.3-1.4,0.9-2.1,0.9c-0.8,0-1.6-0.5-2.4-0.6c-1.3-0.1-3.1,0.5-3.9-0.1c-1.4-1.1-2.2,0.5-3.5,0.3c-1-0.2-2.2,1-3.3,1.4
					c-2.3,0.8-3.4,1.6-4.7,3.2c-1.5,2-3.1,3.9-4.7,5.8c-1.9-2-2.9,0.3-4.3,0.6c-0.4-0.4-1-0.7-1-1.2c-0.1-0.6,0.3-1.3,0.6-2.3
					c-0.9,0.5-1.4,0.7-1.9,1c-0.5-0.4-1.6-1.4-1.6-1.3c-1.8,1.8-0.8-1-1.5-0.9c-0.5,0.3-1,0.6-1.5,0.9
					C205.9,342.4,205.4,341.8,205,341.3z"/>
			</g>
		</g>
		<path id="CHROME:_thermo_1_" class="st2" d="M204.8,366.6c-0.4-1.3-0.6-2.7-1.2-3.9c-2.5-5.7-5.7-11.1-9.1-16.3
			c-0.4-0.6-0.7-1.2-0.9-1.9c-0.7-2.6-1.3-5.1-2-7.7c-0.3-1.2-0.5-2.4-0.7-3.6c0.1,0,0.2-0.1,0.3-0.1c0.6,0.5,1.2,1.1,1.7,1.6
			c1.3,1.4,2.5,2.8,3.8,4.1c0.7,0.7,1.5,1.4,2.8,1.8c-0.6-1.7-1-3.2-1.6-4.7c-1.1-2.8-2.4-5.5-3.5-8.3c-0.5-1.1-1.4-3.9-1.8-5.2
			c-0.3-0.5-0.6-1-0.8-1.5c-0.4-1.3-1.1-2.5-1.7-3.7c-0.8-1.6-1.3-3.3-1.9-5c-0.8-2.4-1.4-4.8-3-6.8c-0.6-0.8-1.4-1.5-2.1-2.1
			c-1.1-0.8-2.3-1.5-3.4-2.3c-0.8-0.6-1.6-1.3-2.2-2.4c1.2-0.4,2.4-0.7,3.5-1c-0.4-1.4-1.2-2.3-1.9-3.3c-0.8-1-1.3-2.1-1.7-3.3
			c-0.3-1.1-0.7-2.1-1.3-3.1c-0.5-0.8-1.1-1.6-1.9-2.1c-2.6-1.6-5.5-2.4-8.6-2.1c-4,0.4-6.4,2.9-8.2,6.2c-0.1,0.1-0.1,0.3-0.1,0.5
			c-0.3,1.5-0.6,3-0.9,4.5c-0.1,0.4,0,0.8,0.1,1.2c0.4,1.4,0.4,2.9,0.1,4.3c-0.4,1.9-1.2,3.5-2.1,5.2c-0.2,0.3-0.4,0.7-0.3,0.9
			c0.3,0.7,0.1,1.4-0.2,1.9c-0.7,1.7-0.4,3.4-0.2,5.1c0.2,1.3,0.7,2.5,1.1,3.8c0.3,0.9,0.7,1.8,0.9,2.7c0.1,1.2,0.6,2.3,1.2,3.3
			c0.9,1.4,1.8,2.7,2.8,4c1.3,1.7,2.8,3.3,4.1,5s1.1,3.3-0.6,4.5c-1.7,1.2-3.2,2.6-4.7,4c-0.2,0.2-0.3,0.4-0.3,0.6
			c0.1,0.7-0.3,1.1-0.8,1.5c1,0,3.9,1.7,4.6,1.1c0.3-0.2,0.7-0.5,1.1-0.5c0.6-0.1,0.9-0.4,1.1-0.9c0.2-0.5,0.2-1,0.4-1.4
			c0.1-0.3,0.1-0.6,0.3-0.8c1.1-0.8,2.2-1.6,3.4-2.4c0.7-0.4,1.2-0.3,1.9,0.3c2.4,2.2,4.9,4.3,6.9,6.9c0.6,0.7,1.3,1.4,2.4,1.7
			c-0.2-2.2-1.7-3.8-2.3-5.8c2,0.7,3.5,1.7,4.8,3.4c1.1,1.3,2.2,2.7,3,4.1c1.6,2.7,3.1,5.5,4.6,8.3c2.4,4.4,4.7,8.9,7.1,13.3
			c0.1,0.1,0.1,0.2,0.2,0.3c0.5,0.6,1,0.6,1.4-0.1c0.2-0.5,0.4-1,0.6-1.5c0.3,0.3,0.6,0.6,1.1,1.1c0.1-1.1,0.1-1.9,0.2-2.7
			c1.3,0.4,2.4,0.7,3.8,1.1C204.1,367.6,205,367.4,204.8,366.6z"/>
		<path id="CHROME:_thermo" class="st2" d="M219.9,267c-4.6,0-9.2,0-13.8,0c-0.1-0.1-0.1-0.3-0.2-0.4c0.4-0.1,0.7-0.3,1.1-0.3
			c0.7-0.1,1.4-0.1,2-0.3c0.5-0.2,1-0.5,1.3-0.7c-0.5-1.7-1.1-2.4-2.4-2.5c-1.6-0.1-3.1-0.5-4.7-0.8c-3.5-0.6-6.6,1-9.8,2
			c-3.7,1.1-7.3,2.9-11.1,3.8c-2.7,0.7-4.9,2.5-7.6,3.1c-2.1,0.4-4,1.9-6.1,2.5c-2.1,0.7-4.3,0.9-6.8,0.7c0.7-0.4,1.3-0.9,2.7-1.8
			c-3.4-0.4-5.7,0.8-8.1,1.5c-0.3-0.4-0.7-0.8-1.2-1.4c1.8-1.9,3.9-3.2,6.5-4.1c4.8-1.5,9.2-3.9,13.3-6.6c2.8-1.9,5.8-3.2,8.5-5
			c2.7-1.8,5.7-3.3,6.8-6.8c0.3-0.8,0.4-1.9,1.7-1.8c0.3-1.6,1.8-2.4,2.7-3.6c0.8-1.2,1.1-3.2,2.2-3.6c1.6-0.7,1.9-2.1,2.8-3.2
			c2.5-2.9,4.2-6.5,7.8-8.6c1.8-1,3.1-2.9,4.5-4.4c0.4-0.4,0.5-1.2,0.7-1.8c0.7-3.8,3.6-6.5,7.3-6.8c1.5-0.1,3.1,0,4.8,0
			c3.2,2.1,3.3,5.8,3.9,9.1c0.3,1.6,0,3.2,0.8,4.7c1.7,3.4,0.7,7.1,0.9,10.6c-2.1,2.9-1.7,7-4.7,9.5c-1,0.8-1.6,2.1-2.4,3.2
			c-1.9,2.4-4.9,3.2-7.2,5.1c-0.6,0.5-1.2,1.1-1.9,1.4s-1.5,0.3-2.5,0.5c1.2,1.1,2.2,2,3.4,3.1c1.7,1.2,4.1-2.8,6.1,0.6
			C220.7,265.1,220.3,266,219.9,267z"/>
	</g>
	<path class="st2" d="M297.4,317.4c-2.5-2.3-2-6.1,0-13.7c5.6-21,10-42.2,11.5-64c0.2-2.3,0.5-3.6,1.3-4.3c-0.5-2.7-0.9-4.9-0.9-6.8
		c-0.6-0.7-1.2-1.5-1.7-2.6c-4.9-9.6-9.3-19.6-15.7-28.1c-10.8-14.6-23.4-27.5-36.8-39.6l0,0l-19.7-19.8h-2.9
		c-2.5-2.5-4.7-5.3-6.3-8.4c-3.2-6.1-5.9-12.1-11.1-16.9c-4.2-3.8-2.9-11.3,1.9-14.1c4.7-2.8,8-6.9,7.8-12.4s-3.2-9.7-8.4-12.4
		L214,73c1.6-1.1,2.7-2.9,2.7-5c0-2-1-3.8-2.6-4.9c1.6-1.1,2.6-2.9,2.6-4.9s-1-3.8-2.6-4.9c1.6-1.1,2.6-2.9,2.6-4.9s-1-3.8-2.6-4.9
		c1.6-1.1,2.6-2.9,2.6-4.9s-1-3.8-2.6-4.9c1.6-1.1,2.6-2.9,2.6-4.9s-1-3.8-2.6-4.9c1.6-1.1,2.6-2.9,2.6-4.9s-1-3.8-2.6-4.9
		c1.6-1.1,2.6-2.9,2.6-4.9s-1-3.8-2.6-4.9c1.6-1.1,2.6-2.9,2.6-4.9s-1-3.8-2.6-4.9c1.6-1.1,2.6-2.9,2.6-4.9s-1-3.8-2.6-4.9
		c1.6-1.1,2.6-2.9,2.6-4.9s-1-3.8-2.6-4.9c1.6-1.1,2.6-2.9,2.6-4.9s-1-3.8-2.6-4.9c1.6-1.1,2.6-2.9,2.6-4.9c0-3.3-2.7-5.9-5.9-5.9
		s-5.9,2.7-5.9,5.9c0,2,1,3.8,2.6,4.9c-1.6,1.1-2.6,2.9-2.6,4.9s1,3.8,2.6,4.9c-1.6,1.1-2.6,2.9-2.6,4.9s1,3.8,2.6,4.9
		c-1.6,1.1-2.6,2.9-2.6,4.9s1,3.8,2.6,4.9c-1.6,1.1-2.6,2.9-2.6,4.9s1,3.8,2.6,4.9c-1.6,1.1-2.6,2.9-2.6,4.9s1,3.8,2.6,4.9
		c-1.6,1.1-2.6,2.9-2.6,4.9s1,3.8,2.6,4.9c-1.6,1.1-2.6,2.9-2.6,4.9s1,3.8,2.6,4.9c-1.6,1.1-2.6,2.9-2.6,4.9s1,3.8,2.6,4.9
		c-1.6,1.1-2.6,2.9-2.6,4.9s1,3.8,2.6,4.9c-1.6,1.1-2.6,2.9-2.6,4.9s1,3.8,2.6,4.9c-1.6,1.1-2.6,2.9-2.6,4.9c0,2.1,1.1,3.9,2.7,5
		l-2.5,1.6c-9.5,4.3-11.1,18.1-0.8,24.4c6.4,3.9,6.9,10.6,1.5,15.9c-2,1.9-3.9,4.1-5.3,6.5c-3.5,5.9-6.4,12-11.1,17.1h-3.6
		l-19.2,19.8l0,0c-15,13.5-28.9,28.2-40.7,44.8c-8.7,12.2-15.3,25.3-12.8,40.8c2.8,17.6,5.4,35.3,9.4,52.7c6,26,13.3,51.8,19.9,77.7
		c1.2,4.9,2.5,9.4,0.8,14.9c-2.6,8.5-0.3,10.7,8.6,10.7c40.4,0,80.8,0,121.2,0c5.3,0,6.2-1,6.1-6.4c0-1.9-0.5-3.8-0.6-5.7
		c-0.1-2.9-0.8-5.9-0.1-8.6c3.2-12.8,6.7-25.6,10.1-38.4c1.4-5.3,2.8-10.7,4.6-15.9c0.4-1.3,2.6-3,3.7-2.9
		C296.8,320.8,297,319.3,297.4,317.4z M204.5,150c1.5-0.1,3-0.1,4.6-0.1c0,6.4,0,12.8,0,19.2c0,4.2-2.9,6.3-6.9,5.1
		c-2.5-0.8-3.4-2.1-2.5-4.9c1.8-6.1,3.2-12.3,4.8-18.5C204.5,150.5,204.5,150.3,204.5,150z M200.9,150.2c0,1.1-0.1,2.1-0.4,3.1
		c-1.5,5.8-3.2,11.6-5.2,17.3c-0.5,1.4-2.1,3-3.5,3.3c-1.6,0.4-3.6-0.6-5.4-0.9c0.4-1.6,0.4-3.4,1.2-4.9c3.1-5.9,6.4-11.8,9.6-17.6
		C198.4,150.4,199.7,150.3,200.9,150.2z M209,262.2h-19.2c-0.3-7.1-0.6-14.2-0.9-21.4c-0.3-6.1,0.4-6.6,6.5-6.6c2.7,0,5.4,0.1,8.1,0
		c3.9-0.2,5.6,1.4,5.6,5.4C209,247.1,209,254.7,209,262.2z M209,309.8c0,4.9-1.3,6.2-6.2,6.1c-10.7,0-10.6,0-11.1-10.8
		c-0.5-12-1.1-24-1.6-36H209c0,1.8,0,3.7,0,5.5C209,286.4,209.1,298.1,209,309.8z M185.7,244.5c0.2,5.9,0.5,11.8,0.7,17.7h-20
		c-0.5-6.9-1-13.8-1.4-20.8c-0.4-6.8,0.1-7.3,6.9-7.2c1.2,0,2.3,0,3.5,0C187.7,233.9,185.4,235.4,185.7,244.5z M162.5,222.8
		c-1.1,5.5-3.8,6.6-8.5,6.1c-0.8-0.1-1.5,0-2.3,0l0,0c-0.5,0-1,0-1.5,0c-7.4,0.3-9.7,0.7-6.1-9.1c5-13.8,12.7-26.2,21-38.3
		c2-2.8,7.4-4.2,10.1-2.3c0.9,0.6,1.5,2.9,1,3.8C169.9,195.6,165.2,208.9,162.5,222.8z M147.4,234.2c1.3,0,2.6,0,3.9,0
		c11.6-0.3,9.3,0.6,10.1,9.8c0.5,6.1,1,12.1,1.6,18.2h-19.6c-0.2-1.1-0.3-2.2-0.5-3.3c-0.8-5.8-1.1-11.8-1.7-17.6
		C140.5,235.3,141.5,234.1,147.4,234.2z M163.6,269.1c1,10.6,2.1,21.3,3.1,31.9c0.3,3.4,0.7,6.9,0.9,10.4c0.2,2.8-1,4.4-4,4.4
		c-0.1,0-0.3,0-0.4,0c-11.3,0.5-12.4-0.7-13.8-12c-1.5-11.6-3.3-23.1-5.1-34.7L163.6,269.1L163.6,269.1z M157.2,320.6
		c1.3-0.1,2.6,0,3.9,0c7.4,0.1,8,0.6,9,7.9c0.5,3.9,1,7.7,1.5,11.6h-15.3c-1-4.8-1.9-9.6-2.9-14.3
		C152.7,322.6,153.9,320.8,157.2,320.6z M167.6,276.4c-0.2-2.4-0.4-4.8-0.6-7.2h19.7c0.5,13.1,1.1,26.2,1.7,39.2
		c0.3,6.6-0.3,7.5-6.8,7.4c-1.4,0-2.8,0-4.2,0.1c-3.4,0.3-5.4-1.4-5.8-4.7C170.2,299.6,168.7,288,167.6,276.4z M178.6,320.7
		c9.8-0.2,9.9-0.2,10.8,9.5c0.3,3.3,0.5,6.6,0.8,9.9h-15c-0.5-4.6-1.1-9.1-1.6-13.7C172.9,321.9,173.8,320.8,178.6,320.7z
		 M186.1,218.6c0,0.1,0,0.3,0,0.4c-0.9,9.8-0.9,9.8-10.6,9.8c-9.7,0-10.5-0.2-8.1-9.1c2.8-10.8,7-21.3,10.7-32c0.5-1.6,1.4-3,2-4.6
		c1.6-4.2,7.1-6.4,10.8-3.9c1.1,0.7,1.6,3.3,1.4,4.9C190.4,195.7,188.2,207.1,186.1,218.6z M188.5,151.7c1.1-0.2,2.3-0.4,3.6-0.6
		c-1.1,2.4-2.2,4.8-3.3,7.1c-2.1,4.2-4.2,8.5-6.7,12.5c-1,1.6-2.9,2.9-4.7,3.5c-1.3,0.4-3-0.7-4.6-1.2c0.5-1.3,0.7-2.8,1.6-3.9
		C178.9,163.2,183.7,157.5,188.5,151.7z M178.1,154.6c0.5,0.5,1,0.9,1.5,1.4c-1.9,2.4-3.7,4.8-5.6,7.3c-2.2,2.8-4.1,5.9-6.6,8.5
		c-1.3,1.3-3.4,2.1-5.3,2.6c-0.5,0.1-2.2-2.6-2.1-2.8C166,165.7,172.1,160.2,178.1,154.6z M123.2,217.3
		c5.8-10.3,13.7-19.5,20.8-29.1c1.8-2.5,4-4.8,6.2-6.8c1.5-1.3,3.4-2.4,5.3-2.8c1.4-0.3,3.1,0.7,4.6,1.1c-0.4,1.3-0.7,2.7-1.3,3.9
		c-5.9,11.1-11.8,22.1-17.8,33.2c-0.5,0.9-0.8,1.9-1,2.9c-2.5,9-2.5,9-11.5,9C116.2,229.2,117.6,227.4,123.2,217.3z M129.8,306
		c-5.3-21.7-10.3-43.5-11.9-65.9c-0.3-4.3,1.1-6.4,5.6-6c1.3,0.1,2.6,0,3.9,0c9.6-0.1,9,0,10.1,9.5c2.2,19.1,5.1,38.1,7.8,57.2
		c0.5,3.4,1.1,6.9,1.6,10.3c0.5,3.1-0.8,4.7-4,4.6c-0.3,0-0.5-0.1-0.8-0.1C132.5,315.1,132,315.2,129.8,306z M158.2,386
		c-4.4,1-7.7-0.5-8.7-4.1c-5-18.5-10-36.9-14.9-55.4c-1.4-5.2-0.5-6,7-5.9c6.9,0,6.8,0.1,8.3,6.9c0.9,4.2,1.7,8.4,2.6,12.5h-10v7
		H154c2.3,10.8,4.5,21.6,6.8,32.5C161.2,382.1,162.2,385.1,158.2,386z M173.5,386.2c-4.9,0.6-7.9-0.7-8.7-4.2
		c-2.4-11.6-4.7-23.3-7.1-34.9h14.7c1.4,11.1,2.8,22.3,4.3,33.4C177.1,383.3,177.2,385.8,173.5,386.2z M189.2,386.2
		c-5.3,0.6-8-0.8-8.6-4.8c-1.3-8.5-2.5-17-3.6-25.5c-0.4-2.9-0.7-5.8-1.1-8.8h14.7c0.5,7.2,1,14.7,1.6,22.7
		c0.1,2.3,0.3,6.6,0.5,10.8C192.9,383.4,192.8,385.8,189.2,386.2z M192.9,328c-0.4-6.2,0.6-7.3,6.7-7.2c9.3,0.1,9.3,0.1,9.3,9.6
		c0,3.3,0,6.5,0,9.8h-15.2C193.5,336.1,193.2,332,192.9,328z M204,386.3c-3.9,0.1-7-0.5-7.3-5.3c-0.4-6.5-0.9-13.1-1.4-19.6
		c-0.4-4.8-0.7-9.5-1.1-14.3H209c0,2.1,0,4.3,0,6.4h0.1c0,9,0,18,0,27C209.1,384.1,207.9,386.1,204,386.3z M203.6,228.9
		c-3.5-0.2-6.9,0-10.4-0.1c-2.9,0-4.4-1.6-3.9-4.4c1.5-9.8,3.1-19.5,4.7-29.2c0.6-3.4,0.9-6.9,1.8-10.2c1.8-6.9,3.9-6.8,10.2-5.8
		c1.2,0.2,2.8,2.9,2.9,4.6c0.3,6.7,0.1,13.4,0.1,20c0,0,0,0,0.1,0c0,6.6-0.1,13.1,0,19.7C209.2,227.2,207.7,229.1,203.6,228.9z
		 M201.1,86.8c0-5.2,4.6-9.8,9.8-9.9c5.3-0.1,9.7,4.6,9.7,10.3c0,5.5-4.2,9.7-9.7,9.7C205.3,97,201.1,92.6,201.1,86.8z M263.4,179.7
		c0.6-0.8,2.5-1.3,3.7-1c1.6,0.4,3.3,1.4,4.5,2.7c10,10.6,19.4,21.6,26.4,34.5c1.3,2.5,2.6,5,3.7,7.6c1.6,3.7,0.5,5.2-3.6,5.3
		c-1.5,0-3.1,0-4.6,0c-1.4,0-2.8-0.1-4.2,0c-3.2,0.2-5-1.1-5.7-4.4c-3.2-15.2-10.9-28.4-19.5-41.1
		C263.4,182.4,262.9,180.4,263.4,179.7z M256.8,250.8c-0.4,3.8-0.8,7.6-1.2,11.4h-20c0.3-7.3,0.6-14.6,0.8-21.9
		c0.2-4.5,1.7-6.4,6.1-6.2c3.2,0.2,6.4,0.1,9.6,0c3.2-0.1,4.7,1.4,4.6,4.7C256.7,242.6,256.8,246.5,256.8,250.8z M250.3,312
		c0,0.1,0,0.3-0.1,0.4c-0.8,3.6-4.9,4.8-12.8,3.8c-3-0.4-4.1-2.1-4-5.1c0.6-14,1.2-28,1.8-42h19.5
		C253.3,283.3,251.8,297.7,250.3,312z M264.2,320.8c4,0.1,5,1.9,4.3,5.4c-1,4.7-2,9.3-2.9,13.9h-15.3c0.3-2.3,0.6-4.6,0.9-6.9
		c0.1-0.5,0.1-1,0.2-1.5C253,320.5,253.1,320.6,264.2,320.8z M247.7,330.9c-0.4,3.1-0.8,6.2-1.2,9.3h-15.1c0.3-5.1,0.6-10,0.8-13.9
		c0.2-3.6,1.8-5.5,5.5-5.4C248.3,321,249.2,319.1,247.7,330.9z M229.5,184.9c-0.4-2.3-1.6-5,1.9-6.1c4.2-1.3,8.7,0,9.8,3
		c4.7,12.8,9.5,25.7,13.8,38.6c2.5,7.4,1.6,8.3-6.1,8.3c-0.8,0-1.5,0-2.3,0c-11.2,0.3-9.8-0.1-11.2-9.8
		C233.7,207.6,231.4,196.3,229.5,184.9z M249,190.5c-0.9-2.8-2.6-5.3-3.6-8.1c-0.3-0.9,0.5-2.8,1.3-3.3c3.3-1.8,9.3-0.7,11.4,2.6
		c4.8,7.2,9.6,14.5,13.6,22.2c3.1,6,5,12.5,7.3,18.9c1.6,4.5,0.6,5.9-4.1,6c-1.7,0-3.3,0-5,0c-1.5,0-3.1-0.1-4.6,0
		c-3.8,0.2-5.1-1.8-6-5.4C256.2,212.4,252.6,201.4,249,190.5z M244,153.7c5.5,5.4,13.6,13.8,17.7,17.8c0.2,0.2-1,2.6-1.7,2.7
		c-1,0.1-2.6-0.6-3.3-1.4c-3.5-4.2-12.3-14.6-16.8-20.1C241.4,153,242.8,153.3,244,153.7z M233.9,151.5c1.1,1.2,2.2,2.4,3.2,3.6
		c3.7,4.3,7.3,8.6,10.7,13.1c1.1,1.4,2.2,4,1.6,5.3c-0.8,1.8-7.1,0.9-8.5-1.2c-1.7-2.6-3.1-5.3-4.5-8c-2.4-4.4-4.7-8.9-7.1-13.3
		C231,151.1,232.5,151.3,233.9,151.5z M224.6,150.4c3.5,6.5,7.1,12.9,10.4,19.5c0.5,0.9-0.6,3.8-1.5,4.1c-3,0.9-6.1,0.5-7.3-3.1
		c-1.3-3.9-2.1-7.9-3.2-11.9c-0.7-2.6-1.8-5-2.4-7.6c-0.1-0.4-0.2-0.9-0.2-1.3C221.9,150.2,223.3,150.3,224.6,150.4z M213.6,149.9
		c1.1,0,2.2,0,3.3,0.1c0.9,3.3,1.8,6.5,2.7,9.6c0.9,3.2,1.7,6.4,2.7,9.6c0.7,2.2,0.9,4.4-1.9,4.8c-2.6,0.4-6.7,1.3-6.9-2.5
		C213,164.3,213.3,157.1,213.6,149.9z M216.6,178.7c3.3,0,7.8-1.1,8.7,3.5c2.6,13.5,4.9,27,6.9,40.5c0.8,5.4-0.2,6-5.5,6.1
		c-2.8,0-5.7-0.2-8.5,0c-3.6,0.3-5.2-1.2-5.1-4.9c0.1-6.8,0-13.6,0-20.4l0,0c0-6.7,0.1-13.4,0-20C213,180.9,213.5,178.7,216.6,178.7
		z M218,234.1c3.2,0.1,6.4,0.1,9.6,0c3.5-0.1,5.2,1.3,5.1,5c-0.3,7.7-0.7,15.4-1,23.1h-18.6c0-7.7,0-15.3-0.1-22.9
		C213,235.6,214.3,234,218,234.1z M213.1,269.1h18.3c-0.5,11.2-0.9,22.4-1.4,33.5c-0.1,3-0.3,5.9-0.5,8.9c-0.2,2.9-1.7,4.3-4.7,4.5
		c-11.6,0.7-11.7,0.7-11.7-10.8c0-10.2,0-20.3,0-30.5l0,0C213.1,272.9,213.1,271,213.1,269.1z M225.4,380.1
		c-0.3,5.2-5.6,8.3-10.2,5.6c-1.2-0.7-2-3.2-2-4.9c-0.2-9.1-0.1-18.2-0.1-27.4c0-2.1,0-4.2,0-6.4h14.3
		C226.8,358.1,226.1,369.1,225.4,380.1z M228.5,331.6c-0.2,2.8-0.4,5.7-0.6,8.5h-14.8c0-4.7,0-9.4-0.1-14.1
		c-0.1-3.9,1.4-5.5,5.5-5.4C229.4,320.9,229.3,320.7,228.5,331.6z M241.2,380.6c-0.4,4.6-2,5.7-7.6,5.7c-4.5,0-5-2.6-4.7-6.1
		c0.2-2.3,0-4.6,0-6.9c0.1,0,1.1-12.8,2-26.1h14.6c-1.1,8.1-2.2,16.2-3.3,24.3C241.9,374.5,241.5,377.5,241.2,380.6z M250.4,386.3
		c-5.1,0-5.9-1.1-5.3-5.7c1.5-11.1,2.9-22.3,4.3-33.4h14.8c-2.4,11.7-4.9,23.4-7.3,35.2C256,386.4,252.9,386.1,250.4,386.3z
		 M286.7,329c-4.8,17.7-9.6,35.4-14.5,53.1c-1.1,4.1-7.7,5.8-10.7,2.8c-0.6-0.7-0.9-2.1-0.7-3.1c2.3-11.6,4.6-23.2,6.9-34.8H279v-7
		h-9.9c0.9-4.6,1.8-9.2,2.7-13.7c0.9-4.7,2.2-5.6,8.8-5.6C287.9,320.9,288.6,321.8,286.7,329z M291.1,310.8c-0.9,4-3,5.6-7,5.5
		c-8.2-0.2-16.4-0.2-24.7-0.1c-4,0.1-5.8-1.6-5.3-5.5c1.3-12.5,2.8-25,4-37.5c0.1-1.3,0.2-2.7,0.3-4H279v-7h-20.1
		c0.5-7.2,1-14.4,1.4-21.7c0.3-5.5,1.2-6.4,6.7-6.5c5.1-0.1,10.3,0,15.4,0c5.7,0,11.3,0,17,0c3.3,0,4.8,1.7,4.4,4.9
		c-1.7,12.9-3,25.8-5.3,38.5C296.6,288.6,293.5,299.6,291.1,310.8z"/>
</g>
<text transform="matrix(1 0 0 1 440 346.8867)" class="st3 st4">JOULE (RESISTIVE) HEATERS</text>
<text transform="matrix(1 0 0 1 413 418.8824)" class="st3 st4">THERMOCHROMIC PIGMENT</text>
<g>
	<g>
		<g>
			<polygon class="st5" points="401,407.4 267.8,327.9 272.1,320.7 245.8,320.3 258.6,343.3 262.9,336.1 396.1,415.5 			"/>
		</g>
	</g>
</g>
<g>
	<g>
		<g>
			<polygon class="st5" points="432.3,330.7 407.3,317.8 411.1,310.3 384.8,311.5 399,333.7 402.9,326.2 427.9,339.2 			"/>
		</g>
	</g>
</g>
</svg>
