<?xml version="1.0" encoding="utf-8"?>
<!-- Generator: Adobe Illustrator 19.2.1, SVG Export Plug-In . SVG Version: 6.00 Build 0)  -->
<svg version="1.1" xmlns="http://www.w3.org/2000/svg" xmlns:xlink="http://www.w3.org/1999/xlink" x="0px" y="0px"
	 viewBox="0 0 595.3 841.9" style="enable-background:new 0 0 595.3 841.9;" xml:space="preserve">
<style type="text/css">
	.st0{clip-path:url(#SVGID_2_);}
	.st1{clip-path:url(#SVGID_4_);}
	.st2{fill:none;stroke:#A7A9AC;stroke-width:9.3413;stroke-miterlimit:10;}
	.st3{fill:#A7A9AC;}
</style>
<g id="Layer_1">
	<g>
		<defs>
			<rect id="SVGID_1_" x="91.9" y="170.6" width="377.1" height="432"/>
		</defs>
		<clipPath id="SVGID_2_">
			<use xlink:href="#SVGID_1_"  style="overflow:visible;"/>
		</clipPath>
		<g class="st0">
			<defs>
				<rect id="SVGID_3_" x="91.8" y="170.6" width="377.3" height="432.1"/>
			</defs>
			<clipPath id="SVGID_4_">
				<use xlink:href="#SVGID_3_"  style="overflow:visible;"/>
			</clipPath>
			<g class="st1">
				<defs>
					<rect id="SVGID_5_" x="91.9" y="170.6" width="377.1" height="432"/>
				</defs>
				<clipPath id="SVGID_6_">
					<use xlink:href="#SVGID_5_"  style="overflow:visible;"/>
				</clipPath>
				<g style="clip-path:url(#SVGID_6_);">
					
						<image style="overflow:visible;" width="1760" height="2016" xlink:href="AF4303A064F5D9F6.png"  transform="matrix(0.2143 0 0 0.2143 91.9191 170.636)">
					</image>
				</g>
			</g>
		</g>
	</g>
	<g>
		<g id="serpentine_10.826638682987777x45.765798444722094_NaN_3.2954153381587883_g_0.6209373576598702_r_16_l_186_3_">
			<path id="JOULE:_draw_x5F_snake_2_" class="st2" d="M465.9,297.9l-70.5,1.5c-1.7-2.1-1.7-2.1-5.6,1l-0.9,0.7
				c-3.9,3.2-3.9,3.2-2.1,5.3l7.2,8.8c1.7,2.1,1.7,2.1-2.1,5.3l-0.9,0.7c-3.9,3.2-3.9,3.2-5.6,1l-7.2-8.8c-1.7-2.1-1.7-2.1-5.6,1
				l-0.9,0.7c-3.9,3.2-3.9,3.2-2.1,5.3l7.2,8.8c1.7,2.1,1.7,2.1-2.1,5.3l-0.9,0.7c-3.9,3.2-3.9,3.2-5.6,1l-7.2-8.8
				c-1.7-2.1-1.7-2.1-5.6,1l-0.9,0.7c-3.9,3.2-3.9,3.2-2.1,5.3l7.2,8.8c1.7,2.1,1.7,2.1-2.1,5.3l-0.9,0.7c-3.9,3.2-3.9,3.2-5.6,1
				l-7.2-8.8c-1.7-2.1-1.7-2.1-5.6,1l-0.9,0.7c-3.9,3.2-3.9,3.2-2.1,5.3l7.2,8.8c1.7,2.1,1.7,2.1-2.1,5.3l-0.9,0.7
				c-3.9,3.2-3.9,3.2-5.6,1l-7.2-8.8c-1.7-2.1-1.7-2.1-5.6,1l-0.9,0.7c-3.9,3.2-3.9,3.2-2.1,5.3l7.2,8.8c1.7,2.1,1.7,2.1-2.1,5.3
				l-28.5,14.3l3.8,154.9l17,56.6l3.1,45"/>
		</g>
		<g id="serpentine_10.826638682987777x45.765798444722094_NaN_3.2954153381587883_g_0.6209373576598702_r_16_l_186_1_">
			<path id="JOULE:_draw_x5F_snake_1_" class="st2" d="M465.9,378.8l-41.2,2.7c-0.2-2.9-0.2-2.9-5.2-2.5l-1.1,0.1
				c-5,0.4-5,0.4-4.8,3.3l0.9,12.1c0.2,2.9,0.2,2.9-4.8,3.3l-1.1,0.1c-5,0.4-5,0.4-5.2-2.5l-0.9-12.1c-0.2-2.9-0.2-2.9-5.2-2.5
				l-1.1,0.1c-5,0.4-5,0.4-4.8,3.3l0.9,12.1c0.2,2.9,0.2,2.9-4.8,3.3l-1.1,0.1c-5,0.4-5,0.4-5.2-2.5l-0.9-12.1
				c-0.2-2.9-0.2-2.9-5.2-2.5l-1.1,0.1c-5,0.4-5,0.4-4.8,3.3l0.9,12.1c0.2,2.9,0.2,2.9-4.8,3.3l-1.1,0.1c-5,0.4-5,0.4-5.2-2.5
				l-0.9-12.1c-0.2-2.9-0.2-2.9-5.2-2.5l-1.1,0.1c-5,0.4-5,0.4-4.8,3.3l0.9,12.1c0.2,2.9,0.2,2.9-4.8,3.3l-1.1,0.1
				c-5,0.4-5,0.4-5.2-2.5l-0.9-12.1c-0.2-2.9-0.2-2.9-5.2-2.5l-1.1,0.1c-5,0.4-5,0.4-4.8,3.3l0.9,12.1c0.2,2.9-9.7,1.9-14.7,2.3
				l7.4,121.7l20.1,54l15.1,68.2"/>
		</g>
		<g id="serpentine_10.826638682987777x45.765798444722094_NaN_3.2954153381587883_g_0.6209373576598702_r_16_l_186_2_">
			<path id="JOULE:_draw_x5F_snake_3_" class="st2" d="M465.9,450.2l-37.6-8.7c0.9-3.2,0.9-3.2-3.9-4.6l-1.1-0.3
				c-4.8-1.3-4.8-1.3-5.7,1.9l-3.7,13.3c-0.9,3.2-0.9,3.2-5.7,1.9l-1.1-0.3c-4.8-1.3-4.8-1.3-3.9-4.6l3.7-13.3
				c0.9-3.2,0.9-3.2-3.9-4.6l-1.1-0.3c-4.8-1.3-4.8-1.3-5.7,1.9l-3.7,13.3c-0.9,3.2-0.9,3.2-5.7,1.9l-1.1-0.3
				c-4.8-1.3-4.8-1.3-3.9-4.6l3.7-13.3c0.9-3.2,0.9-3.2-3.9-4.6l-1.1-0.3c-4.8-1.3-4.8-1.3-5.7,1.9l-3.7,13.3
				c-0.9,3.2-0.9,3.2-5.7,1.9l-1.1-0.3c-4.8-1.3-4.8-1.3-3.9-4.6l3.7-13.3c0.9-3.2,0.9-3.2-3.9-4.6l-1.1-0.3
				c-4.8-1.3-4.8-1.3-5.7,1.9l-3.7,13.3c-0.9,3.2-0.9,3.2-5.7,1.9l-1.1-0.3c-4.8-1.3-4.8-1.3-3.9-4.6l3.7-13.3
				c0.9-3.2,0.9-3.2-3.9-4.6l-1.1-0.3c-4.8-1.3-4.8-1.3-5.7,1.9l-5.8,28.7c-0.9,3.2,63.8,159.2,63.8,159.2v45"/>
		</g>
		<g id="serpentine_10.826638682987777x45.765798444722094_NaN_3.2954153381587883_g_0.6209373576598702_r_16_l_186_6_">
			<path id="JOULE:_draw_x5F_snake_6_" class="st2" d="M248.3,647.6l-0.7-45L267.5,434l-4.1-52c-3.9-3.2-36.1-5.8-32.7-10l14.1-17.2
				c3.4-4.2,3.4-4.2-0.4-7.3l-0.9-0.7c-3.9-3.2-3.9-3.2-7.3,1l-14.1,17.2c-3.4,4.2-3.4,4.2-7.3,1l-0.9-0.7c-3.9-3.2-3.9-3.2-0.4-7.3
				l14.1-17.2c3.4-4.2,3.4-4.2-0.4-7.3l-0.9-0.7c-3.9-3.2-3.9-3.2-7.3,1L205,350.9c-3.4,4.2-3.4,4.2-7.3,1l-0.9-0.7
				c-3.9-3.2-3.9-3.2-0.4-7.3l14.1-17.2c3.4-4.2,3.4-4.2-0.4-7.3l-0.9-0.7c-3.9-3.2-3.9-3.2-7.3,1l-14.1,17.2
				c-3.4,4.2-3.4,4.2-7.3,1l-0.9-0.7c-3.9-3.2-3.9-3.2-0.4-7.3l14.1-17.2c3.4-4.2,3.4-4.2-0.4-7.3l-0.9-0.7c-3.9-3.2-3.9-3.2-7.3,1
				l-14.1,17.2c-3.4,4.2-3.4,4.2-7.3,1l-0.9-0.7c-3.9-3.2-3.9-3.2-0.4-7.3l14.1-17.2c3.4-4.2,3.4-4.2-0.4-7.3l-0.9-0.7
				c-3.9-3.2-3.9-3.2-7.3,1L91.9,290"/>
		</g>
		<g id="serpentine_10.826638682987777x45.765798444722094_NaN_3.2954153381587883_g_0.6209373576598702_r_16_l_186_5_">
			<path id="JOULE:_draw_x5F_snake_5_" class="st2" d="M218.3,647.6l-5.2-17l42.5-209.7l-6.1-25.9c-5-0.4-13.7-0.1-13.5-3l-8.4-5.6
				c0.2-2.9,0.2-2.9-4.8-3.3l-1.1-0.1c-5-0.4-5-0.4-5.2,2.5l-0.9,12.1c-0.2,2.9-0.2,2.9-5.2,2.5l-1.1-0.1c-5-0.4-5-0.4-4.8-3.3
				l0.9-12.1c0.2-2.9,0.2-2.9-4.8-3.3l-1.1-0.1c-5-0.4-5-0.4-5.2,2.5l-0.9,12.1c-0.2,2.9-0.2,2.9-5.2,2.5l-1.1-0.1
				c-5-0.4-5-0.4-4.8-3.3l0.9-12.1c0.2-2.9,0.2-2.9-4.8-3.3l-1.1-0.1c-5-0.4-5-0.4-5.2,2.5l-0.9,12.1c-0.2,2.9-0.2,2.9-5.2,2.5
				l-1.1-0.1c-5-0.4-5-0.4-4.8-3.3l0.9-12.1c0.2-2.9,0.2-2.9-4.8-3.3l-1.1-0.1c-5-0.4-5-0.4-5.2,2.5l-0.9,12.1
				c-0.2,2.9-0.2,2.9-5.2,2.5l-1.1-0.1c-5-0.4-5-0.4-4.8-3.3l0.9-12.1c0.2-2.9,0.2-2.9-4.8-3.3l-1.1-0.1c-5-0.4-5-0.4-5.2,2.5
				l-36.1,0.1"/>
		</g>
		<g id="serpentine_10.826638682987777x45.765798444722094_NaN_3.2954153381587883_g_0.6209373576598702_r_16_l_186_4_">
			<path id="JOULE:_draw_x5F_snake_7_" class="st2" d="M178,654.7V606l52.6-150c-4.8,1.3,17.1-21.3,12.4-30.8l-3.7-13.3
				c-0.9-3.2-0.9-3.2-5.7-1.9l-1.1,0.3c-4.8,1.3-4.8,1.3-3.9,4.6l3.7,13.3c0.9,3.2,0.9,3.2-3.9,4.6l-1.1,0.3
				c-4.8,1.3-4.8,1.3-5.7-1.9l-3.7-13.3c-0.9-3.2-0.9-3.2-5.7-1.9l-1.1,0.3c-4.8,1.3-4.8,1.3-3.9,4.6l3.7,13.3
				c0.9,3.2,0.9,3.2-3.9,4.6l-1.1,0.3c-4.8,1.3-4.8,1.3-5.7-1.9l-3.7-13.3c-0.9-3.2-0.9-3.2-5.7-1.9l-1.1,0.3
				c-4.8,1.3-4.8,1.3-3.9,4.6l3.7,13.3c0.9,3.2,0.9,3.2-3.9,4.6l-1.1,0.3c-4.8,1.3-4.8,1.3-5.7-1.9l-3.7-13.3
				c-0.9-3.2-0.9-3.2-5.7-1.9l-1.1,0.3c-4.8,1.3-4.8,1.3-3.9,4.6l3.7,13.3c0.9,3.2,0.9,3.2-3.9,4.6l-1.1,0.3
				c-4.8,1.3-4.8,1.3-5.7-1.9l-3.7-13.3c-0.9-3.2-0.9-3.2-5.7-1.9l-1.1,0.3c-4.8,1.3-5.3,10.2-4.4,13.4l-1.1,16l-49.6,3"/>
		</g>
		<path class="st2" d="M247.7,630.6"/>
		<polyline class="st2" points="91.9,284 91.9,591 143,647.6 		"/>
		<polyline class="st2" points="465.9,284 465.9,583 426.8,647.6 		"/>
		<polygon class="st3" points="192.9,664.5 163,664.5 163,630.6 193,630.6 		"/>
		<polygon class="st3" points="157.9,664.5 128,664.5 128,630.6 158,630.6 		"/>
		<polygon class="st3" points="441.6,664.5 411.8,664.5 411.8,630.6 441.8,630.6 		"/>
		<polygon class="st3" points="228.1,664.5 198.1,664.5 198.2,630.6 228.2,630.6 		"/>
		<polygon class="st3" points="263.3,664.5 233.3,664.5 233.4,630.6 263.4,630.6 		"/>
		<polygon class="st3" points="298.5,664.5 268.5,664.5 268.6,630.6 298.6,630.6 		"/>
		<polygon class="st3" points="333.7,664.5 303.7,664.5 303.8,630.6 333.8,630.6 		"/>
		<polygon class="st3" points="368.9,664.5 338.9,664.5 339,630.6 369,630.6 		"/>
		<polygon class="st3" points="404.9,664.5 374.9,664.5 375,630.6 405,630.6 		"/>
		<g id="serpentine_56.68428587026408x45.765798444722094_NaN_3.2954153381587883_g_0.6209373576598702_r_71_l_782">
			<path id="JOULE:_draw_x5F_snake_4_" class="st2" d="M428.3,298.7c0,4-48.4-50.4-72.7-71.3c-6.4-5.5-16.6-4.4-17.3-4.4H234
				c-3.5,0-3.5,0-3.5,5v1.1c0,5,0,5,3.5,5h104.3c3.5,0,3.5,0,3.5,5v1.1c0,5,0,5-3.5,5H234c-3.5,0-3.5,0-3.5,5v1.1c0,5,0,5,3.5,5
				h104.3c3.5,0,3.5,0,3.5,5v1.1c0,5,0,5-3.5,5H234c-3.5,0-3.5,0-3.5,5v1.1c0,5,0,5,3.5,5h104.3c3.5,0,3.5,0,3.5,5v1.1
				c0,5,0,5-3.5,5H234c-3.5,0-3.5,0-3.5,5v1.1c0,5,0,5,3.5,5h104.3c3.5,0,3.5,0,3.5,5v1.1c0,5,0,5-3.5,5H234c-3.5,0-3.5,0-3.5,5v1.1
				c0,5,0,5,3.5,5l46.4,11.9c3.5,0-6.8,263.1-6.8,268.1l14,51.9"/>
		</g>
		<polyline class="st2" points="234,222.9 209,222.9 114.9,292.7 		"/>
	</g>
</g>
<g id="Layer_2">
</g>
</svg>
