<?xml version="1.0" encoding="utf-8"?>
<!-- Generator: Adobe Illustrator 19.2.1, SVG Export Plug-In . SVG Version: 6.00 Build 0)  -->
<svg version="1.1" id="ELD:_CakeDial" xmlns="http://www.w3.org/2000/svg" xmlns:xlink="http://www.w3.org/1999/xlink" x="0px"
	 y="0px" viewBox="0 0 187.7 187.7" style="enable-background:new 0 0 187.7 187.7;" xml:space="preserve">
<style type="text/css">
	.st0{fill:#0076B6;stroke:#000000;stroke-width:2;stroke-miterlimit:10;}
	.st1{fill:#E6E7E8;stroke:#231F20;stroke-linecap:round;stroke-miterlimit:10;}
	.st2{fill:#FFFF00;}
	.st3{fill:none;stroke:#FFFF00;stroke-linecap:round;stroke-miterlimit:10;}
</style>
<g id="DEVICE:_x7B__x27_id_x27_:0_x7D__1_">
	<path id="BASE:_base_x5F_path_1_" class="st0" d="M93.9,36.5c-31.7,0-57.4,25.6-57.4,57.3s25.7,57.3,57.3,57.3s57.3-25.7,57.3-57.3
		S125.5,36.5,93.9,36.5z M93.9,130.8c-20.4,0-37-16.6-37-37s16.6-37,37-37s37,16.6,37,37S114.3,130.8,93.9,130.8z"/>
	<polygon id="NLED:_x7B__x22_colorID_x22_:_x22__x23_FFFF00_x22__x7D__23_" class="st1" points="111.7,58 98.2,53.7 102.5,40.2 
		116,44.5 114.2,50.3 	"/>
	<polygon id="NLED:_x7B__x22_colorID_x22_:_x22__x23_FFFF00_x22__x7D__22_" class="st1" points="91.1,54 77.3,57.1 74.3,43.2 
		88.1,40.2 89.4,46 	"/>
	<polygon id="NLED:_x7B__x22_colorID_x22_:_x22__x23_FFFF00_x22__x7D__21_" class="st1" points="71.4,61.2 61,70.8 51.4,60.3 
		61.9,50.8 65.9,55.2 	"/>
	<polygon id="NLED:_x7B__x22_colorID_x22_:_x22__x23_FFFF00_x22__x7D__20_" class="st1" points="57.6,77 53.4,90.5 39.9,86.3 
		44.1,72.7 49.9,74.5 	"/>
	<polygon id="NLED:_x7B__x22_colorID_x22_:_x22__x23_FFFF00_x22__x7D__19_" class="st1" points="54.5,97.6 57.6,111.4 43.8,114.5 
		40.6,100.7 46.5,99.4 	"/>
	<polygon id="NLED:_x7B__x22_colorID_x22_:_x22__x23_FFFF00_x22__x7D__18_" class="st1" points="61.2,116.8 70.9,127.2 60.5,136.9 
		50.8,126.5 55.2,122.4 	"/>
	<polygon id="NLED:_x7B__x22_colorID_x22_:_x22__x23_FFFF00_x22__x7D__17_" class="st1" points="77.1,130.4 90.6,134.5 86.5,148.1 
		72.9,143.9 74.7,138.2 	"/>
	<polygon id="NLED:_x7B__x22_colorID_x22_:_x22__x23_FFFF00_x22__x7D__16_" class="st1" points="97.4,133.7 111.2,130.5 
		114.5,144.3 100.7,147.5 99.3,141.6 	"/>
	<polygon id="NLED:_x7B__x22_colorID_x22_:_x22__x23_FFFF00_x22__x7D__15_" class="st1" points="116.9,126.5 127.2,116.8 
		136.9,127.1 126.6,136.9 122.5,132.5 	"/>
	<polygon id="NLED:_x7B__x22_colorID_x22_:_x22__x23_FFFF00_x22__x7D__14_" class="st1" points="129.9,110.7 134,97.2 147.6,101.2 
		143.5,114.8 137.7,113.1 	"/>
	<polygon id="NLED:_x7B__x22_colorID_x22_:_x22__x23_FFFF00_x22__x7D__13_" class="st1" points="133.4,90.8 130.1,77 143.9,73.7 
		147.2,87.5 141.3,88.9 	"/>
	<polygon id="NLED:_x7B__x22_colorID_x22_:_x22__x23_FFFF00_x22__x7D__12_" class="st1" points="127.3,71.4 117.5,61.1 127.7,51.3 
		137.5,61.6 133.2,65.7 	"/>
	<path id="BASE:_base_x5F_path_2_" class="st0" d="M94,1C42.6,1,1,42.5,1,93.8s41.6,92.8,92.8,92.8s92.8-41.6,92.8-92.8
		S145.2,1,94,1z M94,167.8c-40.8,0-74-33.2-74-74s33.2-74,74-74s74,33.2,74,74S134.8,167.8,94,167.8z"/>
	<polygon id="NLED:_x7B__x22_colorID_x22_:_x22__x23_FFFF00_x22__x7D__1_" class="st1" points="101,17.7 86.9,17.8 86.9,3.6 
		101.1,3.6 101.1,9.6 	"/>
	<polygon id="NLED:_x7B__x22_colorID_x22_:_x22__x23_FFFF00_x22__x7D__2_" class="st1" points="120.7,22.2 107,18.6 110.7,4.9 
		124.3,8.6 122.8,14.3 	"/>
	<polygon id="NLED:_x7B__x22_colorID_x22_:_x22__x23_FFFF00_x22__x7D__3_" class="st1" points="138.5,31.6 126.2,24.6 133.3,12.3 
		145.6,19.4 142.6,24.5 	"/>
	<polygon id="NLED:_x7B__x22_colorID_x22_:_x22__x23_FFFF00_x22__x7D__4_" class="st1" points="153.3,45.3 143.2,35.3 153.3,25.3 
		163.3,35.3 159.1,39.5 	"/>
	<polygon id="NLED:_x7B__x22_colorID_x22_:_x22__x23_FFFF00_x22__x7D__5_" class="st1" points="164,62.3 156.9,50.1 169.2,43 
		176.2,55.3 171.1,58.3 	"/>
	<polygon id="NLED:_x7B__x22_colorID_x22_:_x22__x23_FFFF00_x22__x7D__6_" class="st1" points="169.9,81.5 166.2,67.9 179.9,64.3 
		183.6,77.9 177.8,79.5 	"/>
	<polygon id="NLED:_x7B__x22_colorID_x22_:_x22__x23_FFFF00_x22__x7D__7_" class="st1" points="170.4,101.7 170.3,87.5 184.5,87.6 
		184.5,101.7 178.6,101.7 	"/>
	<polygon id="NLED:_x7B__x22_colorID_x22_:_x22__x23_FFFF00_x22__x7D__8_" class="st1" points="165.6,121.3 169.2,107.6 
		182.9,111.4 179.2,125 173.5,123.5 	"/>
	<polygon id="NLED:_x7B__x22_colorID_x22_:_x22__x23_FFFF00_x22__x7D__9_" class="st1" points="156.3,139.1 163.3,126.8 175.6,134 
		168.5,146.2 163.4,143.2 	"/>
	<polygon id="NLED:_x7B__x22_colorID_x22_:_x22__x23_FFFF00_x22__x7D__10_" class="st1" points="142.3,153.3 152.3,143.2 
		162.3,153.3 152.3,163.3 148.1,159.1 	"/>
	<polygon id="NLED:_x7B__x22_colorID_x22_:_x22__x23_FFFF00_x22__x7D__11_" class="st1" points="125.4,163.9 137.6,156.8 
		144.7,169.2 132.4,176.2 129.4,171.1 	"/>
	<polygon id="NLED:_x7B__x22_colorID_x22_:_x22__x23_FFFF00_x22__x7D__24_" class="st1" points="106.4,169.8 120.1,166.1 
		123.7,179.9 110,183.5 108.5,177.7 	"/>
	<polygon id="NLED:_x7B__x22_colorID_x22_:_x22__x23_FFFF00_x22__x7D__25_" class="st1" points="86.6,170.4 100.7,170.4 
		100.6,184.6 86.5,184.5 86.5,178.6 	"/>
	<polygon id="NLED:_x7B__x22_colorID_x22_:_x22__x23_FFFF00_x22__x7D__26_" class="st1" points="66.5,165.7 80.2,169.3 76.4,183 
		62.8,179.3 64.3,173.6 	"/>
	<polygon id="NLED:_x7B__x22_colorID_x22_:_x22__x23_FFFF00_x22__x7D__27_" class="st1" points="49.2,156.2 61.5,163.3 54.3,175.5 
		42.1,168.4 45,163.3 	"/>
	<polygon id="NLED:_x7B__x22_colorID_x22_:_x22__x23_FFFF00_x22__x7D__28_" class="st1" points="34.9,143 44.9,153 34.8,163 
		24.9,153 29.1,148.8 	"/>
	<polygon id="NLED:_x7B__x22_colorID_x22_:_x22__x23_FFFF00_x22__x7D__29_" class="st1" points="24.1,126.2 31.2,138.5 18.8,145.5 
		11.9,133.2 17,130.2 	"/>
	<polygon id="NLED:_x7B__x22_colorID_x22_:_x22__x23_FFFF00_x22__x7D__30_" class="st1" points="18.3,107 22,120.6 8.2,124.2 
		4.6,110.5 10.4,109 	"/>
	<polygon id="NLED:_x7B__x22_colorID_x22_:_x22__x23_FFFF00_x22__x7D__31_" class="st1" points="17.4,86.8 17.4,101 3.1,100.9 
		3.2,86.7 9.2,86.7 	"/>
	<polygon id="NLED:_x7B__x22_colorID_x22_:_x22__x23_FFFF00_x22__x7D__32_" class="st1" points="21.9,67.2 18.3,80.9 4.6,77.1 
		8.3,63.5 14.1,65 	"/>
	<polygon id="NLED:_x7B__x22_colorID_x22_:_x22__x23_FFFF00_x22__x7D__33_" class="st1" points="31.5,49.5 24.4,61.7 12.1,54.5 
		19.3,42.3 24.4,45.3 	"/>
	<polygon id="NLED:_x7B__x22_colorID_x22_:_x22__x23_FFFF00_x22__x7D__34_" class="st1" points="45.2,34.8 35.2,44.8 25.3,34.6 
		35.3,24.7 39.5,29 	"/>
	<polygon id="NLED:_x7B__x22_colorID_x22_:_x22__x23_FFFF00_x22__x7D__35_" class="st1" points="62.4,24.2 50.1,31.3 43.1,18.9 
		55.4,11.9 58.4,17.1 	"/>
	<polygon id="NLED:_x7B__x22_colorID_x22_:_x22__x23_FFFF00_x22__x7D__36_" class="st1" points="81.6,18.4 68,22 64.4,8.3 78.1,4.7 
		79.6,10.5 	"/>
	<circle id="BI:_Breakin_2_" class="st2" cx="8" cy="70.8" r="2.9"/>
	<path id="CP:_Circuit_Path" class="st3" d="M47.3,81.8c1.6-4.4,5.4-12.7,13.6-20.2c1.8-1.6,9.6-8.5,22.2-11.9
		c5-1.3,13.7-3.7,24.3-0.8c12.4,3.4,19.6,11.7,21.9,14.6c14.8,17.9,10.4,40.5,9.9,42.3c-0.4,1.8-6.5,28.1-30.7,36.3
		c-13.7,4.7-25.4,1-28.7-0.1c-22.3-7.3-30.4-29-31.7-33c-1.9-5.5-2.6-10.3-2.8-13.5c-22.2,0-40.2-0.7-40.2-1.5
		c0.4,5.9,1.6,14.6,5.1,24.7c2.4,7.3,17.2,47,58,60.3c6,2,27.4,8.8,52.5,0.2c44.3-15,55.4-63.1,56.1-66.4c0.9-3.3,9-44.6-18.1-77.3
		c-4.2-5.3-17.4-20.5-40-26.7c-19.4-5.3-35.3-0.9-44.4,1.5c-23,6.2-37.3,18.8-40.6,21.8C18.6,45.8,11.7,61,8.7,69"/>
</g>
</svg>
