<?xml version="1.0" encoding="utf-8"?>
<!-- Generator: Adobe Illustrator 19.2.1, SVG Export Plug-In . SVG Version: 6.00 Build 0)  -->
<svg version="1.1" xmlns="http://www.w3.org/2000/svg" xmlns:xlink="http://www.w3.org/1999/xlink" x="0px" y="0px"
	 viewBox="0 0 283.5 282.8" style="enable-background:new 0 0 283.5 282.8;" xml:space="preserve">
<style type="text/css">
	.st0{display:none;}
	.st1{display:inline;fill:none;stroke:#000000;stroke-width:0.25;stroke-miterlimit:10;}
	.st2{display:inline;fill:none;stroke:#EA1C1C;stroke-width:0.25;stroke-miterlimit:10;}
	.st3{display:inline;fill:none;stroke:#000000;stroke-miterlimit:10;}
	.st4{fill:#FFE9F0;}
	.st5{fill:#68EA71;stroke:#000000;stroke-width:0.25;stroke-miterlimit:10;}
	.st6{fill:#EA1C1C;stroke:#EA1C1C;stroke-width:0.25;stroke-miterlimit:10;}
	.st7{fill:none;stroke:#000000;stroke-width:0.25;stroke-miterlimit:10;}
	.st8{fill:none;stroke:#EA1C1C;stroke-width:0.25;stroke-miterlimit:10;}
</style>
<g id="Ornaments" class="st0">
	<path class="st1" d="M147.6,283.5c0,0-25.1-47.3-25.1-51.2l42.4-71.9c0,0,52.8,5.8,63.8,11l50.8,28.8l-49.2,83.3H147.6z"/>
	<polygon class="st1" points="243.6,283.5 256.5,260.7 283.5,278.2 283.5,283.5 	"/>
	<polygon class="st1" points="283.5,268 260.7,253.3 283.5,217 	"/>
	<path class="st1" d="M174.8,149.8l37-26.8c0,0-6.7,15.5,2.5,32.1L174.8,149.8z"/>
	<path class="st1" d="M99.8,129.7c0,0,21,9,32.4,12c11.5,3,28.1,6.6,28.1,6.6s42.5-40.6,55.6-40.2c0,0-16.4-19.3-19.3-24.9
		C193.7,77.7,141.7,0,141.7,0H0v80.5L99.8,129.7z"/>
	<path class="st1" d="M138.4,155.4l14.7,3.2l-5.6,8.4C147.4,166.9,140.6,155.8,138.4,155.4z"/>
	<polyline class="st1" points="0,80.5 0,46.4 72.5,0 141.7,0 	"/>
	<polygon class="st1" points="53.8,0 0,34.3 0,0 	"/>
	<polygon class="st2" points="144.6,206.3 151.1,195.7 169.7,206.3 166.2,212.7 168.7,214.1 166.3,218.3 	"/>
	<polygon class="st2" points="178.4,213 169.7,226.3 142.8,213 139.1,232.6 173.1,248.8 187,226.4 184.6,224.9 186.7,221.8 
		181.6,218.3 183.1,216.1 	"/>
	<polyline class="st3" points="283.5,283.5 0,283.5 0,0 283.5,0 	"/>
	<polygon class="st2" points="87.2,214.1 115.1,161.1 109.5,158.5 110.4,156.4 91.1,146 88,152.7 82.6,149.7 77.5,154.2 56.8,197.8 
			"/>
	<polygon class="st2" points="41.9,190.9 56.8,161.5 34.5,150.7 19.6,179.2 	"/>
	<path class="st2" d="M56,158.1l4.6-8c0,0-3-1.8,1.1-5.1l6.2-13.6l-11.1-4.9l-0.9,2.1l-9.2-4.3l-11.4,24L56,158.1z"/>
	<path class="st2" d="M34.2,141.4l5.8-11.8c0,0,4.6-1,3.1-4.4c-1.5-3.4-5-2.1-5-2.1l-6.8-3.5l0.8-1.6l-14.1-7.2l-0.6,1.4l-6.6-3.1
		c0,0-1.4-4.7-4.5-3.6s-2.2,4.8-2.2,4.8L0,118.4v51l9.6,3.9c0,0-0.8,2,2.4,3.3c3.2,1.3,3.9-1.1,3.9-1.1l7.7-14.4L2.4,150.4l2.5-4.4
		l6.4,3.5l6.8-12l-7.1-3.7l3-5.6l2.6,1.1l-0.7,1.3l16.2,8.7l-0.4,0.8L34.2,141.4z"/>
	<path class="st2" d="M89,119.2l-9.7-4.6l4.3-3.2c0,0,0.3-2.7-2.2-2.1l-4.9,3.8l-8.7-3.9l1-6L92,88.8l12.4,20.3L89,119.2z"/>
	<path class="st2" d="M93.1,88l31.2-19.2L136,88.1l-10.8,7.2l5.6,8.6l9.7-6.1l-1-1.5l6.1-3.4l1.2-7.2l6.7-4.2l0.8,1.1L179,67.2
		l18.1,28.4c0,0,3.4,8.7-4.1,13.6l-47.5,29.8c0,0-10.9,1.4-14.6-0.5l-9.8-14l-3.2,2.2L93.1,88z"/>
	<path class="st2" d="M194.5,48.7c0,0,16.8,33.3,77.3,30.1l11.6,0.2V53.9l-7-17.9l7-2.4l-5.5-11.3L266.1,0h-33.6l9.6,19.4l6.9-2.6
		l6.1,15.3l-7.3,2.3l3.1,7.2l-32-5.7L194.5,48.7z"/>
	<polygon class="st2" points="226.2,0 228,4.4 180.8,28.9 171.6,14.4 174.8,6.3 186.3,0 	"/>
	<polygon class="st2" points="99.8,273.4 96.1,251.4 104.6,249.7 108.4,272.1 	"/>
	<polygon class="st2" points="53.8,283.5 37.1,273.4 47.6,254.1 31,244.5 37.1,235.1 35.3,233.8 40.8,225.3 0,199.7 0,259.1 
		5.6,261.7 7.6,258.5 15.4,263.1 3,283.6 	"/>
</g>
<g id="Diffusers">
	
		<rect id="BASE:_Base_path" x="-22.7" y="-22.7" transform="matrix(-1.836970e-16 1 -1 -1.836970e-16 282.7505 9.379164e-13)" width="328.1" height="328.1"/>
	<rect id="DIF:_base_path" x="0" class="st4" width="282.8" height="282.8"/>
	<path id="DDS:_diff_4_" class="st5" d="M283.5,188.5l-49.8-27.3c0,0-26.9-21.2-3.9-46.3l53.8-13.3V188.5z"/>
	<polygon id="DDS:_Diff" class="st5" points="251.1,184.1 222.2,231.9 250,249.7 279.5,200.2 	"/>
	<polygon id="DDS:_dsida" class="st5" points="104.5,19.7 11.1,77.1 0,72 0,50.7 78.2,0 93.1,0 	"/>
	<polygon id="DDS:_fid" class="st6" points="50.9,101.5 15.7,82.4 50.9,61.4 69.1,89.6 	"/>
	<path id="DDS:_dif_1_" class="st6" d="M156,283.5l21.9-17.7l-12.5-14.5l0.8-1.3l-12.8-9.2l-3.1,5.1c0,0-1.8,1.5-3.5,0.3l-7.7-4.4
		c0,0,0.8,14.4,3.5,18.6l1.7,0.5l2.7-1.2l2.3,2.6l-4.6,3.9l9.7,17.3H156z"/>
	<path id="DDS:_Dif_2_" class="st6" d="M219.4,230.2l12.9-19.8l-19.1-11.6l5-8.6l17.7,11.4l9.2-14.4l-12.3-7.5l-1.9,2.8l-6.5-3.9
		l1.8-3.5l-13.5-4.3l-3.1,4.3l-11.3-5.2c0,0-19.7-6.6-42.3,22.4L219.4,230.2z"/>
	<path id="DDS:_Dif_1_" class="st7" d="M83.3,216.1c11.7,9.1,28.8,11.3,28.8,11.3l27.5-48.2c-3.2-14.2-15.9-19.1-15.9-19.1
		l-11.7-12.3l-30.8-14.6l-30.4,67L83.3,216.1z"/>
	<path id="DDS:_DIf" class="st7" d="M133.9,283.5l-23.3-48.7c0,0-12.8,0.4-15.4-2.8l-29.7,51.6H133.9z"/>
	<polygon id="DDS:_Dif" class="st7" points="61.7,283.5 93.5,231.1 0,184.1 0,283.6 	"/>
	<path id="DDS:_dif" class="st7" d="M283.5,89.7l-55.2,11.8c0,0-16.8-15.3-19.7-21.9L161,7.9L174.8,0h108.7V89.7z"/>
	<path id="DDS:_diff_3_" class="st8" d="M197.1,95.6L179,67.2l-24.6,15.4l-0.8-1.1l-6.7,4.2l-1.2,7.2l-6.1,3.4l1,1.5l-9.7,6.1
		l-5.6-8.6l10.8-7.2l-11.7-19.4L93.1,88l0.1,0.2l-24.3,15.1l-1,6l8.7,3.9l4.9-3.8c2.5-0.6,2.2,2.1,2.2,2.1l-4.3,3.2l9.7,4.6
		l16.9-11.1l11.9,18.7l3.2-2.2l9.8,14c3.7,1.9,14.6,0.5,14.6,0.5l47.5-29.8C200.6,104.3,197.1,95.6,197.1,95.6z"/>
	<path id="DDS:_diff_2_" class="st8" d="M69.5,50.7l8.4,14.4l1.1-0.7l1.4,2.2l6.9-4l5.7,9.3l13.3-8.3L99,51.8l11.8-6.9l3,4.9
		l32.7-20.4c0,0-3.5-5,0.4-7.3l2.1-1.3L135.4,0h-27.9l8.3,12.4c0,0,4.5-3,7,1.2l2.5,3.5L109,27.1l-1.4-2.4l-12.4,7.7l1.1,1.6
		L69.5,50.7z"/>
	<polygon id="DDS:_difff" class="st7" points="3.8,95.4 0,103.2 0,174 43.3,196.6 74.2,130.3 	"/>
	<polygon id="DDS:_diff_1_" class="st8" points="163.2,283.5 186.9,264.4 184.9,261.7 204.4,231.9 243.6,257.7 226.6,283.5 	"/>
	<polygon id="DDS:_diff" class="st8" points="184.6,224.9 186.7,221.8 181.6,218.3 183.1,216.1 178.4,213 169.5,206.6 169.7,206.3 
		166.9,204.7 166.9,204.7 166.9,204.7 151.1,195.7 144.6,206.3 139.1,232.6 173.1,248.8 187,226.4 	"/>
</g>
</svg>
