<svg x="0" y="0" width="801" height="671" version="1.1" xmlns="http://www.w3.org/2000/svg" xmlns:xlink="http://www.w3.org/1999/xlink"><g transform=""><g fill="none" stroke="none" stroke-width="none" stroke-linecap="butt" stroke-linejoin="miter" stroke-miterlimit="none" stroke-dasharray="none" stroke-dashoffset="0" font-family="none" font-weight="normal" font-size="none" text-anchor="start" mix-blend-mode="normal"><g id="ELD:_Sun_and_Moon"><path d="M400.5,463.45c-92.6,0 -168,-75.4 -168,-168c0,-92.6 75.4,-167.9 168,-167.9c92.6,0 168,75.4 168,168c0,92.6 -75.3,167.9 -168,167.9z" id="DIF:_base" fill="#dfdfdf" stroke="#000000" stroke-width="3" stroke-miterlimit="4" stroke-dasharray="" font-family="&quot;Helvetica Neue&quot;, Helvetica, Arial, sans-serif" font-size="14"/><polygon points="255.7,431.15 255.7,427.35 255.7,424.75 255.7,416.95 255.7,414.35 255.7,406.55 255.7,396.25 246.2,396.25 246.2,406.55 246.2,414.35 246.2,416.95 246.2,424.75 246.2,427.35 246.2,431.15 246.2,434.95 255.7,434.95" id="BI:_Breakin_1_" fill="#0c00ff" stroke="none" stroke-width="1" stroke-miterlimit="4" stroke-dasharray="" font-family="&quot;Helvetica Neue&quot;, Helvetica, Arial, sans-serif" font-size="14" visibility="hidden"/><path d="M427.9,153.85c-1.2,3 -3.9,9.6 -10.3,14.5c-3.1,2.4 -5.5,3.1 -9.7,4.5c-0.9,0.3 -1.9,0.5 -2.9,0.9c-0.8,-0.7 -1.5,-1.3 -2.2,-2c-3.4,-2.9 -5.2,-4.5 -7.1,-7.9c-2,-3.7 -3.2,-8 -3.6,-12.5c2.5,-0.1 5.1,-0.2 7.6,-0.2c9.6,-0.1 19.1,0.9 28.2,2.7z" id="DDS:_DIFF_20_" fill="#dfdfdf" stroke="#000000" stroke-width="1" stroke-miterlimit="4" stroke-dasharray="2,1" font-family="&quot;Helvetica Neue&quot;, Helvetica, Arial, sans-serif" font-size="14" opacity="0.5"/><path d="M465.5,166.95c-0.7,0.8 -1.3,1.6 -1.8,2.5c-2.4,2.6 -10.4,12 -12.8,26.1c-0.3,1.6 -0.4,3.1 -0.5,4.4c-8.7,-1.3 -10.9,-0.8 -12.2,-0.4c-4.6,1.1 -8.7,3.5 -12.4,7.3c0.4,-3.9 0,-7.7 -1.2,-11c-0.5,-1.3 -1.4,-3.9 -9.2,-12c0.8,-0.7 1.4,-1.3 2.1,-2c10.6,-10.5 13.5,-23.4 13.9,-26c0.1,-0.4 0.3,-0.8 0.4,-1.2c11.9,2.7 23.2,6.9 33.7,12.3z" id="DDS:_DIFF_19_" fill="#dfdfdf" stroke="#000000" stroke-width="1" stroke-miterlimit="4" stroke-dasharray="2,1" font-family="&quot;Helvetica Neue&quot;, Helvetica, Arial, sans-serif" font-size="14" opacity="0.5"/><path d="M501.3,193.05c-0.2,0.4 -0.4,0.8 -0.7,1.3c-0.9,1.7 -2.1,3.3 -3.3,4.7c-1.2,0.9 -3.3,2.4 -6.2,3.7c-2.8,1.4 -6.4,2.6 -10.5,2.9c-3.9,0.4 -6.3,-0.4 -10.5,-1.5c-1.3,-0.4 -2.9,-0.8 -4.8,-1.3c-0.5,-1.9 -1.2,-3.5 -1.5,-4.8c-1.4,-4.2 -2.1,-6.5 -2.1,-10.4c0.3,-8.3 4.3,-14.4 5.9,-17c0.7,-1 1,-1.5 1.1,-2c12,6.6 23,14.8 32.6,24.4z" id="DDS:_DIFF_18_" fill="#dfdfdf" stroke="#000000" stroke-width="1" stroke-miterlimit="4" stroke-dasharray="2,1" font-family="&quot;Helvetica Neue&quot;, Helvetica, Arial, sans-serif" font-size="14" opacity="0.5"/><path d="M525.9,225.65c-2.1,0.3 -4.3,0.7 -6.4,1.4c-4.2,0.7 -17,5.1 -26.6,16.3c-1.4,1.7 -2.6,3.4 -3.7,4.7l-0.1,0.2c-5,-4.2 -6.9,-4.8 -7.9,-5.2c-2.5,-0.9 -5.1,-1.3 -7.9,-1.3c-3.5,0 -7.3,0.7 -11.1,2.1l0,0c4.3,-4.3 6.9,-8.9 7.9,-14c0.3,-1.3 0.7,-3.6 -1.1,-12.2c1.2,-0.2 2.7,-0.4 4.4,-0.7c16.4,-3.5 26.9,-15 27.7,-16.7c0,-0.1 0.1,-0.2 0.1,-0.4c1,-1.2 1.9,-2.6 2.6,-4c0.1,-0.1 0.1,-0.2 0.2,-0.3c8.4,9.1 15.9,19.2 21.9,30.1z" id="DDS:_DIFF_17_" fill="#dfdfdf" stroke="#000000" stroke-width="1" stroke-miterlimit="4" stroke-dasharray="2,1" font-family="&quot;Helvetica Neue&quot;, Helvetica, Arial, sans-serif" font-size="14" opacity="0.5"/><path d="M541.9,272.25c-0.1,0 -0.1,0.1 -0.2,0.1c-2.5,1.2 -5.3,2.2 -8,2.8c-0.4,-0.2 -0.7,-0.3 -1.2,-0.3l-1.2,0c-3.1,0.1 -10.3,0.5 -17.7,-3.4c-3.5,-1.9 -5.1,-3.7 -8,-7c-1.2,-1.3 -2.7,-3 -4.6,-5.1c0.8,-2.9 1.2,-5.3 1.7,-7.1c1,-4.4 1.5,-6.7 3.7,-10.1c4.6,-7 11.1,-10.2 13.8,-11.5c0.4,-0.2 0.8,-0.4 1.1,-0.5c1.7,-0.5 3.5,-0.9 5.3,-1.2c0.4,0 0.8,-0.1 1.2,-0.1c6.7,13.4 11.6,28 14.1,43.4z" id="DDS:_DIFF_16_" fill="#dfdfdf" stroke="#000000" stroke-width="1" stroke-miterlimit="4" stroke-dasharray="2,1" font-family="&quot;Helvetica Neue&quot;, Helvetica, Arial, sans-serif" font-size="14" opacity="0.5"/><path d="M543.7,295.05c0,4.5 -0.2,8.9 -0.6,13.3c-0.3,-0.1 -0.6,-0.3 -1,-0.4c-2.3,-1 -4.7,-1.8 -7.2,-2.4c-5.4,-2.1 -17.9,-3.9 -30.7,0.4c-2.1,0.7 -3.9,1.5 -5.5,2.2c-0.7,0.3 -1.4,0.6 -2.1,0.9c-1.4,-3.9 -2.3,-5.2 -2.9,-5.9c-3.5,-4.6 -9.1,-7.9 -16,-9.5c0,-1 0,-2 -0.1,-3c5.9,-1.4 10.6,-4.2 14.1,-7.9c0.8,-0.9 2.1,-2.3 4.3,-8.1c1.5,0.7 3.3,1.5 5.4,2.3c12.8,4.8 24.5,3 28.5,2.2l0,0.1l0.4,0c4.3,-0.4 8.4,-1.6 12.2,-3.4c0.8,6.4 1.2,12.8 1.2,19.2z" id="DDS:_DIFF_15_" fill="#dfdfdf" stroke="#000000" stroke-width="1" stroke-miterlimit="4" stroke-dasharray="2,1" font-family="&quot;Helvetica Neue&quot;, Helvetica, Arial, sans-serif" font-size="14" opacity="0.5"/><path d="M542.7,311.95c-2,17 -7,33.2 -14.4,47.9c-1.1,-0.1 -2.1,-0.3 -3.1,-0.6c-2.2,-0.5 -4.5,-1.2 -6.7,-2.2l-0.1,0c-2.6,-1.6 -8.8,-5.2 -12.9,-12.4c-2,-3.5 -2.3,-5.9 -3,-10.3c-0.4,-2.3 -0.8,-5.1 -1.5,-8.7c3.1,-2.9 5.3,-5.2 7,-7c3,-3.2 4.7,-5 8.3,-6.8c7.4,-3.7 14.7,-3 17.8,-2.8c0.6,0 1.1,0.1 1.3,0.1c1.8,0.5 3.6,1.2 5.3,1.9c0.7,0.2 1.3,0.6 2,0.9z" id="DDS:_DIFF_14_" fill="#dfdfdf" stroke="#000000" stroke-width="1" stroke-miterlimit="4" stroke-dasharray="2,1" font-family="&quot;Helvetica Neue&quot;, Helvetica, Arial, sans-serif" font-size="14" opacity="0.5"/><path d="M510.1,387.55c-12.1,14.5 -27.1,26.5 -44,35.3c-0.8,-0.9 -1.6,-1.8 -2.3,-2.8c-0.1,-0.2 -0.3,-0.5 -0.4,-0.9c-1.3,-2.8 -4.6,-9.3 -4.1,-17.5c0.3,-3.9 1.2,-6.2 3,-10.3c1.2,-2.5 2.5,-5.6 4.2,-10.3c5.6,-1.2 9.4,-2.2 12.1,-2.9c4.3,-1.2 6.6,-1.9 10.5,-1.5c8.2,0.7 14.2,4.9 16.7,6.8c0.6,0.4 1,0.7 1.3,0.9c0.8,0.8 1.4,1.5 2.1,2.2c0.4,0.3 0.7,0.6 0.9,1z" id="DDS:_DIFF_13_" fill="#dfdfdf" stroke="#000000" stroke-width="1" stroke-miterlimit="4" stroke-dasharray="2,1" font-family="&quot;Helvetica Neue&quot;, Helvetica, Arial, sans-serif" font-size="14" opacity="0.5"/><path d="M526.8,362.95c-4.1,7.7 -8.9,15 -14.3,21.7c-0.1,-0.2 -0.3,-0.3 -0.4,-0.5c-1.2,-1.3 -2.6,-2.8 -4,-4.1c-1.9,-1.9 -11.2,-11.3 -26.1,-14.5c-2.2,-0.4 -4.2,-0.7 -5.9,-1c-1.6,-0.2 -3,-0.4 -4.4,-0.7c0.3,-1.9 0.2,-2.8 0.1,-3.5c-0.5,-5.8 -3.3,-11.5 -8.2,-16.6c1.1,-1.7 2.1,-3.5 3.1,-5.2c5.9,1.9 11.5,2 16.4,0.5c0.9,-0.3 2.2,-0.7 5.3,-2.9c0.3,0.4 0.5,0.8 0.8,1.2c0.9,1.4 2,3.1 3.3,5c10,13.4 23.9,17.9 26.3,18.3c2,0.8 4,1.4 6,1.9c0.6,0.1 1.3,0.3 2,0.4z" id="DDS:_DIFF_11_" fill="#dfdfdf" stroke="#000000" stroke-width="1" stroke-miterlimit="4" stroke-dasharray="2,1" font-family="&quot;Helvetica Neue&quot;, Helvetica, Arial, sans-serif" font-size="14" opacity="0.5"/><path d="M463.1,424.45c-3.2,1.6 -6.4,3 -9.7,4.3c-2.5,-4.4 -10,-15.9 -22.4,-23.3c-2.1,-1.1 -3.9,-2 -5.6,-2.8c-2.1,-1.1 -3.7,-1.8 -5.3,-3c1.3,-1.5 1.9,-2.4 2.1,-3c2.7,-5.1 3.4,-11.4 2,-18.4c2.8,-1.3 5.6,-2.8 8.3,-4.4c4.1,4.7 8.9,7.7 13.9,9c0.5,0.1 1.2,0.3 2.6,0.4l0,3.4c0,1.7 -0.1,3.7 0.1,6c1.1,15.6 9.5,27 11.9,29.3c0.8,0.8 1.4,1.6 2.1,2.5z" id="DDS:_DIFF_12_" fill="#dfdfdf" stroke="#000000" stroke-width="1" stroke-miterlimit="4" stroke-dasharray="2,1" font-family="&quot;Helvetica Neue&quot;, Helvetica, Arial, sans-serif" font-size="14" opacity="0.5"/><path d="M449.4,430.25c-15.5,5.7 -32.2,8.8 -49.7,8.8c-5.3,0 -10.5,-0.3 -15.6,-0.8c0.5,-3.2 1.8,-8.6 5.5,-13.6c2.3,-3.2 4.4,-4.6 8,-7c0.9,-0.6 1.9,-1.2 3,-2.1c2.3,0.5 5.2,1.1 8.6,1.4c7.9,1 12.8,1.1 16.4,1.1c4.3,0 6.7,0 10.4,1.7c6.3,2.7 10.9,7.6 13.4,10.5z" id="DDS:_DIFF_10_" fill="#dfdfdf" stroke="#000000" stroke-width="1" stroke-miterlimit="4" stroke-dasharray="2,1" font-family="&quot;Helvetica Neue&quot;, Helvetica, Arial, sans-serif" font-size="14" opacity="0.5"/><path d="M471.1,299.05c-0.7,11.9 -3.9,23.7 -9.4,34.3l-1.2,2.3l-0.1,0.1c-0.3,0.5 -0.6,1.1 -0.9,1.6c-7.2,12.4 -17.6,22.8 -29.9,30.1l-0.4,-0.1c-0.4,-0.1 -0.7,-0.1 -1.1,-0.2c-0.3,0 -0.6,-0.1 -1,-0.2c-0.4,-0.1 -0.7,-0.1 -1,-0.2c-0.3,-0.1 -0.6,-0.1 -1,-0.2c-0.4,-0.1 -0.6,-0.1 -1,-0.2c-0.3,-0.1 -0.6,-0.2 -1,-0.2c-0.4,-0.1 -0.6,-0.2 -1,-0.3c-0.3,-0.1 -0.6,-0.2 -1,-0.3c-0.4,-0.1 -0.6,-0.2 -1,-0.3c-0.3,-0.1 -0.6,-0.2 -0.9,-0.3l-0.1,0c-0.3,-0.1 -0.6,-0.2 -0.9,-0.3c-0.3,-0.1 -0.5,-0.2 -0.8,-0.3l-0.1,0c-0.3,-0.1 -0.6,-0.2 -0.9,-0.3c-0.3,-0.1 -0.6,-0.2 -1,-0.3l-0.1,0c-0.3,-0.1 -0.5,-0.2 -0.8,-0.3c-0.3,-0.1 -0.6,-0.2 -1,-0.4c-0.3,-0.1 -0.6,-0.2 -0.9,-0.3c-0.3,-0.1 -0.5,-0.2 -0.8,-0.3l-0.2,-0.1c-0.3,-0.1 -0.5,-0.2 -0.8,-0.3c-0.3,-0.1 -0.5,-0.2 -0.9,-0.3l-0.3,-0.1c-0.3,-0.1 -0.4,-0.2 -0.7,-0.3c-0.3,-0.1 -0.4,-0.2 -0.7,-0.3l-0.4,-0.2c-0.2,-0.1 -0.4,-0.2 -0.6,-0.3c-0.3,-0.1 -0.5,-0.2 -0.8,-0.4l-0.4,-0.1c-0.2,-0.1 -0.4,-0.2 -0.6,-0.3c-0.3,-0.1 -0.5,-0.2 -0.8,-0.4l-0.4,-0.1c-0.2,-0.1 -0.4,-0.2 -0.6,-0.3c-0.3,-0.1 -0.6,-0.3 -0.9,-0.4l-0.2,-0.1c-0.2,-0.1 -0.4,-0.2 -0.6,-0.3c-0.3,-0.1 -0.5,-0.3 -0.8,-0.4l-0.4,-0.2c-0.2,-0.1 -0.4,-0.2 -0.5,-0.3c-0.2,-0.1 -0.4,-0.3 -0.7,-0.4l-0.4,-0.2c-0.2,-0.1 -0.4,-0.2 -0.5,-0.3c-0.2,-0.1 -0.4,-0.3 -0.7,-0.4l-0.4,-0.2c-0.2,-0.1 -0.4,-0.2 -0.6,-0.4c-0.3,-0.1 -0.4,-0.3 -0.7,-0.4l-0.4,-0.2c-0.2,-0.1 -0.4,-0.2 -0.5,-0.3c-0.2,-0.1 -0.4,-0.3 -0.6,-0.4l-0.4,-0.3c-0.2,-0.1 -0.4,-0.2 -0.5,-0.3c-0.3,-0.1 -0.4,-0.3 -0.7,-0.4l-0.4,-0.2c-0.2,-0.1 -0.4,-0.2 -0.5,-0.4c-0.2,-0.1 -0.4,-0.3 -0.7,-0.4l-0.4,-0.3c-0.2,-0.1 -0.4,-0.2 -0.5,-0.4c-0.2,-0.1 -0.4,-0.3 -0.6,-0.4l-0.4,-0.3c-0.2,-0.1 -0.4,-0.2 -0.5,-0.4c-0.2,-0.1 -0.4,-0.3 -0.6,-0.4l-0.4,-0.3c-0.2,-0.1 -0.3,-0.2 -0.4,-0.4c-0.2,-0.1 -0.4,-0.3 -0.6,-0.4l-0.4,-0.3c-0.2,-0.1 -0.3,-0.2 -0.4,-0.4c-0.2,-0.1 -0.4,-0.3 -0.5,-0.4l-0.4,-0.4c-0.1,-0.1 -0.3,-0.2 -0.4,-0.4c-0.2,-0.1 -0.4,-0.3 -0.5,-0.4l-0.4,-0.4c-0.1,-0.1 -0.3,-0.2 -0.4,-0.4c-0.2,-0.1 -0.4,-0.3 -0.5,-0.4l-0.4,-0.4c-0.1,-0.1 -0.3,-0.2 -0.4,-0.4c-0.2,-0.2 -0.4,-0.4 -0.5,-0.4l-0.4,-0.4c-0.1,-0.1 -0.3,-0.2 -0.4,-0.4c-0.2,-0.2 -0.4,-0.4 -0.6,-0.5l-0.4,-0.4c-0.1,-0.1 -0.2,-0.2 -0.4,-0.3c-0.3,-0.2 -0.4,-0.4 -0.7,-0.7l-1.9,-1.9c-13.7,-13.8 -21.3,-31.2 -21.3,-49.1c0,-17 6.6,-33.1 19,-46.7c0.4,-0.4 0.8,-0.8 1.2,-1.2c0.1,-0.1 0.2,-0.2 0.2,-0.2l1,-1c0.1,-0.1 0.2,-0.2 0.3,-0.3l0.4,-0.4c0.2,-0.2 0.4,-0.4 0.5,-0.5c0.1,-0.1 0.3,-0.2 0.4,-0.4l0.4,-0.4c0.2,-0.2 0.4,-0.3 0.5,-0.4c0.1,-0.1 0.3,-0.2 0.4,-0.4l0.4,-0.4c0.2,-0.1 0.3,-0.3 0.4,-0.4c0.1,-0.1 0.3,-0.3 0.4,-0.4l0.4,-0.4c0.2,-0.1 0.3,-0.3 0.4,-0.4c0.1,-0.1 0.3,-0.3 0.4,-0.4l0.4,-0.4c0.2,-0.1 0.3,-0.3 0.4,-0.4c0.2,-0.1 0.3,-0.3 0.4,-0.4l0.4,-0.3c0.2,-0.1 0.3,-0.3 0.4,-0.4c0.2,-0.1 0.4,-0.3 0.5,-0.4l0.4,-0.3c0.2,-0.1 0.4,-0.3 0.4,-0.4c0.2,-0.1 0.4,-0.3 0.5,-0.4l0.4,-0.3c0.2,-0.1 0.4,-0.3 0.5,-0.4c0.2,-0.1 0.4,-0.3 0.5,-0.4l0.4,-0.3c0.2,-0.1 0.4,-0.3 0.5,-0.4c0.2,-0.1 0.4,-0.3 0.5,-0.4l0.4,-0.3c0.2,-0.1 0.4,-0.2 0.4,-0.4c0.2,-0.1 0.4,-0.3 0.5,-0.4l0.4,-0.3c0.2,-0.1 0.4,-0.2 0.4,-0.4c0.2,-0.1 0.4,-0.3 0.6,-0.4l0.3,-0.2c0.2,-0.1 0.4,-0.2 0.5,-0.4c0.2,-0.1 0.4,-0.3 0.6,-0.4l0.4,-0.2c0.2,-0.1 0.4,-0.2 0.5,-0.3c0.2,-0.1 0.4,-0.3 0.7,-0.4l0.3,-0.2c0.2,-0.1 0.4,-0.2 0.5,-0.3c0.1,-0.1 0.4,-0.2 0.6,-0.4l0.4,-0.2c0.2,-0.1 0.4,-0.2 0.6,-0.4c0.2,-0.1 0.4,-0.2 0.6,-0.4l0.4,-0.2c0.2,-0.1 0.4,-0.2 0.6,-0.3c0.2,-0.1 0.4,-0.3 0.7,-0.4l0.2,-0.1c0.2,-0.1 0.4,-0.2 0.7,-0.4c0.2,-0.1 0.4,-0.2 0.7,-0.4l0.3,-0.2c0.2,-0.1 0.4,-0.2 0.6,-0.3c0.3,-0.1 0.5,-0.3 0.7,-0.4l0.3,-0.1c0.2,-0.1 0.4,-0.2 0.6,-0.3c0.3,-0.1 0.5,-0.2 0.8,-0.4l0.2,-0.1c0.2,-0.1 0.4,-0.2 0.7,-0.3c0.3,-0.1 0.5,-0.2 0.8,-0.4l0.2,-0.1c0.2,-0.1 0.4,-0.2 0.7,-0.3c0.3,-0.1 0.5,-0.2 0.8,-0.4l0.1,0c0.3,-0.1 0.5,-0.2 0.8,-0.3c0.3,-0.1 0.5,-0.2 0.8,-0.3l0.2,0c0.3,-0.1 0.4,-0.2 0.7,-0.3c0.3,-0.1 0.5,-0.2 0.9,-0.4c0.3,-0.1 0.5,-0.2 0.9,-0.3c0.3,-0.1 0.5,-0.2 0.9,-0.3c0.3,-0.1 0.5,-0.2 0.9,-0.3c0.3,-0.1 0.6,-0.2 0.9,-0.3c0.3,-0.1 0.5,-0.2 0.9,-0.3c0.3,-0.1 0.6,-0.2 0.9,-0.3c0.3,-0.1 0.6,-0.2 0.9,-0.3c0.3,-0.1 0.6,-0.2 0.9,-0.3c0.3,-0.1 0.6,-0.2 0.9,-0.3c0.3,-0.1 0.6,-0.2 0.9,-0.3l0.2,0c1.4,0 2.1,-0.1 2.4,-0.3c13.3,6.3 24.7,16.1 33.2,28.2c0,0.4 0.2,0.8 1.3,2.1l0.1,0.1c8,12.3 12.8,26.6 13.7,41.3c-0.1,0.3 -0.2,0.7 -0.1,1.5c0,0.3 0,0.7 0.2,1l0,2.9c0,1.1 0,2.3 -0.1,3.7z" id="DDS:_DIFF_9_" fill="#dfdfdf" stroke="#000000" stroke-width="1" stroke-miterlimit="4" stroke-dasharray="2,1" font-family="&quot;Helvetica Neue&quot;, Helvetica, Arial, sans-serif" font-size="14" opacity="0.5"/><path d="M422.7,370.25c-11.4,5.4 -24.1,8.3 -36.7,8.3c-47,0 -85.2,-38.3 -85.2,-85.2c0,-46.9 38.3,-85.3 85.3,-85.3c9.9,0 19.5,1.7 28.6,4.9l-0.4,1c-0.4,0.1 -0.9,0.3 -1.2,0.4l-0.4,0.2c-0.5,0.2 -1.2,0.4 -1.7,0.6l-0.6,0.2c-0.4,0.1 -0.8,0.3 -1.2,0.4c-0.2,0 -0.4,0.1 -0.4,0.2l-0.3,0.1c-0.3,0.1 -0.6,0.3 -1,0.4c-0.2,0.1 -0.4,0.2 -0.6,0.3l-0.1,0c-0.3,0.1 -0.6,0.3 -1,0.4c-0.3,0.1 -0.5,0.2 -0.8,0.3c-0.3,0.1 -0.6,0.3 -0.9,0.4c-0.3,0.1 -0.5,0.2 -0.8,0.4c-0.3,0.1 -0.6,0.3 -0.9,0.4c-0.3,0.1 -0.5,0.2 -0.7,0.4c-0.3,0.1 -0.6,0.3 -1,0.4l-0.2,0.1c-0.2,0.1 -0.4,0.2 -0.5,0.3c-0.3,0.1 -0.6,0.3 -0.9,0.4l-0.3,0.2c-0.1,0.1 -0.3,0.1 -0.4,0.2c-0.4,0.2 -0.8,0.4 -1.2,0.6l-0.4,0.2c-0.5,0.3 -1.1,0.5 -1.5,0.9l-0.6,0.4c-0.3,0.2 -0.6,0.4 -1,0.5c-0.2,0.1 -0.3,0.2 -0.4,0.3l-0.2,0.1c-0.3,0.2 -0.6,0.4 -0.9,0.5c-0.2,0.1 -0.4,0.2 -0.5,0.4l-0.1,0.1c-0.3,0.2 -0.5,0.4 -0.9,0.5c-0.2,0.1 -0.4,0.3 -0.7,0.4c-0.3,0.2 -0.5,0.4 -0.8,0.5c-0.2,0.1 -0.4,0.3 -0.7,0.4l-0.8,0.5c-0.2,0.1 -0.4,0.3 -0.6,0.4c-0.3,0.2 -0.5,0.4 -0.9,0.6l-0.2,0.1c-0.1,0.1 -0.3,0.2 -0.4,0.3c-0.3,0.2 -0.6,0.4 -0.9,0.6l-0.2,0.1c-0.1,0.1 -0.2,0.2 -0.4,0.3c-0.4,0.3 -0.8,0.6 -1.2,0.9l-0.2,0.2c-0.4,0.4 -0.9,0.7 -1.3,1.1c-0.1,0.1 -0.2,0.2 -0.3,0.3l-0.2,0.1c-0.3,0.3 -0.6,0.4 -0.9,0.7c-0.1,0.1 -0.3,0.2 -0.4,0.3l-0.1,0.1c-0.3,0.2 -0.5,0.4 -0.8,0.7c-0.2,0.1 -0.3,0.3 -0.4,0.4l-0.1,0.1c-0.3,0.2 -0.5,0.4 -0.8,0.6c-0.2,0.2 -0.4,0.4 -0.5,0.4c-0.3,0.2 -0.4,0.4 -0.7,0.7c-0.2,0.2 -0.4,0.4 -0.5,0.5c-0.3,0.2 -0.4,0.4 -0.7,0.7c-0.2,0.1 -0.3,0.3 -0.4,0.4l-1.2,1.2c-0.3,0.3 -0.5,0.5 -0.8,0.8l-0.4,0.4c-0.4,0.4 -0.8,0.8 -1.2,1.2c-13.4,14.5 -20.4,31.9 -20.4,50.1c0,19.2 8.1,37.9 22.8,52.7c0.4,0.4 0.9,0.9 1.3,1.2l0.4,0.4c0.3,0.3 0.6,0.5 0.9,0.9c0.1,0.1 0.3,0.2 0.4,0.4l0.2,0.1c0.3,0.3 0.5,0.5 0.8,0.8c0.2,0.1 0.4,0.3 0.4,0.4l0.1,0.1c0.3,0.3 0.5,0.4 0.8,0.7c0.2,0.2 0.4,0.3 0.5,0.4c0.3,0.2 0.5,0.4 0.8,0.7c0.2,0.2 0.4,0.4 0.6,0.5c0.3,0.2 0.5,0.4 0.8,0.6c0.2,0.2 0.4,0.4 0.6,0.5c0.3,0.2 0.5,0.4 0.9,0.6l0.1,0.1c0.2,0.1 0.4,0.3 0.5,0.4c0.3,0.2 0.6,0.4 0.9,0.6l0.2,0.1c0.2,0.1 0.3,0.2 0.4,0.4c0.4,0.2 0.6,0.4 1,0.7l0.2,0.1c0.1,0.1 0.2,0.2 0.4,0.3c0.4,0.3 0.9,0.6 1.2,0.9l0.3,0.2c0.5,0.4 1.1,0.7 1.6,1.1c0.1,0.1 0.2,0.1 0.4,0.2l0.2,0.1c0.4,0.2 0.7,0.4 1.1,0.6c0.2,0.1 0.3,0.2 0.4,0.3l0.2,0.1c0.3,0.2 0.6,0.4 1,0.5c0.2,0.1 0.4,0.3 0.6,0.4l0.1,0c0.3,0.2 0.6,0.4 1,0.5c0.3,0.1 0.5,0.3 0.8,0.4c0.3,0.2 0.6,0.4 1,0.5c0.3,0.1 0.5,0.3 0.8,0.4c0.3,0.2 0.6,0.4 1,0.4c0.3,0.1 0.5,0.3 0.8,0.4c0.3,0.2 0.6,0.3 1,0.4l0.1,0c0.2,0.1 0.4,0.2 0.6,0.3c0.3,0.1 0.6,0.3 1,0.4l0.3,0.1c0.2,0.1 0.4,0.2 0.5,0.3c0.4,0.2 0.7,0.3 1.1,0.4l0.2,0.1c0.2,0.1 0.3,0.1 0.4,0.2c0.4,0.2 0.9,0.4 1.2,0.5l0.5,0.2c0.6,0.3 1.2,0.4 1.8,0.7l0.7,0.3c0.4,0.1 0.7,0.3 1.2,0.4c0.2,0 0.4,0.1 0.5,0.2l0.3,0.1c0.4,0.1 0.7,0.3 1.1,0.4c0.2,0.1 0.4,0.1 0.5,0.2l0.2,0.1c0.4,0.1 0.7,0.3 1.1,0.4c0.3,0.1 0.5,0.2 0.8,0.3c0.4,0.1 0.7,0.2 1.1,0.4c0.3,0.1 0.5,0.2 0.8,0.3c0.4,0.1 0.7,0.2 1.1,0.4c0.3,0.1 0.5,0.2 0.8,0.3c0.4,0.1 0.7,0.2 1.2,0.3c0.3,0.1 0.5,0.1 0.8,0.2c0.4,0.1 0.8,0.2 1.2,0.3l0.3,0.1c0.2,0 0.4,0.1 0.5,0.1c0.1,-0.1 0.4,-0.1 0.7,-0.1z" id="DDS:_DIFF_8_" fill="#dfdfdf" stroke="#000000" stroke-width="1" stroke-miterlimit="4" stroke-dasharray="2,1" font-family="&quot;Helvetica Neue&quot;, Helvetica, Arial, sans-serif" font-size="14" opacity="0.5"/><path d="M391.6,178.55c-10.4,4.6 -12.3,6.5 -13.3,7.5c-4.3,4.5 -6.8,10.9 -7.2,18.6c-21.6,3.6 -40.7,14.7 -54.4,30.6c-5.2,-1.2 -12.7,-2.2 -20.9,-0.7c-6.9,1.2 -11.2,3.7 -14.9,5.9c-3.7,2.1 -6.6,3.7 -10.9,3.5c-1.6,-0.1 -3.1,-0.4 -4.6,-1c19.5,-50 66.1,-86.5 121.8,-91.2c-0.6,5.4 -0.7,14.6 3.2,24.3c0.4,0.7 0.8,1.6 1.2,2.5z" id="DDS:_DIFF_7_" fill="#dfdfdf" stroke="#000000" stroke-width="1" stroke-miterlimit="4" stroke-dasharray="2,1" font-family="&quot;Helvetica Neue&quot;, Helvetica, Arial, sans-serif" font-size="14" opacity="0.5"/><path d="M294.6,294.95c0,20.8 7,40 18.7,55.4l-0.6,0.7c0,0 -0.1,0.1 -0.2,0.2l-0.1,0.1c0,0 -0.1,0.1 -0.2,0.2c0,0 -0.1,0.1 -0.2,0.2l-0.1,0.1l-0.1,0.1c0,0 -0.1,0.1 -0.2,0.2l-0.2,0.1l-0.1,0.1c-0.1,0 -0.1,0.1 -0.2,0.2l-0.2,0.1l-0.1,0.1c-0.1,0 -0.2,0.1 -0.3,0.2l-0.2,0.1l-0.1,0.1c-0.1,0 -0.2,0.1 -0.3,0.2l-0.2,0.1c0,0 -0.1,0 -0.1,0.1c-0.1,0.1 -0.2,0.1 -0.4,0.2l-0.2,0.1c0,0 -0.1,0 -0.1,0.1c-0.1,0.1 -0.3,0.1 -0.4,0.2l-0.1,0.1l-0.1,0c-0.2,0.1 -0.4,0.2 -0.6,0.3l-0.2,0.1c-0.3,0.1 -0.5,0.2 -0.8,0.3c-3.8,1.4 -6.6,1 -10.7,0.3c-3.4,-0.5 -7.5,-1.2 -13.7,-1.2l-11.9,0c-0.3,0 -0.4,0 -0.7,0.1l-0.4,0c-0.4,0 -0.7,0.1 -1,0.1l-0.2,0c-8,-17.9 -12.5,-37.8 -12.5,-58.7c0,-17.6 3.2,-34.5 9,-50.1c1.8,0.7 3.6,1.1 5.4,1.1c4.8,1.2 8.3,-0.7 12.2,-2.9c3.6,-2.1 7.6,-4.4 13.9,-5.5c5.8,-1.1 12,-1 18.3,0.3c-12.4,15.2 -19.8,35 -19.8,56.5z" id="DDS:_DIFF_6_" fill="#dfdfdf" stroke="#000000" stroke-width="1" stroke-miterlimit="4" stroke-dasharray="2,1" font-family="&quot;Helvetica Neue&quot;, Helvetica, Arial, sans-serif" font-size="14" opacity="0.5"/><path d="M386.5,410.45c-0.2,0.4 -0.4,0.6 -0.6,1c-0.1,0.1 -0.2,0.3 -0.3,0.4l-0.2,0.3c-0.1,0.2 -0.3,0.4 -0.4,0.7c-0.2,0.4 -0.4,0.8 -0.6,1.2c-0.1,0.1 -0.1,0.3 -0.2,0.4l-0.1,0.1c-0.1,0.2 -0.2,0.4 -0.3,0.6c-0.1,0.3 -0.3,0.5 -0.4,0.8l-0.1,0.3c-2.2,4.9 -3.7,10.2 -4.3,15.7l-0.1,0.6c0.3,1.7 0.4,3.5 0.5,5c-48.4,-6.8 -89.1,-37.6 -109.6,-80.1l2.7,0l9.3,-0.1c1.4,0 2.8,0 4.1,0.1c3.8,0.2 6.6,0.7 9.1,1.1c0.4,0.1 0.9,0.2 1.3,0.2l0.5,0.1c0.2,0 0.4,0 0.5,0.1l0.6,0c0.2,0 0.4,0 0.5,0.1l2.9,0c0,0 0.1,0 0.2,0l2.6,0c0.1,0 0.2,0 0.4,-0.1l0.2,0c0.1,0 0.1,0 0.2,0c0.1,0 0.3,-0.1 0.4,-0.1l0.2,0c0,0 0.1,0 0.2,0c0.2,0 0.4,-0.1 0.5,-0.2l0.2,0c0.3,-0.1 0.5,-0.2 0.8,-0.3c0.3,-0.1 0.6,-0.3 0.9,-0.4c0.1,0 0.1,0 0.2,-0.1l0.2,-0.1c0.2,-0.1 0.4,-0.1 0.4,-0.2c0.1,0 0.2,-0.1 0.3,-0.1l0.2,-0.1c0.1,-0.1 0.3,-0.1 0.4,-0.2c0.1,0 0.2,-0.1 0.3,-0.1l0.1,-0.1c0.1,-0.1 0.3,-0.1 0.4,-0.2c0.1,0 0.2,-0.1 0.3,-0.2l0.1,-0.1c0.1,-0.1 0.2,-0.1 0.4,-0.2c0.1,-0.1 0.2,-0.1 0.3,-0.2c0.1,-0.1 0.3,-0.2 0.4,-0.3c0.1,-0.1 0.2,-0.1 0.3,-0.2c0.1,-0.1 0.2,-0.2 0.4,-0.3c0.1,-0.1 0.2,-0.2 0.3,-0.2c0.1,-0.1 0.2,-0.2 0.3,-0.3c0.1,-0.1 0.2,-0.2 0.3,-0.2c0.1,-0.1 0.2,-0.2 0.3,-0.3c0.1,-0.1 0.2,-0.2 0.3,-0.3c0.1,-0.1 0.2,-0.2 0.3,-0.3c0.1,-0.1 0.2,-0.2 0.2,-0.3c0.1,-0.1 0.2,-0.2 0.3,-0.3c0.1,-0.1 0.1,-0.1 0.2,-0.2c0.1,-0.1 0.2,-0.2 0.3,-0.3l0.2,-0.3c0.1,-0.1 0.1,-0.1 0.2,-0.2c14.3,17.5 35,29.6 58.5,32.8c-0.7,7 1.4,17.6 12,25.6z" id="DDS:_DIFF_5_" fill="#dfdfdf" stroke="#000000" stroke-width="1" stroke-miterlimit="4" stroke-dasharray="2,1" font-family="&quot;Helvetica Neue&quot;, Helvetica, Arial, sans-serif" font-size="14" opacity="0.5"/><path d="M453.4,428.75c-1.3,0.5 -2.7,1.1 -4.1,1.6c-2.5,-3 -7,-7.8 -13.3,-10.5c-3.7,-1.7 -6.2,-1.7 -10.4,-1.7c-3.6,0 -8.5,-0.1 -16.4,-1.1c-3.4,-0.4 -6.2,-0.9 -8.6,-1.4c-1.2,0.8 -2.1,1.4 -3,2.1c-3.7,2.4 -5.7,3.7 -8,7c-3.7,5 -5,10.4 -5.5,13.6c-1.5,-0.2 -3,-0.3 -4.5,-0.6c-0.1,-1.5 -0.2,-3.3 -0.5,-5l0.1,-0.6c0.6,-5.5 2.1,-10.8 4.3,-15.7l0.1,-0.3c0.1,-0.3 0.3,-0.5 0.4,-0.8c0.1,-0.2 0.2,-0.4 0.3,-0.6l0.1,-0.1c0.1,-0.2 0.1,-0.4 0.2,-0.4c0.2,-0.4 0.4,-0.8 0.6,-1.2c0.1,-0.3 0.3,-0.5 0.4,-0.7l0.2,-0.3c0.1,-0.2 0.2,-0.4 0.3,-0.4c0.3,-0.4 0.4,-0.6 0.6,-1c-10.6,-8 -12.6,-18.5 -12.7,-24.7c1.3,0.2 2.6,0.3 4,0.4c2.8,0.3 5.6,0.4 8.4,0.4c0.6,0 1.2,0 1.9,0c1.2,0 2.5,-0.1 3.7,-0.2c6.4,-0.4 12.6,-1.4 18.5,-3c1,-0.3 2,-0.6 3,-0.9c2.8,-0.9 5.6,-1.9 8.3,-3c0.9,-0.4 1.9,-0.8 2.8,-1.2c1.3,7 0.6,13.3 -2,18.4c-0.3,0.6 -0.8,1.5 -2.1,3c1.5,1.2 3.1,2 5.3,3c1.7,0.8 3.6,1.7 5.6,2.8c12,7.1 19.5,18.6 22,23.1z" id="DDS:_DIFF_4_" fill="#dfdfdf" stroke="#000000" stroke-width="1" stroke-miterlimit="4" stroke-dasharray="2,1" font-family="&quot;Helvetica Neue&quot;, Helvetica, Arial, sans-serif" font-size="14" opacity="0.5"/><path d="M512.5,384.65c-0.8,1 -1.5,1.9 -2.3,2.8c-0.3,-0.3 -0.6,-0.6 -0.8,-0.9c-0.6,-0.7 -1.2,-1.4 -2.1,-2.2c-0.4,-0.2 -0.7,-0.4 -1.3,-0.9c-2.5,-1.9 -8.5,-6.1 -16.7,-6.8c-3.9,-0.4 -6.2,0.4 -10.5,1.5c-2.8,0.7 -6.5,1.8 -12.1,2.9c-1.7,4.6 -3,7.8 -4.2,10.3c-1.8,4.1 -2.8,6.3 -3,10.3c-0.5,8.2 2.8,14.7 4.1,17.5c0.2,0.4 0.4,0.7 0.4,0.9c0.7,1 1.5,1.9 2.3,2.8c-1,0.5 -2,1 -3.1,1.5c-0.7,-0.8 -1.4,-1.7 -2,-2.5c-2.3,-2.2 -10.8,-13.7 -11.9,-29.3c-0.2,-2.3 -0.1,-4.3 -0.1,-6l0,-3.4c-1.3,-0.1 -2.1,-0.3 -2.6,-0.4c-5.1,-1.3 -9.8,-4.3 -13.9,-9c0.9,-0.5 1.7,-1 2.5,-1.6c0.9,-0.6 1.8,-1.1 2.6,-1.7c1,-0.7 2,-1.4 3,-2.2c6.7,-5 12.7,-11 17.8,-17.6c0.8,-1.1 1.6,-2.1 2.4,-3.2c0.3,-0.4 0.5,-0.7 0.7,-1.1c0.6,-0.9 1.2,-1.8 1.7,-2.7c4.9,5.1 7.7,10.8 8.2,16.6c0.1,0.7 0.2,1.6 -0.1,3.5c1.3,0.4 2.8,0.5 4.4,0.7c1.7,0.3 3.7,0.5 5.9,1c15,3.2 24.3,12.7 26.1,14.5c1.4,1.3 2.8,2.8 4,4.1c0.3,0.3 0.4,0.5 0.6,0.6z" id="DDS:_DIFF_3_" fill="#dfdfdf" stroke="#000000" stroke-width="1" stroke-miterlimit="4" stroke-dasharray="2,1" font-family="&quot;Helvetica Neue&quot;, Helvetica, Arial, sans-serif" font-size="14" opacity="0.5"/><path d="M543.1,308.45c-0.1,1.2 -0.2,2.4 -0.4,3.5c-0.7,-0.4 -1.4,-0.7 -2.1,-1c-1.7,-0.7 -3.5,-1.3 -5.3,-1.9c-0.3,0 -0.7,-0.1 -1.3,-0.1c-3,-0.3 -10.3,-0.9 -17.8,2.8c-3.6,1.8 -5.3,3.6 -8.3,6.8c-1.7,1.9 -3.8,4.1 -7,7c0.7,3.7 1.2,6.4 1.5,8.7c0.7,4.4 1.1,6.8 3,10.3c4.1,7.2 10.3,10.8 12.9,12.4l0.1,0c2.2,1 4.5,1.7 6.7,2.2c1,0.3 2,0.5 3.1,0.6c-0.5,1 -1.1,2.1 -1.6,3.1c-0.7,-0.1 -1.3,-0.2 -2,-0.4c-2,-0.4 -4,-1.1 -6,-1.9c-2.4,-0.4 -16.3,-4.9 -26.3,-18.3c-1.3,-1.9 -2.4,-3.6 -3.3,-5c-0.3,-0.4 -0.5,-0.8 -0.8,-1.2c-3,2.1 -4.4,2.6 -5.3,2.9c-4.9,1.6 -10.5,1.4 -16.4,-0.5c0.5,-0.9 1,-1.8 1.4,-2.7c1,-1.9 1.9,-3.9 2.7,-5.9c0.5,-1.1 0.9,-2.2 1.3,-3.4c2.4,-6.5 4.1,-13.4 5,-20.6c0.2,-1.3 0.3,-2.6 0.4,-3.8c0.1,-1.8 0.2,-3.6 0.3,-5.4c0,-0.6 0,-1.2 0,-1.8c0,-0.4 0,-0.8 0,-1.2c7,1.6 12.5,4.9 16,9.5c0.6,0.7 1.5,2 2.9,5.9c0.6,-0.3 1.3,-0.6 2.1,-0.9c1.6,-0.7 3.4,-1.5 5.5,-2.2c12.8,-4.4 25.2,-2.5 30.7,-0.4c2.5,0.6 4.9,1.4 7.2,2.4c0.5,0.2 0.8,0.3 1.1,0.5z" id="DDS:_DIFF_2_" fill="#dfdfdf" stroke="#000000" stroke-width="1" stroke-miterlimit="4" stroke-dasharray="2,1" font-family="&quot;Helvetica Neue&quot;, Helvetica, Arial, sans-serif" font-size="14" opacity="0.5"/><path d="M542.4,275.95c-3.9,1.8 -8,3 -12.2,3.4l-0.4,0l0,-0.1c-3.9,0.8 -15.7,2.6 -28.5,-2.2c-2.1,-0.8 -3.8,-1.6 -5.4,-2.3c-2.2,5.8 -3.5,7.2 -4.3,8.1c-3.4,3.8 -8.2,6.5 -14.1,7.9c0,-1.1 -0.1,-2.2 -0.2,-3.2c-0.2,-3.1 -0.7,-6.2 -1.2,-9.2c-0.2,-1.2 -0.5,-2.4 -0.7,-3.6c-1.4,-6.1 -3.3,-11.9 -5.9,-17.5l0,0c-0.6,-1.3 -1.2,-2.7 -1.9,-4c-1.2,-2.3 -2.5,-4.6 -3.9,-6.8c-0.5,-0.9 -1.1,-1.7 -1.7,-2.6c3.8,-1.4 7.7,-2.1 11.1,-2.1c2.9,0 5.4,0.4 7.9,1.3c1.1,0.4 2.9,1 7.9,5.2l0.1,-0.2c1.1,-1.3 2.2,-3 3.7,-4.7c9.5,-11.2 22.4,-15.6 26.6,-16.3c2.1,-0.7 4.3,-1.2 6.4,-1.4c0.6,1.1 1.2,2.1 1.7,3.2c-0.4,0 -0.8,0.1 -1.2,0.1c-1.8,0.3 -3.6,0.6 -5.3,1.2c-0.3,0.2 -0.6,0.4 -1.1,0.5c-2.8,1.3 -9.3,4.6 -13.8,11.5c-2.1,3.4 -2.7,5.7 -3.7,10.1c-0.4,1.9 -0.9,4.2 -1.7,7.1c2,2.1 3.5,3.7 4.6,5.1c2.9,3.3 4.6,5.1 8,7c7.3,3.9 14.5,3.5 17.7,3.4l1.2,0c0.5,0 0.9,0.1 1.2,0.3c2.8,-0.5 5.5,-1.5 8,-2.8c0.1,0 0.1,-0.1 0.2,-0.1c0.6,1.2 0.8,2.5 0.9,3.7z" id="DDS:_DIFF_1_" fill="#dfdfdf" stroke="#000000" stroke-width="1" stroke-miterlimit="4" stroke-dasharray="2,1" font-family="&quot;Helvetica Neue&quot;, Helvetica, Arial, sans-serif" font-size="14" opacity="0.5"/><path d="M503.9,195.65c-0.1,0.1 -0.1,0.2 -0.2,0.3c-0.7,1.4 -1.6,2.8 -2.6,4c0,0.2 -0.1,0.3 -0.1,0.4c-0.7,1.7 -11.2,13.2 -27.7,16.7c-1.7,0.4 -3.1,0.5 -4.4,0.7c1.8,8.7 1.3,10.9 1.1,12.2c-1,5.1 -3.6,9.7 -7.9,14c-0.6,-0.9 -1.2,-1.7 -1.8,-2.6c-2.3,-3.2 -4.8,-6.2 -7.5,-9c-0.9,-0.9 -1.7,-1.8 -2.6,-2.7c-3.8,-3.8 -8,-7.2 -12.4,-10.2c-1.2,-0.8 -2.4,-1.6 -3.6,-2.3c-2.9,-1.8 -6,-3.5 -9.1,-4.9c-1,-0.5 -2.1,-1 -3.1,-1.4c-4.2,-1.8 -8.7,-3.3 -13.2,-4.5c-1.2,-0.3 -2.4,-0.6 -3.7,-0.8c-4.6,-1 -9.2,-1.6 -14,-1.8c-1.5,-0.1 -2.9,-0.1 -4.4,-0.1c-0.2,0 -0.4,0 -0.5,0c-4.1,0 -8,0.3 -11.9,0.8c-1,0.1 -2,0.3 -3.1,0.5c0.4,-7.7 2.9,-14.1 7.2,-18.6c1,-1 2.9,-2.9 13.3,-7.5c-0.4,-0.9 -0.8,-1.8 -1.2,-2.6c-3.8,-9.8 -3.7,-19 -3.2,-24.3c1.6,-0.1 3.2,-0.2 4.8,-0.3c0.3,4.6 1.5,8.8 3.6,12.5c2,3.5 3.7,5.1 7.1,7.9c0.7,0.6 1.4,1.2 2.2,2c1,-0.4 2,-0.6 2.9,-0.9c4.2,-1.3 6.6,-2.1 9.7,-4.5c6.4,-5 9.1,-11.6 10.3,-14.5c1.3,0.3 2.6,0.5 4,0.8c-0.1,0.4 -0.2,0.8 -0.4,1.2c-0.4,2.6 -3.3,15.4 -13.9,26c-0.7,0.6 -1.3,1.2 -2.1,2c7.8,8.1 8.7,10.7 9.2,12c1.2,3.3 1.6,7 1.2,11c3.7,-3.8 7.9,-6.2 12.4,-7.3c1.3,-0.4 3.6,-0.9 12.2,0.4c0.1,-1.2 0.3,-2.8 0.5,-4.4c2.3,-14.1 10.3,-23.6 12.8,-26.1c0.5,-0.8 1.1,-1.7 1.8,-2.5c1.1,0.6 2.1,1.1 3.2,1.7c0,0.6 -0.4,1 -1.1,2c-1.6,2.6 -5.6,8.7 -5.9,17c-0.1,3.9 0.6,6.2 2.1,10.4c0.4,1.3 1,2.9 1.5,4.8c1.9,0.5 3.5,1 4.8,1.3c4.2,1.2 6.6,1.9 10.5,1.5c4.1,-0.4 7.7,-1.6 10.5,-2.9c2.8,-1.4 4.9,-2.9 6.2,-3.7c1.2,-1.4 2.4,-3 3.3,-4.7c0.3,-0.4 0.5,-0.8 0.7,-1.3c0.8,0.6 1.6,1.4 2.5,2.3z" id="DDS:_DIFF" fill="#dfdfdf" stroke="#000000" stroke-width="1" stroke-miterlimit="4" stroke-dasharray="2,1" font-family="&quot;Helvetica Neue&quot;, Helvetica, Arial, sans-serif" font-size="14" opacity="0.5"/><polygon points="480.60993,327.55273 480.60993,313.3795 494.78316,313.3795 494.78316,327.55273" id="NLED:_{&quot;colorID&quot;:[0.89804,0.90196,0.09804],&quot;target&quot;:3,&quot;forceTarget&quot;:23}" fill="#e5e619" stroke="#000000" stroke-width="1" stroke-miterlimit="10" stroke-dasharray="" font-family="sans-serif" font-size="12"/><polygon points="480.60993,269.13534 480.60993,254.96211 494.78316,254.96211 494.78316,269.13534" id="NLED:_{&quot;colorID&quot;:[0.89804,0.90196,0.09804],&quot;target&quot;:3,&quot;forceTarget&quot;:24}" fill="#e5e619" stroke="#000000" stroke-width="1" stroke-miterlimit="10" stroke-dasharray="" font-family="sans-serif" font-size="12"/><polygon points="447.96492,224.46321 447.96492,210.28998 462.13815,210.28998 462.13815,224.46321" id="NLED:_{&quot;colorID&quot;:[0.89804,0.90196,0.09804],&quot;target&quot;:3,&quot;forceTarget&quot;:25}" fill="#e5e619" stroke="#000000" stroke-width="1" stroke-miterlimit="10" stroke-dasharray="" font-family="sans-serif" font-size="12"/><polygon points="392.98385,198.69083 392.98385,184.51761 407.15707,184.51761 407.15707,198.69083" id="NLED:_{&quot;colorID&quot;:[0.89804,0.90196,0.09804],&quot;target&quot;:3,&quot;forceTarget&quot;:25}" fill="#e5e619" stroke="#000000" stroke-width="1" stroke-miterlimit="10" stroke-dasharray="" font-family="sans-serif" font-size="12"/><polygon points="452.26032,375.66117 452.26032,361.48794 466.43355,361.48794 466.43355,375.66117" id="NLED:_{&quot;colorID&quot;:[0.89804,0.90196,0.09804],&quot;target&quot;:3,&quot;forceTarget&quot;:22}" fill="#e5e619" stroke="#000000" stroke-width="1" stroke-miterlimit="10" stroke-dasharray="" font-family="sans-serif" font-size="12"/><polygon points="398.9974,405.72894 398.9974,391.55571 413.17063,391.55571 413.17063,405.72894" id="NLED:_{&quot;colorID&quot;:[0.89804,0.90196,0.09804],&quot;target&quot;:3,&quot;forceTarget&quot;:21}" fill="#e5e619" stroke="#000000" stroke-width="1" stroke-miterlimit="10" stroke-dasharray="" font-family="sans-serif" font-size="12"/><polygon points="392.98385,294.90771 392.98385,280.73449 407.15707,280.73449 407.15707,294.90771" id="NLED:_{&quot;colorID&quot;:[1,1,1],&quot;target&quot;:3,&quot;forceTarget&quot;:16}" fill="#ffffff" stroke="#000000" stroke-width="1" stroke-miterlimit="10" stroke-dasharray="" font-family="sans-serif" font-size="12"/><polygon points="343.15725,248.51743 343.15725,234.3442 357.33048,234.3442 357.33048,248.51743" id="NLED:_{&quot;colorID&quot;:[0.09804,0.36471,0.90196],&quot;target&quot;:3,&quot;forceTarget&quot;:17}" fill="#195de6" stroke="#000000" stroke-width="1" stroke-miterlimit="10" stroke-dasharray="" font-family="sans-serif" font-size="12"/><polygon points="270.99459,313.80746 270.99459,299.63423 285.16782,299.63423 285.16782,313.80746" id="NLED:_{&quot;colorID&quot;:[0.09804,0.63137,0.90196],&quot;target&quot;:3,&quot;forceTarget&quot;:19}" fill="#19a1e6" stroke="#000000" stroke-width="1" stroke-miterlimit="10" stroke-dasharray="" font-family="sans-serif" font-size="12"/><polygon points="320.82119,395.41999 320.82119,381.24676 334.99441,381.24676 334.99441,395.41999" id="NLED:_{&quot;colorID&quot;:[0.09804,0.63137,0.90196],&quot;target&quot;:3,&quot;forceTarget&quot;:20}" fill="#19a1e6" stroke="#000000" stroke-width="1" stroke-miterlimit="10" stroke-dasharray="" font-family="sans-serif" font-size="12"/><polygon points="321.68027,202.98623 321.68027,188.813 335.85349,188.813 335.85349,202.98623" id="NLED:_{&quot;colorID&quot;:[0.09804,0.63137,0.90196],&quot;target&quot;:3,&quot;forceTarget&quot;:18}" fill="#19a1e6" stroke="#000000" stroke-width="1" stroke-miterlimit="10" stroke-dasharray="" font-family="sans-serif" font-size="12"/><polygon points="411.02451,434.07856 411.02451,419.90533 425.19774,419.90533 425.19774,434.07856" id="NLED:_{&quot;colorID&quot;:[0.90196,0.36863,0.09804],&quot;target&quot;:3,&quot;forceTarget&quot;:15}" fill="#e65e19" stroke="#000000" stroke-width="1" stroke-miterlimit="10" stroke-dasharray="" font-family="sans-serif" font-size="12"/><polygon points="431.64241,403.1517 431.64241,388.97848 445.81564,388.97848 445.81564,403.1517" id="NLED:_{&quot;colorID&quot;:[0.90196,0.36863,0.09804],&quot;target&quot;:3,&quot;forceTarget&quot;:14}" fill="#e65e19" stroke="#000000" stroke-width="1" stroke-miterlimit="10" stroke-dasharray="" font-family="sans-serif" font-size="12"/><polygon points="475.45546,400.57447 475.45546,386.40124 489.62869,386.40124 489.62869,400.57447" id="NLED:_{&quot;colorID&quot;:[0.90196,0.36863,0.09804],&quot;target&quot;:3,&quot;forceTarget&quot;:12}" fill="#e65e19" stroke="#000000" stroke-width="1" stroke-miterlimit="10" stroke-dasharray="" font-family="sans-serif" font-size="12"/><polygon points="509.81863,338.72076 509.81863,324.54753 523.99186,324.54753 523.99186,338.72076" id="NLED:_{&quot;colorID&quot;:[0.90196,0.36863,0.09804],&quot;target&quot;:3,&quot;forceTarget&quot;:11}" fill="#e65e19" stroke="#000000" stroke-width="1" stroke-miterlimit="10" stroke-dasharray="" font-family="sans-serif" font-size="12"/><polygon points="476.31454,358.47958 476.31454,344.30635 490.48777,344.30635 490.48777,358.47958" id="NLED:_{&quot;colorID&quot;:[0.90196,0.36863,0.09804],&quot;target&quot;:3,&quot;forceTarget&quot;:13}" fill="#e65e19" stroke="#000000" stroke-width="1" stroke-miterlimit="10" stroke-dasharray="" font-family="sans-serif" font-size="12"/><polygon points="512.39587,262.2627 512.39587,248.08947 526.56909,248.08947 526.56909,262.2627" id="NLED:_{&quot;colorID&quot;:[0.90196,0.36863,0.09804],&quot;target&quot;:3,&quot;forceTarget&quot;:9}" fill="#e65e19" stroke="#000000" stroke-width="1" stroke-miterlimit="10" stroke-dasharray="" font-family="sans-serif" font-size="12"/><polygon points="491.77796,296.62587 491.77796,282.45264 505.95119,282.45264 505.95119,296.62587" id="NLED:_{&quot;colorID&quot;:[0.90196,0.36863,0.09804],&quot;target&quot;:3,&quot;forceTarget&quot;:10}" fill="#e65e19" stroke="#000000" stroke-width="1" stroke-miterlimit="10" stroke-dasharray="" font-family="sans-serif" font-size="12"/><polygon points="480.60993,234.77216 480.60993,220.59894 494.78316,220.59894 494.78316,234.77216" id="NLED:_{&quot;colorID&quot;:[0.90196,0.36863,0.09804],&quot;target&quot;:3,&quot;forceTarget&quot;:8}" fill="#e65e19" stroke="#000000" stroke-width="1" stroke-miterlimit="10" stroke-dasharray="" font-family="sans-serif" font-size="12"/><polygon points="472.01914,196.97268 472.01914,182.79945 486.19237,182.79945 486.19237,196.97268" id="NLED:_{&quot;colorID&quot;:[0.90196,0.36863,0.09804],&quot;target&quot;:3,&quot;forceTarget&quot;:7}" fill="#e65e19" stroke="#000000" stroke-width="1" stroke-miterlimit="10" stroke-dasharray="" font-family="sans-serif" font-size="12"/><polygon points="433.36057,190.95912 433.36057,176.78589 447.5338,176.78589 447.5338,190.95912" id="NLED:_{&quot;colorID&quot;:[0.90196,0.36863,0.09804],&quot;target&quot;:3,&quot;forceTarget&quot;:6}" fill="#e65e19" stroke="#000000" stroke-width="1" stroke-miterlimit="10" stroke-dasharray="" font-family="sans-serif" font-size="12"/><polygon points="356.90252,365.35222 356.90252,351.17899 371.07574,351.17899 371.07574,365.35222" id="NLED:_{&quot;colorID&quot;:[0.09804,0.36471,0.90196],&quot;target&quot;:3,&quot;forceTarget&quot;:17}" fill="#195de6" stroke="#000000" stroke-width="1" stroke-miterlimit="10" stroke-dasharray="" font-family="sans-serif" font-size="12"/><polygon points="325.11658,318.10285 325.11658,303.92963 339.28981,303.92963 339.28981,318.10285" id="NLED:_{&quot;colorID&quot;:[0.09804,0.36471,0.90196],&quot;target&quot;:3,&quot;forceTarget&quot;:17}" fill="#195de6" stroke="#000000" stroke-width="1" stroke-miterlimit="10" stroke-dasharray="" font-family="sans-serif" font-size="12"/><polygon points="403.2928,166.9049 403.2928,152.73167 417.46603,152.73167 417.46603,166.9049" id="NLED:_{&quot;colorID&quot;:[0.90196,0.36863,0.09804],&quot;target&quot;:3,&quot;forceTarget&quot;:5}" fill="#e65e19" stroke="#000000" stroke-width="1" stroke-miterlimit="10" stroke-dasharray="" font-family="sans-serif" font-size="12"/><polygon points="429.92426,295.76679 429.92426,281.59356 444.09748,281.59356 444.09748,295.76679" id="NLED:_{&quot;colorID&quot;:[1,1,1],&quot;target&quot;:3,&quot;forceTarget&quot;:16}" fill="#ffffff" stroke="#000000" stroke-width="1" stroke-miterlimit="10" stroke-dasharray="" font-family="sans-serif" font-size="12"/></g></g></g></svg>