<?xml version="1.0" encoding="utf-8"?>
<!-- Generator: Adobe Illustrator 19.2.1, SVG Export Plug-In . SVG Version: 6.00 Build 0)  -->
<svg version="1.1" id="Layer_1" xmlns="http://www.w3.org/2000/svg" xmlns:xlink="http://www.w3.org/1999/xlink" x="0px" y="0px"
	 viewBox="0 0 328.1 328.1" style="enable-background:new 0 0 328.1 328.1;" xml:space="preserve">
<style type="text/css">
	.st0{fill:#FFFFFF;}
</style>
<rect x="0" y="0" width="328.1" height="328.1"/>
<g>
	<path class="st0" d="M1.5,326.6V1.5h325.1v325.1H1.5z M21.1,307.8l64-0.2l8.1-13.4l-7.8,13.5H158v-1.8l-0.1-0.4l-23.7-49.6l-1,0
		c0,0-0.5,0-1.3,0c-7.6,0-12-1.1-12.9-2.3l-1.4-1.7l-0.4,0.6l-96.1-48.3V307.8z M181.5,307.6H250l18.3-27.6l-41.7-27.6l-20.9,32.1
		l1.8,2.3L181.5,307.6z M165.4,288.5l10.7,19.1h3l23.5-19l-12.8-14.8l1-1.6l-5.6-4.1l11.1,5.3l15.4-24.9l-2.3-1.5l2.1-2.9l-5.1-3.5
		l1.5-2.3l-5.9-3.9l-7.7-5.4l0.3-0.4l-4.2-2.4l-17.1-9.7l-7.4,12.1l-5.8,27.7l14.5,6.9l-2.7,4.4c-0.2,0.1-0.6,0.3-0.9,0.3
		c-0.2,0-0.4-0.1-0.6-0.2l-0.1,0l-10.2-5.8l0.2,2.8c0.1,1.5,0.9,14.9,3.7,19.3l0.3,0.5l2.8,0.8l2.2-1l0.6,0.6L165.4,288.5z
		 M242.8,255l30.3,19.5l31.1-52.1l-31-17.7l-16.7,27.6L237.8,221l3.5-6l17.6,11.4l10.8-17l-14.8-9l-1.9,2.8l-4.1-2.4l2-3.8
		l-16.2-5.2l-3,4.2l-10.3-4.7l-0.1,0c-0.1,0-2.2-0.7-5.7-0.7c-7.4,0-22.2,3.1-38.2,23.6l-1,1.3l66.1,39.5l4.4-6.8L242.8,255z
		 M105.1,240c11.9,9.2,28.7,11.4,29.4,11.5l1,0.1l28.3-49.6l-0.1-0.6c-3.1-13.7-14.4-19.1-16.5-20l-11.7-12.3l-32.4-15.4l-31.6,69.7
		L105.1,240z M21.1,125.6v72l45.5,23.9l32.2-69.1l-73.1-36.2L21.1,125.6z M251.6,136.2l-0.3,0.3c-7.1,7.7-10.3,15.8-9.6,24.2
		c1.2,14.3,13.2,23.9,13.7,24.3l0.1,0.1l52.1,28.6l0.1-91.3L251.6,136.2z M152.5,162.5l0.3,0.2c1.5,0.8,4,1.2,7.5,1.2
		c4,0,7.8-0.5,8-0.5l0.3,0l47.8-30c6.8-4.5,6.1-12.1,4.7-15.5l-0.1-0.1l-19-29.8l-24.7,15.4l-0.8-1.1l-8.5,5.3l-1.2,7.2l-6.9,3.8
		l1,1.6l-7.1,4.5l-4-6.1l10.8-7.2l-13.2-22L113.7,110l0.1,0.2L90.1,125l-1.3,7.8l10.4,4.7l-0.2,0.1l12.7,6l16.3-10.7l11.9,18.7
		l3.3-2.2L152.5,162.5z M35.3,105.2l38.3,20.7l20.2-13.1L74,82.1L35.3,105.2z M229.9,103c3.1,6.9,19.3,21.7,20,22.3l0.6,0.5
		l57.1-12.2V21.2H197l-15.5,8.9L229.9,103z M21.1,72.6v23l12.7,5.8l95.3-58.5l-12.6-21.8h-16.2L21.1,72.6z M115.1,96.7l15.9-9.9
		L123.7,75l9.2-5.4l3,4.9l35.3-22l-0.9-1.3c-0.4-0.6-1.4-2.4-1.1-3.8c0.1-0.6,0.5-1,1.1-1.3l3.4-2.1l-14.9-22.9h-31.5l10.7,16
		l1.2-0.8c0,0,1.2-0.8,2.5-0.8c1,0,1.8,0.5,2.4,1.5l0.1,0.1l1.6,2.2l-13.6,8.4l-1.4-2.4l-15,9.3l1.1,1.6L90.1,72.9l9.9,17l1.1-0.7
		l1.4,2.1l6.9-4L115.1,96.7z"/>
	<path d="M325.1,3v322.1H3V3H325.1 M137.6,39.2l2.5-1.7c0.1-0.1,1-0.5,1.7-0.5c0.3,0,0.6,0,1.1,0.8l0.1,0.1l0.1,0.1l0.6,0.9
		l-10.9,6.7l-1.4-2.4l-0.2,0.1l-1.3-2.3l-11.4-19.8l-0.9-1.5h-1.7h-14.9h-0.9l-0.7,0.5L21,70.9l-1.4,0.9v1.6v21.2v1.9l1.7,0.8
		l11.1,5.1l1.5,0.7l1.4-0.8l78.3-48.1l1,1.5L90.5,70.9L88,72.4l1.5,2.5l8.4,14.4l1.6,2.7l1.2-0.8l1.3,2.1l2.5-1.4l4.4-2.5l4.2,6.8
		l1.6,2.6l2.6-1.6l13.3-8.3l2.5-1.6l-1.6-2.5l-5.7-9.2l6.6-3.9l1.5,2.4l1.6,2.6L138,75l32.7-20.4l2.7-1.7l-1.8-2.6
		c-0.4-0.6-1-1.9-0.9-2.6c0-0.1,0-0.2,0.3-0.4l0,0l0,0l2.1-1.3l2.6-1.6l-1.7-2.6L160.5,21l-0.9-1.4H158h-27.9h-5.6l3.1,4.7l8.3,12.4
		L137.6,39.2 M228.6,103.8c3.3,7.1,18.6,21.1,20.3,22.7l1.1,1l1.5-0.3l55.2-11.8l2.4-0.5v-2.4V22.7v-3h-3H197.4h-0.8l-0.7,0.4
		L182.1,28l-2.8,1.6l1.8,2.7L228.6,103.8 M73.6,127.6l1.5-1l18.2-11.8l2.5-1.6l-1.6-2.5L76,82.5L74.5,80L72,81.5l-35.2,21l-4.5,2.7
		l4.6,2.5l35.2,19L73.6,127.6 M177.8,101.3l-0.8-1.1l-2.4,1.5l-6.7,4.2l-1.1,0.7l-0.2,1.3l-1,5.8l-4.8,2.7l-2.8,1.6l1.1,1.6
		l-4.6,2.9l-2.4-3.6l8.3-5.6l2.4-1.6l-1.5-2.5l-11.7-19.5l-1.6-2.6l-2.6,1.6L114.1,108l-2.3,1.4l0.1,0.2l-22,13.7l-1.2,0.7l-0.2,1.3
		l-1,6l-0.4,2.3l2.1,0.9l7,3.2l-0.1,0.1l4.5,2.1l9.7,4.6l1.5,0.7l1.4-0.9l14.4-9.4l10.3,16.1l1.7,2.6l2.6-1.8l0.7-0.5L151,163
		l0.4,0.6l0.7,0.3c1.7,0.9,4.4,1.3,8.2,1.3c4.1,0,8-0.5,8.2-0.5l0.7-0.1l0.6-0.4l47.5-29.8l0,0l0,0c7.6-5,6.8-13.5,5.2-17.3
		l-0.1-0.3l-0.1-0.2l-18.1-28.4l-1.6-2.5l-2.5,1.6L177.8,101.3 M67.3,223.4l1.3-2.8l30.9-66.3l1.2-2.7l-2.6-1.3l-70.4-34.9l-2.7-1.3
		l-1.3,2.7l-3.8,7.8l-0.3,0.6v0.7v70.7v1.8l1.6,0.8L64.5,222L67.3,223.4 M309.1,216.2l0-5.1l0.1-86.9l0-3.8l-3.7,0.9l-53.8,13.3
		l-0.9,0.2l-0.6,0.7c-7.3,8-10.7,16.5-10,25.3c1.2,14.9,13.7,24.9,14.3,25.3l0.2,0.2l0.2,0.1l49.8,27.3L309.1,216.2 M104.3,241.3
		c12.2,9.3,29.3,11.6,30,11.7l2,0.3l1-1.7l27.5-48.2l0.6-1l-0.3-1.1c-3.1-13.8-14.2-19.7-17.1-21l-11.3-11.9l-0.4-0.4l-0.5-0.2
		l-30.8-14.6l-2.8-1.3l-1.3,2.8l-30.4,67l-1.2,2.7l2.6,1.3L104.3,241.3 M174.5,215.4l-1.8-1l-1.5,2.5l-6.5,10.6l-0.3,0.4l-0.1,0.5
		l-5.5,26.3l-0.5,2.3l2.1,1l11.9,5.7l-1.5,2.5l-7.6-4.4l-4.8-2.7l0.3,5.5c0.1,2.5,1,15.4,4,20.1l0.6,0.9l1.1,0.3l1.3,0.4l-0.3,0.3
		l-1.9,1.6l1.2,2.2l9.7,17.3l0.9,1.5h1.8h0.3h8.5h63.4h1.6l0.9-1.3l17-25.7l1.7-2.5l-2.5-1.7L228.7,252l-2.5-1.7l-1.6,2.5L205,282.8
		l-1.2,1.8l1.3,1.7l0.2,0.3l-1.5,1.2l-1.1-1.3l-11.1-12.8l0.3-0.5l2.4,1.1l2.4,1.2l1.4-2.3l13.9-22.5l1.6-2.5l-2.3-1.4l0.3-0.4
		l1.7-2.5L211,242l-2.7-1.8l1.5-2.3l-2.5-1.6l-4.7-3.1l-2-1.4l39.8,23.8l2.5,1.5l0-0.1l0.2,0.1l27.8,17.9l2.6,1.7l1.6-2.7l29.5-49.5
		l1.6-2.6l-2.7-1.5l-28.4-16.2l-2.5-1.4l-1.5,2.5l-1.5,2.4l-0.4-0.2l-12.3-7.5l-2.4-1.5l-1.6,2.4l-0.3,0.5l-1.7-1l0.5-1l1.6-3.2
		l-3.4-1.1l-13.5-4.3l-2.1-0.7l-1.3,1.8l-1.7,2.3l-9.1-4.2l-0.1-0.1l-0.2-0.1c-0.2-0.1-2.5-0.8-6.2-0.8c-17.9,0-32.4,15.2-39.4,24.2
		L174.5,215.4 M19.6,309.3l3,0l30.8-0.1l29.5-0.1l-0.1,0.1h5.2h68.4h3v-3v-0.1v-0.7l-0.3-0.6l-23.3-48.7l-0.8-1.8l-2,0.1
		c0,0-0.5,0-1.3,0c-7.1,0-10.9-1-11.7-1.7l0.2-0.3l-0.7-0.3l-2.3-2.8l-0.7,1.3L23.9,204l-4.3-2.2v4.9v99.6V309.3 M241.8,217.1
		l15.1,9.7l0.8,0.5l-1.7,2.9l-16.1-9.8L241.8,217.1 M328.1,0H0v328.1h328.1V0L328.1,0z M138.4,35l-8.3-12.4H158l13.6,20.9l-2.1,1.3
		c-3.9,2.3-0.4,7.3-0.4,7.3l-32.7,20.4l-3-4.9l-11.8,6.9l7.3,11.8l-13.3,8.3l-5.7-9.3l-6.9,4l-1.4-2.2l-1.1,0.7l-8.4-14.4l26.8-16.8
		l-1.1-1.6l12.4-7.7l1.4,2.4l16.3-10l-2.5-3.5c-1-1.7-2.4-2.2-3.7-2.2C140,34,138.4,35,138.4,35L138.4,35z M33.7,99.7l-11.1-5.1
		V73.4l78.2-50.8h14.9l11.4,19.8L33.7,99.7L33.7,99.7z M250.9,124.2c0,0-16.8-15.3-19.7-21.9l-47.6-71.7l13.8-7.9h108.7v89.7
		L250.9,124.2L250.9,124.2z M73.5,124.1l-35.2-19l35.2-21l18.2,28.2L73.5,124.1L73.5,124.1z M177,105.3l24.6-15.4l18.1,28.4
		c0,0,3.5,8.7-4.1,13.7l-47.5,29.8c0,0-3.9,0.5-7.8,0.5c-2.7,0-5.3-0.2-6.8-1l-9.8-14l-3.2,2.2l-11.9-18.7l-16.9,11.1l-9.7-4.6
		l4.3-3.2c0,0,0.2-2.2-1.5-2.2c-0.2,0-0.4,0-0.7,0.1l-4.9,3.8l-8.7-3.9l1-6l24.3-15.1l-0.1-0.2L147,91.3l11.7,19.5l-10.8,7.2
		l5.6,8.6l9.7-6.1l-1-1.5l6.1-3.4l1.2-7.2l6.7-4.2L177,105.3L177,105.3z M65.9,219.3l-43.3-22.7v-70.7l3.8-7.8L96.8,153L65.9,219.3
		L65.9,219.3z M306.1,211.1l-49.8-27.3c0,0-26.9-21.2-3.9-46.3l53.8-13.3L306.1,211.1L306.1,211.1z M134.7,250
		c0,0-17.1-2.2-28.8-11.3l-32.5-15.9l30.4-67l30.8,14.6l11.7,12.3c0,0,12.7,4.9,15.9,19.1L134.7,250L134.7,250z M242,252.9
		L178.6,215c15.5-19.9,29.7-23,37-23c3.3,0,5.3,0.6,5.3,0.6l11.3,5.2l3.1-4.3l13.5,4.3l-1.8,3.5l6.5,3.9l1.9-2.8l12.3,7.5l-9.2,14.4
		l-17.7-11.4l-5,8.6l19.1,11.6L242,252.9L242,252.9z M272.6,272.4l-27.8-17.9l28.9-47.8l28.4,16.2L272.6,272.4L272.6,272.4z
		 M22.6,306.3v-99.6l93.5,47l-31.8,52.4l-30.8,0.1L22.6,306.3L22.6,306.3z M195.7,271.5l-34-16.2l5.5-26.3l6.5-10.6l15.8,9l2.8,1.6
		l-0.2,0.3l8.9,6.3l4.7,3.1l-1.5,2.3l5.1,3.5l-2.1,3l2.4,1.5L195.7,271.5L195.7,271.5z M185.8,306.1l23.7-19.1l-2-2.6l19.5-29.9
		l39.2,25.9l-17,25.7H185.8L185.8,306.1z M88.1,306.2l29.7-51.6c2.1,2.6,10.7,2.8,14,2.8c0.8,0,1.4,0,1.4,0l23.3,48.7v0.1H88.1
		L88.1,306.2z M170.8,269.3c1.1,0,2.1-0.8,2.1-0.8l3.1-5.1l12.8,9.2l-0.8,1.3l12.5,14.5l-21.9,17.7H177l-9.7-17.3l4.6-3.9l-2.3-2.6
		l-2.7,1.2l-1.7-0.5c-2.7-4.2-3.5-18.6-3.5-18.6l7.7,4.4C169.9,269.1,170.4,269.3,170.8,269.3L170.8,269.3z"/>
</g>
<rect x="0" y="0" class="st0" width="9.3" height="328.1"/>
<rect x="319" y="0" class="st0" width="9.3" height="328.1"/>
<rect x="159.4" y="-159.4" transform="matrix(4.495141e-11 1 -1 4.495141e-11 168.7035 -159.3965)" class="st0" width="9.3" height="328.1"/>
<rect x="159.4" y="160.1" transform="matrix(4.495141e-11 1 -1 4.495141e-11 488.2035 160.1034)" class="st0" width="9.3" height="328.1"/>
</svg>
