<?xml version="1.0" encoding="utf-8"?>
<!-- Generator: Adobe Illustrator 19.2.1, SVG Export Plug-In . SVG Version: 6.00 Build 0)  -->
<svg version="1.1" id="Layer_1" xmlns="http://www.w3.org/2000/svg" xmlns:xlink="http://www.w3.org/1999/xlink" x="0px" y="0px"
	 viewBox="0 0 432 432" style="enable-background:new 0 0 432 432;" xml:space="preserve">
<style type="text/css">
	.st0{fill:#ED1C24;}
	.st1{fill:#00AEEF;}
	.st2{fill:#FFF200;}
	.st3{fill:none;stroke:#FFF200;stroke-miterlimit:10;}
	.st4{fill:#7D2C91;}
</style>
<path id="BASE:_Base_path" class="st0" d="M199.4,422l-10.2-3.4c-0.3-0.1-0.6-0.2-0.9-0.3c-52.6-8.5-99.7-37.1-132.8-80.6
	c-16.8-22-29-46.6-36.3-73c-7.7-27.8-9.5-56.2-5.6-84.5c7.1-50.6,32.6-97.2,71.8-131.1c38.8-33.6,87.7-52.1,137.8-52.1
	c10.1,0,20.3,0.8,30.3,2.3C296,5.7,334.9,24,366.1,52.2c31.5,28.4,53.5,65.6,63.7,107.5c1.2,4.8,2.3,9.7,3.5,14.5l3.3,13.7v43.8
	l-2.9,9.4c-0.2,0.7-0.4,1.3-0.6,1.9c-7.2,44.5-27.6,84.7-59.2,116.2c-31.5,31.5-71.8,52-116.4,59.4c-0.6,0.2-1.3,0.4-2,0.6l-9.4,2.9
	H199.4z"/>
<path id="DIF:_DIFF_12_" class="st1" d="M160.5,274.9c-10.4,10.9-21.1,21.7-32.2,33.1c-18.5-18.3-30.4-38.7-37.3-63.3
	c16.1-4.4,31.8-8.6,47.7-12.9c7.5,12.9,15,25.6,22.2,38.4C161.6,271.3,161.4,273.9,160.5,274.9z"/>
<path id="DIF:_DIFF_11_" class="st1" d="M204.3,345.3c-23.9-3.6-44-12.3-62.3-25.5c10-10,19.9-19.9,30.2-30.2
	C182.7,307.7,193.1,325.8,204.3,345.3z"/>
<path id="DIF:_DIFF_10_" class="st1" d="M305.9,319.4c-17.5,13.2-38.1,22.1-62.6,25.8c11.4-19.8,22.1-38.2,32.5-56.4
	C285.9,299.1,295.8,309.1,305.9,319.4z"/>
<path id="DIF:_DIFF_9_" class="st1" d="M356.9,243.2c-6.2,24.8-18.4,45.4-35.8,63.1c-11.8-11.8-23.3-23.2-35.2-35
	c7.9-13.7,15.7-27.1,23.6-40.8C325.3,234.7,340.7,238.8,356.9,243.2z"/>
<path id="DIF:_DIFF_8_" class="st1" d="M360.1,225.7c-14.1-3.8-27.2-7.3-41.3-11.2c10.9-18.9,21.4-37.2,32.5-56.4
	C359.9,180.3,363,202.2,360.1,225.7z"/>
<path id="DIF:_DIFF_7_" class="st1" d="M342.3,151c-36.6,63.4-73.2,126.7-110.6,191.5c-0.3-3.1-0.5-4.5-0.5-6
	c0-15.2-0.2-30.3,0-45.5c0-3,0.9-6.2,2.4-8.8c19.3-33.7,38.8-67.2,58.3-100.8c1.2-2.1,2.8-4.3,4.7-5.5c14.9-8.7,29.9-17.1,44.8-25.7
	C341.7,150.5,342,150.7,342.3,151z"/>
<path id="DIF:_DIFF_6_" class="st1" d="M266.9,185.2c-14.4,24.9-28.5,49.4-43.2,74.9c-14.1-25.3-27.6-49.7-41.6-74.9H266.9z"/>
<path id="DIF:_DIFF_5_" class="st1" d="M331.4,124h-65.1c3.7-13.8,7.2-27.1,11-41.2C298.8,92,316.3,105.4,331.4,124z"/>
<path id="DIF:_DIFF_4_" class="st1" d="M260.4,76.9c-4.1,15.3-7.9,29.9-12,44.4c-0.4,1.4-2.9,3-4.5,3c-13.5,0.2-27,0.2-40.4,0
	c-1.5,0-4.1-1.5-4.5-2.8c-4-14.3-7.7-28.8-11.5-43.2c-0.1-0.3,0.2-0.8,0.5-1.6C211.8,70.4,235.6,70.2,260.4,76.9z"/>
<path id="DIF:_DIFF_3_" class="st1" d="M181.3,124.1h-65.2c15.1-18.7,32.5-31.8,54-41.3C173.9,96.7,177.5,110.1,181.3,124.1z"/>
<path id="DIF:_DIFF_2_" class="st1" d="M336.9,136.1c-5.2,3.2-9,5.5-12.7,7.7c-9,5.2-18.2,10-26.9,15.6c-6.4,4.2-12.8,5.7-20.4,5.7
	c-36.8-0.3-73.5-0.1-110.3-0.2c-2.4,0-5.1-0.4-7.1-1.5c-15.1-8.6-30.1-17.4-45.2-26.1c0.1-0.4,0.2-0.8,0.4-1.2H336.9z"/>
<path id="DIF:_DIFF_1_" class="st1" d="M217.2,341.9c-0.6,0-1.1,0-1.7,0c-37-64.1-74-128.2-111.6-193.2c2,0.8,3.2,1,4.3,1.6
	c14.4,8.2,28.8,16.4,43.1,24.8c2.2,1.3,4.1,3.5,5.4,5.7c19.3,33.6,38.6,67.2,57.7,101c1.6,2.9,2.5,6.6,2.6,9.9
	C217.3,308.5,217.2,325.2,217.2,341.9z"/>
<path id="DIF:_DIFF" class="st1" d="M129.6,215.7c-14.2,3.8-27.5,7.4-41.8,11.3c-3.5-23.7-0.2-46,8.4-69
	C107.5,177.5,118.3,196.1,129.6,215.7z"/>
<circle id="NUT:_nut" class="st1" cx="399.8" cy="214.3" r="6.9"/>
<circle id="NUT:_nut_1_" class="st1" cx="223.8" cy="34.7" r="6.9"/>
<circle id="NUT:_nut_2_" class="st1" cx="223.8" cy="385.2" r="6.9"/>
<circle id="NLED:_naskdj" class="st2" cx="155.6" cy="108.1" r="9.9"/>
<circle id="NLED:_naskdj_1_" class="st2" cx="223.8" cy="103.4" r="9.9"/>
<circle id="NLED:_naskdj_2_" class="st2" cx="288.9" cy="108.1" r="9.9"/>
<circle id="NLED:_naskdj_3_" class="st2" cx="224.5" cy="150.3" r="9.9"/>
<circle id="NLED:_naskdj_4_" class="st2" cx="175.4" cy="241.6" r="9.9"/>
<circle id="NLED:_naskdj_5_" class="st2" cx="274.6" cy="240.1" r="9.9"/>
<circle id="NLED:_naskdj_6_" class="st2" cx="225.6" cy="215.7" r="9.9"/>
<circle id="NLED:_naskdj_7_" class="st2" cx="104" cy="204.4" r="9.9"/>
<circle id="NLED:_naskdj_8_" class="st2" cx="129.6" cy="269.8" r="9.9"/>
<circle id="NLED:_naskdj_9_" class="st2" cx="170.6" cy="317.4" r="9.9"/>
<circle id="NLED:_naskdj_10_" class="st2" cx="279" cy="317.4" r="9.9"/>
<circle id="NLED:_naskdj_11_" class="st2" cx="321.4" cy="263.8" r="9.9"/>
<circle id="NLED:_naskdj_12_" class="st2" cx="346.8" cy="201.8" r="9.9"/>
<polyline id="CP:_circuit_path" class="st3" points="69.8,129 100.3,89 155.6,108.1 233.7,103.4 293.7,108.1 346.8,201.8 
	321.4,263.8 279,317.4 170.6,317.4 129.6,269.8 99.7,203.2 214.6,150.3 274.6,240.1 225.6,215.7 175.4,245.3 "/>
<polygon id="MC:_micro" points="80.9,177.1 109.5,120.8 97,114.5 97,114.5 69.7,100.6 69.7,100.6 58.7,95 30.1,151.3 3.1,193.4 
	38.8,330.6 110.1,312 "/>
<circle id="BI:_breaking" class="st4" cx="80.4" cy="118" r="10.6"/>
</svg>
