<?xml version="1.0" encoding="utf-8"?>
<!-- Generator: Adobe Illustrator 19.2.1, SVG Export Plug-In . SVG Version: 6.00 Build 0)  -->
<svg version="1.1" id="Layer_1" xmlns="http://www.w3.org/2000/svg" xmlns:xlink="http://www.w3.org/1999/xlink" x="0px" y="0px"
	 viewBox="0 0 92.5 88.9" style="enable-background:new 0 0 92.5 88.9;" xml:space="preserve">
<style type="text/css">
	.st0{fill:#333333;}
	.st1{fill:#7B7B7B;}
	.st2{fill:#AEADAE;}
	.st3{fill:#B7B7B7;}
	.st4{fill:#B2B3B3;}
	.st5{fill:#484748;}
</style>
<path id="DDS:_Diffuser" class="st0" d="M92,45.2c0.4-0.8,0.5-1.6,0.4-2.5c-0.1-0.8-0.4-1.5-0.8-2.1c0.1-0.5,0.2-1,0.1-1.6
	c-0.2-1.4-0.9-2.5-2-3.2c-0.3-1.4-1.2-2.5-2.5-3.1c-0.1-0.2-0.2-0.3-0.3-0.5c0.1-0.5,0.2-1.1,0.2-1.6c0-3.3-2.5-5.9-5.5-5.9
	c-0.7,0-1.3,0.1-1.9,0.4c-0.5-2.6-2.5-4.5-4.9-4.8c0.3-0.7,0.4-1.5,0.4-2.3c0-3.3-2.5-5.9-5.5-5.9c-1.4,0-2.7,0.6-3.7,1.5
	c-0.2-0.4-0.3-0.7-0.5-1.1c0.8-0.9,1.3-2.2,1.3-3.6c0-2.6-1.6-4.6-3.8-5.1c-0.8-1.5-2.3-2.5-4.1-2.5c0,0-0.1,0-0.1,0
	C58,0.5,57,0,55.7,0c-0.7,0-1.4,0.2-2,0.5c-0.6-0.3-1.3-0.5-2-0.5c-1.6,0-2.9,0.8-3.8,2.1c0,0,0,0,0,0c-2.1,0-3.9,1.4-4.5,3.5
	c-0.3,0.1-0.6,0.3-0.9,0.5c-0.4-0.4-0.7-0.8-1.2-1.1l-0.1,0c-1.7-1.3-3.7-2-5.9-2c-1.6,0-2.9,0.4-3.4,0.5l-0.1,0l-0.1,0
	C30.6,4,27.3,5.7,26,9.4c-0.1,0.4-0.2,0.9-0.3,1.3c-0.8-0.6-1.7-1-2.8-1c-1.1,0-2.1,0.4-2.9,1.1c-0.5-0.2-1.1-0.3-1.6-0.3
	c-1.7,0-3.1,0.9-4,2.3c-2.2,0.1-3.9,1.8-4.3,4c-1.4,0.9-2.4,2.5-2.4,4.5c0,0.4,0,0.7,0.1,1.1C7,23.3,6.5,24.6,6.5,26
	c0,1,0.3,2,0.7,2.8c-0.1,0.3-0.1,0.7-0.1,1.1c0,0.2,0,0.4,0,0.7c-0.2,0.1-0.4,0.2-0.5,0.3c-0.8,0.6-1.4,1.3-1.7,2.2
	c-2.6,0.1-4.6,1.8-4.9,4.1c-0.1,1.1,0.2,2.2,0.8,3.1c-0.4,0.9-0.5,1.8-0.3,2.8c0.4,1.8,1.9,3.2,3.8,3.6c0.4,2.3,2,4,4.1,4.2
	c0.4,0.6,0.9,1.1,1.4,1.5c0,0,0,0.1,0,0.1c-1.6,0.8-2.7,2.6-2.7,4.7c0,0.6,0.1,1.1,0.2,1.6c-0.4,0.8-0.7,1.7-0.7,2.7
	c0,1.4,0.5,2.6,1.3,3.5c0,0.2-0.1,0.5-0.1,0.8c0,2.3,1.3,4.2,3.2,4.9c0.4,2.2,2.1,3.9,4.2,4.1c0.9,1.2,2.2,2,3.7,2
	c0.5,0,0.9-0.1,1.3-0.2c0.8,0.6,1.8,1,2.8,1c1,0,2-0.4,2.8-1c0.1,1.4,0.5,2.9,1.3,4.2c1.4,2.4,3.9,4,7,4.6l0.2,0l0.3,0
	c0.3,0,0.7,0.1,1,0.1c0,0,0,0,0,0c2.6,0,5.1-1,7-2.8c0.1,0.6,0.2,1.1,0.5,1.6c0.8,1.5,2.3,2.3,4.1,2.3c0.2,0,0.4,0,0.6,0
	c0.7,1.3,1.9,2.2,3.4,2.4c0.2,0,0.4,0,0.6,0c1,0,1.9-0.3,2.6-0.9c0.7,0.4,1.5,0.6,2.3,0.6c0,0,0,0,0,0c0.3,0,0.7,0,1-0.1
	c1-0.2,1.9-0.8,2.6-1.7c0,0,0.1,0,0.1,0c0,0,0,0,0,0c0.3,0,0.7,0,1-0.1c1.6-0.4,2.8-1.6,3.3-3.1c1.1-0.3,2-0.9,2.6-1.9
	c0.4-0.6,0.6-1.2,0.7-1.9c0.5-0.3,1-0.8,1.4-1.3c0.5-0.8,0.8-1.7,0.7-2.7c0.2-0.2,0.4-0.4,0.6-0.7c0.7-1.1,0.9-2.4,0.6-3.6
	c0.5,0,0.9,0.1,1.3,0.1c0,0,0,0,0,0c3.3,0,5.9-1.2,7.5-3.5c1.9-2.6,1.8-6,0.5-8.9c0,0,0,0,0.1,0c0.1,0,0.3,0,0.4,0c0,0,0,0,0,0
	c1.6,0,3-0.8,3.9-2c0-0.1,0.1-0.1,0.1-0.2c1.1-0.3,2-0.9,2.7-1.9c0.2-0.3,0.4-0.7,0.5-1.1c0.7-0.3,1.2-0.9,1.6-1.5
	c0.5-0.8,0.7-1.6,0.7-2.5c1.1-1,1.7-2.4,1.6-3.9C92.3,45.8,92.2,45.5,92,45.2z"/>
<circle id="DD:_Diffuser_247_" class="st1" cx="48.6" cy="41.9" r="10.4"/>
<ellipse id="DD:_Diffuser_245_" transform="matrix(0.8962 -0.4436 0.4436 0.8962 -11.4022 20.312)" class="st2" cx="37.7" cy="34.5" rx="5.2" ry="5.2"/>
<ellipse id="DD:_Diffuser_244_" transform="matrix(0.6064 -0.7952 0.7952 0.6064 -3.125 51.4448)" class="st2" cx="50.4" cy="28.9" rx="5.2" ry="5.2"/>
<ellipse id="DD:_Diffuser_243_" transform="matrix(0.1907 -0.9816 0.9816 0.1907 12.3581 90.4192)" class="st2" cx="61" cy="37.7" rx="5.2" ry="5.2"/>
<ellipse id="DD:_Diffuser_242_" transform="matrix(0.9644 -0.2646 0.2646 0.9644 -11.1073 17.2001)" class="st2" cx="58.3" cy="49.8" rx="5.2" ry="5.2"/>
<ellipse id="DD:_Diffuser_241_" transform="matrix(0.7469 -0.6649 0.6649 0.7469 -23.7507 45.3211)" class="st2" cx="47.7" cy="53.9" rx="5.2" ry="5.2"/>
<ellipse id="DD:_Diffuser_246_" transform="matrix(0.7469 -0.6649 0.6649 0.7469 -22.081 37.7851)" class="st2" cx="38.6" cy="47.9" rx="5.2" ry="5.2"/>
<path id="DD:_Diffuser_188_" class="st3" d="M18.3,44.1c0.3-2.4-0.9-5-3-6.3c-3.2-2-7.9-0.8-8.5,1.1c-0.4,1.3,0.9,3.2,2.1,4.1
	c2.1,1.7,4.1,0.9,5,2.4c1.1,1.7-0.6,4,0,4.3C14.6,50.1,18,47.7,18.3,44.1z"/>
<path id="DD:_Diffuser_187_" class="st4" d="M62.6,20.6c-2.6-1.8-5.9-3.9-9-2.7c-2.1,0.8-3.9,3.1-3.4,4.3c0.5,1.2,2.8,0.3,4.3,1.8
	c2.6,2.5-0.1,8.2,1.7,9.1c1.1,0.6,2.5-1.9,5.1-1.6c2.1,0.2,2.5,1.8,4,1.6c1.8-0.2,3.5-2.6,3.5-4.9C69,24.8,65.4,22.4,62.6,20.6z"/>
<ellipse id="DD:_Diffuser_167_" class="st2" cx="27.1" cy="16.5" rx="1.1" ry="1.6"/>
<ellipse id="DD:_Diffuser_166_" class="st2" cx="45.1" cy="10.4" rx="1.1" ry="1.6"/>
<ellipse id="DD:_Diffuser_165_" class="st2" cx="48" cy="7.2" rx="1.1" ry="1.6"/>
<ellipse id="DD:_Diffuser_164_" class="st2" cx="51.8" cy="5.1" rx="1.1" ry="1.6"/>
<ellipse id="DD:_Diffuser_163_" class="st2" cx="55.7" cy="5.1" rx="1.1" ry="1.6"/>
<ellipse id="DD:_Diffuser_162_" class="st2" cx="59" cy="6.4" rx="1.1" ry="1.6"/>
<ellipse id="DD:_Diffuser_161_" class="st2" cx="62.2" cy="8.9" rx="1.1" ry="1.6"/>
<ellipse id="DD:_Diffuser_160_" class="st2" cx="22.9" cy="14.9" rx="1.1" ry="1.6"/>
<ellipse id="DD:_Diffuser_159_" class="st2" cx="18.4" cy="15.7" rx="1.1" ry="1.6"/>
<ellipse id="DD:_Diffuser_158_" class="st2" cx="14.7" cy="18" rx="1.1" ry="1.6"/>
<ellipse id="DD:_Diffuser_157_" class="st2" cx="12.4" cy="21.3" rx="1.1" ry="1.6"/>
<ellipse id="DD:_Diffuser_156_" class="st2" cx="11.2" cy="26" rx="1.1" ry="1.6"/>
<ellipse id="DD:_Diffuser_155_" class="st2" cx="11.8" cy="29.8" rx="1.1" ry="1.6"/>
<ellipse id="DD:_Diffuser_154_" class="st2" cx="14.1" cy="33.5" rx="1.1" ry="1.6"/>
<ellipse id="DD:_Diffuser_153_" class="st2" cx="17.6" cy="50.4" rx="1.1" ry="1.6"/>
<ellipse id="DD:_Diffuser_152_" class="st2" cx="14.5" cy="52.7" rx="1.1" ry="1.6"/>
<ellipse id="DD:_Diffuser_3_" class="st2" cx="12.3" cy="47.9" rx="1.1" ry="1.6"/>
<ellipse id="DD:_Diffuser_4_" class="st2" cx="8.9" cy="45.7" rx="1.1" ry="1.6"/>
<ellipse id="DD:_Diffuser_5_" transform="matrix(0.979 -0.2039 0.2039 0.979 -8.4476 2.0179)" class="st2" cx="5.6" cy="42" rx="1.6" ry="1.1"/>
<ellipse id="DD:_Diffuser_6_" transform="matrix(0.1092 -0.994 0.994 0.1092 -32.9072 38.7071)" class="st2" cx="5.1" cy="37.7" rx="1.1" ry="1.6"/>
<ellipse id="DD:_Diffuser_7_" transform="matrix(0.1092 -0.994 0.994 0.1092 -26.412 40.6842)" class="st2" cx="9.5" cy="35.1" rx="1.1" ry="1.6"/>
<ellipse id="DD:_Diffuser_151_" class="st2" cx="11.8" cy="57.1" rx="1.1" ry="1.6"/>
<ellipse id="DD:_Diffuser_150_" class="st2" cx="11.4" cy="61.3" rx="1.1" ry="1.6"/>
<ellipse id="DD:_Diffuser_149_" class="st2" cx="12.6" cy="65.6" rx="1.1" ry="1.6"/>
<ellipse id="DD:_Diffuser_148_" class="st2" cx="15.7" cy="69.4" rx="1.1" ry="1.6"/>
<ellipse id="DD:_Diffuser_147_" class="st2" cx="18.9" cy="71.4" rx="1.1" ry="1.6"/>
<ellipse id="DD:_Diffuser_146_" class="st2" cx="23.1" cy="72.2" rx="1.1" ry="1.6"/>
<ellipse id="DD:_Diffuser_145_" class="st2" cx="27.8" cy="71.6" rx="1.1" ry="1.6"/>
<ellipse id="DD:_Diffuser_144_" transform="matrix(0.8759 -0.4824 0.4824 0.8759 -31.7865 30.9809)" class="st2" cx="44.3" cy="77.3" rx="1.6" ry="1.1"/>
<ellipse id="DD:_Diffuser_143_" transform="matrix(0.8759 -0.4824 0.4824 0.8759 -33.5037 33.0959)" class="st2" cx="47.6" cy="81.7" rx="1.6" ry="1.1"/>
<ellipse id="DD:_Diffuser_142_" transform="matrix(0.1437 -0.9896 0.9896 0.1437 -38.4457 123.1662)" class="st2" cx="51.9" cy="83.8" rx="1.6" ry="1.1"/>
<ellipse id="DD:_Diffuser_141_" transform="matrix(0.9751 -0.2219 0.2219 0.9751 -17.1371 14.6544)" class="st2" cx="56.7" cy="83.6" rx="1.1" ry="1.6"/>
<ellipse id="DD:_Diffuser_140_" transform="matrix(0.9751 -0.2219 0.2219 0.9751 -16.6551 15.4211)" class="st2" cx="60.3" cy="81.8" rx="1.1" ry="1.6"/>
<ellipse id="DD:_Diffuser_139_" transform="matrix(0.5478 -0.8366 0.8366 0.5478 -37.5736 88.5353)" class="st2" cx="63.1" cy="79" rx="1.1" ry="1.6"/>
<ellipse id="DD:_Diffuser_138_" transform="matrix(0.5478 -0.8366 0.8366 0.5478 -33.9452 88.806)" class="st2" cx="65.2" cy="75.8" rx="1.1" ry="1.6"/>
<ellipse id="DD:_Diffuser_137_" transform="matrix(0.5478 -0.8366 0.8366 0.5478 -30.5646 88.3671)" class="st2" cx="66.5" cy="72.5" rx="1.1" ry="1.6"/>
<ellipse id="DD:_Diffuser_136_" transform="matrix(0.5478 -0.8366 0.8366 0.5478 -11.6121 89.7291)" class="st2" cx="77.2" cy="55.6" rx="1.1" ry="1.6"/>
<ellipse id="DD:_Diffuser_135_" transform="matrix(0.5478 -0.8366 0.8366 0.5478 -9.043 92.1975)" class="st2" cx="80.8" cy="54.5" rx="1.1" ry="1.6"/>
<ellipse id="DD:_Diffuser_134_" transform="matrix(0.5478 -0.8366 0.8366 0.5478 -6.0501 93.5843)" class="st2" cx="83.5" cy="52.4" rx="1.1" ry="1.6"/>
<ellipse id="DD:_Diffuser_133_" transform="matrix(0.5478 -0.8366 0.8366 0.5478 -2.9248 94.21)" class="st2" cx="85.7" cy="49.8" rx="1.1" ry="1.6"/>
<ellipse id="DD:_Diffuser_132_" transform="matrix(0.9937 -0.1117 0.1117 0.9937 -4.6803 10.0307)" class="st2" cx="87.2" cy="46.8" rx="1.6" ry="1.1"/>
<ellipse id="DD:_Diffuser_131_" transform="matrix(0.9937 -0.1117 0.1117 0.9937 -4.2853 10.0302)" class="st2" cx="87.4" cy="43.3" rx="1.6" ry="1.1"/>
<ellipse id="DD:_Diffuser_130_" transform="matrix(0.9937 -0.1117 0.1117 0.9937 -3.8813 9.9298)" class="st2" cx="86.7" cy="39.6" rx="1.6" ry="1.1"/>
<ellipse id="DD:_Diffuser_129_" transform="matrix(0.9937 -0.1117 0.1117 0.9937 -3.5835 9.7011)" class="st2" cx="84.8" cy="36.8" rx="1.6" ry="1.1"/>
<ellipse id="DD:_Diffuser_128_" transform="matrix(0.9937 -0.1117 0.1117 0.9937 -3.3647 9.4489)" class="st2" cx="82.6" cy="34.8" rx="1.6" ry="1.1"/>
<ellipse id="DD:_Diffuser_1_" transform="matrix(0.9937 -0.1117 0.1117 0.9937 -3.0621 8.6587)" class="st2" cx="75.7" cy="31.7" rx="1.6" ry="1.1"/>
<ellipse id="DD:_Diffuser_2_" transform="matrix(0.9937 -0.1117 0.1117 0.9937 -2.1284 7.9336)" class="st2" cx="69.7" cy="23" rx="1.6" ry="1.1"/>
<path id="DD:_Diffuser_99_" class="st4" d="M34,18.5c-1.4,0.8-5.2,3-5.4,6.7c-0.2,2.8,1.6,5.9,3.3,6c1.6,0.1,1.8-2.3,3.9-2.8
	c3.5-0.9,7.2,4,8.3,3.2c0.7-0.6-0.9-2.6-0.1-5c0.6-2.1,2.6-2,3-3.5c0.5-2-1.8-4.9-4.4-5.9C39,15.6,35.5,17.6,34,18.5z"/>
<path id="DD:_Diffuser_98_" class="st4" d="M19.9,41.4c-0.3,2.5-0.7,5.6,1.3,8.1c3,3.6,9.4,3.6,10.4,1.8c0.6-1.1-1.1-2-0.7-3.8
	c0.6-3.2,6-3.9,5.8-5.6c-0.1-1.1-2.3-0.8-3.7-2.6c-1.8-2.3,0.1-4.8-1.4-6.6c-1.4-1.6-4.9-1.5-7.1-0.4C20.8,34.2,20.1,39,19.9,41.4z"
	/>
<path id="DD:_Diffuser_97_" class="st4" d="M32.5,68c-1.5-0.9-5.2-3-5.7-6.9c-0.6-4.7,3.8-9.2,5.6-8.8c0.9,0.3,0.9,1.8,2.5,2.3
	c1.4,0.4,2.4-0.7,3.2-0.1c0.9,0.6-0.2,2.3,0.6,3.7c1.2,2.3,5.5,0.7,6.9,2.6c1.4,2-0.5,7.1-4.3,8.8C37.7,71.1,34.1,69,32.5,68z"/>
<path id="DD:_Diffuser_96_" class="st4" d="M61.6,43.8c-0.3,1.1,3.1,2,3.8,4.8c0.5,2.3-1.4,3.8-0.7,4.8c1.2,1.7,7.8,0.5,9.2-3.2
	c0.6-1.6-0.4-2.1-0.5-5.4c-0.1-4.6,1.6-5.9,0.6-7.9c-1.3-2.6-5.6-3.5-6.5-2.3c-0.4,0.6,1,1.6,1,3.6c-0.1,2.2-2,3.7-2.2,3.9
	C64.1,43.7,61.9,42.9,61.6,43.8z"/>
<path id="DD:_Diffuser_95_" class="st4" d="M59,71.2c2.7-0.7,7.3-3,7.9-7.2c0.4-3.4-1.8-7.3-3.6-7.3c-1,0-1.2,1.2-2.5,1.7
	c-3,0.8-6.3-4.7-7.6-3.9c-0.7,0.4,0.2,1.9-0.7,3.7c-0.9,1.9-2.4,1.6-3.2,3c-1.4,2.4,0.2,7.7,3.7,9.7C55.4,72.1,57.7,71.5,59,71.2z"
	/>
<path id="DD:_Diffuser_75_" class="st3" d="M75.7,52.7c2.3,1.9,9.6-3,9.3-9.3c-0.3-5.6-6.7-10-8.9-8.2
	C74.1,36.8,73.8,51.1,75.7,52.7z"/>
<path id="DD:_Diffuser_74_" class="st3" d="M67.2,66c-0.2-1,2.1-1.5,2.6-3.8c0.6-2.5-1.7-4.2-0.9-5.2c0.8-1.2,4.2-0.9,6.4,0.8
	c2.5,2,3.7,6,2,8.4C74.8,69.8,67.5,67.7,67.2,66z"/>
<path id="DD:_Diffuser_73_" class="st3" d="M47.4,69.4c-1.1-0.1-2.5,1.3-2.8,2.7c-0.8,3.5,4.2,9.5,9.6,9.3
	c7.1-0.1,10.6-10.4,9.6-11.2c-0.4-0.4-2,1.4-6.2,2.7c-2.6,0.8-4.7,1.4-6.5,0.5C48.9,72.3,49,69.5,47.4,69.4z"/>
<path id="DD:_Diffuser_72_" class="st3" d="M36.7,71.6c-2.5-0.7-2.9-2.1-4.1-1.9c-2.1,0.4-4.5,5.5-2.4,9c1.5,2.5,4.5,2.9,4.7,3
	c3.1,0.3,5.8-1.7,6.8-4.1c0.8-1.6,1.1-4.3-0.2-5.5C40.5,71.2,39.3,72.3,36.7,71.6z"/>
<path id="DD:_Diffuser_71_" class="st3" d="M24.9,56.4c-0.6-2.1-3.2-3.9-5.5-3.8c-3.5,0.1-5.4,3.9-5.9,6.4c-0.7,3.5,1.1,6.8,3.3,8.6
	c4.5,3.7,11.7,2,12.1,0.3c0.3-1.4-4.4-2.1-5-5.5C23.4,59.8,25.6,58.7,24.9,56.4z"/>
<path id="DD:_Diffuser_70_" class="st3" d="M27,29.7c-0.8,0.9-2.6-0.4-4.5,0.6c-2.3,1.3-1.6,4.5-3.2,4.9c-1.6,0.4-4-2.6-5-5.4
	C14,29,12.6,25.5,14.6,22c0.3-0.4,1.8-3.2,5.1-4.1c1.9-0.5,3.5-0.2,4.9,0.1c1.1,0.3,4.2,0.9,4.3,2.2c0.1,1.1-2.3,1.3-3.1,3.2
	C24.9,25.9,27.9,28.5,27,29.7z"/>
<path id="DD:_Diffuser_69_" class="st3" d="M36.4,15.7c-2.8,0.9-3.3,2.2-4.5,1.9c-1.9-0.4-3.5-4-2.5-7c0.9-2.6,3.5-3.7,3.8-3.8
	c0.2-0.1,3.4-1.1,6,0.9c2.3,1.9,3.1,5.6,1.8,7C40.2,15.5,39.2,14.8,36.4,15.7z"/>
<path id="DD:_Diffuser_68_" class="st3" d="M48.2,17.6c-1.2-0.3-1.9-2-2-3.2c-0.2-3.2,3.5-6.8,7.2-7.1C60,6.8,64.3,17,63.3,18
	c-0.9,0.8-5.7-4.8-10.1-3.2C50.8,15.6,49.8,18,48.2,17.6z"/>
<ellipse id="DD:_Diffuser_57_" class="st4" cx="69.7" cy="18" rx="2" ry="2.3"/>
<ellipse id="DD:_Diffuser_56_" class="st4" cx="74.3" cy="26.1" rx="2" ry="2.3"/>
<ellipse id="DD:_Diffuser_55_" class="st4" cx="81.7" cy="30.5" rx="2" ry="2.3"/>
<rect id="NLED:_led" x="41.5" y="34.4" class="st5" width="14.2" height="14.2"/>
<rect id="MC:_micro" x="45.7" y="38.1" class="st5" width="5.5" height="3.1"/>
</svg>
