<?xml version="1.0" encoding="utf-8"?>
<!-- Generator: Adobe Illustrator 19.2.1, SVG Export Plug-In . SVG Version: 6.00 Build 0)  -->
<svg version="1.1" id="ELD:_Hungry_Hippo" xmlns="http://www.w3.org/2000/svg" xmlns:xlink="http://www.w3.org/1999/xlink" x="0px"
	 y="0px" viewBox="0 0 541 281.9" style="enable-background:new 0 0 541 281.9;" xml:space="preserve">
<style type="text/css">
	.st0{fill:#EAE2D0;}
	.st1{opacity:0.2;fill:none;stroke:#2920EF;stroke-miterlimit:10;enable-background:new    ;}
	.st2{opacity:0.93;}
	.st3{opacity:0.69;fill:#212121;enable-background:new    ;}
	.st4{opacity:0.69;fill:#020202;enable-background:new    ;}
	.st5{fill:#ED2224;}
	.st6{fill:none;stroke:#FF321D;stroke-width:11;stroke-linecap:round;stroke-miterlimit:10;}
	.st7{fill:none;stroke:#F9FF00;stroke-width:11;stroke-linecap:round;stroke-miterlimit:10;}
	.st8{fill:none;stroke:#191900;stroke-width:11;stroke-linecap:round;stroke-miterlimit:10;}
	.st9{fill:url(#BASE:_asd_1_);stroke:#000000;stroke-width:2;stroke-miterlimit:10;}
	.st10{fill:#414042;stroke:#000000;stroke-width:2;stroke-miterlimit:10;}
	.st11{fill:url(#SVGID_1_);stroke:#000000;stroke-width:2;stroke-miterlimit:10;}
	.st12{fill:none;stroke:#58595B;stroke-width:2;stroke-miterlimit:10;}
	.st13{fill:none;stroke:#000000;stroke-width:2;stroke-miterlimit:10;}
	.st14{fill:#4C4C4C;stroke:#191900;stroke-width:2;stroke-linecap:round;stroke-miterlimit:10;}
	.st15{fill:none;stroke:#FFF800;stroke-width:2;stroke-linecap:round;stroke-miterlimit:10;}
</style>
<path class="st0" d="M387.5,245h-363C15.4,245,8,237.6,8,228.5v-195C8,24.4,15.4,17,24.5,17h362.9c9.1,0,16.5,7.4,16.5,16.5v194.9
	C404,237.6,396.6,245,387.5,245z"/>
<line class="st1" x1="183.5" y1="94.1" x2="205.3" y2="247.3"/>
<line class="st1" x1="183.5" y1="94.1" x2="404" y2="59.7"/>
<line class="st1" x1="183.5" y1="94.1" x2="406.2" y2="224.7"/>
<g id="DEVICE:_x7B__x27_id_x27_:0_x7D_" class="st2">
	<g id="STEPPER:_my_stepper">
		<path id="ARM:_HIPPO" class="st3" d="M102.6,182.3c23.5,36.9,47.8,34.1,82.5,41.4c1.2,0.2,2.2,0.3,3.2,0.3
			c19.3,6.2,47.9,11.8,67.8,0.5c13.8-7.8,18.9-13.7,17.5-19.4c-1.4-6.1-9.2-7.2-12.4-7.5c-1-0.3-1.9-0.7-2.8-1.1
			c0.5-1.6,1.1-3.6,1.7-6.2c1.4-5.6,2.7-13.2,2.9-20.8c0.2-3.8-0.1-7.7-0.6-11.1c-0.4-1.7-0.6-3.5-1-5c-0.5-1.6-0.9-3-1.4-4.4
			c-0.6-1.2-1.2-2.4-1.6-3.4c-0.5-1-1.2-1.8-1.6-2.5c-0.9-1.3-1.3-2-1.3-2s0.1,0.8,0.4,2.4c0.2,0.7,0.4,1.6,0.4,2.6
			c0.1,1.1,0.1,2.3,0.1,3.5l-0.4,4c-0.3,1.4-0.7,2.8-1,4.3c-1,3-2,6-3.5,8.9c-2.8,5.8-6.5,11.1-9.5,14.9c-1.4,1.9-2.7,3.4-3.6,4.4
			v0.1c-9.1-6.4-15.6-14.3-19.1-23.7c-8.9-23.3-3.6-36.7,1.3-47.1c-8.8-0.4-11.1-11.6-17.9-8l0.4-13.8c0.2-10.5-7.8-19.1-18.3-19.3
			s-19,7.9-19.3,18.3l-0.5,17.1c-21.8-21.9-48-30.8-65.2-19.8C77.9,104,79.2,145.3,102.6,182.3z"/>
		<path id="BASE:_Hippo" class="st4" d="M73.1,58.6l-5.3,134.3L174,207.6c12,2.4,21.4-1.4,25.8-3.7c-11.5-18.6,8.2-117.4,66.3-109.1
			c20.7,15.8,41,10.4,50.9,7.7c6.2-1.6,12-7.7,15.4-15.8c3.2-7.9,6.8-24.6-6.3-46.8c-6.8-11.9-14.4-17.8-22.5-17.8
			c-8.2,0-13.9,6.1-16.4,9.4l-59.7,8.7c-4.9-5.6-17.4-18.1-27.5-17.3c-9.4,0.8-17,12.5-20.4,19.1c-2.9-0.8-7-1.9-10.9-2.7
			c-0.8-6.1-2-10.7-6-11.9c-2.6-0.7-5.5-0.4-8.4,1l-0.5,0.2c-5.5,2.8-12.4,6.2-15.1,19.7c-0.1,0.4-0.1,0.8-0.1,1.2
			c-5.5,4.2-10.1,8.1-10.3,8.2L73.1,58.6z M194.6,57.8c2.4-12.3,20.9-8.6,18.4,3.7C210.6,73.8,192,70.1,194.6,57.8z"/>
		
			<ellipse id="PIVOT:_MAIN" transform="matrix(0.1953 -0.9807 0.9807 0.1953 55.6263 258.5526)" class="st5" cx="185.4" cy="95.4" rx="9.8" ry="9.8"/>
	</g>
	<g id="STEPPER:_Other">
		<polyline id="WIRE_2_" class="st6" points="464.2,101.1 464.2,144.4 432,183.9 		"/>
		<polyline id="WIRE_1_" class="st7" points="475.2,101.1 475.2,144.4 458,186.9 		"/>
		<polyline id="WIRE" class="st8" points="486.3,101.1 486.3,145.4 479.5,189 		"/>
		
			<linearGradient id="BASE:_asd_1_" gradientUnits="userSpaceOnUse" x1="402.5702" y1="-391.6239" x2="460.5279" y2="-433.0893" gradientTransform="matrix(0.9951 -9.901447e-02 -9.901447e-02 -0.9951 10.228 -295.0762)">
			<stop  offset="5.618000e-03" style="stop-color:#85878D"/>
			<stop  offset="0.5281" style="stop-color:#979899"/>
			<stop  offset="1" style="stop-color:#5D5C62"/>
		</linearGradient>
		<circle id="BASE:_asd" class="st9" cx="474.7" cy="69.2" r="35.7"/>
		<path id="ARM:_arm" class="st10" d="M479.2,137.4l6.9-0.9c1.8-0.2,7-2.5,6.7-4.3l-11.1-59.5l-13.3,1.6l1,61.3
			C469.5,137.6,477.4,137.7,479.2,137.4z M473.5,98.5c0-2.2,1.8-4.1,4-4.1s4.1,1.8,4.1,4s-1.8,4.1-4,4.1S473.6,100.7,473.5,98.5z
			 M474,111.6c0-2.2,1.8-4.1,4-4.1s4.1,1.8,4.1,4s-1.8,4.1-4,4.1S474,113.8,474,111.6z M475.7,124.9c0-2.2,1.8-4.1,4-4.1
			s4.1,1.8,4.1,4s-1.8,4.1-4,4.1C477.6,129,475.7,127.1,475.7,124.9z"/>
		<circle id="PIVOT:_alsd" class="st0" cx="474.5" cy="69.7" r="6"/>
		<g id="nut">
			
				<radialGradient id="SVGID_1_" cx="426.1156" cy="-408.5001" r="8.2385" gradientTransform="matrix(0.9951 -9.901447e-02 -9.901447e-02 -0.9951 10.228 -295.0762)" gradientUnits="userSpaceOnUse">
				<stop  offset="0" style="stop-color:#E5E2DF"/>
				<stop  offset="0" style="stop-color:#F7F6F5"/>
				<stop  offset="0" style="stop-color:#FFFFFF"/>
				<stop  offset="0.1232" style="stop-color:#ECEDED"/>
				<stop  offset="0.3585" style="stop-color:#C8C9CA"/>
				<stop  offset="0.5225" style="stop-color:#ADAEB0"/>
				<stop  offset="0.6004" style="stop-color:#A2A4A6"/>
				<stop  offset="0.7316" style="stop-color:#868C8E"/>
				<stop  offset="0.8989" style="stop-color:#5F686B"/>
				<stop  offset="1" style="stop-color:#465053"/>
			</radialGradient>
			<circle class="st11" cx="474.7" cy="69.2" r="8.2"/>
			<line class="st12" x1="468.6" y1="63.7" x2="480.5" y2="75"/>
			<line class="st12" x1="469.7" y1="75.5" x2="479.7" y2="63.2"/>
			
				<ellipse transform="matrix(0.9951 -9.901171e-02 9.901171e-02 0.9951 -4.5104 47.3212)" class="st13" cx="474.5" cy="69.1" rx="8.2" ry="8.2"/>
		</g>
	</g>
	<g id="HUB">
		<rect id="HUB3" x="424" y="214.6" class="st14" width="22.5" height="61"/>
		<rect id="HUB2" x="446.8" y="214.5" class="st14" width="22.5" height="61"/>
		<rect id="HUB1" x="469.6" y="214.6" class="st14" width="22.5" height="61"/>
		<line id="CP" class="st15" x1="415.5" y1="244.9" x2="518.5" y2="244.9"/>
	</g>
</g>
</svg>
