<?xml version="1.0" encoding="utf-8"?>
<!-- Generator: Adobe Illustrator 19.2.1, SVG Export Plug-In . SVG Version: 6.00 Build 0)  -->
<svg version="1.1" id="ELD:_Hungry_Hippo" xmlns="http://www.w3.org/2000/svg" xmlns:xlink="http://www.w3.org/1999/xlink" x="0px"
	 y="0px" viewBox="0 0 541 263" style="enable-background:new 0 0 541 263;" xml:space="preserve">
<style type="text/css">
	.st0{fill:#EAE2D0;}
	.st1{opacity:0.2;fill:none;stroke:#2920EF;stroke-miterlimit:10;enable-background:new    ;}
	.st2{opacity:0.93;}
	.st3{opacity:0.69;fill:#212121;enable-background:new    ;}
	.st4{opacity:0.69;fill:#020202;enable-background:new    ;}
	.st5{fill:#ED2224;}
	.st6{fill:url(#BASE:_asd_1_);stroke:#000000;stroke-width:2;stroke-miterlimit:10;}
	.st7{fill:#414042;stroke:#000000;stroke-width:2;stroke-miterlimit:10;}
	.st8{fill:url(#SVGID_1_);stroke:#000000;stroke-width:2;stroke-miterlimit:10;}
	.st9{fill:none;stroke:#58595B;stroke-width:2;stroke-miterlimit:10;}
	.st10{fill:none;stroke:#000000;stroke-width:2;stroke-miterlimit:10;}
</style>
<path class="st0" d="M387.5,245h-363C15.4,245,8,237.6,8,228.5v-195C8,24.4,15.4,17,24.5,17h362.9c9.1,0,16.5,7.4,16.5,16.5v194.9
	C404,237.6,396.6,245,387.5,245z"/>
<line class="st1" x1="183.5" y1="94.1" x2="205.3" y2="247.3"/>
<line class="st1" x1="183.5" y1="94.1" x2="404" y2="59.7"/>
<line class="st1" x1="183.5" y1="94.1" x2="406.2" y2="224.7"/>
<g id="DEVICE:_x7B__x27_id_x27_:0_x7D_" class="st2">
	<g id="STEPPER:_my_stepper">
		<path id="ARM:_HIPPO" class="st3" d="M102.6,182.3c23.5,36.9,47.8,34.1,82.5,41.4c1.2,0.2,2.2,0.3,3.2,0.3
			c19.3,6.2,47.9,11.8,67.8,0.5c13.8-7.8,18.9-13.7,17.5-19.4c-1.4-6.1-9.2-7.2-12.4-7.5c-1-0.3-1.9-0.7-2.8-1.1
			c0.5-1.6,1.1-3.6,1.7-6.2c1.4-5.6,2.7-13.2,2.9-20.8c0.2-3.8-0.1-7.7-0.6-11.1c-0.4-1.7-0.6-3.5-1-5c-0.5-1.6-0.9-3-1.4-4.4
			c-0.6-1.2-1.2-2.4-1.6-3.4c-0.5-1-1.2-1.8-1.6-2.5c-0.9-1.3-1.3-2-1.3-2s0.1,0.8,0.4,2.4c0.2,0.7,0.4,1.6,0.4,2.6
			c0.1,1.1,0.1,2.3,0.1,3.5l-0.4,4c-0.3,1.4-0.7,2.8-1,4.3c-1,3-2,6-3.5,8.9c-2.8,5.8-6.5,11.1-9.5,14.9c-1.4,1.9-2.7,3.4-3.6,4.4
			v0.1c-9.1-6.4-15.6-14.3-19.1-23.7c-8.9-23.3-3.6-36.7,1.3-47.1c-8.8-0.4-11.1-11.6-17.9-8l0.4-13.8c0.2-10.5-7.8-19.1-18.3-19.3
			s-19,7.9-19.3,18.3l-0.5,17.1c-21.8-21.9-48-30.8-65.2-19.8C77.9,104,79.2,145.3,102.6,182.3z"/>
		<path id="BASE:_Hippo" class="st4" d="M73.1,58.6l-5.3,134.3L174,207.6c12,2.4,21.4-1.4,25.8-3.7c-11.5-18.6,8.2-117.4,66.3-109.1
			c20.7,15.8,41,10.4,50.9,7.7c6.2-1.6,12-7.7,15.4-15.8c3.2-7.9,6.8-24.6-6.3-46.8c-6.8-11.9-14.4-17.8-22.5-17.8
			c-8.2,0-13.9,6.1-16.4,9.4l-59.7,8.7c-4.9-5.6-17.4-18.1-27.5-17.3c-9.4,0.8-17,12.5-20.4,19.1c-2.9-0.8-7-1.9-10.9-2.7
			c-0.8-6.1-2-10.7-6-11.9c-2.6-0.7-5.5-0.4-8.4,1l-0.5,0.2c-5.5,2.8-12.4,6.2-15.1,19.7c-0.1,0.4-0.1,0.8-0.1,1.2
			c-5.5,4.2-10.1,8.1-10.3,8.2L73.1,58.6z M194.6,57.8c2.4-12.3,20.9-8.6,18.4,3.7C210.6,73.8,192,70.1,194.6,57.8z"/>
		
			<ellipse id="PIVOT:_MAIN" transform="matrix(0.1953 -0.9807 0.9807 0.1953 55.6051 258.5684)" class="st5" cx="185.4" cy="95.4" rx="9.8" ry="9.8"/>
	</g>
	<g id="STEPPER:_Other">
		
			<linearGradient id="BASE:_asd_1_" gradientUnits="userSpaceOnUse" x1="418.0203" y1="727.306" x2="475.978" y2="768.7714" gradientTransform="matrix(0.9951 -9.901447e-02 9.901447e-02 0.9951 -44.3838 -553.5837)">
			<stop  offset="5.618000e-03" style="stop-color:#85878D"/>
			<stop  offset="0.5281" style="stop-color:#979899"/>
			<stop  offset="1" style="stop-color:#5D5C62"/>
		</linearGradient>
		<circle id="BASE:_asd" class="st6" cx="468.7" cy="143.2" r="35.7"/>
		<path id="ARM:_arm" class="st7" d="M473.2,211.4l6.9-0.9c1.8-0.2,7-2.5,6.7-4.3l-11.1-59.5l-13.3,1.6l1,61.3
			C463.5,211.6,471.4,211.7,473.2,211.4z M467.5,172.5c0-2.2,1.8-4.1,4-4.1s4.1,1.8,4.1,4s-1.8,4.1-4,4.1S467.6,174.7,467.5,172.5z
			 M468,185.6c0-2.2,1.8-4.1,4-4.1s4.1,1.8,4.1,4s-1.8,4.1-4,4.1S468,187.8,468,185.6z M469.7,198.9c0-2.2,1.8-4.1,4-4.1
			s4.1,1.8,4.1,4s-1.8,4.1-4,4.1C471.6,203,469.7,201.1,469.7,198.9z"/>
		<circle id="PIVOT:_alsd" class="st0" cx="468.5" cy="143.7" r="6"/>
		<g id="nut">
			
				<radialGradient id="SVGID_1_" cx="441.5657" cy="744.1822" r="8.2385" gradientTransform="matrix(0.9951 -9.901447e-02 9.901447e-02 0.9951 -44.3838 -553.5837)" gradientUnits="userSpaceOnUse">
				<stop  offset="0" style="stop-color:#E5E2DF"/>
				<stop  offset="0" style="stop-color:#F7F6F5"/>
				<stop  offset="0" style="stop-color:#FFFFFF"/>
				<stop  offset="0.1232" style="stop-color:#ECEDED"/>
				<stop  offset="0.3585" style="stop-color:#C8C9CA"/>
				<stop  offset="0.5225" style="stop-color:#ADAEB0"/>
				<stop  offset="0.6004" style="stop-color:#A2A4A6"/>
				<stop  offset="0.7316" style="stop-color:#868C8E"/>
				<stop  offset="0.8989" style="stop-color:#5F686B"/>
				<stop  offset="1" style="stop-color:#465053"/>
			</radialGradient>
			<circle class="st8" cx="468.7" cy="143.2" r="8.2"/>
			<line class="st9" x1="462.6" y1="137.7" x2="474.5" y2="149"/>
			<line class="st9" x1="463.7" y1="149.5" x2="473.7" y2="137.2"/>
			
				<ellipse transform="matrix(0.9951 -9.901308e-02 9.901308e-02 0.9951 -11.8669 47.0916)" class="st10" cx="468.5" cy="143.1" rx="8.2" ry="8.2"/>
		</g>
	</g>
</g>
</svg>
