<?xml version="1.0" encoding="utf-8"?>
<!-- Generator: Adobe Illustrator 19.2.1, SVG Export Plug-In . SVG Version: 6.00 Build 0)  -->
<svg version="1.1" id="ELD:_Hungry_Hippo" xmlns="http://www.w3.org/2000/svg" xmlns:xlink="http://www.w3.org/1999/xlink" x="0px"
	 y="0px" viewBox="0 0 265 222" style="enable-background:new 0 0 265 222;" xml:space="preserve">
<style type="text/css">
	.st0{fill:#020202;}
	.st1{fill:#ED2224;}
	.st2{fill:#FFF200;}
	.st3{fill:none;stroke:#FFF200;stroke-miterlimit:10;}
</style>
<g id="DEVICE:_x7B__x27_id_x27_:0_x7D_">
	<g id="STEPPER:_my_stepper">
		<path id="BASE:_Hippo" class="st0" d="M0,81.1l21,132.8l107-6.3c12.2,0,20.7-5.5,24.6-8.7c-14.9-16-14.9-116.7,43.7-119.9
			c23.4,11.4,42.2,2.2,51.4-2.4c5.8-2.8,10.3-9.9,12-18.5c1.6-8.4,1.9-25.5-15.3-44.7c-9-10.3-17.6-14.6-25.6-13.1
			c-8,1.6-12.4,8.7-14.3,12.4l-56.9,20.2c-5.9-4.5-20.6-14.4-30.3-11.6c-9.1,2.6-14.2,15.6-16.3,22.7c-3-0.2-7.2-0.5-11.2-0.5
			c-2-5.8-4.1-10.1-8.2-10.5c-2.7-0.2-5.5,0.7-8,2.6l-0.4,0.3c-4.9,3.8-11,8.5-11,22.3c0,0.4,0.1,0.8,0.1,1.2
			c-4.6,5.2-8.3,9.9-8.5,10.1L0,81.1z M119,56.6c0-12.5,18.8-12.5,18.8,0C137.8,69.2,118.9,69.2,119,56.6z"/>
		<path id="ARM:_HIPPO" class="st0" d="M53.1,196.7c30.3,31.6,53.5,24.1,89,24.5c1.2,0,2.2-0.1,3.2-0.3c20.1,2.3,49.3,2.2,66.6-12.8
			c12-10.3,15.9-17.1,13.4-22.5c-2.6-5.7-10.4-5.3-13.6-4.9c-1-0.1-2-0.3-3-0.5c0.2-1.7,0.4-3.8,0.5-6.4c0.3-5.8,0.1-13.5-1.2-21
			c-0.6-3.8-1.6-7.5-2.8-10.8c-0.7-1.6-1.3-3.3-2-4.7c-0.8-1.5-1.5-2.8-2.2-4c-0.8-1.1-1.6-2.1-2.2-3c-0.7-0.9-1.5-1.5-2-2.1
			c-1.1-1.1-1.7-1.7-1.7-1.7s0.3,0.8,0.9,2.3c0.3,0.7,0.7,1.5,0.9,2.5c0.3,1.1,0.5,2.2,0.8,3.4l0.4,4c0,1.4-0.1,2.9-0.1,4.4
			c-0.4,3.1-0.8,6.3-1.7,9.4c-1.6,6.2-4.2,12.2-6.4,16.5c-1,2.1-2,3.9-2.7,5v0.1c-10.2-4.5-18.1-11-23.4-19.5
			c-13.3-21.1-10.7-35.3-7.9-46.5c-8.7,1.3-13.2-9.2-19.1-4.4l-2.3-13.6c-1.8-10.3-11.4-17.2-21.7-15.4S95.7,86.2,97.4,96.4
			l2.9,16.9c-25.7-17.2-53.1-20.8-67.8-6.7C13.6,124.7,22.9,165,53.1,196.7z"/>
		<circle id="PIVOT:_MAIN" class="st1" cx="117.3" cy="95.3" r="9.8"/>
	</g>
	<rect id="BI:_in" x="22.7" y="27.6" class="st2" width="19.6" height="19.6"/>
	<path id="CP:_ordering" class="st3" d="M340.1,161.2c-164.6,0-297.8-51-297.8-114"/>
</g>
</svg>
