<?xml version="1.0" encoding="utf-8"?>
<!-- Generator: Adobe Illustrator 19.2.1, SVG Export Plug-In . SVG Version: 6.00 Build 0)  -->
<svg version="1.1" id="ELD:_Hungry_Hippo" xmlns="http://www.w3.org/2000/svg" xmlns:xlink="http://www.w3.org/1999/xlink" x="0px"
	 y="0px" viewBox="0 0 260.4 221.9" style="enable-background:new 0 0 260.4 221.9;" xml:space="preserve">
<style type="text/css">
	.st0{fill:#020202;}
	.st1{fill:#ED2224;}
	.st2{fill:#FFF200;}
	.st3{fill:none;stroke:#FFF200;stroke-miterlimit:10;}
</style>
<g id="DEVICE:_x7B__x27_id_x27_:0_x7D_">
	<g id="STEPPER:_my_stepper">
		<path id="BASE:_Hippo" class="st0" d="M206.6,69.5c-0.2-0.2-3.9-4.9-8.5-10.1c0-0.4,0.1-0.8,0.1-1.2c0-13.8-6.1-18.5-11-22.3
			l-0.4-0.3c-2.5-1.9-5.3-2.8-8-2.6c-4.1,0.4-6.2,4.7-8.2,10.5c-4,0-8.2,0.3-11.2,0.5c-2.1-7.1-7.2-20.1-16.3-22.7
			c-9.7-2.8-24.4,7.1-30.3,11.6L55.9,12.7C54,9,49.6,1.9,41.6,0.3c-8-1.5-16.6,2.8-25.6,13.1C-1.2,32.6-0.9,49.7,0.7,58.1
			c1.7,8.6,6.2,15.7,12,18.5c9.2,4.6,28,13.8,51.4,2.4c58.6,3.2,58.6,103.9,43.7,119.9c3.9,3.2,12.4,8.7,24.6,8.7l107,6.3l21-132.8
			L206.6,69.5z M122.6,56.6c0-12.5,18.8-12.5,18.8,0C141.5,69.2,122.6,69.2,122.6,56.6z"/>
		<path id="ARM:_HIPPO" class="st0" d="M227.9,106.6c-14.7-14.1-42.1-10.5-67.8,6.7l2.9-16.9c1.7-10.2-5.1-19.9-15.4-21.7
			s-19.9,5.1-21.7,15.4l-2.3,13.6c-5.9-4.8-10.4,5.7-19.1,4.4c2.8,11.2,5.4,25.4-7.9,46.5c-5.3,8.5-13.2,15-23.4,19.5
			c0,0,0-0.1,0-0.1c-0.7-1.1-1.7-2.9-2.7-5c-2.2-4.3-4.8-10.3-6.4-16.5c-0.9-3.1-1.3-6.3-1.7-9.4c0-1.5-0.1-3-0.1-4.4l0.4-4
			c0.3-1.2,0.5-2.3,0.8-3.4c0.2-1,0.6-1.8,0.9-2.5c0.6-1.5,0.9-2.3,0.9-2.3s-0.6,0.6-1.7,1.7c-0.5,0.6-1.3,1.2-2,2.1
			c-0.6,0.9-1.4,1.9-2.2,3c-0.7,1.2-1.4,2.5-2.2,4c-0.7,1.4-1.3,3.1-2,4.7c-1.2,3.3-2.2,7-2.8,10.8c-1.3,7.5-1.5,15.2-1.2,21
			c0.1,2.6,0.3,4.7,0.5,6.4c-1,0.2-2,0.4-3,0.5c-3.2-0.4-11-0.8-13.6,4.9c-2.5,5.4,1.4,12.2,13.4,22.5c17.3,15,46.5,15.1,66.6,12.8
			c1,0.2,2,0.3,3.2,0.3c35.5-0.4,58.7,7.1,89-24.5C237.5,165,246.8,124.7,227.9,106.6z"/>
		<circle id="PIVOT:_MAIN" class="st1" cx="143.1" cy="95.3" r="9.8"/>
	</g>
	<rect id="BI:_in" x="218.1" y="27.6" class="st2" width="19.6" height="19.6"/>
	<path id="CP:_ordering" class="st3" d="M218.1,47.2c0,63-133.2,114-297.8,114"/>
</g>
</svg>
