<?xml version="1.0" encoding="utf-8"?>
<!-- Generator: Adobe Illustrator 19.2.1, SVG Export Plug-In . SVG Version: 6.00 Build 0)  -->
<svg version="1.1" id="ELD:_Map" xmlns="http://www.w3.org/2000/svg" xmlns:xlink="http://www.w3.org/1999/xlink" x="0px" y="0px"
	 viewBox="0 0 329.1 329.1" style="enable-background:new 0 0 329.1 329.1;" xml:space="preserve">
<style type="text/css">
	.st0{fill:none;stroke:#000000;stroke-miterlimit:10;}
</style>
<g id="BASE:_x5F_Base_x5F_path_1">
	<rect x="0.5" y="0.5" class="st0" width="328.1" height="328.1"/>
</g>
<path id="DDS:_diff_4_" class="st0" d="M306.6,211.6l-49.8-27.3c0,0-26.9-21.2-3.9-46.3l53.8-13.3L306.6,211.6L306.6,211.6z"/>
<polygon id="DDS:_Diff" class="st0" points="274.2,207.2 245.3,255 273.1,272.9 302.6,223.4 "/>
<polygon id="DDS:_dsida" class="st0" points="127.6,42.9 34.2,100.2 23.1,95.1 23.1,73.9 101.3,23.1 116.2,23.1 "/>
<polygon id="DDS:_fid" class="st0" points="74,124.6 38.8,105.6 74,84.6 92.2,112.8 "/>
<path id="DDS:_dif_1_" class="st0" d="M179.1,306.6l21.9-17.7l-12.5-14.5l0.8-1.3l-12.8-9.2l-3.1,5.1c0,0-1.8,1.5-3.5,0.3l-7.7-4.4
	c0,0,0.8,14.4,3.5,18.6l1.7,0.5l2.7-1.2l2.3,2.6l-4.6,3.9l9.7,17.3L179.1,306.6L179.1,306.6z"/>
<path id="DDS:_Dif_2_" class="st0" d="M242.5,253.4l12.9-19.8L236.3,222l5-8.6l17.7,11.4l9.2-14.4l-12.3-7.5l-1.9,2.8l-6.5-3.9
	l1.8-3.5l-13.5-4.3l-3.1,4.3l-11.3-5.2c0,0-19.7-6.6-42.3,22.4L242.5,253.4z"/>
<path id="DDS:_Dif_1_" class="st0" d="M106.4,239.2c11.7,9.1,28.8,11.3,28.8,11.3l27.5-48.2c-3.2-14.2-15.9-19.1-15.9-19.1
	l-11.7-12.3l-30.8-14.6l-30.4,67L106.4,239.2z"/>
<path id="DDS:_DIf" class="st0" d="M157,306.6l-23.3-48.7c0,0-12.8,0.4-15.4-2.8l-29.7,51.6L157,306.6L157,306.6z"/>
<polygon id="DDS:_Dif" class="st0" points="84.8,306.6 116.6,254.2 23.1,207.2 23.1,306.8 "/>
<path id="DDS:_dif" class="st0" d="M306.6,112.9l-55.2,11.8c0,0-16.8-15.3-19.7-21.9l-47.6-71.7l13.8-7.9h108.7V112.9z"/>
<path id="DDS:_diff_3_" class="st0" d="M220.2,118.8l-18.1-28.4l-24.6,15.4l-0.8-1.1l-6.7,4.2l-1.2,7.2l-6.1,3.4l1,1.5l-9.7,6.1
	l-5.6-8.6l10.8-7.2l-11.7-19.5l-31.3,19.3l0.1,0.2L92,126.4l-1,6l8.7,3.9l4.9-3.8c2.5-0.6,2.2,2.1,2.2,2.1l-4.3,3.2l9.7,4.6
	l16.9-11.1L141,150l3.2-2.2l9.8,14c3.7,1.9,14.6,0.5,14.6,0.5l47.5-29.8C223.7,127.5,220.2,118.8,220.2,118.8L220.2,118.8z"/>
<path id="DDS:_diff_2_" class="st0" d="M92.6,73.9l8.4,14.4l1.1-0.7l1.4,2.2l6.9-4l5.7,9.3l13.3-8.3L122.1,75l11.8-6.9l3,4.9
	l32.7-20.4c0,0-3.5-5,0.4-7.3l2.1-1.3l-13.6-20.9h-27.9l8.3,12.4c0,0,4.5-3,7,1.2l2.5,3.5l-16.3,10l-1.4-2.4l-12.4,7.7l1.1,1.6
	L92.6,73.9z"/>
<polygon id="DDS:_difff" class="st0" points="26.9,118.6 23.1,126.4 23.1,197.1 66.4,219.8 97.3,153.5 "/>
<polygon id="DDS:_diff_1_" class="st0" points="186.3,306.6 210,287.5 208,284.9 227.5,255 266.7,280.9 249.7,306.6 "/>
<polygon id="DDS:_diff" class="st0" points="207.7,248 209.8,245 204.7,241.5 206.2,239.2 201.5,236.1 192.6,229.8 192.8,229.5 
	190,227.9 190,227.9 190,227.9 174.2,218.9 167.7,229.5 162.2,255.8 196.2,272 210.1,249.5 "/>
<polygon id="NLED:_x5F__x7B__x22_colorID_x22_:_x5B_0.23137_x2C_0.09804_x2C_0.90196_x5D__x2C__x22_target_x22_:43_x2C__x22_forceTarget_x22_:33_x7D_" class="st0" points="
	213.6,222.9 213.6,208.7 227.8,208.7 227.8,222.9 "/>
<polygon id="NLED:_x5F__x7B__x22_colorID_x22_:_x5B_0.90196_x2C_0.09804_x2C_0.09804_x5D__x2C__x22_target_x22_:43_x2C__x22_forceTarget_x22_:38_x7D_" class="st0" points="
	174.2,123.1 174.2,108.9 188.4,108.9 188.4,123.1 "/>
<polygon id="NLED:_x5F__x7B__x22_colorID_x22_:_x5B_0.09804_x2C_0.89804_x2C_0.90196_x5D__x2C__x22_target_x22_:43_x2C__x22_forceTarget_x22_:39_x7D_" class="st0" points="
	129.7,64.3 129.7,50.1 143.9,50.1 143.9,64.3 "/>
<polygon id="NLED:_x5F__x7B__x22_colorID_x22_:_x5B_0.90196_x2C_0.63529_x2C_0.09804_x5D__x2C__x22_target_x22_:43_x2C__x22_forceTarget_x22_:30_x7D_" class="st0" points="
	70.1,61.8 70.1,47.6 84.3,47.6 84.3,61.8 "/>
<polygon id="NLED:_x5F__x7B__x22_colorID_x22_:_x5B_0.09804_x2C_0.90196_x2C_0.50196_x5D__x2C__x22_target_x22_:43_x2C__x22_forceTarget_x22_:31_x7D_" class="st0" points="
	63.4,114.7 63.4,100.5 77.6,100.5 77.6,114.7 "/>
<polygon id="NLED:_x5F__x7B__x22_colorID_x22_:_x5B_0.90196_x2C_0.09804_x2C_0.09804_x5D__x2C__x22_target_x22_:43_x2C__x22_forceTarget_x22_:40_x7D_" class="st0" points="
	41.6,178.4 41.6,164.3 55.8,164.3 55.8,178.4 "/>
<polygon id="NLED:_x5F__x7B__x22_colorID_x22_:_x5B_0.89804_x2C_0.90196_x2C_0.09804_x5D__x2C__x22_target_x22_:43_x2C__x22_forceTarget_x22_:34_x7D_" class="st0" points="
	109.6,211.2 109.6,197 123.8,197 123.8,211.2 "/>
<polygon id="NLED:_x5F__x7B__x22_colorID_x22_:_x5B_0.90196_x2C_0.09804_x2C_0.63137_x5D__x2C__x22_target_x22_:43_x2C__x22_forceTarget_x22_:37_x7D_" class="st0" points="
	247.2,66 247.2,51.8 261.4,51.8 261.4,66 "/>
<polygon id="NLED:_x5F__x7B__x22_colorID_x22_:_x5B_1_x2C_1_x2C_1_x5D__x2C__x22_target_x22_:43_x2C__x22_forceTarget_x22_:35_x7D_" class="st0" points="
	118.8,291.7 118.8,277.6 133,277.6 133,291.7 "/>
<polygon id="NLED:_x5F__x7B__x22_colorID_x22_:_x5B_0.09804_x2C_0.90196_x2C_0.36471_x5D__x2C__x22_target_x22_:43_x2C__x22_forceTarget_x22_:36_x7D_" class="st0" points="
	48.3,269.1 48.3,254.9 62.5,254.9 62.5,269.1 "/>
<polygon id="NLED:_x5F__x7B__x22_colorID_x22_:_x5B_0.90196_x2C_0.63529_x2C_0.09804_x5D__x2C__x22_target_x22_:43_x2C__x22_forceTarget_x22_:41_x7D_" class="st0" points="
	225.4,291.7 225.4,277.6 239.6,277.6 239.6,291.7 "/>
<polygon id="NLED:_x5F__x7B__x22_colorID_x22_:_x5B_1_x2C_1_x2C_1_x5D__x2C__x22_target_x22_:43_x2C__x22_forceTarget_x22_:32_x7D_" class="st0" points="
	173.4,291.7 173.4,277.6 187.5,277.6 187.5,291.7 "/>
<polygon id="NLED:_x5F__x7B__x22_colorID_x22_:_x5B_0.09804_x2C_0.90196_x2C_0.63529_x5D__x2C__x22_target_x22_:43_x2C__x22_forceTarget_x22_:42_x7D_" class="st0" points="
	180.1,248.9 180.1,234.8 194.2,234.8 194.2,248.9 "/>
<polygon id="NLED:_x5F__x7B__x22_colorID_x22_:_x5B_0.09804_x2C_0.90196_x2C_0.36471_x5D__x2C__x22_target_x22_:43_x2C__x22_forceTarget_x22_:28_x7D_" class="st0" points="
	277.4,175.9 277.4,161.8 291.6,161.8 291.6,175.9 "/>
<polygon id="NLED:_x5F__x7B__x22_colorID_x22_:_x5B_0.89804_x2C_0.90196_x2C_0.09804_x5D__x2C__x22_target_x22_:43_x2C__x22_forceTarget_x22_:29_x7D_" class="st0" points="
	266.5,243.9 266.5,229.7 280.7,229.7 280.7,243.9 "/>
<polygon id="NLED:_x5F__x7B__x22_colorID_x22_:_x5B_0.90196_x2C_0.23137_x2C_0.09804_x5D__x2C__x22_target_x22_:43_x2C__x22_forceTarget_x22_:38_x7D_" class="st0" points="
	133.9,117.2 133.9,103 148.1,103 148.1,117.2 "/>
<polygon id="BI:_Breakin" class="st0" points="293.5,313.4 291.2,313.4 289.7,313.4 285.2,313.4 283.7,313.4 279.2,313.4 
	273.2,313.4 273.2,324.5 277.3,324.5 279.2,324.5 283.7,324.5 285.2,324.5 289.7,324.5 291.2,324.5 293.5,324.5 295.7,324.5 
	295.7,313.4 "/>
<polyline id="CP:_circuit_x5F_path" class="st0" points="287.5,347.7 287.5,263.9 268.2,203.4 287.5,151.7 243.6,43 60.2,58.9 
	74,124.6 48.3,183.7 55.8,277.6 133,277.6 250.8,280.8 213.6,197 176.7,104.6 125.9,110.1 118.3,218.9 207.7,248 "/>
<rect id="MC:_microcontroller" x="157.1" y="315.7" class="st0" width="10.5" height="6"/>
<rect id="DIF:_diff" x="23.1" y="23.1" class="st0" width="283.6" height="283.6"/>
</svg>
