<?xml version="1.0" encoding="utf-8"?>
<!-- Generator: Adobe Illustrator 19.2.1, SVG Export Plug-In . SVG Version: 6.00 Build 0)  -->
<svg version="1.1" id="Layer_1" xmlns="http://www.w3.org/2000/svg" xmlns:xlink="http://www.w3.org/1999/xlink" x="0px" y="0px"
	 viewBox="0 0 1440 675" style="enable-background:new 0 0 1440 675;" xml:space="preserve">
<style type="text/css">
	.st0{display:none;fill:none;stroke:#000000;stroke-width:0.25;stroke-miterlimit:10;}
	.st1{display:none;fill:none;stroke:#EA1C1C;stroke-width:0.25;stroke-miterlimit:10;}
	.st2{display:none;fill:none;stroke:#000000;stroke-miterlimit:10;}
	.st3{fill:#DFDFDF;stroke:#000000;stroke-width:3;}
	.st4{opacity:0.5;fill:#DFDFDF;stroke:#000000;stroke-miterlimit:10;stroke-dasharray:2,1;enable-background:new    ;}
	.st5{fill:#3B19E6;stroke:#000000;stroke-miterlimit:10;}
	.st6{fill:#E61919;stroke:#000000;stroke-miterlimit:10;}
	.st7{fill:#19E5E6;stroke:#000000;stroke-miterlimit:10;}
	.st8{fill:#E6A219;stroke:#000000;stroke-miterlimit:10;}
	.st9{fill:#19E680;stroke:#000000;stroke-miterlimit:10;}
	.st10{fill:#E5E619;stroke:#000000;stroke-miterlimit:10;}
	.st11{fill:#E619A1;stroke:#000000;stroke-miterlimit:10;}
	.st12{fill:#FFFFFF;stroke:#000000;stroke-miterlimit:10;}
	.st13{fill:#19E65D;stroke:#000000;stroke-miterlimit:10;}
	.st14{fill:#19E6A2;stroke:#000000;stroke-miterlimit:10;}
	.st15{fill:#E63B19;stroke:#000000;stroke-miterlimit:10;}
	.st16{fill:none;stroke:#000000;stroke-miterlimit:10;}
</style>
<g transform="">
	<g>
		<g>
			<g id="Ornaments">
				<path class="st0" d="M726.2,439.6c0,0-25.1-47.3-25.1-51.2l42.4-71.9c0,0,52.8,5.8,63.8,11l50.8,28.8l-49.2,83.3L726.2,439.6z"
					/>
				<polygon class="st0" points="822.2,439.6 835.1,416.9 862.1,434.4 862.1,439.6 				"/>
				<polygon class="st0" points="862.1,424.1 839.3,409.5 862.1,373.1 				"/>
				<path class="st0" d="M753.4,306l37-26.8c0,0-6.7,15.5,2.5,32.1L753.4,306z"/>
				<path class="st0" d="M678.4,285.9c0,0,21,9,32.4,12c11.5,3,28.1,6.6,28.1,6.6s42.5-40.6,55.6-40.2c0,0-16.4-19.3-19.3-24.9
					c-2.9-5.5-54.9-83.2-54.9-83.2H578.6v80.5L678.4,285.9z"/>
				<path class="st0" d="M717,311.5l14.7,3.2l-5.6,8.4C726,323,719.2,311.9,717,311.5L717,311.5z"/>
				<polyline class="st0" points="578.6,236.6 578.6,202.6 651.1,156.1 720.3,156.1 				"/>
				<polygon class="st0" points="632.4,156.1 578.6,190.4 578.6,156.1 				"/>
				<polygon class="st1" points="723.2,362.5 729.7,351.9 748.3,362.5 744.8,368.9 747.3,370.2 744.9,374.5 				"/>
				<polygon class="st1" points="757,369.1 748.3,382.5 721.4,369.1 717.7,388.8 751.7,405 765.6,382.5 763.2,381 765.3,378 
					760.2,374.5 761.7,372.2 				"/>
				<polyline class="st2" points="862.1,439.6 578.6,439.6 578.6,156.1 862.1,156.1 				"/>
				<polygon class="st1" points="665.8,370.2 693.7,317.2 688.1,314.6 689,312.5 669.7,302.1 666.6,308.9 661.2,305.9 656.1,310.4 
					635.4,354 				"/>
				<polygon class="st1" points="620.5,347 635.4,317.6 613.1,306.9 598.2,335.4 				"/>
				<path class="st1" d="M634.6,314.2l4.6-8c0,0-3-1.8,1.1-5.1l6.2-13.6l-11.1-4.9l-0.9,2.1l-9.2-4.3l-11.4,24L634.6,314.2z"/>
				<path class="st1" d="M612.8,297.5l5.8-11.8c0,0,4.6-1,3.1-4.4s-5-2.1-5-2.1l-6.8-3.5l0.8-1.6l-14.1-7.2l-0.6,1.4l-6.6-3.1
					c0,0-1.4-4.7-4.5-3.6s-2.2,4.8-2.2,4.8l-4.1,8.1v51l9.6,3.9c0,0-0.8,2,2.4,3.3s3.9-1.1,3.9-1.1l7.7-14.4L581,306.5l2.5-4.4
					l6.4,3.5l6.8-12l-7.1-3.7l3-5.6l2.6,1.1l-0.7,1.3l16.2,8.7l-0.4,0.8L612.8,297.5z"/>
				<path class="st1" d="M667.6,275.4l-9.7-4.6l4.3-3.2c0,0,0.3-2.7-2.2-2.1l-4.9,3.8l-8.7-3.9l1-6l23.2-14.4l12.4,20.3L667.6,275.4
					z"/>
				<path class="st1" d="M671.7,244.1l31.2-19.2l11.7,19.3l-10.8,7.2l5.6,8.6l9.7-6.1l-1-1.5l6.1-3.4l1.2-7.2l6.7-4.2l0.8,1.1
					l24.7-15.4l18.1,28.4c0,0,3.4,8.7-4.1,13.6l-47.5,29.8c0,0-10.9,1.4-14.6-0.5l-9.8-14l-3.2,2.2L671.7,244.1z"/>
				<path class="st1" d="M773.1,204.9c0,0,16.8,33.3,77.3,30.1l11.6,0.2v-25.1l-7-17.9l7-2.4l-5.5-11.3l-11.8-22.3h-33.6l9.6,19.4
					l6.9-2.6l6.1,15.3l-7.3,2.3l3.1,7.2l-32-5.7L773.1,204.9z"/>
				<polygon class="st1" points="804.8,156.1 806.6,160.6 759.4,185.1 750.2,170.6 753.4,162.4 764.9,156.1 				"/>
				<polygon class="st1" points="678.4,429.5 674.7,407.5 683.2,405.9 687,428.2 				"/>
				<polygon class="st1" points="632.4,439.6 615.7,429.5 626.2,410.2 609.6,400.6 615.7,391.2 613.9,390 619.4,381.5 578.6,355.9 
					578.6,415.2 584.2,417.9 586.2,414.6 594,419.2 581.6,439.8 				"/>
			</g>
			<g id="Diffusers">
				<polygon id="BASE:_x5F_Base_x5F_path_1" points="556,133.4 884,133.4 884,461.5 556,461.5 				"/>
				<polygon id="DIF:_x5F_base_x5F_path_1" class="st3" points="578.6,439 578.6,156.1 861.4,156.1 861.4,439 				"/>
				<path id="DDS:_diff_4_" class="st4" d="M862.1,344.6l-49.8-27.3c0,0-26.9-21.2-3.9-46.3l53.8-13.3L862.1,344.6L862.1,344.6z"/>
				<polygon id="DDS:_Diff" class="st4" points="829.7,340.2 800.8,388 828.6,405.9 858.1,356.4 				"/>
				<polygon id="DDS:_dsida" class="st4" points="683.1,175.9 589.7,233.2 578.6,228.1 578.6,206.9 656.8,156.1 671.7,156.1 				"/>
				<polygon id="DDS:_fid" class="st4" points="629.5,257.6 594.3,238.6 629.5,217.6 647.7,245.8 				"/>
				<path id="DDS:_dif_1_" class="st4" d="M734.6,439.6l21.9-17.7L744,407.4l0.8-1.3l-12.8-9.2l-3.1,5.1c0,0-1.8,1.5-3.5,0.3
					l-7.7-4.4c0,0,0.8,14.4,3.5,18.6l1.7,0.5l2.7-1.2l2.3,2.6l-4.6,3.9l9.7,17.3L734.6,439.6L734.6,439.6z"/>
				<path id="DDS:_Dif_2_" class="st4" d="M798,386.4l12.9-19.8L791.8,355l5-8.6l17.7,11.4l9.2-14.4l-12.3-7.5l-1.9,2.8l-6.5-3.9
					l1.8-3.5l-13.5-4.3l-3.1,4.3l-11.3-5.2c0,0-19.7-6.6-42.3,22.4L798,386.4z"/>
				<path id="DDS:_Dif_1_" class="st4" d="M661.9,372.2c11.7,9.1,28.8,11.3,28.8,11.3l27.5-48.2c-3.2-14.2-15.9-19.1-15.9-19.1
					l-11.7-12.3l-30.8-14.6l-30.4,67L661.9,372.2z"/>
				<path id="DDS:_DIf" class="st4" d="M712.5,439.6l-23.3-48.7c0,0-12.8,0.4-15.4-2.8l-29.7,51.6h68.4V439.6z"/>
				<polygon id="DDS:_Dif" class="st4" points="640.3,439.6 672.1,387.2 578.6,340.2 578.6,439.8 				"/>
				<path id="DDS:_dif" class="st4" d="M862.1,245.9l-55.2,11.8c0,0-16.8-15.3-19.7-21.9l-47.6-71.7l13.8-7.9h108.7V245.9z"/>
				<path id="DDS:_diff_3_" class="st4" d="M775.7,251.8l-18.1-28.4L733,238.8l-0.8-1.1l-6.7,4.2l-1.2,7.2l-6.1,3.4l1,1.5l-9.7,6.1
					l-5.6-8.6l10.8-7.2L703,224.8l-31.3,19.3l0.1,0.2l-24.3,15.1l-1,6l8.7,3.9l4.9-3.8c2.5-0.6,2.2,2.1,2.2,2.1l-4.3,3.2l9.7,4.6
					l16.9-11.1l11.9,18.7l3.2-2.2l9.8,14c3.7,1.9,14.6,0.5,14.6,0.5l47.5-29.8C779.2,260.5,775.7,251.8,775.7,251.8L775.7,251.8z"/>
				<path id="DDS:_diff_2_" class="st4" d="M648.1,206.9l8.4,14.4l1.1-0.7l1.4,2.2l6.9-4l5.7,9.3l13.3-8.3l-7.3-11.8l11.8-6.9l3,4.9
					l32.7-20.4c0,0-3.5-5,0.4-7.3l2.1-1.3L714,156.1h-27.9l8.3,12.4c0,0,4.5-3,7,1.2l2.5,3.5l-16.3,10l-1.4-2.4l-12.4,7.7l1.1,1.6
					L648.1,206.9z"/>
				<polygon id="DDS:_difff" class="st4" points="582.4,251.6 578.6,259.4 578.6,330.1 621.9,352.8 652.8,286.5 				"/>
				<polygon id="DDS:_diff_1_" class="st4" points="741.8,439.6 765.5,420.5 763.5,417.9 783,388 822.2,413.9 805.2,439.6 				"/>
				<polygon id="DDS:_diff" class="st4" points="763.2,381 765.3,378 760.2,374.5 761.7,372.2 757,369.1 748.1,362.8 748.3,362.5 
					745.5,360.9 745.5,360.9 745.5,360.9 729.7,351.9 723.2,362.5 717.7,388.8 751.7,405 765.6,382.5 				"/>
			</g>
		</g>
		
			<polygon id="NLED:_x5F__x7B__x22_colorID_x22_:_x5B_0.23137_x2C_0.09804_x2C_0.90196_x5D__x2C__x22_forceTarget_x22_:33_x7D_" class="st5" points="
			768,353.9 768,339.7 782.2,339.7 782.2,353.9 		"/>
		
			<polygon id="NLED:_x5F__x7B__x22_colorID_x22_:_x5B_0.90196_x2C_0.09804_x2C_0.09804_x5D__x2C__x22_forceTarget_x22_:38_x7D_" class="st6" points="
			728.6,254.1 728.6,239.9 742.8,239.9 742.8,254.1 		"/>
		
			<polygon id="NLED:_x5F__x7B__x22_colorID_x22_:_x5B_0.09804_x2C_0.89804_x2C_0.90196_x5D__x2C__x22_forceTarget_x22_:39_x7D_" class="st7" points="
			684.1,195.3 684.1,181.1 698.3,181.1 698.3,195.3 		"/>
		
			<polygon id="NLED:_x5F__x7B__x22_colorID_x22_:_x5B_0.90196_x2C_0.63529_x2C_0.09804_x5D__x2C__x22_forceTarget_x22_:30_x7D_" class="st8" points="
			624.5,192.8 624.5,178.6 638.7,178.6 638.7,192.8 		"/>
		
			<polygon id="NLED:_x5F__x7B__x22_colorID_x22_:_x5B_0.09804_x2C_0.90196_x2C_0.50196_x5D__x2C__x22_forceTarget_x22_:31_x7D_" class="st9" points="
			617.8,245.7 617.8,231.5 632,231.5 632,245.7 		"/>
		
			<polygon id="NLED:_x5F__x7B__x22_colorID_x22_:_x5B_0.90196_x2C_0.09804_x2C_0.09804_x5D__x2C__x22_forceTarget_x22_:40_x7D_" class="st6" points="
			596,309.4 596,295.3 610.2,295.3 610.2,309.4 		"/>
		
			<polygon id="NLED:_x5F__x7B__x22_colorID_x22_:_x5B_0.89804_x2C_0.90196_x2C_0.09804_x5D__x2C__x22_forceTarget_x22_:34_x7D_" class="st10" points="
			664,342.2 664,328 678.1,328 678.1,342.2 		"/>
		
			<polygon id="NLED:_x5F__x7B__x22_colorID_x22_:_x5B_0.90196_x2C_0.09804_x2C_0.63137_x5D__x2C__x22_forceTarget_x22_:37_x7D_" class="st11" points="
			801.6,197 801.6,182.8 815.8,182.8 815.8,197 		"/>
		<polygon id="NLED:_x5F__x7B__x22_colorID_x22_:_x5B_1_x2C_1_x2C_1_x5D__x2C__x22_forceTarget_x22_:35_x7D_" class="st12" points="
			673.2,422.7 673.2,408.6 687.4,408.6 687.4,422.7 		"/>
		
			<polygon id="NLED:_x5F__x7B__x22_colorID_x22_:_x5B_0.09804_x2C_0.90196_x2C_0.36471_x5D__x2C__x22_forceTarget_x22_:36_x7D_" class="st13" points="
			602.7,400.1 602.7,385.9 616.9,385.9 616.9,400.1 		"/>
		
			<polygon id="NLED:_x5F__x7B__x22_colorID_x22_:_x5B_0.90196_x2C_0.63529_x2C_0.09804_x5D__x2C__x22_forceTarget_x22_:41_x7D_" class="st8" points="
			779.8,422.7 779.8,408.6 793.9,408.6 793.9,422.7 		"/>
		<polygon id="NLED:_x5F__x7B__x22_colorID_x22_:_x5B_1_x2C_1_x2C_1_x5D__x2C__x22_forceTarget_x22_:32_x7D_" class="st12" points="
			727.8,422.7 727.8,408.6 741.9,408.6 741.9,422.7 		"/>
		
			<polygon id="NLED:_x5F__x7B__x22_colorID_x22_:_x5B_0.09804_x2C_0.90196_x2C_0.63529_x5D__x2C__x22_forceTarget_x22_:42_x7D_" class="st14" points="
			734.5,379.9 734.5,365.8 748.6,365.8 748.6,379.9 		"/>
		
			<polygon id="NLED:_x5F__x7B__x22_colorID_x22_:_x5B_0.09804_x2C_0.90196_x2C_0.36471_x5D__x2C__x22_forceTarget_x22_:28_x7D_" class="st13" points="
			831.8,306.9 831.8,292.8 846,292.8 846,306.9 		"/>
		
			<polygon id="NLED:_x5F__x7B__x22_colorID_x22_:_x5B_0.89804_x2C_0.90196_x2C_0.09804_x5D__x2C__x22_forceTarget_x22_:29_x7D_" class="st10" points="
			820.9,374.9 820.9,360.7 835.1,360.7 835.1,374.9 		"/>
		
			<polygon id="NLED:_x5F__x7B__x22_colorID_x22_:_x5B_0.90196_x2C_0.23137_x2C_0.09804_x5D__x2C__x22_forceTarget_x22_:38_x7D_" class="st15" points="
			688.3,248.2 688.3,234 702.5,234 702.5,248.2 		"/>
	</g>
</g>
<polyline id="CP:_circuit_x5F_path" class="st16" points="841.8,482.4 841.8,398.7 822.5,338.2 841.8,286.4 797.9,177.8 
	614.5,193.7 628.3,259.4 602.6,318.4 610.1,412.3 687.3,412.3 805.2,415.6 768,331.8 731,239.4 680.2,244.9 672.6,353.6 762,382.8 
	"/>
<g id="BI:_Breakin_1_">
	<polygon class="st16" points="854.4,482.4 852.2,482.4 850.7,482.4 846.2,482.4 844.7,482.4 840.2,482.4 834.2,482.4 834.2,493.5 
		838.3,493.5 840.2,493.5 844.7,493.5 846.2,493.5 850.7,493.5 852.2,493.5 854.4,493.5 856.7,493.5 856.7,482.4 	"/>
</g>
</svg>
