<?xml version="1.0" encoding="utf-8"?>
<!-- Generator: Adobe Illustrator 19.2.1, SVG Export Plug-In . SVG Version: 6.00 Build 0)  -->
<svg version="1.1" id="ELD:_Neopixel_Ring" xmlns="http://www.w3.org/2000/svg" xmlns:xlink="http://www.w3.org/1999/xlink" x="0px"
	 y="0px" viewBox="0 0 274 165.1" style="enable-background:new 0 0 274 165.1;" xml:space="preserve">
<style type="text/css">
	.st0{fill:none;stroke:#A67C52;stroke-miterlimit:10;}
	.st1{fill:#C69C6D;stroke:#A67C52;stroke-miterlimit:10;}
	.st2{fill:#0076B6;stroke:#000000;stroke-width:2;stroke-miterlimit:10;}
	.st3{fill:#E6E7E8;stroke:#231F20;stroke-linecap:round;stroke-miterlimit:10;}
	.st4{fill:none;stroke:#FFFF00;stroke-linecap:round;stroke-miterlimit:10;}
	.st5{fill:#FFFF00;}
</style>
<g id="DEVICE:_x7B__x27_id_x27_:1_x7D_">
	<g>
		<line class="st0" x1="205.2" y1="42.1" x2="205.2" y2="0"/>
		<rect x="203.7" y="0" class="st1" width="3" height="42.1"/>
	</g>
	<g>
		<line class="st0" x1="208.2" y1="42.1" x2="208.2" y2="0"/>
		<rect x="206.7" y="0" class="st1" width="3" height="42.1"/>
	</g>
	<g>
		<line class="st0" x1="211.2" y1="42.1" x2="211.2" y2="0"/>
		<rect x="209.7" y="0" class="st1" width="3" height="42.1"/>
	</g>
	<g>
		<line class="st0" x1="214.2" y1="42.1" x2="214.2" y2="0"/>
		<rect x="212.7" y="0" class="st1" width="3" height="42.1"/>
	</g>
	<path id="BASE:_base_x5F_path" class="st2" d="M209.4,39.6c-31.7,0-57.4,25.6-57.4,57.3s25.7,57.3,57.3,57.3s57.3-25.7,57.3-57.3
		S241,39.6,209.4,39.6z M209.4,133.9c-20.4,0-37-16.6-37-37s16.6-37,37-37s37,16.6,37,37S229.8,133.9,209.4,133.9z"/>
	<polygon id="NLED:_x7B__x22_colorID_x22_:_x22__x23_FFFF00_x22__x7D_" class="st3" points="227.2,61.1 213.7,56.8 218,43.3 
		231.5,47.6 229.7,53.4 	"/>
	<polygon id="NLED:_x7B__x22_colorID_x22_:_x22__x23_FFFF00_x22__x7D__1_" class="st3" points="206.6,57.1 192.8,60.2 189.8,46.3 
		203.6,43.3 204.9,49.1 	"/>
	<polygon id="NLED:_x7B__x22_colorID_x22_:_x22__x23_FFFF00_x22__x7D__2_" class="st3" points="186.9,64.3 176.5,73.9 166.9,63.4 
		177.4,53.9 181.4,58.3 	"/>
	<polygon id="NLED:_x7B__x22_colorID_x22_:_x22__x23_FFFF00_x22__x7D__3_" class="st3" points="173.1,80.1 168.9,93.6 155.4,89.4 
		159.6,75.8 165.4,77.6 	"/>
	<polygon id="NLED:_x7B__x22_colorID_x22_:_x22__x23_FFFF00_x22__x7D__4_" class="st3" points="170,100.7 173.1,114.5 159.3,117.6 
		156.1,103.8 162,102.5 	"/>
	<polygon id="NLED:_x7B__x22_colorID_x22_:_x22__x23_FFFF00_x22__x7D__5_" class="st3" points="176.7,119.9 186.4,130.3 176,140 
		166.3,129.6 170.7,125.5 	"/>
	<polygon id="NLED:_x7B__x22_colorID_x22_:_x22__x23_FFFF00_x22__x7D__6_" class="st3" points="192.6,133.5 206.1,137.6 202,151.2 
		188.4,147 190.2,141.3 	"/>
	<polygon id="NLED:_x7B__x22_colorID_x22_:_x22__x23_FFFF00_x22__x7D__7_" class="st3" points="212.9,136.8 226.7,133.6 230,147.4 
		216.2,150.6 214.8,144.7 	"/>
	<polygon id="NLED:_x7B__x22_colorID_x22_:_x22__x23_FFFF00_x22__x7D__8_" class="st3" points="232.4,129.6 242.7,119.9 
		252.4,130.2 242.1,140 238,135.6 	"/>
	<polygon id="NLED:_x7B__x22_colorID_x22_:_x22__x23_FFFF00_x22__x7D__9_" class="st3" points="245.4,113.8 249.5,100.3 
		263.1,104.3 259,117.9 253.2,116.2 	"/>
	<polygon id="NLED:_x7B__x22_colorID_x22_:_x22__x23_FFFF00_x22__x7D__10_" class="st3" points="248.9,93.9 245.6,80.1 259.4,76.8 
		262.7,90.6 256.8,92 	"/>
	<polygon id="NLED:_x7B__x22_colorID_x22_:_x22__x23_FFFF00_x22__x7D__11_" class="st3" points="242.8,74.5 233,64.2 243.2,54.4 
		253,64.7 248.7,68.8 	"/>
	<path id="CP:_CircuitPath" class="st4" d="M224,146c-3.2,0.9-7.8,1.9-13.7,2c-4.1,0-27.3-0.3-41.8-18.6c-2.2-2.8-9.7-12.5-9.9-26.9
		C158,76.8,180.8,62,182.3,61.1c1.6-1,21.4-12.9,43.2-5c3.5,1.2,13.8,5.2,21.3,15.6c6.3,9,7.1,18,7.5,23.1c1,13-2.7,22.7-3.7,24.9
		c-4.2,10.2-10.7,16.5-14.4,19.6"/>
	<circle id="BI:_Breakin" class="st5" cx="224" cy="144.2" r="1.8"/>
</g>
<g id="DEVICE:_x7B__x27_id_x27_:0_x7D_">
	<g>
		<line class="st0" x1="69.8" y1="42.1" x2="69.8" y2="0"/>
		<rect x="68.3" y="0" class="st1" width="3" height="42.1"/>
	</g>
	<g>
		<line class="st0" x1="72.8" y1="42.1" x2="72.8" y2="0"/>
		<rect x="71.3" y="0" class="st1" width="3" height="42.1"/>
	</g>
	<g>
		<line class="st0" x1="75.8" y1="42.1" x2="75.8" y2="0"/>
		<rect x="74.3" y="0" class="st1" width="3" height="42.1"/>
	</g>
	<g>
		<line class="st0" x1="78.8" y1="42.1" x2="78.8" y2="0"/>
		<rect x="77.3" y="0" class="st1" width="3" height="42.1"/>
	</g>
	<path id="BASE:_base_x5F_path_1_" class="st2" d="M74,39.6c-31.7,0-57.4,25.6-57.4,57.3s25.7,57.3,57.3,57.3s57.3-25.7,57.3-57.3
		S105.6,39.6,74,39.6z M74,133.9c-20.4,0-37-16.6-37-37s16.6-37,37-37s37,16.6,37,37S94.4,133.9,74,133.9z"/>
	<polygon id="NLED:_x7B__x22_colorID_x22_:_x22__x23_FFFF00_x22__x7D__23_" class="st3" points="91.8,61.1 78.3,56.8 82.6,43.3 
		96.1,47.6 94.3,53.4 	"/>
	<polygon id="NLED:_x7B__x22_colorID_x22_:_x22__x23_FFFF00_x22__x7D__22_" class="st3" points="71.2,57.1 57.4,60.2 54.4,46.3 
		68.2,43.3 69.5,49.1 	"/>
	<polygon id="NLED:_x7B__x22_colorID_x22_:_x22__x23_FFFF00_x22__x7D__21_" class="st3" points="51.5,64.3 41.1,73.9 31.5,63.4 
		42,53.9 46,58.3 	"/>
	<polygon id="NLED:_x7B__x22_colorID_x22_:_x22__x23_FFFF00_x22__x7D__20_" class="st3" points="37.7,80.1 33.5,93.6 20,89.4 
		24.2,75.8 30,77.6 	"/>
	<polygon id="NLED:_x7B__x22_colorID_x22_:_x22__x23_FFFF00_x22__x7D__19_" class="st3" points="34.6,100.7 37.7,114.5 23.9,117.6 
		20.7,103.8 26.6,102.5 	"/>
	<polygon id="NLED:_x7B__x22_colorID_x22_:_x22__x23_FFFF00_x22__x7D__18_" class="st3" points="41.3,119.9 51,130.3 40.6,140 
		30.9,129.6 35.3,125.5 	"/>
	<polygon id="NLED:_x7B__x22_colorID_x22_:_x22__x23_FFFF00_x22__x7D__17_" class="st3" points="57.2,133.5 70.7,137.6 66.6,151.2 
		53,147 54.8,141.3 	"/>
	<polygon id="NLED:_x7B__x22_colorID_x22_:_x22__x23_FFFF00_x22__x7D__16_" class="st3" points="77.5,136.8 91.3,133.6 94.6,147.4 
		80.8,150.6 79.4,144.7 	"/>
	<polygon id="NLED:_x7B__x22_colorID_x22_:_x22__x23_FFFF00_x22__x7D__15_" class="st3" points="97,129.6 107.3,119.9 117,130.2 
		106.7,140 102.6,135.6 	"/>
	<polygon id="NLED:_x7B__x22_colorID_x22_:_x22__x23_FFFF00_x22__x7D__14_" class="st3" points="110,113.8 114.1,100.3 127.7,104.3 
		123.6,117.9 117.8,116.2 	"/>
	<polygon id="NLED:_x7B__x22_colorID_x22_:_x22__x23_FFFF00_x22__x7D__13_" class="st3" points="113.5,93.9 110.2,80.1 124,76.8 
		127.3,90.6 121.4,92 	"/>
	<polygon id="NLED:_x7B__x22_colorID_x22_:_x22__x23_FFFF00_x22__x7D__12_" class="st3" points="107.4,74.5 97.6,64.2 107.8,54.4 
		117.6,64.7 113.3,68.8 	"/>
	<path id="CP:_CircuitPath_1_" class="st4" d="M117.5,82.7c1.4,4.5,3.4,13.4,1.5,24.3c-0.5,2.4-2.4,12.6-10.4,23
		c-3.2,4.1-8.6,11.3-18.8,15.4c-11.9,4.8-22.7,2.6-26.3,1.7C41,141.9,30.7,121.3,30,119.5c-0.8-1.7-11.9-26.3,2.3-47.5
		c8-12.1,19.5-16.2,22.8-17.4c22.1-7.8,41.8,4.5,45.2,6.9c4.9,3.2,8.3,6.6,10.4,9"/>
	
		<ellipse id="BI:_Breakin_1_" transform="matrix(0.7936 -0.6085 0.6085 0.7936 -25.7903 88.4472)" class="st5" cx="117.5" cy="82.2" rx="1.8" ry="1.8"/>
</g>
</svg>
