<?xml version="1.0" encoding="utf-8"?>
<!-- Generator: Adobe Illustrator 19.2.1, SVG Export Plug-In . SVG Version: 6.00 Build 0)  -->
<svg version="1.1" id="ELD:_SUN" xmlns="http://www.w3.org/2000/svg" xmlns:xlink="http://www.w3.org/1999/xlink" x="0px" y="0px"
	 viewBox="0 0 288 288" style="enable-background:new 0 0 288 288;" xml:space="preserve">
<style type="text/css">
	.st0{opacity:0.5;stroke:#333333;stroke-dasharray:2,1;enable-background:new    ;}
	.st1{fill:#E5E619;stroke:#E5E619;stroke-miterlimit:10;}
	.st2{fill:#FFFFFF;stroke:#FFFFFF;stroke-miterlimit:10;}
	.st3{fill:#195DE6;stroke:#195DE6;stroke-miterlimit:10;}
	.st4{fill:#19A1E6;stroke:#19A1E6;stroke-miterlimit:10;}
	.st5{fill:#E65E19;stroke:#E65E19;stroke-miterlimit:10;}
	.st6{fill:none;stroke:#B727B7;stroke-miterlimit:10;}
</style>
<g id="DEVICE:_x7B__x27_id_x27_:0_x7D_">
	<path id="DIF:_base" d="M144,288C64.6,288,0,223.4,0,144S64.6,0,144,0s144,64.6,144,144S223.4,288,144,288z"/>
	<path id="DDS:_DIFF_20_" class="st0" d="M167.5,22.5c-1,2.5-3.3,8.2-8.8,12.5c-2.7,2.1-4.7,2.7-8.3,3.8c-0.8,0.2-1.6,0.5-2.4,0.8
		c-0.7-0.6-1.3-1.1-1.9-1.7c-2.9-2.4-4.4-3.8-6.1-6.8c-1.7-3.2-2.8-6.8-3.1-10.8c2.2-0.1,4.3-0.2,6.5-0.2
		C151.6,20.2,159.7,21,167.5,22.5L167.5,22.5z"/>
	<path id="DDS:_DIFF_19_" class="st0" d="M199.8,33.8c-0.6,0.7-1.1,1.4-1.6,2.1c-2.1,2.2-8.9,10.3-10.9,22.4
		c-0.2,1.4-0.4,2.7-0.5,3.7c-7.4-1.1-9.3-0.7-10.5-0.4c-3.9,0.9-7.4,3-10.6,6.3c0.3-3.4,0-6.6-1.1-9.4c-0.5-1.1-1.2-3.4-7.9-10.3
		c0.7-0.6,1.2-1.1,1.8-1.7c9.1-9,11.5-20,11.9-22.3c0.1-0.3,0.2-0.7,0.3-1C181,25.6,190.7,29.1,199.8,33.8L199.8,33.8z"/>
	<path id="DDS:_DIFF_18_" class="st0" d="M230.4,56.2c-0.2,0.4-0.4,0.7-0.6,1.1c-0.8,1.5-1.8,2.8-2.8,4.1c-1.1,0.8-2.9,2-5.3,3.2
		c-2.4,1.2-5.5,2.2-9,2.5c-3.4,0.3-5.4-0.3-9-1.3c-1.1-0.3-2.5-0.7-4.1-1.1c-0.5-1.6-1-3-1.3-4.1c-1.2-3.6-1.8-5.6-1.8-8.9
		c0.2-7.1,3.7-12.3,5-14.5c0.6-0.9,0.9-1.2,0.9-1.7C212.8,40.9,222.2,47.9,230.4,56.2L230.4,56.2z"/>
	<path id="DDS:_DIFF_17_" class="st0" d="M251.5,84.1c-1.8,0.2-3.7,0.6-5.5,1.2c-3.6,0.6-14.6,4.4-22.8,14c-1.2,1.5-2.2,2.9-3.1,4.1
		l-0.1,0.2c-4.3-3.6-5.9-4.1-6.8-4.4c-2.1-0.8-4.4-1.1-6.8-1.1c-3,0-6.3,0.6-9.5,1.8l0,0c3.7-3.7,6-7.6,6.8-12
		c0.2-1.1,0.6-3.1-0.9-10.5c1.1-0.2,2.3-0.3,3.7-0.6c14.1-3,23.1-12.8,23.7-14.3c0-0.1,0.1-0.2,0.1-0.3c0.8-1.1,1.6-2.2,2.2-3.4
		c0-0.1,0.1-0.2,0.1-0.3C240,66,246.3,74.7,251.5,84.1L251.5,84.1z"/>
	<path id="DDS:_DIFF_16_" class="st0" d="M265.2,124c-0.1,0-0.1,0.1-0.2,0.1c-2.1,1.1-4.5,1.9-6.9,2.4c-0.3-0.2-0.6-0.2-1.1-0.2h-1
		c-2.7,0.1-8.9,0.5-15.1-2.9c-3-1.6-4.4-3.1-6.9-6c-1-1.1-2.3-2.6-4-4.4c0.7-2.5,1.1-4.5,1.5-6.1c0.8-3.7,1.3-5.7,3.1-8.6
		c3.9-6,9.5-8.7,11.9-9.9c0.4-0.2,0.7-0.3,0.9-0.5c1.5-0.5,3-0.8,4.5-1c0.3,0,0.7-0.1,1-0.1C258.9,98.3,263.1,110.8,265.2,124z"/>
	<path id="DDS:_DIFF_15_" class="st0" d="M266.8,143.6c0,3.8-0.2,7.7-0.5,11.4c-0.3-0.1-0.5-0.2-0.8-0.3c-2-0.8-4.1-1.5-6.2-2.1
		c-4.7-1.8-15.4-3.4-26.3,0.4c-1.8,0.6-3.4,1.3-4.7,1.9c-0.6,0.2-1.2,0.5-1.8,0.8c-1.2-3.4-2-4.4-2.5-5c-3-4-7.8-6.8-13.7-8.2
		c0-0.8,0-1.7-0.1-2.5c5-1.2,9.1-3.6,12.1-6.8c0.7-0.8,1.8-2,3.7-7c1.3,0.6,2.8,1.3,4.6,2c10.9,4.1,21,2.6,24.4,1.9v0.1h0.4
		c3.7-0.4,7.2-1.4,10.5-2.9C266.4,132.6,266.8,138,266.8,143.6L266.8,143.6z"/>
	<path id="DDS:_DIFF_14_" class="st0" d="M265.9,158.1c-1.7,14.6-6,28.4-12.3,41c-0.9-0.1-1.8-0.3-2.6-0.5c-1.9-0.5-3.8-1.1-5.7-1.9
		h-0.1c-2.2-1.4-7.6-4.4-11.1-10.6c-1.7-3-2-5-2.6-8.8c-0.3-2-0.7-4.4-1.3-7.5c2.7-2.5,4.5-4.4,6-6c2.6-2.8,4.1-4.3,7.1-5.8
		c6.3-3.1,12.6-2.6,15.2-2.4c0.5,0,0.9,0.1,1.1,0.1c1.5,0.5,3.1,1,4.5,1.6C264.7,157.5,265.3,157.8,265.9,158.1L265.9,158.1z"/>
	<path id="DDS:_DIFF_13_" class="st0" d="M238,222.8c-10.4,12.4-23.2,22.8-37.7,30.3c-0.7-0.8-1.3-1.6-2-2.4
		c-0.1-0.2-0.2-0.5-0.4-0.8c-1.1-2.4-4-8-3.5-15c0.2-3.4,1.1-5.3,2.6-8.8c1-2.1,2.1-4.8,3.6-8.8c4.8-1,8-1.9,10.4-2.5
		c3.7-1,5.7-1.6,9-1.3c7,0.6,12.2,4.2,14.3,5.8c0.5,0.4,0.8,0.6,1.1,0.8c0.7,0.7,1.2,1.3,1.8,1.9C237.5,222.3,237.8,222.5,238,222.8
		L238,222.8z"/>
	<path id="DDS:_DIFF_11_" class="st0" d="M252.2,201.7c-3.5,6.6-7.6,12.8-12.3,18.6c-0.1-0.1-0.2-0.3-0.3-0.4
		c-1.1-1.1-2.2-2.4-3.4-3.5c-1.6-1.6-9.6-9.7-22.4-12.5c-1.9-0.4-3.6-0.6-5-0.8s-2.6-0.3-3.7-0.6c0.2-1.6,0.2-2.4,0.1-3
		c-0.4-5-2.8-9.9-7-14.2c0.9-1.5,1.8-3,2.6-4.5c5,1.6,9.9,1.7,14.1,0.4c0.8-0.2,1.9-0.6,4.5-2.4c0.2,0.3,0.5,0.7,0.7,1
		c0.8,1.2,1.7,2.7,2.8,4.3c8.6,11.5,20.5,15.4,22.6,15.7c1.7,0.7,3.4,1.2,5.1,1.6C251.1,201.5,251.7,201.6,252.2,201.7L252.2,201.7z
		"/>
	<path id="DDS:_DIFF_12_" class="st0" d="M197.7,254.4c-2.7,1.3-5.5,2.6-8.3,3.7c-2.2-3.8-8.6-13.7-19.2-20
		c-1.8-0.9-3.4-1.7-4.8-2.4c-1.8-0.9-3.2-1.5-4.5-2.6c1.1-1.3,1.6-2.1,1.8-2.6c2.3-4.4,2.9-9.8,1.8-15.8c2.4-1.1,4.8-2.4,7.1-3.7
		c3.5,4,7.6,6.6,11.9,7.7c0.5,0.1,1.1,0.2,2.2,0.3v2.9c0,1.5-0.1,3.1,0.1,5.1c0.9,13.4,8.2,23.2,10.2,25.1
		C196.5,253,197.1,253.7,197.7,254.4L197.7,254.4z"/>
	<path id="DDS:_DIFF_10_" class="st0" d="M185.9,259.5c-13.3,4.9-27.6,7.5-42.6,7.5c-4.5,0-9-0.2-13.4-0.7c0.5-2.7,1.6-7.4,4.7-11.7
		c2-2.8,3.7-3.9,6.9-6c0.8-0.5,1.6-1.1,2.6-1.8c2,0.5,4.4,0.9,7.3,1.2c6.8,0.8,11,0.9,14.1,0.9c3.7,0,5.7,0,8.9,1.5
		C179.9,252.8,183.8,257,185.9,259.5z"/>
	<path id="DDS:_DIFF_9_" class="st0" d="M204.6,147c-0.6,10.2-3.4,20.3-8,29.4l-1,2l-0.1,0.1c-0.2,0.5-0.5,0.9-0.8,1.4
		c-6.2,10.6-15.1,19.5-25.6,25.8l-0.4-0.1c-0.3-0.1-0.6-0.1-0.9-0.2c-0.2,0-0.5-0.1-0.8-0.2s-0.6-0.1-0.8-0.2
		c-0.2-0.1-0.5-0.1-0.8-0.2s-0.5-0.1-0.8-0.2c-0.2-0.1-0.5-0.2-0.8-0.2c-0.3-0.1-0.5-0.2-0.8-0.2c-0.2-0.1-0.5-0.2-0.8-0.2
		c-0.3-0.1-0.5-0.2-0.8-0.2c-0.2-0.1-0.5-0.2-0.8-0.2h-0.1c-0.2-0.1-0.5-0.2-0.8-0.2c-0.2-0.1-0.5-0.2-0.7-0.2h-0.1
		c-0.2-0.1-0.5-0.2-0.8-0.2c-0.2-0.1-0.5-0.2-0.8-0.2h-0.1c-0.2-0.1-0.5-0.2-0.7-0.2c-0.2-0.1-0.5-0.2-0.8-0.3
		c-0.2-0.1-0.5-0.2-0.8-0.2c-0.2-0.1-0.5-0.2-0.7-0.2l-0.2-0.1c-0.2-0.1-0.5-0.2-0.7-0.2c-0.2-0.1-0.5-0.2-0.8-0.2l-0.2-0.1
		c-0.2-0.1-0.4-0.2-0.6-0.2c-0.2-0.1-0.4-0.2-0.6-0.2l-0.3-0.2c-0.2-0.1-0.4-0.2-0.5-0.2c-0.2-0.1-0.5-0.2-0.7-0.3l-0.3-0.1
		c-0.2-0.1-0.4-0.2-0.5-0.2c-0.2-0.1-0.5-0.2-0.7-0.3l-0.3-0.1c-0.2-0.1-0.4-0.2-0.5-0.2c-0.2-0.1-0.5-0.2-0.8-0.4l-0.2-0.1
		c-0.2-0.1-0.4-0.2-0.5-0.2c-0.2-0.1-0.5-0.2-0.7-0.3l-0.3-0.2c-0.2-0.1-0.3-0.2-0.5-0.2c-0.2-0.1-0.4-0.2-0.6-0.3l-0.4-0.2
		c-0.2-0.1-0.3-0.2-0.5-0.2s-0.4-0.2-0.6-0.3l-0.3-0.2c-0.2-0.1-0.3-0.2-0.5-0.3s-0.4-0.2-0.6-0.3l-0.3-0.2
		c-0.2-0.1-0.3-0.2-0.5-0.2c-0.2-0.1-0.4-0.2-0.5-0.3l-0.4-0.2c-0.2-0.1-0.3-0.2-0.5-0.2c-0.2-0.1-0.4-0.2-0.6-0.4l-0.3-0.2
		c-0.2-0.1-0.3-0.2-0.5-0.3s-0.4-0.2-0.6-0.4l-0.3-0.2c-0.2-0.1-0.3-0.2-0.5-0.3s-0.4-0.2-0.5-0.4l-0.3-0.2
		c-0.2-0.1-0.3-0.2-0.5-0.3s-0.4-0.2-0.5-0.4l-0.4-0.2c-0.2-0.1-0.2-0.2-0.4-0.3s-0.3-0.2-0.5-0.4l-0.4-0.2
		c-0.2-0.1-0.2-0.2-0.4-0.3s-0.3-0.2-0.5-0.4l-0.4-0.3c-0.1-0.1-0.2-0.2-0.4-0.3s-0.3-0.2-0.5-0.4l-0.4-0.3
		c-0.1-0.1-0.2-0.2-0.4-0.3s-0.3-0.2-0.5-0.4l-0.4-0.3c-0.1-0.1-0.2-0.2-0.3-0.3c-0.2-0.2-0.3-0.3-0.5-0.4l-0.4-0.3
		c-0.1-0.1-0.2-0.2-0.3-0.3c-0.2-0.2-0.3-0.3-0.5-0.5l-0.4-0.3c-0.1-0.1-0.2-0.2-0.3-0.2c-0.2-0.2-0.4-0.4-0.6-0.6l-1.6-1.6
		c-11.8-11.9-18.3-26.8-18.3-42.1c0-14.5,5.7-28.4,16.3-40c0.3-0.4,0.7-0.7,1-1c0.1-0.1,0.2-0.2,0.2-0.2l0.8-0.8
		c0.1-0.1,0.2-0.2,0.2-0.2l0.3-0.3c0.2-0.2,0.3-0.3,0.5-0.5c0.1-0.1,0.2-0.2,0.3-0.3l0.3-0.3c0.2-0.2,0.3-0.2,0.5-0.4
		c0.1-0.1,0.2-0.2,0.3-0.3l0.3-0.3c0.2-0.1,0.2-0.2,0.4-0.4c0.1-0.1,0.2-0.2,0.4-0.3l0.3-0.3c0.2-0.1,0.2-0.2,0.4-0.4
		c0.1-0.1,0.2-0.2,0.4-0.3l0.3-0.3c0.2-0.1,0.2-0.2,0.4-0.3c0.2-0.1,0.2-0.2,0.4-0.3l0.3-0.2c0.2-0.1,0.2-0.2,0.4-0.3
		c0.2-0.1,0.3-0.2,0.5-0.3l0.3-0.2c0.2-0.1,0.3-0.2,0.4-0.3c0.2-0.1,0.3-0.2,0.5-0.3l0.3-0.2c0.2-0.1,0.3-0.2,0.5-0.3
		s0.3-0.2,0.5-0.3l0.3-0.2c0.2-0.1,0.3-0.2,0.5-0.3s0.3-0.2,0.5-0.3l0.3-0.2c0.2-0.1,0.3-0.2,0.4-0.3c0.2-0.1,0.3-0.2,0.5-0.3
		l0.3-0.2c0.2-0.1,0.3-0.2,0.4-0.3c0.2-0.1,0.4-0.2,0.5-0.4l0.2-0.2c0.2-0.1,0.3-0.2,0.5-0.3s0.4-0.2,0.5-0.3l0.3-0.2
		c0.2-0.1,0.3-0.2,0.5-0.2c0.2-0.1,0.4-0.2,0.6-0.3l0.2-0.2c0.2-0.1,0.3-0.2,0.5-0.2s0.4-0.2,0.5-0.3l0.3-0.2
		c0.2-0.1,0.3-0.2,0.5-0.3s0.4-0.2,0.5-0.3l0.3-0.2c0.2-0.1,0.3-0.2,0.5-0.2c0.2-0.1,0.4-0.2,0.6-0.3l0.2-0.1
		c0.2-0.1,0.4-0.2,0.6-0.3s0.4-0.2,0.6-0.3l0.2-0.2c0.2-0.1,0.3-0.2,0.5-0.2c0.2-0.1,0.5-0.2,0.6-0.3l0.2-0.1
		c0.2-0.1,0.3-0.2,0.5-0.2c0.2-0.1,0.5-0.2,0.7-0.3l0.2-0.1c0.2-0.1,0.4-0.2,0.6-0.2c0.2-0.1,0.5-0.2,0.7-0.3l0.2-0.1
		c0.2-0.1,0.4-0.2,0.6-0.2c0.2-0.1,0.5-0.2,0.7-0.3h0.1c0.2-0.1,0.5-0.2,0.7-0.2c0.2-0.1,0.5-0.2,0.7-0.2h0.2
		c0.2-0.1,0.4-0.2,0.6-0.2c0.2-0.1,0.5-0.2,0.8-0.3c0.2-0.1,0.5-0.2,0.8-0.2c0.2-0.1,0.5-0.2,0.8-0.2c0.2-0.1,0.5-0.2,0.8-0.2
		c0.2-0.1,0.5-0.2,0.8-0.2c0.2-0.1,0.5-0.2,0.8-0.2c0.2-0.1,0.5-0.2,0.8-0.2c0.2-0.1,0.5-0.2,0.8-0.2c0.2-0.1,0.5-0.2,0.8-0.2
		c0.2-0.1,0.5-0.2,0.8-0.2c0.2-0.1,0.5-0.2,0.8-0.2h0.2c1.2,0,1.8-0.1,2.1-0.2c11.4,5.4,21.2,13.8,28.5,24.2c0,0.3,0.2,0.7,1.1,1.8
		l0.1,0.1c6.9,10.6,10.9,22.8,11.8,35.4c-0.1,0.2-0.2,0.6-0.1,1.3c0,0.2,0,0.6,0.2,0.8v2.4c0,0.9,0,2,0,3.1L204.6,147z"/>
	<path id="DDS:_DIFF_8_" class="st0" d="M163,208.1c-9.8,4.7-20.7,7.1-31.4,7.1c-40.3,0-73-32.8-73-73s32.8-73.1,73.1-73.1
		c8.5,0,16.7,1.5,24.6,4.2l-0.4,0.8c-0.4,0.1-0.8,0.2-1.1,0.4l-0.4,0.2c-0.5,0.2-1,0.3-1.5,0.5l-0.5,0.2c-0.3,0.1-0.7,0.2-1,0.4
		c-0.2,0-0.3,0.1-0.4,0.2l-0.2,0.1c-0.2,0.1-0.5,0.2-0.8,0.3c-0.2,0.1-0.3,0.2-0.5,0.2h-0.1c-0.2,0.1-0.5,0.2-0.8,0.3
		c-0.2,0.1-0.5,0.2-0.7,0.2c-0.2,0.1-0.5,0.2-0.8,0.3c-0.2,0.1-0.5,0.2-0.7,0.3s-0.5,0.2-0.8,0.4c-0.2,0.1-0.5,0.2-0.6,0.3
		c-0.2,0.1-0.5,0.2-0.8,0.4l-0.2,0.1c-0.2,0.1-0.3,0.2-0.5,0.2c-0.2,0.1-0.5,0.2-0.8,0.4l-0.2,0.2c-0.1,0.1-0.2,0.1-0.4,0.2
		c-0.3,0.2-0.7,0.3-1,0.5l-0.4,0.2c-0.5,0.2-0.9,0.5-1.3,0.8l-0.5,0.3c-0.2,0.2-0.5,0.3-0.8,0.5c-0.2,0.1-0.2,0.2-0.4,0.2l-0.2,0.1
		c-0.2,0.2-0.5,0.3-0.8,0.5c-0.2,0.1-0.3,0.2-0.5,0.3l-0.1,0.1c-0.2,0.2-0.5,0.3-0.8,0.5c-0.2,0.1-0.4,0.2-0.6,0.4s-0.5,0.3-0.7,0.5
		c-0.2,0.1-0.4,0.2-0.6,0.4l-0.7,0.5c-0.2,0.1-0.3,0.2-0.5,0.3c-0.2,0.2-0.5,0.3-0.8,0.5l-0.2,0.1c-0.1,0.1-0.2,0.2-0.4,0.2
		c-0.2,0.2-0.5,0.4-0.8,0.5l-0.2,0.1c-0.1,0.1-0.2,0.2-0.3,0.2c-0.3,0.2-0.7,0.5-1,0.8l-0.2,0.2c-0.4,0.3-0.8,0.6-1.1,0.9
		c-0.1,0.1-0.2,0.2-0.2,0.2l-0.2,0.1c-0.2,0.2-0.5,0.4-0.8,0.6c-0.1,0.1-0.2,0.2-0.3,0.2l-0.1,0.1c-0.2,0.2-0.5,0.4-0.7,0.6
		c-0.2,0.1-0.2,0.2-0.4,0.3l-0.1,0.1c-0.2,0.2-0.5,0.4-0.7,0.5c-0.2,0.2-0.3,0.3-0.5,0.4c-0.2,0.2-0.4,0.4-0.6,0.6s-0.3,0.3-0.5,0.5
		s-0.4,0.4-0.6,0.6c-0.2,0.1-0.2,0.2-0.4,0.4l-1,1c-0.2,0.2-0.5,0.5-0.7,0.7l-0.3,0.3c-0.3,0.4-0.7,0.7-1,1.1
		c-11.5,12.5-17.5,27.3-17.5,43c0,16.4,7,32.5,19.6,45.2c0.4,0.4,0.8,0.8,1.1,1.1l0.4,0.4c0.2,0.2,0.5,0.5,0.8,0.8
		c0.1,0.1,0.2,0.2,0.3,0.3l0.2,0.1c0.2,0.2,0.5,0.5,0.7,0.7c0.2,0.1,0.3,0.2,0.4,0.4l0.1,0.1c0.2,0.2,0.5,0.4,0.7,0.6
		s0.3,0.2,0.5,0.4s0.5,0.4,0.7,0.6s0.4,0.3,0.5,0.5c0.2,0.2,0.5,0.4,0.7,0.5c0.2,0.2,0.4,0.3,0.5,0.5c0.2,0.2,0.5,0.4,0.8,0.5
		l0.1,0.1c0.2,0.1,0.3,0.2,0.5,0.4s0.5,0.4,0.8,0.5l0.2,0.1c0.2,0.1,0.2,0.2,0.4,0.3c0.3,0.2,0.5,0.4,0.8,0.6l0.2,0.1
		c0.1,0.1,0.2,0.2,0.3,0.2c0.4,0.2,0.8,0.5,1.1,0.8l0.2,0.2c0.5,0.3,0.9,0.6,1.4,0.9c0.1,0.1,0.2,0.1,0.3,0.2l0.2,0.1
		c0.3,0.2,0.6,0.4,0.9,0.5c0.2,0.1,0.2,0.2,0.4,0.2l0.2,0.1c0.2,0.2,0.5,0.3,0.8,0.5c0.2,0.1,0.4,0.2,0.5,0.3h0.1
		c0.2,0.2,0.5,0.3,0.8,0.5c0.2,0.1,0.5,0.2,0.7,0.4s0.5,0.3,0.8,0.5c0.2,0.1,0.5,0.2,0.7,0.3c0.2,0.2,0.5,0.3,0.8,0.4
		c0.2,0.1,0.5,0.2,0.7,0.3c0.2,0.2,0.5,0.2,0.8,0.4h0.1c0.2,0.1,0.4,0.2,0.5,0.2c0.2,0.1,0.5,0.2,0.8,0.4l0.2,0.1
		c0.2,0.1,0.3,0.2,0.5,0.2c0.3,0.2,0.6,0.2,0.9,0.4l0.2,0.1c0.2,0.1,0.2,0.1,0.4,0.2c0.4,0.2,0.8,0.3,1.1,0.5l0.5,0.2
		c0.5,0.2,1,0.4,1.5,0.6l0.6,0.2c0.3,0.1,0.6,0.2,1,0.4c0.2,0,0.3,0.1,0.5,0.2l0.2,0.1c0.3,0.1,0.6,0.2,0.9,0.3
		c0.2,0.1,0.3,0.1,0.5,0.2l0.2,0.1c0.3,0.1,0.6,0.2,0.9,0.3c0.2,0.1,0.5,0.2,0.7,0.2c0.3,0.1,0.6,0.2,0.9,0.3
		c0.2,0.1,0.5,0.2,0.7,0.2c0.3,0.1,0.6,0.2,0.9,0.3c0.2,0.1,0.5,0.2,0.7,0.2c0.3,0.1,0.6,0.2,1,0.2c0.2,0.1,0.5,0.1,0.7,0.2
		c0.3,0.1,0.7,0.2,1,0.2l0.2,0.1c0.2,0,0.3,0.1,0.5,0.1C162.5,208,162.8,208.1,163,208.1L163,208.1z"/>
	<path id="DDS:_DIFF_7_" class="st0" d="M136.4,43.7c-8.9,3.9-10.6,5.6-11.4,6.4c-3.7,3.9-5.8,9.3-6.2,16
		c-18.5,3-34.9,12.6-46.6,26.2c-4.4-1-10.8-1.9-18-0.6c-5.9,1.1-9.6,3.2-12.8,5c-3.1,1.8-5.7,3.2-9.3,3c-1.4,0-2.6-0.3-3.9-0.9
		c16.7-42.9,56.7-74.1,104.4-78.2c-0.5,4.6-0.6,12.5,2.7,20.9C135.7,42.2,136,42.9,136.4,43.7L136.4,43.7z"/>
	<path id="DDS:_DIFF_6_" class="st0" d="M53.2,143.5c0,17.9,6,34.3,16,47.5l-0.5,0.6c0,0-0.1,0.1-0.2,0.2l-0.1,0.1
		c0,0-0.1,0.1-0.2,0.2c0,0-0.1,0.1-0.2,0.2l-0.1,0.1l-0.1,0.1c0,0-0.1,0.1-0.2,0.2l-0.2,0.1l-0.1,0.1c-0.1,0-0.1,0.1-0.2,0.2
		l-0.2,0.1l-0.1,0.1c-0.1,0-0.2,0.1-0.2,0.2l-0.2,0.1l-0.1,0.1c-0.1,0-0.2,0.1-0.2,0.2l-0.2,0.1c0,0-0.1,0-0.1,0.1
		c-0.1,0.1-0.2,0.1-0.3,0.2l-0.2,0.1c0,0-0.1,0-0.1,0.1c-0.1,0.1-0.2,0.1-0.4,0.2l-0.1,0.1h-0.1c-0.2,0.1-0.3,0.2-0.5,0.2l-0.2,0.1
		c-0.2,0.1-0.5,0.2-0.7,0.2c-3.3,1.2-5.7,0.8-9.2,0.2c-2.9-0.5-6.4-1.1-11.8-1.1h-9.7c-0.2,0-0.4,0-0.6,0.1h-0.3
		c-0.3,0-0.6,0.1-0.8,0.1h-0.1C23.8,179.2,20,162.2,20,144.3c0-15.1,2.7-29.6,7.7-43c1.5,0.6,3.1,0.9,4.7,1
		c4.1,1.1,7.1-0.6,10.5-2.5c3.1-1.8,6.5-3.7,11.9-4.7c5-1,10.3-0.8,15.7,0.3C59.6,108,53.2,125,53.2,143.5L53.2,143.5z"/>
	<path id="DDS:_DIFF_5_" class="st0" d="M132,242.5c-0.2,0.3-0.3,0.5-0.5,0.8c-0.1,0.1-0.2,0.2-0.2,0.4l-0.2,0.2
		c-0.1,0.2-0.2,0.4-0.3,0.6c-0.2,0.4-0.4,0.7-0.5,1.1c-0.1,0.1-0.1,0.2-0.2,0.4l-0.1,0.1c-0.1,0.2-0.2,0.4-0.2,0.5
		c-0.1,0.2-0.2,0.5-0.3,0.7l-0.1,0.2c-1.9,4.2-3.1,8.7-3.7,13.5l-0.1,0.5c0.3,1.5,0.4,3,0.4,4.3c-41.5-5.8-76.4-32.3-94-68.6h2.4
		l8-0.1c1.2,0,2.4,0,3.5,0.1c3.3,0.2,5.7,0.6,7.8,0.9c0.4,0.1,0.8,0.2,1.1,0.2l0.5,0.1c0.2,0,0.3,0,0.5,0.1H56c0.2,0,0.3,0,0.5,0.1
		H59c0,0,0.1,0,0.2,0h2.2c0.1,0,0.2,0,0.3-0.1h0.2c0.1,0,0.1,0,0.2,0s0.2-0.1,0.4-0.1h0.2c0,0,0.1,0,0.2,0c0.2,0,0.3-0.1,0.5-0.2
		h0.2c0.2-0.1,0.5-0.2,0.7-0.2c0.2-0.1,0.5-0.2,0.8-0.3c0.1,0,0.1,0,0.2-0.1l0.2-0.1c0.2-0.1,0.3-0.1,0.4-0.2c0.1,0,0.2-0.1,0.2-0.1
		l0.2-0.1c0.1-0.1,0.2-0.1,0.3-0.2c0.1,0,0.2-0.1,0.2-0.1l0.1-0.1c0.1-0.1,0.2-0.1,0.3-0.2c0.1,0,0.2-0.1,0.2-0.2l0.1-0.1
		c0.1-0.1,0.2-0.1,0.3-0.2c0.1-0.1,0.2-0.1,0.2-0.2c0.1-0.1,0.2-0.2,0.3-0.2c0.1-0.1,0.2-0.1,0.2-0.2c0.1-0.1,0.2-0.2,0.3-0.2
		c0.1-0.1,0.2-0.2,0.2-0.2c0.1-0.1,0.2-0.2,0.2-0.2c0.1-0.1,0.2-0.2,0.2-0.2c0.1-0.1,0.2-0.2,0.2-0.2c0.1-0.1,0.2-0.2,0.2-0.2
		c0.1-0.1,0.2-0.2,0.2-0.2c0.1-0.1,0.2-0.2,0.2-0.2c0.1-0.1,0.2-0.2,0.2-0.2c0.1-0.1,0.1-0.1,0.2-0.2s0.2-0.2,0.2-0.2L71,193
		c0.1-0.1,0.1-0.1,0.2-0.2c12.3,15,30,25.4,50.2,28.1C121.1,226.6,122.9,235.6,132,242.5L132,242.5z"/>
	<path id="DDS:_DIFF_4_" class="st0" d="M189.4,258.2c-1.2,0.5-2.3,0.9-3.5,1.3c-2.1-2.5-6-6.7-11.4-9c-3.2-1.5-5.3-1.5-8.9-1.5
		c-3.1,0-7.3-0.1-14.1-0.9c-2.9-0.3-5.4-0.8-7.3-1.2c-1,0.7-1.8,1.2-2.6,1.8c-3.1,2.1-4.9,3.2-6.9,6c-3.2,4.3-4.3,8.9-4.7,11.7
		c-1.3-0.1-2.6-0.3-3.8-0.5c-0.1-1.3-0.2-2.9-0.4-4.3l0.1-0.5c0.5-4.7,1.8-9.3,3.7-13.5l0.1-0.2c0.1-0.2,0.2-0.5,0.3-0.7
		s0.2-0.4,0.2-0.5l0.1-0.1c0.1-0.2,0.1-0.3,0.2-0.4c0.2-0.4,0.4-0.7,0.5-1.1c0.1-0.2,0.2-0.5,0.3-0.6l0.2-0.2
		c0.1-0.2,0.2-0.3,0.2-0.4c0.2-0.3,0.4-0.5,0.5-0.8c-9.1-6.9-10.8-15.9-10.9-21.2c1.1,0.2,2.3,0.3,3.4,0.4c2.4,0.2,4.8,0.3,7.2,0.3
		c0.5,0,1.1,0,1.6,0c1.1,0,2.1-0.1,3.2-0.1c5.5-0.3,10.8-1.2,15.9-2.6c0.9-0.2,1.7-0.5,2.6-0.7c2.4-0.8,4.8-1.6,7.1-2.6
		c0.8-0.3,1.6-0.7,2.4-1.1c1.1,6,0.6,11.4-1.8,15.8c-0.2,0.5-0.7,1.3-1.8,2.6c1.3,1.1,2.7,1.7,4.5,2.6c1.5,0.7,3.1,1.5,4.8,2.4
		C180.8,244.5,187.2,254.4,189.4,258.2L189.4,258.2z"/>
	<path id="DDS:_DIFF_3_" class="st0" d="M240,220.4c-0.7,0.8-1.3,1.6-2,2.4c-0.2-0.3-0.5-0.5-0.7-0.8c-0.5-0.6-1.1-1.2-1.8-1.9
		c-0.3-0.2-0.6-0.4-1.1-0.8c-2.1-1.6-7.3-5.2-14.3-5.8c-3.4-0.3-5.4,0.3-9,1.3c-2.4,0.6-5.6,1.5-10.4,2.5c-1.5,4-2.6,6.7-3.6,8.8
		c-1.5,3.5-2.4,5.4-2.6,8.8c-0.5,7,2.4,12.6,3.5,15c0.2,0.3,0.3,0.6,0.4,0.8c0.6,0.8,1.3,1.6,2,2.4c-0.9,0.5-1.7,0.9-2.6,1.3
		c-0.6-0.7-1.2-1.4-1.7-2.2c-2-1.9-9.3-11.7-10.2-25.1c-0.2-2-0.1-3.7-0.1-5.1v-2.9c-1.1-0.1-1.8-0.2-2.2-0.3
		c-4.3-1.1-8.4-3.7-11.9-7.7c0.7-0.4,1.5-0.9,2.2-1.3c0.8-0.5,1.5-1,2.3-1.5c0.9-0.6,1.8-1.2,2.6-1.9c5.8-4.3,10.9-9.4,15.3-15.1
		c0.7-0.9,1.4-1.8,2-2.8c0.2-0.3,0.4-0.6,0.6-0.9c0.5-0.8,1-1.5,1.5-2.3c4.2,4.3,6.6,9.2,7,14.2c0.1,0.6,0.2,1.4-0.1,3
		c1.1,0.3,2.4,0.5,3.7,0.6c1.5,0.2,3.1,0.5,5,0.8c12.8,2.8,20.8,10.9,22.4,12.5c1.2,1.1,2.4,2.4,3.4,3.5
		C239.8,220.1,239.9,220.2,240,220.4L240,220.4z"/>
	<path id="DDS:_DIFF_2_" class="st0" d="M266.2,155c-0.1,1-0.2,2-0.3,3c-0.6-0.3-1.2-0.6-1.8-0.9c-1.5-0.6-3-1.1-4.5-1.6
		c-0.2,0-0.6-0.1-1.1-0.1c-2.6-0.2-8.9-0.8-15.2,2.4c-3.1,1.5-4.5,3.1-7.1,5.8c-1.5,1.6-3.3,3.5-6,6c0.6,3.1,1,5.5,1.3,7.5
		c0.6,3.7,0.9,5.8,2.6,8.8c3.5,6.2,8.9,9.3,11.1,10.6h0.1c1.9,0.8,3.8,1.5,5.7,1.9c0.9,0.2,1.7,0.4,2.6,0.5
		c-0.4,0.9-0.9,1.8-1.4,2.7c-0.6-0.1-1.2-0.2-1.7-0.3c-1.7-0.4-3.4-0.9-5.1-1.6c-2.1-0.3-14-4.2-22.6-15.7c-1.1-1.6-2.1-3.1-2.8-4.3
		c-0.2-0.3-0.5-0.7-0.7-1c-2.6,1.8-3.7,2.2-4.5,2.4c-4.2,1.3-9,1.2-14.1-0.4c0.4-0.8,0.8-1.5,1.2-2.3c0.8-1.7,1.6-3.3,2.3-5
		c0.4-1,0.8-1.9,1.1-2.9c2.1-5.6,3.5-11.5,4.2-17.6c0.1-1.1,0.2-2.2,0.3-3.3c0.1-1.5,0.2-3.1,0.2-4.6c0-0.5,0-1,0-1.6
		c0-0.4,0-0.7,0-1.1c6,1.4,10.7,4.2,13.7,8.2c0.5,0.6,1.3,1.7,2.5,5c0.5-0.2,1.1-0.5,1.8-0.8c1.4-0.6,2.9-1.3,4.7-1.9
		c10.9-3.7,21.6-2.1,26.3-0.4c2.1,0.5,4.2,1.2,6.2,2.1C265.7,154.8,266,154.9,266.2,155L266.2,155z"/>
	<path id="DDS:_DIFF_1_" class="st0" d="M265.7,127.2c-3.3,1.5-6.8,2.6-10.5,2.9h-0.4V130c-3.4,0.7-13.5,2.2-24.4-1.9
		c-1.8-0.7-3.3-1.4-4.6-2c-1.9,5-3,6.2-3.7,7c-2.9,3.2-7,5.6-12.1,6.8c0-0.9-0.1-1.9-0.2-2.8c-0.2-2.7-0.6-5.3-1-7.9
		c-0.2-1-0.4-2-0.6-3.1c-1.2-5.2-2.9-10.2-5-15l0,0c-0.5-1.1-1.1-2.3-1.6-3.4c-1-2-2.1-4-3.3-5.9c-0.5-0.7-0.9-1.5-1.4-2.2
		c3.3-1.2,6.6-1.8,9.5-1.8c2.4,0,4.7,0.4,6.8,1.1c0.9,0.3,2.5,0.8,6.8,4.4l0.1-0.2c0.9-1.1,1.9-2.6,3.1-4.1
		c8.2-9.6,19.2-13.4,22.8-14c1.8-0.6,3.7-1,5.5-1.2c0.5,0.9,1,1.8,1.5,2.7c-0.3,0-0.7,0.1-1,0.1c-1.5,0.2-3.1,0.5-4.5,1
		c-0.2,0.2-0.5,0.3-0.9,0.5c-2.4,1.1-8,3.9-11.9,9.9c-1.8,2.9-2.3,4.9-3.1,8.6c-0.4,1.6-0.8,3.6-1.5,6.1c1.7,1.8,3,3.2,4,4.4
		c2.5,2.8,3.9,4.4,6.9,6c6.3,3.4,12.5,3,15.1,2.9h1c0.5,0,0.8,0.1,1.1,0.2c2.4-0.5,4.7-1.3,6.9-2.4c0.1,0,0.1-0.1,0.2-0.1
		C265.4,125.1,265.5,126.1,265.7,127.2z"/>
	<path id="DDS:_DIFF" class="st0" d="M232.6,58.4c0,0.1-0.1,0.2-0.1,0.3c-0.6,1.2-1.4,2.4-2.2,3.4c0,0.2-0.1,0.2-0.1,0.3
		c-0.6,1.5-9.6,11.3-23.7,14.3c-1.5,0.3-2.7,0.5-3.7,0.6c1.5,7.4,1.1,9.3,0.9,10.5c-0.8,4.4-3.1,8.3-6.8,12c-0.5-0.7-1-1.5-1.5-2.2
		c-2-2.7-4.1-5.3-6.4-7.8c-0.7-0.8-1.5-1.5-2.2-2.3c-3.3-3.2-6.8-6.2-10.7-8.8c-1-0.7-2-1.4-3.1-2c-2.5-1.6-5.1-3-7.8-4.2
		c-0.9-0.4-1.8-0.8-2.7-1.2c-3.6-1.6-7.4-2.8-11.3-3.8c-1-0.3-2.1-0.5-3.2-0.7c-3.9-0.8-7.9-1.4-12-1.6c-1.3-0.1-2.5-0.1-3.8-0.1
		c-0.2,0-0.3,0-0.5,0c-3.5,0-6.9,0.2-10.2,0.7c-0.9,0.1-1.8,0.2-2.6,0.4c0.3-6.6,2.5-12.1,6.2-16c0.8-0.8,2.4-2.5,11.4-6.4
		c-0.4-0.8-0.7-1.5-1-2.2c-3.3-8.4-3.2-16.3-2.7-20.9c1.4-0.1,2.7-0.2,4.1-0.3c0.3,3.9,1.3,7.5,3.1,10.8c1.7,3,3.2,4.4,6.1,6.8
		c0.6,0.5,1.2,1.1,1.9,1.7c0.8-0.3,1.7-0.5,2.4-0.8c3.6-1.1,5.7-1.8,8.3-3.8c5.5-4.3,7.8-9.9,8.8-12.5c1.1,0.2,2.3,0.5,3.4,0.7
		c-0.1,0.4-0.2,0.7-0.3,1c-0.4,2.2-2.8,13.2-11.9,22.3c-0.6,0.5-1.1,1.1-1.8,1.7c6.7,7,7.4,9.2,7.9,10.3c1.1,2.8,1.4,6,1.1,9.4
		c3.2-3.3,6.7-5.4,10.6-6.3c1.1-0.3,3.1-0.8,10.5,0.4c0.1-1.1,0.2-2.4,0.5-3.7c2-12.1,8.9-20.2,10.9-22.4c0.4-0.7,1-1.5,1.6-2.1
		c0.9,0.5,1.8,1,2.7,1.5c0,0.5-0.3,0.9-0.9,1.7c-1.4,2.2-4.8,7.4-5,14.5c-0.1,3.4,0.5,5.4,1.8,8.9c0.3,1.1,0.8,2.5,1.3,4.1
		c1.6,0.5,3,0.8,4.1,1.1c3.6,1,5.7,1.6,9,1.3c3.6-0.3,6.6-1.4,9-2.5c2.4-1.2,4.2-2.4,5.3-3.2c1.1-1.2,2.1-2.6,2.8-4.1
		c0.2-0.4,0.4-0.7,0.6-1.1C231.2,56.9,231.9,57.6,232.6,58.4L232.6,58.4z"/>
	
		<polygon id="NLED:_x5F__x7B__x22_colorID_x22_:_x5B_0.89804_x2C_0.90196_x2C_0.09804_x5D__x2C__x22_target_x22_:3_x2C__x22_forceTarget_x22_:23_x7D_" class="st1" points="
		210.2,172 210.2,157.8 224.4,157.8 224.4,172 	"/>
	
		<polygon id="NLED:_x5F__x7B__x22_colorID_x22_:_x5B_0.89804_x2C_0.90196_x2C_0.09804_x5D__x2C__x22_target_x22_:3_x2C__x22_forceTarget_x22_:24_x7D_" class="st1" points="
		208.9,124.3 208.9,110.1 223.1,110.1 223.1,124.3 	"/>
	
		<polygon id="NLED:_x5F__x7B__x22_colorID_x22_:_x5B_0.89804_x2C_0.90196_x2C_0.09804_x5D__x2C__x22_target_x22_:3_x2C__x22_forceTarget_x22_:25_x7D_" class="st1" points="
		181.2,81.8 181.2,67.6 195.3,67.6 195.3,81.8 	"/>
	
		<polygon id="NLED:_x5F__x7B__x22_colorID_x22_:_x5B_0.89804_x2C_0.90196_x2C_0.09804_x5D__x2C__x22_target_x22_:3_x2C__x22_forceTarget_x22_:25_x7D__1_" class="st1" points="
		136.4,65.5 136.4,51.3 150.6,51.3 150.6,65.5 	"/>
	
		<polygon id="NLED:_x5F__x7B__x22_colorID_x22_:_x5B_0.89804_x2C_0.90196_x2C_0.09804_x5D__x2C__x22_target_x22_:3_x2C__x22_forceTarget_x22_:22_x7D_" class="st1" points="
		187.2,215 187.2,200.8 201.4,200.8 201.4,215 	"/>
	
		<polygon id="NLED:_x5F__x7B__x22_colorID_x22_:_x5B_0.89804_x2C_0.90196_x2C_0.09804_x5D__x2C__x22_target_x22_:3_x2C__x22_forceTarget_x22_:21_x7D_" class="st1" points="
		138.4,236.5 138.4,222.3 152.5,222.3 152.5,236.5 	"/>
	
		<polygon id="NLED:_x5F__x7B__x22_colorID_x22_:_x5B_1_x2C_1_x2C_1_x5D__x2C__x22_target_x22_:3_x2C__x22_forceTarget_x22_:16_x7D_" class="st2" points="
		133.5,150 133.5,135.9 147.7,135.9 147.7,150 	"/>
	
		<polygon id="NLED:_x5F__x7B__x22_colorID_x22_:_x5B_0.09804_x2C_0.36471_x2C_0.90196_x5D__x2C__x22_target_x22_:3_x2C__x22_forceTarget_x22_:17_x7D_" class="st3" points="
		89.6,102.9 89.6,88.7 103.8,88.7 103.8,102.9 	"/>
	
		<polygon id="NLED:_x5F__x7B__x22_colorID_x22_:_x5B_0.09804_x2C_0.63137_x2C_0.90196_x5D__x2C__x22_target_x22_:3_x2C__x22_forceTarget_x22_:19_x7D_" class="st4" points="
		29.2,152.7 29.2,138.6 43.4,138.6 43.4,152.7 	"/>
	
		<polygon id="NLED:_x5F__x7B__x22_colorID_x22_:_x5B_0.09804_x2C_0.63137_x2C_0.90196_x5D__x2C__x22_target_x22_:3_x2C__x22_forceTarget_x22_:20_x7D_" class="st4" points="
		82,239.5 82,225.3 96.2,225.3 96.2,239.5 	"/>
	
		<polygon id="NLED:_x5F__x7B__x22_colorID_x22_:_x5B_0.09804_x2C_0.63137_x2C_0.90196_x5D__x2C__x22_target_x22_:3_x2C__x22_forceTarget_x22_:18_x7D_" class="st4" points="
		72.5,69.2 72.5,55 86.7,55 86.7,69.2 	"/>
	
		<polygon id="NLED:_x5F__x7B__x22_colorID_x22_:_x5B_0.90196_x2C_0.36863_x2C_0.09804_x5D__x2C__x22_target_x22_:3_x2C__x22_forceTarget_x22_:15_x7D_" class="st5" points="
		145.7,266.4 145.7,252.2 159.9,252.2 159.9,266.4 	"/>
	
		<polygon id="NLED:_x5F__x7B__x22_colorID_x22_:_x5B_0.90196_x2C_0.36863_x2C_0.09804_x5D__x2C__x22_target_x22_:3_x2C__x22_forceTarget_x22_:14_x7D_" class="st5" points="
		177.2,248.1 177.2,233.9 191.3,233.9 191.3,248.1 	"/>
	
		<polygon id="NLED:_x5F__x7B__x22_colorID_x22_:_x5B_0.90196_x2C_0.36863_x2C_0.09804_x5D__x2C__x22_target_x22_:3_x2C__x22_forceTarget_x22_:12_x7D_" class="st5" points="
		205.8,240.4 205.8,226.2 220,226.2 220,240.4 	"/>
	
		<polygon id="NLED:_x5F__x7B__x22_colorID_x22_:_x5B_0.90196_x2C_0.36863_x2C_0.09804_x5D__x2C__x22_target_x22_:3_x2C__x22_forceTarget_x22_:11_x7D_" class="st5" points="
		242.3,186.5 242.3,172.3 256.4,172.3 256.4,186.5 	"/>
	
		<polygon id="NLED:_x5F__x7B__x22_colorID_x22_:_x5B_0.90196_x2C_0.36863_x2C_0.09804_x5D__x2C__x22_target_x22_:3_x2C__x22_forceTarget_x22_:13_x7D_" class="st5" points="
		228.1,211.2 228.1,197 242.3,197 242.3,211.2 	"/>
	
		<polygon id="NLED:_x5F__x7B__x22_colorID_x22_:_x5B_0.90196_x2C_0.36863_x2C_0.09804_x5D__x2C__x22_target_x22_:3_x2C__x22_forceTarget_x22_:9_x7D_" class="st5" points="
		240.4,115.2 240.4,101 254.6,101 254.6,115.2 	"/>
	
		<polygon id="NLED:_x5F__x7B__x22_colorID_x22_:_x5B_0.90196_x2C_0.36863_x2C_0.09804_x5D__x2C__x22_target_x22_:3_x2C__x22_forceTarget_x22_:10_x7D_" class="st5" points="
		247.5,148.1 247.5,133.9 261.7,133.9 261.7,148.1 	"/>
	
		<polygon id="NLED:_x5F__x7B__x22_colorID_x22_:_x5B_0.90196_x2C_0.36863_x2C_0.09804_x5D__x2C__x22_target_x22_:3_x2C__x22_forceTarget_x22_:8_x7D_" class="st5" points="
		223.3,86.2 223.3,72 237.5,72 237.5,86.2 	"/>
	
		<polygon id="NLED:_x5F__x7B__x22_colorID_x22_:_x5B_0.90196_x2C_0.36863_x2C_0.09804_x5D__x2C__x22_target_x22_:3_x2C__x22_forceTarget_x22_:7_x7D_" class="st5" points="
		203,58.7 203,44.6 217.2,44.6 217.2,58.7 	"/>
	
		<polygon id="NLED:_x5F__x7B__x22_colorID_x22_:_x5B_0.90196_x2C_0.36863_x2C_0.09804_x5D__x2C__x22_target_x22_:3_x2C__x22_forceTarget_x22_:6_x7D_" class="st5" points="
		173.2,43.1 173.2,29 187.4,29 187.4,43.1 	"/>
	
		<polygon id="NLED:_x5F__x7B__x22_colorID_x22_:_x5B_0.09804_x2C_0.36471_x2C_0.90196_x5D__x2C__x22_target_x22_:3_x2C__x22_forceTarget_x22_:17_x7D__1_" class="st3" points="
		100.4,198.4 100.4,184.2 114.6,184.2 114.6,198.4 	"/>
	
		<polygon id="NLED:_x5F__x7B__x22_colorID_x22_:_x5B_0.09804_x2C_0.36471_x2C_0.90196_x5D__x2C__x22_target_x22_:3_x2C__x22_forceTarget_x22_:17_x7D__2_" class="st3" points="
		76,157.8 76,143.6 90.2,143.6 90.2,157.8 	"/>
	
		<polygon id="NLED:_x5F__x7B__x22_colorID_x22_:_x5B_0.90196_x2C_0.36863_x2C_0.09804_x5D__x2C__x22_target_x22_:3_x2C__x22_forceTarget_x22_:5_x7D_" class="st5" points="
		143.1,34.6 143.1,20.4 157.3,20.4 157.3,34.6 	"/>
	
		<polygon id="NLED:_x5F__x7B__x22_colorID_x22_:_x5B_1_x2C_1_x2C_1_x5D__x2C__x22_target_x22_:3_x2C__x22_forceTarget_x22_:16_x7D__1_" class="st2" points="
		172.7,148.7 172.7,134.5 186.9,134.5 186.9,148.7 	"/>
	<polyline id="CP:_CIRCUIT" class="st6" points="53.9,245.6 152.2,259.3 217.2,229.1 223.2,201.6 249.4,179.4 254.6,144 
		249.4,108.1 230,76.8 208.6,47.7 181.9,34.6 140,31.2 79.6,61.9 36.3,150 90.2,234.5 174.9,229.3 195.3,207 219.4,161.1 
		222.8,115.2 187.4,77.2 145.8,55 96.7,95.8 90.2,143.6 107.5,192.8 139.6,143 181.9,141.6 	"/>
	<rect id="MC:_MC" x="49.3" y="229.4" class="st5" width="9.3" height="23.1"/>
	<rect id="BI:_BREAKIN_1_" x="54" y="238.4" class="st5" width="9.3" height="23.1"/>
</g>
</svg>
