<?xml version="1.0" encoding="utf-8"?>
<!-- Generator: Adobe Illustrator 19.2.1, SVG Export Plug-In . SVG Version: 6.00 Build 0)  -->
<svg version="1.1" id="Layer_1" xmlns="http://www.w3.org/2000/svg" xmlns:xlink="http://www.w3.org/1999/xlink" x="0px" y="0px"
	 viewBox="0 0 801 671" style="enable-background:new 0 0 801 671;" xml:space="preserve">
<style type="text/css">
	.st0{display:none;fill:#0C00FF;}
	.st1{opacity:0.5;stroke:#333333;stroke-dasharray:2,1;enable-background:new    ;}
	.st2{fill:#E5E619;stroke:#E5E619;stroke-miterlimit:10;}
	.st3{fill:#FFFFFF;stroke:#FFFFFF;stroke-miterlimit:10;}
	.st4{fill:#195DE6;stroke:#195DE6;stroke-miterlimit:10;}
	.st5{fill:#19A1E6;stroke:#19A1E6;stroke-miterlimit:10;}
	.st6{fill:#E65E19;stroke:#E65E19;stroke-miterlimit:10;}
	.st7{fill:none;stroke:#B727B7;stroke-miterlimit:10;}
</style>
<g transform="">
	<g>
		<g id="ELD:_Sun_and_Moon">
			<path id="DIF:_base" d="M400.5,439.5c-79.4,0-144-64.6-144-144s64.6-144,144-144s144,64.6,144,144S479.9,439.5,400.5,439.5z"/>
			<polygon id="BI:_Breakin_1_" class="st0" points="276.4,411.7 276.4,408.4 276.4,406.2 276.4,399.5 276.4,397.3 276.4,390.6 
				276.4,381.7 268.2,381.7 268.2,390.6 268.2,397.3 268.2,399.5 268.2,406.2 268.2,408.4 268.2,411.7 268.2,415 276.4,415 			"/>
			<path id="DDS:_DIFF_20_" class="st1" d="M424,174c-1,2.5-3.3,8.2-8.8,12.5c-2.7,2.1-4.7,2.7-8.3,3.8c-0.8,0.2-1.6,0.5-2.4,0.8
				c-0.7-0.6-1.3-1.1-1.9-1.7c-2.9-2.4-4.4-3.8-6.1-6.8c-1.7-3.2-2.8-6.8-3.1-10.8c2.2-0.1,4.3-0.2,6.5-0.2
				C408.1,171.7,416.2,172.5,424,174L424,174z"/>
			<path id="DDS:_DIFF_19_" class="st1" d="M456.3,185.3c-0.6,0.7-1.1,1.4-1.6,2.1c-2.1,2.2-8.9,10.3-10.9,22.4
				c-0.2,1.4-0.4,2.7-0.5,3.7c-7.4-1.1-9.3-0.7-10.5-0.4c-3.9,0.9-7.4,3-10.6,6.3c0.3-3.4,0-6.6-1.1-9.4c-0.5-1.1-1.2-3.4-7.9-10.3
				c0.7-0.6,1.2-1.1,1.8-1.7c9.1-9,11.5-20,11.9-22.3c0.1-0.3,0.2-0.7,0.3-1C437.5,177.1,447.2,180.6,456.3,185.3L456.3,185.3z"/>
			<path id="DDS:_DIFF_18_" class="st1" d="M486.9,207.7c-0.2,0.4-0.4,0.7-0.6,1.1c-0.8,1.5-1.8,2.8-2.8,4.1c-1.1,0.8-2.9,2-5.3,3.2
				s-5.5,2.2-9,2.5c-3.4,0.3-5.4-0.3-9-1.3c-1.1-0.3-2.5-0.7-4.1-1.1c-0.5-1.6-1-3-1.3-4.1c-1.2-3.6-1.8-5.6-1.8-8.9
				c0.2-7.1,3.7-12.3,5-14.5c0.6-0.9,0.9-1.2,0.9-1.7C469.3,192.4,478.7,199.4,486.9,207.7L486.9,207.7z"/>
			<path id="DDS:_DIFF_17_" class="st1" d="M508,235.6c-1.8,0.2-3.7,0.6-5.5,1.2c-3.6,0.6-14.6,4.4-22.8,14
				c-1.2,1.5-2.2,2.9-3.1,4.1l-0.1,0.2c-4.3-3.6-5.9-4.1-6.8-4.4c-2.1-0.8-4.4-1.1-6.8-1.1c-3,0-6.3,0.6-9.5,1.8l0,0
				c3.7-3.7,6-7.6,6.8-12c0.2-1.1,0.6-3.1-0.9-10.5c1.1-0.2,2.3-0.3,3.7-0.6c14.1-3,23.1-12.8,23.7-14.3c0-0.1,0.1-0.2,0.1-0.3
				c0.8-1.1,1.6-2.2,2.2-3.4c0-0.1,0.1-0.2,0.1-0.3C496.5,217.5,502.8,226.2,508,235.6L508,235.6z"/>
			<path id="DDS:_DIFF_16_" class="st1" d="M521.7,275.5c-0.1,0-0.1,0.1-0.2,0.1c-2.1,1.1-4.5,1.9-6.9,2.4c-0.3-0.2-0.6-0.2-1.1-0.2
				h-1c-2.7,0.1-8.9,0.5-15.1-2.9c-3-1.6-4.4-3.1-6.9-6c-1-1.1-2.3-2.6-4-4.4c0.7-2.5,1.1-4.5,1.5-6.1c0.8-3.7,1.3-5.7,3.1-8.6
				c3.9-6,9.5-8.7,11.9-9.9c0.4-0.2,0.7-0.3,0.9-0.5c1.5-0.5,3-0.8,4.5-1c0.3,0,0.7-0.1,1-0.1C515.4,249.8,519.6,262.3,521.7,275.5z
				"/>
			<path id="DDS:_DIFF_15_" class="st1" d="M523.3,295.1c0,3.8-0.2,7.7-0.5,11.4c-0.3-0.1-0.5-0.2-0.8-0.3c-2-0.8-4.1-1.5-6.2-2.1
				c-4.7-1.8-15.4-3.4-26.3,0.4c-1.8,0.6-3.4,1.3-4.7,1.9c-0.6,0.2-1.2,0.5-1.8,0.8c-1.2-3.4-2-4.4-2.5-5c-3-4-7.8-6.8-13.7-8.2
				c0-0.8,0-1.7-0.1-2.5c5-1.2,9.1-3.6,12.1-6.8c0.7-0.8,1.8-2,3.7-7c1.3,0.6,2.8,1.3,4.6,2c10.9,4.1,21,2.6,24.4,1.9v0.1h0.4
				c3.7-0.4,7.2-1.4,10.5-2.9C522.9,284.1,523.3,289.5,523.3,295.1L523.3,295.1z"/>
			<path id="DDS:_DIFF_14_" class="st1" d="M522.4,309.6c-1.7,14.6-6,28.4-12.3,41c-0.9-0.1-1.8-0.3-2.6-0.5
				c-1.9-0.5-3.8-1.1-5.7-1.9h-0.1c-2.2-1.4-7.6-4.4-11.1-10.6c-1.7-3-2-5-2.6-8.8c-0.3-2-0.7-4.4-1.3-7.5c2.7-2.5,4.5-4.4,6-6
				c2.6-2.8,4.1-4.3,7.1-5.8c6.3-3.1,12.6-2.6,15.2-2.4c0.5,0,0.9,0.1,1.1,0.1c1.5,0.5,3.1,1,4.5,1.6
				C521.2,309,521.8,309.3,522.4,309.6L522.4,309.6z"/>
			<path id="DDS:_DIFF_13_" class="st1" d="M494.5,374.3c-10.4,12.4-23.2,22.8-37.7,30.3c-0.7-0.8-1.3-1.6-2-2.4
				c-0.1-0.2-0.2-0.5-0.4-0.8c-1.1-2.4-4-8-3.5-15c0.2-3.4,1.1-5.3,2.6-8.8c1-2.1,2.1-4.8,3.6-8.8c4.8-1,8-1.9,10.4-2.5
				c3.7-1,5.7-1.6,9-1.3c7,0.6,12.2,4.2,14.3,5.8c0.5,0.4,0.8,0.6,1.1,0.8c0.7,0.7,1.2,1.3,1.8,1.9C494,373.8,494.3,374,494.5,374.3
				L494.5,374.3z"/>
			<path id="DDS:_DIFF_11_" class="st1" d="M508.7,353.2c-3.5,6.6-7.6,12.8-12.3,18.6c-0.1-0.1-0.2-0.3-0.3-0.4
				c-1.1-1.1-2.2-2.4-3.4-3.5c-1.6-1.6-9.6-9.7-22.4-12.5c-1.9-0.4-3.6-0.6-5-0.8c-1.4-0.2-2.6-0.3-3.7-0.6c0.2-1.6,0.2-2.4,0.1-3
				c-0.4-5-2.8-9.9-7-14.2c0.9-1.5,1.8-3,2.6-4.5c5,1.6,9.9,1.7,14.1,0.4c0.8-0.2,1.9-0.6,4.5-2.4c0.2,0.3,0.5,0.7,0.7,1
				c0.8,1.2,1.7,2.7,2.8,4.3c8.6,11.5,20.5,15.4,22.6,15.7c1.7,0.7,3.4,1.2,5.1,1.6C507.6,353,508.2,353.1,508.7,353.2L508.7,353.2z
				"/>
			<path id="DDS:_DIFF_12_" class="st1" d="M454.2,405.9c-2.7,1.3-5.5,2.6-8.3,3.7c-2.2-3.8-8.6-13.7-19.2-20
				c-1.8-0.9-3.4-1.7-4.8-2.4c-1.8-0.9-3.2-1.5-4.5-2.6c1.1-1.3,1.6-2.1,1.8-2.6c2.3-4.4,2.9-9.8,1.8-15.8c2.4-1.1,4.8-2.4,7.1-3.7
				c3.5,4,7.6,6.6,11.9,7.7c0.5,0.1,1.1,0.2,2.2,0.3v2.9c0,1.5-0.1,3.1,0.1,5.1c0.9,13.4,8.2,23.2,10.2,25.1
				C453,404.5,453.6,405.2,454.2,405.9L454.2,405.9z"/>
			<path id="DDS:_DIFF_10_" class="st1" d="M442.4,411c-13.3,4.9-27.6,7.5-42.6,7.5c-4.5,0-9-0.2-13.4-0.7c0.5-2.7,1.6-7.4,4.7-11.7
				c2-2.8,3.7-3.9,6.9-6c0.8-0.5,1.6-1.1,2.6-1.8c2,0.5,4.4,0.9,7.3,1.2c6.8,0.8,11,0.9,14.1,0.9c3.7,0,5.7,0,8.9,1.5
				C436.4,404.3,440.3,408.5,442.4,411z"/>
			<path id="DDS:_DIFF_9_" class="st1" d="M461.1,298.5c-0.6,10.2-3.4,20.3-8,29.4l-1,2L452,330c-0.2,0.5-0.5,0.9-0.8,1.4
				c-6.2,10.6-15.1,19.5-25.6,25.8l-0.4-0.1c-0.3-0.1-0.6-0.1-0.9-0.2c-0.2,0-0.5-0.1-0.8-0.2s-0.6-0.1-0.8-0.2
				c-0.2-0.1-0.5-0.1-0.8-0.2s-0.5-0.1-0.8-0.2c-0.2-0.1-0.5-0.2-0.8-0.2c-0.3-0.1-0.5-0.2-0.8-0.2c-0.2-0.1-0.5-0.2-0.8-0.2
				c-0.3-0.1-0.5-0.2-0.8-0.2c-0.2-0.1-0.5-0.2-0.8-0.2H417c-0.2-0.1-0.5-0.2-0.8-0.2c-0.2-0.1-0.5-0.2-0.7-0.2h-0.1
				c-0.2-0.1-0.5-0.2-0.8-0.2c-0.2-0.1-0.5-0.2-0.8-0.2h-0.1c-0.2-0.1-0.5-0.2-0.7-0.2c-0.2-0.1-0.5-0.2-0.8-0.3
				c-0.2-0.1-0.5-0.2-0.8-0.2c-0.2-0.1-0.5-0.2-0.7-0.2l-0.2-0.1c-0.2-0.1-0.5-0.2-0.7-0.2c-0.2-0.1-0.5-0.2-0.8-0.2l-0.2-0.1
				c-0.2-0.1-0.4-0.2-0.6-0.2c-0.2-0.1-0.4-0.2-0.6-0.2l-0.3-0.2c-0.2-0.1-0.4-0.2-0.5-0.2c-0.2-0.1-0.5-0.2-0.7-0.3l-0.3-0.1
				c-0.2-0.1-0.4-0.2-0.5-0.2c-0.2-0.1-0.5-0.2-0.7-0.3l-0.3-0.1c-0.2-0.1-0.4-0.2-0.5-0.2c-0.2-0.1-0.5-0.2-0.8-0.4l-0.2-0.1
				c-0.2-0.1-0.4-0.2-0.5-0.2c-0.2-0.1-0.5-0.2-0.7-0.3l-0.3-0.2c-0.2-0.1-0.3-0.2-0.5-0.2c-0.2-0.1-0.4-0.2-0.6-0.3l-0.4-0.2
				c-0.2-0.1-0.3-0.2-0.5-0.2s-0.4-0.2-0.6-0.3l-0.3-0.2c-0.2-0.1-0.3-0.2-0.5-0.3c-0.2-0.1-0.4-0.2-0.6-0.3l-0.3-0.2
				c-0.2-0.1-0.3-0.2-0.5-0.2c-0.2-0.1-0.4-0.2-0.5-0.3l-0.4-0.2c-0.2-0.1-0.3-0.2-0.5-0.2c-0.2-0.1-0.4-0.2-0.6-0.4l-0.3-0.2
				c-0.2-0.1-0.3-0.2-0.5-0.3c-0.2-0.1-0.4-0.2-0.6-0.4l-0.3-0.2c-0.2-0.1-0.3-0.2-0.5-0.3c-0.2-0.1-0.4-0.2-0.5-0.4l-0.3-0.2
				c-0.2-0.1-0.3-0.2-0.5-0.3c-0.2-0.1-0.4-0.2-0.5-0.4l-0.4-0.2c-0.2-0.1-0.2-0.2-0.4-0.3c-0.2-0.1-0.3-0.2-0.5-0.4l-0.4-0.2
				c-0.2-0.1-0.2-0.2-0.4-0.3c-0.2-0.1-0.3-0.2-0.5-0.4l-0.4-0.3c-0.1-0.1-0.2-0.2-0.4-0.3c-0.2-0.1-0.3-0.2-0.5-0.4l-0.4-0.3
				c-0.1-0.1-0.2-0.2-0.4-0.3c-0.2-0.1-0.3-0.2-0.5-0.4l-0.4-0.3c-0.1-0.1-0.2-0.2-0.3-0.3c-0.2-0.2-0.3-0.3-0.5-0.4l-0.4-0.3
				c-0.1-0.1-0.2-0.2-0.3-0.3c-0.2-0.2-0.3-0.3-0.5-0.5l-0.4-0.3c-0.1-0.1-0.2-0.2-0.3-0.2c-0.2-0.2-0.4-0.4-0.6-0.6l-1.6-1.6
				c-11.8-11.9-18.3-26.8-18.3-42.1c0-14.5,5.7-28.4,16.3-40c0.3-0.4,0.7-0.7,1-1c0.1-0.1,0.2-0.2,0.2-0.2l0.8-0.8
				c0.1-0.1,0.2-0.2,0.2-0.2l0.3-0.3c0.2-0.2,0.3-0.3,0.5-0.5c0.1-0.1,0.2-0.2,0.3-0.3l0.3-0.3c0.2-0.2,0.3-0.2,0.5-0.4
				c0.1-0.1,0.2-0.2,0.3-0.3l0.3-0.3c0.2-0.1,0.2-0.2,0.4-0.4c0.1-0.1,0.2-0.2,0.4-0.3l0.3-0.3c0.2-0.1,0.2-0.2,0.4-0.4
				c0.1-0.1,0.2-0.2,0.4-0.3l0.3-0.3c0.2-0.1,0.2-0.2,0.4-0.3c0.2-0.1,0.2-0.2,0.4-0.3l0.3-0.2c0.2-0.1,0.2-0.2,0.4-0.3
				c0.2-0.1,0.3-0.2,0.5-0.3l0.3-0.2c0.2-0.1,0.3-0.2,0.4-0.3c0.2-0.1,0.3-0.2,0.5-0.3l0.3-0.2c0.2-0.1,0.3-0.2,0.5-0.3
				s0.3-0.2,0.5-0.3l0.3-0.2c0.2-0.1,0.3-0.2,0.5-0.3s0.3-0.2,0.5-0.3l0.3-0.2c0.2-0.1,0.3-0.2,0.4-0.3c0.2-0.1,0.3-0.2,0.5-0.3
				l0.3-0.2c0.2-0.1,0.3-0.2,0.4-0.3c0.2-0.1,0.4-0.2,0.5-0.4l0.2-0.2c0.2-0.1,0.3-0.2,0.5-0.3s0.4-0.2,0.5-0.3l0.3-0.2
				c0.2-0.1,0.3-0.2,0.5-0.2c0.2-0.1,0.4-0.2,0.6-0.3l0.2-0.2c0.2-0.1,0.3-0.2,0.5-0.2s0.4-0.2,0.5-0.3l0.3-0.2
				c0.2-0.1,0.3-0.2,0.5-0.3s0.4-0.2,0.5-0.3l0.3-0.2c0.2-0.1,0.3-0.2,0.5-0.2c0.2-0.1,0.4-0.2,0.6-0.3l0.2-0.1
				c0.2-0.1,0.4-0.2,0.6-0.3s0.4-0.2,0.6-0.3l0.2-0.2c0.2-0.1,0.3-0.2,0.5-0.2c0.2-0.1,0.5-0.2,0.6-0.3l0.2-0.1
				c0.2-0.1,0.3-0.2,0.5-0.2c0.2-0.1,0.5-0.2,0.7-0.3l0.2-0.1c0.2-0.1,0.4-0.2,0.6-0.2c0.2-0.1,0.5-0.2,0.7-0.3l0.2-0.1
				c0.2-0.1,0.4-0.2,0.6-0.2c0.2-0.1,0.5-0.2,0.7-0.3h0.1c0.2-0.1,0.5-0.2,0.7-0.2c0.2-0.1,0.5-0.2,0.7-0.2h0.2
				c0.2-0.1,0.4-0.2,0.6-0.2c0.2-0.1,0.5-0.2,0.8-0.3c0.2-0.1,0.5-0.2,0.8-0.2c0.2-0.1,0.5-0.2,0.8-0.2c0.2-0.1,0.5-0.2,0.8-0.2
				c0.2-0.1,0.5-0.2,0.8-0.2c0.2-0.1,0.5-0.2,0.8-0.2c0.2-0.1,0.5-0.2,0.8-0.2c0.2-0.1,0.5-0.2,0.8-0.2c0.2-0.1,0.5-0.2,0.8-0.2
				c0.2-0.1,0.5-0.2,0.8-0.2c0.2-0.1,0.5-0.2,0.8-0.2h0.2c1.2,0,1.8-0.1,2.1-0.2c11.4,5.4,21.2,13.8,28.5,24.2
				c0,0.3,0.2,0.7,1.1,1.8l0.1,0.1c6.9,10.6,10.9,22.8,11.8,35.4c-0.1,0.2-0.2,0.6-0.1,1.3c0,0.2,0,0.6,0.2,0.8v2.4c0,0.9,0,2,0,3.1
				L461.1,298.5z"/>
			<path id="DDS:_DIFF_8_" class="st1" d="M419.5,359.6c-9.8,4.7-20.7,7.1-31.4,7.1c-40.3,0-73-32.8-73-73s32.8-73.1,73.1-73.1
				c8.5,0,16.7,1.5,24.6,4.2l-0.4,0.8c-0.4,0.1-0.8,0.2-1.1,0.4l-0.4,0.2c-0.5,0.2-1,0.3-1.5,0.5l-0.5,0.2c-0.3,0.1-0.7,0.2-1,0.4
				c-0.2,0-0.3,0.1-0.4,0.2l-0.2,0.1c-0.2,0.1-0.5,0.2-0.8,0.3c-0.2,0.1-0.3,0.2-0.5,0.2h-0.1c-0.2,0.1-0.5,0.2-0.8,0.3
				c-0.2,0.1-0.5,0.2-0.7,0.2c-0.2,0.1-0.5,0.2-0.8,0.3c-0.2,0.1-0.5,0.2-0.7,0.3s-0.5,0.2-0.8,0.4c-0.2,0.1-0.5,0.2-0.6,0.3
				c-0.2,0.1-0.5,0.2-0.8,0.4l-0.2,0.1c-0.2,0.1-0.3,0.2-0.5,0.2c-0.2,0.1-0.5,0.2-0.8,0.4l-0.2,0.2c-0.1,0.1-0.2,0.1-0.4,0.2
				c-0.3,0.2-0.7,0.3-1,0.5l-0.4,0.2c-0.5,0.2-0.9,0.5-1.3,0.8l-0.5,0.3c-0.2,0.2-0.5,0.3-0.8,0.5c-0.2,0.1-0.2,0.2-0.4,0.2L394,234
				c-0.2,0.2-0.5,0.3-0.8,0.5c-0.2,0.1-0.3,0.2-0.5,0.3l-0.1,0.1c-0.2,0.2-0.5,0.3-0.8,0.5c-0.2,0.1-0.4,0.2-0.6,0.4
				s-0.5,0.3-0.7,0.5c-0.2,0.1-0.4,0.2-0.6,0.4l-0.7,0.5c-0.2,0.1-0.3,0.2-0.5,0.3c-0.2,0.2-0.5,0.3-0.8,0.5l-0.2,0.1
				c-0.1,0.1-0.2,0.2-0.4,0.2c-0.2,0.2-0.5,0.4-0.8,0.5l-0.2,0.1c-0.1,0.1-0.2,0.2-0.3,0.2c-0.3,0.2-0.7,0.5-1,0.8l-0.2,0.2
				c-0.4,0.3-0.8,0.6-1.1,0.9c-0.1,0.1-0.2,0.2-0.2,0.2l-0.2,0.1c-0.2,0.2-0.5,0.4-0.8,0.6c-0.1,0.1-0.2,0.2-0.3,0.2l-0.1,0.1
				c-0.2,0.2-0.5,0.4-0.7,0.6c-0.2,0.1-0.2,0.2-0.4,0.3l-0.1,0.1c-0.2,0.2-0.5,0.4-0.7,0.5c-0.2,0.2-0.3,0.3-0.5,0.4
				c-0.2,0.2-0.4,0.4-0.6,0.6c-0.2,0.2-0.3,0.3-0.5,0.5s-0.4,0.4-0.6,0.6c-0.2,0.1-0.2,0.2-0.4,0.4l-1,1c-0.2,0.2-0.5,0.5-0.7,0.7
				l-0.3,0.3c-0.3,0.4-0.7,0.7-1,1.1c-11.5,12.5-17.5,27.3-17.5,43c0,16.4,7,32.5,19.6,45.2c0.4,0.4,0.8,0.8,1.1,1.1l0.4,0.4
				c0.2,0.2,0.5,0.5,0.8,0.8c0.1,0.1,0.2,0.2,0.3,0.3l0.2,0.1c0.2,0.2,0.5,0.5,0.7,0.7c0.2,0.1,0.3,0.2,0.4,0.4l0.1,0.1
				c0.2,0.2,0.5,0.4,0.7,0.6s0.3,0.2,0.5,0.4c0.2,0.2,0.5,0.4,0.7,0.6s0.4,0.3,0.5,0.5c0.2,0.2,0.5,0.4,0.7,0.5
				c0.2,0.2,0.4,0.3,0.5,0.5c0.2,0.2,0.5,0.4,0.8,0.5l0.1,0.1c0.2,0.1,0.3,0.2,0.5,0.4c0.2,0.2,0.5,0.4,0.8,0.5l0.2,0.1
				c0.2,0.1,0.2,0.2,0.4,0.3c0.3,0.2,0.5,0.4,0.8,0.6l0.2,0.1c0.1,0.1,0.2,0.2,0.3,0.2c0.4,0.2,0.8,0.5,1.1,0.8l0.2,0.2
				c0.5,0.3,0.9,0.6,1.4,0.9c0.1,0.1,0.2,0.1,0.3,0.2l0.2,0.1c0.3,0.2,0.6,0.4,0.9,0.5c0.2,0.1,0.2,0.2,0.4,0.2l0.2,0.1
				c0.2,0.2,0.5,0.3,0.8,0.5c0.2,0.1,0.4,0.2,0.5,0.3h0.1c0.2,0.2,0.5,0.3,0.8,0.5c0.2,0.1,0.5,0.2,0.7,0.4c0.2,0.2,0.5,0.3,0.8,0.5
				c0.2,0.1,0.5,0.2,0.7,0.3c0.2,0.2,0.5,0.3,0.8,0.4c0.2,0.1,0.5,0.2,0.7,0.3c0.2,0.2,0.5,0.2,0.8,0.4h0.1c0.2,0.1,0.4,0.2,0.5,0.2
				c0.2,0.1,0.5,0.2,0.8,0.4l0.2,0.1c0.2,0.1,0.3,0.2,0.5,0.2c0.3,0.2,0.6,0.2,0.9,0.4l0.2,0.1c0.2,0.1,0.2,0.1,0.4,0.2
				c0.4,0.2,0.8,0.3,1.1,0.5l0.5,0.2c0.5,0.2,1,0.4,1.5,0.6l0.6,0.2c0.3,0.1,0.6,0.2,1,0.4c0.2,0,0.3,0.1,0.5,0.2l0.2,0.1
				c0.3,0.1,0.6,0.2,0.9,0.3c0.2,0.1,0.3,0.1,0.5,0.2l0.2,0.1c0.3,0.1,0.6,0.2,0.9,0.3c0.2,0.1,0.5,0.2,0.7,0.2
				c0.3,0.1,0.6,0.2,0.9,0.3c0.2,0.1,0.5,0.2,0.7,0.2c0.3,0.1,0.6,0.2,0.9,0.3c0.2,0.1,0.5,0.2,0.7,0.2c0.3,0.1,0.6,0.2,1,0.2
				c0.2,0.1,0.5,0.1,0.7,0.2c0.3,0.1,0.7,0.2,1,0.2l0.2,0.1c0.2,0,0.3,0.1,0.5,0.1C419,359.5,419.3,359.6,419.5,359.6L419.5,359.6z"
				/>
			<path id="DDS:_DIFF_7_" class="st1" d="M392.9,195.2c-8.9,3.9-10.6,5.6-11.4,6.4c-3.7,3.9-5.8,9.3-6.2,16
				c-18.5,3-34.9,12.6-46.6,26.2c-4.4-1-10.8-1.9-18-0.6c-5.9,1.1-9.6,3.2-12.8,5c-3.1,1.8-5.7,3.2-9.3,3c-1.4,0-2.6-0.3-3.9-0.9
				c16.7-42.9,56.7-74.1,104.4-78.2c-0.5,4.6-0.6,12.5,2.7,20.9C392.2,193.7,392.5,194.4,392.9,195.2L392.9,195.2z"/>
			<path id="DDS:_DIFF_6_" class="st1" d="M309.7,295c0,17.9,6,34.3,16,47.5l-0.5,0.6c0,0-0.1,0.1-0.2,0.2l-0.1,0.1
				c0,0-0.1,0.1-0.2,0.2c0,0-0.1,0.1-0.2,0.2l-0.1,0.1l-0.1,0.1c0,0-0.1,0.1-0.2,0.2l-0.2,0.1l-0.1,0.1c-0.1,0-0.1,0.1-0.2,0.2
				l-0.2,0.1l-0.1,0.1c-0.1,0-0.2,0.1-0.2,0.2l-0.2,0.1l-0.1,0.1c-0.1,0-0.2,0.1-0.2,0.2l-0.2,0.1c0,0-0.1,0-0.1,0.1
				c-0.1,0.1-0.2,0.1-0.3,0.2l-0.2,0.1c0,0-0.1,0-0.1,0.1c-0.1,0.1-0.2,0.1-0.4,0.2l-0.1,0.1h-0.1c-0.2,0.1-0.3,0.2-0.5,0.2
				l-0.2,0.1c-0.2,0.1-0.5,0.2-0.7,0.2c-3.3,1.2-5.7,0.8-9.2,0.2c-2.9-0.5-6.4-1.1-11.8-1.1H289c-0.2,0-0.4,0-0.6,0.1h-0.3
				c-0.3,0-0.6,0.1-0.8,0.1h-0.1c-6.9-15.4-10.7-32.4-10.7-50.3c0-15.1,2.7-29.6,7.7-43c1.5,0.6,3.1,0.9,4.7,1
				c4.1,1.1,7.1-0.6,10.5-2.5c3.1-1.8,6.5-3.7,11.9-4.7c5-1,10.3-0.8,15.7,0.3C316.1,259.5,309.7,276.5,309.7,295L309.7,295z"/>
			<path id="DDS:_DIFF_5_" class="st1" d="M388.5,394c-0.2,0.3-0.3,0.5-0.5,0.8c-0.1,0.1-0.2,0.2-0.2,0.4l-0.2,0.2
				c-0.1,0.2-0.2,0.4-0.3,0.6c-0.2,0.4-0.4,0.7-0.5,1.1c-0.1,0.1-0.1,0.2-0.2,0.4l-0.1,0.1c-0.1,0.2-0.2,0.4-0.2,0.5
				c-0.1,0.2-0.2,0.5-0.3,0.7l-0.1,0.2c-1.9,4.2-3.1,8.7-3.7,13.5l-0.1,0.5c0.3,1.5,0.4,3,0.4,4.3c-41.5-5.8-76.4-32.3-94-68.6h2.4
				l8-0.1c1.2,0,2.4,0,3.5,0.1c3.3,0.2,5.7,0.6,7.8,0.9c0.4,0.1,0.8,0.2,1.1,0.2l0.5,0.1c0.2,0,0.3,0,0.5,0.1h0.2
				c0.2,0,0.3,0,0.5,0.1h2.5c0,0,0.1,0,0.2,0h2.2c0.1,0,0.2,0,0.3-0.1h0.2c0.1,0,0.1,0,0.2,0s0.2-0.1,0.4-0.1h0.2c0,0,0.1,0,0.2,0
				c0.2,0,0.3-0.1,0.5-0.2h0.2c0.2-0.1,0.5-0.2,0.7-0.2c0.2-0.1,0.5-0.2,0.8-0.3c0.1,0,0.1,0,0.2-0.1l0.2-0.1
				c0.2-0.1,0.3-0.1,0.4-0.2c0.1,0,0.2-0.1,0.2-0.1l0.2-0.1c0.1-0.1,0.2-0.1,0.3-0.2c0.1,0,0.2-0.1,0.2-0.1l0.1-0.1
				c0.1-0.1,0.2-0.1,0.3-0.2c0.1,0,0.2-0.1,0.2-0.2l0.1-0.1c0.1-0.1,0.2-0.1,0.3-0.2c0.1-0.1,0.2-0.1,0.2-0.2
				c0.1-0.1,0.2-0.2,0.3-0.2c0.1-0.1,0.2-0.1,0.2-0.2c0.1-0.1,0.2-0.2,0.3-0.2c0.1-0.1,0.2-0.2,0.2-0.2c0.1-0.1,0.2-0.2,0.2-0.2
				c0.1-0.1,0.2-0.2,0.2-0.2c0.1-0.1,0.2-0.2,0.2-0.2c0.1-0.1,0.2-0.2,0.2-0.2c0.1-0.1,0.2-0.2,0.2-0.2c0.1-0.1,0.2-0.2,0.2-0.2
				c0.1-0.1,0.2-0.2,0.2-0.2c0.1-0.1,0.1-0.1,0.2-0.2s0.2-0.2,0.2-0.2l0.2-0.2c0.1-0.1,0.1-0.1,0.2-0.2c12.3,15,30,25.4,50.2,28.1
				C377.6,378.1,379.4,387.1,388.5,394L388.5,394z"/>
			<path id="DDS:_DIFF_4_" class="st1" d="M445.9,409.7c-1.2,0.5-2.3,0.9-3.5,1.3c-2.1-2.5-6-6.7-11.4-9c-3.2-1.5-5.3-1.5-8.9-1.5
				c-3.1,0-7.3-0.1-14.1-0.9c-2.9-0.3-5.4-0.8-7.3-1.2c-1,0.7-1.8,1.2-2.6,1.8c-3.1,2.1-4.9,3.2-6.9,6c-3.2,4.3-4.3,8.9-4.7,11.7
				c-1.3-0.1-2.6-0.3-3.8-0.5c-0.1-1.3-0.2-2.9-0.4-4.3l0.1-0.5c0.5-4.7,1.8-9.3,3.7-13.5l0.1-0.2c0.1-0.2,0.2-0.5,0.3-0.7
				c0.1-0.2,0.2-0.4,0.2-0.5l0.1-0.1c0.1-0.2,0.1-0.3,0.2-0.4c0.2-0.4,0.4-0.7,0.5-1.1c0.1-0.2,0.2-0.5,0.3-0.6l0.2-0.2
				c0.1-0.2,0.2-0.3,0.2-0.4c0.2-0.3,0.4-0.5,0.5-0.8c-9.1-6.9-10.8-15.9-10.9-21.2c1.1,0.2,2.3,0.3,3.4,0.4
				c2.4,0.2,4.8,0.3,7.2,0.3c0.5,0,1.1,0,1.6,0c1.1,0,2.1-0.1,3.2-0.1c5.5-0.3,10.8-1.2,15.9-2.6c0.9-0.2,1.7-0.5,2.6-0.7
				c2.4-0.8,4.8-1.6,7.1-2.6c0.8-0.3,1.6-0.7,2.4-1.1c1.1,6,0.6,11.4-1.8,15.8c-0.2,0.5-0.7,1.3-1.8,2.6c1.3,1.1,2.7,1.7,4.5,2.6
				c1.5,0.7,3.1,1.5,4.8,2.4C437.3,396,443.7,405.9,445.9,409.7L445.9,409.7z"/>
			<path id="DDS:_DIFF_3_" class="st1" d="M496.5,371.9c-0.7,0.8-1.3,1.6-2,2.4c-0.2-0.3-0.5-0.5-0.7-0.8c-0.5-0.6-1.1-1.2-1.8-1.9
				c-0.3-0.2-0.6-0.4-1.1-0.8c-2.1-1.6-7.3-5.2-14.3-5.8c-3.4-0.3-5.4,0.3-9,1.3c-2.4,0.6-5.6,1.5-10.4,2.5c-1.5,4-2.6,6.7-3.6,8.8
				c-1.5,3.5-2.4,5.4-2.6,8.8c-0.5,7,2.4,12.6,3.5,15c0.2,0.3,0.3,0.6,0.4,0.8c0.6,0.8,1.3,1.6,2,2.4c-0.9,0.5-1.7,0.9-2.6,1.3
				c-0.6-0.7-1.2-1.4-1.7-2.2c-2-1.9-9.3-11.7-10.2-25.1c-0.2-2-0.1-3.7-0.1-5.1v-2.9c-1.1-0.1-1.8-0.2-2.2-0.3
				c-4.3-1.1-8.4-3.7-11.9-7.7c0.7-0.4,1.5-0.9,2.2-1.3c0.8-0.5,1.5-1,2.3-1.5c0.9-0.6,1.8-1.2,2.6-1.9c5.8-4.3,10.9-9.4,15.3-15.1
				c0.7-0.9,1.4-1.8,2-2.8c0.2-0.3,0.4-0.6,0.6-0.9c0.5-0.8,1-1.5,1.5-2.3c4.2,4.3,6.6,9.2,7,14.2c0.1,0.6,0.2,1.4-0.1,3
				c1.1,0.3,2.4,0.5,3.7,0.6c1.5,0.2,3.1,0.5,5,0.8c12.8,2.8,20.8,10.9,22.4,12.5c1.2,1.1,2.4,2.4,3.4,3.5
				C496.3,371.6,496.4,371.7,496.5,371.9L496.5,371.9z"/>
			<path id="DDS:_DIFF_2_" class="st1" d="M522.7,306.5c-0.1,1-0.2,2-0.3,3c-0.6-0.3-1.2-0.6-1.8-0.9c-1.5-0.6-3-1.1-4.5-1.6
				c-0.2,0-0.6-0.1-1.1-0.1c-2.6-0.2-8.9-0.8-15.2,2.4c-3.1,1.5-4.5,3.1-7.1,5.8c-1.5,1.6-3.3,3.5-6,6c0.6,3.1,1,5.5,1.3,7.5
				c0.6,3.7,0.9,5.8,2.6,8.8c3.5,6.2,8.9,9.3,11.1,10.6h0.1c1.9,0.8,3.8,1.5,5.7,1.9c0.9,0.2,1.7,0.4,2.6,0.5
				c-0.4,0.9-0.9,1.8-1.4,2.7c-0.6-0.1-1.2-0.2-1.7-0.3c-1.7-0.4-3.4-0.9-5.1-1.6c-2.1-0.3-14-4.2-22.6-15.7
				c-1.1-1.6-2.1-3.1-2.8-4.3c-0.2-0.3-0.5-0.7-0.7-1c-2.6,1.8-3.7,2.2-4.5,2.4c-4.2,1.3-9,1.2-14.1-0.4c0.4-0.8,0.8-1.5,1.2-2.3
				c0.8-1.7,1.6-3.3,2.3-5c0.4-1,0.8-1.9,1.1-2.9c2.1-5.6,3.5-11.5,4.2-17.6c0.1-1.1,0.2-2.2,0.3-3.3c0.1-1.5,0.2-3.1,0.2-4.6
				c0-0.5,0-1,0-1.6c0-0.4,0-0.7,0-1.1c6,1.4,10.7,4.2,13.7,8.2c0.5,0.6,1.3,1.7,2.5,5c0.5-0.2,1.1-0.5,1.8-0.8
				c1.4-0.6,2.9-1.3,4.7-1.9c10.9-3.7,21.6-2.1,26.3-0.4c2.1,0.5,4.2,1.2,6.2,2.1C522.2,306.3,522.5,306.4,522.7,306.5L522.7,306.5z
				"/>
			<path id="DDS:_DIFF_1_" class="st1" d="M522.2,278.7c-3.3,1.5-6.8,2.6-10.5,2.9h-0.4v-0.1c-3.4,0.7-13.5,2.2-24.4-1.9
				c-1.8-0.7-3.3-1.4-4.6-2c-1.9,5-3,6.2-3.7,7c-2.9,3.2-7,5.6-12.1,6.8c0-0.9-0.1-1.9-0.2-2.8c-0.2-2.7-0.6-5.3-1-7.9
				c-0.2-1-0.4-2-0.6-3.1c-1.2-5.2-2.9-10.2-5-15l0,0c-0.5-1.1-1.1-2.3-1.6-3.4c-1-2-2.1-4-3.3-5.9c-0.5-0.7-0.9-1.5-1.4-2.2
				c3.3-1.2,6.6-1.8,9.5-1.8c2.4,0,4.7,0.4,6.8,1.1c0.9,0.3,2.5,0.8,6.8,4.4l0.1-0.2c0.9-1.1,1.9-2.6,3.1-4.1
				c8.2-9.6,19.2-13.4,22.8-14c1.8-0.6,3.7-1,5.5-1.2c0.5,0.9,1,1.8,1.5,2.7c-0.3,0-0.7,0.1-1,0.1c-1.5,0.2-3.1,0.5-4.5,1
				c-0.2,0.2-0.5,0.3-0.9,0.5c-2.4,1.1-8,3.9-11.9,9.9c-1.8,2.9-2.3,4.9-3.1,8.6c-0.4,1.6-0.8,3.6-1.5,6.1c1.7,1.8,3,3.2,4,4.4
				c2.5,2.8,3.9,4.4,6.9,6c6.3,3.4,12.5,3,15.1,2.9h1c0.5,0,0.8,0.1,1.1,0.2c2.4-0.5,4.7-1.3,6.9-2.4c0.1,0,0.1-0.1,0.2-0.1
				C521.9,276.6,522,277.6,522.2,278.7z"/>
			<path id="DDS:_DIFF" class="st1" d="M489.1,209.9c0,0.1-0.1,0.2-0.1,0.3c-0.6,1.2-1.4,2.4-2.2,3.4c0,0.2-0.1,0.2-0.1,0.3
				c-0.6,1.5-9.6,11.3-23.7,14.3c-1.5,0.3-2.7,0.5-3.7,0.6c1.5,7.4,1.1,9.3,0.9,10.5c-0.8,4.4-3.1,8.3-6.8,12
				c-0.5-0.7-1-1.5-1.5-2.2c-2-2.7-4.1-5.3-6.4-7.8c-0.7-0.8-1.5-1.5-2.2-2.3c-3.3-3.2-6.8-6.2-10.7-8.8c-1-0.7-2-1.4-3.1-2
				c-2.5-1.6-5.1-3-7.8-4.2c-0.9-0.4-1.8-0.8-2.7-1.2c-3.6-1.6-7.4-2.8-11.3-3.8c-1-0.3-2.1-0.5-3.2-0.7c-3.9-0.8-7.9-1.4-12-1.6
				c-1.3-0.1-2.5-0.1-3.8-0.1c-0.2,0-0.3,0-0.5,0c-3.5,0-6.9,0.2-10.2,0.7c-0.9,0.1-1.8,0.2-2.6,0.4c0.3-6.6,2.5-12.1,6.2-16
				c0.8-0.8,2.4-2.5,11.4-6.4c-0.4-0.8-0.7-1.5-1-2.2c-3.3-8.4-3.2-16.3-2.7-20.9c1.4-0.1,2.7-0.2,4.1-0.3c0.3,3.9,1.3,7.5,3.1,10.8
				c1.7,3,3.2,4.4,6.1,6.8c0.6,0.5,1.2,1.1,1.9,1.7c0.8-0.3,1.7-0.5,2.4-0.8c3.6-1.1,5.7-1.8,8.3-3.8c5.5-4.3,7.8-9.9,8.8-12.5
				c1.1,0.2,2.3,0.5,3.4,0.7c-0.1,0.4-0.2,0.7-0.3,1c-0.4,2.2-2.8,13.2-11.9,22.3c-0.6,0.5-1.1,1.1-1.8,1.7c6.7,7,7.4,9.2,7.9,10.3
				c1.1,2.8,1.4,6,1.1,9.4c3.2-3.3,6.7-5.4,10.6-6.3c1.1-0.3,3.1-0.8,10.5,0.4c0.1-1.1,0.2-2.4,0.5-3.7c2-12.1,8.9-20.2,10.9-22.4
				c0.4-0.7,1-1.5,1.6-2.1c0.9,0.5,1.8,1,2.7,1.5c0,0.5-0.3,0.9-0.9,1.7c-1.4,2.2-4.8,7.4-5,14.5c-0.1,3.4,0.5,5.4,1.8,8.9
				c0.3,1.1,0.8,2.5,1.3,4.1c1.6,0.5,3,0.8,4.1,1.1c3.6,1,5.7,1.6,9,1.3c3.6-0.3,6.6-1.4,9-2.5c2.4-1.2,4.2-2.4,5.3-3.2
				c1.1-1.2,2.1-2.6,2.8-4.1c0.2-0.4,0.4-0.7,0.6-1.1C487.7,208.4,488.4,209.1,489.1,209.9L489.1,209.9z"/>
			
				<polygon id="NLED:_x5F__x7B__x22_colorID_x22_:_x5B_0.89804_x2C_0.90196_x2C_0.09804_x5D__x2C__x22_target_x22_:3_x2C__x22_forceTarget_x22_:23_x7D_" class="st2" points="
				466.7,323.5 466.7,309.3 480.9,309.3 480.9,323.5 			"/>
			
				<polygon id="NLED:_x5F__x7B__x22_colorID_x22_:_x5B_0.89804_x2C_0.90196_x2C_0.09804_x5D__x2C__x22_target_x22_:3_x2C__x22_forceTarget_x22_:24_x7D_" class="st2" points="
				465.4,275.8 465.4,261.6 479.6,261.6 479.6,275.8 			"/>
			
				<polygon id="NLED:_x5F__x7B__x22_colorID_x22_:_x5B_0.89804_x2C_0.90196_x2C_0.09804_x5D__x2C__x22_target_x22_:3_x2C__x22_forceTarget_x22_:25_x7D_" class="st2" points="
				437.7,233.3 437.7,219.1 451.8,219.1 451.8,233.3 			"/>
			
				<polygon id="NLED:_x5F__x7B__x22_colorID_x22_:_x5B_0.89804_x2C_0.90196_x2C_0.09804_x5D__x2C__x22_target_x22_:3_x2C__x22_forceTarget_x22_:25_x7D__1_" class="st2" points="
				392.9,217 392.9,202.8 407.1,202.8 407.1,217 			"/>
			
				<polygon id="NLED:_x5F__x7B__x22_colorID_x22_:_x5B_0.89804_x2C_0.90196_x2C_0.09804_x5D__x2C__x22_target_x22_:3_x2C__x22_forceTarget_x22_:22_x7D_" class="st2" points="
				443.7,366.5 443.7,352.3 457.9,352.3 457.9,366.5 			"/>
			
				<polygon id="NLED:_x5F__x7B__x22_colorID_x22_:_x5B_0.89804_x2C_0.90196_x2C_0.09804_x5D__x2C__x22_target_x22_:3_x2C__x22_forceTarget_x22_:21_x7D_" class="st2" points="
				394.9,388 394.9,373.8 409,373.8 409,388 			"/>
			
				<polygon id="NLED:_x5F__x7B__x22_colorID_x22_:_x5B_1_x2C_1_x2C_1_x5D__x2C__x22_target_x22_:3_x2C__x22_forceTarget_x22_:16_x7D_" class="st3" points="
				390,301.5 390,287.4 404.2,287.4 404.2,301.5 			"/>
			
				<polygon id="NLED:_x5F__x7B__x22_colorID_x22_:_x5B_0.09804_x2C_0.36471_x2C_0.90196_x5D__x2C__x22_target_x22_:3_x2C__x22_forceTarget_x22_:17_x7D_" class="st4" points="
				346.1,254.4 346.1,240.2 360.3,240.2 360.3,254.4 			"/>
			
				<polygon id="NLED:_x5F__x7B__x22_colorID_x22_:_x5B_0.09804_x2C_0.63137_x2C_0.90196_x5D__x2C__x22_target_x22_:3_x2C__x22_forceTarget_x22_:19_x7D_" class="st5" points="
				285.7,304.2 285.7,290.1 299.9,290.1 299.9,304.2 			"/>
			
				<polygon id="NLED:_x5F__x7B__x22_colorID_x22_:_x5B_0.09804_x2C_0.63137_x2C_0.90196_x5D__x2C__x22_target_x22_:3_x2C__x22_forceTarget_x22_:20_x7D_" class="st5" points="
				338.5,391 338.5,376.8 352.7,376.8 352.7,391 			"/>
			
				<polygon id="NLED:_x5F__x7B__x22_colorID_x22_:_x5B_0.09804_x2C_0.63137_x2C_0.90196_x5D__x2C__x22_target_x22_:3_x2C__x22_forceTarget_x22_:18_x7D_" class="st5" points="
				329,220.7 329,206.5 343.2,206.5 343.2,220.7 			"/>
			
				<polygon id="NLED:_x5F__x7B__x22_colorID_x22_:_x5B_0.90196_x2C_0.36863_x2C_0.09804_x5D__x2C__x22_target_x22_:3_x2C__x22_forceTarget_x22_:15_x7D_" class="st6" points="
				402.2,417.9 402.2,403.7 416.4,403.7 416.4,417.9 			"/>
			
				<polygon id="NLED:_x5F__x7B__x22_colorID_x22_:_x5B_0.90196_x2C_0.36863_x2C_0.09804_x5D__x2C__x22_target_x22_:3_x2C__x22_forceTarget_x22_:14_x7D_" class="st6" points="
				433.7,399.6 433.7,385.4 447.8,385.4 447.8,399.6 			"/>
			
				<polygon id="NLED:_x5F__x7B__x22_colorID_x22_:_x5B_0.90196_x2C_0.36863_x2C_0.09804_x5D__x2C__x22_target_x22_:3_x2C__x22_forceTarget_x22_:12_x7D_" class="st6" points="
				462.3,391.9 462.3,377.7 476.5,377.7 476.5,391.9 			"/>
			
				<polygon id="NLED:_x5F__x7B__x22_colorID_x22_:_x5B_0.90196_x2C_0.36863_x2C_0.09804_x5D__x2C__x22_target_x22_:3_x2C__x22_forceTarget_x22_:11_x7D_" class="st6" points="
				498.8,338 498.8,323.8 512.9,323.8 512.9,338 			"/>
			
				<polygon id="NLED:_x5F__x7B__x22_colorID_x22_:_x5B_0.90196_x2C_0.36863_x2C_0.09804_x5D__x2C__x22_target_x22_:3_x2C__x22_forceTarget_x22_:13_x7D_" class="st6" points="
				484.6,362.7 484.6,348.5 498.8,348.5 498.8,362.7 			"/>
			
				<polygon id="NLED:_x5F__x7B__x22_colorID_x22_:_x5B_0.90196_x2C_0.36863_x2C_0.09804_x5D__x2C__x22_target_x22_:3_x2C__x22_forceTarget_x22_:9_x7D_" class="st6" points="
				496.9,266.7 496.9,252.5 511.1,252.5 511.1,266.7 			"/>
			
				<polygon id="NLED:_x5F__x7B__x22_colorID_x22_:_x5B_0.90196_x2C_0.36863_x2C_0.09804_x5D__x2C__x22_target_x22_:3_x2C__x22_forceTarget_x22_:10_x7D_" class="st6" points="
				504,299.6 504,285.4 518.2,285.4 518.2,299.6 			"/>
			
				<polygon id="NLED:_x5F__x7B__x22_colorID_x22_:_x5B_0.90196_x2C_0.36863_x2C_0.09804_x5D__x2C__x22_target_x22_:3_x2C__x22_forceTarget_x22_:8_x7D_" class="st6" points="
				479.8,237.7 479.8,223.5 494,223.5 494,237.7 			"/>
			
				<polygon id="NLED:_x5F__x7B__x22_colorID_x22_:_x5B_0.90196_x2C_0.36863_x2C_0.09804_x5D__x2C__x22_target_x22_:3_x2C__x22_forceTarget_x22_:7_x7D_" class="st6" points="
				459.5,210.2 459.5,196.1 473.7,196.1 473.7,210.2 			"/>
			
				<polygon id="NLED:_x5F__x7B__x22_colorID_x22_:_x5B_0.90196_x2C_0.36863_x2C_0.09804_x5D__x2C__x22_target_x22_:3_x2C__x22_forceTarget_x22_:6_x7D_" class="st6" points="
				429.7,194.6 429.7,180.5 443.9,180.5 443.9,194.6 			"/>
			
				<polygon id="NLED:_x5F__x7B__x22_colorID_x22_:_x5B_0.09804_x2C_0.36471_x2C_0.90196_x5D__x2C__x22_target_x22_:3_x2C__x22_forceTarget_x22_:17_x7D__1_" class="st4" points="
				356.9,349.9 356.9,335.7 371.1,335.7 371.1,349.9 			"/>
			
				<polygon id="NLED:_x5F__x7B__x22_colorID_x22_:_x5B_0.09804_x2C_0.36471_x2C_0.90196_x5D__x2C__x22_target_x22_:3_x2C__x22_forceTarget_x22_:17_x7D__2_" class="st4" points="
				332.5,309.3 332.5,295.1 346.7,295.1 346.7,309.3 			"/>
			
				<polygon id="NLED:_x5F__x7B__x22_colorID_x22_:_x5B_0.90196_x2C_0.36863_x2C_0.09804_x5D__x2C__x22_target_x22_:3_x2C__x22_forceTarget_x22_:5_x7D_" class="st6" points="
				399.6,186.1 399.6,171.9 413.8,171.9 413.8,186.1 			"/>
			
				<polygon id="NLED:_x5F__x7B__x22_colorID_x22_:_x5B_1_x2C_1_x2C_1_x5D__x2C__x22_target_x22_:3_x2C__x22_forceTarget_x22_:16_x7D__1_" class="st3" points="
				429.2,300.2 429.2,286 443.4,286 443.4,300.2 			"/>
		</g>
	</g>
</g>
<polyline id="CP:_CIRCUIT" class="st7" points="310.4,397.1 408.7,410.8 473.7,380.6 479.7,353.1 505.9,330.9 511.1,295.5 
	505.9,259.6 486.5,228.3 465.1,199.2 438.4,186.1 396.5,182.7 336.1,213.4 292.8,301.5 346.7,386 431.4,380.8 451.8,358.5 
	475.9,312.6 479.3,266.7 443.9,228.7 402.3,206.5 353.2,247.3 346.7,295.1 364,344.3 396.1,294.5 438.4,293.1 "/>
<rect id="MC:_MC" x="305.8" y="380.9" class="st6" width="9.3" height="23.1"/>
<rect id="BI:_BREAKIN_1_" x="310.5" y="389.9" class="st6" width="9.3" height="23.1"/>
</svg>
