<?xml version="1.0" encoding="utf-8"?>
<!-- Generator: Adobe Illustrator 19.2.1, SVG Export Plug-In . SVG Version: 6.00 Build 0)  -->
<svg version="1.1" id="DEVICE:_x7B__x27_id_x27_:0_x7D_"
	 xmlns="http://www.w3.org/2000/svg" xmlns:xlink="http://www.w3.org/1999/xlink" x="0px" y="0px" viewBox="0 0 384.6 542.5"
	 style="enable-background:new 0 0 384.6 542.5;" xml:space="preserve">
<style type="text/css">
	.st0{fill:#E8D915;}
	.st1{fill:#F29111;}
	.st2{fill:#A7A9AC;}
	.st3{fill:none;stroke:#E8D915;stroke-width:4;stroke-miterlimit:10;}
</style>
<g id="HEATER:_x7B__x27_resistance_x27_:60_x7D_">
	<circle id="CHROME:_chromicv" class="st0" cx="195.8" cy="138.9" r="64.7"/>
</g>
<g id="HEATER:_x7B__x27_resistance_x27_:30_x7D__5_">
	
		<rect id="CHROME:_Arm" x="93" y="148.5" transform="matrix(0.6262 -0.7797 0.7797 0.6262 -115.5157 164.0749)" class="st1" width="40.7" height="108.1"/>
</g>
<g id="HEATER:_x7B__x27_resistance_x27_:30_x7D__4_">
	
		<rect id="CHROME:_Arm_1_" x="67.4" y="201.1" transform="matrix(8.624594e-02 -0.9963 0.9963 8.624594e-02 -173.981 320.5835)" class="st1" width="40.7" height="108.1"/>
</g>
<g id="HEATER:_x7B__x27_resistance_x27_:30_x7D__3_">
	
		<rect id="CHROME:_Arm_2_" x="41.4" y="285.2" transform="matrix(0.957 -0.29 0.29 0.957 -84.5133 40.8257)" class="st1" width="108.1" height="40.7"/>
</g>
<g id="HEATER:_x7B__x27_resistance_x27_:30_x7D__2_">
	
		<rect id="CHROME:_Arm_3_" x="218.2" y="187.8" transform="matrix(0.7827 -0.6224 0.6224 0.7827 -70.3861 214.6483)" class="st1" width="108.1" height="40.7"/>
</g>
<g id="HEATER:_x7B__x27_resistance_x27_:30_x7D__1_">
	
		<rect id="CHROME:_Arm_4_" x="235.5" y="238" transform="matrix(0.9972 -7.472646e-02 7.472646e-02 0.9972 -18.4952 22.3608)" class="st1" width="108.1" height="40.7"/>
</g>
<g id="HEATER:_x7B__x27_resistance_x27_:30_x7D_">
	
		<rect id="CHROME:_Arm_5_" x="272.7" y="249.8" transform="matrix(0.2855 -0.9584 0.9584 0.2855 -81.8158 497.8899)" class="st1" width="40.7" height="108.1"/>
</g>
<path id="JOULE:__x7B__x27_resistance_x27_:30_x7D__2_" class="st2" d="M384.6,317.8v137.5l-28.8,47.5l-0.2,32.7h-29.8v-33.9h19.8
	l29.6-48.9V324.6c-9.1-2.9-34.3-11.1-38.1-12.2l-1-0.3c-0.1,0-0.2-0.1-0.3-0.1l-3.3,12c-0.6,2-1.4,4.8-4.4,5.8c-2,0.7-3.9,0.2-7-0.7
	l-1.1-0.3c-3.4-0.9-5.7-1.5-7-3.9c-1.3-2.2-0.7-4.4-0.2-6.4l3.4-12.1c-0.1,0-0.2-0.1-0.4-0.1l-1-0.3c-0.1,0-0.2-0.1-0.3-0.1l-3.3,12
	c-0.6,2-1.3,4.8-4.4,5.8c-2.1,0.7-3.9,0.2-7-0.7l-1.1-0.3c-3.4-0.9-5.7-1.5-7-3.9c-1.3-2.2-0.7-4.4-0.2-6.4l3.4-12.1
	c-0.1,0-0.2-0.1-0.4-0.1l-1-0.3c-0.1,0-0.2-0.1-0.3-0.1l-3.4,12c-0.6,2-1.3,4.8-4.4,5.8c-2,0.7-3.9,0.2-7-0.7l-1.1-0.3
	c-3.4-0.9-5.7-1.5-7-3.9c-1.3-2.2-0.7-4.4-0.1-6.4l3.4-12.1c-0.1,0-0.2-0.1-0.4-0.1l-1-0.3c-0.1,0-0.2-0.1-0.3-0.1l-3.3,12
	c-0.6,2-1.4,4.8-4.4,5.8c-2,0.7-3.9,0.2-7-0.7l-1.1-0.3c-3.4-0.9-5.7-1.5-7-3.9c-1.3-2.2-0.7-4.4-0.2-6.4l3.4-12.1
	c-0.1,0-0.2-0.1-0.4-0.1l-1-0.3c-0.1,0-0.1,0-0.2-0.1l-5.3,26.2c2.8,10.1,39.1,98.8,63.4,157.3l0.4,0.9v29.1h9.8l-0.1,33.9h-30
	l0.1-33.9h10.3v-27.3c-2.5-6-17.3-41.8-31.9-77.6c-31.9-78.2-32.4-81.4-31.8-83.6l5.8-28.9c0.6-2,1.2-4.1,4.3-5.1
	c1-0.3,2-0.5,3.1-0.4v0.1c1.2,0.8,2.5,1,4.1,1l0.9,0.2c3.2,0.9,5,1.5,6.4,3.1c2.1,2.5,1.5,4.5,0.9,6.6l-3.4,12.1
	c0.1,0,0.2,0,0.3,0.1l1.1,0.3c0.1,0,0.2,0.1,0.3,0.1l3.4-12c0.6-2,1.3-4.8,4.4-5.8c2-0.7,3.9-0.2,7,0.7l1.1,0.3
	c3.2,0.9,5,1.5,6.4,3.1c2.1,2.5,1.3,5.2,0.8,7.3l-3.4,12c0.1,0,0.2,0,0.3,0.1l1.1,0.3c0.1,0,0.2,0.1,0.3,0.1l3.3-12
	c0.6-2,1.4-4.8,4.4-5.8c2-0.7,3.9-0.2,7,0.7l1.1,0.3c3.2,0.9,5,1.5,6.4,3.1c2.1,2.5,1.3,5.2,0.8,7.3l-3.4,12c0.1,0,0.2,0,0.3,0.1
	l1.1,0.3c0.1,0,0.2,0.1,0.3,0.1l3.4-12c0.6-2,1.3-4.8,4.4-5.8c2-0.7,3.9-0.2,7,0.7l1.1,0.3c3.2,0.9,5,1.5,6.4,3.1
	c2.1,2.5,1.3,5.2,0.8,7.2l-3.4,12.1c0.1,0,0.2,0,0.3,0.1l1.1,0.3c0.1,0,0.2,0.1,0.3,0.1l3.3-12c0.6-2,1.4-4.8,4.4-5.8
	c2-0.7,3.9-0.2,7,0.7l1.1,0.3c3.4,1,23.5,7.5,35.6,11.4C380.4,316.4,384.1,317.7,384.6,317.8z"/>
<path id="JOULE:__x7B__x27_resistance_x27_:30_x7D__1_" class="st2" d="M384.6,245.2v210.2l-28.8,47.5l-0.2,32.7h-29.8v-33.9h19.8
	l29.6-48.9v-198l-40.9,2.7l-0.2-2.8c-0.1,0-0.2,0-0.3,0l-1,0.1c-0.1,0-0.3,0-0.4,0l0.8,10.4c0.5,7.5-4.4,7.9-9.1,8.3l-1,0.1
	c-3.8,0.3-6.1,0.5-8.1-1.3c-1.9-1.7-2.1-3.8-2.2-5.6l-0.8-10.3c-0.1,0-0.2,0-0.3,0l-1,0.1c-0.1,0-0.3,0-0.4,0L311,267
	c0.5,7.5-4.4,7.9-9.1,8.3l-1,0.1c-3.8,0.3-6.1,0.5-8.1-1.3c-1.9-1.7-2.1-3.8-2.2-5.6l-0.8-10.3c-0.1,0-0.2,0-0.3,0l-1,0.1
	c-0.1,0-0.3,0-0.4,0l0.8,10.4c0.5,7.5-4.4,7.9-9.1,8.3l-1,0.1c-3.8,0.3-6.1,0.5-8.1-1.3c-1.9-1.7-2.1-3.8-2.2-5.6l-0.8-10.3
	c-0.1,0-0.2,0-0.3,0l-1.1,0.1c-0.1,0-0.3,0-0.4,0l0.8,10.4c0.5,7.5-4.4,7.9-9.1,8.3l-1,0.1c-1.2,0.1-2.3,0.2-3.3,0.2l-0.2-0.1
	c-1.6-0.4-2.8-0.8-3.9-0.9l0,0c-0.2-0.1-0.5-0.3-0.7-0.5c-1.9-1.6-2.1-3.8-2.2-5.6l-0.8-10.3c-0.1,0-0.2,0-0.3,0l-1,0.1
	c-0.1,0-0.3,0-0.4,0l0.8,10.4c0.1,1.6-0.4,3.2-1.5,4.4c-2.4,2.6-6.5,2.8-12.8,2.8l7.1,116.2l20,53.7l0.1,0.3l11.5,51.9h14l-0.1,33.9
	h-30l0.1-33.9h6L248,452l-20.2-54.4l-7.7-127l4.6-0.4c1.5-0.1,3.2-0.1,5.1-0.1c1.4,0,3.5,0,5.1-0.1l-0.7-9.1
	c-0.5-7.5,4.4-7.9,9.1-8.3l1.1-0.1c3.8-0.3,6.1-0.5,8.1,1.3c1.9,1.6,2.1,3.8,2.2,5.6l0.8,10.3c0.1,0,0.2,0,0.3,0l1-0.1
	c0.1,0,0.3,0,0.4,0l-0.8-10.4c-0.5-7.5,4.4-7.9,9.1-8.3l1-0.1c3.8-0.3,6.1-0.5,8.1,1.3c1.9,1.6,2.1,3.8,2.2,5.6l0.8,10.3
	c0.1,0,0.2,0,0.3,0l1-0.1c0.1,0,0.3,0,0.4,0l-0.8-10.4c-0.5-7.5,4.4-7.9,9.1-8.3l1-0.1c3.8-0.3,6.1-0.5,8.1,1.3
	c1.9,1.7,2.1,3.8,2.2,5.6l0.8,10.3c0.1,0,0.2,0,0.3,0l1-0.1c0.1,0,0.3,0,0.4,0l-0.8-10.4c-0.5-7.5,4.4-7.9,9.1-8.3l1-0.1
	c3.8-0.3,6.1-0.5,8.1,1.3c1.9,1.7,2.1,3.8,2.2,5.6l0.8,10.3c0.1,0,0.2,0,0.3,0l1.1-0.1c0.1,0,0.3,0,0.4,0l-0.8-10.4
	c-0.5-7.5,4.4-7.9,9.1-8.3l1-0.1c3.8-0.3,6.1-0.5,8.1,1.3c0.4,0.3,0.7,0.6,0.9,1l33.1-1.9L384.6,245.2z"/>
<path id="JOULE:__x7B__x27_resistance_x27_:30_x7D_" class="st2" d="M384.6,164.7v291.1l-28.8,47.5l-0.2,32.7h-29.8v-33.9h19.8
	l29.6-48.9v-279l-68,1.5l-0.2-0.3c-0.1,0.1-0.2,0.1-0.3,0.2l-0.9,0.7c-0.1,0-0.1,0.1-0.2,0.2l6,7.3c1.1,1.3,3,3.7,1.7,6.9
	c-0.7,1.8-2,2.8-4.5,4.9l-1,0.8c-2.9,2.4-4.7,3.8-7.4,3.5c-2.5-0.3-3.8-2-4.8-3.3l-6-7.3c-0.1,0.1-0.2,0.1-0.3,0.2l-0.9,0.7
	c-0.1,0-0.1,0.1-0.2,0.2l6,7.3c1.1,1.3,3,3.7,1.7,6.9c-0.7,1.8-1.9,2.8-4.4,4.9l-1,0.8c-2.9,2.4-4.7,3.8-7.4,3.5
	c-2.5-0.3-3.8-2-4.8-3.3l-5.9-7.3c-0.1,0.1-0.2,0.1-0.3,0.2l-0.9,0.7c-0.1,0-0.1,0.1-0.2,0.2l6,7.3c1.1,1.3,3,3.7,1.8,6.9
	c-0.7,1.8-2,2.8-4.5,4.9l-1,0.8c-2.9,2.4-4.7,3.8-7.4,3.5c-2.5-0.3-3.8-2-4.8-3.3l-6-7.3c-0.1,0.1-0.2,0.1-0.3,0.2l-0.9,0.7
	c-0.1,0-0.1,0.1-0.2,0.2l6,7.3c1.1,1.3,3,3.7,1.7,6.9c-0.7,1.8-2,2.8-4.4,4.9l-1,0.8c-2.9,2.4-4.7,3.8-7.4,3.5
	c-2.5-0.3-3.8-2-4.8-3.3l-6-7.3c-0.1,0.1-0.2,0.1-0.3,0.2l-0.9,0.7c-0.1,0-0.1,0.1-0.2,0.2l6,7.3c1.1,1.3,3,3.7,1.7,6.9
	c-0.7,1.8-1.9,2.8-4.4,4.9l-0.4,0.4L213,264.8l3.7,151.3l17,56.5v0.5l2,28.6h11.8l-0.1,33.9h-30l0.1-33.9h8.9l-1.9-27.5l-17-56.7
	v-0.6L203.6,259l30.5-15.3l-5.9-7.2c-1-1.2-2.5-2.9-2.2-5.4c0.2-2.7,2-4.1,5-6.5l1-0.8c2.5-2,3.8-3,5.7-3.4c3.4-0.6,5.4,1.8,6.4,3.1
	l6,7.3c0.1-0.1,0.1-0.1,0.2-0.2l0.9-0.7c0.1-0.1,0.2-0.1,0.2-0.2l-6-7.3c-1-1.2-2.5-2.9-2.2-5.4c0.2-2.7,2-4.1,5-6.5l1-0.8
	c2.5-2,3.8-3,5.7-3.4c3.4-0.6,5.4,1.8,6.4,3.1l6,7.3c0.1-0.1,0.2-0.1,0.2-0.2l0.9-0.7c0.1-0.1,0.2-0.1,0.2-0.2l-6-7.3
	c-1-1.2-2.5-2.9-2.2-5.4c0.2-2.7,2-4.1,4.9-6.5l1-0.8c2.5-2,3.8-3,5.7-3.4c3.4-0.6,5.4,1.8,6.4,3.1l6,7.3c0.1-0.1,0.2-0.1,0.2-0.2
	l0.9-0.7c0.1-0.1,0.1-0.1,0.2-0.2l-6-7.3c-1.1-1.2-2.5-2.9-2.2-5.4c0.2-2.7,2-4.1,5-6.5l1-0.8c2.5-2,3.8-3,5.7-3.4
	c3.4-0.6,5.4,1.8,6.4,3.1l6,7.3c0.1-0.1,0.2-0.1,0.2-0.2l0.9-0.7c0.1-0.1,0.1-0.1,0.2-0.2l-6-7.3c-1-1.2-2.4-2.9-2.2-5.4
	c0.2-2.7,2-4.1,5-6.5l1-0.8c2.5-2,3.8-3,5.7-3.4c2.1-0.4,3.6,0.4,4.8,1.3l20.2-0.4l12.7-0.3l31-0.7l4.6-0.1h4.9V164.7z"/>
<path id="JOULE:__x7B__x27_resistance_x27_:60_x7D_" class="st2" d="M149.2,120.9v1.8h103.1c7.6,0,8.2,4,8.2,9.7v1.1
	c0,5.7-0.6,9.7-8.2,9.7H149.2v1.8h103.1c7.6,0,8.2,4,8.2,9.7v1.1c0,5.7-0.6,9.7-8.2,9.7H149.2v1.8h103.1c7.6,0,8.2,4,8.2,9.7v1.1
	c0,5.7-0.6,9.7-8.2,9.7H149.2v1.9l45.8,11.8h1.4l1.5,1.5c1.7,1.8,2.3,2.4,1.8,32.9c-0.2,16-0.8,38.7-1.6,67.5
	c-1.5,51.8-3.7,112.5-4.9,145.1c-0.5,13-0.8,22.7-0.9,25.3l7.6,28.3h12.7l-0.1,33.9h-30l0.1-33.9h7.6l-7.3-27.1v-0.6
	c0-1,0.3-8.7,0.9-26.2c2-54.4,7.8-215.1,6.5-238.2l-42.9-11c-7-0.2-7.5-4.2-7.5-9.7v-1.1c0-5.7,0.6-9.7,8.2-9.7h103.1v-1.8H148
	c-7.6,0-8.2-4-8.2-9.7v-1.1c0-5.7,0.6-9.7,8.2-9.7h103.1v-1.8H148c-7.6,0-8.2-4-8.2-9.7v-1.1c0-5.7,0.6-9.7,8.2-9.7h103.1V132H148
	c-7.6,0-8.2-4-8.2-9.7v-1.1c0-5.7,0.6-9.7,8.2-9.7h103.1v-1.8H148c-7.6,0-8.2-4-8.2-9.7v-1.5c0-5.4,0.8-9.2,8.2-9.2h48V33.9h-10.3V0
	h30l-0.2,33.9h-10.1v64.8h-56.2v1.8h103.1c7.6,0,8.2,4,8.2,9.7v1.1c0,5.7-0.6,9.7-8.2,9.7L149.2,120.9L149.2,120.9z"/>
<path id="JOULE:__x7B__x27_resistance_x27_:30_x7D__3_" class="st2" d="M186.1,305.6l-19.9,168.3l0.4,27.8h10.7l-0.1,33.9h-30
	l0.1-33.9h10l-0.4-28.2v-0.3l19.8-168.1l-3.8-48.8c-2.8-0.8-7.8-1.7-11.4-2.4c-14.9-2.8-19.9-4.1-21.4-8.2c-0.7-1.8-0.3-3.9,1-5.5
	l14.1-17.2c0.2-0.2,0.3-0.4,0.5-0.6c0,0-0.1-0.1-0.2-0.1l-1-0.7c-0.1-0.1-0.2-0.1-0.3-0.2c-0.2,0.2-0.3,0.4-0.4,0.5L139.7,239
	c-2.2,2.7-3.8,4.7-6.7,5c-2.8,0.3-4.7-1.3-7.2-3.3l-1-0.7c-2.5-2-4.4-3.6-4.7-6.5c-0.3-2.9,1.4-4.8,3.7-7.5l14-17.1
	c0.2-0.2,0.3-0.4,0.5-0.6c0,0-0.1-0.1-0.2-0.1l-0.9-0.7c-0.1-0.1-0.2-0.1-0.3-0.2c-0.2,0.2-0.3,0.4-0.4,0.5l-14,17.1
	c-2.2,2.7-3.8,4.7-6.6,5c-2.8,0.3-4.7-1.3-7.2-3.3l-0.9-0.7c-2.5-2-4.4-3.6-4.7-6.5c-0.3-2.9,1.4-4.8,3.7-7.5l14-17.1
	c0.1-0.2,0.3-0.4,0.5-0.6c-0.1,0-0.1-0.1-0.2-0.1l-1-0.7c-0.1-0.1-0.2-0.1-0.3-0.2c-0.1,0.2-0.3,0.4-0.4,0.5l-14.1,17.2
	c-2.2,2.7-3.8,4.7-6.6,5c-2.8,0.3-4.7-1.3-7.2-3.3l-1-0.7c-2.5-2-4.4-3.6-4.7-6.5c-0.3-2.9,1.4-4.8,3.7-7.5l14-17.1
	c0.2-0.2,0.3-0.4,0.5-0.6c0,0-0.1-0.1-0.2-0.1l-1-0.7c-0.1-0.1-0.2-0.1-0.3-0.2c-0.2,0.2-0.3,0.4-0.4,0.5L88,196.9
	c-2.2,2.7-3.8,4.7-6.7,5c-2.8,0.3-4.7-1.3-7.2-3.3l-0.9-0.7c-2.5-2-4.4-3.6-4.7-6.5c-0.3-2.9,1.4-4.8,3.7-7.5l14-17.1
	c0.2-0.2,0.3-0.4,0.5-0.6c0,0-0.1-0.1-0.2-0.1l-0.9-0.7c-0.1-0.1-0.2-0.1-0.3-0.2c-0.2,0.2-0.3,0.4-0.4,0.5l-1.4,1.8l-46-1l-3.2-0.1
	l-23.9-0.5v294.4L48,501.6h24l-0.1,33.9H42V509L1.2,463.8V335.2L0,333.4l1.2-0.1v-177H6l4.6,0.1l24,0.5l14.8,0.3l30,0.7
	c1.5-1.8,3-3,5.2-3.2c2.8-0.3,4.7,1.3,7.2,3.3l0.9,0.7c2.4,1.9,4.4,3.6,4.6,6.6c0.1,2.7-1.3,4.5-3.5,7.3l-14.1,17.2
	c-0.1,0.2-0.3,0.4-0.5,0.5c0.1,0.1,0.1,0.1,0.2,0.1l1,0.7c0.1,0.1,0.2,0.1,0.3,0.2c0.1-0.2,0.3-0.4,0.4-0.5l14.1-17.2
	c2.2-2.7,3.8-4.7,6.6-5c2.8-0.3,4.7,1.3,7.2,3.3l0.9,0.7c2.4,1.9,4.5,3.6,4.6,6.6c0.1,2.7-1.3,4.5-3.5,7.3l-14.1,17.2
	c-0.2,0.2-0.3,0.4-0.5,0.5c0.1,0.1,0.1,0.1,0.2,0.1l0.9,0.7c0.1,0.1,0.2,0.1,0.3,0.2c0.2-0.2,0.3-0.4,0.4-0.5l14.1-17.2
	c2.2-2.7,3.8-4.7,6.7-5c2.8-0.3,4.7,1.3,7.2,3.3l0.9,0.7c2.4,1.9,4.5,3.6,4.6,6.6c0.2,2.7-1.3,4.5-3.5,7.3L114,217.9
	c-0.2,0.2-0.3,0.4-0.5,0.5c0.1,0.1,0.1,0.1,0.2,0.1l0.9,0.7c0.1,0.1,0.2,0.1,0.3,0.2c0.2-0.2,0.3-0.4,0.4-0.5l14-17.1
	c2.2-2.7,3.8-4.7,6.6-5s4.7,1.3,7.2,3.3l0.9,0.7c2.4,2,4.4,3.6,4.6,6.6c0.1,2.7-1.3,4.5-3.5,7.3l-14,17.3c-0.1,0.2-0.3,0.4-0.5,0.5
	c0.1,0,0.1,0.1,0.2,0.1l1,0.7c0.1,0.1,0.2,0.1,0.3,0.2c0.1-0.2,0.3-0.4,0.4-0.5l14.1-17.2c2.2-2.7,3.8-4.7,6.6-5s4.7,1.3,7.2,3.3
	l0.9,0.7c2.4,2,4.5,3.6,4.6,6.6c0.1,2.7-1.3,4.5-3.5,7.3l-11,13.4c3.4,0.9,8.4,1.8,11.8,2.5c10.3,2,14.8,2.9,17.1,4.8l1.5,1.3
	l4.3,54.4L186.1,305.6z"/>
<path id="JOULE:__x7B__x27_resistance_x27_:30_x7D__4_" class="st2" d="M132,501.6h10.2l-0.1,33.9h-30l0.1-33.9h10.1L164.8,292
	l-5.1-21.5c-6.4-0.3-10.5-0.7-12.9-3.4c-0.3-0.3-0.6-0.7-0.8-1.1l-9.3-6.2l0.1-1c-0.1,0-0.3,0-0.4,0l-1.1-0.1c-0.1,0-0.2,0-0.3,0
	l-0.8,10.3c-0.1,1.7-0.3,3.9-2.2,5.5c-2,1.8-4.3,1.6-8,1.3l-1.2-0.1c-3.2-0.2-5-0.4-6.6-1.5c-2.8-1.9-2.6-5-2.5-6.8l0.8-10.4
	c-0.1,0-0.2,0-0.4,0l-1.1-0.1c-0.1,0-0.2,0-0.3,0l-0.8,10.3c-0.1,1.7-0.3,3.9-2.2,5.5c-2,1.8-4.3,1.6-8,1.3l-1.2-0.1
	c-3.2-0.2-5-0.4-6.6-1.5c-2.8-1.9-2.6-5-2.5-6.8l0.8-10.4c-0.1,0-0.2,0-0.4,0l-1.2-0.1c-0.1,0-0.2,0-0.3,0l-0.8,10.3
	c-0.1,1.7-0.3,3.9-2.2,5.5c-2,1.8-4.3,1.6-8,1.3l-1.2-0.1c-3.2-0.2-4.9-0.4-6.6-1.5c-2.8-1.9-2.6-4.9-2.5-6.8l0.8-10.4
	c-0.1,0-0.2,0-0.4,0l-1.2-0.1c-0.1,0-0.2,0-0.3,0l-0.8,10.3c-0.1,1.7-0.3,3.9-2.2,5.5c-2,1.8-4.3,1.6-8,1.3l-1.1-0.1
	c-3.2-0.2-5-0.4-6.6-1.5c-2.8-1.9-2.6-5-2.5-6.8l0.8-10.4c-0.1,0-0.2,0-0.4,0l-1.2-0.1c-0.1,0-0.2,0-0.2,0l-0.2,2.5L10,254.1v206.1
	l38,41.4h24l-0.1,33.9H42V509L1.2,463.8V245.1l9.3-0.1l27.6-0.4c0.3-0.4,0.6-0.8,1.1-1.2c2-1.8,4.3-1.6,8.1-1.3l1.1,0.1
	c3.2,0.2,5,0.4,6.6,1.5c2.8,1.9,2.6,5,2.5,6.8l-0.8,10.4c0.1,0,0.2,0,0.4,0l1.1,0.1c0.1,0,0.2,0,0.3,0l0.8-10.3
	c0.1-1.7,0.3-3.9,2.2-5.5c2-1.8,4.3-1.6,8-1.3l1.2,0.1c3.2,0.2,5,0.4,6.6,1.5c2.8,1.9,2.6,5,2.5,6.8L79,262.7c0.1,0,0.2,0,0.4,0
	l1.1,0.1c0.1,0,0.2,0,0.3,0l0.8-10.3c0.1-1.7,0.3-3.9,2.2-5.5c2-1.8,4.3-1.6,8-1.3l1.2,0.1c3.2,0.2,5,0.4,6.6,1.5
	c2.8,1.9,2.6,5,2.5,6.8l-0.8,10.4c0.1,0,0.2,0,0.4,0l1.2,0.1c0.1,0,0.2,0,0.3,0l0.8-10.3c0.1-1.7,0.3-3.9,2.2-5.5
	c2-1.8,4.3-1.6,8-1.3l1.2,0.1c3.2,0.2,4.9,0.4,6.6,1.5c2.8,1.9,2.6,5,2.5,6.8l-0.8,10.4c0.1,0,0.2,0,0.4,0l1.2,0.1
	c0.1,0,0.2,0,0.3,0l0.8-10.3c0.1-1.7,0.3-3.9,2.2-5.5c2-1.8,4.3-1.6,8-1.3l1.1,0.1c3.2,0.2,5,0.4,6.6,1.5s2.2,2.5,2.4,3.9l8.6,5.8
	v0.1c1.7,0.2,4.1,0.3,5.6,0.4c1.2,0.1,2.4,0.1,3.4,0.2l3.4,0.3l7.1,30.2l-42.5,209.5L132,501.6z"/>
<path id="JOULE:__x7B__x27_resistance_x27_:30_x7D__5_" class="st2" d="M151.5,323c-0.4,0.5-0.7,1.1-1.1,1.6L96.7,477.8v23.8H107
	l-0.1,33.9H77v-33.9h10.3v-25.4l52-148.3c-0.7-2.6,1.2-5.4,4.4-10.1c2.7-4,10.8-16,9.1-19.5l-0.2-0.4l-3.5-12.5
	c-0.1,0-0.2,0.1-0.3,0.1l-1.1,0.3c-0.1,0-0.2,0-0.3,0.1l3.4,12.1c0.6,2,1.3,4.8-0.8,7.2c-1.4,1.7-3.3,2.2-6.3,3.1l-1.2,0.3
	c-3.1,0.8-5,1.3-7,0.7c-3.1-1-3.8-3.8-4.4-5.8l-3.3-12c-0.1,0-0.2,0.1-0.3,0.1l-1.1,0.3c-0.1,0-0.2,0-0.3,0.1l3.4,12.1
	c0.6,2,1.3,4.8-0.8,7.2c-1.4,1.7-3.3,2.2-6.3,3.1l-1.2,0.3c-3.1,0.8-5,1.3-7,0.7c-3.1-1-3.8-3.8-4.4-5.8l-3.4-12
	c-0.1,0-0.2,0.1-0.3,0.1L105,298c-0.1,0-0.2,0-0.3,0.1L108,310c0.6,2,1.3,4.8-0.8,7.2c-1.4,1.7-3.3,2.2-6.3,3.1l-1.2,0.3
	c-3.1,0.8-5,1.3-7,0.7c-3.1-1-3.8-3.8-4.4-5.8l-3.3-12c-0.1,0-0.2,0.1-0.3,0.1l-1.1,0.3c-0.1,0-0.2,0-0.3,0.1l3.4,12.1
	c0.6,2,1.3,4.8-0.8,7.2c-1.4,1.7-3.3,2.2-6.3,3.1l-1.2,0.3c-3.1,0.8-5,1.3-7,0.7c-3.1-1-3.8-3.8-4.4-5.8l-3.4-12
	c-0.1,0-0.2,0.1-0.3,0.1l-1.1,0.3c-1,0.7-1.7,5.5-1.1,7.6l0.2,0.8l-1.4,20.9l-49.2,3v118.1L48,501.6h24l-0.1,33.9H42V509L1.2,463.8
	V333.3l9.3-0.6l40.5-2.4l0.8-11.2c-0.7-3.4-0.5-9.2,1.9-13.4c1.4-2.5,3.5-4.2,6-4.9l1.1-0.3c3.1-0.8,5-1.3,7-0.7
	c3.1,1,3.8,3.8,4.4,5.8l3.3,12c0.1,0,0.2-0.1,0.3-0.1l1.1-0.3c0.1,0,0.2,0,0.3-0.1L73.8,305c-0.6-2.1-1.2-4.2,0.1-6.5
	c1.4-2.4,3.6-3,7-3.9l1.1-0.3c3.1-0.8,5-1.3,7-0.7c3.1,1,3.8,3.8,4.4,5.8l3.4,12c0.1,0,0.2-0.1,0.3-0.1l1.1-0.3c0.1,0,0.2,0,0.3-0.1
	l-3.4-12.1c-0.6-2.1-1.1-4.2,0.1-6.5c1.4-2.4,3.6-3,7-3.9l1.1-0.3c3.1-0.8,5-1.3,7-0.7c3.1,1,3.8,3.8,4.4,5.8l3.3,12
	c0.1,0,0.2-0.1,0.3-0.1l1.1-0.3c0.1,0,0.2,0,0.3-0.1l-3.4-12.1c-0.6-2.1-1.2-4.2,0.1-6.5c1.4-2.4,3.6-3,7-3.9l1.1-0.3
	c3.1-0.8,5-1.3,7-0.7c3.1,1,3.8,3.8,4.4,5.8l3.3,12c0.1,0,0.2-0.1,0.3-0.1l1.1-0.3c0.1,0,0.2,0,0.3-0.1l-3.4-12.1
	c-0.6-2.1-1.1-4.2,0.1-6.5c1.4-2.4,3.6-3,7-3.9l1.1-0.3c3.1-0.8,5-1.3,7-0.7c3.1,1,3.8,3.8,4.4,5.8l3.6,13
	C165,303,157.2,314.5,151.5,323z"/>
<circle id="BI:_Start" class="st0" cx="88" cy="323.3" r="6.7"/>
<polyline id="CP:_Circuit_Path" class="st3" points="301.4,323.3 195.8,127.9 85.9,323.3 "/>
</svg>
