<?xml version="1.0" encoding="utf-8"?>
<!-- Generator: Adobe Illustrator 19.2.1, SVG Export Plug-In . SVG Version: 6.00 Build 0)  -->
<svg version="1.1" id="ELD:_Flowers" xmlns="http://www.w3.org/2000/svg" xmlns:xlink="http://www.w3.org/1999/xlink" x="0px"
	 y="0px" viewBox="0 0 319.5 210" style="enable-background:new 0 0 319.5 210;" xml:space="preserve">
<style type="text/css">
	.st0{fill:#484748;stroke:#FFFFFF;stroke-miterlimit:10;}
	.st1{fill:#7B7B7B;}
	.st2{fill:#AEADAE;}
	.st3{fill:#B2B3B3;}
	.st4{fill:#B7B7B7;}
	.st5{fill:none;stroke:#000000;stroke-miterlimit:10;}
	.st6{fill:#484748;}
	.st7{fill:#FFFFFF;stroke:#000000;stroke-miterlimit:10;}
	.st8{fill:#FFFFFF;fill-opacity:0;}
	.st9{fill:#333333;}
</style>
<path id="BASE:_Diffuser" class="st0" d="M43.2,140.4c1.5,1.7,4.3,4.8,9.1,6.6c2.8,1.1,5.4,1.4,7.3,1.6c-1.1,2-6.9,13.8-2,27
	c4.4,11.7,15.3,20,28.5,21.7c0.2,0.2,5.2,3.8,10.6,1.5c4.2-1.7,6.9-6.2,6.6-11.1c1.1,0.4,5.2,1.9,9.7,0.3c4.5-1.6,7.8-6,8.6-11
	c11.1-14.8,14.1-17.6,14.7-17.1c0.7,0.5-3.3,5.6-1.7,11.1c0.8,2.7,3.2,6.7,7,6.6c3.2,0,6.3-2.9,7.1-7.2c3.3,3.1,7.2,4.9,9.7,3.6
	c3.3-1.6,4.8-8.6,0.7-16.2c0.6-0.4,6.2-5.3,5.8-13.1c-0.4-7.1-5.6-11.1-6.3-11.7c0.9-0.2,8-2.2,10.9-9.1c1.5-3.6,2.8-10.5-1.6-14.5
	c-4-3.7-11.4-3.5-16.8,1.4c0.7-2.2,1.5-5.5,1.4-9.5c-0.2-5.5-1.9-9.6-3.1-11.9c0.8-3.9,2.3-6,3.7-7.2c1.5-1.4,2.9-2,3.2-3.6
	c0.3-1.8-1.2-2.3-1.1-4.5c0-2.6,2.2-3.2,1.8-5.1c-0.3-1.7-2.1-1.5-3.2-3.8c-0.9-2,0.3-2.9-0.7-4.5s-2.1-1-3.3-2.6
	c-1.1-1.5-0.5-2.5-1.6-4.3c-0.8-1.3-1.9-2.1-2.8-2.6c-1.2-0.7-3.8-2-7.1-2.1c-2.3-0.1-4,0.4-5.3,0.8c2.7-2,4.1-5.4,3.5-8.6
	c-0.7-3.7-4-6.6-7.9-7c-1.6,0.3-3.9,0.8-6.3,2.2c-2.8,1.7-3.6,3.2-5.2,3.4c-1.4,0.1-3.6-1-6.4-6.5c-1.4-3.2-4.4-9-10-13.2
	c-3.6-2.6-6-2.9-7.1-3c-2.5-0.2-4.6,0.5-5.7,1c-0.7-0.2-2.2-0.9-4.2-0.6c-2.3,0.3-3.8,1.7-4.2,2.1c-1.9-0.6-3.8,0-4.9,1.4
	c-1,1.2-1,2.6-1,3c-0.8,0.3-2.3,0.8-3.8,2.2c-2.1,2-2.5,4.4-2.6,5.3c-4.8-3.1-11-3.3-15.8-0.4c-5.1,3.1-7.9,9.1-6.9,15
	c-0.6-0.2-3.9-1.2-7.3,0.7c-1.9,1.1-3,2.6-3.5,3.4c-0.4,0-3.1-0.4-5.2,1.8c-2,1.9-2,4.4-2,4.8c-1.9,0.4-3.4,1.8-3.9,3.6
	c-0.6,2.2,0.5,3.9,0.7,4.2c-1.4,0.6-2.4,2-2.5,3.4c-0.2,1.6,0.6,3.2,2.1,4c-0.2,0.2-1.2,2.1-0.6,4.2c0.5,1.6,1.7,2.5,2,2.7
	c-0.1,0.6-0.1,2.3,0.9,4.1c0.9,1.5,2.2,2.3,2.8,2.6c0.4,1,0.9,2.4,1.7,3.7c0.8,1.4,1.8,2.5,2.5,3.3c-4,3.3-5.5,8.6-3.8,13.3
	c1.6,4.3,5.6,7.3,10.2,7.7c-2.2,4.4-1.9,6.7-1,7.9c0.5,0.7,1.4,1.4,1.3,2.4c-0.1,1.2-1.4,1.4-1.6,2.5c-0.1,1,1,1.5,2.1,3
	c1.3,1.9,0.6,3.1,1.7,6.2C41.5,137.1,42.1,138.7,43.2,140.4z"/>
<ellipse id="DDS:_Diffuser_247_" transform="matrix(0.5877 -0.8091 0.8091 0.5877 -36.6993 109.7693)" class="st1" cx="89.4" cy="90.9" rx="16.5" ry="16.5"/>
<ellipse id="DDS:_Diffuser_245_" transform="matrix(0.1678 -0.9858 0.9858 0.1678 8.0588 177.2113)" class="st2" cx="109" cy="83.8" rx="8.2" ry="8.2"/>
<ellipse id="DDS:_Diffuser_244_" transform="matrix(0.958 -0.2869 0.2869 0.958 -25.8826 34.3848)" class="st2" cx="104.4" cy="105.5" rx="8.2" ry="8.2"/>
<ellipse id="DDS:_Diffuser_243_" transform="matrix(0.7313 -0.6821 0.6821 0.7313 -53.1643 86.4843)" class="st2" cx="83.2" cy="110.7" rx="8.2" ry="8.2"/>
<ellipse id="DDS:_Diffuser_242_" transform="matrix(0.3527 -0.9357 0.9357 0.3527 -44.3377 127.719)" class="st2" cx="70.1" cy="95.9" rx="8.2" ry="8.2"/>
<ellipse id="DDS:_Diffuser_241_" transform="matrix(0.9951 -9.894719e-02 9.894719e-02 0.9951 -7.3584 7.834)" class="st2" cx="75.3" cy="78.1" rx="8.2" ry="8.3"/>
<ellipse id="DDS:_Diffuser_246_" transform="matrix(0.9951 -9.894719e-02 9.894719e-02 0.9951 -6.7169 9.3694)" class="st2" cx="91.1" cy="72.4" rx="8.2" ry="8.3"/>
<path id="DDS:_Diffuser_237_" class="st3" d="M157.1,168.7c-1.3,0.9-3.5-3.2-8.1-3.4c-5.5-0.3-8.7,5.4-10,4.5s0.1-8.3,5.4-10.9
	c2.7-1.4,6.6-1.4,9.4,0.7C157.6,162.3,158.4,167.8,157.1,168.7z"/>
<ellipse id="DDS:_Diffuser_236_" transform="matrix(0.5877 -0.8091 0.8091 0.5877 -56.9972 177.3326)" class="st1" cx="145.5" cy="144.6" rx="4.2" ry="4.2"/>
<ellipse id="DDS:_Diffuser_235_" transform="matrix(0.5877 -0.8091 0.8091 0.5877 -48.5075 178.6399)" class="st2" cx="151" cy="136.9" rx="4.2" ry="4.2"/>
<ellipse id="DDS:_Diffuser_234_" transform="matrix(0.5877 -0.8091 0.8091 0.5877 -53.4137 185.2151)" class="st2" cx="155" cy="145" rx="4.2" ry="4.2"/>
<ellipse id="DDS:_Diffuser_233_" transform="matrix(0.5877 -0.8091 0.8091 0.5877 -51.6715 170.6445)" class="st2" cx="141.6" cy="136" rx="4.2" ry="4.2"/>
<ellipse id="DDS:_Diffuser_232_" transform="matrix(0.5877 -0.8091 0.8091 0.5877 -62.0157 184.514)" class="st2" cx="150" cy="153.1" rx="4.2" ry="4.2"/>
<ellipse id="DDS:_Diffuser_231_" transform="matrix(0.5877 -0.8091 0.8091 0.5877 -65.4825 176.3003)" class="st2" cx="140.2" cy="152.4" rx="4.2" ry="4.2"/>
<ellipse id="DDS:_Diffuser_230_" transform="matrix(0.5877 -0.8091 0.8091 0.5877 -60.2739 168.9179)" class="st2" cx="135.6" cy="143.6" rx="4.2" ry="4.2"/>
<ellipse id="DDS:_Diffuser_210_" transform="matrix(0.5877 -0.8091 0.8091 0.5877 -95.2845 156.6203)" class="st2" cx="106" cy="171.8" rx="7.5" ry="7.5"/>
<ellipse id="DDS:_Diffuser_209_" transform="matrix(0.5877 -0.8091 0.8091 0.5877 -109.4711 147.3918)" class="st2" cx="89.9" cy="181.1" rx="7.5" ry="7.5"/>
<ellipse id="DDS:_Diffuser_208_" transform="matrix(0.5877 -0.8091 0.8091 0.5877 -107.0256 131.771)" class="st2" cx="75.8" cy="170.9" rx="7.5" ry="7.5"/>
<ellipse id="DDS:_Diffuser_207_" transform="matrix(0.5877 -0.8091 0.8091 0.5877 -96.2891 142.6465)" class="st1" cx="91.8" cy="165.8" rx="7.5" ry="7.5"/>
<ellipse id="DDS:_Diffuser_206_" transform="matrix(0.5877 -0.8091 0.8091 0.5877 -82.9533 144.7847)" class="st2" cx="100.6" cy="153.8" rx="7.5" ry="7.5"/>
<ellipse id="DDS:_Diffuser_205_" transform="matrix(0.5877 -0.8091 0.8091 0.5877 -91.0027 129.3904)" class="st2" cx="81.5" cy="154" rx="7.5" ry="7.5"/>
<path id="DDS:_Diffuser_188_" class="st4" d="M114.8,50c2.8,2.6,7.3,3.4,10.9,2c5.4-2.2,8.4-9.3,6.5-12c-1.3-1.8-4.9-1.7-7.2-1.2
	c-4.2,1.2-5,4.4-7.8,4.2c-3.2-0.2-4.6-4.4-5.5-4C110.5,39.6,110.5,46.2,114.8,50z"/>
<path id="DDS:_Diffuser_187_" class="st3" d="M103.7,128.7c4.7-1.8,10.5-4,11.9-9c0.9-3.5-0.3-7.9-2.4-8.4c-2-0.5-3,3.3-6.4,3.9
	c-5.6,1-10.5-7.7-13.2-6.3c-1.8,0.9,0.1,4.9-2.7,8.1c-2.2,2.5-4.7,1.5-5.9,3.6c-1.4,2.4,0.2,6.9,2.9,9.1
	C92.3,133.1,98.7,130.6,103.7,128.7z"/>
<ellipse id="DDS:_Diffuser_167_" transform="matrix(0.5877 -0.8091 0.8091 0.5877 -11.7754 150.8025)" class="st2" cx="142.1" cy="87" rx="1.8" ry="2.5"/>
<ellipse id="DDS:_Diffuser_166_" transform="matrix(0.5877 -0.8091 0.8091 0.5877 -38.8709 155.323)" class="st2" cx="133" cy="115.8" rx="1.8" ry="2.5"/>
<ellipse id="DDS:_Diffuser_165_" transform="matrix(0.5877 -0.8091 0.8091 0.5877 -43.7027 159.2799)" class="st2" cx="134.4" cy="122.5" rx="1.8" ry="2.5"/>
<ellipse id="DDS:_Diffuser_164_" transform="matrix(0.5877 -0.8091 0.8091 0.5877 -49.5576 161.4314)" class="st2" cx="133.6" cy="129.3" rx="1.8" ry="2.5"/>
<ellipse id="DDS:_Diffuser_163_" transform="matrix(0.5877 -0.8091 0.8091 0.5877 -55.1677 160.4815)" class="st2" cx="129.9" cy="134.4" rx="1.8" ry="2.5"/>
<ellipse id="DDS:_Diffuser_162_" transform="matrix(0.5877 -0.8091 0.8091 0.5877 -59.4827 157.9062)" class="st2" cx="125.2" cy="137.3" rx="1.8" ry="2.5"/>
<ellipse id="DDS:_Diffuser_161_" transform="matrix(0.5877 -0.8091 0.8091 0.5877 -63.5291 153.7314)" class="st2" cx="119.1" cy="139.2" rx="1.8" ry="2.5"/>
<ellipse id="DDS:_Diffuser_160_" transform="matrix(0.5877 -0.8091 0.8091 0.5877 -6.2752 153.9311)" class="st2" cx="147.9" cy="83.1" rx="1.8" ry="2.5"/>
<ellipse id="DDS:_Diffuser_159_" transform="matrix(0.5877 -0.8091 0.8091 0.5877 0.3692 153.9477)" class="st2" cx="151.2" cy="76.6" rx="1.8" ry="2.5"/>
<ellipse id="DDS:_Diffuser_158_" transform="matrix(0.5877 -0.8091 0.8091 0.5877 6.134 151.4276)" class="st2" cx="151.6" cy="69.7" rx="1.8" ry="2.5"/>
<ellipse id="DDS:_Diffuser_157_" transform="matrix(0.5877 -0.8091 0.8091 0.5877 10.1863 147.1939)" class="st2" cx="149.5" cy="63.6" rx="1.8" ry="2.5"/>
<ellipse id="DDS:_Diffuser_156_" transform="matrix(0.5877 -0.8091 0.8091 0.5877 12.9184 140.7837)" class="st2" cx="144.6" cy="57.7" rx="1.8" ry="2.5"/>
<ellipse id="DDS:_Diffuser_155_" transform="matrix(0.5877 -0.8091 0.8091 0.5877 12.9355 135.165)" class="st2" cx="139.1" cy="54.9" rx="1.8" ry="2.5"/>
<ellipse id="DDS:_Diffuser_154_" transform="matrix(0.5877 -0.8091 0.8091 0.5877 10.5428 129.456)" class="st2" cx="132.3" cy="54.4" rx="1.8" ry="2.5"/>
<ellipse id="DDS:_Diffuser_153_" transform="matrix(0.5877 -0.8091 0.8091 0.5877 9.2988 104.6531)" class="st2" cx="107.3" cy="43.2" rx="1.8" ry="2.5"/>
<ellipse id="DDS:_Diffuser_152_" transform="matrix(0.5877 -0.8091 0.8091 0.5877 14.1724 102.0601)" class="st2" cx="107.2" cy="37.1" rx="1.8" ry="2.5"/>
<ellipse id="DDS:_Diffuser_151_" transform="matrix(0.5877 -0.8091 0.8091 0.5877 19.014 96.494)" class="st2" cx="104.2" cy="29.6" rx="1.8" ry="2.5"/>
<ellipse id="DDS:_Diffuser_150_" transform="matrix(0.5877 -0.8091 0.8091 0.5877 20.6021 90.4686)" class="st2" cx="99.1" cy="25" rx="1.8" ry="2.5"/>
<ellipse id="DDS:_Diffuser_149_" transform="matrix(0.5877 -0.8091 0.8091 0.5877 19.9184 84.2)" class="st2" cx="92.6" cy="22.6" rx="1.8" ry="2.5"/>
<ellipse id="DDS:_Diffuser_148_" transform="matrix(0.5877 -0.8091 0.8091 0.5877 16.3875 78.0722)" class="st2" cx="84.8" cy="23" rx="1.8" ry="2.5"/>
<ellipse id="DDS:_Diffuser_147_" transform="matrix(0.5877 -0.8091 0.8091 0.5877 12.1088 74.5383)" class="st2" cx="79.2" cy="25.4" rx="1.8" ry="2.5"/>
<ellipse id="DDS:_Diffuser_146_" transform="matrix(0.5877 -0.8091 0.8091 0.5877 6.39 72.3632)" class="st2" cx="74.2" cy="29.9" rx="1.8" ry="2.5"/>
<ellipse id="DDS:_Diffuser_145_" transform="matrix(0.5877 -0.8091 0.8091 0.5877 -0.4901 72.0914)" class="st2" cx="70.5" cy="36.5" rx="1.8" ry="2.5"/>
<ellipse id="DDS:_Diffuser_144_" transform="matrix(0.1245 -0.9922 0.9922 0.1245 -10.0165 93.4687)" class="st2" cx="48" cy="52.4" rx="2.5" ry="1.8"/>
<ellipse id="DDS:_Diffuser_143_" transform="matrix(0.1245 -0.9922 0.9922 0.1245 -17.8535 84.8451)" class="st2" cx="39.2" cy="52.5" rx="2.5" ry="1.8"/>
<ellipse id="DDS:_Diffuser_142_" transform="matrix(0.6979 -0.7162 0.7162 0.6979 -30.348 40.2493)" class="st2" cx="32.5" cy="56.1" rx="1.8" ry="2.5"/>
<ellipse id="DDS:_Diffuser_141_" transform="matrix(0.3936 -0.9193 0.9193 0.3936 -40.163 63.8796)" class="st2" cx="28.3" cy="62.4" rx="1.8" ry="2.5"/>
<ellipse id="DDS:_Diffuser_140_" transform="matrix(0.3936 -0.9193 0.9193 0.3936 -46.6617 66.7116)" class="st2" cx="27.2" cy="68.7" rx="1.8" ry="2.5"/>
<ellipse id="DDS:_Diffuser_139_" transform="matrix(0.9349 -0.3549 0.3549 0.9349 -24.7368 14.9215)" class="st2" cx="28.3" cy="74.9" rx="2.5" ry="1.8"/>
<ellipse id="DDS:_Diffuser_138_" transform="matrix(0.9349 -0.3549 0.3549 0.9349 -26.6255 16.0347)" class="st2" cx="30.4" cy="80.6" rx="2.5" ry="1.8"/>
<ellipse id="DDS:_Diffuser_137_" transform="matrix(0.9349 -0.3549 0.3549 0.9349 -28.0913 17.4411)" class="st2" cx="33.5" cy="85.3" rx="2.5" ry="1.8"/>
<ellipse id="DDS:_Diffuser_136_" transform="matrix(0.9349 -0.3549 0.3549 0.9349 -37.8078 23.4816)" class="st2" cx="45.1" cy="114.8" rx="2.5" ry="1.8"/>
<ellipse id="DDS:_Diffuser_135_" transform="matrix(0.9349 -0.3549 0.3549 0.9349 -39.9543 23.178)" class="st2" cx="43.2" cy="120.5" rx="2.5" ry="1.8"/>
<ellipse id="DDS:_Diffuser_134_" transform="matrix(0.9349 -0.3549 0.3549 0.9349 -41.9 23.5723)" class="st2" cx="43.3" cy="126" rx="2.5" ry="1.8"/>
<ellipse id="DDS:_Diffuser_133_" transform="matrix(0.9349 -0.3549 0.3549 0.9349 -43.6236 24.3632)" class="st2" cx="44.6" cy="131.1" rx="2.5" ry="1.8"/>
<ellipse id="DDS:_Diffuser_132_" transform="matrix(0.4937 -0.8696 0.8696 0.4937 -94.4066 109.8604)" class="st2" cx="47.1" cy="136" rx="2.5" ry="1.8"/>
<ellipse id="DDS:_Diffuser_131_" transform="matrix(0.4937 -0.8696 0.8696 0.4937 -95.1776 115.3227)" class="st2" cx="51.5" cy="139.4" rx="2.5" ry="1.8"/>
<ellipse id="DDS:_Diffuser_130_" transform="matrix(0.4937 -0.8696 0.8696 0.4937 -94.7072 121.2792)" class="st2" cx="56.8" cy="142" rx="2.5" ry="1.8"/>
<ellipse id="DDS:_Diffuser_129_" transform="matrix(0.4937 -0.8696 0.8696 0.4937 -92.0696 126.0165)" class="st2" cx="62.2" cy="142.1" rx="2.5" ry="1.8"/>
<ellipse id="DDS:_Diffuser_128_" transform="matrix(0.4937 -0.8696 0.8696 0.4937 -89.1144 129.6239)" class="st2" cx="66.8" cy="141.3" rx="2.5" ry="1.8"/>
<path id="DDS:_Diffuser_99_" class="st3" d="M133,94c0.3-2.6,1-9.4-3.5-13.2c-3.5-2.9-9.1-3.5-10.8-1.4c-1.6,1.9,1.2,4.5,0,7.7
	c-2,5.3-11.9,5.5-11.8,7.7c0.1,1.4,4.1,1.3,6.6,4.5c2.1,2.7,0.1,5.1,1.7,7.2c2.1,2.5,7.9,2.2,11.7-0.1
	C132.1,103.2,132.8,96.8,133,94z"/>
<path id="DDS:_Diffuser_98_" class="st3" d="M116.8,54.5c-2.9-2.8-6.6-6.1-11.5-5.9c-7.4,0.5-13.4,8.7-12,11.6
	c0.8,1.7,3.6,0.5,5.6,2.7c3.5,3.7-0.6,11.3,1.8,12.7c1.5,0.8,3.1-2.2,6.7-2.3c4.6-0.1,6.1,4.5,9.7,4.3c3.5-0.3,6.5-4.8,7.1-8.7
	C125.2,62.4,119.7,57.1,116.8,54.5z"/>
<path id="DDS:_Diffuser_97_" class="st3" d="M70.9,45.9c2.5-1.1,8.7-3.8,14.2-0.8c6.5,3.6,8.3,13.4,6,15.4c-1.2,1-3.2-0.5-5.2,1
	c-1.9,1.4-1.3,3.7-2.8,4.2c-1.6,0.5-2.7-2.4-5.2-2.7c-4-0.6-6,6.4-9.8,6.4c-3.9-0.1-8.6-7.2-7.2-13.7C62.2,49.7,68,47,70.9,45.9z"/>
<path id="DDS:_Diffuser_96_" class="st3" d="M75.8,103c-1.2-1.5-6,2.5-10.5,0.7c-3.7-1.6-3.6-5.7-5.8-5.7c-3.6,0.1-9,11-5.4,16.6
	c1.5,2.3,3.2,1.5,7.9,4.6c6.3,4.4,6.3,8.2,10,8.6c4.9,0.7,10.8-4.8,10.1-7.3c-0.3-1.2-3.3,0-5.9-2.1c-2.9-2.3-2.9-6.6-2.9-7.1
	C73.3,106.8,76.7,104.3,75.8,103z"/>
<path id="DDS:_Diffuser_95_" class="st3" d="M43.2,75.4c-2,4.6-3.8,13.7,1.4,18.8c4.2,4.1,11.8,4.6,13.9,2c1.1-1.5-0.4-3,0.4-5.4
	c2.1-5.3,13.2-4.5,13.5-7.3c0.1-1.4-2.8-1.6-4.3-4.6c-1.6-3.2,0.4-5.1-0.7-7.8c-1.8-4.5-10.8-7.3-17.3-4.1
	C45.8,69.2,44.1,73.3,43.2,75.4z"/>
<path id="DDS:_Diffuser_75_" class="st4" d="M50.2,115.6c-4.5,1.1-5.1,15.1,3.3,20.5c7.5,4.8,19.1,0.8,18.9-3.8
	C72.1,128.4,54.1,114.7,50.2,115.6z"/>
<path id="DDS:_Diffuser_74_" class="st4" d="M41.1,92.2c1.5,0.7,0,4.1,2.4,6.9c2.7,3.1,6.9,1.7,7.6,3.7c0.8,2.1-2.8,6.2-7,7.5
	c-4.8,1.3-11.2-0.8-12.6-5.2C29.2,98.5,38.6,91.1,41.1,92.2z"/>
<path id="DDS:_Diffuser_73_" class="st4" d="M55.1,63.7c1.1-1.4,0.7-4.5-0.8-6.2c-3.7-4.3-16-3.5-21,3.7c-6.5,9.3,3.5,23.3,5.4,22.8
	c1-0.2,0.1-3.9,2.3-10.5c1.4-4.1,2.5-7.4,5.4-8.8C50,63,53.5,65.6,55.1,63.7z"/>
<path id="DDS:_Diffuser_72_" class="st4" d="M62.3,47.9c3.2-2.6,5.4-1.8,6.2-3.5c1.5-3.1-2.9-10.9-9.3-11.5c-4.6-0.4-7.9,3-8.2,3.3
	c-3.3,3.7-3.2,9-1.1,12.6c1.4,2.5,4.6,5.4,7.2,4.9C59.3,53.1,59,50.6,62.3,47.9z"/>
<path id="DDS:_Diffuser_71_" class="st4" d="M92.9,47c3.3,1.3,8-0.4,10-3.6c3.1-4.6,0-10.6-2.8-13.5c-3.9-4.2-9.8-4.9-14.2-3.8
	C77,28.5,72.5,39.3,74.2,41.3c1.5,1.6,6.9-3.7,11.8-1.3C89.8,41.9,89.2,45.7,92.9,47z"/>
<path id="DDS:_Diffuser_70_" class="st4" d="M125.2,74.5c-0.5-1.9,3-2.9,3.4-6.3c0.5-4.1-4.2-6.3-3.4-8.6c0.9-2.4,7.1-2.8,11.6-1.5
	c1.4,0.4,7.2,2,9.9,7.8c0.3,0.7,2.4,5.3,0.5,10.4c-1.1,2.9-3,4.6-4.7,6.2c-1.3,1.1-5.1,4.5-6.8,3.4c-1.6-0.9,0.5-4.2-1.2-7
	C132,75.3,125.9,76.8,125.2,74.5z"/>
<path id="DDS:_Diffuser_69_" class="st4" d="M134.4,99.7c1.5-4.5,0.2-6.3,1.7-7.5c2.3-2,8.5-0.8,11.3,3.3c2.6,3.6,1.4,7.9,1.3,8.5
	c-0.1,0.3-1.7,5.4-6.7,6.9c-4.6,1.2-10.1-1.3-10.7-4.2C131,104.8,133,104.1,134.4,99.7z"/>
<path id="DDS:_Diffuser_68_" class="st4" d="M121,113.2c1.5-1.2,4.3-0.6,5.9,0.5c4.3,2.8,5.4,10.9,2.4,15.8
	c-5.4,8.8-22.6,4.9-22.9,2.6c-0.2-1.9,11.4-2.8,13.5-10.1C121.1,118.2,118.9,114.8,121,113.2z"/>
<ellipse id="DDS:_Diffuser_59_" transform="matrix(0.5877 -0.8091 0.8091 0.5877 -87.5986 167.1223)" class="st3" cx="120.2" cy="169.5" rx="3.1" ry="3.7"/>
<ellipse id="DDS:_Diffuser_57_" transform="matrix(0.5877 -0.8091 0.8091 0.5877 -72.1469 138.9888)" class="st3" cx="100.3" cy="140.3" rx="3.1" ry="3.7"/>
<ellipse id="DDS:_Diffuser_56_" transform="matrix(0.5877 -0.8091 0.8091 0.5877 -76.9279 126.4179)" class="st3" cx="85.6" cy="138.7" rx="3.1" ry="3.7"/>
<ellipse id="DDS:_Diffuser_55_" transform="matrix(0.5877 -0.8091 0.8091 0.5877 -86.4237 118.4434)" class="st3" cx="73" cy="144" rx="3.1" ry="3.7"/>
<ellipse id="DDS:_Diffuser_54_" transform="matrix(0.5877 -0.8091 0.8091 0.5877 -96.2978 117.0454)" class="st3" cx="66.7" cy="153" rx="3.1" ry="3.7"/>
<ellipse id="DDS:_Diffuser_1_" transform="matrix(0.5877 -0.8091 0.8091 0.5877 -103.5135 120.5373)" class="st3" cx="66.5" cy="161.8" rx="3.4" ry="3.4"/>
<ellipse id="DDS:_Diffuser_2_" transform="matrix(0.5877 -0.8091 0.8091 0.5877 -118.0373 138.5296)" class="st3" cx="76.9" cy="185.1" rx="3.4" ry="3.4"/>
<ellipse id="DDS:_Diffuser_5_" transform="matrix(0.4288 -0.9034 0.9034 0.4288 -114.4961 155.292)" class="st2" cx="65.6" cy="168.2" rx="1.8" ry="2.5"/>
<ellipse id="DDS:_Diffuser_6_" transform="matrix(0.9923 -0.1235 0.1235 0.9923 -20.9277 9.3806)" class="st2" cx="65.2" cy="173.5" rx="2.5" ry="1.8"/>
<ellipse id="DDS:_Diffuser_7_" transform="matrix(1.929853e-03 -1 1 1.929853e-03 -109.6933 251.2849)" class="st2" cx="71" cy="180.6" rx="2.5" ry="1.8"/>
<ellipse id="DDS:_Diffuser_8_" transform="matrix(0.7175 -0.6966 0.6966 0.7175 -105.0527 96.9764)" class="st2" cx="67" cy="178" rx="2.5" ry="1.8"/>
<ellipse id="DDS:_Diffuser_12_" transform="matrix(0.6297 -0.7768 0.7768 0.6297 -117.4442 136.7256)" class="st2" cx="84.7" cy="191.6" rx="2.5" ry="1.8"/>
<ellipse id="DDS:_Diffuser_11_" transform="matrix(0.1139 -0.9935 0.9935 0.1139 -112.449 260.0238)" class="st2" cx="89.5" cy="193.1" rx="2.5" ry="1.8"/>
<ellipse id="DDS:_Diffuser_10_" transform="matrix(0.2376 -0.9714 0.9714 0.2376 -109.0854 239.4311)" class="st2" cx="98" cy="189.2" rx="1.8" ry="2.5"/>
<ellipse id="DDS:_Diffuser_9_" transform="matrix(0.8615 -0.5077 0.5077 0.8615 -84.6672 74.5293)" class="st2" cx="94.3" cy="192.5" rx="1.8" ry="2.5"/>
<ellipse id="DDS:_Diffuser_14_" transform="matrix(0.6808 -0.7325 0.7325 0.6808 -100.6227 133.3195)" class="st2" cx="102.6" cy="182.1" rx="2.5" ry="1.8"/>
<ellipse id="DDS:_Diffuser_13_" transform="matrix(0.9997 -2.628552e-02 2.628552e-02 0.9997 -4.7786 2.8891)" class="st2" cx="107.5" cy="183.2" rx="1.8" ry="2.5"/>
<ellipse id="DDS:_Diffuser_4_" transform="matrix(9.928974e-02 -0.9951 0.9951 9.928974e-02 -73.5283 274.8717)" class="st2" cx="115.1" cy="178.1" rx="1.8" ry="2.5"/>
<ellipse id="DDS:_Diffuser_3_" transform="matrix(0.7819 -0.6234 0.6234 0.7819 -88.8627 109.5998)" class="st2" cx="112.2" cy="181.8" rx="1.8" ry="2.5"/>
<ellipse id="DDS:_Diffuser_18_" transform="matrix(0.7688 -0.6395 0.6395 0.7688 -77.0359 107.5295)" class="st2" cx="110.2" cy="160.3" rx="1.8" ry="2.5"/>
<ellipse id="DDS:_Diffuser_17_" transform="matrix(0.3049 -0.9524 0.9524 0.3049 -70.0849 215.8333)" class="st2" cx="112.8" cy="155.9" rx="1.8" ry="2.5"/>
<ellipse id="DDS:_Diffuser_16_" transform="matrix(0.4219 -0.9066 0.9066 0.4219 -69.5635 184.9364)" class="st2" cx="110.2" cy="147" rx="2.5" ry="1.8"/>
<ellipse id="DDS:_Diffuser_15_" transform="matrix(0.9438 -0.3306 0.3306 0.9438 -43.6024 45.8569)" class="st2" cx="113" cy="151.1" rx="2.5" ry="1.8"/>
<path id="DDS:_Diffuser_19_" class="st4" d="M143.5,126.8c2.8,2.6,7.3,3.4,10.9,2c5.4-2.2,8.4-9.3,6.5-12c-1.3-1.8-4.9-1.7-7.2-1.2
	c-4.2,1.2-5,4.4-7.8,4.2c-3.2-0.2-4.6-4.4-5.5-4C139.2,116.4,139.1,123,143.5,126.8z"/>
<path id="DDS:_Diffuser_20_" class="st4" d="M118.9,147.7c-0.1,0.9,3.8,0.9,4.9,3.5c0.9,2.2-1.5,3.8-1.4,7.6
	c0.1,2.1,1.1,5.1,2.9,5.7c2.7,0.9,7.8-3.5,8.2-8.6c0.2-3.4-1.7-6.9-4.7-8.6C124.5,144.8,119,146.6,118.9,147.7z"/>
<path id="DIF:_DIFFUSER_1_" class="st5" d="M43.2,140.4c-1.1-1.7-1.7-3.2-2.1-4.6c-1.1-3.1-0.4-4.2-1.7-6.2c-1.1-1.5-2.3-2-2.1-3
	c0.2-1.1,1.5-1.4,1.6-2.5c0.1-1-0.8-1.7-1.3-2.4c-0.8-1.2-1.1-3.5,1-7.9c-4.6-0.4-8.6-3.4-10.2-7.7c-1.8-4.7-0.2-10.1,3.8-13.3
	c-0.8-0.8-1.7-1.9-2.5-3.3c-0.8-1.3-1.3-2.7-1.7-3.7c-0.6-0.3-1.9-1.1-2.8-2.6c-1-1.8-1-3.6-0.9-4.1c-0.3-0.2-1.5-1.1-2-2.7
	c-0.6-2.2,0.4-4,0.6-4.2c-1.4-0.8-2.2-2.4-2.1-4c0.1-1.4,1.1-2.8,2.5-3.4c-0.2-0.3-1.3-2-0.7-4.2c0.4-1.8,1.9-3.2,3.9-3.6
	c0-0.4,0-2.9,2-4.8c2.2-2.1,4.9-1.8,5.2-1.8c0.4-0.8,1.6-2.3,3.5-3.4c3.4-1.9,6.7-0.8,7.3-0.7c-0.9-5.9,1.8-11.9,6.9-15
	c4.8-2.9,11-2.7,15.8,0.4c0.1-0.9,0.5-3.3,2.6-5.3c1.5-1.4,3-1.9,3.8-2.2c-0.1-0.4,0-1.9,1-3c1.1-1.4,3-1.9,4.9-1.4
	c0.4-0.4,1.9-1.8,4.2-2.1c2-0.3,3.6,0.4,4.2,0.6c1.1-0.5,3.2-1.2,5.7-1c1.1,0,3.6,0.4,7.1,3c5.5,4.1,8.6,10,10,13.2
	c2.8,5.5,5,6.6,6.4,6.5c1.6-0.2,2.4-1.7,5.2-3.4c2.4-1.4,4.7-1.9,6.3-2.2c3.9,0.4,7.2,3.2,7.9,7c0.6,3.1-0.8,6.6-3.5,8.6
	c1.3-0.4,3-0.9,5.3-0.8c3.4,0.1,5.9,1.3,7.1,2.1c0.9,0.5,2,1.3,2.8,2.6c1.1,1.8,0.5,2.7,1.6,4.3c1.2,1.6,2.3,1.1,3.3,2.6
	c1,1.6-0.2,2.5,0.7,4.5c1.1,2.3,2.8,2.1,3.2,3.8c0.4,1.9-1.8,2.5-1.8,5.1c-0.1,2.2,1.4,2.7,1.1,4.5c-0.3,1.6-1.7,2.2-3.2,3.6
	c-1.4,1.2-2.9,3.3-3.7,7.2c0.9,1.9,2.2,4.9,2.8,8.9c0.2,1,0.2,1.9,0.3,3c0.1,3.2-0.3,5.9-0.9,8.1c-0.9,0.9-2.1,1.7-3.4,2.3
	c-5.2,2.3-11.5,0-12.3,2.2c-0.5,1.1,1.2,2.2,2.5,4.6c2.3,4.8,0.6,10.1,0,12c-1.1,3.5-3.5,6.9-6.4,9.3c-3.7,3.2-8.2,5-12.4,4.6
	c-0.7,0-1.3-0.2-1.8-0.4c-3-1.1-3.8-3.8-9.5-6.7c-7.6-3.9-18.2-5.3-26.8-1.8c-7.9,3.2-7.4,7.7-15.4,11c-3,1.2-5.9,1.8-8.6,1.9l0,0
	c-0.9-0.1-1.8-0.4-3-0.7c-0.6-0.2-1.3-0.4-2-0.6C47.6,145.1,44.7,142.1,43.2,140.4z"/>
<path id="DIF:DIFFUSER" class="st5" d="M57.5,175.5c-4.9-13.2,1-25,2-27c-0.7,0-1.4-0.1-2.3-0.3c2.7-0.1,5.6-0.7,8.6-1.9
	c8-3.3,7.6-7.9,15.4-11c8.6-3.5,19.2-2.1,26.8,1.8c5.6,2.8,6.5,5.6,9.5,6.7c0.4,5.5,1.4,10,1.8,12.3c1.2,5.5,2.5,11.7,5.4,16.5
	c-0.9,1.3-2.1,2.8-3.3,4.3c-0.8,5.1-4.1,9.4-8.6,11s-8.6,0.2-9.7-0.3c0.3,4.8-2.3,9.3-6.6,11.1c-5.4,2.2-10.4-1.4-10.6-1.5
	C72.9,195.5,61.9,187.2,57.5,175.5z"/>
<path id="DIF:_DIFFUSER" class="st5" d="M124.8,172.6c-2.9-4.8-4.2-11.1-5.4-16.5c-0.5-2.4-1.4-6.9-1.8-12.3
	c0.5,0.1,1.1,0.3,1.8,0.4c4.2,0.5,8.7-1.5,12.4-4.6c2.9-2.5,5.2-5.8,6.4-9.3c0.6-1.9,2.4-7.2,0-12c-1.2-2.5-2.8-3.4-2.5-4.6
	c0.8-2.1,7.1,0.1,12.3-2.2c1.3-0.6,2.4-1.3,3.4-2.3c-0.1,0.5-0.3,1-0.4,1.4c5.4-4.9,12.8-5,16.8-1.4c4.4,4,3.1,10.9,1.6,14.5
	c-2.9,6.9-10,8.9-10.9,9.1c0.7,0.6,5.9,4.7,6.3,11.7c0.4,7.8-5.2,12.6-5.8,13.1c4.1,7.6,2.6,14.6-0.7,16.2c-2.5,1.3-6.4-0.5-9.7-3.6
	c-0.6,3.2-2.5,5.6-4.7,6.6c-0.7,0.3-1.6,0.5-2.4,0.6c-3.8,0.1-6.2-3.9-7-6.6c-1.7-5.5,2.4-10.6,1.7-11.1
	C135.7,159.4,133.3,161.5,124.8,172.6z"/>
<rect id="NLED:_0xffffff_3_" x="259.3" y="99.6" transform="matrix(0.5877 -0.8091 0.8091 0.5877 23.4911 259.5046)" class="st6" width="14.2" height="14.2"/>
<rect id="NLED:_0xffffff" x="82.2" y="84.7" transform="matrix(0.5877 -0.8091 0.8091 0.5877 -37.4636 110.1035)" class="st7" width="14.2" height="14.2"/>
<rect id="NLED:_0xffffff_1_" x="85" y="158.9" transform="matrix(0.5877 -0.8091 0.8091 0.5877 -96.3131 142.9173)" class="st7" width="14.2" height="14.2"/>
<rect id="NLED:_0xffffff_2_" x="138.3" y="138.1" transform="matrix(0.5877 -0.8091 0.8091 0.5877 -57.5622 177.5075)" class="st7" width="14.2" height="14.2"/>
<rect id="BI:_breakout" x="104.6" y="45.2" transform="matrix(0.5877 -0.8091 0.8091 0.5877 5.6942 104.044)" class="st7" width="0.7" height="2.4"/>
<rect id="MC:_micro" x="81.6" y="34.4" transform="matrix(0.2193 -0.9757 0.9757 0.2193 33.6625 115.0148)" class="st8" width="14.2" height="4.1"/>
<path id="CP:path" class="st5" d="M98,57.9c-17.4,64.8-23,105-6.1,109.9c16.1,4.6,188.6-64.8,215-113.9"/>
<path id="DIF:_Diffuser" class="st9" d="M238,139.7c0.4,0.8,1,1.3,1.8,1.8c0.7,0.4,1.4,0.6,2.2,0.6c0.3,0.4,0.7,0.7,1.2,1
	c1.3,0.7,2.6,0.7,3.8,0.3c1.3,0.6,2.7,0.5,4-0.2c0.2,0,0.4,0,0.6,0.1c0.3,0.4,0.8,0.8,1.2,1.1c2.7,1.9,6.2,1.4,8-1
	c0.4-0.6,0.7-1.1,0.8-1.8c2.4,1.1,5.1,0.6,6.8-1.1c0.4,0.7,1,1.2,1.6,1.7c2.7,1.9,6.2,1.4,8-1c0.8-1.1,1.1-2.5,1-3.9
	c0.4,0.1,0.7,0.2,1.2,0.2c0.3,1.2,1,2.3,2.1,3.2c2.1,1.5,4.7,1.4,6.4-0.1c1.7,0.2,3.4-0.4,4.4-1.8l0.1-0.1c1.1-0.2,2.1-0.7,2.9-1.7
	c0.4-0.6,0.7-1.3,0.8-1.9c0.6-0.3,1.2-0.8,1.6-1.3c0.9-1.3,1.1-2.8,0.5-4.3l0,0c1.2-1.7,1.2-4-0.2-5.7c0.1-0.3,0.1-0.7,0.1-1
	c0.6-0.1,1.1-0.1,1.6-0.3l0.1-0.1c2.1-0.6,3.8-1.8,5.1-3.6c0.9-1.3,1.4-2.6,1.6-3l0.1-0.1l0.1-0.1c0.2-1.2,0.8-4.9-1.4-8.1
	c-0.3-0.3-0.6-0.7-0.9-1c1-0.3,1.8-0.8,2.5-1.7c0.7-0.9,0.9-1.9,0.8-3c0.5-0.3,0.9-0.7,1.2-1.1c1-1.4,1.1-3,0.5-4.6
	c1.2-1.8,0.8-4.2-0.7-5.8c0.1-1.7-0.6-3.4-2.2-4.6c-0.3-0.2-0.6-0.4-0.9-0.6c-0.3-1.2-1-2.3-2.1-3.2c-0.8-0.6-1.8-0.9-2.7-1.1
	c-0.2-0.3-0.5-0.5-0.8-0.7c-0.2-0.1-0.3-0.2-0.6-0.4c0-0.2,0.1-0.4,0.1-0.6c0-1-0.2-1.9-0.8-2.7c1.4-2.2,1.2-4.8-0.4-6.4
	c-0.8-0.7-1.9-1.1-3-1.2c-0.5-0.9-1.2-1.5-2.1-1.9c-1.7-0.7-3.7-0.3-5.1,1c-2.1-1-4.4-0.7-5.8,0.8c-0.7,0-1.4,0.1-2,0.3l-0.1-0.1
	c0.3-1.8-0.5-3.7-2.2-4.9c-0.5-0.4-0.9-0.6-1.4-0.8c-0.4-0.8-1-1.6-1.8-2.2c-1.1-0.8-2.4-1.1-3.6-1c-0.2-0.1-0.3-0.4-0.6-0.6
	c-1.9-1.4-4.2-1.4-5.8-0.3c-2-1-4.4-0.6-5.8,1c-1.5,0-2.9,0.6-3.8,1.8c-0.3,0.4-0.4,0.8-0.6,1.2c-1,0.3-1.9,0.9-2.5,1.7
	s-0.9,1.9-0.8,2.9c-1.2-0.7-2.6-1.3-4.2-1.4c-2.8-0.3-5.5,0.8-7.8,3l-0.1,0.2l-0.2,0.2c-0.2,0.2-0.5,0.5-0.7,0.8l0,0
	c-1.5,2.1-2.2,4.7-1.8,7.3c-0.5-0.3-1-0.5-1.6-0.5c-1.7-0.2-3.2,0.5-4.3,2c-0.1,0.2-0.2,0.3-0.4,0.5c-1.5-0.2-2.9,0.2-3.9,1.3
	c-0.1,0.2-0.2,0.3-0.4,0.5c-0.6,0.8-0.9,1.7-0.8,2.6c-0.7,0.3-1.4,0.9-1.8,1.5l0,0c-0.2,0.2-0.4,0.6-0.5,0.9c-0.4,0.9-0.5,2-0.2,3.1
	l-0.1,0.1l0,0c-0.2,0.2-0.4,0.6-0.5,0.9c-0.6,1.5-0.4,3.2,0.6,4.5c-0.4,1.1-0.4,2.1,0,3.2c0.3,0.7,0.6,1.2,1.1,1.7
	c-0.1,0.6,0.1,1.3,0.2,1.9c0.4,0.9,0.9,1.6,1.8,2.2c0,0.3,0.1,0.6,0.2,0.9c0.5,1.2,1.4,2.1,2.6,2.6c-0.3,0.4-0.6,0.7-0.8,1l0,0
	c-1.9,2.7-2.5,5.5-1.6,8.1c1,3.1,3.8,5,6.9,5.6c0,0,0,0-0.1,0.1s-0.2,0.2-0.2,0.3l0,0c-0.9,1.3-1.1,2.9-0.7,4.3
	c0.1,0.1,0,0.1,0.1,0.2c-0.4,1.1-0.4,2.1,0,3.3c0.1,0.3,0.3,0.7,0.6,1.1c-0.2,0.7,0,1.5,0.3,2.2c0.4,0.9,0.9,1.5,1.6,2
	c0.2,1.5,0.9,2.8,2.2,3.6C237.3,139.6,237.6,139.7,238,139.7z"/>
<ellipse id="DD:_Diffuser_247_" transform="matrix(0.5877 -0.8091 0.8091 0.5877 23.5424 259.2082)" class="st1" cx="266.1" cy="106.5" rx="10.4" ry="10.4"/>
<ellipse id="DD:_Diffuser_245_" transform="matrix(0.1678 -0.9858 0.9858 0.1678 131.2342 359.4413)" class="st2" cx="278.5" cy="102" rx="5.2" ry="5.2"/>
<ellipse id="DD:_Diffuser_244_" transform="matrix(0.958 -0.2869 0.2869 0.958 -21.6096 83.9365)" class="st2" cx="275.6" cy="115.7" rx="5.2" ry="5.2"/>
<ellipse id="DD:_Diffuser_243_" transform="matrix(0.7313 -0.6821 0.6821 0.7313 -10.6977 210.9072)" class="st2" cx="262.3" cy="119" rx="5.2" ry="5.2"/>
<ellipse id="DD:_Diffuser_242_" transform="matrix(0.3527 -0.9357 0.9357 0.3527 61.7312 308.7356)" class="st2" cx="254" cy="109.7" rx="5.2" ry="5.2"/>
<ellipse id="DD:_Diffuser_241_" transform="matrix(0.9951 -9.894719e-02 9.894719e-02 0.9951 -8.515 25.9144)" class="st2" cx="257" cy="98.8" rx="5.2" ry="5.2"/>
<ellipse id="DD:_Diffuser_246_" transform="matrix(0.9951 -9.894719e-02 9.894719e-02 0.9951 -8.079 26.9045)" class="st2" cx="267.2" cy="94.9" rx="5.2" ry="5.2"/>
<path id="DD:_Diffuser_188_" class="st4" d="M282.2,80.7c1.8,1.7,4.6,2.2,6.9,1.3c3.5-1.4,5.3-5.9,4.1-7.5c-0.8-1.1-3.1-1.2-4.6-0.7
	c-2.6,0.7-3.1,2.8-4.9,2.6c-2-0.1-2.9-2.8-3.5-2.5C279.5,74.2,279.5,78.3,282.2,80.7z"/>
<path id="DD:_Diffuser_187_" class="st3" d="M275.2,130.3c3-1,6.6-2.5,7.5-5.7c0.6-2.2-0.2-5-1.5-5.3s-1.9,2.1-4,2.4
	c-3.6,0.6-6.6-4.9-8.4-4c-1.1,0.5,0.1,3.1-1.7,5.1c-1.4,1.6-2.9,1-3.6,2.3c-0.9,1.6,0,4.4,1.9,5.7
	C268,133.1,272.1,131.6,275.2,130.3z"/>
<ellipse id="DD:_Diffuser_167_" transform="matrix(0.5877 -0.8091 0.8091 0.5877 39.2683 285.0118)" class="st2" cx="299.3" cy="104" rx="1.1" ry="1.6"/>
<ellipse id="DD:_Diffuser_166_" transform="matrix(0.5877 -0.8091 0.8091 0.5877 22.237 287.9511)" class="st2" cx="293.6" cy="122.2" rx="1.1" ry="1.6"/>
<ellipse id="DD:_Diffuser_165_" transform="matrix(0.5877 -0.8091 0.8091 0.5877 19.1353 290.3785)" class="st2" cx="294.5" cy="126.4" rx="1.1" ry="1.6"/>
<ellipse id="DD:_Diffuser_164_" transform="matrix(0.5877 -0.8091 0.8091 0.5877 15.477 291.7446)" class="st2" cx="294" cy="130.7" rx="1.1" ry="1.6"/>
<ellipse id="DD:_Diffuser_163_" transform="matrix(0.5877 -0.8091 0.8091 0.5877 11.9289 291.2356)" class="st2" cx="291.7" cy="133.9" rx="1.1" ry="1.6"/>
<ellipse id="DD:_Diffuser_162_" transform="matrix(0.5877 -0.8091 0.8091 0.5877 9.1491 289.5869)" class="st2" cx="288.7" cy="135.8" rx="1.1" ry="1.6"/>
<ellipse id="DD:_Diffuser_161_" transform="matrix(0.5877 -0.8091 0.8091 0.5877 6.6558 286.8713)" class="st2" cx="284.8" cy="136.9" rx="1.1" ry="1.6"/>
<ellipse id="DD:_Diffuser_160_" transform="matrix(0.5877 -0.8091 0.8091 0.5877 42.7718 287.0649)" class="st2" cx="303" cy="101.6" rx="1.1" ry="1.6"/>
<ellipse id="DD:_Diffuser_159_" transform="matrix(0.5877 -0.8091 0.8091 0.5877 46.9138 287.0007)" class="st2" cx="305.1" cy="97.5" rx="1.1" ry="1.6"/>
<ellipse id="DD:_Diffuser_158_" transform="matrix(0.5877 -0.8091 0.8091 0.5877 50.4892 285.4625)" class="st2" cx="305.3" cy="93.2" rx="1.1" ry="1.6"/>
<ellipse id="DD:_Diffuser_157_" transform="matrix(0.5877 -0.8091 0.8091 0.5877 53.0406 282.8463)" class="st2" cx="304" cy="89.4" rx="1.1" ry="1.6"/>
<ellipse id="DD:_Diffuser_156_" transform="matrix(0.5877 -0.8091 0.8091 0.5877 54.8536 278.7617)" class="st2" cx="300.9" cy="85.6" rx="1.1" ry="1.6"/>
<ellipse id="DD:_Diffuser_155_" transform="matrix(0.5877 -0.8091 0.8091 0.5877 54.8443 275.2195)" class="st2" cx="297.5" cy="83.8" rx="1.1" ry="1.6"/>
<ellipse id="DD:_Diffuser_154_" transform="matrix(0.5877 -0.8091 0.8091 0.5877 53.2164 271.6298)" class="st2" cx="293.1" cy="83.6" rx="1.1" ry="1.6"/>
<ellipse id="DD:_Diffuser_153_" transform="matrix(0.5877 -0.8091 0.8091 0.5877 52.5087 256.0057)" class="st2" cx="277.4" cy="76.5" rx="1.1" ry="1.6"/>
<ellipse id="DD:_Diffuser_152_" transform="matrix(0.5877 -0.8091 0.8091 0.5877 55.7084 254.4121)" class="st2" cx="277.5" cy="72.5" rx="1.1" ry="1.6"/>
<ellipse id="DD:_Diffuser_3_" transform="matrix(0.5877 -0.8091 0.8091 0.5877 56.9761 258.9892)" class="st2" cx="282.6" cy="73.6" rx="1.1" ry="1.6"/>
<ellipse id="DD:_Diffuser_4_" transform="matrix(0.5877 -0.8091 0.8091 0.5877 59.6593 261.453)" class="st2" cx="286.4" cy="72.2" rx="1.1" ry="1.6"/>
<ellipse id="DD:_Diffuser_5_" transform="matrix(0.4104 -0.9119 0.9119 0.4104 106.4868 307.9207)" class="st2" cx="291.4" cy="71.6" rx="1.6" ry="1.1"/>
<ellipse id="DD:_Diffuser_6_" transform="matrix(0.6726 -0.74 0.74 0.6726 41.9821 242.5456)" class="st2" cx="295.1" cy="73.8" rx="1.6" ry="1.1"/>
<ellipse id="DD:_Diffuser_7_" transform="matrix(0.6726 -0.74 0.74 0.6726 38.088 243.9071)" class="st2" cx="294.7" cy="78.9" rx="1.6" ry="1.1"/>
<ellipse id="DD:_Diffuser_151_" transform="matrix(0.5877 -0.8091 0.8091 0.5877 58.6605 250.7758)" class="st2" cx="275.4" cy="67.8" rx="1.1" ry="1.6"/>
<ellipse id="DD:_Diffuser_150_" transform="matrix(0.5877 -0.8091 0.8091 0.5877 59.6553 247.1263)" class="st2" cx="272.3" cy="65" rx="1.1" ry="1.6"/>
<ellipse id="DD:_Diffuser_149_" transform="matrix(0.5877 -0.8091 0.8091 0.5877 59.251 243.0236)" class="st2" cx="268.1" cy="63.4" rx="1.1" ry="1.6"/>
<ellipse id="DD:_Diffuser_148_" transform="matrix(0.5877 -0.8091 0.8091 0.5877 56.9822 239.2016)" class="st2" cx="263.2" cy="63.7" rx="1.1" ry="1.6"/>
<ellipse id="DD:_Diffuser_147_" transform="matrix(0.5877 -0.8091 0.8091 0.5877 54.4072 236.9373)" class="st2" cx="259.7" cy="65.1" rx="1.1" ry="1.6"/>
<ellipse id="DD:_Diffuser_146_" transform="matrix(0.5877 -0.8091 0.8091 0.5877 50.6657 235.733)" class="st2" cx="256.6" cy="68.2" rx="1.1" ry="1.6"/>
<ellipse id="DD:_Diffuser_145_" transform="matrix(0.5877 -0.8091 0.8091 0.5877 46.4297 235.5081)" class="st2" cx="254.3" cy="72.2" rx="1.1" ry="1.6"/>
<ellipse id="DD:_Diffuser_144_" transform="matrix(0.1245 -0.9922 0.9922 0.1245 128.519 310.1841)" class="st2" cx="240" cy="82.3" rx="1.6" ry="1.1"/>
<ellipse id="DD:_Diffuser_143_" transform="matrix(0.1245 -0.9922 0.9922 0.1245 123.6665 304.7886)" class="st2" cx="234.5" cy="82.3" rx="1.6" ry="1.1"/>
<ellipse id="DD:_Diffuser_142_" transform="matrix(0.6979 -0.7162 0.7162 0.6979 8.9925 190.5286)" class="st2" cx="230.3" cy="84.6" rx="1.1" ry="1.6"/>
<ellipse id="DD:_Diffuser_141_" transform="matrix(0.3936 -0.9193 0.9193 0.3936 56.7491 263.114)" class="st2" cx="227.8" cy="88.5" rx="1.1" ry="1.6"/>
<ellipse id="DD:_Diffuser_140_" transform="matrix(0.3936 -0.9193 0.9193 0.3936 52.5722 264.7879)" class="st2" cx="227" cy="92.5" rx="1.1" ry="1.6"/>
<ellipse id="DD:_Diffuser_139_" transform="matrix(0.9349 -0.3549 0.3549 0.9349 -19.3964 87.0512)" class="st2" cx="227.6" cy="96.4" rx="1.6" ry="1.1"/>
<ellipse id="DD:_Diffuser_138_" transform="matrix(0.9349 -0.3549 0.3549 0.9349 -20.5824 87.7829)" class="st2" cx="229" cy="100" rx="1.6" ry="1.1"/>
<ellipse id="DD:_Diffuser_137_" transform="matrix(0.9349 -0.3549 0.3549 0.9349 -21.5222 88.651)" class="st2" cx="230.9" cy="103" rx="1.6" ry="1.1"/>
<ellipse id="DD:_Diffuser_136_" transform="matrix(0.9349 -0.3549 0.3549 0.9349 -27.6431 92.4913)" class="st2" cx="238.3" cy="121.6" rx="1.6" ry="1.1"/>
<ellipse id="DD:_Diffuser_135_" transform="matrix(0.9349 -0.3549 0.3549 0.9349 -28.9987 92.2998)" class="st2" cx="237.1" cy="125.2" rx="1.6" ry="1.1"/>
<ellipse id="DD:_Diffuser_134_" transform="matrix(0.9349 -0.3549 0.3549 0.9349 -30.2069 92.5199)" class="st2" cx="237.1" cy="128.6" rx="1.6" ry="1.1"/>
<ellipse id="DD:_Diffuser_133_" transform="matrix(0.9349 -0.3549 0.3549 0.9349 -31.319 93.0555)" class="st2" cx="238" cy="131.9" rx="1.6" ry="1.1"/>
<ellipse id="DD:_Diffuser_132_" transform="matrix(0.4937 -0.8696 0.8696 0.4937 3.8756 276.5869)" class="st2" cx="239.5" cy="135" rx="1.6" ry="1.1"/>
<ellipse id="DD:_Diffuser_131_" transform="matrix(0.4937 -0.8696 0.8696 0.4937 3.3168 280.1273)" class="st2" cx="242.2" cy="137.2" rx="1.6" ry="1.1"/>
<ellipse id="DD:_Diffuser_130_" transform="matrix(0.4937 -0.8696 0.8696 0.4937 3.6395 283.8903)" class="st2" cx="245.6" cy="138.8" rx="1.6" ry="1.1"/>
<ellipse id="DD:_Diffuser_129_" transform="matrix(0.4937 -0.8696 0.8696 0.4937 5.2911 286.8919)" class="st2" cx="249" cy="138.9" rx="1.6" ry="1.1"/>
<ellipse id="DD:_Diffuser_128_" transform="matrix(0.4937 -0.8696 0.8696 0.4937 7.2802 289.1105)" class="st2" cx="251.9" cy="138.3" rx="1.6" ry="1.1"/>
<ellipse id="DD:_Diffuser_1_" transform="matrix(0.4937 -0.8696 0.8696 0.4937 13.9624 292.8857)" class="st2" cx="258.5" cy="134.5" rx="1.6" ry="1.1"/>
<ellipse id="DD:_Diffuser_2_" transform="matrix(0.4937 -0.8696 0.8696 0.4937 19.1023 302.1963)" class="st2" cx="269.1" cy="134.7" rx="1.6" ry="1.1"/>
<path id="DD:_Diffuser_99_" class="st3" d="M293.7,108.4c0.2-1.6,0.6-6-2.2-8.3c-2.1-1.8-5.7-2.2-6.8-0.9c-1,1.2,0.8,2.8,0,4.8
	c-1.3,3.4-7.5,3.5-7.5,4.8c0.1,0.9,2.6,0.8,4.1,2.9c1.3,1.7,0.1,3.3,1.1,4.5c1.3,1.6,5,1.4,7.4-0.1
	C293.1,114.2,293.5,110.2,293.7,108.4z"/>
<path id="DD:_Diffuser_98_" class="st3" d="M283.4,83.6c-1.8-1.7-4.1-3.9-7.3-3.7c-4.7,0.3-8.4,5.5-7.6,7.4c0.5,1.1,2.3,0.3,3.5,1.7
	c2.2,2.4-0.4,7.1,1.1,8c0.9,0.6,2-1.4,4.3-1.5c2.9-0.1,3.8,2.9,6.2,2.7c2.1-0.2,4.1-3.1,4.5-5.5C288.7,88.5,285.3,85.2,283.4,83.6z"
	/>
<path id="DD:_Diffuser_97_" class="st3" d="M254.5,78.1c1.6-0.7,5.5-2.4,8.9-0.6c4.2,2.3,5.2,8.5,3.8,9.7c-0.8,0.6-2-0.3-3.3,0.7
	c-1.1,0.9-0.8,2.4-1.8,2.6c-1,0.4-1.7-1.5-3.3-1.7c-2.6-0.4-3.8,4-6.2,4.1c-2.4,0-5.5-4.6-4.6-8.7C249,80.5,252.8,78.8,254.5,78.1z"
	/>
<path id="DD:_Diffuser_96_" class="st3" d="M257,115.9c-0.7-0.9-3.4,1.3-6.1,0.3c-2.2-0.9-2.3-3.4-3.5-3.4c-2.1,0-5,6-2.8,9.3
	c0.9,1.4,1.9,0.9,4.7,2.8c3.8,2.6,3.8,4.8,6,5.1c2.9,0.5,6.1-2.5,5.7-3.9c-0.3-0.7-1.9-0.1-3.5-1.3c-1.7-1.4-1.8-3.8-1.9-4.1
	C255.6,118,257.5,116.7,257,115.9z"/>
<path id="DD:_Diffuser_95_" class="st3" d="M236.4,97.7c-1,2.6-1.9,7.7,1.2,10.6c2.5,2.3,7,2.8,8,1.4c0.6-0.8-0.3-1.7,0.1-3
	c1.1-2.9,7.5-2.3,7.6-3.9c0.1-0.8-1.7-1-2.6-2.7c-1-1.8,0.1-2.9-0.5-4.4c-1.1-2.5-6.3-4.4-10-2.7C237.7,94.3,236.9,96.5,236.4,97.7z
	"/>
<path id="DD:_Diffuser_75_" class="st4" d="M241.5,122.1c-2.9,0.7-3.2,9.5,2.1,13c4.7,3,12,0.5,11.9-2.4
	C255.3,130.1,243.9,121.5,241.5,122.1z"/>
<path id="DD:_Diffuser_74_" class="st4" d="M235.7,107.4c0.9,0.4,0,2.6,1.5,4.3c1.7,2,4.4,1.1,4.7,2.3c0.5,1.4-1.7,3.9-4.4,4.7
	c-3.1,0.8-7-0.5-8-3.3C228.2,111.3,234.2,106.6,235.7,107.4z"/>
<path id="DD:_Diffuser_73_" class="st4" d="M244.6,89.4c0.7-0.8,0.4-2.8-0.5-3.9c-2.4-2.7-10.2-2.2-13.2,2.3
	c-4.1,5.8,2.2,14.7,3.4,14.3c0.6-0.1,0-2.4,1.5-6.6c0.9-2.6,1.6-4.6,3.4-5.6C241.4,88.9,243.6,90.6,244.6,89.4z"/>
<path id="DD:_Diffuser_72_" class="st4" d="M249.1,79.4c2-1.6,3.4-1.1,3.9-2.2c0.9-1.9-1.8-6.9-5.9-7.2c-2.9-0.3-5,1.9-5.2,2
	c-2.1,2.3-2,5.7-0.7,7.9c0.8,1.6,2.8,3.4,4.6,3.1C247.2,82.7,247,81.1,249.1,79.4z"/>
<path id="DD:_Diffuser_71_" class="st4" d="M268.4,78.8c2.1,0.7,5-0.3,6.3-2.2c2-2.9,0-6.7-1.7-8.5c-2.4-2.6-6.1-3.1-8.9-2.4
	c-5.6,1.5-8.5,8.3-7.4,9.6c1,1.1,4.3-2.3,7.4-0.8C266.5,75.6,266.1,78,268.4,78.8z"/>
<path id="DD:_Diffuser_70_" class="st4" d="M288.7,96.2c-0.3-1.2,1.9-1.9,2.2-4c0.3-2.6-2.7-3.9-2.1-5.5s4.5-1.7,7.3-0.9
	c0.8,0.2,4.5,1.2,6.1,4.8c0.1,0.5,1.5,3.3,0.3,6.5c-0.7,1.8-1.9,2.9-3,3.9c-0.9,0.7-3.2,2.9-4.3,2.2c-0.9-0.6,0.3-2.6-0.8-4.4
	C293,96.7,289.2,97.6,288.7,96.2z"/>
<path id="DD:_Diffuser_69_" class="st4" d="M294.5,112c0.9-2.8,0.2-4,1.1-4.8c1.4-1.3,5.3-0.5,7.1,2.1c1.6,2.3,0.9,5,0.8,5.3
	c0,0.2-1.1,3.4-4.3,4.3c-2.9,0.7-6.4-0.8-6.7-2.7C292.5,115.2,293.6,114.8,294.5,112z"/>
<path id="DD:_Diffuser_68_" class="st4" d="M286.1,120.5c0.9-0.8,2.7-0.4,3.8,0.3c2.7,1.7,3.4,6.8,1.5,10
	c-3.5,5.6-14.3,3.1-14.5,1.7c-0.1-1.2,7.2-1.8,8.5-6.3C286.2,123.7,284.8,121.5,286.1,120.5z"/>
<ellipse id="DD:_Diffuser_57_" transform="matrix(0.5877 -0.8091 0.8091 0.5877 1.2045 277.5961)" class="st3" cx="273" cy="137.6" rx="2" ry="2.3"/>
<ellipse id="DD:_Diffuser_56_" transform="matrix(0.5877 -0.8091 0.8091 0.5877 -1.7424 269.7768)" class="st3" cx="263.8" cy="136.6" rx="2" ry="2.3"/>
<ellipse id="DD:_Diffuser_55_" transform="matrix(0.5877 -0.8091 0.8091 0.5877 -7.7831 264.7994)" class="st3" cx="255.9" cy="140" rx="2" ry="2.3"/>
</svg>
