<?xml version="1.0" encoding="utf-8"?>
<!-- Generator: Adobe Illustrator 19.2.1, SVG Export Plug-In . SVG Version: 6.00 Build 0)  -->
<svg version="1.1" id="Layer_1" xmlns="http://www.w3.org/2000/svg" xmlns:xlink="http://www.w3.org/1999/xlink" x="0px" y="0px"
	 viewBox="0 0 1728 864" style="enable-background:new 0 0 1728 864;" xml:space="preserve">
<style type="text/css">
	.st0{fill:#484748;stroke:#FFFFFF;stroke-miterlimit:10;}
	.st1{fill:#7B7B7B;}
	.st2{fill:#AEADAE;}
	.st3{fill:#B2B3B3;}
	.st4{fill:#B7B7B7;}
	.st5{fill:none;stroke:#000000;stroke-miterlimit:10;}
	.st6{fill:#484748;}
	.st7{fill:#FFFFFF;stroke:#000000;stroke-miterlimit:10;}
	.st8{fill:#FFFFFF;fill-opacity:0;}
	.st9{fill:#333333;}
</style>
<path id="BASE:_Diffuser" class="st0" d="M759.3,490.5c1.5,1.7,4.3,4.8,9.1,6.6c2.8,1.1,5.4,1.4,7.3,1.6c-1.1,2-6.9,13.8-2,27
	c4.4,11.7,15.3,20,28.5,21.7c0.2,0.2,5.2,3.8,10.6,1.5c4.2-1.7,6.9-6.2,6.6-11.1c1.1,0.4,5.2,1.9,9.7,0.3c4.5-1.6,7.8-6,8.6-11
	c11.1-14.8,14.1-17.6,14.7-17.1c0.7,0.5-3.3,5.6-1.7,11.1c0.8,2.7,3.2,6.7,7,6.6c3.2,0,6.3-2.9,7.1-7.2c3.3,3.1,7.2,4.9,9.7,3.6
	c3.3-1.6,4.8-8.6,0.7-16.2c0.6-0.4,6.2-5.3,5.8-13.1c-0.4-7.1-5.6-11.1-6.3-11.7c0.9-0.2,8-2.2,10.9-9.1c1.5-3.6,2.8-10.5-1.6-14.5
	c-4-3.7-11.4-3.5-16.8,1.4c0.7-2.2,1.5-5.5,1.4-9.5c-0.2-5.5-1.9-9.6-3.1-11.9c0.8-3.9,2.3-6,3.7-7.2c1.5-1.4,2.9-2,3.2-3.6
	c0.3-1.8-1.2-2.3-1.1-4.5c0-2.6,2.2-3.2,1.8-5.1c-0.3-1.7-2.1-1.5-3.2-3.8c-0.9-2,0.3-2.9-0.7-4.5c-1-1.6-2.1-1-3.3-2.6
	c-1.1-1.5-0.5-2.5-1.6-4.3c-0.8-1.3-1.9-2.1-2.8-2.6c-1.2-0.7-3.8-2-7.1-2.1c-2.3-0.1-4,0.4-5.3,0.8c2.7-2,4.1-5.4,3.5-8.6
	c-0.7-3.7-4-6.6-7.9-7c-1.6,0.3-3.9,0.8-6.3,2.2c-2.8,1.7-3.6,3.2-5.2,3.4c-1.4,0.1-3.6-1-6.4-6.5c-1.4-3.2-4.4-9-10-13.2
	c-3.6-2.6-6-2.9-7.1-3c-2.5-0.2-4.6,0.5-5.7,1c-0.7-0.2-2.2-0.9-4.2-0.6c-2.3,0.3-3.8,1.7-4.2,2.1c-1.9-0.6-3.8,0-4.9,1.4
	c-1,1.2-1,2.6-1,3c-0.8,0.3-2.3,0.8-3.8,2.2c-2.1,2-2.5,4.4-2.6,5.3c-4.8-3.1-11-3.3-15.8-0.4c-5.1,3.1-7.9,9.1-6.9,15
	c-0.6-0.2-3.9-1.2-7.3,0.7c-1.9,1.1-3,2.6-3.5,3.4c-0.4,0-3.1-0.4-5.2,1.8c-2,1.9-2,4.4-2,4.8c-1.9,0.4-3.4,1.8-3.9,3.6
	c-0.6,2.2,0.5,3.9,0.7,4.2c-1.4,0.6-2.4,2-2.5,3.4c-0.2,1.6,0.6,3.2,2.1,4c-0.2,0.2-1.2,2.1-0.6,4.2c0.5,1.6,1.7,2.5,2,2.7
	c-0.1,0.6-0.1,2.3,0.9,4.1c0.9,1.5,2.2,2.3,2.8,2.6c0.4,1,0.9,2.4,1.7,3.7c0.8,1.4,1.8,2.5,2.5,3.3c-4,3.3-5.5,8.6-3.8,13.3
	c1.6,4.3,5.6,7.3,10.2,7.7c-2.2,4.4-1.9,6.7-1,7.9c0.5,0.7,1.4,1.4,1.3,2.4c-0.1,1.2-1.4,1.4-1.6,2.5c-0.1,1,1,1.5,2.1,3
	c1.3,1.9,0.6,3.1,1.7,6.2C757.6,487.2,758.2,488.8,759.3,490.5z"/>
<ellipse id="DDS:_Diffuser_247_" transform="matrix(0.5877 -0.809 0.809 0.5877 -24.6879 833.5167)" class="st1" cx="805.5" cy="441" rx="16.5" ry="16.5"/>
<ellipse id="DDS:_Diffuser_245_" transform="matrix(0.1678 -0.9858 0.9858 0.1678 258.8631 1174.5386)" class="st2" cx="825.1" cy="433.9" rx="8.2" ry="8.2"/>
<ellipse id="DDS:_Diffuser_244_" transform="matrix(0.958 -0.2869 0.2869 0.958 -96.2183 254.5757)" class="st2" cx="820.5" cy="455.6" rx="8.2" ry="8.2"/>
<ellipse id="DDS:_Diffuser_243_" transform="matrix(0.7313 -0.6821 0.6821 0.7313 -99.539 669.0554)" class="st2" cx="799.3" cy="460.8" rx="8.2" ry="8.2"/>
<ellipse id="DDS:_Diffuser_242_" transform="matrix(0.3527 -0.9357 0.9357 0.3527 91.5342 1024.434)" class="st2" cx="786.3" cy="446.1" rx="8.2" ry="8.2"/>
<ellipse id="DDS:_Diffuser_241_" transform="matrix(0.9951 -9.894866e-02 9.894866e-02 0.9951 -38.4839 80.407)" class="st2" cx="791.4" cy="428.2" rx="8.2" ry="8.3"/>
<ellipse id="DDS:_Diffuser_246_" transform="matrix(0.9951 -9.894866e-02 9.894866e-02 0.9951 -37.845 81.9432)" class="st2" cx="807.2" cy="422.5" rx="8.2" ry="8.3"/>
<path id="DDS:_Diffuser_237_" class="st3" d="M873.2,518.8c-1.3,0.9-3.5-3.2-8.1-3.4c-5.5-0.3-8.7,5.4-10,4.5
	c-1.3-0.9,0.1-8.3,5.4-10.9c2.7-1.4,6.6-1.4,9.4,0.7C873.7,512.4,874.5,517.9,873.2,518.8z"/>
<ellipse id="DDS:_Diffuser_236_" transform="matrix(0.5877 -0.809 0.809 0.5877 -45.0374 901.0837)" class="st1" cx="861.7" cy="494.7" rx="4.2" ry="4.2"/>
<ellipse id="DDS:_Diffuser_235_" transform="matrix(0.5877 -0.809 0.809 0.5877 -36.5031 902.3428)" class="st2" cx="867.2" cy="487" rx="4.2" ry="4.2"/>
<ellipse id="DDS:_Diffuser_234_" transform="matrix(0.5877 -0.809 0.809 0.5877 -41.4058 908.9213)" class="st2" cx="871.2" cy="495.1" rx="4.2" ry="4.2"/>
<ellipse id="DDS:_Diffuser_233_" transform="matrix(0.5877 -0.809 0.809 0.5877 -39.658 894.3968)" class="st2" cx="857.8" cy="486.1" rx="4.2" ry="4.2"/>
<ellipse id="DDS:_Diffuser_232_" transform="matrix(0.5877 -0.809 0.809 0.5877 -50.0253 908.2003)" class="st2" cx="866.2" cy="503.2" rx="4.2" ry="4.2"/>
<ellipse id="DDS:_Diffuser_231_" transform="matrix(0.5877 -0.809 0.809 0.5877 -53.4208 900.0323)" class="st2" cx="856.4" cy="502.4" rx="4.2" ry="4.2"/>
<ellipse id="DDS:_Diffuser_230_" transform="matrix(0.5877 -0.809 0.809 0.5877 -48.3007 892.6608)" class="st2" cx="851.8" cy="493.7" rx="4.2" ry="4.2"/>
<ellipse id="DDS:_Diffuser_210_" transform="matrix(0.5877 -0.809 0.809 0.5877 -83.3036 880.3164)" class="st2" cx="822.2" cy="521.9" rx="7.5" ry="7.5"/>
<ellipse id="DDS:_Diffuser_209_" transform="matrix(0.5877 -0.809 0.809 0.5877 -97.4852 871.1763)" class="st2" cx="806.1" cy="531.2" rx="7.5" ry="7.5"/>
<ellipse id="DDS:_Diffuser_208_" transform="matrix(0.5877 -0.809 0.809 0.5877 -95.0006 855.4814)" class="st2" cx="791.9" cy="521" rx="7.5" ry="7.5"/>
<ellipse id="DDS:_Diffuser_207_" transform="matrix(0.5877 -0.809 0.809 0.5877 -84.3128 866.3666)" class="st1" cx="808" cy="515.9" rx="7.5" ry="7.5"/>
<ellipse id="DDS:_Diffuser_206_" transform="matrix(0.5877 -0.809 0.809 0.5877 -70.9497 868.4822)" class="st2" cx="816.7" cy="503.9" rx="7.5" ry="7.5"/>
<ellipse id="DDS:_Diffuser_205_" transform="matrix(0.5877 -0.809 0.809 0.5877 -79.0015 853.1417)" class="st2" cx="797.6" cy="504.1" rx="7.5" ry="7.5"/>
<path id="DDS:_Diffuser_188_" class="st4" d="M830.9,400.1c2.8,2.6,7.3,3.4,10.9,2c5.4-2.2,8.4-9.3,6.5-12c-1.3-1.8-4.9-1.7-7.2-1.2
	c-4.2,1.2-5,4.4-7.8,4.2c-3.2-0.2-4.6-4.4-5.5-4C826.6,389.7,826.6,396.3,830.9,400.1z"/>
<path id="DDS:_Diffuser_187_" class="st3" d="M819.8,478.8c4.7-1.8,10.5-4,11.9-9c0.9-3.5-0.3-7.9-2.4-8.4c-2-0.5-3,3.3-6.4,3.9
	c-5.6,1-10.5-7.7-13.2-6.3c-1.8,0.9,0.1,4.9-2.7,8.1c-2.2,2.5-4.7,1.5-5.9,3.6c-1.4,2.4,0.2,6.9,2.9,9.1
	C808.4,483.2,814.8,480.7,819.8,478.8z"/>
<ellipse id="DDS:_Diffuser_167_" transform="matrix(0.5877 -0.809 0.809 0.5877 0.173 874.5015)" class="st2" cx="858.2" cy="437.1" rx="1.8" ry="2.5"/>
<ellipse id="DDS:_Diffuser_166_" transform="matrix(0.5877 -0.809 0.809 0.5877 -26.8401 879.0506)" class="st2" cx="849.1" cy="465.9" rx="1.8" ry="2.5"/>
<ellipse id="DDS:_Diffuser_165_" transform="matrix(0.5877 -0.809 0.809 0.5877 -31.6897 882.9714)" class="st2" cx="850.6" cy="472.6" rx="1.8" ry="2.5"/>
<ellipse id="DDS:_Diffuser_164_" transform="matrix(0.5877 -0.809 0.809 0.5877 -37.6291 885.065)" class="st2" cx="849.7" cy="479.5" rx="1.8" ry="2.5"/>
<ellipse id="DDS:_Diffuser_163_" transform="matrix(0.5877 -0.809 0.809 0.5877 -43.1896 884.1847)" class="st2" cx="846" cy="484.5" rx="1.8" ry="2.5"/>
<ellipse id="DDS:_Diffuser_162_" transform="matrix(0.5877 -0.809 0.809 0.5877 -47.4795 881.6669)" class="st2" cx="841.4" cy="487.4" rx="1.8" ry="2.5"/>
<ellipse id="DDS:_Diffuser_161_" transform="matrix(0.5877 -0.809 0.809 0.5877 -51.4998 877.445)" class="st2" cx="835.2" cy="489.3" rx="1.8" ry="2.5"/>
<ellipse id="DDS:_Diffuser_160_" transform="matrix(0.5877 -0.809 0.809 0.5877 5.7373 877.6807)" class="st2" cx="864.1" cy="433.2" rx="1.8" ry="2.5"/>
<ellipse id="DDS:_Diffuser_159_" transform="matrix(0.5877 -0.809 0.809 0.5877 12.365 877.6268)" class="st2" cx="867.4" cy="426.7" rx="1.8" ry="2.5"/>
<ellipse id="DDS:_Diffuser_158_" transform="matrix(0.5877 -0.809 0.809 0.5877 18.1818 875.1461)" class="st2" cx="867.8" cy="419.7" rx="1.8" ry="2.5"/>
<ellipse id="DDS:_Diffuser_157_" transform="matrix(0.5877 -0.809 0.809 0.5877 22.1629 870.9039)" class="st2" cx="865.7" cy="413.7" rx="1.8" ry="2.5"/>
<ellipse id="DDS:_Diffuser_156_" transform="matrix(0.5877 -0.809 0.809 0.5877 24.9177 864.5369)" class="st2" cx="860.8" cy="407.8" rx="1.8" ry="2.5"/>
<ellipse id="DDS:_Diffuser_155_" transform="matrix(0.5877 -0.809 0.809 0.5877 24.8869 858.9241)" class="st2" cx="855.3" cy="405" rx="1.8" ry="2.5"/>
<ellipse id="DDS:_Diffuser_154_" transform="matrix(0.5877 -0.809 0.809 0.5877 22.4817 853.2112)" class="st2" cx="848.5" cy="404.5" rx="1.8" ry="2.5"/>
<ellipse id="DDS:_Diffuser_153_" transform="matrix(0.5877 -0.809 0.809 0.5877 21.3541 828.3947)" class="st2" cx="823.5" cy="393.2" rx="1.8" ry="2.5"/>
<ellipse id="DDS:_Diffuser_152_" transform="matrix(0.5877 -0.809 0.809 0.5877 26.1844 825.7578)" class="st2" cx="823.4" cy="387.2" rx="1.8" ry="2.5"/>
<ellipse id="DDS:_Diffuser_151_" transform="matrix(0.5877 -0.809 0.809 0.5877 31.0205 820.1801)" class="st2" cx="820.3" cy="379.7" rx="1.8" ry="2.5"/>
<ellipse id="DDS:_Diffuser_150_" transform="matrix(0.5877 -0.809 0.809 0.5877 32.5996 814.2704)" class="st2" cx="815.3" cy="375.1" rx="1.8" ry="2.5"/>
<ellipse id="DDS:_Diffuser_149_" transform="matrix(0.5877 -0.809 0.809 0.5877 31.861 807.9021)" class="st2" cx="808.7" cy="372.7" rx="1.8" ry="2.5"/>
<ellipse id="DDS:_Diffuser_148_" transform="matrix(0.5877 -0.809 0.809 0.5877 28.3326 801.7355)" class="st2" cx="800.9" cy="373.1" rx="1.8" ry="2.5"/>
<ellipse id="DDS:_Diffuser_147_" transform="matrix(0.5877 -0.809 0.809 0.5877 24.109 798.217)" class="st2" cx="795.3" cy="375.5" rx="1.8" ry="2.5"/>
<ellipse id="DDS:_Diffuser_146_" transform="matrix(0.5877 -0.809 0.809 0.5877 18.3743 796.114)" class="st2" cx="790.4" cy="380" rx="1.8" ry="2.5"/>
<ellipse id="DDS:_Diffuser_145_" transform="matrix(0.5877 -0.809 0.809 0.5877 11.5202 795.8563)" class="st2" cx="786.7" cy="386.6" rx="1.8" ry="2.5"/>
<ellipse id="DDS:_Diffuser_144_" transform="matrix(0.1245 -0.9922 0.9922 0.1245 269.5412 1110.4952)" class="st2" cx="764.1" cy="402.5" rx="2.5" ry="1.8"/>
<ellipse id="DDS:_Diffuser_143_" transform="matrix(0.1245 -0.9922 0.9922 0.1245 261.8015 1101.9257)" class="st2" cx="755.3" cy="402.6" rx="2.5" ry="1.8"/>
<ellipse id="DDS:_Diffuser_142_" transform="matrix(0.6979 -0.7162 0.7162 0.6979 -64.7553 658.8116)" class="st2" cx="748.6" cy="406.2" rx="1.8" ry="2.5"/>
<ellipse id="DDS:_Diffuser_141_" transform="matrix(0.3936 -0.9193 0.9193 0.3936 72.2877 934.4643)" class="st2" cx="744.4" cy="412.4" rx="1.8" ry="2.5"/>
<ellipse id="DDS:_Diffuser_140_" transform="matrix(0.3936 -0.9193 0.9193 0.3936 65.7673 937.257)" class="st2" cx="743.3" cy="418.8" rx="1.8" ry="2.5"/>
<ellipse id="DDS:_Diffuser_139_" transform="matrix(0.9349 -0.3549 0.3549 0.9349 -102.3897 291.826)" class="st2" cx="744.4" cy="425" rx="2.5" ry="1.8"/>
<ellipse id="DDS:_Diffuser_138_" transform="matrix(0.9349 -0.3549 0.3549 0.9349 -104.2672 292.9716)" class="st2" cx="746.5" cy="430.7" rx="2.5" ry="1.8"/>
<ellipse id="DDS:_Diffuser_137_" transform="matrix(0.9349 -0.3549 0.3549 0.9349 -105.7356 294.3745)" class="st2" cx="749.6" cy="435.4" rx="2.5" ry="1.8"/>
<ellipse id="DDS:_Diffuser_136_" transform="matrix(0.9349 -0.3549 0.3549 0.9349 -115.4264 300.393)" class="st2" cx="761.2" cy="464.9" rx="2.5" ry="1.8"/>
<ellipse id="DDS:_Diffuser_135_" transform="matrix(0.9349 -0.3549 0.3549 0.9349 -117.5743 300.0927)" class="st2" cx="759.3" cy="470.6" rx="2.5" ry="1.8"/>
<ellipse id="DDS:_Diffuser_134_" transform="matrix(0.9349 -0.3549 0.3549 0.9349 -119.5163 300.4804)" class="st2" cx="759.4" cy="476.1" rx="2.5" ry="1.8"/>
<ellipse id="DDS:_Diffuser_133_" transform="matrix(0.9349 -0.3549 0.3549 0.9349 -121.2609 301.2869)" class="st2" cx="760.7" cy="481.2" rx="2.5" ry="1.8"/>
<ellipse id="DDS:_Diffuser_132_" transform="matrix(0.4937 -0.8696 0.8696 0.4937 -36.1853 909.7955)" class="st2" cx="763.2" cy="486" rx="2.5" ry="1.8"/>
<ellipse id="DDS:_Diffuser_131_" transform="matrix(0.4937 -0.8696 0.8696 0.4937 -37.054 915.3713)" class="st2" cx="767.6" cy="489.5" rx="2.5" ry="1.8"/>
<ellipse id="DDS:_Diffuser_130_" transform="matrix(0.4937 -0.8696 0.8696 0.4937 -36.5414 921.2893)" class="st2" cx="772.9" cy="492" rx="2.5" ry="1.8"/>
<ellipse id="DDS:_Diffuser_129_" transform="matrix(0.4937 -0.8696 0.8696 0.4937 -33.9847 925.9988)" class="st2" cx="778.3" cy="492.2" rx="2.5" ry="1.8"/>
<ellipse id="DDS:_Diffuser_128_" transform="matrix(0.4937 -0.8696 0.8696 0.4937 -30.9159 929.6475)" class="st2" cx="782.9" cy="491.4" rx="2.5" ry="1.8"/>
<path id="DDS:_Diffuser_99_" class="st3" d="M849.1,444.1c0.3-2.6,1-9.4-3.5-13.2c-3.5-2.9-9.1-3.5-10.8-1.4c-1.6,1.9,1.2,4.5,0,7.7
	c-2,5.3-11.9,5.5-11.8,7.7c0.1,1.4,4.1,1.3,6.6,4.5c2.1,2.7,0.1,5.1,1.7,7.2c2.1,2.5,7.9,2.2,11.7-0.1
	C848.2,453.3,848.9,446.9,849.1,444.1z"/>
<path id="DDS:_Diffuser_98_" class="st3" d="M832.9,404.6c-2.9-2.8-6.6-6.1-11.5-5.9c-7.4,0.5-13.4,8.7-12,11.6
	c0.8,1.7,3.6,0.5,5.6,2.7c3.5,3.7-0.6,11.3,1.8,12.7c1.5,0.8,3.1-2.2,6.7-2.3c4.6-0.1,6.1,4.5,9.7,4.3c3.5-0.3,6.5-4.8,7.1-8.7
	C841.3,412.5,835.8,407.2,832.9,404.6z"/>
<path id="DDS:_Diffuser_97_" class="st3" d="M787,396c2.5-1.1,8.7-3.8,14.2-0.8c6.5,3.6,8.3,13.4,6,15.4c-1.2,1-3.2-0.5-5.2,1
	c-1.9,1.4-1.3,3.7-2.8,4.2c-1.6,0.5-2.7-2.4-5.2-2.7c-4-0.6-6,6.4-9.8,6.4c-3.9-0.1-8.6-7.2-7.2-13.7
	C778.3,399.8,784.1,397.1,787,396z"/>
<path id="DDS:_Diffuser_96_" class="st3" d="M791.9,453.1c-1.2-1.5-6,2.5-10.5,0.7c-3.7-1.6-3.6-5.7-5.8-5.7c-3.6,0.1-9,11-5.4,16.6
	c1.5,2.3,3.2,1.5,7.9,4.6c6.3,4.4,6.3,8.2,10,8.6c4.9,0.7,10.8-4.8,10.1-7.3c-0.3-1.2-3.3,0-5.9-2.1c-2.9-2.3-2.9-6.6-2.9-7.1
	C789.4,456.9,792.8,454.4,791.9,453.1z"/>
<path id="DDS:_Diffuser_95_" class="st3" d="M759.3,425.5c-2,4.6-3.8,13.7,1.4,18.8c4.2,4.1,11.8,4.6,13.9,2c1.1-1.5-0.4-3,0.4-5.4
	c2.1-5.3,13.2-4.5,13.5-7.3c0.1-1.4-2.8-1.6-4.3-4.6c-1.6-3.2,0.4-5.1-0.7-7.8c-1.8-4.5-10.8-7.3-17.3-4.1
	C761.9,419.3,760.2,423.4,759.3,425.5z"/>
<path id="DDS:_Diffuser_75_" class="st4" d="M766.3,465.7c-4.5,1.1-5.1,15.1,3.3,20.5c7.5,4.8,19.1,0.8,18.9-3.8
	C788.2,478.5,770.2,464.8,766.3,465.7z"/>
<path id="DDS:_Diffuser_74_" class="st4" d="M757.2,442.3c1.5,0.7,0,4.1,2.4,6.9c2.7,3.1,6.9,1.7,7.6,3.7c0.8,2.1-2.8,6.2-7,7.5
	c-4.8,1.3-11.2-0.8-12.6-5.2C745.3,448.6,754.7,441.2,757.2,442.3z"/>
<path id="DDS:_Diffuser_73_" class="st4" d="M771.2,413.8c1.1-1.4,0.7-4.5-0.8-6.2c-3.7-4.3-16-3.5-21,3.7
	c-6.5,9.3,3.5,23.3,5.4,22.8c1-0.2,0.1-3.9,2.3-10.5c1.4-4.1,2.5-7.4,5.4-8.8C766.1,413.1,769.6,415.7,771.2,413.8z"/>
<path id="DDS:_Diffuser_72_" class="st4" d="M778.4,398c3.2-2.6,5.4-1.8,6.2-3.5c1.5-3.1-2.9-10.9-9.3-11.5c-4.6-0.4-7.9,3-8.2,3.3
	c-3.3,3.7-3.2,9-1.1,12.6c1.4,2.5,4.6,5.4,7.2,4.9C775.4,403.2,775.1,400.7,778.4,398z"/>
<path id="DDS:_Diffuser_71_" class="st4" d="M809,397.1c3.3,1.3,8-0.4,10-3.6c3.1-4.6,0-10.6-2.8-13.5c-3.9-4.2-9.8-4.9-14.2-3.8
	c-8.9,2.4-13.4,13.2-11.7,15.2c1.5,1.6,6.9-3.7,11.8-1.3C805.9,392,805.3,395.8,809,397.1z"/>
<path id="DDS:_Diffuser_70_" class="st4" d="M841.3,424.6c-0.5-1.9,3-2.9,3.4-6.3c0.5-4.1-4.2-6.3-3.4-8.6c0.9-2.4,7.1-2.8,11.6-1.5
	c1.4,0.4,7.2,2,9.9,7.8c0.3,0.7,2.4,5.3,0.5,10.4c-1.1,2.9-3,4.6-4.7,6.2c-1.3,1.1-5.1,4.5-6.8,3.4c-1.6-0.9,0.5-4.2-1.2-7
	C848.1,425.4,842,426.9,841.3,424.6z"/>
<path id="DDS:_Diffuser_69_" class="st4" d="M850.5,449.8c1.5-4.5,0.2-6.3,1.7-7.5c2.3-2,8.5-0.8,11.3,3.3c2.6,3.6,1.4,7.9,1.3,8.5
	c-0.1,0.3-1.7,5.4-6.7,6.9c-4.6,1.2-10.1-1.3-10.7-4.2C847.1,454.9,849.1,454.2,850.5,449.8z"/>
<path id="DDS:_Diffuser_68_" class="st4" d="M837.1,463.3c1.5-1.2,4.3-0.6,5.9,0.5c4.3,2.8,5.4,10.9,2.4,15.8
	c-5.4,8.8-22.6,4.9-22.9,2.6c-0.2-1.9,11.4-2.8,13.5-10.1C837.2,468.3,835,464.9,837.1,463.3z"/>
<ellipse id="DDS:_Diffuser_59_" transform="matrix(0.5877 -0.809 0.809 0.5877 -75.6039 890.9125)" class="st3" cx="836.4" cy="519.6" rx="3.1" ry="3.7"/>
<ellipse id="DDS:_Diffuser_57_" transform="matrix(0.5877 -0.809 0.809 0.5877 -60.2033 862.7369)" class="st3" cx="816.5" cy="490.4" rx="3.1" ry="3.7"/>
<ellipse id="DDS:_Diffuser_56_" transform="matrix(0.5877 -0.809 0.809 0.5877 -64.9188 850.131)" class="st3" cx="801.7" cy="488.8" rx="3.1" ry="3.7"/>
<ellipse id="DDS:_Diffuser_55_" transform="matrix(0.5877 -0.809 0.809 0.5877 -74.4181 842.1918)" class="st3" cx="789.2" cy="494.1" rx="3.1" ry="3.7"/>
<ellipse id="DDS:_Diffuser_54_" transform="matrix(0.5877 -0.809 0.809 0.5877 -84.3119 840.8094)" class="st3" cx="782.9" cy="503.1" rx="3.1" ry="3.7"/>
<ellipse id="DDS:_Diffuser_1_" transform="matrix(0.5877 -0.809 0.809 0.5877 -91.4791 844.2714)" class="st3" cx="782.7" cy="511.9" rx="3.4" ry="3.4"/>
<ellipse id="DDS:_Diffuser_2_" transform="matrix(0.5877 -0.809 0.809 0.5877 -106.0967 862.2745)" class="st3" cx="793.1" cy="535.2" rx="3.4" ry="3.4"/>
<ellipse id="DDS:_Diffuser_5_" transform="matrix(0.4288 -0.9034 0.9034 0.4288 -21.7588 1002.2648)" class="st2" cx="781.7" cy="518.3" rx="1.8" ry="2.5"/>
<ellipse id="DDS:_Diffuser_6_" transform="matrix(0.9923 -0.1235 0.1235 0.9923 -58.6809 100.4952)" class="st2" cx="781.3" cy="523.6" rx="2.5" ry="1.8"/>
<ellipse id="DDS:_Diffuser_7_" transform="matrix(1.929861e-03 -1 1 1.929861e-03 254.9955 1316.7489)" class="st2" cx="787.1" cy="530.6" rx="2.5" ry="1.8"/>
<ellipse id="DDS:_Diffuser_8_" transform="matrix(0.7175 -0.6966 0.6966 0.7175 -146.6478 694.6619)" class="st2" cx="783.1" cy="528.1" rx="2.5" ry="1.8"/>
<ellipse id="DDS:_Diffuser_12_" transform="matrix(0.6297 -0.7768 0.7768 0.6297 -124.2994 822.6227)" class="st2" cx="800.8" cy="541.7" rx="2.5" ry="1.8"/>
<ellipse id="DDS:_Diffuser_11_" transform="matrix(0.1139 -0.9935 0.9935 0.1139 174.3087 1281.7)" class="st2" cx="805.7" cy="543.1" rx="2.5" ry="1.8"/>
<ellipse id="DDS:_Diffuser_10_" transform="matrix(0.2376 -0.9714 0.9714 0.2376 96.7591 1201.8322)" class="st2" cx="814" cy="539.3" rx="1.8" ry="2.5"/>
<ellipse id="DDS:_Diffuser_9_" transform="matrix(0.8615 -0.5077 0.5077 0.8615 -163.2698 486.5735)" class="st2" cx="810.4" cy="542.6" rx="1.8" ry="2.5"/>
<ellipse id="DDS:_Diffuser_14_" transform="matrix(0.6808 -0.7325 0.7325 0.6808 -128.4819 769.5224)" class="st2" cx="818.7" cy="532.2" rx="2.5" ry="1.8"/>
<ellipse id="DDS:_Diffuser_13_" transform="matrix(0.9997 -2.628792e-02 2.628792e-02 0.9997 -13.7355 21.8362)" class="st2" cx="823.6" cy="533.3" rx="1.8" ry="2.5"/>
<ellipse id="DDS:_Diffuser_4_" transform="matrix(9.929805e-02 -0.9951 0.9951 9.929805e-02 223.0605 1302.8221)" class="st2" cx="831.2" cy="528.2" rx="1.8" ry="2.5"/>
<ellipse id="DDS:_Diffuser_3_" transform="matrix(0.7819 -0.6234 0.6234 0.7819 -150.9323 632.355)" class="st2" cx="828.3" cy="531.9" rx="1.8" ry="2.5"/>
<ellipse id="DDS:_Diffuser_18_" transform="matrix(0.7688 -0.6395 0.6395 0.7688 -135.3647 646.4329)" class="st2" cx="826.3" cy="510.4" rx="1.8" ry="2.5"/>
<ellipse id="DDS:_Diffuser_17_" transform="matrix(0.3049 -0.9524 0.9524 0.3049 94.2801 1141.1644)" class="st2" cx="828.9" cy="506" rx="1.8" ry="2.5"/>
<ellipse id="DDS:_Diffuser_16_" transform="matrix(0.4219 -0.9066 0.9066 0.4219 27.0553 1036.632)" class="st2" cx="826.4" cy="497.1" rx="2.5" ry="1.8"/>
<ellipse id="DDS:_Diffuser_15_" transform="matrix(0.9438 -0.3306 0.3306 0.9438 -119.0703 302.2474)" class="st2" cx="829.1" cy="501.2" rx="2.5" ry="1.8"/>
<path id="DDS:_Diffuser_19_" class="st4" d="M859.6,476.9c2.8,2.6,7.3,3.4,10.9,2c5.4-2.2,8.4-9.3,6.5-12c-1.3-1.8-4.9-1.7-7.2-1.2
	c-4.2,1.2-5,4.4-7.8,4.2c-3.2-0.2-4.6-4.4-5.5-4C855.3,466.5,855.2,473.1,859.6,476.9z"/>
<path id="DDS:_Diffuser_20_" class="st4" d="M835,497.8c-0.1,0.9,3.8,0.9,4.9,3.5c0.9,2.2-1.5,3.8-1.4,7.6c0.1,2.1,1.1,5.1,2.9,5.7
	c2.7,0.9,7.8-3.5,8.2-8.6c0.2-3.4-1.7-6.9-4.7-8.6C840.6,494.9,835.1,496.7,835,497.8z"/>
<path id="DIF:_DIFFUSER_1_" class="st5" d="M759.3,490.5c-1.1-1.7-1.7-3.2-2.1-4.6c-1.1-3.1-0.4-4.2-1.7-6.2c-1.1-1.5-2.3-2-2.1-3
	c0.2-1.1,1.5-1.4,1.6-2.5c0.1-1-0.8-1.7-1.3-2.4c-0.8-1.2-1.1-3.5,1-7.9c-4.6-0.4-8.6-3.4-10.2-7.7c-1.8-4.7-0.2-10.1,3.8-13.3
	c-0.8-0.8-1.7-1.9-2.5-3.3c-0.8-1.3-1.3-2.7-1.7-3.7c-0.6-0.3-1.9-1.1-2.8-2.6c-1-1.8-1-3.6-0.9-4.1c-0.3-0.2-1.5-1.1-2-2.7
	c-0.6-2.2,0.4-4,0.6-4.2c-1.4-0.8-2.2-2.4-2.1-4c0.1-1.4,1.1-2.8,2.5-3.4c-0.2-0.3-1.3-2-0.7-4.2c0.4-1.8,1.9-3.2,3.9-3.6
	c0-0.4,0-2.9,2-4.8c2.2-2.1,4.9-1.8,5.2-1.8c0.4-0.8,1.6-2.3,3.5-3.4c3.4-1.9,6.7-0.8,7.3-0.7c-0.9-5.9,1.8-11.9,6.9-15
	c4.8-2.9,11-2.7,15.8,0.4c0.1-0.9,0.5-3.3,2.6-5.3c1.5-1.4,3-1.9,3.8-2.2c-0.1-0.4,0-1.9,1-3c1.1-1.4,3-1.9,4.9-1.4
	c0.4-0.4,1.9-1.8,4.2-2.1c2-0.3,3.6,0.4,4.2,0.6c1.1-0.5,3.2-1.2,5.7-1c1.1,0,3.6,0.4,7.1,3c5.5,4.1,8.6,10,10,13.2
	c2.8,5.5,5,6.6,6.4,6.5c1.6-0.2,2.4-1.7,5.2-3.4c2.4-1.4,4.7-1.9,6.3-2.2c3.9,0.4,7.2,3.2,7.9,7c0.6,3.1-0.8,6.6-3.5,8.6
	c1.3-0.4,3-0.9,5.3-0.8c3.4,0.1,5.9,1.3,7.1,2.1c0.9,0.5,2,1.3,2.8,2.6c1.1,1.8,0.5,2.7,1.6,4.3c1.2,1.6,2.3,1.1,3.3,2.6
	c1,1.6-0.2,2.5,0.7,4.5c1.1,2.3,2.8,2.1,3.2,3.8c0.4,1.9-1.8,2.5-1.8,5.1c-0.1,2.2,1.4,2.7,1.1,4.5c-0.3,1.6-1.7,2.2-3.2,3.6
	c-1.4,1.2-2.9,3.3-3.7,7.2c0.9,1.9,2.2,4.9,2.8,8.9c0.2,1,0.2,1.9,0.3,3c0.1,3.2-0.3,5.9-0.9,8.1c-0.9,0.9-2.1,1.7-3.4,2.3
	c-5.2,2.3-11.5,0-12.3,2.2c-0.5,1.1,1.2,2.2,2.5,4.6c2.3,4.8,0.6,10.1,0,12c-1.1,3.5-3.5,6.9-6.4,9.3c-3.7,3.2-8.2,5-12.4,4.6
	c-0.7,0-1.3-0.2-1.8-0.4c-3-1.1-3.8-3.8-9.5-6.7c-7.6-3.9-18.2-5.3-26.8-1.8c-7.9,3.2-7.4,7.7-15.4,11c-3,1.2-5.9,1.8-8.6,1.9l0,0
	c-0.9-0.1-1.8-0.4-3-0.7c-0.6-0.2-1.3-0.4-2-0.6C763.7,495.2,760.8,492.2,759.3,490.5z"/>
<path id="DIF:DIFFUSER" class="st5" d="M773.6,525.6c-4.9-13.2,1-25,2-27c-0.7,0-1.4-0.1-2.3-0.3c2.7-0.1,5.6-0.7,8.6-1.9
	c8-3.3,7.6-7.9,15.4-11c8.6-3.5,19.2-2.1,26.8,1.8c5.6,2.8,6.5,5.6,9.5,6.7c0.4,5.5,1.4,10,1.8,12.3c1.2,5.5,2.5,11.7,5.4,16.5
	c-0.9,1.3-2.1,2.8-3.3,4.3c-0.8,5.1-4.1,9.4-8.6,11c-4.5,1.6-8.6,0.2-9.7-0.3c0.3,4.8-2.3,9.3-6.6,11.1c-5.4,2.2-10.4-1.4-10.6-1.5
	C789,545.6,778,537.3,773.6,525.6z"/>
<path id="DIF:_DIFFUSER" class="st5" d="M840.9,522.7c-2.9-4.8-4.2-11.1-5.4-16.5c-0.5-2.4-1.4-6.9-1.8-12.3
	c0.5,0.1,1.1,0.3,1.8,0.4c4.2,0.5,8.7-1.5,12.4-4.6c2.9-2.5,5.2-5.8,6.4-9.3c0.6-1.9,2.4-7.2,0-12c-1.2-2.5-2.8-3.4-2.5-4.6
	c0.8-2.1,7.1,0.1,12.3-2.2c1.3-0.6,2.4-1.3,3.4-2.3c-0.1,0.5-0.3,1-0.4,1.4c5.4-4.9,12.8-5,16.8-1.4c4.4,4,3.1,10.9,1.6,14.5
	c-2.9,6.9-10,8.9-10.9,9.1c0.7,0.6,5.9,4.7,6.3,11.7c0.4,7.8-5.2,12.6-5.8,13.1c4.1,7.6,2.6,14.6-0.7,16.2c-2.5,1.3-6.4-0.5-9.7-3.6
	c-0.6,3.2-2.5,5.6-4.7,6.6c-0.7,0.3-1.6,0.5-2.4,0.6c-3.8,0.1-6.2-3.9-7-6.6c-1.7-5.5,2.4-10.6,1.7-11.1
	C851.8,509.5,849.4,511.6,840.9,522.7z"/>
<rect id="NLED:_0xffffff_3_" x="975.5" y="449.7" transform="matrix(0.5877 -0.809 0.809 0.5877 35.4761 983.2997)" class="st6" width="14.2" height="14.2"/>
<rect id="NLED:_0xffffff" x="798.4" y="434.8" transform="matrix(0.5877 -0.809 0.809 0.5877 -25.4764 833.8515)" class="st7" width="14.2" height="14.2"/>
<rect id="NLED:_0xffffff_1_" x="801.1" y="509" transform="matrix(0.5877 -0.809 0.809 0.5877 -84.3555 866.6357)" class="st7" width="14.2" height="14.2"/>
<rect id="NLED:_0xffffff_2_" x="854.5" y="488.2" transform="matrix(0.5877 -0.809 0.809 0.5877 -45.5285 901.2817)" class="st7" width="14.2" height="14.2"/>
<rect id="BI:_breakout" x="820.8" y="395.3" transform="matrix(0.5877 -0.809 0.809 0.5877 17.7219 827.8196)" class="st7" width="0.7" height="2.4"/>
<rect id="MC:_micro" x="797.7" y="384.6" transform="matrix(0.2193 -0.9757 0.9757 0.2193 251.003 1087.061)" class="st8" width="14.2" height="4.1"/>
<path id="CP:path" class="st5" d="M814.1,408c-17.4,64.8-23,105-6.1,109.9c16.1,4.6,188.6-64.8,215-113.9"/>
<path id="DIF:_Diffuser" class="st9" d="M954.1,489.8c0.4,0.8,1,1.3,1.8,1.8c0.7,0.4,1.4,0.6,2.2,0.6c0.3,0.4,0.7,0.7,1.2,1
	c1.3,0.7,2.6,0.7,3.8,0.3c1.3,0.6,2.7,0.5,4-0.2c0.2,0,0.4,0,0.6,0.1c0.3,0.4,0.8,0.8,1.2,1.1c2.7,1.9,6.2,1.4,8-1
	c0.4-0.6,0.7-1.1,0.8-1.8c2.4,1.1,5.1,0.6,6.8-1.1c0.4,0.7,1,1.2,1.6,1.7c2.7,1.9,6.2,1.4,8-1c0.8-1.1,1.1-2.5,1-3.9
	c0.4,0.1,0.7,0.2,1.2,0.2c0.3,1.2,1,2.3,2.1,3.2c2.1,1.5,4.7,1.4,6.4-0.1c1.7,0.2,3.4-0.4,4.4-1.8l0.1-0.1c1.1-0.2,2.1-0.7,2.9-1.7
	c0.4-0.6,0.7-1.3,0.8-1.9c0.6-0.3,1.2-0.8,1.6-1.3c0.9-1.3,1.1-2.8,0.5-4.3l0,0c1.2-1.7,1.2-4-0.2-5.7c0.1-0.3,0.1-0.7,0.1-1
	c0.6-0.1,1.1-0.1,1.6-0.3l0.1-0.1c2.1-0.6,3.8-1.8,5.1-3.6c0.9-1.3,1.4-2.6,1.6-3l0.1-0.1l0.1-0.1c0.2-1.2,0.8-4.9-1.4-8.1
	c-0.3-0.3-0.6-0.7-0.9-1c1-0.3,1.8-0.8,2.5-1.7s0.9-1.9,0.8-3c0.5-0.3,0.9-0.7,1.2-1.1c1-1.4,1.1-3,0.5-4.6c1.2-1.8,0.8-4.2-0.7-5.8
	c0.1-1.7-0.6-3.4-2.2-4.6c-0.3-0.2-0.6-0.4-0.9-0.6c-0.3-1.2-1-2.3-2.1-3.2c-0.8-0.6-1.8-0.9-2.7-1.1c-0.2-0.3-0.5-0.5-0.8-0.7
	c-0.2-0.1-0.3-0.2-0.6-0.4c0-0.2,0.1-0.4,0.1-0.6c0-1-0.2-1.9-0.8-2.7c1.4-2.2,1.2-4.8-0.4-6.4c-0.8-0.7-1.9-1.1-3-1.2
	c-0.5-0.9-1.2-1.5-2.1-1.9c-1.7-0.7-3.7-0.3-5.1,1c-2.1-1-4.4-0.7-5.8,0.8c-0.7,0-1.4,0.1-2,0.3l-0.1-0.1c0.3-1.8-0.5-3.7-2.2-4.9
	c-0.5-0.4-0.9-0.6-1.4-0.8c-0.4-0.8-1-1.6-1.8-2.2c-1.1-0.8-2.4-1.1-3.6-1c-0.2-0.1-0.3-0.4-0.6-0.6c-1.9-1.4-4.2-1.4-5.8-0.3
	c-2-1-4.4-0.6-5.8,1c-1.5,0-2.9,0.6-3.8,1.8c-0.3,0.4-0.4,0.8-0.6,1.2c-1,0.3-1.9,0.9-2.5,1.7c-0.6,0.8-0.9,1.9-0.8,2.9
	c-1.2-0.7-2.6-1.3-4.2-1.4c-2.8-0.3-5.5,0.8-7.8,3l-0.1,0.2l-0.2,0.2c-0.2,0.2-0.5,0.5-0.7,0.8l0,0c-1.5,2.1-2.2,4.7-1.8,7.3
	c-0.5-0.3-1-0.5-1.6-0.5c-1.7-0.2-3.2,0.5-4.3,2c-0.1,0.2-0.2,0.3-0.4,0.5c-1.5-0.2-2.9,0.2-3.9,1.3c-0.1,0.2-0.2,0.3-0.4,0.5
	c-0.6,0.8-0.9,1.7-0.8,2.6c-0.7,0.3-1.4,0.9-1.8,1.5l0,0c-0.2,0.2-0.4,0.6-0.5,0.9c-0.4,0.9-0.5,2-0.2,3.1l-0.1,0.1l0,0
	c-0.2,0.2-0.4,0.6-0.5,0.9c-0.6,1.5-0.4,3.2,0.6,4.5c-0.4,1.1-0.4,2.1,0,3.2c0.3,0.7,0.6,1.2,1.1,1.7c-0.1,0.6,0.1,1.3,0.2,1.9
	c0.4,0.9,0.9,1.6,1.8,2.2c0,0.3,0.1,0.6,0.2,0.9c0.5,1.2,1.4,2.1,2.6,2.6c-0.3,0.4-0.6,0.7-0.8,1l0,0c-1.9,2.7-2.5,5.5-1.6,8.1
	c1,3.1,3.8,5,6.9,5.6c0,0,0,0-0.1,0.1s-0.2,0.2-0.2,0.3l0,0c-0.9,1.3-1.1,2.9-0.7,4.3c0.1,0.1,0,0.1,0.1,0.2c-0.4,1.1-0.4,2.1,0,3.3
	c0.1,0.3,0.3,0.7,0.6,1.1c-0.2,0.7,0,1.5,0.3,2.2c0.4,0.9,0.9,1.5,1.6,2c0.2,1.5,0.9,2.8,2.2,3.6
	C953.4,489.7,953.7,489.8,954.1,489.8z"/>
<ellipse id="DD:_Diffuser_247_" transform="matrix(0.5877 -0.809 0.809 0.5877 35.5329 982.941)" class="st1" cx="982.3" cy="456.6" rx="10.4" ry="10.4"/>
<ellipse id="DD:_Diffuser_245_" transform="matrix(0.1678 -0.9858 0.9858 0.1678 382.0069 1356.7898)" class="st2" cx="994.7" cy="452.1" rx="5.2" ry="5.2"/>
<ellipse id="DD:_Diffuser_244_" transform="matrix(0.958 -0.2869 0.2869 0.958 -91.9293 304.1445)" class="st2" cx="991.7" cy="465.7" rx="5.2" ry="5.2"/>
<ellipse id="DD:_Diffuser_243_" transform="matrix(0.7313 -0.6821 0.6821 0.7313 -57.033 793.4134)" class="st2" cx="978.4" cy="469.1" rx="5.2" ry="5.2"/>
<ellipse id="DD:_Diffuser_242_" transform="matrix(0.3527 -0.9357 0.9357 0.3527 197.7177 1205.4386)" class="st2" cx="970.2" cy="459.8" rx="5.2" ry="5.2"/>
<ellipse id="DD:_Diffuser_241_" transform="matrix(0.9951 -9.894866e-02 9.894866e-02 0.9951 -39.6382 98.4913)" class="st2" cx="973.1" cy="448.9" rx="5.2" ry="5.2"/>
<ellipse id="DD:_Diffuser_246_" transform="matrix(0.9951 -9.894866e-02 9.894866e-02 0.9951 -39.2054 99.4801)" class="st2" cx="983.3" cy="445" rx="5.2" ry="5.2"/>
<path id="DD:_Diffuser_188_" class="st4" d="M998.3,430.8c1.8,1.7,4.6,2.2,6.9,1.3c3.5-1.4,5.3-5.9,4.1-7.5
	c-0.8-1.1-3.1-1.2-4.6-0.7c-2.6,0.7-3.1,2.8-4.9,2.6c-2-0.1-2.9-2.8-3.5-2.5C995.6,424.3,995.6,428.4,998.3,430.8z"/>
<path id="DD:_Diffuser_187_" class="st3" d="M991.3,480.4c3-1,6.6-2.5,7.5-5.7c0.6-2.2-0.2-5-1.5-5.3c-1.3-0.3-1.9,2.1-4,2.4
	c-3.6,0.6-6.6-4.9-8.4-4c-1.1,0.5,0.1,3.1-1.7,5.1c-1.4,1.6-2.9,1-3.6,2.3c-0.9,1.6,0,4.4,1.9,5.7
	C984.1,483.2,988.2,481.7,991.3,480.4z"/>
<ellipse id="DD:_Diffuser_167_" transform="matrix(0.5877 -0.809 0.809 0.5877 51.2089 1008.7737)" class="st2" cx="1015.5" cy="454.1" rx="1.1" ry="1.6"/>
<ellipse id="DD:_Diffuser_166_" transform="matrix(0.5877 -0.809 0.809 0.5877 34.1995 1011.6888)" class="st2" cx="1009.8" cy="472.3" rx="1.1" ry="1.6"/>
<ellipse id="DD:_Diffuser_165_" transform="matrix(0.5877 -0.809 0.809 0.5877 31.1442 1014.147)" class="st2" cx="1010.7" cy="476.5" rx="1.1" ry="1.6"/>
<ellipse id="DD:_Diffuser_164_" transform="matrix(0.5877 -0.809 0.809 0.5877 27.438 1015.4909)" class="st2" cx="1010.2" cy="480.8" rx="1.1" ry="1.6"/>
<ellipse id="DD:_Diffuser_163_" transform="matrix(0.5877 -0.809 0.809 0.5877 23.9403 1014.9372)" class="st2" cx="1007.9" cy="484" rx="1.1" ry="1.6"/>
<ellipse id="DD:_Diffuser_162_" transform="matrix(0.5877 -0.809 0.809 0.5877 21.1653 1013.3027)" class="st2" cx="1004.9" cy="485.9" rx="1.1" ry="1.6"/>
<ellipse id="DD:_Diffuser_161_" transform="matrix(0.5877 -0.809 0.809 0.5877 18.6503 1010.6063)" class="st2" cx="1001" cy="487" rx="1.1" ry="1.6"/>
<ellipse id="DD:_Diffuser_160_" transform="matrix(0.5877 -0.809 0.809 0.5877 54.7486 1010.805)" class="st2" cx="1019.2" cy="451.7" rx="1.1" ry="1.6"/>
<ellipse id="DD:_Diffuser_159_" transform="matrix(0.5877 -0.809 0.809 0.5877 58.898 1010.7264)" class="st2" cx="1021.2" cy="447.6" rx="1.1" ry="1.6"/>
<ellipse id="DD:_Diffuser_158_" transform="matrix(0.5877 -0.809 0.809 0.5877 62.5429 1009.189)" class="st2" cx="1021.5" cy="443.2" rx="1.1" ry="1.6"/>
<ellipse id="DD:_Diffuser_157_" transform="matrix(0.5877 -0.809 0.809 0.5877 65.0742 1006.556)" class="st2" cx="1020.2" cy="439.4" rx="1.1" ry="1.6"/>
<ellipse id="DD:_Diffuser_156_" transform="matrix(0.5877 -0.809 0.809 0.5877 66.8177 1002.5111)" class="st2" cx="1017.1" cy="435.7" rx="1.1" ry="1.6"/>
<ellipse id="DD:_Diffuser_155_" transform="matrix(0.5877 -0.809 0.809 0.5877 66.8192 999.0179)" class="st2" cx="1013.7" cy="433.9" rx="1.1" ry="1.6"/>
<ellipse id="DD:_Diffuser_154_" transform="matrix(0.5877 -0.809 0.809 0.5877 65.2817 995.373)" class="st2" cx="1009.3" cy="433.6" rx="1.1" ry="1.6"/>
<ellipse id="DD:_Diffuser_153_" transform="matrix(0.5877 -0.809 0.809 0.5877 64.5422 979.7192)" class="st2" cx="993.6" cy="426.5" rx="1.1" ry="1.6"/>
<ellipse id="DD:_Diffuser_152_" transform="matrix(0.5877 -0.809 0.809 0.5877 67.649 978.0966)" class="st2" cx="993.6" cy="422.7" rx="1.1" ry="1.6"/>
<ellipse id="DD:_Diffuser_3_" transform="matrix(0.5877 -0.809 0.809 0.5877 68.9406 982.7138)" class="st2" cx="998.8" cy="423.7" rx="1.1" ry="1.6"/>
<ellipse id="DD:_Diffuser_4_" transform="matrix(0.5877 -0.809 0.809 0.5877 71.6776 985.1696)" class="st2" cx="1002.5" cy="422.3" rx="1.1" ry="1.6"/>
<ellipse id="DD:_Diffuser_5_" transform="matrix(0.4104 -0.9119 0.9119 0.4104 209.3721 1167.3568)" class="st2" cx="1007.5" cy="421.8" rx="1.6" ry="1.1"/>
<ellipse id="DD:_Diffuser_6_" transform="matrix(0.6726 -0.74 0.74 0.6726 17.4093 887.0799)" class="st2" cx="1011.2" cy="423.9" rx="1.6" ry="1.1"/>
<ellipse id="DD:_Diffuser_7_" transform="matrix(0.6726 -0.74 0.74 0.6726 13.4793 888.4538)" class="st2" cx="1010.8" cy="429" rx="1.6" ry="1.1"/>
<ellipse id="DD:_Diffuser_151_" transform="matrix(0.5877 -0.809 0.809 0.5877 70.6953 974.5338)" class="st2" cx="991.6" cy="417.9" rx="1.1" ry="1.6"/>
<ellipse id="DD:_Diffuser_150_" transform="matrix(0.5877 -0.809 0.809 0.5877 71.6503 970.8237)" class="st2" cx="988.4" cy="415.1" rx="1.1" ry="1.6"/>
<ellipse id="DD:_Diffuser_149_" transform="matrix(0.5877 -0.809 0.809 0.5877 71.1846 966.7969)" class="st2" cx="984.3" cy="413.5" rx="1.1" ry="1.6"/>
<ellipse id="DD:_Diffuser_148_" transform="matrix(0.5877 -0.809 0.809 0.5877 68.9439 962.9487)" class="st2" cx="979.4" cy="413.8" rx="1.1" ry="1.6"/>
<ellipse id="DD:_Diffuser_147_" transform="matrix(0.5877 -0.809 0.809 0.5877 66.3579 960.7007)" class="st2" cx="975.9" cy="415.2" rx="1.1" ry="1.6"/>
<ellipse id="DD:_Diffuser_146_" transform="matrix(0.5877 -0.809 0.809 0.5877 62.7047 959.3868)" class="st2" cx="972.7" cy="418.2" rx="1.1" ry="1.6"/>
<ellipse id="DD:_Diffuser_145_" transform="matrix(0.5877 -0.809 0.809 0.5877 58.4043 959.2576)" class="st2" cx="970.5" cy="422.3" rx="1.1" ry="1.6"/>
<ellipse id="DD:_Diffuser_144_" transform="matrix(0.1245 -0.9922 0.9922 0.1245 408.1285 1327.1787)" class="st2" cx="956.1" cy="432.3" rx="1.6" ry="1.1"/>
<ellipse id="DD:_Diffuser_143_" transform="matrix(0.1245 -0.9922 0.9922 0.1245 403.2393 1321.8252)" class="st2" cx="950.7" cy="432.4" rx="1.6" ry="1.1"/>
<ellipse id="DD:_Diffuser_142_" transform="matrix(0.6979 -0.7162 0.7162 0.6979 -25.4008 809.0848)" class="st2" cx="946.4" cy="434.7" rx="1.1" ry="1.6"/>
<ellipse id="DD:_Diffuser_141_" transform="matrix(0.3936 -0.9193 0.9193 0.3936 169.0829 1133.6256)" class="st2" cx="943.8" cy="438.7" rx="1.1" ry="1.6"/>
<ellipse id="DD:_Diffuser_140_" transform="matrix(0.3936 -0.9193 0.9193 0.3936 165.0412 1135.4135)" class="st2" cx="943.1" cy="442.6" rx="1.1" ry="1.6"/>
<ellipse id="DD:_Diffuser_139_" transform="matrix(0.9349 -0.3549 0.3549 0.9349 -97.03 363.9751)" class="st2" cx="943.7" cy="446.5" rx="1.6" ry="1.1"/>
<ellipse id="DD:_Diffuser_138_" transform="matrix(0.9349 -0.3549 0.3549 0.9349 -98.2188 364.7013)" class="st2" cx="945.1" cy="450.1" rx="1.6" ry="1.1"/>
<ellipse id="DD:_Diffuser_137_" transform="matrix(0.9349 -0.3549 0.3549 0.9349 -99.1721 365.5785)" class="st2" cx="947" cy="453.1" rx="1.6" ry="1.1"/>
<ellipse id="DD:_Diffuser_136_" transform="matrix(0.9349 -0.3549 0.3549 0.9349 -105.2724 369.3956)" class="st2" cx="954.4" cy="471.7" rx="1.6" ry="1.1"/>
<ellipse id="DD:_Diffuser_135_" transform="matrix(0.9349 -0.3549 0.3549 0.9349 -106.6293 369.2039)" class="st2" cx="953.2" cy="475.3" rx="1.6" ry="1.1"/>
<ellipse id="DD:_Diffuser_134_" transform="matrix(0.9349 -0.3549 0.3549 0.9349 -107.828 369.4386)" class="st2" cx="953.2" cy="478.7" rx="1.6" ry="1.1"/>
<ellipse id="DD:_Diffuser_133_" transform="matrix(0.9349 -0.3549 0.3549 0.9349 -108.9408 369.9612)" class="st2" cx="954.1" cy="482" rx="1.6" ry="1.1"/>
<ellipse id="DD:_Diffuser_132_" transform="matrix(0.4937 -0.8696 0.8696 0.4937 62.1069 1076.5834)" class="st2" cx="955.6" cy="485" rx="1.6" ry="1.1"/>
<ellipse id="DD:_Diffuser_131_" transform="matrix(0.4937 -0.8696 0.8696 0.4937 61.5485 1080.0676)" class="st2" cx="958.3" cy="487.2" rx="1.6" ry="1.1"/>
<ellipse id="DD:_Diffuser_130_" transform="matrix(0.4937 -0.8696 0.8696 0.4937 61.8788 1083.8423)" class="st2" cx="961.7" cy="488.8" rx="1.6" ry="1.1"/>
<ellipse id="DD:_Diffuser_129_" transform="matrix(0.4937 -0.8696 0.8696 0.4937 63.4999 1086.8375)" class="st2" cx="965.1" cy="488.9" rx="1.6" ry="1.1"/>
<ellipse id="DD:_Diffuser_128_" transform="matrix(0.4937 -0.8696 0.8696 0.4937 65.4908 1089.056)" class="st2" cx="968" cy="488.3" rx="1.6" ry="1.1"/>
<ellipse id="DD:_Diffuser_1_" transform="matrix(0.4937 -0.8696 0.8696 0.4937 72.0843 1092.86)" class="st2" cx="974.6" cy="484.5" rx="1.6" ry="1.1"/>
<ellipse id="DD:_Diffuser_2_" transform="matrix(0.4937 -0.8696 0.8696 0.4937 77.2084 1102.1791)" class="st2" cx="985.2" cy="484.8" rx="1.6" ry="1.1"/>
<path id="DD:_Diffuser_99_" class="st3" d="M1009.8,458.5c0.2-1.6,0.6-6-2.2-8.3c-2.1-1.8-5.7-2.2-6.8-0.9c-1,1.2,0.8,2.8,0,4.8
	c-1.3,3.4-7.5,3.5-7.5,4.8c0.1,0.9,2.6,0.8,4.1,2.9c1.3,1.7,0.1,3.3,1.1,4.5c1.3,1.6,5,1.4,7.4-0.1
	C1009.2,464.3,1009.6,460.3,1009.8,458.5z"/>
<path id="DD:_Diffuser_98_" class="st3" d="M999.5,433.7c-1.8-1.7-4.1-3.9-7.3-3.7c-4.7,0.3-8.4,5.5-7.6,7.4
	c0.5,1.1,2.3,0.3,3.5,1.7c2.2,2.4-0.4,7.1,1.1,8c0.9,0.6,2-1.4,4.3-1.5c2.9-0.1,3.8,2.9,6.2,2.7c2.1-0.2,4.1-3.1,4.5-5.5
	C1004.8,438.6,1001.4,435.3,999.5,433.7z"/>
<path id="DD:_Diffuser_97_" class="st3" d="M970.6,428.2c1.6-0.7,5.5-2.4,8.9-0.6c4.2,2.3,5.2,8.5,3.8,9.7c-0.8,0.6-2-0.3-3.3,0.7
	c-1.1,0.9-0.8,2.4-1.8,2.6c-1,0.4-1.7-1.5-3.3-1.7c-2.6-0.4-3.8,4-6.2,4.1c-2.4,0-5.5-4.6-4.6-8.7
	C965.1,430.6,968.9,428.9,970.6,428.2z"/>
<path id="DD:_Diffuser_96_" class="st3" d="M973.1,466c-0.7-0.9-3.4,1.3-6.1,0.3c-2.2-0.9-2.3-3.4-3.5-3.4c-2.1,0-5,6-2.8,9.3
	c0.9,1.4,1.9,0.9,4.7,2.8c3.8,2.6,3.8,4.8,6,5.1c2.9,0.5,6.1-2.5,5.7-3.9c-0.3-0.7-1.9-0.1-3.5-1.3c-1.7-1.4-1.8-3.8-1.9-4.1
	C971.7,468.1,973.6,466.8,973.1,466z"/>
<path id="DD:_Diffuser_95_" class="st3" d="M952.5,447.8c-1,2.6-1.9,7.7,1.2,10.6c2.5,2.3,7,2.8,8,1.4c0.6-0.8-0.3-1.7,0.1-3
	c1.1-2.9,7.5-2.3,7.6-3.9c0.1-0.8-1.7-1-2.6-2.7c-1-1.8,0.1-2.9-0.5-4.4c-1.1-2.5-6.3-4.4-10-2.7C953.8,444.4,953,446.6,952.5,447.8
	z"/>
<path id="DD:_Diffuser_75_" class="st4" d="M957.6,472.2c-2.9,0.7-3.2,9.5,2.1,13c4.7,3,12,0.5,11.9-2.4
	C971.4,480.2,960,471.6,957.6,472.2z"/>
<path id="DD:_Diffuser_74_" class="st4" d="M951.8,457.5c0.9,0.4,0,2.6,1.5,4.3c1.7,2,4.4,1.1,4.7,2.3c0.5,1.4-1.7,3.9-4.4,4.7
	c-3.1,0.8-7-0.5-8-3.3C944.3,461.4,950.3,456.7,951.8,457.5z"/>
<path id="DD:_Diffuser_73_" class="st4" d="M960.7,439.5c0.7-0.8,0.4-2.8-0.5-3.9c-2.4-2.7-10.2-2.2-13.2,2.3
	c-4.1,5.8,2.2,14.7,3.4,14.3c0.6-0.1,0-2.4,1.5-6.6c0.9-2.6,1.6-4.6,3.4-5.6C957.5,439,959.7,440.7,960.7,439.5z"/>
<path id="DD:_Diffuser_72_" class="st4" d="M965.2,429.5c2-1.6,3.4-1.1,3.9-2.2c0.9-1.9-1.8-6.9-5.9-7.2c-2.9-0.3-5,1.9-5.2,2
	c-2.1,2.3-2,5.7-0.7,7.9c0.8,1.6,2.8,3.4,4.6,3.1C963.3,432.8,963.1,431.2,965.2,429.5z"/>
<path id="DD:_Diffuser_71_" class="st4" d="M984.5,428.9c2.1,0.7,5-0.3,6.3-2.2c2-2.9,0-6.7-1.7-8.5c-2.4-2.6-6.1-3.1-8.9-2.4
	c-5.6,1.5-8.5,8.3-7.4,9.6c1,1.1,4.3-2.3,7.4-0.8C982.6,425.7,982.2,428.1,984.5,428.9z"/>
<path id="DD:_Diffuser_70_" class="st4" d="M1004.8,446.3c-0.3-1.2,1.9-1.9,2.2-4c0.3-2.6-2.7-3.9-2.1-5.5s4.5-1.7,7.3-0.9
	c0.8,0.2,4.5,1.2,6.1,4.8c0.1,0.5,1.5,3.3,0.3,6.5c-0.7,1.8-1.9,2.9-3,3.9c-0.9,0.7-3.2,2.9-4.3,2.2c-0.9-0.6,0.3-2.6-0.8-4.4
	C1009.1,446.8,1005.3,447.7,1004.8,446.3z"/>
<path id="DD:_Diffuser_69_" class="st4" d="M1010.6,462.1c0.9-2.8,0.2-4,1.1-4.8c1.4-1.3,5.3-0.5,7.1,2.1c1.6,2.3,0.9,5,0.8,5.3
	c0,0.2-1.1,3.4-4.3,4.3c-2.9,0.7-6.4-0.8-6.7-2.7C1008.6,465.3,1009.7,464.9,1010.6,462.1z"/>
<path id="DD:_Diffuser_68_" class="st4" d="M1002.2,470.6c0.9-0.8,2.7-0.4,3.8,0.3c2.7,1.7,3.4,6.8,1.5,10
	c-3.5,5.6-14.3,3.1-14.5,1.7c-0.1-1.2,7.2-1.8,8.5-6.3C1002.3,473.8,1000.9,471.6,1002.2,470.6z"/>
<ellipse id="DD:_Diffuser_57_" transform="matrix(0.5877 -0.809 0.809 0.5877 13.2159 1001.38)" class="st3" cx="989.2" cy="487.7" rx="2" ry="2.3"/>
<ellipse id="DD:_Diffuser_56_" transform="matrix(0.5877 -0.809 0.809 0.5877 10.2404 993.4624)" class="st3" cx="980" cy="486.7" rx="2" ry="2.3"/>
<ellipse id="DD:_Diffuser_55_" transform="matrix(0.5877 -0.809 0.809 0.5877 4.2284 988.4656)" class="st3" cx="972" cy="490.1" rx="2" ry="2.3"/>
</svg>
