<?xml version="1.0" encoding="utf-8"?>
<!-- Generator: Adobe Illustrator 19.2.1, SVG Export Plug-In . SVG Version: 6.00 Build 0)  -->
<svg version="1.1" id="Layer_1" xmlns="http://www.w3.org/2000/svg" xmlns:xlink="http://www.w3.org/1999/xlink" x="0px" y="0px"
	 viewBox="0 0 769.7 523.4" style="enable-background:new 0 0 769.7 523.4;" xml:space="preserve">
<g id="ICPjuO.tif">
	<g>
		<path d="M199,341.3c0-0.8,0-1.6,0-2.4c1.7-1.6,2.9-3.6,5.1-5c1.9-1.2,2.8-3.8,5.6-4.1c-0.8-3.9,0.8-7.2,2.3-10.4
			c1.6-3.6,4.1-6.7,6.4-9.8c1.8-2.4,3.9-4.6,6-6.8c1.5-1.6,3.5-2.8,5-4.3c1.8-1.7,3.6-3.4,4.9-5.6c1.8-2.9,5-4.3,7.5-6.4
			c2.7,0,5.4,0,8.1,0c0.6,1.5,2.5,1,3.3,2.1c1.9,2.4,4.4,3,7.3,2.7c0.2,0,0.4,0.2,0.6,0.4c0,0.5,0,1.1,0,1.8c-1.1,0.3-2.3,0.6-3.5,1
			c-0.5,0.1-1.1,0.2-1.4,0.5c-1.1,1.3-2.7,2.5-3,3.9c-0.3,1.5-2.2,3.2-0.2,5c0.3,0.2,0.1,1,0,1.6c-0.3,3.1-0.5,6.2-0.8,9.3
			c0,0.2-0.3,0.4-0.4,0.6c-1.5,3.7-2.9,7.4-5.6,10.6c-2.5,2.9-4.2,6.4-7.8,8.3c3.7,3.8,7.7,7.2,9.8,11.9c-0.8,1.7-1.8-0.7-3,0.5
			c-0.9,0.8-1.7-1.2-2.5-1.7c0.2-0.8,0.6-1.6,0.5-2.2c-0.2-0.9-0.4-2.2-2-0.9c-0.5,0.4-2,0.5-3-0.4c-0.4-0.3-1.4,0.1-2.1,0.1
			c0-0.6,0-1.3,0-2.1c0.8,0,1.4-0.1,2.1,0c0.6,0.1,1.2,0.4,2.2,0.8c-1-2.5-2.9-3.4-4.2-5.1c-0.8,0.3-1.4,0.9-2.1,0.9
			c-0.8,0-1.6-0.5-2.4-0.6c-1.3-0.1-3.1,0.5-3.9-0.1c-1.4-1.1-2.2,0.5-3.5,0.3c-1-0.2-2.2,1-3.3,1.4c-2.3,0.8-3.4,1.6-4.7,3.2
			c-1.5,2-3.1,3.9-4.7,5.8c-1.9-2-2.9,0.3-4.3,0.6c-0.4-0.4-1-0.7-1-1.2c-0.1-0.6,0.3-1.3,0.6-2.3c-0.9,0.5-1.4,0.7-1.9,1
			c-0.5-0.4-1.6-1.4-1.6-1.3c-1.8,1.8-0.8-1-1.5-0.9c-0.5,0.3-1,0.6-1.5,0.9C199.8,342.4,199.4,341.8,199,341.3z"/>
	</g>
</g>
<path d="M357.7,282c-3.9-0.2-8.4-2.8-8.1-6c1-10.3,1.7-20.7,2.6-31c0.2-2.8-0.9-4.5-3.5-5.1c-11.2-2.8-22.4-5.7-33.6-8.1
	c-3.7-0.8-5.7-2.4-7.4-5.7c-4.9-9.6-9.3-19.6-15.7-28.1c-10.8-14.6-23.4-27.5-36.8-39.6c0,0,0,0,0,0l-19.7-19.8h-2.9
	c-2.5-2.5-4.7-5.3-6.3-8.4c-3.2-6.1-5.9-12.1-11.1-16.9c-4.2-3.8-2.9-11.3,1.9-14.1c4.7-2.8,8-6.9,7.8-12.4
	c-0.2-5.5-3.2-9.7-8.4-12.4l-2.4-1.3c1.6-1.1,2.7-2.9,2.7-5c0-2-1-3.8-2.6-4.9c1.6-1.1,2.6-2.9,2.6-4.9s-1-3.8-2.6-4.9
	c1.6-1.1,2.6-2.9,2.6-4.9c0-2-1-3.8-2.6-4.9c1.6-1.1,2.6-2.9,2.6-4.9c0-2-1-3.8-2.6-4.9c1.6-1.1,2.6-2.9,2.6-4.9c0-2-1-3.8-2.6-4.9
	c1.6-1.1,2.6-2.9,2.6-4.9c0-2-1-3.8-2.6-4.9c1.6-1.1,2.6-2.9,2.6-4.9c0-2-1-3.8-2.6-4.9c1.6-1.1,2.6-2.9,2.6-4.9c0-2-1-3.8-2.6-4.9
	c1.6-1.1,2.6-2.9,2.6-4.9s-1-3.8-2.6-4.9c1.6-1.1,2.6-2.9,2.6-4.9c0-2-1-3.8-2.6-4.9c1.6-1.1,2.6-2.9,2.6-4.9c0-2-1-3.8-2.6-4.9
	c1.6-1.1,2.6-2.9,2.6-4.9c0-3.3-2.7-5.9-5.9-5.9s-5.9,2.7-5.9,5.9c0,2,1,3.8,2.6,4.9c-1.6,1.1-2.6,2.9-2.6,4.9c0,2,1,3.8,2.6,4.9
	c-1.6,1.1-2.6,2.9-2.6,4.9c0,2,1,3.8,2.6,4.9c-1.6,1.1-2.6,2.9-2.6,4.9s1,3.8,2.6,4.9c-1.6,1.1-2.6,2.9-2.6,4.9c0,2,1,3.8,2.6,4.9
	c-1.6,1.1-2.6,2.9-2.6,4.9c0,2,1,3.8,2.6,4.9c-1.6,1.1-2.6,2.9-2.6,4.9c0,2,1,3.8,2.6,4.9c-1.6,1.1-2.6,2.9-2.6,4.9
	c0,2,1,3.8,2.6,4.9c-1.6,1.1-2.6,2.9-2.6,4.9c0,2,1,3.8,2.6,4.9c-1.6,1.1-2.6,2.9-2.6,4.9c0,2,1,3.8,2.6,4.9
	c-1.6,1.1-2.6,2.9-2.6,4.9s1,3.8,2.6,4.9c-1.6,1.1-2.6,2.9-2.6,4.9c0,2.1,1.1,3.9,2.7,5l-2.5,1.6c-9.5,4.3-11.1,18.1-0.8,24.4
	c6.4,3.9,6.9,10.6,1.5,15.9c-2,1.9-3.9,4.1-5.3,6.5c-3.5,5.9-6.4,12-11.1,17.1h-3.6l-19.2,19.8c0,0,0,0,0,0
	c-15,13.5-28.9,28.2-40.7,44.8c-8.7,12.2-15.3,25.3-12.8,40.8c2.8,17.6,5.4,35.3,9.4,52.7c6,26,13.3,51.8,19.9,77.7
	c1.2,4.9,2.5,9.4,0.8,14.9c-2.6,8.5-0.3,10.7,8.6,10.7c40.4,0,80.8,0,121.2,0c5.3,0,6.2-1,6.1-6.4c0-1.9-0.5-3.8-0.6-5.7
	c-0.1-2.9-0.8-5.9-0.1-8.6c3.2-12.8,6.7-25.6,10.1-38.4c1.4-5.3,2.8-10.7,4.6-15.9c0.5-1.3,2.8-3.1,3.9-2.9
	c10.6,2.6,21.1,5.5,31.6,8.6c6.9,2.1,7.9,2,10-4.9c2.7-9.1,5.1-18.3,7.5-27.4c0.9-3.4,2.6-2.1,4.8-1.7c0.6,0.1,2.9,2.1,4.5,1.1
	C357.2,296.3,362.3,282.2,357.7,282z M263.4,179.7c0.6-0.8,2.5-1.3,3.7-1c1.6,0.4,3.3,1.4,4.5,2.7c10,10.6,19.4,21.6,26.4,34.5
	c1.3,2.5,2.6,5,3.7,7.6c1.6,3.7,0.5,5.2-3.6,5.3c-1.5,0-3.1,0-4.6,0c-1.4,0-2.8-0.1-4.2,0c-3.2,0.2-5-1.1-5.7-4.4
	c-3.2-15.2-10.9-28.4-19.5-41.1C263.4,182.4,262.9,180.4,263.4,179.7z M256.8,250.8c-0.4,3.8-0.8,7.6-1.2,11.4h-20
	c0.3-7.3,0.6-14.6,0.8-21.9c0.2-4.5,1.7-6.4,6.1-6.2c3.2,0.2,6.4,0.1,9.6,0c3.2-0.1,4.7,1.4,4.6,4.7
	C256.7,242.6,256.8,246.5,256.8,250.8z M268.5,326.2c-1,4.7-2,9.3-2.9,13.9h-15.3c0.3-2.3,0.6-4.6,0.9-6.9c0.1-0.5,0.1-1,0.2-1.5
	c1.7-11.2,1.7-11.1,12.9-10.8C268.2,320.9,269.2,322.7,268.5,326.2z M153.4,325.8c-0.7-3.2,0.5-5,3.9-5.2c1.3-0.1,2.6,0,3.9,0
	c7.4,0.1,8,0.6,9,7.9c0.5,3.9,1,7.7,1.5,11.6h-15.3C155.3,335.4,154.4,330.6,153.4,325.8z M209,262.2h-19.2
	c-0.3-7.1-0.6-14.2-0.9-21.4c-0.3-6.1,0.4-6.6,6.5-6.6c2.7,0,5.4,0.1,8.1,0c3.9-0.2,5.6,1.4,5.6,5.4C209,247.1,209,254.7,209,262.2z
	 M213.1,269.1h18.3c-0.5,11.2-0.9,22.4-1.4,33.5c-0.1,3-0.3,5.9-0.5,8.9c-0.2,2.9-1.7,4.3-4.7,4.5c-11.6,0.7-11.7,0.7-11.7-10.8
	c0-10.2,0-20.3,0-30.5c0,0,0,0,0,0C213.1,272.9,213.1,271,213.1,269.1z M209,274.7c0,11.7,0,23.4,0,35.1c0,4.9-1.3,6.2-6.2,6.1
	c-10.7,0-10.6,0-11.1-10.8c-0.5-12-1.1-24-1.6-36H209C209,271,209,272.8,209,274.7z M188.4,308.4c0.3,6.6-0.3,7.5-6.8,7.4
	c-1.4,0-2.8,0-4.2,0.1c-3.4,0.3-5.4-1.4-5.8-4.7c-1.4-11.6-2.8-23.2-3.9-34.8c-0.2-2.4-0.4-4.8-0.6-7.2h19.7
	C187.3,282.2,187.8,295.3,188.4,308.4z M165,241.4c-0.4-6.8,0.1-7.3,6.9-7.2c1.2,0,2.3,0,3.5,0c12.3-0.3,10,1.2,10.3,10.3
	c0.2,5.9,0.5,11.8,0.7,17.7h-20C165.9,255.3,165.5,248.3,165,241.4z M186.1,218.6c0,0.1,0,0.3,0,0.4c-0.9,9.8-0.9,9.8-10.6,9.8
	c-9.7,0-10.5-0.2-8.1-9.1c2.8-10.8,7-21.3,10.7-32c0.5-1.6,1.4-3,2-4.6c1.6-4.2,7.1-6.4,10.8-3.9c1.1,0.7,1.6,3.3,1.4,4.9
	C190.4,195.7,188.2,207.1,186.1,218.6z M176.2,182.9c-6.2,12.7-10.9,26-13.6,39.9c-1.1,5.5-3.8,6.6-8.5,6.1c-0.8-0.1-1.5,0-2.3,0
	c0,0,0,0,0,0c-0.5,0-1,0-1.5,0c-7.4,0.3-9.7,0.7-6.1-9.1c5-13.8,12.7-26.2,21-38.3c2-2.8,7.4-4.2,10.1-2.3
	C176,179.7,176.6,182,176.2,182.9z M147.4,234.2c1.3,0,2.6,0,3.9,0c11.6-0.3,9.3,0.6,10.1,9.8c0.5,6.1,1,12.1,1.6,18.2h-19.6
	c-0.2-1.1-0.3-2.2-0.5-3.3c-0.8-5.8-1.1-11.8-1.7-17.6C140.5,235.3,141.5,234.1,147.4,234.2z M163.6,269.1c1,10.6,2.1,21.3,3.1,31.9
	c0.3,3.4,0.7,6.9,0.9,10.4c0.2,2.8-1,4.4-4,4.4c-0.1,0-0.3,0-0.4,0c-11.3,0.5-12.4-0.7-13.8-12c-1.5-11.6-3.3-23.1-5.1-34.7H163.6z
	 M173.4,326.5c-0.6-4.6,0.4-5.7,5.1-5.8c9.8-0.2,9.9-0.2,10.8,9.5c0.3,3.3,0.5,6.6,0.8,9.9h-15C174.5,335.6,174,331,173.4,326.5z
	 M192.9,328c-0.4-6.2,0.6-7.3,6.7-7.2c9.3,0.1,9.3,0.1,9.3,9.6c0,3.3,0,6.5,0,9.8h-15.2C193.5,336.1,193.2,332,192.9,328z
	 M213.1,326.1c-0.1-3.9,1.4-5.5,5.5-5.4c10.8,0.2,10.7,0.1,9.9,11c-0.2,2.8-0.4,5.7-0.6,8.5h-14.8
	C213.2,335.5,213.2,330.8,213.1,326.1z M232.3,326.2c0.2-3.6,1.8-5.5,5.5-5.4c10.5,0.2,11.5-1.7,10,10.1c-0.4,3.1-0.8,6.2-1.2,9.3
	h-15.1C231.8,335,232.1,330.1,232.3,326.2z M250.3,312c0,0.1,0,0.3-0.1,0.4c-0.8,3.6-4.9,4.8-12.8,3.8c-3-0.4-4.1-2.1-4-5.1
	c0.6-14,1.2-28,1.8-42h19.5C253.3,283.3,251.8,297.7,250.3,312z M235.4,219c-1.7-11.4-3.9-22.7-5.9-34.1c-0.4-2.3-1.6-5,1.9-6.1
	c4.2-1.3,8.7,0,9.8,3c4.7,12.8,9.5,25.7,13.8,38.6c2.5,7.4,1.6,8.3-6.1,8.3c-0.8,0-1.5,0-2.3,0C235.3,229,236.8,228.6,235.4,219z
	 M249,190.5c-0.9-2.8-2.6-5.3-3.6-8.1c-0.3-0.9,0.5-2.8,1.3-3.3c3.3-1.8,9.3-0.7,11.4,2.6c4.8,7.2,9.6,14.5,13.6,22.2
	c3.1,6,5,12.5,7.3,18.9c1.6,4.5,0.6,5.9-4.1,6c-1.7,0-3.3,0-5,0c-1.5,0-3.1-0.1-4.6,0c-3.8,0.2-5.1-1.8-6-5.4
	C256.2,212.4,252.6,201.4,249,190.5z M244,153.7c5.5,5.4,13.6,13.8,17.7,17.8c0.2,0.2-1,2.6-1.7,2.7c-1,0.1-2.6-0.6-3.3-1.4
	c-3.5-4.2-12.3-14.6-16.8-20.1C241.4,153,242.8,153.3,244,153.7z M233.9,151.5c1.1,1.2,2.2,2.4,3.2,3.6c3.7,4.3,7.3,8.6,10.7,13.1
	c1.1,1.4,2.2,4,1.6,5.3c-0.8,1.8-7.1,0.9-8.5-1.2c-1.7-2.6-3.1-5.3-4.5-8c-2.4-4.4-4.7-8.9-7.1-13.3
	C231,151.1,232.5,151.3,233.9,151.5z M224.6,150.4c3.5,6.5,7.1,12.9,10.4,19.5c0.5,0.9-0.6,3.8-1.5,4.1c-3,0.9-6.1,0.5-7.3-3.1
	c-1.3-3.9-2.1-7.9-3.2-11.9c-0.7-2.6-1.8-5-2.4-7.6c-0.1-0.4-0.2-0.9-0.2-1.3C221.9,150.2,223.3,150.3,224.6,150.4z M213.6,149.9
	c1.1,0,2.2,0,3.3,0.1c0.9,3.3,1.8,6.5,2.7,9.6c0.9,3.2,1.7,6.4,2.7,9.6c0.7,2.2,0.9,4.4-1.9,4.8c-2.6,0.4-6.7,1.3-6.9-2.5
	C213,164.3,213.3,157.1,213.6,149.9z M216.6,178.7c3.3,0,7.8-1.1,8.7,3.5c2.6,13.5,4.9,27,6.9,40.5c0.8,5.4-0.2,6-5.5,6.1
	c-2.8,0-5.7-0.2-8.5,0c-3.6,0.3-5.2-1.2-5.1-4.9c0.1-6.8,0-13.6,0-20.4c0,0,0,0,0,0c0-6.7,0.1-13.4,0-20
	C213,180.9,213.5,178.7,216.6,178.7z M218,234.1c3.2,0.1,6.4,0.1,9.6,0c3.5-0.1,5.2,1.3,5.1,5c-0.3,7.7-0.7,15.4-1,23.1h-18.6
	c0-7.7,0-15.3-0.1-22.9C213,235.6,214.3,234,218,234.1z M201.1,86.8c0-5.2,4.6-9.8,9.8-9.9c5.3-0.1,9.7,4.6,9.7,10.3
	c0,5.5-4.2,9.7-9.7,9.7C205.3,97,201.1,92.6,201.1,86.8z M203.6,228.9c-3.5-0.2-6.9,0-10.4-0.1c-2.9,0-4.4-1.6-3.9-4.4
	c1.5-9.8,3.1-19.5,4.7-29.2c0.6-3.4,0.9-6.9,1.8-10.2c1.8-6.9,3.9-6.8,10.2-5.8c1.2,0.2,2.8,2.9,2.9,4.6c0.3,6.7,0.1,13.4,0.1,20
	c0,0,0,0,0.1,0c0,6.6-0.1,13.1,0,19.7C209.2,227.2,207.7,229.1,203.6,228.9z M204.5,150c1.5-0.1,3-0.1,4.6-0.1c0,6.4,0,12.8,0,19.2
	c0,4.2-2.9,6.3-6.9,5.1c-2.5-0.8-3.4-2.1-2.5-4.9c1.8-6.1,3.2-12.3,4.8-18.5C204.5,150.5,204.5,150.3,204.5,150z M200.9,150.2
	c0,1.1-0.1,2.1-0.4,3.1c-1.5,5.8-3.2,11.6-5.2,17.3c-0.5,1.4-2.1,3-3.5,3.3c-1.6,0.4-3.6-0.6-5.4-0.9c0.4-1.6,0.4-3.4,1.2-4.9
	c3.1-5.9,6.4-11.8,9.6-17.6C198.4,150.4,199.7,150.3,200.9,150.2z M188.5,151.7c1.1-0.2,2.3-0.4,3.6-0.6c-1.1,2.4-2.2,4.8-3.3,7.1
	c-2.1,4.2-4.2,8.5-6.7,12.5c-1,1.6-2.9,2.9-4.7,3.5c-1.3,0.4-3-0.7-4.6-1.2c0.5-1.3,0.7-2.8,1.6-3.9
	C178.9,163.2,183.7,157.5,188.5,151.7z M178.1,154.6c0.5,0.5,1,0.9,1.5,1.4c-1.9,2.4-3.7,4.8-5.6,7.3c-2.2,2.8-4.1,5.9-6.6,8.5
	c-1.3,1.3-3.4,2.1-5.3,2.6c-0.5,0.1-2.2-2.6-2.1-2.8C166,165.7,172.1,160.2,178.1,154.6z M123.2,217.3c5.8-10.3,13.7-19.5,20.8-29.1
	c1.8-2.5,4-4.8,6.2-6.8c1.5-1.3,3.4-2.4,5.3-2.8c1.4-0.3,3.1,0.7,4.6,1.1c-0.4,1.3-0.7,2.7-1.3,3.9c-5.9,11.1-11.8,22.1-17.8,33.2
	c-0.5,0.9-0.8,1.9-1,2.9c-2.5,9-2.5,9-11.5,9C116.2,229.2,117.6,227.4,123.2,217.3z M129.8,306c-5.3-21.7-10.3-43.5-11.9-65.9
	c-0.3-4.3,1.1-6.4,5.6-6c1.3,0.1,2.6,0,3.9,0c9.6-0.1,9,0,10.1,9.5c2.2,19.1,5.1,38.1,7.8,57.2c0.5,3.4,1.1,6.9,1.6,10.3
	c0.5,3.1-0.8,4.7-4,4.6c-0.3,0-0.5-0.1-0.8-0.1C132.5,315.1,132,315.2,129.8,306z M158.2,386c-4.4,1-7.7-0.5-8.7-4.1
	c-5-18.5-10-36.9-14.9-55.4c-1.4-5.2-0.5-6,7-5.9c6.9,0,6.8,0.1,8.3,6.9c0.9,4.2,1.7,8.4,2.6,12.5h-10v7h11.5
	c2.3,10.8,4.5,21.6,6.8,32.5C161.2,382.1,162.2,385.1,158.2,386z M173.5,386.2c-4.9,0.6-7.9-0.7-8.7-4.2
	c-2.4-11.6-4.7-23.3-7.1-34.9h14.7c1.4,11.1,2.8,22.3,4.3,33.4C177.1,383.3,177.2,385.8,173.5,386.2z M189.2,386.2
	c-5.3,0.6-8-0.8-8.6-4.8c-1.3-8.5-2.5-17-3.6-25.5c-0.4-2.9-0.7-5.8-1.1-8.8h14.7c0.5,7.2,1,14.7,1.6,22.7c0.1,2.3,0.3,6.6,0.5,10.8
	C192.9,383.4,192.8,385.8,189.2,386.2z M204,386.3c-3.9,0.1-7-0.5-7.3-5.3c-0.4-6.5-0.9-13.1-1.4-19.6c-0.4-4.8-0.7-9.5-1.1-14.3
	H209c0,2.1,0,4.3,0,6.4c0,0,0.1,0,0.1,0c0,9,0,18,0,27C209.1,384.1,207.9,386.1,204,386.3z M215.3,385.7c-1.2-0.7-2-3.2-2-4.9
	c-0.2-9.1-0.1-18.2-0.1-27.4c0-2.1,0-4.2,0-6.4h14.3c-0.7,11-1.3,22-2,33C225.1,385.3,219.8,388.4,215.3,385.7z M241.2,380.6
	c-0.4,4.6-2,5.7-7.6,5.7c-4.5,0-5-2.6-4.7-6.1c0.2-2.3,0-4.6,0-6.9c0.1,0,1.1-12.8,2-26.1h14.6c-1.1,8.1-2.2,16.2-3.3,24.3
	C241.9,374.5,241.5,377.5,241.2,380.6z M250.4,386.3c-5.1,0-5.9-1.1-5.3-5.7c1.5-11.1,2.9-22.3,4.3-33.4h14.8
	c-2.4,11.7-4.9,23.4-7.3,35.2C256,386.4,252.9,386.1,250.4,386.3z M286.7,329c-4.8,17.7-9.6,35.4-14.5,53.1
	c-1.1,4.1-7.7,5.8-10.7,2.8c-0.6-0.7-0.9-2.1-0.7-3.1c2.3-11.6,4.6-23.2,6.9-34.8H279v-7h-9.9c0.9-4.6,1.8-9.2,2.7-13.7
	c0.9-4.7,2.2-5.6,8.8-5.6C287.9,320.9,288.6,321.8,286.7,329z M291.1,310.8c-0.9,4-3,5.6-7,5.5c-8.2-0.2-16.4-0.2-24.7-0.1
	c-4,0.1-5.8-1.6-5.3-5.5c1.3-12.5,2.8-25,4-37.5c0.1-1.3,0.2-2.7,0.3-4H279v-7h-20.1c0.5-7.2,1-14.4,1.4-21.7
	c0.3-5.5,1.2-6.4,6.7-6.5c5.1-0.1,10.3,0,15.4,0c5.7,0,11.3,0,17,0c3.3,0,4.8,1.7,4.4,4.9c-1.7,12.9-3,25.8-5.3,38.5
	C296.6,288.6,293.5,299.6,291.1,310.8z M307.3,320.9c-12.4-2.5-13.2-4.5-9.8-17.2c5.6-21,10-42.2,11.5-64c0.3-4.8,1.3-5.5,6.1-4.5
	c0.1,0,0.2,0.1,0.4,0.1c14.4,4.2,11.4,1.5,11.7,15.1c0.5,0.1-4.6,33-7.8,49.4c-1.1,5.5-2.9,10.9-4.4,16.3
	C313.7,320.4,311.6,321.8,307.3,320.9z M348.3,253.9c-1.1,23.4-5.6,46.1-12.5,68.4c-1.5,4.9-3.3,5.8-8.3,4.5
	c-11.8-3.1-11.5-3-7.6-14.7c2.7-8,5-16.2,6.2-24.6c2.1-13.8,3.3-27.7,4.7-41.6c0.5-4.8,1.5-5.8,6.3-5c0.3,0,0.5,0.1,0.8,0.1
	C348.3,242.9,348.8,243.5,348.3,253.9z"/>
<path d="M204.8,366.6c-0.4-1.3-0.6-2.7-1.2-3.9c-2.5-5.7-5.7-11.1-9.1-16.3c-0.4-0.6-0.7-1.2-0.9-1.9c-0.7-2.6-1.3-5.1-2-7.7
	c-0.3-1.2-0.5-2.4-0.7-3.6c0.1,0,0.2-0.1,0.3-0.1c0.6,0.5,1.2,1.1,1.7,1.6c1.3,1.4,2.5,2.8,3.8,4.1c0.7,0.7,1.5,1.4,2.8,1.8
	c-0.6-1.7-1-3.2-1.6-4.7c-1.1-2.8-2.4-5.5-3.5-8.3c-0.5-1.1-1.4-3.9-1.8-5.2c-0.3-0.5-0.6-1-0.8-1.5c-0.4-1.3-1.1-2.5-1.7-3.7
	c-0.8-1.6-1.3-3.3-1.9-5c-0.8-2.4-1.4-4.8-3-6.8c-0.6-0.8-1.4-1.5-2.1-2.1c-1.1-0.8-2.3-1.5-3.4-2.3c-0.8-0.6-1.6-1.3-2.2-2.4
	c1.2-0.4,2.4-0.7,3.5-1c-0.4-1.4-1.2-2.3-1.9-3.3c-0.8-1-1.3-2.1-1.7-3.3c-0.3-1.1-0.7-2.1-1.3-3.1c-0.5-0.8-1.1-1.6-1.9-2.1
	c-2.6-1.6-5.5-2.4-8.6-2.1c-4,0.4-6.4,2.9-8.2,6.2c-0.1,0.1-0.1,0.3-0.1,0.5c-0.3,1.5-0.6,3-0.9,4.5c-0.1,0.4,0,0.8,0.1,1.2
	c0.4,1.4,0.4,2.9,0.1,4.3c-0.4,1.9-1.2,3.5-2.1,5.2c-0.2,0.3-0.4,0.7-0.3,0.9c0.3,0.7,0.1,1.4-0.2,1.9c-0.7,1.7-0.4,3.4-0.2,5.1
	c0.2,1.3,0.7,2.5,1.1,3.8c0.3,0.9,0.7,1.8,0.9,2.7c0.1,1.2,0.6,2.3,1.2,3.3c0.9,1.4,1.8,2.7,2.8,4c1.3,1.7,2.8,3.3,4.1,5
	c1.3,1.7,1.1,3.3-0.6,4.5c-1.7,1.2-3.2,2.6-4.7,4c-0.2,0.2-0.3,0.4-0.3,0.6c0.1,0.7-0.3,1.1-0.8,1.5c1,0,3.9,1.7,4.6,1.1
	c0.3-0.2,0.7-0.5,1.1-0.5c0.6-0.1,0.9-0.4,1.1-0.9c0.2-0.5,0.2-1,0.4-1.4c0.1-0.3,0.1-0.6,0.3-0.8c1.1-0.8,2.2-1.6,3.4-2.4
	c0.7-0.4,1.2-0.3,1.9,0.3c2.4,2.2,4.9,4.3,6.9,6.9c0.6,0.7,1.3,1.4,2.4,1.7c-0.2-2.2-1.7-3.8-2.3-5.8c2,0.7,3.5,1.7,4.8,3.4
	c1.1,1.3,2.2,2.7,3,4.1c1.6,2.7,3.1,5.5,4.6,8.3c2.4,4.4,4.7,8.9,7.1,13.3c0.1,0.1,0.1,0.2,0.2,0.3c0.5,0.6,1,0.6,1.4-0.1
	c0.2-0.5,0.4-1,0.6-1.5c0.3,0.3,0.6,0.6,1.1,1.1c0.1-1.1,0.1-1.9,0.2-2.7c1.3,0.4,2.4,0.7,3.8,1.1
	C204.1,367.6,205,367.4,204.8,366.6z"/>
<path d="M219.9,267c-4.6,0-9.2,0-13.8,0c-0.1-0.1-0.1-0.3-0.2-0.4c0.4-0.1,0.7-0.3,1.1-0.3c0.7-0.1,1.4-0.1,2-0.3
	c0.5-0.2,1-0.5,1.3-0.7c-0.5-1.7-1.1-2.4-2.4-2.5c-1.6-0.1-3.1-0.5-4.7-0.8c-3.5-0.6-6.6,1-9.8,2c-3.7,1.1-7.3,2.9-11.1,3.8
	c-2.7,0.7-4.9,2.5-7.6,3.1c-2.1,0.4-4,1.9-6.1,2.5c-2.1,0.7-4.3,0.9-6.8,0.7c0.7-0.4,1.3-0.9,2.7-1.8c-3.4-0.4-5.7,0.8-8.1,1.5
	c-0.3-0.4-0.7-0.8-1.2-1.4c1.8-1.9,3.9-3.2,6.5-4.1c4.8-1.5,9.2-3.9,13.3-6.6c2.8-1.9,5.8-3.2,8.5-5c2.7-1.8,5.7-3.3,6.8-6.8
	c0.3-0.8,0.4-1.9,1.7-1.8c0.3-1.6,1.8-2.4,2.7-3.6c0.8-1.2,1.1-3.2,2.2-3.6c1.6-0.7,1.9-2.1,2.8-3.2c2.5-2.9,4.2-6.5,7.8-8.6
	c1.8-1,3.1-2.9,4.5-4.4c0.4-0.4,0.5-1.2,0.7-1.8c0.7-3.8,3.6-6.5,7.3-6.8c1.5-0.1,3.1,0,4.8,0c3.2,2.1,3.3,5.8,3.9,9.1
	c0.3,1.6,0,3.2,0.8,4.7c1.7,3.4,0.7,7.1,0.9,10.6c-2.1,2.9-1.7,7-4.7,9.5c-1,0.8-1.6,2.1-2.4,3.2c-1.9,2.4-4.9,3.2-7.2,5.1
	c-0.6,0.5-1.2,1.1-1.9,1.4c-0.7,0.3-1.5,0.3-2.5,0.5c1.2,1.1,2.2,2,3.4,3.1c1.7,1.2,4.1-2.8,6.1,0.6
	C220.7,265.1,220.3,266,219.9,267z"/>
<g>
	<path d="M273.9,320.3l-3.8-1.2c6.2-18.9,10-38.5,11.2-58.2c0.7-10.1,0.7-20.3,0-30.4l4-0.3c0.7,10.3,0.7,20.7,0,30.9
		C284,281.1,280.2,301,273.9,320.3z"/>
</g>
<g id="_x35_guITa.tif">
	<g>
		<path d="M401.8,236.5c-2.2,0.2-3.8,0.3-5.4,0.4c-0.6,0-1.4,0.1-1.7-0.2c-3.2-2.8-7.5-3.7-10.7-6.4c-0.7-0.6-1-1.8-1.7-3.1
			c-1.8-0.4-3.3-1.5-5-3.1c-2.1-1.9-3.5-4.7-6.3-5.7c-0.4-0.1-0.9-0.5-1-0.8c-0.5-2.8-2.5-4-4.8-5.1c-1.2-3.4-5.4-4.5-6.1-8.2
			c-3.4-1.8-2.7-6.8-6.5-8.2c-0.4-3.5-3.7-4.2-6-5.8c-0.8-0.6-1.5-1.3-2.9-2.5c2.6-0.3,4.4-0.5,6.7-0.8c-3.6-2.1-6.8-4-10.1-6
			c6.8-0.5,12.8,3,19.8,3.4c-5.5-4.8-12.5-7.2-16.7-13.5c1.9-0.6,3.2,0.4,4.6,1c4.4,2.1,8.8,4.1,13.2,6.1c0.4,0.2,0.8,0.1,2,0.3
			c-4.1-5.2-9.3-8.8-11.4-14.7c7.8,5.1,14.9,11.1,23.3,15.4c-3.5-5.3-8.3-9.6-10.7-16.3c2.8,1.2,4.3,3,5.9,4.8
			c1.7,1.9,3.5,3.5,5.4,5.2c1.8,1.5,3.7,2.9,5.5,4.4c1.9,1.6,3.8,3.2,5.7,4.9c0.6-0.6,0.9-1,1.5-1.6c1,0.9,2,1.7,3,2.6
			c4.3,4.1,8.9,7.6,14.7,9.6c5.7,2,11.2,4.6,16.5,7.4c2.3,1.2,4.1,3.3,5.9,5.2c1.2,1.3,2,2.8,3.2,4.6c3.2-3.5,7.5-5.5,9.4-9.9
			c0.2-0.4,0.5-0.7,0.8-1c4.2-3.2,7.2-7.3,10.8-11.1c2-2.1,3.5-4.3,3.9-7.2c0.2-1.4,0.7-2.8,1.2-4.4c1,0.5,1.7,0.8,2.6,1.2
			c1.1-3.4-1.3-7.4,1.4-10.5c3,1.2,3.7,1.8,6.5,5.2c0.8-2.5,1-4.9,1-7.3c0-2.2,0.1-4.4,0.3-6.5c0.1-0.6,0.8-1.6,1.2-1.6
			c0.7,0,1.7,0.5,2.1,1.1c1.1,1.7,2,3.5,3.2,5.6c2-3.9-0.7-9.1,3.5-12.1c2.5,1.1,2.8,3.5,4,6.1c0.7-2.2,1.3-4,1.9-5.8
			c3.9,3.2,4.4,4.9,5.6,19.4c0.5-0.3,0.9-0.5,1.5-0.9c2.3,4.5,1.9,8.9-0.6,12.9c-1.5,2.5-3.6,4.7-5.8,6.6c-4,3.5-7.7,7.2-10.5,11.8
			c-1,1.6-3,2.7-4.6,4c-3.4,2.7-6.9,5.4-10.9,8.5c1.9,0.6,3.2,0.8,4.3,1.3c1.6,0.7,3.7,1.3,4.4,2.6c1.8,3.1,4.7,4.8,7.3,6.9
			c1.1,0.9,2.2,1.8,3.3,2.8c-2.1,2.5-4.6,1.7-6.5,1.3c-2.8-0.5-5.1-0.3-7.7,0.9c-2.2,1-4.8,1.4-7.3,1.8c-3.7,0.5-6.6,2.4-9.4,4.6
			c-3.9,3.1-7.7,6.4-12.4,8.3c-0.7,0.3-1.3,0.8-2,0.9c-2.5,0.3-4.3,1.6-5.7,3.7c-1.9,2.7-4.8,3.1-7.8,2.9c-2.7-0.2-5.5-0.3-8.2-0.4
			c-0.5,0-1.1,0.3-1.6,0.6c-3.8,2.4-7.9,2.7-12.3,2c-2-0.3-4.2,0.4-6.1-0.2c-3.4-0.9-6.1,0.4-9.2,1.6c-6.8,2.7-13.5,5.6-21.3,7
			c1-3.2,2.8-5.3,5.6-6.5c5.8-2.5,11.8-4.5,17.5-7.2C391.1,245.7,397.1,242.2,401.8,236.5z"/>
	</g>
</g>
</svg>
