<?xml version="1.0" encoding="utf-8"?>
<!-- Generator: Adobe Illustrator 19.2.1, SVG Export Plug-In . SVG Version: 6.00 Build 0)  -->
<svg version="1.1" xmlns="http://www.w3.org/2000/svg" xmlns:xlink="http://www.w3.org/1999/xlink" x="0px" y="0px"
	 viewBox="0 0 1834.1 1805.6" style="enable-background:new 0 0 1834.1 1805.6;" xml:space="preserve">
<style type="text/css">
	.st0{fill:#FFFFFF;stroke:#000000;stroke-width:2;stroke-miterlimit:10;}
	.st1{fill:#C28064;}
	.st2{fill:#308DB7;}
	.st3{fill:#ED1164;}
	.st4{fill:#DB4041;stroke:#F27178;stroke-miterlimit:10;}
	.st5{fill:none;stroke:#000333;stroke-width:19;stroke-miterlimit:10;}
	.st6{fill:#FFF434;stroke:#000000;stroke-width:2;stroke-miterlimit:10;}
	.st7{fill:#72D3F2;stroke:#000000;stroke-width:2;stroke-miterlimit:10;}
	.st8{fill:#F74782;stroke:#000000;stroke-width:2;stroke-miterlimit:10;}
	.st9{fill:none;stroke:#000000;stroke-width:2;stroke-miterlimit:10;}
	.st10{display:none;}
	.st11{display:inline;fill:none;stroke:#000000;stroke-width:2;stroke-miterlimit:10;}
	.st12{display:inline;fill:none;stroke:#000000;stroke-width:10;stroke-miterlimit:10;}
</style>
<g id="Layer_4">
	<g id="Layer_1_2_">
		<polygon class="st0" points="2159.9,246 2159.5,246 2085.7,246 2085.7,352.7 2159.8,352.7 2159.5,458.2 2285.8,458.2 2285.8,246 
					"/>
	</g>
</g>
<g id="Layer_1">
	<rect x="904" y="544" class="st1" width="204.1" height="102"/>
	<rect x="1180" y="1195.7" class="st1" width="204.1" height="102"/>
	<rect x="727.1" y="964.6" class="st1" width="204.1" height="102"/>
	<rect x="727.1" y="1144.7" class="st1" width="204.1" height="102"/>
	<rect x="727.1" y="1315.7" class="st1" width="204.1" height="102"/>
	<rect x="699.9" y="544" class="st1" width="204.1" height="102"/>
	<rect x="1180" y="1390.6" class="st1" width="204.1" height="102"/>
	<rect x="1180" y="964.6" class="st1" width="204.1" height="102"/>
	<rect x="685" y="256.5" class="st1" width="389.8" height="123.7"/>
	<rect x="1326.9" y="256.5" class="st1" width="254.1" height="74"/>
	<rect x="1507.5" y="274" class="st1" width="74" height="254.1"/>
	<rect x="699.9" y="274" class="st2" width="77.2" height="106.2"/>
	<rect x="796" y="275.7" class="st2" width="54.6" height="54.9"/>
	<rect x="978.7" y="274" class="st2" width="54.6" height="54.9"/>
	<rect x="887.4" y="274" class="st2" width="54.6" height="54.9"/>
	<rect x="1351.1" y="266.5" class="st2" width="102.8" height="54.1"/>
	<rect x="1515" y="410.1" class="st2" width="54.1" height="102.8"/>
	<rect x="1539.2" y="348.3" class="st2" width="27" height="51.4"/>
	<rect x="1493.6" y="694" class="st1" width="102" height="204.1"/>
	<rect x="1493.6" y="935.5" class="st3" width="102" height="160.1"/>
	<rect x="1493.6" y="1115.6" class="st3" width="102" height="160.1"/>
	<rect x="1491" y="1310.6" class="st3" width="102" height="160.1"/>
	<rect x="727.1" y="1551" class="st3" width="116.7" height="197.2"/>
	<rect x="867" y="1631.5" class="st3" width="207.8" height="116.7"/>
	<rect x="318.3" y="493" class="st4" width="204.1" height="102"/>
	<rect x="545.3" y="274" class="st4" width="102" height="204.1"/>
	<rect x="201.6" y="688.4" width="11.3" height="215.4"/>
	<rect x="1135.7" y="227.7" width="215.4" height="11.3"/>
	<g id="Layer_1_1_">
		<polygon class="st5" points="725.4,233.4 722.5,233.4 212.3,233.4 212.3,961.9 722.5,961.9 722.5,1766.9 1595.6,1766.9 
			1595.6,233.4 		"/>
	</g>
	<rect x="2203.8" y="329" class="st6" width="28.8" height="20.2"/>
	<rect x="2171.6" y="352.7" class="st6" width="28.8" height="20.2"/>
	<rect x="2171.6" y="376" class="st6" width="28.8" height="20.2"/>
	<rect x="2171.6" y="399.8" class="st6" width="28.8" height="20.2"/>
	<rect x="2203.8" y="352.7" class="st6" width="28.8" height="20.2"/>
	<rect x="2203.8" y="376.3" class="st6" width="28.8" height="20.2"/>
	<polygon class="st7" points="2212.8,420.2 2240.9,420.2 2251.2,428.2 2274.6,428.1 2274.6,446.1 2212.8,446.1 	"/>
	<polygon class="st6" points="2179.3,293.8 2172.8,293.8 2137.7,293.8 2137.7,313 2172.8,313 2179.3,313 2200.8,313 2200.8,293.8 	
		"/>
	<rect x="2159.8" y="261.2" class="st7" width="41" height="29.5"/>
	<polygon class="st7" points="2275.1,265.9 2275.1,261.3 2239.2,261.3 2239.2,278.4 2252.3,278.4 2252.3,303.7 2275.2,303.7 
		2275.2,265.9 	"/>
	<rect x="2253.2" y="318.2" class="st6" width="22" height="30.5"/>
	<rect x="2253.2" y="351.6" class="st7" width="21.4" height="21.1"/>
	<rect x="2253.2" y="376.1" class="st7" width="21.5" height="20.2"/>
	<rect x="2252.8" y="399.6" class="st7" width="21.2" height="21.1"/>
	<polygon class="st7" points="2187.1,430 2187.1,424.1 2171.7,424.1 2171.7,445.4 2173.4,445.4 2187.1,445.4 2200.8,445.4 
		2200.8,430 	"/>
	<rect x="2097.8" y="293.2" class="st8" width="36.8" height="19.7"/>
	<rect x="2137.7" y="261.3" class="st8" width="19.2" height="29.4"/>
	<line class="st9" x1="2097.8" y1="318.2" x2="2097.8" y2="341"/>
	<line class="st9" x1="2204.6" y1="261.2" x2="2233.4" y2="261.3"/>
</g>
<g id="Layer_3" class="st10">
	<rect x="2171.6" y="268.9" class="st11" width="14.2" height="14.2"/>
	<rect x="2148.5" y="296" class="st11" width="14.2" height="14.2"/>
	<rect x="2177" y="296" class="st11" width="14.2" height="14.2"/>
	<rect x="2140.2" y="268.3" class="st11" width="14.2" height="14.2"/>
	<rect x="2109.1" y="296" class="st11" width="14.2" height="14.2"/>
	<rect x="2257.2" y="326.8" class="st11" width="14.2" height="14.2"/>
	<rect x="2178.9" y="355.7" class="st11" width="14.2" height="14.2"/>
	<rect x="2211.1" y="355.7" class="st11" width="14.2" height="14.2"/>
	<rect x="2211.9" y="379.1" class="st11" width="14.2" height="14.2"/>
	<rect x="2256.4" y="379" class="st11" width="14.2" height="14.2"/>
	<rect x="2256.3" y="355.1" class="st11" width="14.2" height="14.2"/>
	<rect x="2257.2" y="267" class="st11" width="14.2" height="14.2"/>
	<rect x="2257.2" y="285.2" class="st11" width="14.2" height="14.2"/>
	<rect x="2256.4" y="402.9" class="st11" width="14.2" height="14.2"/>
	<rect x="2179.1" y="379" class="st11" width="14.2" height="14.2"/>
	<rect x="2179.1" y="403.1" class="st11" width="14.2" height="14.2"/>
	<rect x="2226" y="427.7" class="st11" width="14.2" height="14.2"/>
	<rect x="2172.8" y="430.5" class="st11" width="14.2" height="14.2"/>
	<rect x="2211.9" y="331.8" class="st11" width="14.2" height="14.2"/>
</g>
<g id="Guides" class="st10">
	<rect x="3410.4" y="133.2" class="st12" width="83.2" height="1515.3"/>
	<rect x="1976.6" y="814.9" class="st12" width="1515.3" height="83.2"/>
	<rect x="1976.6" y="1648.5" class="st12" width="1515.3" height="83.2"/>
	<rect x="1976.6" y="5.7" class="st12" width="83.2" height="1515.3"/>
	<rect x="2847.4" y="5.7" class="st12" width="83.2" height="1515.3"/>
	<rect x="3159.1" y="5.7" class="st12" width="83.2" height="1515.3"/>
	<rect x="2537.7" y="905.2" class="st12" width="83.2" height="1515.3"/>
	<rect x="1976.6" y="130.2" class="st12" width="1515.3" height="83.2"/>
</g>
</svg>
