<?xml version="1.0" encoding="iso-8859-1"?>
<!-- Generator: Adobe Illustrator 19.1.0, SVG Export Plug-In . SVG Version: 6.00 Build 0)  -->
<svg version="1.1" id="Layer_1" xmlns="http://www.w3.org/2000/svg" xmlns:xlink="http://www.w3.org/1999/xlink" x="0px" y="0px"
	 viewBox="-249 240.2 75.5 96.8" style="enable-background:new -249 240.2 75.5 96.8;" xml:space="preserve">
<path d="M-176.1,300.5L-176.1,300.5c1.7-2.7,2.6-5.8,2.6-9c0-4.6-1.8-8.8-5-12c-0.1-0.1-0.1-0.1-0.2-0.1c-0.1-0.1-0.1-0.1-0.2-0.2
	c-3.1-3.1-7.3-4.7-12-4.7c-5,0-10,1.8-14.2,5.1c-2.4-1-12.7-5.8-15.2-13.8c-1.3-4-0.3-8.3,2.7-12.8l0,0c0.2-0.3,3.2-4.6,1.9-8.4
	c-0.7-2-2.4-3.4-5.1-4.2l-0.6-0.2l-26.8,31.5l-0.8,0.9l1,0.6c1.3,0.8,4.9,3.2,5.2,5.3c0.1,0.5,0,0.9-0.4,1.4l-4.8,5.6l-0.1,0.2
	c-0.1,0.2-1.2,5.5,0.4,11.5c1.4,5.5,5.4,12.6,16.3,16c-2.5,7.1-1.3,14.4,3.5,19.1c3.1,3.1,7.3,4.7,12,4.7l0,0c6,0,12.1-2.7,16.8-7.4
	c0.7-0.7,1.4-1.5,2.2-2.5l14.3-18.1c0.4-0.3,0.8-0.7,1.3-1.2c1.8-1.8,3-3.8,4.3-5.8c0-0.1,0.1-0.1,0.1-0.2
	C-176.6,301.4-176.3,301-176.1,300.5L-176.1,300.5z M-180,302.1c-2.8,2.8-6.6,4.4-10.6,4.4s-7.8-1.6-10.6-4.4s-4.4-6.6-4.4-10.6
	s1.6-7.8,4.4-10.6c2.8-2.8,6.6-4.4,10.6-4.4c3.9,0,7.6,1.5,10.5,4.2c4.5,4.7,5.3,12.2,1.9,19.2c-0.2,0.3-0.3,0.5-0.5,0.8
	C-179.2,301.2-179.6,301.6-180,302.1z M-246,272l25.2-29.6c1.7,0.6,2.8,1.5,3.2,2.7c1,2.7-1.4,6.2-1.6,6.6l-21.9,25.6
	C-242,275-244.6,273-246,272z M-245.8,296.7c-1.3-4.9-0.6-9.4-0.4-10.4l4.5-5.2l0,0l0,0l19.3-22.5c-0.6,2.6-0.6,5.2,0.2,7.7
	c2.5,8.1,11.7,13,15.4,14.6c-0.3,0.3-0.6,0.5-0.8,0.8c-1,1-2,2.2-2.9,3.4l-18.9,23.7v0.1v0.1c-0.5,0.8-0.9,1.6-1.2,2.4
	C-238.8,308.8-243.9,303.9-245.8,296.7z M-184.2,307.6l-14.4,18.3c-0.7,0.9-1.3,1.6-2,2.3c-4.3,4.3-9.9,6.8-15.4,6.8
	c-4.1,0-7.9-1.5-10.6-4.1c-5-5-5.5-13.4-1.2-20.9l18.9-23.6l0,0c0.8-1.1,1.7-2.2,2.7-3.1c0.6-0.6,1.2-1.1,1.8-1.6
	c-2.1,2.9-3.2,6.3-3.2,9.9c0,4.6,1.8,8.8,5,12s7.5,5,12,5c2.5,0,4.9-0.5,7.1-1.6C-183.7,307.1-184,307.3-184.2,307.6L-184.2,307.6z"
	/>
<path d="M-190.6,280.2c-5.8,0-10.6,5-10.6,11.2s4.8,11.2,10.6,11.2s10.6-5,10.6-11.2C-180,285.3-184.8,280.2-190.6,280.2z
	 M-190.6,300.6c-4.7,0-8.6-4.1-8.6-9.2c0-5.1,3.9-9.2,8.6-9.2c4.7,0,8.6,4.1,8.6,9.2C-182,296.5-185.9,300.6-190.6,300.6z"/>
<path d="M-190.6,286.1c-2.9,0-5.3,2.4-5.3,5.3c0,2.9,2.4,5.3,5.3,5.3s5.3-2.4,5.3-5.3C-185.3,288.5-187.7,286.1-190.6,286.1z
	 M-190.6,294.8c-1.8,0-3.3-1.5-3.3-3.3s1.5-3.3,3.3-3.3s3.3,1.5,3.3,3.3S-188.8,294.8-190.6,294.8z"/>
</svg>
