<?xml version="1.0" encoding="utf-8"?>
<!-- Generator: Adobe Illustrator 19.1.0, SVG Export Plug-In . SVG Version: 6.00 Build 0)  -->
<svg version="1.1" id="Layer_1" xmlns="http://www.w3.org/2000/svg" xmlns:xlink="http://www.w3.org/1999/xlink" x="0px" y="0px"
	 viewBox="-263 259 48 60" style="enable-background:new -263 259 48 60;" xml:space="preserve">
<g>
	<g>
		<circle cx="-227.9" cy="300.7" r="1.9"/>
		<circle cx="-250.1" cy="300.7" r="1.9"/>
	</g>
	<path d="M-222.4,306.5h-33.2c-0.6,0-1-0.4-1-1v-45c0-0.6,0.4-1,1-1h33.2c0.6,0,1,0.4,1,1v45C-221.4,306.1-221.8,306.5-222.4,306.5z
		 M-254.6,304.5h31.2v-43h-31.2V304.5z"/>
	<path d="M-232,266.2h-14c-0.6,0-1-0.4-1-1c0-0.6,0.4-1,1-1h14c0.6,0,1,0.4,1,1C-231,265.7-231.5,266.2-232,266.2z"/>
	<path d="M-239,299.9c-6.7,0-12.1-5.4-12.1-12.1c0-6.7,5.4-12.2,12.1-12.2s12.1,5.4,12.1,12.1C-226.9,294.4-232.3,299.9-239,299.9z
		 M-239,277.6c-5.6,0-10.1,4.6-10.1,10.1s4.5,10.2,10.1,10.2s10.1-4.6,10.1-10.1S-233.4,277.6-239,277.6z"/>
	<path d="M-239,291.1c-1.9,0-3.4-1.5-3.4-3.4c0-1.9,1.5-3.4,3.4-3.4s3.4,1.5,3.4,3.4C-235.6,289.6-237.1,291.1-239,291.1z
		 M-239,286.3c-0.8,0-1.4,0.6-1.4,1.4c0,0.8,0.6,1.4,1.4,1.4s1.4-0.6,1.4-1.4C-237.6,287-238.2,286.3-239,286.3z"/>
</g>
</svg>
