<!-- Generator: Adobe Illustrator 19.0.0, SVG Export Plug-In  -->
<svg version="1.1"
	 xmlns="http://www.w3.org/2000/svg" xmlns:xlink="http://www.w3.org/1999/xlink" xmlns:a="http://ns.adobe.com/AdobeSVGViewerExtensions/3.0/"
	 x="0px" y="0px" width="25.5px" height="25px" viewBox="0 0 25.5 25" enable-background="new 0 0 25.5 25" xml:space="preserve">
<defs>
</defs>
<g id="follow_x5F_path_1_">
	<g>
		<g>
			<polygon fill="#76787B" points="21.5,19 25.5,17 14,13.5 17.5,25 19.5,21 24,25 25.5,23.5 			"/>
		</g>
	</g>
	<path fill="none" stroke="#76787B" stroke-width="2" stroke-miterlimit="10" d="M15.8,10.2C21.4,7.6,21.5,0,21.5,0"/>
	<path fill="none" stroke="#76787B" stroke-width="2" stroke-miterlimit="10" d="M1,24c0,0,0.9-6.3,4.6-10.1"/>
	<path fill="none" stroke="#76787B" stroke-width="2" stroke-miterlimit="10" d="M11,15H9c-2.5,0-4.5-2-4.5-4.5V8
		c0-2.4,2.1-4.5,4.5-4.5h2c2.5,0,4.5,2.2,4.5,4.7v2.3C15.5,13,13.5,15,11,15z"/>
</g>
</svg>
