<svg xmlns="http://www.w3.org/2000/svg" xmlns:xlink="http://www.w3.org/1999/xlink" version="1.1" x="0px" y="0px" viewBox="0 0 100 125" enable-background="new 0 0 100 100" xml:space="preserve"><path d="M22.498,11.164c-9.399,0-22.473,5.554-22.498,24.583h12.834c0.009-8.006,4.452-11.766,10.262-11.766  c5.127,0,8.63,4.101,8.63,10.989c0,13.279-14.611,15.329-14.611,30.624c0,14.441,11.322,23.242,23.737,23.242  c10.57,0,19.841-6.323,24.882-21.96c1.623-5.127,4.187-12.646,11.518-12.646c5.058,0,9.929,3.589,9.929,8.972  s-3.076,9.057-6.785,12.766l9.809,8.263c5.349-6.588,9.715-12.655,9.792-21.029c0.12-12.732-10.766-21.618-23.122-21.618  c-15.073,0-20.627,13.073-23.02,20.507c-2.307,7.092-5.759,13.928-13.005,13.928c-4.375,0-10.92-2.478-10.92-10.399  c0-11.219,14.441-13.954,14.441-30.949C44.373,19.111,33.692,11.164,22.498,11.164z"/><text x="0" y="115" fill="#000000" font-size="5px" font-weight="bold" font-family="'Helvetica Neue', Helvetica, Arial-Unicode, Arial, Sans-serif">Created by Thomas Helbig</text><text x="0" y="120" fill="#000000" font-size="5px" font-weight="bold" font-family="'Helvetica Neue', Helvetica, Arial-Unicode, Arial, Sans-serif">from the Noun Project</text></svg>