<svg xmlns="http://www.w3.org/2000/svg" xmlns:xlink="http://www.w3.org/1999/xlink" version="1.1" x="0px" y="0px" viewBox="0 0 100 100" enable-background="new 0 0 100 100" xml:space="preserve"><rect x="46.167" y="46.181" width="7.669" height="7.668"></rect><rect x="15.859" y="49.376" transform="matrix(-0.8717 -0.49 0.49 -0.8717 69.1583 118.1314)" width="68.365" height="1.275"></rect><path d="M81.787,65.604c0.377,0,0.762,0.095,1.113,0.294c1.098,0.614,1.486,2.005,0.871,3.103c-0.418,0.744-1.193,1.163-1.988,1.163  c-0.379,0-0.762-0.096-1.115-0.293c-1.098-0.617-1.486-2.007-0.871-3.104C80.215,66.021,80.99,65.604,81.787,65.604 M81.787,64.583  v1.021V64.583c-1.193,0-2.295,0.646-2.877,1.683c-0.432,0.77-0.539,1.658-0.301,2.508c0.236,0.849,0.791,1.554,1.559,1.984  c0.494,0.276,1.051,0.424,1.615,0.424c1.191,0,2.293-0.645,2.877-1.684c0.891-1.585,0.326-3.6-1.258-4.492  C82.908,64.73,82.35,64.583,81.787,64.583L81.787,64.583z"></path><path d="M18.219,29.867c0.378,0,0.762,0.095,1.114,0.293c1.097,0.617,1.487,2.007,0.87,3.104c-0.418,0.744-1.192,1.162-1.989,1.162  c-0.378,0-0.762-0.094-1.114-0.293c-1.097-0.615-1.487-2.006-0.87-3.103C16.648,30.286,17.422,29.867,18.219,29.867 M18.219,28.848  v1.021V28.848L18.219,28.848L18.219,28.848c-1.191,0-2.294,0.646-2.877,1.685c-0.432,0.768-0.539,1.657-0.301,2.506  c0.238,0.848,0.792,1.554,1.56,1.985c0.493,0.276,1.051,0.424,1.614,0.424c1.191,0,2.294-0.646,2.877-1.685  c0.432-0.768,0.539-1.657,0.301-2.506c-0.237-0.849-0.792-1.554-1.56-1.984C19.34,28.994,18.783,28.848,18.219,28.848L18.219,28.848  z"></path><path d="M30.866,28.747l-1.182,0.479c0.257,0.636,0.534,1.271,0.827,1.891l1.153-0.544C31.381,29.974,31.112,29.359,30.866,28.747z"></path><path d="M29.58,24.979l-1.227,0.345c0.186,0.66,0.391,1.323,0.611,1.97l1.207-0.412C29.958,26.257,29.757,25.617,29.58,24.979z"></path><path d="M28.713,21.09l-1.257,0.21c0.113,0.679,0.245,1.358,0.393,2.023l1.244-0.276C28.951,22.403,28.824,21.745,28.713,21.09z"></path><path d="M36.116,39.725c0.441,0.516,0.905,1.028,1.378,1.527l0.925-0.875c-0.459-0.485-0.908-0.983-1.336-1.482L36.116,39.725z"></path><path d="M31.441,32.954c0.325,0.602,0.671,1.202,1.031,1.786l1.085-0.668c-0.347-0.563-0.682-1.146-0.996-1.726L31.441,32.954z"></path><path d="M33.599,36.466c0.387,0.561,0.796,1.119,1.216,1.662l1.009-0.779c-0.407-0.524-0.803-1.065-1.177-1.607L33.599,36.466z"></path><path d="M28.188,14.644c0-0.499,0.009-1.006,0.027-1.508L26.94,13.09c-0.019,0.518-0.029,1.039-0.029,1.554  c0,0.167,0.001,0.335,0.003,0.505l1.274-0.016C28.188,14.968,28.188,14.806,28.188,14.644z"></path><path d="M29.271,5.232l-1.24-0.293c-0.155,0.653-0.296,1.334-0.421,2.017l1.254,0.229C28.982,6.523,29.122,5.867,29.271,5.232z"></path><path d="M71.283,78.909l1.256-0.21c-0.113-0.677-0.246-1.357-0.395-2.022L70.9,76.953C71.045,77.597,71.174,78.255,71.283,78.909z"></path><path d="M71.736,82.872l1.271-0.079c-0.043-0.686-0.104-1.376-0.182-2.053l-1.266,0.145C71.635,81.539,71.695,82.209,71.736,82.872z  "></path><path d="M38.941,42.712c0.488,0.469,0.998,0.938,1.513,1.39l0.841-0.957c-0.502-0.44-0.997-0.896-1.471-1.352L38.941,42.712z"></path><path d="M28.551,9.157l-1.264-0.168c-0.09,0.678-0.165,1.364-0.223,2.047l1.27,0.106C28.392,10.482,28.464,9.814,28.551,9.157z"></path><path d="M28.264,17.128l-1.272,0.078c0.043,0.685,0.104,1.376,0.18,2.053l1.267-0.144C28.362,18.459,28.305,17.791,28.264,17.128z"></path><path d="M55.568,54.358c0.539,0.396,1.072,0.809,1.584,1.222l0.797-0.994c-0.525-0.423-1.072-0.844-1.625-1.252L55.568,54.358z"></path><path d="M71.643,74.676c-0.188-0.659-0.395-1.32-0.613-1.97l-1.207,0.413c0.213,0.625,0.414,1.265,0.592,1.902L71.643,74.676z"></path><path d="M69.479,68.887l-1.152,0.544c0.283,0.6,0.553,1.212,0.801,1.823l1.182-0.479C70.049,70.142,69.771,69.506,69.479,68.887z"></path><path d="M70.738,94.768l1.24,0.293c0.154-0.655,0.295-1.334,0.42-2.018l-1.254-0.229C71.023,93.477,70.887,94.133,70.738,94.768z"></path><path d="M67.514,65.263l-1.086,0.669c0.348,0.564,0.684,1.146,0.998,1.724l1.119-0.607C68.221,66.447,67.873,65.847,67.514,65.263z"></path><path d="M42.026,45.424c0.526,0.423,1.073,0.845,1.625,1.253l0.759-1.022c-0.539-0.398-1.071-0.812-1.583-1.224L42.026,45.424z"></path><path d="M71.453,90.843l1.264,0.167c0.09-0.676,0.166-1.365,0.223-2.047l-1.27-0.105C71.613,89.517,71.541,90.186,71.453,90.843z"></path><path d="M73.086,84.851l-1.273,0.018c0.002,0.174,0.002,0.347,0.002,0.519c0,0.488-0.008,0.986-0.027,1.478l1.275,0.047  c0.018-0.507,0.025-1.02,0.025-1.523C73.088,85.209,73.088,85.03,73.086,84.851z"></path><path d="M49.43,48.953l-0.644,1.101c0.296,0.172,0.6,0.347,0.902,0.518c0.288,0.161,0.576,0.326,0.857,0.489l0.643-1.1  c-0.287-0.169-0.582-0.337-0.875-0.502C50.017,49.292,49.718,49.122,49.43,48.953z"></path><path d="M52.26,52.101c0.568,0.357,1.133,0.728,1.676,1.099l0.719-1.053c-0.557-0.381-1.133-0.759-1.715-1.123L52.26,52.101z"></path><path d="M45.322,47.866c0.556,0.379,1.133,0.758,1.714,1.124l0.68-1.077c-0.568-0.358-1.132-0.729-1.675-1.1L45.322,47.866z"></path><path d="M61.562,59.631c0.459,0.484,0.908,0.982,1.336,1.481l0.967-0.831c-0.441-0.515-0.906-1.028-1.379-1.527L61.562,59.631z"></path><path d="M58.684,56.865c0.502,0.439,0.998,0.895,1.471,1.351l0.883-0.921c-0.488-0.467-0.998-0.935-1.514-1.388L58.684,56.865z"></path><path d="M64.16,62.657c0.408,0.524,0.803,1.065,1.178,1.606l1.047-0.726c-0.387-0.562-0.797-1.118-1.217-1.662L64.16,62.657z"></path></svg>