<?xml version="1.0" encoding="utf-8"?>
<!-- Generator: Adobe Illustrator 19.2.1, SVG Export Plug-In . SVG Version: 6.00 Build 0)  -->
<svg version="1.1" id="ELD:_fklfk" xmlns="http://www.w3.org/2000/svg" xmlns:xlink="http://www.w3.org/1999/xlink" x="0px" y="0px"
	 viewBox="0 0 362 211.8" style="enable-background:new 0 0 362 211.8;" xml:space="preserve">
<style type="text/css">
	.st0{fill:none;stroke:#FFF200;stroke-width:9;stroke-miterlimit:10;}
	.st1{fill:#FFF200;}
</style>
<g id="DEVICE:_x7B__x27_id_x27_:_0_x7D_">
	<polygon id="DDS:_sadja" points="159.2,211.8 96.8,211.8 121.7,147.1 	"/>
	<polygon id="DDS:_as" points="256,211.8 202.8,211.8 234.8,156.5 	"/>
	<polygon id="DIF:_a" points="79.9,74.4 119.2,142.8 159.2,211.8 0,211.8 40,142.8 	"/>
	<polygon id="DIF:_B" points="176.7,3.6 216.1,107.7 256,211.8 96.8,211.8 136.8,107.7 	"/>
	<polygon id="DIF:_C_1_" points="282.7,74.4 322,142.8 362,211.8 202.8,211.8 242.7,142.8 	"/>
	<rect id="MC:_1" x="13.9" y="125.4" width="11" height="35.6"/>
	<path id="CP:_dj" class="st0" d="M75.9,107.7c249.6-131.5,366.7-21.5,298,45.3c-83.1,80.8-237.8,83.9-355-14"/>
	<circle id="BI:_input" class="st1" cx="24.9" cy="143.1" r="14.5"/>
</g>
</svg>
