<?xml version="1.0" encoding="utf-8"?>
<!-- Generator: Adobe Illustrator 19.2.1, SVG Export Plug-In . SVG Version: 6.00 Build 0)  -->
<svg version="1.1" id="ELD:_Number_5" xmlns="http://www.w3.org/2000/svg" xmlns:xlink="http://www.w3.org/1999/xlink" x="0px"
	 y="0px" viewBox="0 0 247.7 384.9" style="enable-background:new 0 0 247.7 384.9;" xml:space="preserve">
<path id="DIF:_Number_5" d="M0,355.5l12-89.7C42.2,283.3,69.2,292,93.1,292c15.5,0,28.1-3.9,37.7-11.8c9.8-7.8,14.7-18,14.7-30.6
	c0-13.4-5.3-23.8-15.9-31.2C119,211,104,207.3,84.8,207.3c-21.1,0-43.2,4.4-66.4,13.2L47.8,0h188.2v88.9H128.1l-8.1,42.4
	c7-0.5,12.7-0.7,17.1-0.7c31,0,57.2,11.3,78.6,33.8c21.2,22.2,31.8,50,31.8,83.3c0,39.2-13.7,71.9-41.2,98
	c-27.1,26.1-61.3,39.2-102.7,39.2C68.6,384.9,34,375.1,0,355.5z"/>
</svg>
