<?xml version="1.0" encoding="utf-8"?>
<!-- Generator: Adobe Illustrator 19.2.1, SVG Export Plug-In . SVG Version: 6.00 Build 0)  -->
<svg version="1.1" id="ELD:__x7B__x27_id_x27_:_0_x7D_"
	 xmlns="http://www.w3.org/2000/svg" xmlns:xlink="http://www.w3.org/1999/xlink" x="0px" y="0px" viewBox="0 0 361 361"
	 style="enable-background:new 0 0 361 361;" xml:space="preserve">
<style type="text/css">
	.st0{fill:#1C75BC;stroke:#231F20;stroke-miterlimit:10;}
	.st1{fill:#FFFFFF;stroke:#231F20;stroke-miterlimit:10;}
	.st2{fill:#00AEEF;stroke:#231F20;stroke-miterlimit:10;}
	.st3{fill:#294DFF;}
	.st4{fill:#FFE313;}
	.st5{fill:none;stroke:#DCED00;stroke-width:5;stroke-miterlimit:10;}
</style>
<rect id="BASE:_Control" x="0.5" y="0.5" class="st0" width="360" height="360"/>
<rect id="NLED:_APA102C_3_" x="89.4" y="85" class="st1" width="12.1" height="12.1"/>
<circle id="DIF:_Disk_1_" class="st2" cx="95.4" cy="91.1" r="85"/>
<circle id="DIF:_Disk_2_" class="st2" cx="272.1" cy="91.1" r="85"/>
<circle id="DIF:_Disk_3_" class="st2" cx="271.4" cy="267.5" r="85"/>
<rect id="NLED:_APA102C_2_" x="205" y="85" class="st1" width="12.1" height="12.1"/>
<circle id="DIF:_Hemisphere" class="st2" cx="92.6" cy="267.5" r="85"/>
<rect id="NLED:_APA102C_1_" x="86.5" y="261.4" class="st1" width="12.1" height="12.1"/>
<rect id="NLED:_APA102C" x="262.3" y="261.4" class="st1" width="12.1" height="12.1"/>
<rect id="MC:_ATTiny" x="292.1" y="-25.1" transform="matrix(2.336894e-03 -1 1 2.336894e-03 285.3658 335.4663)" class="st3" width="37.5" height="99.7"/>
<polygon id="BI:_Breakin_1_" class="st4" points="272,34.2 272,32 272,30.5 272,26 272,24.5 272,20 272.1,14 261,14 260.9,18.1 
	260.9,20 260.9,24.5 260.9,26 260.9,30.5 260.9,32 260.9,34.2 260.9,36.5 272,36.5 "/>
<polyline id="CP:_Control_Path" class="st5" points="280.3,25.2 234.9,24.8 234.9,91.1 58.9,91.1 61.6,267.5 360.5,267.5 "/>
</svg>
