<?xml version="1.0" encoding="utf-8"?>
<!-- Generator: Adobe Illustrator 19.2.1, SVG Export Plug-In . SVG Version: 6.00 Build 0)  -->
<svg version="1.1" id="ELD:_Traffic_Light" xmlns="http://www.w3.org/2000/svg" xmlns:xlink="http://www.w3.org/1999/xlink" x="0px"
	 y="0px" viewBox="0 0 169.3 388" style="enable-background:new 0 0 169.3 388;" xml:space="preserve">
<style type="text/css">
	.st0{fill:#231F20;}
	.st1{fill:#00AEEF;}
	.st2{fill:#F1F2F2;}
	.st3{fill:none;stroke:#FFF200;stroke-width:4;}
	.st4{fill:#294DFF;}
	.st5{fill:#FFE313;}
	.st6{fill:none;stroke:#ED1C24;stroke-width:3;}
</style>
<rect id="BASE:_base_path" class="st0" width="169.3" height="388"/>
<path id="DIF:_2" class="st1" d="M84.6,25.6c17.1,0,32,9.7,39.4,23.9c3.2,6.1,5.1,13.2,5.1,20.6c0,24.6-19.8,44.4-44.4,44.4
	S40.2,94.6,40.2,70S60.1,25.6,84.6,25.6z"/>
<path id="DIF:_1" class="st1" d="M84.6,122.7c24.6,0,44.4,19.8,44.4,44.4c0,8.9-2.5,17.1-7.1,24c-7.9,12.3-21.7,20.5-37.4,20.5
	c-24.6,0-44.4-19.8-44.4-44.4S60.1,122.7,84.6,122.7z"/>
<path id="DIF:_0" class="st1" d="M84.6,220.6c24.6,0,44.4,19.8,44.4,44.4c0,6.1-1.3,12-3.5,17.3c-6.8,15.9-22.6,27.1-41,27.1
	c-24.6,0-44.4-19.8-44.4-44.4S60.1,220.6,84.6,220.6z"/>
<polygon id="NLED:_APA102C-3_1_" class="st2" points="91.9,77 77.7,77.3 77.4,63.1 91.6,62.8 91.7,69.8 "/>
<polygon id="NLED:_APA102C-3_2_" class="st2" points="91.7,174.3 77.5,174.2 77.6,160 91.8,160.1 91.7,167.1 "/>
<polygon id="NLED:_APA102C-3_3_" class="st2" points="91.8,275.1 77.6,275.3 77.5,261.2 91.7,261 91.7,268 "/>
<polyline id="CP:_CircuitPath" class="st3" points="124.1,333.7 125.2,89.3 125.2,25.7 "/>
<rect id="MC:_ATTINY" x="55.8" y="290.3" transform="matrix(4.490814e-11 -1 1 4.490814e-11 -264.0313 411.5394)" class="st4" width="35.8" height="95.1"/>
<polygon id="BI:_Breakin_1_" class="st5" points="113.8,303.2 113.8,303.8 113.8,304.3 113.8,305.5 113.8,306 113.8,307.2 
	113.8,308.9 121.3,308.9 121.3,307.8 121.3,307.2 121.3,306 121.3,305.5 121.3,304.3 121.3,303.8 121.3,303.2 121.3,302.6 
	113.8,302.6 "/>
<polyline id="WIRE:_manual_wire" class="st6" points="121.3,338.8 131.5,338.8 131.5,319.6 117.5,305.7 "/>
</svg>
