<svg x="0" y="0" width="1242" height="659" version="1.1" xmlns="http://www.w3.org/2000/svg" xmlns:xlink="http://www.w3.org/1999/xlink"><g transform=""><g fill="none" stroke="#000000" stroke-width="none" stroke-linecap="butt" stroke-linejoin="miter" stroke-miterlimit="10" stroke-dasharray="none" stroke-dashoffset="0" font-family="none" font-weight="normal" font-size="none" text-anchor="start" mix-blend-mode="normal"><g fill="#dfdfdf" font-family="&quot;Helvetica Neue&quot;, Helvetica, Arial, sans-serif" font-size="14"><g><g><g id="Layer_1"><polygon points="477.05,377.6 477.05,161.4 764.95,161.4 764.95,377.6" id="DIF:_diagram 1" stroke-width="3" stroke-dasharray=""/><g><polygon points="516.85,236.7 516.85,186.2 694.05,186.2 694.05,236.7" id="DDS:_p 1" stroke-width="1" stroke-dasharray="2,1" opacity="0.5"/><polygon points="624.85,316.3 624.85,211.4 729.75,211.4 729.75,316.3" id="DDS:_n 1" stroke-width="1" stroke-dasharray="2,1" opacity="0.5"/><polygon points="536.05,295.5 512.25,250.3 527.35,201.5 572.55,177.7 621.35,192.8 645.15,238 630.05,286.8 584.85,310.6" id="DIF:_Polygon" stroke-width="3" stroke-dasharray=""/><polygon points="696.35,257.5 636.45,361.4 576.45,257.5" id="DDS:_Polygon" stroke-width="1" stroke-dasharray="2,1" opacity="0.5"/><path d="M516.85,305.5c0,-13.25483 31.2953,-24 69.9,-24c38.6047,0 69.9,10.74517 69.9,24c0,13.25483 -31.2953,24 -69.9,24c-38.6047,0 -69.9,-10.74517 -69.9,-24z" id="DIF:_Ellipse 1" stroke-width="3" stroke-dasharray=""/></g></g></g></g></g><polygon points="664.34471,206.74499 664.34471,192.57176 678.51794,192.57176 678.51794,206.74499" id="NLED:_{&quot;colorID&quot;:[0.90196,0.09804,0.09804],&quot;target&quot;:6,&quot;forceTarget&quot;:8}" fill="#e61919" stroke-width="1" stroke-dasharray="" font-family="sans-serif" font-size="12"/><polygon points="597.53513,278.90756 597.53513,264.73433 611.70836,264.73433 611.70836,278.90756" id="NLED:_{&quot;colorID&quot;:[0.90196,0.49804,0.09804],&quot;target&quot;:6,&quot;forceTarget&quot;:10}" fill="#e67f19" stroke-width="1" stroke-dasharray="" font-family="sans-serif" font-size="12"/><polygon points="661.00865,276.2026 661.00865,262.02937 675.18188,262.02937 675.18188,276.2026" id="NLED:_{&quot;colorID&quot;:[0.09804,0.36471,0.90196],&quot;target&quot;:6,&quot;forceTarget&quot;:11}" fill="#195de6" stroke-width="1" stroke-dasharray="" font-family="sans-serif" font-size="12"/><polygon points="547.45995,314.52648 547.45995,300.35325 561.63318,300.35325 561.63318,314.52648" id="NLED:_{&quot;colorID&quot;:[0.09804,0.89804,0.90196],&quot;target&quot;:12,&quot;forceTarget&quot;:12}" fill="#19e5e6" stroke-width="1" stroke-dasharray="" font-family="sans-serif" font-size="12"/><polygon points="626.36162,342.42222 626.36162,328.24899 640.53485,328.24899 640.53485,342.42222" id="NLED:_{&quot;colorID&quot;:[0.63137,0.09804,0.90196],&quot;target&quot;:6,&quot;forceTarget&quot;:9}" fill="#a119e6" stroke-width="1" stroke-dasharray="" font-family="sans-serif" font-size="12"/><polygon points="670.73018,233.8773 670.73018,219.70407 684.9034,219.70407 684.9034,233.8773" id="NLED:_{&quot;colorID&quot;:[0.89804,0.90196,0.09804],&quot;target&quot;:6,&quot;forceTarget&quot;:9}" fill="#e5e619" stroke-width="1" stroke-dasharray="" font-family="sans-serif" font-size="12"/><polygon points="534.27911,235.6501 534.27911,221.47687 548.45234,221.47687 548.45234,235.6501" id="NLED:_{&quot;colorID&quot;:[0.90196,0.09804,0.63137],&quot;target&quot;:10}" fill="#e619a1" stroke-width="1" stroke-dasharray="" font-family="sans-serif" font-size="12"/></g></g></svg>