<svg id="Layer_1" data-name="Layer 1" xmlns="http://www.w3.org/2000/svg" width="64.48mm" height="72.77mm" viewBox="0 0 182.77 206.28"><defs><style>.cls-1{fill:#294dff;}</style></defs><title>user134_circuit</title><path class="cls-1" d="M182.41,158l-6.44-.1H148.81v0H137.46v5.51l-6.89-.07-6.42-13.79-31.87-.24,0,5.11H91v11.24l-2.24,0H79.69l-5.45-.23-0.79-43.55,11-24.89-5.48-34.6L99,40,67,0,27.29,35.74,16.67,45.4,16.59,55.62,0,86.31,21.2,97.76l19.44-36,0-5.68L64.14,35l3.33,4.15L53.36,54.93l6.16,38.89L49.27,117.07l1.28,74.74H74.33v2l6.31,0.14L91,194v12.28H103.4v-0.07h3.5v0.07h12.37v-0.07h8V194.58l4.18,0,3.07,1.5,3,0v7.28h17.22V195.9l5.2-.05v7.49h1.5v0H176l6.8,0ZM5.36,85.16L2.31,83.45,5.92,77l6-10.74L15,60.66l0,0,2.06-4.07,0.3-.6,0.08-10.23,12-10.89,0,0L32.63,32l9.14-8.23,4.83-4.35h0L52,14.52,66.89,1.14,81,18.72l4,5L98,40,84.14,55.46,82.05,57.8l-3.94,4.41L79,68.06h0l0.18,1.12,1.92,12.15,1,6.42h0l1.17,7.37,0.29,1.83-3,6.82-2,4.64-2,4.64-2,4.64-1.8,4.09v0.73l0.09,5.07,0.09,5.07,0.09,5.07L73,142.81l0.09,5.07L73.2,153,73.29,158l0.09,5.07,0.09,5.34h2.23l3.92,0.11h9.15l5.07-.1V157.27h1.31l0-5.08,27.21,0.21,6.42,13.78,11.54,0.12v-5.54h32.84v11.48H140.3V170.3l-14.11-.15-6.42-13.77-20.63-.16v1.05h1.39v15.5h-6.7v-0.71l-5,.1H83.86L78.81,172l-5.1,0-3.68,0L70,168.23l-0.09-5.07-0.09-5.07L69.71,153l-0.09-5.07-0.09-5.07-0.09-5.07-0.09-5.07-0.09-5.07-0.09-5.07,0-1.5,0.23-.53,1.88-4.26,2-4.64,2-4.64,2-4.64L80,96.48l-0.25-1.55-0.89-5.65h0l-0.69-4.35-0.22-1.38-0.8-5-1.29.81,0.7,4.44,0.22,1.38L77,86.64l-3.46.55-0.23-1.48L73.1,84.32l-0.56-3.56L72,77.61l4.51-2.84-1.06-6.72-0.22-1.38-0.67-4.25h0l-0.21-1.3,5-5.65,2.09-2.34,11.88-13.3L82.27,25.91l-3.89-4.85L66.48,6.21,53.63,17.78l-4,3.57v0L46.41,24.3l-1,.94-3.79,3.41L43,29.29l3.34-3,1-.94,1.11-1,2.34,2.6-1.11,1-1,.94L46,31.29,43.6,33.43l-4.84-2.24-5.05,4.55-1,.94-3.2,2.88h0L20.93,47.3l-0.08,9.52-0.67,1.33-1.63,3.21,0.08,0-2.15,3.84L15.8,66.48l-2.49,4.45,1.51,0.16L17,67.16l0.68-1.22,0.73-1.31,3.05,1.71-0.73,1.31-0.68,1.22L18.32,72,16.76,74.8l-5.3-.56L8.14,80.18,7.46,81.4Zm132.1,87.95v2l35.67,0.65L172.75,187l-35.28-.64h-0.79l-3-1.46-13.6-.11-2.37,0v-9.28h1.55V162l5.11,11ZM83.82,186l-3.44.09H78.72l-5.1,0-17.45-.12-0.3-17.45-0.09-5.07-0.09-5.07-0.09-5.07-0.09-5.07-0.09-5.07L55.34,138,55.25,133l-0.09-5.07-0.09-5.07L55,118.22l1.18-2.67,2.18-5,2-4.64,2-4.64,2-4.64,0.92-2.09-0.06-.4-0.43-2.7h0l-0.5-3.16-1-6.12,3.46-.55,1,6.12L68.22,90h0l0.7,4.42L69,95.06l-1.34,3-2,4.64-2,4.64-2,4.64-2.11,4.78-0.94,2.14,0.07,3.83,0.09,5.07,0.09,5.07L58.85,138,58.93,143,59,148.12l0.09,5.07,0.09,5.07,0.09,5.07,0.09,5.07,0.24,14,14,0.1,5.1,0,5.12-.17,27.42-.7v-8.94h-1.55V159.34h6.7v13.42h-1.55v12.45l-31,.79h0ZM74.76,94.67l-0.89-5.61,3.45-.55,1,6.34,0.23,1.43-2.43,5.51-2,4.64-2,4.64-2,4.64-1.91,4.33-0.33.74,0,1.81,0.09,5.07L68,132.75,68,137.82l0.09,5.07L68.22,148,68.31,153l0.09,5.07,0.09,5.07,0.09,5.07,0.09,5,5,0h0.57v3.5h-0.6l-8.46-.06-0.15-8.46L65,163.24l-0.09-5.07-0.09-5.07L64.72,148,64.64,143l-0.09-5.07-0.09-5.07-0.09-5.07-0.09-5.07,0-2.58,0.56-1.27,2-4.5,2-4.64,2-4.64,2-4.64,2-4.57Zm-2.84,5.27-2,4.64-2,4.64-2,4.64-2,4.55-0.63,1.44,0,2.82,0.09,5.07,0.09,5.07,0.09,5.07L63.53,143,63.62,148l0.09,5.07,0.09,5.07,0.09,5.07L64,168.33l0.16,9.54,9.54,0.07,5.1,0,5.09,0v0h0l13.54-2.85,5.91,0v-2.37h-1.55V159.3h6.7v13.42h-1.55v5.95l-9.3.07-13.79,2.77-5.1,0-5.1,0-13-.09-0.22-13-0.09-5.07-0.09-5.07-0.09-5.07-0.09-5.07L60,143,59.94,138l-0.09-5.07-0.09-5.07-0.09-5.07-0.06-3.59,0.87-2,2.08-4.73,2-4.64,2-4.64,2-4.64,1.46-3.32L70,94.43l-0.58-3.66h0L69,87.61l-1-6.12,3.46-.55,1,6.12,0.34,2.17h0l0.85,5.38,0.17,1.06Zm-19-73.47,3.44-3.09,9.39-8.45,8.15,10.17,3.67,4.57,8,10-8.5,9.51L75,51.47,68,59.25l1.63,10.3h0l0.46,2.9L66.65,73l-1-6-0.48-3.06h0L64.3,58.15l8.05-9,2.09-2.34L81,39.5l-6.12-7.64-3.54-4.41-6-7.43L58,26.65l-2,1.76h0l-2.38,2.14-4.61,4.15-2.34-2.6L51.32,28,53,26.48h0Zm6.47,30.24,9.51-10.64L71,43.73l3.93-4.4-3.69-4.6-3.37-4.2L64.81,26.7,60.1,30.94l-1,.89h0L56.74,34l-4.61,4.15-2.34-2.6,4.61-4.15L56,29.9h0l2.47-2.22,6.74-6.07,5.27,6.58L74,32.54l5.54,6.92-5.9,6.61-2.09,2.34-8.4,9.4,2,12.45h0l0.46,2.9-3.46.55-1-6-0.48-3.06h0ZM23.48,64.94l2.06-4.07,1.31-2.58L26.92,50l8.9-8.1,0,0,4.49-4,2.34,2.6-4.53,4.08-2.3,2.07h0l-5.41,4.92-0.06,7.6-1.68,3.32L26.86,66l0.06,0-1.56,2.79-3,5.41-3.05-1.71,3-5.41L23.52,65Zm7.46,3.36-1.56,2.79-3,5.41L23.3,74.79l3-5.41L27.63,67l-0.05,0,2.06-4.07,1.8-3.55L31.5,52l7.41-6.75,0,0,4.47-4,2.34,2.6L41.21,48,38.9,50h0L35,53.59l-0.05,6.67-2.17,4.28-1.89,3.73ZM10.6,88.08l1.51-2.71,3-5.32,3.06,1.71-3,5.32-1.51,2.71Zm4,2.24,1.51-2.71,3-5.32L22.16,84l-3,5.32L17.67,92Zm85.95,113.12h-6.7v-10.2h6.7v10.2Zm7.81-.07h-6.7v-10.2h6.7v10.2Zm8.06,0.07h-6.7v-10.2h6.7v10.2Zm56.7-10.58v7.66h-8.91V193l-12.37.13v7.44H140.3v-7.31l-5.17.05-3-1.48-8.93-.07v1.47h1.25v10.2h-6.7v-10.2h1.85v-1.85l-35.69-.2L78.68,191l-5.1,0-22.26-.15-0.38-22.25-0.09-5.07-0.09-5.07-0.09-5.07-0.09-5.07-0.09-5.07-0.09-5.07L50.33,133,50.25,128l-0.09-5.07-0.1-5.68,1.51-3.42,2.29-5.2,2-4.64,2-4.64,2-4.64,0.34-.76-0.42-2.65h0l-0.75-4.74-2.37-15h0l-2.6-16.4L65.25,42.79l2.09-2.34,1.15-1.29-1.08-1.35-3.18-4-1.88,1.69-0.69.62h0l-3.57,3.21L46.79,49.53,45.3,50.87l-0.72.65h0L39.9,55.78l0,5.67-2.69,5.31-2,3.9,0,0-2.83,5.06L25,89l-1,1.75-2,3.67-3.05-1.71,2-3.58,1.9-3.4,1.27-2.27,1-1.83-3.93-2.2-6.69-.53-0.34.61-1.71,3.06-0.68,1.22L11,85.1,7.95,83.39l0.73-1.31,0.68-1.22,3.12-5.59L22.17,76l4.63,2.59,0.15-.26,0.63-1.13L30,72.82l2-3.56,0,0L34,65.17l2.32-4.57,0.05-6.38,5.83-5.3h0l0.66-.59,2.9-2.61L47.72,44l1.56-1.41-3-3.34-6.16-2.66L39.59,37,37,39.38l-1,.94-1.11,1,0,0-9,8.18L25.75,58l-1.19,2.35-2.06,4.07-3.12-1.58,2.06-4.07,0.82-1.62,0.08-9.24,10.39-9.45,0,0,0.86-.78,1-.94L39.4,32.5l8.94,3.8,3.55,3.94L52.1,40l1-.87,3.72-3.35,2.53-2.28h0l1.43-1.29,3.91-3.52,2.2,2.75,3.31,4.13,2.95,3.67L70,42.8l-2.09,2.34L57.93,56.28,60.27,71h0l0.27,1.72,0.41,2.57,0.33,2.07,4.44-.7L71.3,73l-0.11-.69-0.55-3.46-0.22-1.38L70.19,66h0l-1-6.36,6.6-7.38,2.09-2.34L87,39.66,78.44,29l-3.71-4.62-8.84-11-10,9-3.67,3.3-2.34-2.6,4.41-4,12-10.84L77.33,22l3.84,4.78,10.41,13L80.49,52.2,78.4,54.54l-5.49,6.15,1.29,8.14h0l0.91,5.77L67,80l-5.23.83,0,0.3,0.2,1.28,0.78,4.94,0.53,3.36h0l0.54,3.39,0,0.29-0.75,1.71-2,4.64-2,4.64-2,4.64-2.21,5-1.27,2.88,0.08,4.91,0.09,5.07L53.85,133l0.09,5.07L54,143.13l0.09,5.07,0.09,5.07,0.09,5.07,0.09,5.07,0.09,5.07,0.32,18.82,18.82,0.13,5.09,0,2,0,3.11,0h0.05l36.2,0.21v0l13,0.1,3,1.47,4.27,0V189h11.55v0l21.36-.22,0,4h-0.12Z"/></svg>