<?xml version="1.0" encoding="utf-8"?>
<!-- Generator: Adobe Illustrator 19.2.1, SVG Export Plug-In . SVG Version: 6.00 Build 0)  -->
<svg version="1.1" id="Layer_1" xmlns="http://www.w3.org/2000/svg" xmlns:xlink="http://www.w3.org/1999/xlink" x="0px" y="0px"
	 viewBox="0 0 1242 659" style="enable-background:new 0 0 1242 659;" xml:space="preserve">
<style type="text/css">
	.st0{fill:#231F20;}
	.st1{fill:#193CE6;stroke:#000000;stroke-miterlimit:10;}
	.st2{fill:#E61919;stroke:#000000;stroke-miterlimit:10;}
	.st3{fill:#E5E619;stroke:#000000;stroke-miterlimit:10;}
	.st4{fill:#294DFF;}
	.st5{fill:#FFE313;}
	.st6{fill:none;stroke:#D6E50E;stroke-width:4;stroke-miterlimit:10;}
	.st7{fill:#456816;}
	.st8{opacity:0.5;fill:#FFFFFF;stroke:#000000;stroke-width:2;stroke-miterlimit:10;enable-background:new    ;}
	.st9{fill:none;stroke:#000000;stroke-miterlimit:10;stroke-dasharray:2,1;}
</style>
<rect id="BASE:_Base_path" x="483.6" y="149.7" class="st0" width="277.3" height="275.8"/>
<polygon id="NLED:_x5F__x7B__x22_colorID_x22_:_x5B_0.09804_x2C_0.23529_x2C_0.90196_x5D__x2C__x22_target_x22_:3_x2C__x22_forceTarget_x22_:9_x7D_" class="st1" points="
	616,259.4 616,245.3 630.2,245.3 630.2,259.4 "/>
<polygon id="NLED:_x5F__x7B__x22_colorID_x22_:_x5B_0.90196_x2C_0.09804_x2C_0.09804_x5D__x2C__x22_target_x22_:3_x2C__x22_forceTarget_x22_:10_x7D_" class="st2" points="
	590,300.3 590,286.1 604.2,286.1 604.2,300.3 "/>
<polygon id="NLED:_x5F__x7B__x22_colorID_x22_:_x5B_0.89804_x2C_0.90196_x2C_0.09804_x5D__x2C__x22_target_x22_:3_x2C__x22_forceTarget_x22_:8_x7D_" class="st3" points="
	640.3,300.3 640.3,286.1 654.5,286.1 654.5,300.3 "/>
<rect id="MC:_Microcontroller" x="689.4" y="346.9" transform="matrix(3.882742e-11 1 -1 3.882742e-11 1107.7919 -314.3079)" class="st4" width="43.4" height="99.7"/>
<polygon id="BI:_Breakin_1_" class="st5" points="672.3,405.7 672.3,403.5 672.3,402 672.3,397.5 672.3,396 672.3,391.5 
	672.3,385.5 661.2,385.5 661.2,389.6 661.2,391.5 661.2,396 661.2,397.5 661.2,402 661.2,403.5 661.2,405.7 661.2,408 672.3,408 "/>
<path id="CP:_Paht" class="st6" d="M672.3,402c0,0-44.6,7.5-52.1-8.4c-12.7-26.5,51.2-69.5,35.5-117.1c-8.3-25.1-36.6-45.2-50.9-39
	c-13.2,5.7-17.4,35.5-7.7,73.2"/>
<circle id="NUT:_nut" class="st7" cx="502.6" cy="169.2" r="7.9"/>
<circle id="NUT:_nut_1_" class="st7" cx="740.5" cy="169.2" r="7.9"/>
<circle id="NUT:_nut_2_" class="st7" cx="502.6" cy="408" r="7.9"/>
<path id="DIF:_splitting" class="st8" d="M650.1,269.4c-7.4,3.9-13.6,9.8-17.8,17c0,0,0,0-0.1,0c0,0,0,0.1,0,0.1
	c-3.9,6.7-6.1,14.4-6.1,22.7c0,0.3,0,0.7,0,1c-1.5,0.1-3.1,0.1-4.6,0.1c-1.6,0-3.1,0-4.6-0.1c0-0.3,0-0.7,0-1
	c0-17.5-10-32.8-24.7-40.2c1.6-3.2,3.3-6.3,5.4-9.2c6.9,4.3,15,6.8,23.6,6.8h0.1c8.6,0,16.6-2.4,23.5-6.6
	C646.9,262.9,648.6,266.1,650.1,269.4z"/>
<path id="DDS:_VennOuter" class="st9" d="M692.5,238.9c-0.3-38.9-31.9-70.4-70.9-70.4c-38.5,0-69.9,30.7-70.9,69
	c-21.4,12.2-35.8,35.2-35.8,61.6c0,39.2,31.7,70.9,70.9,70.9c12.6,0,24.4-3.3,34.6-9c10.5,6.2,22.8,9.7,35.8,9.7
	c39.2,0,70.9-31.7,70.9-70.9C727.1,273.9,713.2,251.2,692.5,238.9z"/>
</svg>
