<?xml version="1.0" encoding="utf-8"?>
<!-- Generator: Adobe Illustrator 19.2.1, SVG Export Plug-In . SVG Version: 6.00 Build 0)  -->
<svg version="1.1" id="ELD:_BCNM_Logo" xmlns="http://www.w3.org/2000/svg" xmlns:xlink="http://www.w3.org/1999/xlink" x="0px"
	 y="0px" viewBox="0 0 189.1 186" style="enable-background:new 0 0 189.1 186;" xml:space="preserve">
<style type="text/css">
	.st0{fill:url(#DIF:_Diffuser_3_);}
	.st1{fill:url(#DIF:_Diffuser_4_);}
	.st2{fill:url(#DIF:_Diffuser_5_);}
	.st3{fill:#FFFFFF;stroke:#231F20;stroke-miterlimit:10;}
	.st4{fill:none;stroke:#FFFF00;stroke-width:3;stroke-miterlimit:10;}
	.st5{fill:#ED08FF;stroke:#231F20;stroke-miterlimit:10;}
	.st6{fill:#00AEEF;}
</style>
<linearGradient id="DIF:_Diffuser_3_" gradientUnits="userSpaceOnUse" x1="121.6865" y1="92.3004" x2="173.3193" y2="122.4584" gradientTransform="matrix(1 0 0 -1 0 192.8)">
	<stop  offset="0" style="stop-color:#BCDD35"/>
	<stop  offset="1" style="stop-color:#92A943"/>
</linearGradient>
<path id="DIF:_Diffuser_2_" class="st0" d="M83.5,71.5c0,0,5.7-23.7,9-33.7C101.1,11.2,112.7,0,112.7,0s39,25.7,59.6,65.2
	C195.2,109,188,167.5,188,167.5s-35.2-35.6-55.8-55.5C123.4,103.5,83.5,71.5,83.5,71.5z"/>
<linearGradient id="DIF:_Diffuser_4_" gradientUnits="userSpaceOnUse" x1="108.6234" y1="105.443" x2="85.4709" y2="6.1272" gradientTransform="matrix(1 0 0 -1 0 192.8)">
	<stop  offset="0" style="stop-color:#7A9744"/>
	<stop  offset="0.786" style="stop-color:#414A35"/>
</linearGradient>
<path id="DIF:_Diffuser_1_" class="st1" d="M80.5,75.3c0,0-43.1,24.4-58.4,36.7C8.6,122.9,0,138.6,0,138.6s34.6,32.5,78.3,42.5
	c15.7,3.6,39.3,6.4,60.3,4c25.1-2.8,46.5-11.2,46.5-11.2s-31.5-35.2-52.5-55.5C120.4,106.7,80.5,75.3,80.5,75.3z"/>
<linearGradient id="DIF:_Diffuser_5_" gradientUnits="userSpaceOnUse" x1="28.4293" y1="136.4418" x2="76.6437" y2="116.7687" gradientTransform="matrix(1 0 0 -1 0 192.8)">
	<stop  offset="0" style="stop-color:#556335"/>
	<stop  offset="1" style="stop-color:#7B8F44"/>
</linearGradient>
<path id="DIF:_Diffuser" class="st2" d="M0.6,126.3c-0.2,0.3-0.7,0-0.6-0.3c4.7-10.3,23.7-51.1,37.7-68.7
	c20-25.2,57.7-48.9,63.7-52.6c0.2-0.1,0.5,0.1,0.4,0.3c-2.2,4.1-11.7,22.6-15.9,35.9c-3.4,10.9-6.6,27.8-6.9,29.3
	c0,0.1-0.1,0.1-0.1,0.2c-1.8,1-28.1,14.8-40.4,22.4c-4.5,2.8-14.9,9.9-23.1,17.6C8.7,116.6,3.2,123.1,0.6,126.3z"/>
<rect id="NLED:_APA102C_2_" x="114.8" y="58.8" transform="matrix(0.9418 -0.3361 0.3361 0.9418 -15.0588 44.8086)" class="st3" width="14.2" height="14.2"/>
<rect id="NLED:_APA102C" x="48.5" y="55.2" transform="matrix(0.9698 -0.2441 0.2441 0.9698 -13.5227 15.4588)" class="st3" width="14.2" height="14.2"/>
<rect id="NLED:_APA102C_1_" x="72.7" y="126" transform="matrix(0.9944 -0.1055 0.1055 0.9944 -13.5973 9.1633)" class="st3" width="14.2" height="14.2"/>
<polyline id="CP:_CircuitPath" class="st4" points="100.5,164.3 91,158.8 82,153.8 80.9,142.8 78.8,123.4 77.7,112.5 129.7,85.2 
	125.6,75 118.3,56.9 114.2,46.7 75.7,57 54.1,62.7 "/>
<rect id="BI:_Breakin" x="97.8" y="159.3" transform="matrix(0.5 -0.866 0.866 0.5 -92.1763 177.042)" class="st5" width="18.8" height="18"/>
<polygon id="MC:_ATTiny" class="st6" points="91.2,2.8 32,2.8 32,18.1 0,18.1 0,52.1 51,52.1 51,38.8 91.2,38.8 "/>
</svg>
