<?xml version="1.0" encoding="utf-8"?>
<!-- Generator: Adobe Illustrator 19.2.1, SVG Export Plug-In . SVG Version: 6.00 Build 0)  -->
<svg version="1.1" id="ELD:_BCNM_Logo" xmlns="http://www.w3.org/2000/svg" xmlns:xlink="http://www.w3.org/1999/xlink" x="0px"
	 y="0px" viewBox="0 0 214 207" style="enable-background:new 0 0 214 207;" xml:space="preserve">
<style type="text/css">
	.st0{fill:url(#DIF:_Diffuser_3_);}
	.st1{fill:url(#DIF:_Diffuser_4_);}
	.st2{fill:url(#DIF:_Diffuser_5_);}
	.st3{fill:#FFFFFF;stroke:#231F20;stroke-miterlimit:10;}
	.st4{fill:none;stroke:#FFFF00;stroke-width:3;stroke-miterlimit:10;}
	.st5{fill:#ED08FF;stroke:#231F20;stroke-miterlimit:10;}
</style>
<linearGradient id="DIF:_Diffuser_3_" gradientUnits="userSpaceOnUse" x1="133.2189" y1="108.0062" x2="184.8517" y2="77.8482">
	<stop  offset="0" style="stop-color:#BCDD35"/>
	<stop  offset="1" style="stop-color:#92A943"/>
</linearGradient>
<path id="DIF:_Diffuser_2_" class="st0" d="M95.1,79.1c0,0,5.7-23.7,9-33.7c8.6-26.6,20.2-37.8,20.2-37.8s39,25.7,59.6,65.2
	c22.9,43.8,15.7,102.3,15.7,102.3s-35.2-35.6-55.8-55.5C135,111.1,95.1,79.1,95.1,79.1z"/>
<linearGradient id="DIF:_Diffuser_4_" gradientUnits="userSpaceOnUse" x1="120.1029" y1="94.932" x2="96.9504" y2="194.2478">
	<stop  offset="0" style="stop-color:#7A9744"/>
	<stop  offset="0.786" style="stop-color:#414A35"/>
</linearGradient>
<path id="DIF:_Diffuser_1_" class="st1" d="M92.1,82.9c0,0-43.1,24.4-58.4,36.7c-13.5,10.9-22.1,26.6-22.1,26.6s34.6,32.5,78.3,42.5
	c15.7,3.6,39.3,6.4,60.3,4c25.1-2.8,46.5-11.2,46.5-11.2s-31.5-35.2-52.5-55.5C132,114.3,92.1,82.9,92.1,82.9z"/>
<linearGradient id="DIF:_Diffuser_5_" gradientUnits="userSpaceOnUse" x1="40.0494" y1="63.9604" x2="88.2189" y2="83.6152">
	<stop  offset="0" style="stop-color:#556335"/>
	<stop  offset="1" style="stop-color:#7B8F44"/>
</linearGradient>
<path id="DIF:_Diffuser" class="st2" d="M12.2,133.9c-0.2,0.3-0.7,0-0.6-0.3c4.7-10.3,23.7-51.1,37.7-68.7
	C69.3,39.7,107,16,113,12.3c0.2-0.1,0.5,0.1,0.4,0.3c-2.2,4.1-11.7,22.6-15.9,35.9c-3.4,10.9-6.6,27.8-6.9,29.3
	c0,0.1-0.1,0.1-0.1,0.2c-1.8,1-28.1,14.8-40.4,22.4c-4.5,2.8-14.9,9.9-23.1,17.6C20.3,124.2,14.8,130.7,12.2,133.9z"/>
<rect id="NLED:_APA102C_2_" x="126.4" y="66.4" transform="matrix(0.9418 -0.3361 0.3361 0.9418 -16.9382 49.1516)" class="st3" width="14.2" height="14.2"/>
<rect id="NLED:_APA102C" x="60.1" y="62.8" transform="matrix(0.9698 -0.2441 0.2441 0.9698 -15.0325 18.5068)" class="st3" width="14.2" height="14.2"/>
<rect id="NLED:_APA102C_1_" x="84.3" y="133.6" transform="matrix(0.9944 -0.1055 0.1055 0.9944 -14.3321 10.4348)" class="st3" width="14.2" height="14.2"/>
<polyline id="CP:_CircuitPath" class="st4" points="112.1,171.9 102.6,166.4 93.6,161.4 92.5,150.4 90.4,131 89.3,120.1 141.3,92.8 
	137.2,82.6 129.9,64.5 125.8,54.3 87.3,64.6 65.7,70.3 "/>
<rect id="BI:_Breakin" x="109.4" y="166.9" transform="matrix(0.5 -0.866 0.866 0.5 -92.9055 190.88)" class="st5" width="18.8" height="18"/>
</svg>
