<?xml version="1.0" encoding="utf-8"?>
<!-- Generator: Adobe Illustrator 19.2.1, SVG Export Plug-In . SVG Version: 6.00 Build 0)  -->
<svg version="1.1" id="Layer_1" xmlns="http://www.w3.org/2000/svg" xmlns:xlink="http://www.w3.org/1999/xlink" x="0px" y="0px"
	 viewBox="0 0 360 360" style="enable-background:new 0 0 360 360;" xml:space="preserve">
<style type="text/css">
	.st0{fill:none;stroke:#231F20;stroke-width:2;stroke-miterlimit:10;}
</style>
<path id="DDS:_center" class="st0" d="M212.7,201.1c-3.8,11.6-10.7,22.1-20,30.5c-4,0.7-8,1-12.2,1c-7.7,0-15-1.2-22-3.5
	c-3.1-4-5.8-8.5-8.1-13.2c-1.7-3.6-3.1-7.3-4.1-11.1c3.1-12.4,9.4-23.4,18.1-32.2c11.9-1.8,24-0.4,35,3.7
	C205.4,183.5,210,191.9,212.7,201.1z"/>
<path id="DIF:_petal" class="st0" d="M286,222.1c0,2.5-0.1,4.9-0.4,7.2c0,0.3-0.1,0.6-0.1,0.9c-4,31.2-28.2,56.1-59.1,61
	c10.7-11.4,17.3-26.1,18.8-41.5c1.2-12.3-0.8-25.1-6.4-37.1c-1-2.1-2.1-4.2-3.3-6.2c-5.1-8.6-11.8-15.7-19.5-21.3
	c-5.1-3.7-10.7-6.6-16.6-8.8c-11-4.1-23.1-5.5-35-3.7c4.7-4.9,10.2-9,16.1-12.4c9-5.1,19.3-8.2,30.3-8.9c1.4-0.1,2.9-0.1,4.3-0.1
	c13.3,0,25.7,3.6,36.3,10c15.4,9.2,27.1,24.1,32,41.8C285.1,209.1,286,215.5,286,222.1z"/>
<path id="DDS:_petal_2" class="st0" d="M283.6,202.3c0,0.2-0.1,0.4-0.2,0.7c-4.9-17.7-16.6-32.6-32-41.8c-10.6-6.3-23-10-36.3-10
	c-1.5,0-2.9,0-4.3,0.1c-10.9,0.7-21.2,3.8-30.3,8.9c-6,3.3-11.4,7.5-16.1,12.4c-8.6,8.8-15,19.9-18.1,32.2c-2.4-8.6-3.1-17.4-2.3-26
	c1-9.8,4-19.3,8.8-27.8c7-12.4,17.8-22.9,31.7-29.4c0.6-0.3,1.2-0.5,1.8-0.8c16.5-7.2,34.4-7.6,50.3-2.4c0.3,0.1,0.7,0.2,1,0.3
	c17.5,6,32.7,18.8,41.2,36.9C286,170.8,287.3,187.2,283.6,202.3z"/>
<path id="DIF:_petal_3" class="st0" d="M236.6,118.3c-16-5.2-33.8-4.8-50.3,2.4c-0.6,0.3-1.2,0.5-1.8,0.8
	c-13.9,6.5-24.7,17-31.7,29.4c-4.8,8.5-7.8,18-8.8,27.8c-0.8,8.6-0.1,17.4,2.3,26c1,3.7,2.4,7.5,4.1,11.1c2.2,4.8,5,9.2,8.1,13.2
	c-5.1-1.6-9.9-3.8-14.3-6.5c-10.1-6-18.6-14.5-24.6-24.6c-6.4-10.6-10-23.1-10-36.3c0-0.6,0-1.3,0-1.9c0-0.3,0-0.6,0-0.8
	c0,0,0,0,0,0c0-1.2,0.1-2.3,0.2-3.5c0-0.3,0-0.6,0.1-0.9c1.8-18.1,10.5-34.2,23.3-45.6c12.5-11.2,29.1-18,47.2-18
	C203.4,90.8,223.7,101.6,236.6,118.3z"/>
<path id="DDS:_petal_4" class="st0" d="M192.7,231.6c-5,4.5-10.8,8.3-17.2,11.3c-0.6,0.3-1.2,0.5-1.8,0.8c-7.8,3.4-16,5.3-24.1,5.8
	c-16.3,1-32.5-3.7-45.6-13.2c-9.5-6.8-17.5-16.1-22.8-27.5c-1.5-3.2-2.8-6.5-3.8-9.9c0-0.1-0.1-0.2-0.1-0.3
	c-9.7-33,5.8-69,37.9-84.1c5.5-2.6,11.2-4.4,17-5.5c-12.4,11.6-20.6,27.5-22.2,45.4c0,0.3-0.1,0.6-0.1,0.9c-0.1,1.2-0.2,2.4-0.2,3.5
	c0,0.3,0,0.6,0,0.8c0,0.6,0,1.3,0,1.9c0,13.3,3.6,25.7,10,36.3c6,10.1,14.5,18.5,24.6,24.6c4.5,2.7,9.3,4.9,14.3,6.5
	c6.9,2.3,14.3,3.5,22,3.5C184.7,232.6,188.8,232.3,192.7,231.6z"/>
<path id="DIF:_petal_5" class="st0" d="M215.7,221.4c0,0.6,0,1.3,0,1.9c-0.3,11.9-3.6,23.1-9.1,32.9c-6.2,11.1-15.4,20.3-26.4,26.6
	c-0.2-0.1-0.5-0.3-0.7-0.4c-0.3,0.2-0.6,0.3-0.9,0.5c-10,5.4-21.5,8.5-33.8,8.5c-9.1,0-17.9-1.7-25.9-4.9c-26.4-10.3-45-36-45-66
	c0-2.3,0.1-4.6,0.3-6.9c0.5-5.1,1.6-10,3.2-14.7c1,3.3,2.2,6.6,3.8,9.9c5.3,11.4,13.3,20.7,22.8,27.5c13.2,9.4,29.3,14.2,45.6,13.2
	c8.1-0.5,16.2-2.4,24.1-5.8c0.6-0.3,1.2-0.5,1.8-0.8c6.4-3,12.1-6.8,17.2-11.3c9.3-8.3,16.1-18.9,20-30.5
	C214.6,207.5,215.7,214.4,215.7,221.4z"/>
<path id="DDS:_petal_6" class="st0" d="M245.3,249.7c-1.5,15.4-8.1,30.1-18.8,41.5c-0.3,0.4-0.7,0.7-1,1
	c-5.8,5.9-12.7,10.9-20.6,14.6c-29.9,14.1-64.7,5.4-84.8-19c7.7,2.9,16,4.4,24.7,4.4c12.6,0,24.4-3.3,34.6-9
	c0.3-0.2,0.6-0.3,0.8-0.5c11-6.3,20.1-15.6,26.4-26.6c5.5-9.8,8.8-20.9,9.1-32.9c0-0.6,0-1.3,0-1.9c0-7.1-1-13.9-3-20.3
	c-2.7-9.2-7.3-17.6-13.2-24.8c5.9,2.2,11.5,5.2,16.6,8.8c7.7,5.5,14.4,12.7,19.5,21.3c1.2,2,2.3,4.1,3.3,6.2
	C244.5,224.6,246.5,237.4,245.3,249.7z"/>
</svg>
