<svg x="0" y="0" width="1600" height="736" version="1.1" xmlns="http://www.w3.org/2000/svg" xmlns:xlink="http://www.w3.org/1999/xlink"><g transform=""><g fill="none" stroke="none" stroke-width="1" stroke-linecap="butt" stroke-linejoin="miter" stroke-miterlimit="none" stroke-dasharray="" stroke-dashoffset="0" font-family="none" font-weight="normal" font-size="none" text-anchor="start" mix-blend-mode="normal"><g id="ELD:_Number_5"><path d="M676.25,451.05l12,-89.7c30.2,17.5 57.2,26.2 81.1,26.2c15.5,0 28.1,-3.9 37.7,-11.8c9.8,-7.8 14.7,-18 14.7,-30.6c0,-13.4 -5.3,-23.8 -15.9,-31.2c-10.6,-7.4 -25.6,-11.1 -44.8,-11.1c-21.1,0 -43.2,4.4 -66.4,13.2l29.4,-220.5l188.2,0l0,88.9l-107.9,0l-8.1,42.4c7,-0.5 12.7,-0.7 17.1,-0.7c31,0 57.2,11.3 78.6,33.8c21.2,22.2 31.8,50 31.8,83.3c0,39.2 -13.7,71.9 -41.2,98c-27.1,26.1 -61.3,39.2 -102.7,39.2c-35,0 -69.6,-9.8 -103.6,-29.4z" id="DIF:_Number_5" fill="#dfdfdf" stroke="#000000" stroke-miterlimit="4" font-family="&quot;Helvetica Neue&quot;, Helvetica, Arial, sans-serif" font-size="14"/><polygon points="815.70352,422.35504 815.70352,408.18181 829.87675,408.18181 829.87675,422.35504" id="NLED: APA102C" fill="#ff1c1c" stroke="#ff1c1c" stroke-miterlimit="10" font-family="sans-serif" font-size="12"/></g></g></g></svg>