<?xml version="1.0" encoding="utf-8"?>
<!-- Generator: Adobe Illustrator 19.2.1, SVG Export Plug-In . SVG Version: 6.00 Build 0)  -->
<svg version="1.1" id="Layer_1" xmlns="http://www.w3.org/2000/svg" xmlns:xlink="http://www.w3.org/1999/xlink" x="0px" y="0px"
	 viewBox="0 0 182 177.8" style="enable-background:new 0 0 182 177.8;" xml:space="preserve">
<style type="text/css">
	.st0{fill:#FFE313;}
	.st1{opacity:0.5;fill:#005D7A;enable-background:new    ;}
	.st2{fill:#ED1C24;}
	.st3{fill:#FFFFFF;}
	.st4{font-family:'MyriadPro-Regular';}
	.st5{font-size:3.2603px;}
	.st6{enable-background:new    ;}
</style>
<rect id="LS:_Light_Source_2_" x="33.2" y="38.2" class="st0" width="14.2" height="1.2"/>
<path id="LENS:_1.44_1_" class="st1" d="M63,5.7L19.1,5.8l-1.7,0.1v3.3l4.7,11.5l4.3,7.5c0,0,3.6,6,4.5,5.9c0.8-0.1,1.6,0,1.6,0
	l1.8-10.8c0,0,2.4-2,6-1.9c3.7,0.1,5.8,2,5.8,2L48.3,34h2c0,0,10.5-15.7,12.9-24.9L63,5.7z"/>
<path id="REF:_0.90" class="st2" d="M105.8,36.3c-0.4,0.3-0.2,2.6-0.2,2.6H89.1L89,36.5c-4.5-1-11.2-22.7-10.9-25.8H74l-0.4,28.8h48
	V10.9l-5.9,0.1c0,0-1,7.6-2.4,11.4C111.1,28.3,108.1,34.1,105.8,36.3z"/>
<polygon id="LS:_Light_Source_1_" class="st0" points="90.4,39.4 104.6,39.4 104.5,38.2 90.3,38.2 "/>
<polygon id="LS:_Light_Source_3_" class="st0" points="137.8,126.4 152,126.4 151.9,125.2 137.7,125.2 "/>
<polygon id="LS:_Light_Source_4_" class="st0" points="148,36.1 162.2,36.1 162.1,34.9 147.9,34.9 "/>
<polygon id="LS:_Light_Source_5_" class="st0" points="192,36.1 206.2,36.1 206.1,34.9 191.9,34.9 "/>
<polygon id="LS:_Light_Source_6_" class="st0" points="250.2,36.1 264.4,36.1 264.3,34.9 250.1,34.9 "/>
<text transform="matrix(1 0 0 1 31.9761 49.1302)" class="st3 st4 st5">TIR Reflector</text>
<text transform="matrix(1 0 0 1 86.852 49.1299)" class="st3 st4 st5">Parabolic Reflector</text>
<text transform="matrix(1 0 0 1 135.8952 136.1728)" class="st3 st4 st5">Side Emmiter</text>
<text transform="matrix(1 0 0 1 151.0808 45.1101)" class="st3 st4 st5">PMMA</text>
<text transform="matrix(1 0 0 1 191.4186 45.1101)" class="st3 st4 st5">SureFire TIR</text>
<text transform="matrix(1 0 0 1 250.1295 45.1101)" class="st3 st4 st5">Hybrid TIR</text>
<path id="LENS:_1.44_5_" class="st1" d="M135,102l9.6,9.2l9.5-9.2v10.3c0,0,11.6,3.7,11.6,14h-13.7l-0.1-13
	c-3.6,4.5-10.5,4.3-13.9,0.6l-0.3,13h-14.4c0-10,11.6-14.8,11.6-14.8L135,102z"/>
<path id="LENS:_1.44_4_" class="st1" d="M136.1,18.9h38c-3.1,11-9.6,16.9-9.6,16.9h-1.8v-7.8c-4.5,2.5-10.9,2.2-15.3,0.1v7.7h-1.7
	C145.8,35.9,140.3,31.7,136.1,18.9z"/>
<polygon id="LENS:_1.44_3_" class="st1" points="177.7,4.1 189.1,30.3 191.9,34.4 194.9,30 203.1,30 206.2,34.4 208.9,29.8 
	219.8,3.8 "/>
<path id="LENS:_1.44_2_" class="st1" d="M195.8,34.7h6.5c0,0,0-3.5-3.2-3.5C195.8,31.2,195.8,34.7,195.8,34.7z"/>
<path id="LENS:_1.44" class="st1" d="M257.3,3.5L257.3,3.5C257.3,3.5,257.3,3.5,257.3,3.5C257.3,3.5,257.3,3.5,257.3,3.5L257.3,3.5
	c-9.8,0-24.4,11.2-24.4,11.2c0.2,1.7,12.3,19.5,13.9,19.9c0,0,0.1-13.2,2.1-14.7c0,0,4.4,4.3,8.3,4.6v0c0,0,0,0,0,0c0,0,0,0,0,0v0
	c3.9-0.2,8.3-4.6,8.3-4.6c2.1,1.6,2.1,14.7,2.1,14.7c1.6-0.4,13.7-18.2,13.9-19.9C281.6,14.7,267.1,3.6,257.3,3.5z"/>
</svg>
