<?xml version="1.0" encoding="utf-8"?>
<!-- Generator: Adobe Illustrator 19.2.1, SVG Export Plug-In . SVG Version: 6.00 Build 0)  -->
<svg version="1.1" id="Layer_1" xmlns="http://www.w3.org/2000/svg" xmlns:xlink="http://www.w3.org/1999/xlink" x="0px" y="0px"
	 viewBox="0 0 80.9 49" style="enable-background:new 0 0 80.9 49;" xml:space="preserve">
<style type="text/css">
	.st0{fill:#FFE313;}
	.st1{fill:#FFFFFF;}
	.st2{font-family:'MyriadPro-Regular';}
	.st3{font-size:3.2603px;}
	.st4{opacity:0.5;fill:#005D7A;enable-background:new    ;}
	.st5{fill:#005D7A;}
</style>
<polygon id="LS:_Light_Source_7_" class="st0" points="34.8,33.6 49,33.6 49.1,32.2 34.9,32.2 "/>
<text transform="matrix(1 0 0 1 33.0527 42.5301)" class="st1 st2 st3">Side Emmiter</text>
<path id="LENS:_1.44_6_" class="st4" d="M31.7,16.3l10.3,11.8l10.7-11.8v17l-1.5,0l-0.3-5.8c0,0-5.1,4.4-8.8,4.5
	c-3.9,0.1-9-4.9-9-4.9l0,6.7h-1.8L31.7,16.3z"/>
<polygon id="REF:_0.90_4_" class="st5" points="69.9,19.5 63.1,26.3 69.9,26.3 "/>
<polygon id="REF:_0.90_1_" class="st5" points="76.7,12.8 69.9,26.3 76.7,26.3 "/>
<polygon id="REF:_0.90_5_" class="st5" points="63.1,22.9 59.7,26.3 63.1,26.3 "/>
</svg>
