<?xml version="1.0" encoding="utf-8"?>
<!-- Generator: Adobe Illustrator 19.2.1, SVG Export Plug-In . SVG Version: 6.00 Build 0)  -->
<svg version="1.1" id="Layer_1" xmlns="http://www.w3.org/2000/svg" xmlns:xlink="http://www.w3.org/1999/xlink" x="0px" y="0px"
	 viewBox="0 0 80.9 49" style="enable-background:new 0 0 80.9 49;" xml:space="preserve">
<style type="text/css">
	.st0{fill:#FFE313;}
	.st1{fill:#FFFFFF;}
	.st2{font-family:'MyriadPro-Regular';}
	.st3{font-size:3.2603px;}
	.st4{opacity:0.5;fill:#005D7A;enable-background:new    ;}
	.st5{fill:#005D7A;}
	.st6{fill:#ED1C24;}
	.st7{enable-background:new    ;}
</style>
<polygon id="LS:_Light_Source_7_" class="st0" points="34.8,33.6 49,33.6 49.1,32.2 34.9,32.2 "/>
<text transform="matrix(1 0 0 1 33.0527 42.5301)" class="st1 st2 st3">Side Emmiter</text>
<path id="LENS:_1.44_6_" class="st4" d="M31.7,16.3l10.3,11.8l10.7-11.8v17l-1.5,0l-0.3-5.8c0,0-5.1,4.4-8.8,4.5
	c-3.9,0.1-9-4.9-9-4.9l0,6.7h-1.8L31.7,16.3z"/>
<polygon id="REF:_0.90_4_" class="st5" points="69.9,19.5 63.1,26.3 69.9,26.3 "/>
<polygon id="REF:_0.90_1_" class="st5" points="76.7,12.8 69.9,26.3 76.7,26.3 "/>
<polygon id="REF:_0.90_5_" class="st5" points="63.1,22.9 59.7,26.3 63.1,26.3 "/>
<rect id="LS:_Light_Source_2_" x="-59.8" y="-1.8" class="st0" width="14.2" height="1.2"/>
<path id="LENS:_1.44_1_" class="st4" d="M-30-34.3l-43.9,0.1l-1.7,0.1v3.3l4.7,11.5l4.3,7.5c0,0,3.6,6,4.5,5.9c0.8-0.1,1.6,0,1.6,0
	l1.8-10.8c0,0,2.4-2,6-1.9c3.7,0.1,5.8,2,5.8,2L-44.7-6h2c0,0,10.5-15.7,12.9-24.9L-30-34.3z"/>
<path id="REF:_0.90" class="st6" d="M12.8-3.7c-0.4,0.3-0.2,2.6-0.2,2.6H-3.9L-4-3.5c-4.5-1-11.2-22.7-10.9-25.8H-19l-0.4,28.8h48
	v-28.6L22.7-29c0,0-1,7.6-2.4,11.4C18.1-11.7,15.1-5.9,12.8-3.7z"/>
<polygon id="LS:_Light_Source_1_" class="st0" points="-2.6,-0.6 11.6,-0.6 11.5,-1.8 -2.7,-1.8 "/>
<polygon id="LS:_Light_Source_3_" class="st0" points="44.8,86.4 59,86.4 58.9,85.2 44.7,85.2 "/>
<polygon id="LS:_Light_Source_4_" class="st0" points="55,-3.9 69.2,-3.9 69.1,-5.1 54.9,-5.1 "/>
<polygon id="LS:_Light_Source_5_" class="st0" points="99,-3.9 113.2,-3.9 113.1,-5.1 98.9,-5.1 "/>
<polygon id="LS:_Light_Source_6_" class="st0" points="157.2,-3.9 171.4,-3.9 171.3,-5.1 157.1,-5.1 "/>
<text transform="matrix(1 0 0 1 -61.0239 9.1302)" class="st1 st2 st3">TIR Reflector</text>
<text transform="matrix(1 0 0 1 -6.1481 9.1299)" class="st1 st2 st3">Parabolic Reflector</text>
<text transform="matrix(1 0 0 1 58.0807 5.1101)" class="st1 st2 st3">PMMA</text>
<text transform="matrix(1 0 0 1 98.4186 5.1101)" class="st1 st2 st3">SureFire TIR</text>
<text transform="matrix(1 0 0 1 157.1295 5.1101)" class="st1 st2 st3">Hybrid TIR</text>
<path id="LENS:_1.44_5_" class="st4" d="M42,62l9.6,9.2l9.5-9.2v10.3c0,0,11.6,3.7,11.6,14H58.9l-0.1-13c-3.6,4.5-10.5,4.3-13.9,0.6
	l-0.3,13H30.2c0-10,11.6-14.8,11.6-14.8L42,62z"/>
<path id="LENS:_1.44_4_" class="st4" d="M43.1-21.1h38C78-10,71.5-4.1,71.5-4.1h-1.8v-7.8c-4.5,2.5-10.9,2.2-15.3,0.1v7.7h-1.7
	C52.8-4.1,47.3-8.3,43.1-21.1z"/>
<polygon id="LENS:_1.44_3_" class="st4" points="84.7,-35.9 96.1,-9.7 98.9,-5.6 101.9,-10 110.1,-10 113.2,-5.6 115.9,-10.2 
	126.8,-36.2 "/>
<path id="LENS:_1.44_2_" class="st4" d="M102.8-5.3h6.5c0,0,0-3.5-3.2-3.5C102.8-8.8,102.8-5.3,102.8-5.3z"/>
<path id="LENS:_1.44" class="st4" d="M164.3-36.5L164.3-36.5C164.3-36.5,164.3-36.5,164.3-36.5C164.3-36.5,164.3-36.5,164.3-36.5
	L164.3-36.5c-9.8,0-24.4,11.2-24.4,11.2c0.2,1.7,12.3,19.5,13.9,19.9c0,0,0.1-13.2,2.1-14.7c0,0,4.4,4.3,8.3,4.6v0c0,0,0,0,0,0
	c0,0,0,0,0,0v0c3.9-0.2,8.3-4.6,8.3-4.6c2.1,1.6,2.1,14.7,2.1,14.7c1.6-0.4,13.7-18.2,13.9-19.9C188.6-25.3,174.1-36.4,164.3-36.5z"
	/>
</svg>
