<?xml version="1.0" encoding="utf-8"?>
<!-- Generator: Adobe Illustrator 19.2.1, SVG Export Plug-In . SVG Version: 6.00 Build 0)  -->
<svg version="1.1" id="Layer_1" xmlns="http://www.w3.org/2000/svg" xmlns:xlink="http://www.w3.org/1999/xlink" x="0px" y="0px"
	 viewBox="0 0 252 156.8" style="enable-background:new 0 0 252 156.8;" xml:space="preserve">
<style type="text/css">
	.st0{fill:#FFE313;}
	.st1{opacity:0.5;fill:#005D7A;enable-background:new    ;}
	.st2{fill:#ED1C24;}
	.st3{fill:#FFFFFF;}
	.st4{font-family:'MyriadPro-Regular';}
	.st5{font-size:3.2603px;}
</style>
<rect id="LS:_Light_Source_2_" x="67.9" y="106.1" class="st0" width="14.2" height="1.2"/>
<path id="LENS:_1.44_1_" class="st1" d="M97.7,78.4l-43.9,0.1l-1.7,0.1v3.3l4.7,11.5l4.3,7.5c0,0,3.6,6,4.5,5.9c0.8-0.1,1.6,0,1.6,0
	L69,96c0,0,2.4-2,6-1.9c3.7,0.1,5.8,2,5.8,2l2.2,10.6h2c0,0,10.5-15.7,12.9-24.9L97.7,78.4z"/>
<path id="REF:_0.90" class="st2" d="M140.5,104.2c-0.4,0.3-0.2,2.6-0.2,2.6h-16.5l-0.1-2.4c-4.5-1-11.2-22.7-10.9-25.8h-4.1
	l-0.4,28.8h48V78.8l-5.9,0.1c0,0-1,7.6-2.4,11.4C145.8,96.2,142.8,102,140.5,104.2z"/>
<polygon id="LS:_Light_Source_1_" class="st0" points="125.1,107.3 139.3,107.3 139.2,106.1 125,106.1 "/>
<text transform="matrix(1 0 0 1 66.673 112.2266)" class="st3 st4 st5">TIR Reflector</text>
<text transform="matrix(1 0 0 1 121.5488 112.2264)" class="st3 st4 st5">Parabolic Reflector</text>
</svg>
