<?xml version="1.0" encoding="utf-8"?>
<!-- Generator: Adobe Illustrator 19.2.1, SVG Export Plug-In . SVG Version: 6.00 Build 0)  -->
<svg version="1.1" id="ELD:_Bouquet" xmlns="http://www.w3.org/2000/svg" xmlns:xlink="http://www.w3.org/1999/xlink" x="0px"
	 y="0px" viewBox="0 0 288 432" style="enable-background:new 0 0 288 432;" xml:space="preserve">
<style type="text/css">
	.st0{fill:#005F07;}
	.st1{fill:#008307;}
	.st2{fill:#0000FF;}
	.st3{fill:none;stroke:#FFE500;stroke-miterlimit:10;}
</style>
<path id="DIF:_DIffuser" class="st0" d="M33.7,227.8c0,0,39,11.4,52.7-10.9c4-6.5-0.9,1.2-1.3,1.9c-0.7,1.2,1.8,4.3,3.5,3.1
	l16.6,10.4c0,0-8.1-9.3,2.2-13.8s8.7-1.6,8.7-1.6s-4.1,2.4-5.7,5.7s1.4,0.3,7.4-4.2s12.5,7.1,0,10.5s-17.8,6-17.8,6l37.5,11.5
	l45.4-4.9l12-7.7c0,0,15.8,6,22.1,4s-15.9-7.7-14.1-15.3c1.7-7.7,0-7.7,0-7.7s12.8,8.7,15.2,12.2s0-5.8,0-5.8s-3.8-10.3-7.3-11.5
	s10.5-7.7,10.5-7.7s5.3,1.8,7,5.1c1.6,3.2,6.9,3.7,6.9,3.7l9.3-0.8l9-2.9c0,0-27.7,1.5-32.7-9.9c-5.1-11.4,9.9-11.7,9.9-11.7
	s3.2,0.1,7.9,1.5c2.4,0.7,5.6,2.2,8.1,3.3c8.4,3.9-3.5-7.8-13.2-9.9c-9.9-2.1-9.3-2.3-12.8-3.7c-2.7-1.1-4.4-2.8-5.7-5.4
	c-1.4-2.9,1.2-4.8,3.4-6.6c3.8-3.1,14.7-7.8,14.7-7.8s-13.4-4.1-23.7,0.2c-2,0.8,0.6-3.7,5.7-7.2c4.6-3.1,13-5,12.5-5.8
	c-0.6-1-5.6-0.7-9.5,0.8c-2.4,1-4.1,1.1-5.7,2.4c-4.4,3.8-10.2,0.9-10.2,0.9s0.2-8.5,8.6-12.1c4.2-1.8,12.8-3.2,12.8-3.2
	s7.8-6,10.5-14.7c2.2-6.9-1.1,0.9-2.7,2.5c-1.6,1.7-14.6,11.3-25.7,6.3c-0.5-0.2-0.9-3.9,3.2-6.3c6.5-3.8,14.3-6.5,13.9-8.2
	c-0.4-1.5-8,2.3-14.9,3.5c-5.8,1-8.6-1-8.6-1.6c0-9.7,4.7-10.9,4.7-10.9s6-3.1,13.1-3.8c6.5-0.6,7.5-6.2,7.5-6.2S214,98.8,212.9,97
	s4.2-13.3,4.2-13.3s-6.1,3.6-9.9,8.5c-3.8,5-18-29.2-18.6-29.2s-21.9-7.8-25.7-6.7c-3.8,1.2-32.5,15.8-33.2,19s-1.8-11.8-2.5-13.7
	s-1.5,4.8-3.2,9s-2.7,7-2.7,7s-1.4,1.9-5.5-1.8c-4.2-3.7-2.9-10-2-11.6c1-1.6-6-5.8-6-5.8s1.5,1,2.8,9.4S109.2,87,109.2,87
	L93.5,72.1c0,0-3.5-3.8-1.3,2.7s10.4,20.6,10.4,20.6s2.2,7.9,0,10c-2.2,2.2-14,3.7-16.6,2.1c-2.5-1.6,4.5-9.2-4-12
	c-8.5-2.9-14.7-9.7-16-10.2c-1.3-0.4-6.4-1.2-8-0.7s9,2.5,11.3,8.7s-0.3,7.2-0.3,7.2s-9.3-7.8-11.3-8s10.7,10.9,10,13.9
	c-0.7,2.9-9.8,4.2-14.3,1.6s-4.5-2.6-4.5-2.6s4.8,8.7,10,8.5s-9.5,35.8-9.5,35.8s-14.5,7.6-17.5,12.2s3.8-4.5,12.7-5.6
	c8.8-1.1,9.3,12.6,9.3,12.6s4.5,5.8-4.2,8.1s-13.9,6-13.9,6s-8.8,10.7-6.8,9.5s15.3-11.7,22.8-10s7.8,8.8,7.8,9.1s-8.2,1.3-16.1,9.4
	s-8.1,9-8.1,9s10-12.6,24-12.6s16.7,5.7,16.7,5.7S76.5,219.4,33.7,227.8z"/>
<path id="DIF:_Diffuser_2_" class="st1" d="M109.7,196.2c0,0-12.2-9.2-22.2,0c-4.8,4.4-7.2,7.6-8.4,9.1c-1.3,1.6-1.2,1.4-2.7,4.3
	c-0.8,1.6-1.9,3.6-0.7,4.1c3.3,1.4,9.2,2,15.6,2.9c9.2,1.2,19.5-1.2,21.7-6.8s1.2-7.8,1.2-7.8s-5.4-1.6-10.6,0
	c-2.8,0.8-5.8,2-7.9,3.2c-6.4,3.7-5.5,2.9-5.5,2.9s2.4-4,7.1-7.8S109.7,196.2,109.7,196.2z"/>
<path id="DIF:_Diffuser" class="st1" d="M231.8,217.8c-0.7-3.8-1.9-7.4-3.8-10.6c0,0,0,0,0-0.1c-0.2-0.3-0.3-0.5-0.5-0.8
	c-2-2.7-6.4-4.2-6.4-4.2s-14,6.5-10.5,7.7s7.3,11.5,7.3,11.5s2.5,9.3,0,5.8c-2.2-3.1-12.8-10.5-14.9-11.9c0.4,0.5,0.8,2.2-0.4,7.4
	c-1.7,7.7,20.4,13.3,14.1,15.3c-5.5,1.8-18.3-2.6-21.4-3.8c1.6,1,3.4,1.8,5.3,2.5c10,3.7,20.4,3,30.7,2.6c2.2-0.1,2.6-0.9,2.4-2.7
	C233.1,230.3,232.9,224,231.8,217.8z"/>
<path id="DIF:_Diffuser_3_" class="st1" d="M206.8,92.5c3.8-5,9.9-8.5,9.9-8.5s-5.3,11.5-4.2,13.3s11.7-3.5,11.7-3.5
	s-0.9,5.5-7.5,6.2c-0.6,0.1-1.2,0.1-1.7,0.2c1.2,0.5,2.7,0.6,4.2,0.1c4.2-1.5,5.8-5,6.3-9.1c0.7-5.8-1-11.3-2.5-16.9
	c-0.3-1.1-0.8-1.3-1.8-1c-3.3,1.1-6.7,2.1-9.8,3.5c-3.5,1.5-6.5,3.8-8,7.5c-1.1,2.6-1,5.1,0,6.9C204.8,92.9,206.1,93.6,206.8,92.5z"
	/>
<path id="DIF:_Diffuser_5_" class="st1" d="M217.9,100.7c-0.7-0.2-1.4-0.3-2.2-0.3c-0.2-0.1-0.4-0.1-0.6-0.1c-0.1,0-0.2,0-0.3-0.1
	c-6.2,1-11.2,3.6-11.2,3.6s-4.7,1.2-4.7,10.9c0,0.6,2.8,2.6,8.6,1.6c6.9-1.2,14.5-5,14.9-3.5c0.4,1.7-7.4,4.4-13.9,8.2
	c-4.1,2.4-3.7,6.1-3.2,6.3c11.2,5,24.1-4.6,25.7-6.3c1.6-1.7,4.8-9.4,2.7-2.5c-2.7,8.7-10.5,14.7-10.5,14.7c2.1-1.2,3.9-2.9,5.6-5
	c5-6.4,7-14.2,9.1-21.8c0.4-1.6,0-2.1-1.4-2.4c-4.7-1-9.4-2.4-14.2-3C220.9,100.8,219.4,100.7,217.9,100.7z"/>
<path id="DIF:_Diffuser_6_" class="st1" d="M223.7,133.1c-0.1,0-0.2,0-0.2,0c-0.1,0.1-0.1,0.1-0.1,0.1s-8.6,1.4-12.8,3.2
	c-8.3,3.6-8.6,12.1-8.6,12.1s5.8,2.9,10.2-0.9c1.5-1.3,3.3-1.5,5.7-2.4c3.9-1.5,8.9-1.9,9.5-0.8c0.5,0.8-7.9,2.7-12.5,5.8
	c-5.1,3.5-7.7,8.1-5.7,7.2c8.3-3.5,18.7-1.4,22.3-0.5c1.4-0.8,2.7-1.9,4-3.2c4.2-4.5,6.1-10.2,8.2-15.8c0.4-1.2,0.1-1.6-0.9-1.9
	c-3.5-1-6.9-2.3-10.4-3.1C229.4,132.3,226.5,132.2,223.7,133.1z"/>
<path id="DIF:_Diffuser_7_" class="st1" d="M272.8,194.3c-5.6-7.2-10.8-14.7-16.9-21.6c-6.4-7.2-13.8-13.2-23.1-15.5
	c-0.2,0.1-10.9,4.8-14.7,7.8c-2.2,1.8-4.9,3.7-3.4,6.6c1.3,2.6,3,4.3,5.7,5.4c3.4,1.4,2.9,1.6,12.8,3.7c3.6,0.8,7.6,2.9,10.7,5.1
	c0,0,0,0,0.1,0l0,0c5.1,3.6,7.7,7.2,2.4,4.7c-2.5-1.2-5.7-2.6-8.1-3.3c-4.7-1.4-7.9-1.5-7.9-1.5s-14.9,0.3-9.9,11.7
	s32.7,9.9,32.7,9.9l-9,2.9c10.4-1.9,19.2-6.7,28.1-11.4C274.6,197.6,274.5,196.4,272.8,194.3z"/>
<path id="DIF:_Diffuser_8_" class="st1" d="M33.7,227.8c42.8-8.4,42.5-24.7,42.5-24.7s-2.7-5.7-16.7-5.7s-24,12.6-24,12.6
	s0.2-0.8,8.1-9s16.1-9.2,16.1-9.4s-0.3-7.4-7.8-9.1s-20.8,8.8-22.8,10s6.8-9.5,6.8-9.5c-1.1,1-2.2,2-3.1,3
	C21,201.9,19.6,207.4,15,224.5c4.8,2.6,13.6,3.8,22.5,4.2C35,228.2,33.7,227.8,33.7,227.8z"/>
<path id="DIF:_Diffuser_9_" class="st1" d="M53.3,108c4.5,2.6,13.7,1.3,14.3-1.6c0.7-2.9-12-14.1-10-13.9s11.3,8,11.3,8
	s2.7-1,0.3-7.2c-2.3-6.2-13-8.2-11.3-8.7c1.6-0.5,6.4,0.2,7.9,0.7c-0.4-0.1-0.7-0.3-1.1-0.4c-7.2-2.1-14.2-0.4-21.2,1.2
	c0,4.4,3.1,15.4,5.3,19.3C48.8,105.4,48.8,105.4,53.3,108z"/>
<path id="DIF:_Diffuser_10_" class="st1" d="M73.2,90.9c2.5,1.7,5.4,3.5,8.8,4.6c8.4,2.9,1.6,10.3,4,12c0.3,0.1,0.7,0.3,1,0.4
	c3.7,0.9,13.6-0.5,15.6-2.4c2.2-2.2,0-10,0-10s-8.2-14.1-10.4-20.6c-1.6-4.7-0.2-4,0.7-3.3c0,0,0,0,0-0.1c0.2,0.2,0.4,0.4,0.6,0.6
	l0,0L109.2,87c0,0,2.3-10.5,1.1-18.9c-1.2-8.4-2.8-9.4-2.8-9.4s7,4.2,6,5.8c-1,1.6-2.2,7.9,2,11.6s5.5,1.8,5.5,1.8s0.3-1,1-2.6
	c-1.2-6-4.9-10.8-10.1-14.5c-11.1-8-24.2-9.3-37.1-10.7c-2.6,7.6-3.9,28.4-2.5,36.2C72.5,87.9,72.8,89.4,73.2,90.9z"/>
<path id="DIF:_Diffuser_11_" class="st1" d="M115.5,76.2c4.2,3.7,5.5,1.8,5.5,1.8s1-2.8,2.7-7s2.5-10.8,3.2-9s1.8,16.8,2.5,13.7
	c0.2-0.9,2.7-2.8,6.3-5c0-0.5-0.1-0.9-0.2-1.4c-0.9-5.8-4-10.7-7-15.6c-0.6-1-1.1-1-2-0.4c-2.9,2-5.9,3.8-8.6,6
	c-2.1,1.7-3.9,3.8-4.9,6.2C112.3,67.8,111.9,73,115.5,76.2z"/>
<path id="DIF:_Diffuser_12_" class="st1" d="M117.7,218.5c-6,4.5-9,7.5-7.4,4.2s5.7-5.7,5.7-5.7s1.7-2.9-8.7,1.6
	c-10.3,4.5-2.2,13.8-2.2,13.8l-0.2-0.1c0.2,0.2,0.3,0.3,0.5,0.5c2.9-1,6.9-2.3,12.2-3.8C130.2,225.6,123.7,214,117.7,218.5z"/>
<path id="DIF:_Diffuser_13_" class="st1" d="M49.6,177c2.6-0.7,4.1-1.7,4.8-2.8c0.9-2.6-0.6-5.3-0.6-5.3s-0.5-13.7-9.3-12.6
	c-8.8,1.1-15.7,10.2-12.7,5.6c3-4.6,17.5-12.2,17.5-12.2s0.1-0.2,0.3-0.6V149c0-0.1,0.1-0.3,0.2-0.4c0-0.1,0-0.1,0.1-0.2
	c0.1-0.2,0.1-0.3,0.2-0.5c0,0,0-0.1,0.1-0.1c0.1-0.2,0.2-0.4,0.3-0.7V147c0.1-0.2,0.2-0.5,0.3-0.8c0-0.1,0.1-0.1,0.1-0.2
	c0.1-0.3,0.2-0.5,0.3-0.8c-1.4-2.8-4.4-5.2-7.3-5.6c-6.8-1-12.3,1.9-16.6,6.8c-7.2,8.2-9.3,18.5-11.4,28.7
	c5.1,2.3,18.2,4.6,25.7,4.8C43.7,178.9,46.4,177.8,49.6,177z"/>
<rect id="BO:_BreakOut_1_" x="12.8" y="86.2" class="st2" width="4" height="21.8"/>
<rect id="BI:_BreakIn_1_" x="274.1" y="156.3" class="st2" width="4" height="21.8"/>
<rect id="NLED:_APA102C_40_" x="98.1" y="79.4" class="st2" width="14.2" height="14.2"/>
<rect id="NLED:_APA102C_39_" x="195.5" y="110.6" class="st2" width="14.2" height="14.2"/>
<rect id="NLED:_APA102C_38_" x="49.6" y="196.3" class="st2" width="14.2" height="14.2"/>
<rect id="NLED:_APA102C_37_" x="107.4" y="200.2" class="st2" width="14.2" height="14.2"/>
<rect id="NLED:_APA102C_36_" x="137.1" y="138.1" class="st2" width="14.2" height="14.2"/>
<rect id="NLED:_APA102C_35_" x="167.5" y="182.7" class="st2" width="14.2" height="14.2"/>
<rect id="NLED:_APA102C_34_" x="80.2" y="138.6" class="st2" width="14.2" height="14.2"/>
<rect id="NLED:_APA102C_33_" x="47.7" y="149.2" class="st2" width="14.2" height="14.2"/>
<rect id="NLED:_APA102C_32_" x="200.5" y="145.7" class="st2" width="14.2" height="14.2"/>
<rect id="NLED:_APA102C_31_" x="157.2" y="86.5" class="st2" width="14.2" height="14.2"/>
<rect id="NLED:_APA102C_30_" x="217.1" y="174.2" class="st2" width="14.2" height="14.2"/>
<rect id="NLED:_APA102C_29_" x="68.1" y="99.3" class="st2" width="14.2" height="14.2"/>
<polyline id="CP:_CircuitPath_1_" class="st3" points="14.8,97 75.1,106.4 105.1,86.5 164.3,93.6 202.6,117.7 207.6,152.8 
	144.1,145.2 87.2,145.7 54.8,156.3 56.7,203.4 114.5,207.2 174.5,189.8 224.2,181.3 276.1,167.1 "/>
<g id="ART:_Flowers">
	<path d="M158.7,288.3c6.6,1.9,13.4,3.2,20.1,4.7c1.6,0.3,3.3,0.5,5,0.8c0.4-2.9,0.7-5.6,1.1-8.4c1.5-9.5,2.7-19.1,5.7-28.3
		c2.2-6.7,4-13.5,5.8-20.4c0.4-1.4-0.2-3.2-0.3-4.8c-1.6,0.3-3.3,0.2-4.7,0.8c-4.3,1.8-8.5,3.9-12.9,5.5
		c-15.6,5.7-31.6,5.6-47.6,1.6c-14.4-3.5-27.8-9.8-40.5-17.4c-3-1.7-6.1-3.4-9.2-4.9c-2.4-1.1-3.4-0.4-3.2,2.2
		c0.2,2.1,0.6,4.2,1.3,6.2c2.7,8.3,5.4,16.6,11.1,23.5c6.6,7.9,14.4,14.1,23.1,19.4C127.6,277.5,142.7,283.9,158.7,288.3z"/>
	<path d="M183.5,304.2c-3.4-0.4-6.7-0.7-10-1.2c-16.5-2.6-32.1-7.8-47.2-14.7c-7-3.2-13.8-7-20.7-10.5c-1.5-0.7-3-1.3-4.8-2.1
		c-0.3,5.1,16.5,31.6,26.7,42c17.4,17.8,37.8,30.8,62.9,36.5C185.8,337.5,183.6,321,183.5,304.2z"/>
	<path d="M193.4,365.6c-0.2-0.6-1.1-1.1-1.7-1.2c-9.1-1.9-17.7-4.9-25.9-9c-5-2.5-10-4.9-15-7.2c-0.8-0.4-1.8-0.4-2.8-0.6
		c-0.1,0.2-0.2,0.4-0.3,0.6c0.8,1.1,1.4,2.3,2.3,3.3c10.8,11.9,21.9,23.5,35.4,32.3c8.2,5.4,16.9,9.9,25.4,14.8
		c0.7,0.5,1.7,0.5,2.5,0.7c0.1-0.2,0.3-0.4,0.4-0.7c-1-1.6-2-3.3-3.1-4.9C204.4,384.7,197.8,375.8,193.4,365.6z"/>
	<path d="M138.1,106.4c0.1-0.3,0.1-0.5,0.1-0.5c-0.2-0.5-0.4-1.1-0.6-1.6c-1.8-5.9-2.8-11.8-1.7-17.9c2.9-15.6,18.1-22.9,32.1-20
		c4.5,1,8.7,2.6,12.6,5.8c-3.9-10.7-14.8-19.6-28.6-18.1c-14.9,1.6-28.7,15.3-24.4,33.3C129.3,94.6,133.1,100.7,138.1,106.4z"/>
	<path d="M78,120.9c13.6-3,25.3-0.5,33.2,10.9c8.8,12.7,3.7,24.5-4.7,35.5c0.2,0.2,0.4,0.4,0.6,0.5c3.2-2.5,6.7-4.8,9.7-7.5
		c9.2-8.1,13.6-21.1,7.4-33.3c-5.8-11.3-18.1-18-30.6-15.4C87.5,112.8,82.5,116.1,78,120.9z"/>
	<path d="M91,185.7c2.4-0.7,4.7-1.7,7.1-2.6c-2.6-0.6-5-0.8-7.4-1.3c-2.4-0.4-4.9-1-7.2-1.8c-17.4-6.2-28.4-20.7-24.4-40.5
		c-1.4,1.7-2.9,3.4-4.3,5.3c-3.8,5-6.8,10.5-7.2,17c-0.5,8.8,3.7,15.3,11,19.8C68.7,187.8,79.6,188.8,91,185.7z"/>
	<path d="M146.2,124.7c-1.4-0.2-2.9-0.6-4.9-1c0.7,0.9,1,1.3,1.3,1.6c10,8.7,21.5,12.8,34.7,10.5c8.8-1.5,15.5-6.1,18.1-15.1
		c2.5-8.7,0-16.7-3.4-25.2c-0.2,0.7-0.2,0.9-0.4,1.3c-3.3,19.8-17.3,27.4-32.5,28.9C154.9,126.1,150.5,125.1,146.2,124.7z"/>
	<path d="M161.5,115.5c8.2,1.9,15.7,0.6,21.3-6.2c5.6-7,7.6-15.2,6.4-24c-0.6-4.6-3.2-8.4-8-9.9c-2.9-1-5.7-0.9-8,1.2
		c-2.3,2.1-1.9,4.8-1,7.5c1.5,4.7,2.3,9.5,2.1,14.5c-0.3,9-6.5,14.6-15.5,13.8c-2.6-0.2-5.2-0.7-7.8-1.1c-0.1,0.2-0.1,0.4,0,0.6
		C154.5,113.1,157.9,114.7,161.5,115.5z"/>
	<path d="M79.6,124.7c-1.6-0.6-3.5-0.8-5.2-0.5c-5.2,0.9-8.2,4.4-10.1,9.1c-2,4.9-2.6,10.1-2.2,15.3c0.7,8.8,4.9,15.5,13.8,18.6
		c5.5,2,11.2,2,17.6,1c-3.2-0.6-5.8-1-8.3-1.5c-7-1.6-11.9-7.8-10.9-14.2c0.5-3.1,1.5-6.3,2.8-9.1c1.5-3.2,3.6-6.1,5.6-9
		C85.4,130.4,84.2,126.2,79.6,124.7z"/>
	<path d="M111.6,178.5c5.8-0.8,11.4-2.4,16.3-5.7c5.8-3.9,9-9.2,8.2-16.4c-0.5-4.4-3.6-8.1-7.2-8.8c-11.5,23.9-29.5,31.8-54.8,23
		c2.8,1.9,5.6,3.8,8.6,5C92,179.5,101.8,179.9,111.6,178.5z"/>
	<path d="M119.1,107.1c10.2,9.5,22.3,14.2,36.1,14.8c4.2,0.2,8.4-0.1,12.6-2.1c-3.3-0.2-6.3-0.2-9.3-0.6
		c-19.9-2.4-33-16.9-34.3-37.7c-0.1-2-0.9-2.2-2.5-1.9c-5.2,0.9-9.3,6.2-9.5,12.2C112,98,114.7,103,119.1,107.1z"/>
	<path d="M192.6,79.5c4.1,8.7,6,17.9,4.8,28.1c4.4-5.6,7.7-11.3,9.4-17.7c1.7-7.1,1-14-3.9-19.7c-7.6-8.8-18-10.8-28.9-11.4
		C182.6,63.6,188.5,70.7,192.6,79.5z"/>
	<path d="M50,148.4c3.8-16.1,19.6-34.9,39.2-37.4c-0.2-0.2-0.3-0.3-0.6-0.3c-7.4-2.4-14.9-3.4-22.5-2c-9.4,1.8-15.7,7.3-18,16.8
		c-1.2,5.2-1,10.5,0.1,15.7C48.7,143.6,49.4,146,50,148.4z"/>
	<path d="M87.4,162.4c-1.1,0.4-2.2,0.6-3.6,1c8.1,2.1,15,0.4,20.5-5.3c5.1-5.3,6.7-11.8,5.9-18.9c-0.8-7-5.3-11.9-12.1-13
		c-4.9-0.8-10,2.2-9.4,7.9c1.5,0,3.1-0.1,4.6,0c5.2,0.2,9,3.5,9.8,8.6c0.5,3-0.1,6-1.5,8.7C98.6,157.3,93.6,160.6,87.4,162.4z"/>
	<path d="M161.3,70.4c-5.3-1.8-11.7,0.3-15.2,5c-3.3,4.5-4.4,9.6-4.3,15.1c0.2,10.4,8.6,19,19,19.3c0-0.1-0.1-0.2-0.1-0.2
		c-0.5-0.3-1.1-0.7-1.6-1c-6.8-4.5-11.2-10.4-10.9-19c0.2-5.8,4.1-10.6,9.7-10.8c2.8-0.1,5.6,1.1,8.7,1.7
		C168.1,76,166.1,72,161.3,70.4z"/>
	<path d="M155.6,82.9c-3.8,2.4-5.2,6.5-3.8,11.2c1.6,5.6,5.7,9.4,10.1,9.7c1.4-0.6,2.9-1,4-1.8c4.7-3.2,5.7-9.8,2.5-15.7
		C165.6,81.2,160.5,79.8,155.6,82.9z"/>
	<path d="M80.1,150.9c0.9,3.8,3.7,6.5,7.1,6.6c6,0.2,12.6-6,12.6-12.1c0.1-6.2-5.9-10.8-11.5-8.9C82.8,138.4,78.9,145.3,80.1,150.9z
		"/>
	<path d="M175.7,227.6c11.3-1,20.1-9.3,23.2-21.2c-0.8,0.5-1.3,0.7-1.7,1c-6.9,6.2-15.1,8.5-24.2,7.3c-13.1-1.8-21.4-11.9-21.8-24.9
		c-0.1-3.8,0.4-7.7,0.6-11.5c-2.1,3.7-4.1,7.4-5.5,11.4c-3.1,8.8-3.1,17.6,2.2,25.6C154.9,224.9,164.3,228.7,175.7,227.6z"/>
	<path d="M192.5,144.2c-8.3-2.1-16.3-0.7-24,2.9c-6.8,3.1-12.4,7.8-17,14.4c0.7-0.3,0.9-0.4,1.1-0.4c7.5-3.7,15.4-5.4,23.7-4.8
		c8.1,0.5,15.4,3.1,21.3,9c4.3,4.2,7,9.4,8.9,15.4c0.3-0.9,0.5-1.4,0.6-1.9c1.3-5,1.7-10.1,1.3-15.2
		C207.8,154.1,201.7,146.5,192.5,144.2z"/>
	<path d="M204.9,194.3c1.5-7.5-1.3-14-5-20.2c-3-5.1-7.2-8.7-13.2-9.9c-8.9-1.8-16.2,2-23,7.2c2.4-0.7,4.7-1.7,6.9-2.2
		c5.4-1.3,10.5-1.1,14.4,3.6c2.6,3.1,3.9,6.8,4,10.8c0.1,4.4-0.3,8.8-0.5,13.2c-0.2,4.3,2.4,6.8,6.7,6.5
		C199.9,203,203.9,199.4,204.9,194.3z"/>
	<path d="M138.3,207.2c2.6,0.4,3.4-0.3,3.4-2.7c0.1-3.5,0.1-7,0.5-10.4c1.2-10.3,5.9-18.7,14.1-24.9c6.8-5.2,14.6-7.8,23.1-8.4
		c0-0.2,0-0.4,0-0.4c-2.6-0.3-5.3-0.8-7.9-0.6c-15.3,1.5-28,8.2-37.9,19.9c-4,4.7-6.3,10.2-5.2,16.7
		C129.3,201.7,133.4,206.3,138.3,207.2z"/>
	<path d="M224.1,192.9c-0.7-10.3-6.6-17.8-13.6-24.7c3.8,20.1,0,37.7-16.4,51.9c10.4-2.5,19.9-5.8,26.2-14.6
		C223,201.8,224.4,197.5,224.1,192.9z"/>
	<path d="M162.5,177.7c-8.5,9.6-5,23.9,2.6,30.6c4.2,3.7,11.1,4.4,15.6,1.7c4.3-2.6,5.4-8,2.7-10.8c-0.7,0.4-1.4,1-2.1,1.4
		c-9.2,5.7-16.4-1-17.3-8.9c-0.7-5.5,0.9-10.3,4.2-14.6c1.5-2,3.3-3.7,5-5.5C170.1,171.8,165.3,174.5,162.5,177.7z"/>
	<path d="M167.5,192.5c0.7,3.7,3.3,5.8,6.9,6.8c3.5,1,6.3,0.1,8.6-2.6c3.6-4.3,3.7-11.3,0.2-15.8c-1.6-2.1-3.7-3.4-6.8-3.9
		c-1.6,0.8-3.6,1.4-4.8,2.5C167.8,183,166.5,187.5,167.5,192.5z"/>
</g>
</svg>
