<?xml version="1.0" encoding="utf-8"?>
<!-- Generator: Adobe Illustrator 19.2.1, SVG Export Plug-In . SVG Version: 6.00 Build 0)  -->
<svg version="1.1" id="ELD:_Gecko" xmlns="http://www.w3.org/2000/svg" xmlns:xlink="http://www.w3.org/1999/xlink" x="0px" y="0px"
	 viewBox="0 0 386.5 218.6" style="enable-background:new 0 0 386.5 218.6;" xml:space="preserve">
<style type="text/css">
	.st0{stroke:#000000;stroke-width:3;stroke-linecap:round;stroke-linejoin:round;}
	.st1{fill:#4C2344;stroke:#000000;stroke-linecap:round;stroke-linejoin:round;}
	.st2{fill:#331B96;stroke:#000000;stroke-linecap:round;stroke-linejoin:round;}
	.st3{fill:#F471DB;stroke:#000000;stroke-linecap:round;stroke-linejoin:round;}
	.st4{fill:#BF58AC;stroke:#000000;stroke-linecap:round;stroke-linejoin:round;}
	.st5{fill:#264EDD;stroke:#000000;stroke-linecap:round;stroke-linejoin:round;}
	.st6{fill:#294DFF;}
	.st7{fill:#FFE313;}
	.st8{fill:none;stroke:#FFE313;stroke-miterlimit:10;}
	.st9{fill:#D342C9;}
</style>
<rect id="BASE:_base_path" x="56" y="30.2" class="st0" width="267" height="162.3"/>
<path id="DIF:_Boundary_path" class="st1" d="M316.3,131.2c-0.1-0.3-0.3-0.7-0.5-1c-0.3-0.5-0.6-0.9-0.9-1.3
	c-0.2-0.3-0.4-0.5-0.6-0.8c-0.1-0.1-0.2-0.3-0.3-0.4c-0.1-0.1-0.2-0.3-0.4-0.4c-0.1-0.1-0.3-0.3-0.4-0.4c-0.1-0.2-0.3-0.3-0.4-0.5
	c-0.3-0.3-0.6-0.7-0.9-1c-0.4-0.4-0.8-0.9-1.2-1.3c-0.3-0.3-0.6-0.6-0.9-0.9c-0.8-0.8-1.6-1.6-2.5-2.4c-0.9-0.9-1.8-1.8-2.8-2.6
	c-1-0.9-2-1.8-3.1-2.7c-1.1-0.9-2.2-1.8-3.3-2.7c-1.2-0.9-2.4-1.8-3.6-2.7c-0.2-0.1-0.4-0.3-0.5-0.4c-1.1-0.8-2.2-1.5-3.2-2.2
	c-1.3-0.9-2.6-1.7-4-2.5s-2.8-1.6-4.2-2.3c-1.4-0.7-2.9-1.4-4.4-2.1c-0.5-0.2-0.9-0.4-1.4-0.6c-1-0.4-2.1-0.8-3.2-1.2
	c-1.6-0.6-3.1-1.1-4.8-1.5c-1.6-0.5-3.3-0.9-4.9-1.2c-1.7-0.3-3.4-0.6-5.1-0.8c-1.8-0.2-3.5-0.4-5.3-0.4c-1.8-0.1-3.7-0.1-5.5,0
	s-3.7,0.2-5.6,0.3s-3.7,0.4-5.5,0.6s-3.6,0.5-5.5,0.7c-1.8,0.3-3.5,0.5-5.3,0.8c-1.7,0.2-3.3,0.5-5,0.8c-1.5,0.2-3.1,0.5-4.7,0.6
	c-0.4,0.1-0.8,0.1-1.2,0.1s-0.8,0.1-1.1,0.1c-0.4,0-0.8,0.1-1.2,0.1s-0.9,0-1.3,0c-0.2,0-0.4,0-0.6,0c-0.2,0-0.4,0-0.6,0l0,0
	c-0.2,0-0.3,0-0.5,0s-0.3,0-0.5,0c-0.6-0.1-1.1-0.2-1.8-0.3c-0.5-0.1-1-0.2-1.6-0.4c-0.4-0.1-0.9-0.2-1.3-0.4
	c-0.8-0.3-1.6-0.6-2.4-1c-0.7-0.4-1.4-0.8-2-1.2c-0.3-0.2-0.6-0.5-0.9-0.7c-0.3-0.2-0.5-0.5-0.8-0.7c-0.5-0.5-1-1-1.4-1.6
	c-0.4-0.5-0.8-1.1-1.2-1.7s-0.7-1.2-1.1-1.7c-0.3-0.6-0.7-1.2-1-1.8c-0.3-0.6-0.6-1.2-0.9-1.8c-0.3-0.6-0.5-1.2-0.8-1.8
	c-0.2-0.6-0.5-1.2-0.7-1.7c-0.2-0.6-0.4-1.1-0.5-1.7c-0.2-0.5-0.3-1.1-0.4-1.7l0,0c-0.1-0.5-0.2-1.1-0.3-1.6s-0.1-1.1-0.1-1.6
	s0-1,0-1.5s0.1-1,0.2-1.5c0.1-0.5,0.2-0.9,0.3-1.4l0,0c0.1-0.5,0.2-0.9,0.3-1.4s0.3-0.9,0.4-1.3c0.1-0.4,0.3-0.9,0.4-1.3
	c0.1-0.4,0.3-0.8,0.4-1.3c0.1-0.4,0.3-0.8,0.4-1.2s0.2-0.8,0.3-1.2s0.2-0.8,0.3-1.2s0.2-0.8,0.3-1.1c0.1-0.2,0.1-0.3,0.2-0.5
	c0-0.1,0.1-0.2,0.1-0.2c0-0.1,0.1-0.2,0.1-0.2c0-0.1,0.1-0.2,0.1-0.2c0-0.1,0.1-0.2,0.1-0.2c0-0.1,0.1-0.2,0.1-0.2
	c0-0.1,0.1-0.1,0.1-0.2c0.2-0.3,0.4-0.5,0.6-0.8c0.2-0.2,0.5-0.4,0.7-0.6c0.2-0.1,0.3-0.2,0.5-0.2c0.1,0,0.2-0.1,0.2-0.1
	c0.1,0,0.2-0.1,0.3-0.1s0.2-0.1,0.3-0.1s0.2,0,0.3-0.1c0.2,0,0.4-0.1,0.6-0.1c0.4,0,0.8-0.1,1.3-0.1s0.9,0,1.4,0s0.9,0.1,1.4,0.1
	s0.9,0.1,1.4,0.1c0.4,0,0.8,0,1.2,0h0.2c0.4,0,0.8,0,1.2-0.1c0.2,0,0.3-0.1,0.5-0.1l0,0c0.1,0,0.2-0.1,0.2-0.1l0,0
	c0.1,0,0.2-0.1,0.3-0.2c0.2-0.2,0.3-0.3,0.3-0.5c0,0,0,0,0-0.1c0.1-0.2,0.1-0.4,0.1-0.6c0-0.2-0.1-0.5-0.2-0.7
	c-0.1-0.2-0.2-0.5-0.4-0.7c-0.1-0.2-0.3-0.3-0.5-0.5c0,0,0,0-0.1-0.1c-0.2-0.2-0.5-0.3-0.8-0.4c-0.2-0.1-0.3-0.1-0.5-0.1l0,0
	c-0.1,0-0.2,0-0.4,0l0,0c-0.2,0-0.4,0-0.6,0c-0.5,0-1,0.1-1.4,0.2h-0.2c-0.4,0.1-0.9,0.2-1.3,0.3c-0.5,0.1-1,0.2-1.5,0.3
	c-0.4,0.1-0.9,0.2-1.4,0.2c-0.4,0.1-0.8,0.1-1.2,0.1c-0.3,0-0.7-0.1-1-0.2c-0.2,0-0.3-0.1-0.4-0.2c-0.1,0-0.1-0.1-0.2-0.2
	c-0.1-0.1-0.1-0.1-0.2-0.2c0-0.1-0.1-0.2-0.1-0.3s-0.1-0.2-0.1-0.3c0-0.2-0.1-0.5-0.1-0.7c0-0.5,0-1,0.1-1.5
	c0.1-0.6,0.2-1.2,0.3-1.8s0.3-1.3,0.4-1.9c0.2-0.7,0.3-1.4,0.5-2c0.1-0.6,0.2-1.1,0.4-1.7v-0.1c0-0.1,0-0.2,0-0.2
	c0.1-0.6,0.2-1.3,0.3-1.9c0-0.3,0-0.6,0-0.8l0,0c0-0.2,0-0.3,0-0.5l0,0c0-0.2-0.1-0.4-0.1-0.7c-0.1-0.4-0.3-0.7-0.5-1
	c0,0,0-0.1-0.1-0.1c0,0,0-0.1-0.1-0.1c-0.1-0.2-0.3-0.3-0.5-0.5s-0.5-0.3-0.8-0.4c-0.3-0.1-0.5-0.1-0.8,0c-0.3,0-0.5,0.1-0.7,0.3
	c0,0-0.1,0-0.1,0.1c-0.3,0.2-0.6,0.4-0.8,0.7c-0.1,0.2-0.2,0.4-0.3,0.6l0,0c-0.1,0.2-0.1,0.3-0.2,0.4l0,0c-0.1,0.3-0.2,0.5-0.2,0.8
	c-0.1,0.6-0.2,1.4-0.3,2c0,0.1,0,0.2,0,0.2l0,0c-0.1,0.6-0.1,1.2-0.2,1.9c-0.1,0.7-0.1,1.4-0.2,2.1c-0.1,0.7-0.1,1.3-0.2,2
	c-0.1,0.5-0.1,1.2-0.2,1.7c-0.1,0.4-0.2,0.9-0.3,1.3c0,0.2-0.1,0.3-0.2,0.5c0,0.1-0.1,0.1-0.1,0.2c0,0.1-0.1,0.1-0.2,0.1
	c0,0-0.1,0-0.2,0c-0.1,0-0.1,0-0.2,0c-0.1-0.1-0.2-0.1-0.4-0.2c-0.3-0.2-0.5-0.5-0.8-0.8c-0.3-0.4-0.6-0.8-0.9-1.2
	c-0.3-0.5-0.7-1-1-1.5s-0.7-1.1-1-1.6s-0.6-1-0.9-1.4c0-0.1-0.1-0.1-0.1-0.2c-0.3-0.5-0.7-1-1-1.5c-0.1-0.2-0.3-0.4-0.5-0.6l0,0
	c-0.1-0.1-0.2-0.2-0.3-0.3l0,0c-0.1-0.1-0.3-0.3-0.4-0.4c-0.2-0.2-0.5-0.3-0.8-0.4H181l0,0c-0.2,0-0.3,0-0.5,0s-0.4,0.1-0.5,0.2
	c-0.1,0.1-0.3,0.3-0.3,0.5c-0.1,0.2-0.1,0.3-0.1,0.5v0.1v0.1c0,0.3,0,0.6,0.1,0.9c0,0.2,0.1,0.3,0.2,0.5l0,0
	c0.1,0.1,0.1,0.2,0.2,0.3l0,0c0.1,0.2,0.2,0.4,0.3,0.6c0.3,0.4,0.6,0.9,0.9,1.3c0,0.1,0.1,0.1,0.1,0.2c0.3,0.4,0.6,0.8,0.9,1.2
	c0.3,0.4,0.7,0.9,1,1.3c0.3,0.4,0.6,0.8,0.9,1.2c0.2,0.4,0.5,0.7,0.7,1.1c0.2,0.3,0.3,0.7,0.5,1c0,0.1,0.1,0.3,0.1,0.4
	c0,0.1,0,0.1,0,0.2s0,0.1,0,0.2c0,0.1-0.1,0.1-0.1,0.1c-0.1,0-0.1,0.1-0.2,0.1c-0.1,0.1-0.2,0.1-0.4,0.2c-0.3,0.1-0.7,0.2-1,0.2
	c-0.4,0-0.8,0-1.2,0c-0.5,0-1,0-1.5,0s-1.1-0.1-1.6-0.1s-1-0.1-1.5-0.1c-0.1,0-0.1,0-0.2,0c-0.5,0-1.1-0.1-1.6-0.1
	c-0.2,0-0.5,0-0.7,0l0,0c-0.1,0-0.3,0-0.4,0l0,0c-0.2,0-0.4,0-0.6,0.1c-0.3,0.1-0.6,0.1-0.9,0.3h-0.1c-0.1,0-0.1,0.1-0.2,0.1
	c-0.1,0.1-0.3,0.1-0.4,0.2c-0.1,0.1-0.3,0.2-0.4,0.4c-0.1,0.1-0.1,0.2-0.1,0.4c0,0.1,0,0.1,0.1,0.2c0,0,0,0.1,0.1,0.1l0,0
	c0.1,0.2,0.3,0.3,0.5,0.3c0.1,0.1,0.3,0.1,0.4,0.2l0,0c0.1,0,0.2,0.1,0.3,0.1l0,0c0.2,0,0.4,0.1,0.7,0.1c0.5,0.1,1.1,0.1,1.6,0.2
	c0.1,0,0.1,0,0.2,0c0.5,0,1,0.1,1.5,0.1c0.6,0,1.2,0.1,1.7,0.1s1.1,0.1,1.6,0.1c0.4,0,0.9,0.1,1.4,0.2c0.3,0.1,0.7,0.1,1,0.2
	c0.1,0,0.2,0.1,0.3,0.2l0.1,0.1c0,0,0,0.1,0.1,0.1c0,0.1,0,0.1,0,0.1c0,0.1-0.1,0.1-0.1,0.2c-0.1,0.1-0.2,0.2-0.3,0.3
	c-0.2,0.2-0.6,0.4-0.8,0.6c-0.4,0.2-0.8,0.4-1.2,0.6c-0.4,0.2-0.9,0.5-1.4,0.7s-1,0.5-1.5,0.8c-0.5,0.2-1,0.5-1.6,0.8
	c-0.4,0.2-0.8,0.4-1.2,0.6c-0.1,0-0.2,0.1-0.3,0.2c-0.2,0.1-0.4,0.2-0.6,0.4l-0.1,0.1c-0.1,0-0.1,0.1-0.2,0.1l-0.1,0.1
	c-0.1,0.1-0.2,0.2-0.4,0.3c0,0,0,0,0,0.1c-0.2,0.2-0.4,0.5-0.6,0.7c-0.1,0.2-0.2,0.4-0.3,0.7c-0.1,0.2-0.1,0.4-0.1,0.6
	s0.1,0.3,0.2,0.5c0.1,0.1,0.2,0.2,0.3,0.3c0.2,0.1,0.3,0.2,0.5,0.2c0.1,0,0.2,0,0.3,0s0.1,0,0.1,0l0,0h0.1l0,0c0.1,0,0.1,0,0.2,0
	c0.1,0,0.3-0.1,0.4-0.1c0.3-0.1,0.6-0.3,0.9-0.4c0.3-0.2,0.7-0.3,1-0.5s0.7-0.4,1-0.6s0.7-0.4,1-0.6s0.7-0.4,1-0.5
	c0.3-0.2,0.6-0.3,1-0.4c0.2-0.1,0.3-0.1,0.5-0.2c0.1,0,0.1,0,0.2-0.1c0.1,0,0.1,0,0.2,0c0.1,0,0.2,0,0.2,0c0.1,0,0.1,0,0.2,0
	c0.1,0,0.3,0,0.4,0c0.2,0,0.5,0,0.8,0.1c0.2,0.1,0.4,0.2,0.6,0.3c0.1,0.1,0.2,0.1,0.3,0.2l0.1,0.1l0.1,0.1l0.1,0.1
	c0,0,0.1,0.1,0.1,0.2c0.1,0.1,0.1,0.2,0.2,0.3c0.1,0.2,0.2,0.5,0.3,0.8s0.2,0.6,0.2,0.9s0.1,0.6,0.1,0.9v0.1c0,0.4,0,0.7,0,1.1
	s-0.1,0.8-0.1,1.2c0,0.3-0.1,0.6-0.1,0.9c0,0.1,0,0.3-0.1,0.4c-0.1,0.4-0.1,0.9-0.2,1.3c-0.1,0.5-0.1,0.9-0.2,1.4
	c-0.1,0.5-0.1,0.9-0.1,1.4c0,0.2,0,0.4,0,0.6c0,0.3,0,0.6,0,0.9c0,0.5,0,1,0.1,1.5s0.2,1,0.3,1.5s0.3,1,0.4,1.5
	c0.2,0.5,0.4,1,0.6,1.5c0.2,0.5,0.4,1,0.7,1.5c0.2,0.5,0.5,1,0.7,1.6c0.3,0.5,0.5,1.1,0.8,1.6c0.3,0.6,0.5,1.1,0.8,1.7
	s0.5,1.2,0.8,1.8c0.3,0.6,0.5,1.2,0.7,1.8c0.2,0.6,0.4,1.2,0.6,1.8l0,0c0.2,0.6,0.4,1.3,0.5,1.9s0.2,1.2,0.3,1.8
	c0.1,0.6,0.1,1.2,0.1,1.7c0,0.2,0,0.5,0,0.7c0,0.3-0.1,0.6-0.1,0.8c-0.1,0.5-0.2,1-0.5,1.5c-0.1,0.2-0.2,0.3-0.3,0.5
	c-0.1,0.1-0.1,0.2-0.2,0.2c-0.1,0.2-0.2,0.2-0.3,0.4c-0.1,0.1-0.2,0.2-0.4,0.4c-0.1,0.1-0.3,0.2-0.4,0.3c-0.1,0.1-0.3,0.2-0.4,0.2
	c-0.3,0.1-0.5,0.2-0.8,0.3c-0.3,0.1-0.7,0.2-1,0.2c-0.2,0-0.5,0.1-0.7,0.1h-0.1c-0.6,0-1.2,0.1-1.8,0.1c-0.7,0-1.5,0-2.1,0
	c-0.8,0-1.6-0.1-2.3-0.1c-0.8,0-1.6-0.1-2.5-0.2c-0.8-0.1-1.7-0.1-2.5-0.2c-0.9,0-1.7-0.1-2.6-0.1c-0.9,0-1.7,0-2.6,0
	c-0.9,0-1.7,0-2.6,0c-0.8,0-1.7,0.1-2.5,0.1s-1.7,0.1-2.5,0.2s-1.6,0.1-2.5,0.2c-0.8,0.1-1.6,0.2-2.4,0.3c-0.8,0.1-1.6,0.2-2.4,0.3
	c-0.8,0.1-1.5,0.2-2.3,0.3c-0.7,0.1-1.5,0.2-2.2,0.4c-0.7,0.1-1.4,0.2-2.1,0.3c-0.7,0.1-1.4,0.2-2.1,0.3c-0.7,0.1-1.3,0.2-2,0.3
	c-0.7,0.1-1.3,0.2-2,0.3c-0.6,0.1-1.3,0.1-1.9,0.2c-0.5,0-1,0.1-1.5,0.1c-0.1,0-0.2,0-0.3,0c-0.3,0-0.6,0-0.8,0c-0.3,0-0.6,0-0.9,0
	c-0.6-0.1-1.2-0.1-1.7-0.2c-0.3-0.1-0.6-0.1-0.9-0.2c-0.2-0.1-0.5-0.1-0.7-0.2c-0.5-0.2-1-0.4-1.5-0.6s-0.9-0.5-1.4-0.8
	c-0.4-0.3-0.8-0.6-1.2-0.9c0,0-0.1-0.1-0.2-0.1c-0.3-0.3-0.6-0.6-0.9-0.9c-0.3-0.4-0.6-0.8-0.8-1.2c-0.1-0.1-0.1-0.3-0.2-0.5
	c0-0.1-0.1-0.2-0.1-0.3c0-0.2-0.1-0.4-0.1-0.5c0-0.2,0-0.5-0.1-0.6v-0.2c0-0.2,0-0.5,0-0.7c0-0.1,0-0.2,0-0.3c0-0.1,0-0.2,0-0.3
	c0-0.1,0-0.3,0-0.4c0-0.2,0.1-0.4,0.1-0.6c0.1-0.6,0.2-1.3,0.3-1.9c0.1-0.5,0.2-1,0.3-1.5c0-0.1,0-0.2,0.1-0.2
	c0.1-0.6,0.3-1.2,0.4-1.8c0.1-0.6,0.3-1.2,0.4-1.7c0.1-0.6,0.3-1.1,0.4-1.7c0-0.2,0.1-0.5,0.1-0.8c0.1-0.3,0.1-0.6,0.1-0.9
	c0.1-0.5,0.1-1,0.1-1.5s0-0.9-0.1-1.4c0-0.1,0-0.2,0-0.2c-0.1-0.4-0.2-0.7-0.3-1c-0.1-0.4-0.3-0.8-0.5-1.2c-0.2-0.4-0.4-0.7-0.6-1.1
	c-0.2-0.3-0.5-0.7-0.7-1s-0.5-0.6-0.8-0.9s-0.5-0.6-0.8-0.9s-0.5-0.5-0.8-0.8c-0.3-0.2-0.5-0.5-0.8-0.8c-0.2-0.2-0.5-0.5-0.7-0.7
	s-0.4-0.5-0.6-0.7c-0.1-0.1-0.2-0.2-0.3-0.4c0,0-0.1-0.1-0.1-0.2c0,0-0.1-0.1-0.1-0.2c0,0-0.1-0.1-0.1-0.2s-0.1-0.1-0.1-0.2
	s-0.1-0.2-0.1-0.3c-0.1-0.2-0.1-0.4-0.1-0.6s0-0.4,0-0.6c0-0.1,0.1-0.2,0.1-0.3c0,0,0-0.1,0.1-0.2l0.1-0.1c0-0.1,0.1-0.1,0.1-0.2
	c0,0,0.1-0.1,0.1-0.2c0.1-0.1,0.2-0.2,0.3-0.3c0.2-0.2,0.4-0.4,0.7-0.6c0.3-0.2,0.5-0.4,0.8-0.6s0.6-0.4,0.9-0.6s0.6-0.4,0.9-0.6
	s0.6-0.4,0.9-0.6c0.3-0.2,0.5-0.4,0.8-0.6c0.1-0.1,0.2-0.2,0.3-0.3l0.1-0.1L129,68l0.1-0.1l0.1-0.1c0.1-0.1,0.1-0.2,0.2-0.3
	c0.1-0.2,0.2-0.4,0.2-0.6s0.1-0.3,0.1-0.5c0-0.1,0-0.3-0.1-0.4s-0.2-0.2-0.3-0.3c-0.1-0.1-0.3-0.2-0.4-0.2c-0.2,0-0.4,0-0.6,0
	c-0.1,0-0.2,0-0.3,0.1h-0.1c0,0-0.1,0-0.2,0.1c0,0-0.1,0.1-0.2,0.1c0,0-0.1,0.1-0.2,0.1c-0.1,0.1-0.3,0.2-0.4,0.2
	c-0.3,0.2-0.6,0.4-0.9,0.6s-0.7,0.5-1,0.7s-0.6,0.5-1,0.7c-0.3,0.2-0.6,0.4-0.9,0.6s-0.6,0.3-0.9,0.5c-0.2,0.1-0.5,0.2-0.7,0.2h-0.1
	c-0.1,0-0.2,0-0.2,0h-0.1c-0.1,0-0.1,0-0.1-0.1l-0.1-0.1l-0.1-0.1c0-0.1-0.1-0.1-0.1-0.2v-0.1c-0.1-0.3-0.1-0.6-0.1-0.9s0-0.7,0-1.1
	s0-0.8,0-1.2c0-0.4,0.1-0.9,0.1-1.3s0.1-0.9,0.1-1.3c0-0.4,0-0.8,0-1.2c0-0.2,0-0.3,0-0.5c0-0.1,0-0.1,0-0.2c0-0.1,0-0.1,0-0.2
	s0-0.1,0-0.2c0-0.1,0-0.1,0-0.2c0-0.1,0-0.2-0.1-0.3c-0.1-0.2-0.2-0.4-0.3-0.5c-0.1-0.1-0.2-0.2-0.4-0.3c-0.1-0.1-0.3-0.1-0.4,0
	c-0.2,0-0.3,0.1-0.4,0.2c-0.2,0.1-0.3,0.2-0.4,0.4s-0.3,0.4-0.4,0.6c0,0.1-0.1,0.2-0.1,0.4c0,0.1,0,0.1-0.1,0.2c0,0.1,0,0.1,0,0.2
	c0,0.1,0,0.1,0,0.2c0,0.1,0,0.2,0,0.2c0,0.2-0.1,0.3-0.1,0.5c0,0.4-0.1,0.8-0.1,1.2s-0.1,0.9-0.1,1.3s0,0.8-0.1,1.2
	c0,0.4,0,0.8-0.1,1.2c0,0.3-0.1,0.7-0.1,1c0,0.2-0.1,0.5-0.2,0.7V69c0,0.1-0.1,0.1-0.1,0.2l-0.1,0.1c0,0-0.1,0-0.1,0.1H117h-0.1
	c-0.1,0-0.1,0-0.2-0.1c0,0,0,0-0.1,0c-0.2-0.1-0.4-0.3-0.6-0.5s-0.5-0.5-0.7-0.7c-0.2-0.3-0.5-0.6-0.7-0.9c-0.3-0.3-0.5-0.6-0.8-1
	c-0.3-0.3-0.5-0.7-0.8-1s-0.5-0.6-0.8-0.9c-0.1-0.1-0.2-0.2-0.4-0.3c-0.1,0-0.1-0.1-0.2-0.1c0,0-0.1-0.1-0.2-0.1
	c0,0-0.1-0.1-0.2-0.1c0,0-0.1-0.1-0.2-0.1c-0.1-0.1-0.2-0.1-0.3-0.2c-0.2-0.1-0.5-0.2-0.7-0.2s-0.4,0-0.6,0s-0.3,0.1-0.5,0.2
	c-0.1,0.1-0.3,0.2-0.4,0.3c-0.1,0.2-0.2,0.3-0.2,0.5s0,0.4,0,0.6c0,0.1,0,0.2,0.1,0.3c0,0.1,0,0.1,0.1,0.2c0,0,0,0.1,0.1,0.2
	c0,0,0,0.1,0.1,0.2c0,0.1,0.1,0.1,0.1,0.2c0.1,0.1,0.1,0.3,0.2,0.4c0.2,0.3,0.4,0.7,0.6,0.9c0.2,0.3,0.5,0.7,0.7,1s0.5,0.6,0.7,1
	c0.2,0.3,0.4,0.6,0.6,0.9c0.2,0.2,0.3,0.5,0.5,0.8c0.1,0.2,0.2,0.4,0.2,0.6v0.1c0,0.1,0,0.1,0,0.2v0.1c0,0,0,0.1-0.1,0.1l-0.1,0.1
	c-0.1,0-0.1,0-0.1,0c-0.1,0-0.2,0-0.2,0h-0.1c-0.3,0-0.6,0-0.9-0.1c-0.4,0-0.8-0.1-1.1-0.2c-0.4-0.1-0.9-0.2-1.3-0.3
	c-0.5-0.1-0.9-0.2-1.4-0.3c-0.5-0.1-0.9-0.2-1.4-0.3c-0.4-0.1-0.9-0.1-1.3-0.2c-0.2,0-0.4,0-0.6,0h-0.2c-0.1,0-0.1,0-0.2,0
	s-0.1,0-0.2,0s-0.1,0-0.2,0s-0.3,0.1-0.4,0.1c-0.2,0.1-0.5,0.2-0.7,0.3c-0.2,0.1-0.4,0.3-0.5,0.4c-0.1,0.2-0.2,0.3-0.3,0.5
	s-0.1,0.4,0,0.6c0,0.2,0.1,0.4,0.2,0.6s0.3,0.4,0.5,0.5c0.1,0.1,0.2,0.2,0.3,0.2c0.1,0,0.1,0.1,0.2,0.1s0.1,0.1,0.2,0.1
	s0.1,0.1,0.2,0.1s0.2,0.1,0.2,0.1c0.2,0.1,0.4,0.1,0.6,0.2c0.4,0.1,0.9,0.2,1.3,0.3c0.5,0.1,1,0.2,1.5,0.2c0.5,0.1,1,0.1,1.5,0.2
	s0.9,0.1,1.4,0.2c0.4,0.1,0.8,0.1,1.2,0.2c0.3,0.1,0.6,0.1,0.9,0.2h0.1c0.1,0,0.1,0.1,0.2,0.1c0,0,0.1,0,0.1,0.1c0,0,0,0,0.1,0.1
	v0.1v0.1c0,0.1,0,0.1-0.1,0.1c0,0,0,0,0,0.1c-0.1,0.2-0.3,0.3-0.5,0.4c-0.2,0.2-0.5,0.3-0.8,0.5s-0.7,0.3-1,0.5
	c-0.4,0.2-0.8,0.4-1.1,0.5c-0.4,0.2-0.8,0.4-1.2,0.6c-0.3,0.2-0.7,0.4-1.1,0.6c-0.1,0.1-0.3,0.2-0.4,0.3c-0.1,0-0.1,0.1-0.2,0.1
	s-0.1,0.1-0.2,0.1s-0.1,0.1-0.1,0.1l-0.1,0.1c-0.1,0.1-0.2,0.2-0.2,0.3c-0.1,0.2-0.2,0.4-0.3,0.6c-0.1,0.2-0.1,0.3-0.1,0.5
	s0,0.3,0.1,0.5s0.2,0.3,0.3,0.4c0.2,0.1,0.3,0.2,0.5,0.2c0.2,0.1,0.4,0.1,0.6,0.1c0.1,0,0.2,0,0.4,0c0.1,0,0.1,0,0.2,0s0.1,0,0.2,0
	s0.1,0,0.2,0s0.1,0,0.2-0.1c0.2-0.1,0.3-0.1,0.5-0.2c0.4-0.1,0.7-0.3,1-0.5c0.4-0.2,0.8-0.4,1.1-0.6c0.4-0.2,0.8-0.4,1.2-0.6
	c0.4-0.2,0.8-0.4,1.2-0.6c0.4-0.2,0.8-0.4,1.2-0.6c0.4-0.2,0.8-0.4,1.1-0.5c0.2-0.1,0.4-0.2,0.5-0.2s0.2-0.1,0.3-0.1
	c0.1,0,0.2-0.1,0.3-0.1c0.1,0,0.2,0,0.2-0.1c0.1,0,0.2,0,0.2-0.1c0.2-0.1,0.3-0.1,0.5-0.1c0.3-0.1,0.6-0.1,0.9-0.1s0.5,0,0.8,0.1
	c0.1,0,0.3,0.1,0.4,0.1s0.1,0,0.2,0.1c0.1,0,0.1,0.1,0.2,0.1s0.1,0.1,0.2,0.1s0.1,0.1,0.2,0.1c0.1,0.1,0.2,0.1,0.4,0.2
	c0.2,0.2,0.5,0.3,0.7,0.5s0.5,0.4,0.7,0.7c0.2,0.2,0.4,0.5,0.7,0.8c0.2,0.3,0.5,0.6,0.7,0.9s0.5,0.7,0.7,1c0.2,0.4,0.4,0.7,0.6,1.1
	s0.4,0.8,0.6,1.2c0.2,0.4,0.4,0.8,0.5,1.2c0.2,0.4,0.3,0.9,0.4,1.3s0.2,0.7,0.2,1.1c0,0.1,0,0.2,0,0.2c0.1,0.5,0.1,0.9,0.1,1.4
	s0,1,0,1.5c0,0.3,0,0.5-0.1,0.8c0,0.2-0.1,0.5-0.1,0.7c-0.1,0.5-0.2,1-0.4,1.5c-0.1,0.5-0.3,1-0.5,1.5c-0.2,0.4-0.3,0.8-0.5,1.1
	c-0.1,0.1-0.1,0.2-0.2,0.3c-0.3,0.5-0.5,1-0.8,1.4c-0.3,0.5-0.7,1-1.1,1.4c-0.2,0.2-0.5,0.5-0.7,0.8c0,0-0.1,0.1-0.1,0.2
	c-0.1,0.1-0.2,0.2-0.3,0.3c-0.1,0.1-0.4,0.4-0.5,0.5s-0.2,0.2-0.4,0.3c-0.1,0.1-0.4,0.3-0.5,0.4l-0.1,0.1c-0.1,0.1-0.2,0.1-0.3,0.2
	c-0.2,0.2-0.5,0.3-0.8,0.4c-0.2,0.1-0.3,0.2-0.5,0.2c-0.3,0.1-0.6,0.2-0.9,0.3c-0.5,0.1-0.9,0.3-1.4,0.4c-0.2,0.1-0.5,0.1-0.7,0.2
	c-0.1,0-0.2,0-0.3,0.1c-0.1,0-0.2,0-0.3,0s-0.2,0-0.3,0c-0.1,0-0.2,0-0.3,0c-0.2,0-0.4,0-0.6,0c-0.1,0-0.2,0-0.4,0
	c-0.3,0-0.6,0-0.8,0h-0.7c-0.2,0-0.5,0-0.7,0h-0.1c-0.2,0-0.4,0-0.6,0.1c-0.3,0-0.4,0.1-0.6,0.1c-0.3,0.1-0.7,0.1-1,0.2
	c-0.2,0-0.3,0-0.5,0c-0.1,0-0.2,0-0.2,0s0,0-0.1,0s-0.1,0-0.2,0s-0.2,0-0.2,0c-0.1,0-0.2,0-0.2-0.1c-0.2,0-0.3-0.1-0.5-0.2
	s-0.4-0.2-0.5-0.3c-0.2-0.1-0.3-0.2-0.5-0.3c-0.2-0.1-0.3-0.2-0.5-0.3c-0.3-0.2-0.5-0.3-0.8-0.4l-0.1-0.1c-0.2-0.1-0.3-0.2-0.5-0.3
	c-0.2-0.1-0.4-0.2-0.5-0.2c-0.2-0.1-0.4-0.2-0.6-0.2c-0.1,0-0.1,0-0.2-0.1c-0.4-0.1-0.8-0.3-1.1-0.5c-0.3-0.1-0.6-0.2-0.9-0.3
	c-0.3-0.1-0.7-0.3-1-0.4c-0.4-0.2-0.8-0.3-1.2-0.5c-0.8-0.3-1.5-0.7-2.3-1c-0.2-0.1-0.4-0.2-0.7-0.3c-0.6-0.2-1.1-0.5-1.7-0.7
	c-0.8-0.3-1.5-0.7-2.3-1c-0.4-0.2-0.8-0.3-1.3-0.5c-0.4-0.1-0.9-0.3-1.3-0.4h-0.1c-0.3-0.1-0.5-0.1-0.8-0.1s-0.5,0-0.8,0
	c-0.4,0-0.8,0-1.2,0.1c-0.3,0-0.7,0.1-1,0.2s-0.6,0.2-0.8,0.4c-0.2,0.1-0.5,0.3-0.7,0.5S82.2,99,82,99.2c-0.1,0.1-0.2,0.2-0.2,0.3
	c0,0.1-0.1,0.1-0.1,0.2s-0.1,0.1-0.1,0.2s-0.1,0.1-0.1,0.2s-0.1,0.1-0.1,0.2s-0.1,0.3-0.2,0.4c-0.1,0.3-0.1,0.6-0.2,0.9
	c0,0.3-0.1,0.7-0.1,1s0,0.7,0.1,1c0.1,0.4,0.2,0.7,0.3,1.1c0.1,0.4,0.3,0.8,0.5,1.1c0.1,0.2,0.2,0.4,0.4,0.6
	c0.1,0.2,0.3,0.4,0.5,0.6c0,0.1,0.1,0.1,0.2,0.2c0.3,0.3,0.6,0.5,0.9,0.8c0.3,0.2,0.6,0.4,1,0.7c0.6,0.4,1.3,0.8,1.9,1.2
	c0.1,0,0.1,0.1,0.2,0.1c0.6,0.3,1.1,0.7,1.7,1s1.2,0.7,1.8,1.1c0,0,0.1,0,0.1,0.1c0.5,0.3,1.1,0.6,1.6,1c0,0,0.1,0,0.1,0.1
	c0.3,0.2,0.6,0.4,0.9,0.7c0.2,0.1,0.3,0.2,0.5,0.4c0,0,0.1,0,0.1,0.1c0.2,0.2,0.5,0.3,0.8,0.5h0.1c0.2,0.1,0.3,0.2,0.5,0.2
	c0.2,0.1,0.5,0.2,0.7,0.3c0,0,0,0,0.1,0c0.3,0.1,0.6,0.3,0.8,0.4c0,0,0,0,0.1,0c0.1,0.1,0.2,0.2,0.3,0.2c0,0,0.1,0.1,0.2,0.1
	l0.1,0.1l0.1,0.1l0.1,0.1l0.1,0.1c0,0,0.1,0.1,0.1,0.2c0.1,0.2,0.2,0.5,0.4,0.7c0.1,0.2,0.1,0.3,0.2,0.4s0.2,0.2,0.4,0.3
	c0.1,0.1,0.2,0.1,0.3,0.2c0.3,0.1,0.6,0.2,1,0.3c0.4,0.1,0.9,0.2,1.3,0.4c0.2,0.1,0.4,0.1,0.6,0.2c0.1,0,0.2,0.1,0.3,0.1
	c0.1,0,0.2,0.1,0.3,0.1c0.1,0.1,0.2,0.1,0.3,0.1c0.1,0,0.2,0.1,0.3,0.2c0.2,0.1,0.4,0.2,0.6,0.3c0.4,0.2,0.8,0.5,1.1,0.8
	c0.2,0.2,0.5,0.4,0.7,0.6c0.1,0.1,0.2,0.2,0.3,0.3c0.1,0.2,0.3,0.4,0.4,0.6l0,0c0.1,0.1,0.1,0.2,0.1,0.3c0,0.1,0,0.1,0.1,0.2
	c0,0.1,0,0.1,0.1,0.2c0,0.1,0,0.2,0.1,0.3c0,0.1,0,0.2,0,0.3c0,0.1,0,0.2,0,0.3c0,0.1,0,0.2,0,0.2c0,0.1,0,0.2,0,0.2
	c0,0.1,0,0.3,0,0.4c0,0.2-0.1,0.5-0.1,0.7c0,0,0,0,0,0.1c0,0.4-0.1,0.8-0.2,1.2c0,0.1,0,0.1,0,0.2c-0.1,0.4-0.2,0.8-0.3,1.3
	c-0.1,0.4-0.2,0.8-0.4,1.3c-0.2,0.4-0.3,0.8-0.5,1.3c-0.2,0.4-0.4,0.8-0.6,1.2s-0.4,0.8-0.6,1.2s-0.4,0.8-0.6,1.2l0,0
	c-0.2,0.4-0.4,0.8-0.6,1.2s-0.4,0.8-0.7,1.1c-0.2,0.4-0.4,0.7-0.7,1.1c-0.2,0.3-0.5,0.7-0.7,1c-0.1,0.1-0.1,0.2-0.2,0.2
	c-0.2,0.2-0.3,0.5-0.5,0.7c-0.2,0.3-0.5,0.6-0.7,0.9c-0.2,0.3-0.5,0.5-0.7,0.8c-0.2,0.2-0.3,0.3-0.5,0.5c-0.1,0-0.1,0.1-0.2,0.2
	c-0.2,0.2-0.4,0.4-0.7,0.6c-0.2,0.2-0.4,0.3-0.7,0.5c-0.2,0.1-0.4,0.3-0.7,0.4c-0.2,0.1-0.4,0.2-0.7,0.3c-0.2,0.1-0.4,0.2-0.7,0.2
	c-0.2,0.1-0.4,0.1-0.7,0.2c-0.2,0-0.5,0.1-0.7,0.1s-0.5,0-0.7,0s-0.5,0-0.7-0.1c-0.2,0-0.5-0.1-0.7-0.2c-0.2-0.1-0.4-0.1-0.6-0.2
	c-0.1-0.1-0.2-0.1-0.3-0.2l-0.1-0.1l-0.1-0.1l-0.1-0.1c-0.1,0-0.1-0.1-0.1-0.1c-0.1-0.1-0.2-0.1-0.2-0.2c-0.1-0.1-0.3-0.3-0.4-0.5
	s-0.2-0.4-0.3-0.6c0-0.1-0.1-0.2-0.1-0.3s0-0.1,0-0.2c0-0.1,0-0.1,0-0.2v-0.2c0-0.1,0-0.1,0-0.2c0-0.1,0-0.3,0-0.4
	c0-0.3,0.1-0.6,0.1-0.9c0.1-0.3,0.1-0.6,0.2-1c0.1-0.3,0.2-0.7,0.3-1c0.1-0.3,0.2-0.7,0.3-1c0.1-0.3,0.2-0.6,0.3-1
	c0.1-0.3,0.1-0.6,0.2-0.9c0-0.1,0-0.3,0-0.4c0,0,0-0.1,0-0.2v-0.1v-0.2c0-0.1,0-0.1,0-0.2c0-0.1,0-0.2,0-0.3c0-0.2-0.1-0.4-0.2-0.6
	c-0.1-0.2-0.2-0.3-0.3-0.5c-0.1-0.1-0.2-0.2-0.3-0.3c-0.1-0.1-0.2-0.1-0.4-0.1c-0.1,0-0.2,0-0.4,0c-0.1,0-0.3,0.1-0.4,0.2
	c-0.1,0.1-0.1,0.1-0.2,0.2c0,0,0,0.1-0.1,0.1c0,0,0,0.1-0.1,0.1c0,0,0,0.1-0.1,0.1c0,0,0,0.1-0.1,0.1c0,0.1-0.1,0.2-0.1,0.4
	c-0.1,0.3-0.2,0.6-0.2,0.9c-0.1,0.3-0.1,0.7-0.2,1s-0.2,0.7-0.3,1c-0.1,0.3-0.2,0.6-0.3,1c-0.1,0.3-0.2,0.6-0.4,0.8
	c-0.1,0.2-0.3,0.5-0.5,0.6l-0.1,0.1c-0.1,0-0.1,0.1-0.2,0.1s-0.1,0.1-0.2,0.1s-0.1,0-0.2,0s-0.1,0-0.2,0s-0.2,0-0.2,0
	c-0.1,0-0.2,0-0.3,0c0,0-0.1,0-0.2,0c-0.3-0.1-0.7-0.2-1-0.4c-0.4-0.2-0.7-0.4-1-0.6c-0.4-0.2-0.7-0.5-1.1-0.7s-0.7-0.5-1.1-0.8
	s-0.7-0.5-1.1-0.8c-0.3-0.2-0.7-0.5-1-0.7c-0.1-0.1-0.3-0.2-0.4-0.3c-0.1,0-0.1-0.1-0.2-0.1c0,0-0.1-0.1-0.2-0.1s-0.1-0.1-0.2-0.1
	c0,0-0.1,0-0.2-0.1c-0.1,0-0.2-0.1-0.3-0.1c-0.2-0.1-0.4-0.1-0.6-0.1c-0.1,0-0.3,0-0.4,0s-0.2,0.1-0.2,0.2c-0.1,0.1-0.1,0.2-0.1,0.3
	s0,0.3,0.1,0.4c0.1,0.2,0.2,0.3,0.3,0.5c0.1,0.1,0.2,0.2,0.2,0.3l0.1,0.1l0.1,0.1l0.1,0.1c0.1,0,0.1,0.1,0.2,0.1
	c0.1,0.1,0.2,0.2,0.4,0.3c0.3,0.2,0.6,0.5,0.9,0.7s0.7,0.5,1,0.7s0.6,0.5,1,0.7c0.3,0.2,0.6,0.4,0.9,0.7c0.2,0.2,0.5,0.4,0.7,0.6
	c0.1,0.1,0.3,0.3,0.4,0.5v0.1c0,0,0,0.1,0,0.2v0.1v0.1c0,0,0,0.1-0.1,0.1l-0.1,0.1c0,0-0.1,0.1-0.2,0.1h-0.1
	c-0.2,0.1-0.5,0.1-0.7,0.2c-0.3,0-0.7,0.1-1,0.1c-0.4,0-0.8,0-1.2,0.1c-0.4,0-0.8,0-1.2,0c-0.4,0-0.8,0-1.3,0.1
	c-0.4,0-0.8,0.1-1.2,0.1c-0.2,0-0.3,0-0.5,0.1c-0.1,0-0.1,0-0.2,0s-0.1,0-0.2,0s-0.1,0-0.2,0s-0.1,0-0.2,0s-0.2,0.1-0.3,0.1
	c-0.2,0.1-0.4,0.2-0.5,0.3s-0.2,0.2-0.3,0.4c-0.1,0.1-0.1,0.3-0.1,0.4c0,0.1,0.1,0.3,0.1,0.4c0.1,0.1,0.2,0.3,0.4,0.4
	c0.2,0.1,0.4,0.2,0.6,0.3c0.1,0,0.2,0.1,0.3,0.1c0.1,0,0.1,0,0.2,0s0.1,0,0.2,0s0.1,0,0.2,0s0.1,0,0.2,0c0.2,0,0.3,0,0.5,0
	c0.4,0,0.8,0.1,1.2,0.1c0.4,0,0.8,0,1.2,0c0.4,0,0.8,0,1.2,0c0.3,0,0.7,0,1.1,0c0.3,0,0.6,0,0.8,0c0.2,0,0.4,0,0.5,0.1
	c0,0,0,0,0.1,0c0,0,0.1,0,0.1,0.1c0,0,0,0,0,0.1v0.1c0,0,0,0.1-0.1,0.1l-0.1,0.1c-0.1,0-0.1,0.1-0.2,0.1c0,0-0.1,0-0.1,0.1
	c-0.2,0.2-0.6,0.3-0.8,0.4c-0.3,0.2-0.8,0.4-1.1,0.5c-0.4,0.2-0.9,0.4-1.3,0.6c-0.5,0.2-1,0.4-1.4,0.7c-0.5,0.2-1,0.5-1.5,0.7
	c-0.4,0.2-0.9,0.5-1.3,0.7c-0.2,0.1-0.4,0.2-0.6,0.3c-0.1,0.1-0.2,0.1-0.2,0.2c-0.1,0-0.1,0.1-0.2,0.1c-0.1,0.1-0.1,0.1-0.2,0.1
	c-0.1,0.1-0.1,0.1-0.2,0.2c-0.1,0.1-0.2,0.2-0.4,0.3c-0.2,0.2-0.4,0.5-0.6,0.7c-0.1,0.2-0.3,0.4-0.3,0.6c-0.1,0.2-0.1,0.4-0.1,0.6
	c0,0.2,0.1,0.3,0.2,0.4c0.1,0.1,0.3,0.2,0.4,0.3c0.2,0.1,0.4,0.1,0.6,0.1c0.1,0,0.3,0,0.4,0s0.1,0,0.2,0s0.1,0,0.2,0s0.1,0,0.2-0.1
	c0.1,0,0.2,0,0.2-0.1c0.2-0.1,0.4-0.1,0.6-0.2c0.4-0.2,0.9-0.4,1.3-0.6c0.5-0.2,1-0.5,1.5-0.7s1-0.5,1.5-0.7s0.9-0.5,1.4-0.7
	c0.4-0.2,0.8-0.4,1.2-0.5c0.3-0.1,0.7-0.2,1-0.3h0.1c0.1,0,0.2,0,0.3,0c0.1,0,0.1,0,0.2,0c0,0,0.1,0,0.2,0c0,0,0.1,0,0.1,0.1
	l0.1,0.1c0,0.1,0.1,0.1,0.1,0.2c0,0,0,0,0,0.1c0,0.2,0,0.5,0,0.8c-0.1,0.3-0.2,0.7-0.3,1c-0.1,0.4-0.3,0.8-0.4,1.2
	c-0.2,0.4-0.3,0.9-0.5,1.3c-0.2,0.4-0.3,0.9-0.5,1.3c-0.2,0.4-0.3,0.8-0.5,1.2c-0.1,0.2-0.1,0.3-0.2,0.5c0,0.1,0,0.2-0.1,0.2
	c0,0.1,0,0.1,0,0.2c0,0.1,0,0.1,0,0.2c0,0.1,0,0.1,0,0.2c0,0.1,0,0.3,0,0.4c0,0.2,0,0.5,0.1,0.7c0,0.2,0.1,0.4,0.2,0.5
	s0.2,0.2,0.3,0.3c0.1,0.1,0.2,0.1,0.4,0.1c0.2,0,0.3,0,0.4-0.1c0.2-0.1,0.3-0.2,0.5-0.3c0.1-0.1,0.2-0.2,0.2-0.2l0.1-0.1l0.1-0.1
	c0-0.1,0.1-0.1,0.1-0.2c0-0.1,0.1-0.1,0.1-0.2c0.1-0.1,0.1-0.3,0.2-0.4c0.2-0.3,0.3-0.7,0.5-1c0.2-0.4,0.3-0.8,0.5-1.2
	s0.3-0.8,0.5-1.2s0.3-0.8,0.5-1.2s0.4-0.8,0.5-1.1c0.2-0.3,0.4-0.7,0.6-1c0.1-0.1,0.2-0.3,0.3-0.4c0-0.1,0.1-0.1,0.2-0.2
	c0.1-0.1,0.1-0.1,0.2-0.2l0.1-0.1l0,0c0.1-0.1,0.1-0.1,0.2-0.1c0.1-0.1,0.2-0.2,0.4-0.2c0.3-0.2,0.5-0.3,0.8-0.4
	c0.3-0.1,0.6-0.1,0.9-0.2c0.2,0,0.3,0,0.5,0c0.1,0,0.1,0,0.2,0l0,0h0.5c0.1,0,0.2,0,0.2,0c0.2,0,0.3,0,0.5,0c0.4,0,0.7,0,1.1,0.1
	c0.4,0,0.8,0,1.1,0c0.4,0,0.8,0,1.2,0c0.4,0,0.8-0.1,1.2-0.1c0.4-0.1,0.8-0.2,1.2-0.3c0.3-0.1,0.6-0.2,0.9-0.3
	c0.1,0,0.2-0.1,0.3-0.1c0.4-0.2,0.8-0.3,1.2-0.5c0.4-0.2,0.8-0.4,1.2-0.6c0.4-0.2,0.8-0.5,1.1-0.7c0.4-0.2,0.7-0.5,1-0.8
	s0.7-0.6,1-0.9c0.3-0.3,0.6-0.7,0.9-1s0.5-0.7,0.8-1.1c0.2-0.4,0.5-0.7,0.7-1.1c0.2-0.4,0.4-0.8,0.6-1.1c0.2-0.4,0.4-0.8,0.6-1.2
	s0.4-0.8,0.5-1.2c0.2-0.4,0.3-0.8,0.5-1.2s0.3-0.8,0.5-1.2s0.3-0.8,0.5-1.1c0.2-0.4,0.3-0.7,0.5-1.1c0.2-0.3,0.4-0.7,0.6-1
	s0.4-0.6,0.6-0.9c0.2-0.3,0.5-0.6,0.7-0.8c0.3-0.3,0.5-0.5,0.8-0.7s0.7-0.5,1-0.7c0.2-0.1,0.5-0.3,0.7-0.4c0.1-0.1,0.2-0.1,0.4-0.2
	c0.1-0.1,0.2-0.1,0.3-0.2c0,0,0.1,0,0.1-0.1c0.1-0.1,0.2-0.1,0.3-0.1c0.1,0,0.2-0.1,0.3-0.1h0.1c0.1,0,0.2,0,0.3,0
	c0.1,0,0.3,0,0.4,0c0.3,0,0.5,0,0.8,0.1c0.5,0.1,1,0.3,1.5,0.5s1.1,0.4,1.6,0.7c0.6,0.2,1.2,0.5,1.8,0.8c0.7,0.3,1.3,0.6,2,0.9
	c0.7,0.3,1.4,0.6,2.1,0.9c0.8,0.3,1.5,0.6,2.3,0.9c0.8,0.3,1.6,0.6,2.4,0.9c0.9,0.3,1.7,0.6,2.6,0.8c0.9,0.3,1.8,0.5,2.7,0.7
	s1.9,0.4,2.8,0.6c1,0.2,1.9,0.3,2.9,0.5c1,0.1,2,0.2,3,0.3s2,0.2,3,0.2s2,0,3,0s2-0.1,3-0.2c1-0.1,2-0.2,3-0.4s2-0.3,3-0.5
	s2-0.4,2.9-0.7c1-0.2,1.9-0.5,2.9-0.8c0.9-0.3,1.9-0.6,2.8-0.8c0.9-0.3,1.8-0.6,2.7-0.9c0.9-0.3,1.8-0.6,2.6-0.9
	c0.8-0.3,1.7-0.6,2.5-0.9c0.8-0.3,1.6-0.5,2.4-0.8c0.8-0.2,1.5-0.5,2.3-0.7c0.7-0.2,1.5-0.4,2.2-0.6c0.7-0.2,1.4-0.4,2.1-0.5
	c0.7-0.1,1.3-0.3,2-0.4c0.2,0,0.3-0.1,0.5-0.1c0.5-0.1,0.9-0.1,1.4-0.2c0.6-0.1,1.2-0.1,1.9-0.1c0.3,0,0.7,0,1,0
	c0.2,0,0.4,0,0.5,0.1h0.1c0.1,0,0.3,0.1,0.5,0.1s0.3,0.1,0.5,0.2c0.1,0,0.3,0.1,0.4,0.2c0,0,0,0,0.1,0c0.1,0.1,0.3,0.2,0.4,0.3
	c0.2,0.1,0.5,0.4,0.7,0.5c0.4,0.3,0.8,0.7,1.2,1.1c0.3,0.4,0.7,0.8,1,1.2s0.6,0.9,0.9,1.3c0.3,0.5,0.6,0.9,0.8,1.4s0.5,1,0.7,1.5
	s0.4,1,0.5,1.6c0.2,0.5,0.3,1.1,0.4,1.6c0.1,0.5,0.2,1.1,0.3,1.6s0.1,1.1,0.2,1.6c0,0.5,0.1,1.1,0.1,1.6s0.1,1,0.1,1.6
	c0,0.5,0.1,1,0.2,1.5c0.1,0.5,0.2,1,0.2,1.5c0.1,0.5,0.2,0.9,0.4,1.4s0.3,0.9,0.5,1.3c0.2,0.4,0.5,0.9,0.8,1.3
	c0.3,0.4,0.6,0.8,0.9,1.2c0.3,0.4,0.7,0.7,1.1,1.1c0.4,0.3,0.8,0.7,1.3,1s0.9,0.6,1.4,0.9c0.5,0.3,1,0.5,1.5,0.7l0,0
	c0.6,0.2,1.1,0.4,1.7,0.6c0.6,0.2,1.2,0.3,1.8,0.5s1.2,0.3,1.8,0.4c0.6,0.1,1.2,0.2,1.8,0.3s1.1,0.2,1.7,0.2c0.2,0,0.5,0.1,0.8,0.1
	l0,0c0.1,0,0.2,0,0.4,0.1s0.2,0,0.3,0.1c0.1,0,0.2,0,0.3,0.1s0.2,0,0.3,0.1c0.2,0,0.4,0.1,0.6,0.1c0.3,0.1,0.6,0.2,0.9,0.4
	c0.1,0.1,0.2,0.2,0.3,0.3s0.1,0.1,0.2,0.2c0,0.1,0.1,0.2,0.1,0.3s0,0.1,0,0.2c0,0.1,0,0.1,0,0.2c0,0.1,0,0.1-0.1,0.2
	c0,0.1-0.1,0.2-0.1,0.2c-0.1,0.2-0.2,0.3-0.3,0.5v0.1c-0.2,0.3-0.5,0.7-0.8,1c-0.4,0.4-0.8,0.9-1.2,1.3c-0.5,0.5-0.9,0.9-1.4,1.4
	s-1,1-1.5,1.4c-0.5,0.5-1,1-1.4,1.5s-0.9,0.9-1.3,1.4c-0.2,0.2-0.3,0.4-0.5,0.7c-0.1,0.1-0.2,0.2-0.2,0.3c-0.1,0.1-0.1,0.2-0.2,0.3
	c-0.1,0.1-0.1,0.2-0.2,0.3c-0.1,0.1-0.1,0.2-0.2,0.3c-0.1,0.2-0.2,0.4-0.3,0.6c-0.1,0.2-0.1,0.4-0.2,0.5c0,0.2-0.1,0.4-0.1,0.6
	c0,0.3,0,0.6,0,0.9c0,0.2,0.1,0.5,0.3,0.7c0.1,0.2,0.3,0.3,0.6,0.4c0.2,0.1,0.5,0.1,0.8,0.1s0.6-0.1,0.9-0.2l0,0
	c0.2-0.1,0.4-0.2,0.5-0.3c0.1,0,0.2-0.1,0.3-0.2c0.1-0.1,0.2-0.1,0.3-0.2c0.1-0.1,0.2-0.1,0.3-0.2c0.1-0.1,0.2-0.2,0.3-0.2
	c0.2-0.2,0.4-0.4,0.6-0.6c0.4-0.4,0.9-0.9,1.3-1.4c0.4-0.5,0.9-1,1.3-1.5c0.4-0.5,0.8-1,1.3-1.5c0.4-0.5,0.8-0.9,1.2-1.4
	c0.3-0.4,0.7-0.8,1.1-1.1c0.3-0.2,0.6-0.5,1-0.7c0.1,0,0.3-0.1,0.4-0.1c0.1,0,0.1,0,0.2,0s0.1,0,0.2,0c0.1,0,0.1,0.1,0.2,0.1
	c0,0,0.1,0.1,0.1,0.2c0.1,0.1,0.2,0.3,0.2,0.5c0.2,0.4,0.2,0.9,0.3,1.3c0.1,0.6,0.2,1.2,0.2,1.7c0,0.6,0.1,1.3,0.1,2
	s0.1,1.4,0.1,2.1c0,0.7,0.1,1.4,0.1,2.1c0,0.6,0.1,1.3,0.2,2c0,0.3,0.1,0.6,0.2,0.8c0,0.1,0.1,0.3,0.1,0.4c0,0.1,0.1,0.2,0.1,0.4
	c0,0.1,0.1,0.2,0.1,0.3s0.1,0.2,0.1,0.3c0.1,0.2,0.2,0.4,0.3,0.5c0.2,0.3,0.4,0.5,0.7,0.8c0.2,0.2,0.5,0.3,0.8,0.3s0.6,0,0.8-0.1
	c0.3-0.1,0.6-0.2,0.8-0.4c0.3-0.2,0.5-0.5,0.7-0.8s0.4-0.7,0.5-1.1c0.1-0.2,0.1-0.4,0.2-0.7c0-0.1,0-0.2,0.1-0.3c0-0.1,0-0.2,0-0.4
	s0-0.2,0-0.4c0-0.1,0-0.3,0-0.4c0-0.3,0-0.6,0-0.9c0-0.6-0.1-1.3-0.2-1.9c-0.1-0.7-0.2-1.3-0.3-2s-0.3-1.3-0.4-2
	c-0.1-0.6-0.3-1.2-0.4-1.8c-0.1-0.5-0.2-1-0.3-1.5c-0.1-0.4-0.1-0.8-0.1-1.2c0-0.1,0-0.3,0-0.4c0,0,0-0.1,0-0.2c0,0,0-0.1,0.1-0.1
	h0.1h0.1c0.1,0,0.2,0.1,0.3,0.1c0.3,0.1,0.6,0.4,0.8,0.5c0.3,0.3,0.7,0.6,1,0.9c0.4,0.4,0.8,0.8,1.2,1.2s0.8,0.9,1.3,1.3
	c0.4,0.4,0.9,0.9,1.3,1.3c0.4,0.4,0.8,0.8,1.3,1.1c0.2,0.2,0.4,0.3,0.6,0.5c0.1,0.1,0.2,0.1,0.3,0.2c0.1,0.1,0.2,0.1,0.3,0.2
	c0.1,0.1,0.2,0.1,0.2,0.1c0.1,0,0.2,0.1,0.2,0.1c0.2,0.1,0.3,0.1,0.5,0.2c0.3,0.1,0.6,0.2,0.9,0.1c0.3,0,0.5,0,0.8-0.2
	c0.2-0.1,0.4-0.2,0.6-0.4c0.2-0.2,0.3-0.4,0.4-0.6c0.1-0.3,0.1-0.5,0.1-0.8s-0.1-0.6-0.1-0.9c-0.1-0.2-0.1-0.3-0.2-0.5
	c0-0.1-0.1-0.1-0.1-0.2l0,0c0-0.1-0.1-0.2-0.1-0.2c0-0.1-0.1-0.2-0.1-0.2s0-0.1-0.1-0.1c0-0.1-0.1-0.1-0.1-0.1
	c-0.1-0.2-0.2-0.4-0.4-0.5c-0.3-0.4-0.7-0.8-1-1.2c-0.4-0.4-0.8-0.8-1.1-1.2c-0.4-0.4-0.8-0.7-1.2-1.1c-0.3-0.3-0.7-0.7-1-1
	s-0.6-0.6-0.9-0.9c-0.2-0.2-0.4-0.5-0.6-0.8c0-0.1-0.1-0.2-0.1-0.3V162v-0.1v-0.1l0.1-0.1c0.1-0.1,0.2-0.1,0.3-0.1
	c0.3-0.1,0.6-0.1,0.8-0.1c0.4,0,0.8,0,1.1,0c0.5,0,0.9,0,1.3,0.1c0.5,0,1,0,1.5,0.1c0.5,0,1,0,1.5,0c0.4,0,0.9,0,1.3-0.1
	c0.1,0,0.1,0,0.1,0c0.2,0,0.4-0.1,0.6-0.1c0.1,0,0.2,0,0.3-0.1c0.1,0,0.2,0,0.2-0.1c0.1,0,0.2,0,0.2-0.1c0.1,0,0.1-0.1,0.2-0.1
	c0.2-0.1,0.3-0.2,0.4-0.2c0.3-0.2,0.5-0.4,0.7-0.6c0.2-0.2,0.3-0.5,0.5-0.8c0.1-0.2,0.2-0.5,0.2-0.8s0-0.5,0-0.8
	c-0.1-0.3-0.2-0.5-0.3-0.7s-0.3-0.4-0.6-0.6c-0.1-0.1-0.2-0.1-0.4-0.2c-0.1,0-0.1,0-0.2-0.1c-0.1,0-0.1,0-0.2,0c-0.1,0-0.1,0-0.2,0
	c-0.1,0-0.2,0-0.2,0c-0.2,0-0.4,0-0.6,0c-0.5,0-0.9,0-1.4,0s-1,0.1-1.5,0.2c-0.5,0.1-1,0.1-1.5,0.2c-0.5,0.1-1,0.1-1.4,0.2
	c-0.2,0-0.5,0-0.8,0.1c-0.2,0-0.3,0-0.5,0c-0.3,0-0.6,0-0.9-0.1c-0.1,0-0.2-0.1-0.3-0.1l-0.1-0.1l-0.1-0.1v-0.1c0-0.1,0-0.1,0-0.2
	c0-0.1,0.1-0.3,0.1-0.4c0.1-0.2,0.2-0.5,0.3-0.7c0-0.1,0.1-0.2,0.1-0.2c0.2-0.4,0.5-0.8,0.8-1.2s0.6-0.9,0.9-1.3
	c0.3-0.5,0.7-0.9,1-1.4s0.7-0.9,1-1.4c0.3-0.4,0.6-0.9,0.9-1.4c0.1-0.2,0.2-0.4,0.3-0.6c0-0.1,0.1-0.1,0.1-0.2c0,0,0,0,0-0.1
	s0.1-0.1,0.1-0.2c0-0.1,0-0.1,0.1-0.2v-0.1v-0.1c0-0.2,0.1-0.3,0.1-0.5c0-0.3,0-0.6,0-0.9c0-0.3-0.1-0.5-0.3-0.8
	c-0.1-0.2-0.3-0.4-0.5-0.5s-0.4-0.2-0.6-0.3c-0.2,0-0.5-0.1-0.8,0c-0.3,0-0.6,0.1-0.8,0.3c-0.1,0.1-0.3,0.2-0.4,0.2
	c0,0-0.1,0-0.1,0.1c0,0-0.1,0-0.1,0.1c-0.1,0-0.1,0.1-0.2,0.1c-0.1,0-0.1,0.1-0.2,0.1l-0.2,0.2c-0.2,0.2-0.3,0.3-0.4,0.5
	c-0.3,0.4-0.7,0.9-1,1.3c-0.4,0.5-0.7,1-1,1.5s-0.7,1.1-1.1,1.6c-0.4,0.5-0.7,1.1-1.1,1.6c-0.4,0.5-0.8,1-1.2,1.5s-0.8,0.9-1.2,1.3
	c-0.2,0.2-0.4,0.4-0.6,0.6c-0.1,0.1-0.2,0.2-0.3,0.3c-0.1,0-0.1,0.1-0.2,0.1l-0.1,0.1c-0.1,0.1-0.2,0.1-0.3,0.2s-0.2,0.1-0.3,0.2
	c-0.2,0.1-0.5,0.2-0.7,0.3c-0.5,0.2-1,0.4-1.4,0.5c-0.5,0.1-1,0.2-1.5,0.2c-0.1,0-0.1,0-0.2,0c-0.2,0-0.4,0-0.5,0s-0.3,0-0.4,0
	s-0.3,0-0.4,0c-0.1,0-0.3,0-0.4,0c-0.1,0-0.3,0-0.4,0c-0.3,0-0.5-0.1-0.8-0.1c-0.5-0.1-1.1-0.2-1.6-0.4s-1.1-0.3-1.6-0.5
	s-1.1-0.4-1.6-0.5c-0.5-0.2-1-0.4-1.5-0.6c-0.5-0.2-0.9-0.4-1.4-0.6c-0.4-0.2-0.9-0.4-1.3-0.7c-0.4-0.2-0.8-0.5-1.2-0.8
	c-0.4-0.2-0.7-0.5-1-0.8s-0.6-0.6-0.9-0.9c-0.3-0.3-0.5-0.6-0.7-1c-0.2-0.3-0.4-0.7-0.5-1.1c-0.2-0.4-0.3-0.8-0.4-1.2
	c-0.1-0.4-0.1-0.8-0.2-1.2c0-0.1,0-0.1,0-0.2c0-0.5-0.1-1-0.1-1.5s0-1.1,0.1-1.6c0.1-0.6,0.1-1.2,0.2-1.8c0.1-0.6,0.2-1.3,0.3-1.9
	c0-0.2,0.1-0.4,0.1-0.6c0.1-0.5,0.2-1,0.3-1.5c0.1-0.8,0.3-1.5,0.5-2.3s0.3-1.6,0.5-2.4c0.2-0.9,0.4-1.7,0.6-2.5
	c0.2-0.9,0.5-1.7,0.8-2.6s0.6-1.8,0.9-2.6s0.7-1.7,1.1-2.5c0.3-0.7,0.6-1.3,1-1.9c0.1-0.2,0.2-0.4,0.3-0.5c0.5-0.8,1-1.6,1.6-2.4
	c0.3-0.4,0.6-0.8,0.9-1.2c0.2-0.2,0.3-0.4,0.5-0.6s0.4-0.4,0.6-0.6c0.2-0.2,0.4-0.4,0.6-0.5c0.2-0.2,0.4-0.4,0.7-0.5
	c0.4-0.3,0.9-0.7,1.4-1c0.9-0.6,1.8-1.1,2.8-1.6s2-0.9,3.1-1.3c0.1,0,0.1,0,0.2-0.1c1.1-0.4,2.2-0.7,3.2-1c1.2-0.3,2.5-0.6,3.8-0.8
	c1.4-0.2,2.7-0.4,4.1-0.6c1.5-0.2,2.9-0.3,4.4-0.3c1.6-0.1,3.1-0.1,4.7-0.1c1.6,0,3.3,0.1,5,0.1c1.7,0.1,3.5,0.2,5.2,0.4
	c1.8,0.2,3.5,0.4,5.3,0.6s3.6,0.5,5.3,0.8c1,0.2,1.9,0.4,2.8,0.5c0.8,0.2,1.6,0.4,2.5,0.5c1.7,0.4,3.5,0.8,5.2,1.3s3.3,1,5,1.6
	c1.6,0.5,3.2,1.2,4.7,1.8c0.1,0,0.1,0,0.2,0.1c1.4,0.6,2.8,1.3,4.1,2c1.4,0.7,2.7,1.5,4,2.2c1.2,0.7,2.4,1.5,3.6,2.3
	c0.8,0.6,1.6,1.1,2.4,1.7c0.3,0.2,0.5,0.4,0.8,0.6c1,0.7,1.9,1.5,2.8,2.2c0.8,0.7,1.7,1.4,2.5,2.1c0.7,0.6,1.4,1.2,2.1,1.8
	c0.3,0.2,0.6,0.5,0.9,0.8c0.1,0.1,0.3,0.2,0.4,0.3s0.3,0.2,0.4,0.3s0.3,0.2,0.4,0.3s0.2,0.2,0.4,0.3c0.2,0.2,0.5,0.3,0.7,0.4
	c0,0,0,0,0.1,0c0.3,0.2,0.7,0.4,1,0.5c0.1,0.1,0.3,0.1,0.5,0.1c0.1,0,0.1,0,0.2,0c0.2,0,0.3-0.1,0.3-0.3
	C316.4,131.6,316.3,131.4,316.3,131.2z"/>
<path id="DDS:_front_legs" class="st2" d="M139.1,108.1c-0.5,1.4-1,2.8-1.7,4.2c-3,6-8.8,12.8-10.2,14.5c-1.8,2.1-2.8,3.2-3.8,4.1
	c-0.7-0.3-1.3-0.6-2-0.9c-0.6-0.3-1.2-0.5-1.8-0.8c-0.5-0.2-1.1-0.5-1.6-0.7s-1-0.4-1.5-0.5c-0.2,0-0.5-0.1-0.8-0.1
	c-0.1,0-0.3,0-0.4,0s-0.2,0-0.3,0h-0.1c-0.1,0-0.2,0-0.3,0.1c-0.1,0-0.2,0.1-0.3,0.1c0,0-0.1,0-0.1,0.1c-0.1,0.1-0.2,0.1-0.3,0.2
	c-0.1,0.1-0.2,0.1-0.4,0.2c-0.2,0.1-0.5,0.3-0.7,0.4c-0.3,0.2-0.7,0.5-1,0.7s-0.6,0.5-0.8,0.7c-0.3,0.2-0.5,0.5-0.7,0.8
	s-0.4,0.6-0.6,0.9c-0.2,0.3-0.4,0.7-0.6,1s-0.3,0.7-0.5,1.1c-0.2,0.4-0.3,0.7-0.5,1.1c-0.2,0.4-0.3,0.8-0.5,1.2s-0.3,0.8-0.5,1.2
	s-0.3,0.8-0.5,1.2s-0.4,0.8-0.6,1.2s-0.4,0.8-0.6,1.1c-0.2,0.4-0.5,0.8-0.7,1.1c-0.2,0.4-0.5,0.7-0.8,1.1c-0.3,0.3-0.6,0.7-0.9,1
	s-0.6,0.6-1,0.9c-0.3,0.3-0.7,0.6-1,0.8c-0.4,0.3-0.7,0.5-1.1,0.7s-0.8,0.4-1.2,0.6c-0.4,0.2-0.8,0.3-1.2,0.5
	c-0.1,0-0.2,0.1-0.3,0.1c-0.3,0.1-0.6,0.2-0.9,0.3c-0.4,0.1-0.8,0.2-1.2,0.3c-0.4,0.1-0.8,0.1-1.2,0.1c-0.4,0-0.8,0-1.2,0
	c-0.4,0-0.8,0-1.1,0c-0.4,0-0.7,0-1.1-0.1c-0.2,0-0.3,0-0.5,0c-0.1,0-0.2,0-0.2,0H89l0,0c-0.1,0-0.1,0-0.2,0c-0.2,0-0.3,0-0.5,0
	c-0.3,0-0.6,0.1-0.9,0.2c-0.3,0.1-0.5,0.2-0.8,0.4c-0.1,0.1-0.2,0.2-0.4,0.2c-0.1,0-0.1,0.1-0.2,0.1l0,0l-0.1,0.1
	c-0.1,0-0.1,0.1-0.2,0.2c-0.1,0.1-0.1,0.1-0.2,0.2c-0.1,0.1-0.2,0.3-0.3,0.4c-0.2,0.3-0.4,0.7-0.6,1c-0.2,0.4-0.4,0.8-0.5,1.1
	c-0.2,0.4-0.3,0.8-0.5,1.2s-0.3,0.8-0.5,1.2s-0.3,0.8-0.5,1.2c-0.1,0.3-0.3,0.7-0.5,1c-0.1,0.1-0.1,0.3-0.2,0.4c0,0-0.1,0.1-0.1,0.2
	c0,0-0.1,0.1-0.1,0.2l-0.1,0.1l-0.1,0.1c-0.1,0.1-0.1,0.2-0.2,0.2c-0.1,0.1-0.3,0.2-0.5,0.3c-0.1,0.1-0.3,0.1-0.4,0.1
	s-0.3,0-0.4-0.1s-0.2-0.2-0.3-0.3c-0.1-0.2-0.2-0.4-0.2-0.5c0-0.2-0.1-0.5-0.1-0.7c0-0.1,0-0.3,0-0.4c0-0.1,0-0.1,0-0.2
	c0-0.1,0-0.1,0-0.2c0-0.1,0-0.1,0-0.2c0-0.1,0-0.2,0.1-0.2c0-0.2,0.1-0.4,0.2-0.5c0.1-0.4,0.3-0.8,0.5-1.2s0.3-0.9,0.5-1.3
	c0.2-0.4,0.4-0.8,0.5-1.3c0.1-0.4,0.3-0.8,0.4-1.2c0.1-0.3,0.2-0.7,0.3-1c0-0.2,0.1-0.5,0-0.8c0,0,0,0,0-0.1s0-0.2-0.1-0.2
	c0,0,0-0.1-0.1-0.1l-0.1-0.1c-0.1,0-0.1,0-0.2,0s-0.1,0-0.2,0s-0.2,0-0.3,0h-0.1c-0.3,0.1-0.7,0.2-1,0.3c-0.4,0.1-0.8,0.3-1.2,0.5
	c-0.5,0.2-0.9,0.5-1.4,0.7s-1,0.5-1.5,0.7s-1,0.5-1.5,0.7c-0.4,0.2-0.9,0.4-1.3,0.6c-0.2,0.1-0.4,0.2-0.6,0.2c-0.1,0-0.2,0-0.2,0.1
	c-0.1,0-0.1,0-0.2,0.1c-0.1,0-0.1,0-0.2,0s-0.1,0-0.2,0s-0.3,0-0.4,0c-0.2,0-0.4,0-0.6-0.1s-0.3-0.2-0.4-0.3s-0.2-0.3-0.2-0.4
	c0-0.2,0-0.4,0.1-0.6c0.1-0.2,0.2-0.4,0.3-0.6c0.2-0.2,0.4-0.5,0.6-0.7c0.1-0.1,0.2-0.2,0.4-0.3c0.1-0.1,0.1-0.1,0.2-0.2
	c0.1,0,0.1-0.1,0.2-0.1s0.1-0.1,0.2-0.1s0.2-0.1,0.2-0.2c0.2-0.1,0.4-0.2,0.6-0.3c0.4-0.2,0.9-0.5,1.3-0.7c0.5-0.2,1-0.5,1.5-0.7
	s1-0.4,1.4-0.7c0.4-0.2,0.9-0.4,1.3-0.6c0.4-0.2,0.8-0.3,1.1-0.5c0.3-0.1,0.6-0.3,0.8-0.4c0,0,0.1,0,0.1-0.1c0.1,0,0.1-0.1,0.2-0.1
	l0.1-0.1c0,0,0,0,0.1-0.1c0,0,0,0,0-0.1c0,0,0,0,0-0.1c0,0,0-0.1-0.1-0.1c0,0,0,0-0.1,0c-0.1-0.1-0.4-0.1-0.5-0.1
	c-0.3,0-0.6,0-0.8,0c-0.3,0-0.7,0-1.1,0s-0.8,0-1.2,0c-0.4,0-0.8,0-1.2,0c-0.4,0-0.8,0-1.2-0.1c-0.2,0-0.3,0-0.5,0
	c-0.1,0-0.1,0-0.2,0s-0.1,0-0.2,0s-0.1,0-0.2,0s-0.1,0-0.2,0s-0.2-0.1-0.3-0.1c-0.2-0.1-0.4-0.2-0.6-0.3c-0.1-0.1-0.3-0.2-0.4-0.4
	c-0.1-0.1-0.1-0.2-0.1-0.4c0-0.1,0-0.3,0.1-0.4c0.1-0.1,0.2-0.3,0.3-0.4c0.2-0.1,0.3-0.2,0.5-0.3c0.1,0,0.2-0.1,0.3-0.1
	c0.1,0,0.1,0,0.2,0c0,0,0.1,0,0.2,0s0.1,0,0.2,0s0.1,0,0.2,0c0.2,0,0.3,0,0.5-0.1c0.4,0,0.8-0.1,1.2-0.1c0.4,0,0.9,0,1.3-0.1
	c0.4,0,0.8,0,1.2,0c0.4,0,0.8,0,1.2-0.1c0.3,0,0.7-0.1,1-0.1c0.2,0,0.5-0.1,0.7-0.2h0.1c0.1,0,0.1,0,0.2-0.1c0,0,0.1,0,0.1-0.1
	l0.1-0.1v-0.1V140c0-0.1,0-0.1,0-0.2v-0.1c-0.1-0.2-0.3-0.4-0.4-0.5c-0.2-0.2-0.5-0.4-0.7-0.6c-0.3-0.2-0.6-0.4-0.9-0.7
	c-0.3-0.2-0.6-0.5-1-0.7c-0.3-0.2-0.6-0.5-1-0.7c-0.3-0.2-0.6-0.4-0.9-0.7c-0.1-0.1-0.2-0.2-0.4-0.3c0,0-0.1-0.1-0.2-0.1l-0.1-0.1
	l-0.1-0.1l-0.1-0.1c-0.1-0.1-0.2-0.2-0.2-0.3c-0.1-0.2-0.2-0.3-0.3-0.5c-0.1-0.1-0.1-0.3-0.1-0.4c0-0.1,0-0.2,0.1-0.3
	s0.1-0.2,0.2-0.2s0.3,0,0.4,0c0.2,0,0.4,0.1,0.6,0.1c0.1,0,0.2,0.1,0.3,0.1c0,0,0.1,0,0.2,0.1c0,0,0.1,0.1,0.2,0.1
	c0,0,0.1,0.1,0.2,0.1s0.1,0.1,0.2,0.1c0.1,0.1,0.3,0.2,0.4,0.3c0.3,0.2,0.7,0.5,1,0.7c0.4,0.3,0.7,0.5,1.1,0.8s0.7,0.5,1.1,0.8
	c0.3,0.2,0.7,0.5,1.1,0.7c0.3,0.2,0.7,0.4,1,0.6c0.3,0.1,0.6,0.3,1,0.4c0,0,0.1,0,0.2,0s0.2,0,0.3,0c0.1,0,0.2,0,0.2,0
	c0.1,0,0.1,0,0.2,0s0.1,0,0.2,0s0.1,0,0.2-0.1c0.1,0,0.1-0.1,0.2-0.1l0.1-0.1c0.2-0.2,0.4-0.4,0.5-0.6c0.2-0.3,0.3-0.5,0.4-0.8
	s0.2-0.6,0.3-1c0.1-0.3,0.2-0.7,0.3-1c0.1-0.3,0.1-0.7,0.2-1s0.2-0.6,0.2-0.9c0-0.1,0.1-0.2,0.1-0.4c0,0,0-0.1,0.1-0.1
	c0,0,0-0.1,0.1-0.1c0,0,0-0.1,0.1-0.1c0,0,0-0.1,0.1-0.1c0-0.1,0.1-0.1,0.2-0.2c0.1-0.1,0.2-0.2,0.4-0.2c0.1,0,0.2-0.1,0.4,0
	c0.1,0,0.2,0.1,0.4,0.1c0.1,0.1,0.2,0.2,0.3,0.3c0.1,0.1,0.2,0.3,0.3,0.5c0.1,0.2,0.1,0.4,0.2,0.6c0,0.1,0,0.2,0,0.3
	c0,0,0,0.1,0,0.2v0.2v0.1c0,0.1,0,0.1,0,0.2c0,0.1,0,0.3,0,0.4c0,0.3-0.1,0.6-0.2,0.9c-0.1,0.3-0.2,0.7-0.3,1
	c-0.1,0.3-0.2,0.7-0.3,1c-0.1,0.3-0.2,0.7-0.3,1c-0.1,0.3-0.2,0.6-0.2,1c-0.1,0.3-0.1,0.6-0.1,0.9c0,0.1,0,0.3,0,0.4
	c0,0.1,0,0.1,0,0.2v0.2c0,0.1,0,0.1,0,0.2c0,0.1,0,0.1,0,0.2c0,0.1,0.1,0.2,0.1,0.3c0.1,0.2,0.2,0.4,0.3,0.6
	c0.1,0.2,0.2,0.4,0.4,0.5c0.1,0.1,0.2,0.2,0.2,0.2l0.1,0.1l0.1,0.1c0.1,0,0.1,0.1,0.1,0.1s0.1,0,0.1,0.1c0.1,0,0.2,0.1,0.3,0.2
	c0.2,0.1,0.4,0.2,0.6,0.2c0.2,0.1,0.5,0.1,0.7,0.2c0.2,0,0.5,0.1,0.7,0.1s0.5,0,0.7,0s0.5,0,0.7-0.1c0.2,0,0.5-0.1,0.7-0.2
	c0.2-0.1,0.5-0.2,0.7-0.2c0.2-0.1,0.5-0.2,0.7-0.3s0.5-0.3,0.7-0.4c0.2-0.2,0.5-0.3,0.7-0.5s0.5-0.4,0.7-0.6
	c0.1-0.1,0.1-0.1,0.2-0.2c0.2-0.2,0.3-0.3,0.5-0.5s0.5-0.5,0.7-0.8s0.5-0.6,0.7-0.9c0.2-0.2,0.3-0.5,0.5-0.7
	c0.1-0.1,0.1-0.2,0.2-0.2c0.2-0.3,0.5-0.7,0.7-1s0.5-0.7,0.7-1.1c0.2-0.4,0.4-0.8,0.7-1.1c0.2-0.4,0.4-0.8,0.6-1.2l0,0
	c0.2-0.4,0.4-0.8,0.6-1.2s0.4-0.8,0.6-1.2s0.4-0.8,0.6-1.2s0.3-0.8,0.5-1.3c0.1-0.4,0.3-0.8,0.4-1.3c0.1-0.4,0.2-0.8,0.3-1.3
	c0-0.1,0-0.1,0-0.2c0.1-0.4,0.1-0.8,0.2-1.2c0,0,0,0,0-0.1c0-0.2,0.1-0.5,0.1-0.7c0-0.1,0-0.3,0-0.4s0-0.2,0-0.2c0-0.1,0-0.2,0-0.2
	c0-0.1,0-0.2,0-0.3c0-0.1,0-0.2,0-0.3c0-0.1,0-0.2-0.1-0.3c0-0.1,0-0.1-0.1-0.2c0-0.1,0-0.1-0.1-0.2c0-0.1-0.1-0.2-0.1-0.3l0,0
	c-0.1-0.2-0.2-0.4-0.4-0.6c-0.1-0.1-0.2-0.2-0.3-0.3c2-1.1,3.9-2.6,5.7-4.5c2.8-3.1,5.7-7.9,6.7-12.7c0.2-0.1,0.3-0.1,0.5-0.2
	c0.3-0.1,0.5-0.3,0.8-0.4c0.1-0.1,0.2-0.1,0.3-0.2l0.1-0.1c0.2-0.1,0.4-0.3,0.5-0.4s0.2-0.2,0.4-0.3c0.1-0.1,0.4-0.3,0.5-0.5
	c0.1-0.1,0.2-0.2,0.3-0.3c0-0.1,0.1-0.1,0.1-0.2c0.2-0.2,0.5-0.5,0.7-0.8c0.4-0.4,0.7-0.9,1.1-1.4c0.3-0.5,0.6-0.9,0.8-1.4
	c0.1-0.1,0.1-0.2,0.2-0.3c0.2-0.4,0.4-0.7,0.5-1.1c0.2-0.5,0.4-1,0.5-1.5c0.2-0.5,0.3-1,0.4-1.5c0-0.2,0.1-0.5,0.1-0.7
	c0-0.3,0.1-0.5,0.1-0.8c0-0.5,0-1,0-1.5s-0.1-0.9-0.1-1.4c0-0.1,0-0.2,0-0.2c-0.1-0.4-0.1-0.8-0.2-1.1c-0.1-0.4-0.2-0.9-0.4-1.3
	c-0.1-0.4-0.3-0.8-0.5-1.2c-0.2-0.4-0.4-0.8-0.6-1.2c-0.2-0.4-0.4-0.7-0.6-1.1c-0.2-0.3-0.4-0.7-0.7-1c-0.2-0.3-0.4-0.6-0.7-0.9
	c-0.2-0.3-0.4-0.5-0.7-0.8c-0.2-0.2-0.4-0.4-0.7-0.7c-0.2-0.2-0.4-0.4-0.7-0.5c-0.1-0.1-0.2-0.1-0.4-0.2c0,0-0.1-0.1-0.2-0.1
	s-0.1,0-0.2-0.1c-0.1,0-0.1,0-0.2-0.1c-0.1,0-0.1,0-0.2-0.1c-0.1,0-0.3-0.1-0.4-0.1c-0.3,0-0.5-0.1-0.8-0.1s-0.6,0-0.9,0.1
	c-0.2,0-0.3,0.1-0.5,0.1c-0.1,0-0.2,0-0.2,0.1c-0.1,0-0.2,0.1-0.2,0.1c-0.1,0-0.2,0.1-0.3,0.1c-0.1,0-0.2,0.1-0.3,0.1
	c-0.2,0.1-0.4,0.2-0.5,0.2c-0.4,0.2-0.8,0.3-1.1,0.5c-0.4,0.2-0.8,0.4-1.2,0.6c-0.4,0.2-0.8,0.4-1.2,0.6c-0.4,0.2-0.8,0.4-1.2,0.6
	c-0.4,0.2-0.8,0.4-1.1,0.6c-0.3,0.2-0.7,0.3-1,0.5c-0.1,0.1-0.3,0.1-0.5,0.2c-0.1,0-0.1,0-0.2,0.1c-0.1,0-0.1,0-0.2,0
	c0,0-0.1,0-0.2,0c0,0-0.1,0-0.2,0s-0.2,0-0.4,0c-0.2,0-0.4,0-0.6-0.1c-0.2,0-0.3-0.1-0.5-0.2c-0.1-0.1-0.2-0.2-0.3-0.4
	c-0.1-0.1-0.1-0.3-0.1-0.5s0-0.4,0.1-0.5c0.1-0.2,0.2-0.4,0.3-0.6c0.1-0.1,0.2-0.2,0.2-0.3c0-0.1,0.1-0.1,0.1-0.1l0.1-0.1
	c0,0,0.1-0.1,0.2-0.1c0,0,0.1-0.1,0.2-0.1c0.1-0.1,0.3-0.2,0.4-0.3c0.3-0.2,0.7-0.4,1.1-0.6s0.8-0.4,1.2-0.6
	c0.4-0.2,0.8-0.4,1.1-0.5c0.3-0.2,0.7-0.4,1-0.5s0.6-0.3,0.8-0.5c0.2-0.1,0.4-0.3,0.5-0.4c0,0,0,0,0-0.1l0.1-0.1v-0.1v-0.1
	c0,0,0-0.1-0.1-0.1l-0.1-0.1c-0.1,0-0.1-0.1-0.2-0.1h-0.1c-0.3-0.1-0.6-0.2-0.9-0.2c-0.4-0.1-0.8-0.1-1.2-0.2
	c-0.5-0.1-0.9-0.1-1.4-0.2s-1-0.1-1.5-0.2s-1-0.2-1.5-0.2c-0.4-0.1-0.9-0.2-1.3-0.3c-0.2-0.1-0.4-0.1-0.6-0.2
	c-0.1,0-0.1-0.1-0.2-0.1s-0.1-0.1-0.2-0.1s-0.1-0.1-0.2-0.1s-0.1-0.1-0.2-0.1c-0.1-0.1-0.2-0.1-0.3-0.2c-0.2-0.2-0.4-0.3-0.5-0.5
	s-0.2-0.4-0.2-0.6s0-0.4,0-0.6s0.2-0.4,0.3-0.5c0.1-0.2,0.3-0.3,0.5-0.4s0.5-0.2,0.7-0.3c0.1,0,0.3-0.1,0.4-0.1s0.1,0,0.2,0
	s0.1,0,0.2,0s0.1,0,0.2,0h0.2c0.2,0,0.4,0,0.6,0c0.4,0,0.9,0.1,1.3,0.2c0.5,0.1,0.9,0.2,1.4,0.3c0.5,0.1,0.9,0.2,1.4,0.3
	c0.4,0.1,0.9,0.2,1.3,0.3c0.3,0.1,0.7,0.1,1.1,0.2c0.3,0,0.6,0.1,0.9,0.1h0.1c0.1,0,0.2,0,0.2,0h0.1c0,0,0.1,0,0.1-0.1
	c0,0,0,0,0.1-0.1v-0.1c0-0.1,0-0.1,0-0.2c0,0,0,0,0-0.1c0-0.2-0.2-0.4-0.2-0.6c-0.2-0.3-0.3-0.5-0.5-0.8s-0.4-0.6-0.6-0.9
	s-0.5-0.6-0.7-1c-0.2-0.3-0.5-0.6-0.7-1c-0.2-0.3-0.4-0.6-0.6-0.9c-0.1-0.1-0.2-0.3-0.2-0.4s-0.1-0.1-0.1-0.2s0-0.1-0.1-0.2
	c0,0,0-0.1-0.1-0.2c0-0.1,0-0.1-0.1-0.2c0-0.1,0-0.2-0.1-0.3c0-0.2,0-0.4,0-0.6c0-0.2,0.1-0.3,0.2-0.5c0.1-0.1,0.2-0.2,0.4-0.3
	c0.2-0.1,0.3-0.1,0.5-0.2c0.2,0,0.4,0,0.6,0s0.5,0.1,0.7,0.2c0.1,0.1,0.2,0.1,0.3,0.2c0,0,0.1,0.1,0.2,0.1c0,0,0.1,0.1,0.2,0.1
	s0.1,0.1,0.2,0.1s0.1,0.1,0.2,0.1c0.1,0.1,0.2,0.2,0.4,0.3c0.3,0.3,0.5,0.6,0.8,0.9c0.3,0.3,0.5,0.6,0.8,1c0.3,0.3,0.5,0.6,0.8,1
	c0.2,0.3,0.5,0.6,0.7,0.9c0.2,0.2,0.4,0.5,0.7,0.7c0.2,0.2,0.4,0.3,0.6,0.5h0.1c0.1,0,0.1,0,0.2,0.1h0.1h0.1c0,0,0.1,0,0.1-0.1
	c0,0,0.1,0,0.1-0.1c0,0,0.1-0.1,0.1-0.2v-0.1c0.1-0.2,0.2-0.5,0.2-0.7c0.1-0.3,0.1-0.6,0.1-1s0.1-0.8,0.1-1.2c0-0.4,0-0.8,0.1-1.2
	c0-0.4,0-0.9,0.1-1.3c0-0.4,0.1-0.8,0.1-1.2c0-0.2,0-0.3,0.1-0.5c0-0.1,0-0.1,0-0.2c0-0.1,0-0.1,0-0.2c0-0.1,0-0.1,0-0.2
	c0-0.1,0-0.1,0.1-0.2c0-0.1,0.1-0.2,0.1-0.4c0.1-0.2,0.2-0.4,0.4-0.6c0.1-0.2,0.2-0.3,0.4-0.4c0.1-0.1,0.3-0.2,0.4-0.2s0.3,0,0.4,0
	c0.1,0.1,0.3,0.1,0.4,0.3c0.1,0.1,0.2,0.3,0.3,0.5c0,0.1,0.1,0.2,0.1,0.3s0,0.1,0,0.2c0,0.1,0,0.1,0,0.2s0,0.1,0,0.2
	c0,0.1,0,0.1,0,0.2c0,0.2,0,0.3,0,0.5c0,0.4,0,0.8,0,1.2s-0.1,0.9-0.1,1.3s-0.1,0.9-0.1,1.3s0,0.8,0,1.2c0,0.3,0,0.7,0,1.1
	c0,0.3,0.1,0.6,0.1,0.9v0.1c0,0.1,0.1,0.2,0.1,0.2l0.1,0.1l0.1,0.1c0,0,0.1,0,0.1,0.1h0.1c0.1,0,0.2,0,0.2,0h0.1
	c0.2,0,0.5-0.1,0.7-0.2c0.3-0.1,0.6-0.3,0.9-0.5s0.6-0.4,0.9-0.6s0.7-0.5,1-0.7s0.7-0.5,1-0.7s0.6-0.4,0.9-0.6
	c0.1-0.1,0.3-0.1,0.4-0.2c0.1,0,0.1-0.1,0.2-0.1s0.1,0,0.2-0.1c0,0,0.1,0,0.2-0.1h0.1c0.1,0,0.2-0.1,0.3-0.1c0.2,0,0.4,0,0.6,0
	c0.2,0,0.3,0.1,0.4,0.2c0.1,0.1,0.2,0.2,0.3,0.3c0.1,0.1,0.1,0.3,0.1,0.4c0,0.2,0,0.3-0.1,0.5c0,0.2-0.1,0.4-0.2,0.6
	c-0.1,0.1-0.1,0.2-0.2,0.3l-0.1,0.1l-0.1,0.1l-0.1,0.1l-0.1,0.1c-0.1,0.1-0.2,0.2-0.3,0.3c-0.3,0.2-0.5,0.4-0.8,0.6
	s-0.6,0.4-0.9,0.6s-0.6,0.4-0.9,0.6s-0.6,0.4-0.9,0.6s-0.6,0.4-0.8,0.6c-0.2,0.2-0.5,0.4-0.7,0.6c-0.1,0.1-0.2,0.2-0.3,0.3
	c0,0-0.1,0.1-0.1,0.2s-0.1,0.1-0.1,0.2l-0.1,0.1c0,0.1,0,0.1-0.1,0.2c0,0.1-0.1,0.2-0.1,0.3c0,0.2-0.1,0.4,0,0.6
	c0,0.2,0.1,0.4,0.1,0.6c0,0.1,0.1,0.2,0.1,0.3c0,0.1,0.1,0.1,0.1,0.2c0,0,0.1,0.1,0.1,0.2s0.1,0.1,0.1,0.2s0.1,0.1,0.1,0.2
	c0.1,0.1,0.2,0.2,0.3,0.4c0.2,0.2,0.4,0.5,0.6,0.7s0.5,0.5,0.7,0.7c0.3,0.3,0.5,0.5,0.8,0.8s0.6,0.5,0.8,0.8
	c0.3,0.3,0.6,0.6,0.8,0.9c0.3,0.3,0.5,0.6,0.8,0.9s0.5,0.7,0.7,1s0.4,0.7,0.6,1.1c0.2,0.4,0.4,0.8,0.5,1.2c0.1,0.3,0.2,0.7,0.3,1
	c0,0.1,0,0.2,0,0.2c0.1,0.5,0.1,0.9,0.1,1.4s0,1-0.1,1.5c0,0.3-0.1,0.6-0.1,0.9c0,0.2-0.1,0.5-0.1,0.8c-0.1,0.6-0.2,1.1-0.4,1.7
	c-0.1,0.6-0.3,1.1-0.4,1.7c-0.1,0.6-0.3,1.2-0.4,1.8c0,0.1,0,0.2-0.1,0.2c-0.1,0.5-0.2,1-0.3,1.5c-0.1,0.6-0.2,1.3-0.3,1.9
	c0,0.2-0.1,0.4-0.1,0.6c0,0.1,0,0.3,0,0.4s0,0.2,0,0.3c0,0.1,0,0.2,0,0.3c0,0.2,0,0.5,0,0.7v0.2c0,0.2,0,0.5,0.1,0.6
	c0,0.1,0.1,0.3,0.1,0.5c0,0.1,0.1,0.2,0.1,0.3c0,0.2,0.1,0.3,0.2,0.5c0.2,0.5,0.5,0.9,0.8,1.2c0.3,0.3,0.5,0.6,0.9,0.9
	c0.1,0,0.1,0.1,0.2,0.1c0.4,0.3,0.8,0.7,1.2,0.9c0.4,0.3,0.9,0.5,1.4,0.8c0.5,0.2,1,0.4,1.5,0.6c0.2,0.1,0.5,0.2,0.7,0.2
	c0.3,0.1,0.6,0.1,0.9,0.2c0.6,0.1,1.2,0.2,1.7,0.2C138.5,108,138.8,108.1,139.1,108.1z"/>
<path id="DDS:_right_Leg" class="st3" d="M215.5,98.6c-1.1,3.9-3,7.4-6,10.4c-3.6,3.6-10.7,8.1-15.5,6c-3.4-1.5-4.1-5.5-5.5-9.9
	c0.3,0,0.7-0.1,1-0.2s0.6-0.2,0.8-0.3c0.1-0.1,0.3-0.1,0.4-0.2c0.1-0.1,0.3-0.2,0.4-0.3c0.1-0.1,0.2-0.2,0.4-0.4
	c0.1-0.1,0.2-0.2,0.3-0.4c0-0.1,0.1-0.2,0.2-0.2c0.1-0.2,0.2-0.3,0.3-0.5c0.2-0.5,0.4-1,0.5-1.5c0.1-0.3,0.1-0.6,0.1-0.8
	c0-0.2,0-0.5,0-0.7c0-0.6,0-1.2-0.1-1.7c-0.1-0.6-0.2-1.2-0.3-1.8c-0.1-0.6-0.3-1.3-0.5-1.9l0,0c-0.2-0.6-0.4-1.2-0.6-1.8
	c-0.2-0.6-0.5-1.2-0.7-1.8c-0.2-0.6-0.5-1.2-0.8-1.8c-0.2-0.6-0.5-1.1-0.8-1.7c-0.2-0.5-0.5-1.1-0.8-1.6c-0.2-0.5-0.5-1-0.7-1.6
	c-0.2-0.5-0.5-1-0.7-1.5s-0.4-1-0.6-1.5c-0.2-0.5-0.3-1-0.4-1.5c-0.1-0.5-0.2-1-0.3-1.5s-0.1-1-0.1-1.5c0-0.3,0-0.6,0-0.9
	c0-0.2,0-0.4,0-0.6c0-0.5,0.1-0.9,0.1-1.4c0.1-0.5,0.1-0.9,0.2-1.4c0.1-0.4,0.2-0.9,0.2-1.3c0-0.1,0-0.3,0.1-0.4
	c0-0.3,0.1-0.6,0.1-0.9c0.1-0.4,0.1-0.8,0.1-1.2c0-0.4,0.1-0.7,0-1.1v-0.1c0-0.3,0-0.6-0.1-0.9c0-0.3-0.1-0.6-0.2-0.9
	c-0.1-0.3-0.2-0.5-0.3-0.8c-0.1-0.1-0.1-0.2-0.2-0.3c0,0-0.1-0.1-0.1-0.2l-0.1-0.1l-0.1-0.1l-0.1-0.1c-0.1-0.1-0.2-0.1-0.3-0.2
	c-0.2-0.1-0.4-0.2-0.6-0.3c-0.2-0.1-0.5-0.1-0.8-0.1c-0.1,0-0.3,0-0.4,0c-0.1,0-0.1,0-0.2,0c-0.1,0-0.2,0-0.2,0c-0.1,0-0.1,0-0.2,0
	c-0.1,0-0.2,0-0.2,0.1c-0.2,0-0.3,0.1-0.5,0.2c-0.3,0.1-0.7,0.3-1,0.4c-0.3,0.2-0.7,0.3-1,0.5s-0.7,0.4-1,0.6s-0.7,0.4-1,0.6
	s-0.7,0.4-1,0.5s-0.6,0.3-0.9,0.4c-0.1,0-0.3,0.1-0.4,0.1c0,0-0.1,0-0.2,0l0,0h-0.1l0,0H175c-0.1,0-0.2,0-0.3,0
	c-0.2,0-0.3-0.1-0.5-0.2c-0.1-0.1-0.3-0.2-0.3-0.3c-0.1-0.1-0.1-0.3-0.2-0.5c0-0.2,0-0.4,0.1-0.6s0.2-0.5,0.3-0.7
	c0.2-0.3,0.3-0.5,0.6-0.7c0,0,0,0,0-0.1c0.1-0.1,0.2-0.2,0.4-0.3l0.1-0.1c0.1,0,0.1-0.1,0.2-0.1l0.1-0.1c0.2-0.1,0.4-0.3,0.6-0.4
	c0.1-0.1,0.2-0.1,0.3-0.2c0.4-0.2,0.8-0.4,1.2-0.6c0.5-0.3,1-0.5,1.6-0.8c0.5-0.3,1-0.5,1.5-0.8c0.5-0.2,1-0.5,1.4-0.7
	s0.8-0.4,1.2-0.6c0.3-0.2,0.6-0.4,0.8-0.6c0.1-0.1,0.2-0.2,0.3-0.3c0,0,0.1-0.1,0.1-0.2v-0.1c0,0,0-0.1-0.1-0.1l-0.1-0.1
	c-0.1-0.1-0.2-0.1-0.3-0.2c-0.3-0.1-0.7-0.2-1-0.2c-0.4-0.1-0.9-0.1-1.4-0.2c-0.5,0-1.1-0.1-1.6-0.1c-0.6,0-1.2-0.1-1.7-0.1
	s-1-0.1-1.5-0.1c-0.1,0-0.1,0-0.2,0c-0.5,0-1.1-0.1-1.6-0.2c-0.2,0-0.4-0.1-0.7-0.1l0,0c-0.1,0-0.2-0.1-0.3-0.1l0,0
	c-0.1,0-0.3-0.1-0.4-0.2c-0.2-0.1-0.4-0.2-0.5-0.3l0,0l-0.1-0.1c0-0.1-0.1-0.1-0.1-0.2c0-0.1,0-0.3,0.1-0.4c0.1-0.1,0.2-0.3,0.4-0.4
	c0.1-0.1,0.3-0.2,0.4-0.2c0.1,0,0.1,0,0.2-0.1h0.1c0.3-0.1,0.6-0.2,0.9-0.3c0.2,0,0.4-0.1,0.6-0.1l0,0c0.1,0,0.3,0,0.4,0l0,0
	c0.2,0,0.5,0,0.7,0c0.5,0,1.1,0,1.6,0.1c0.1,0,0.1,0,0.2,0c0.5,0,1,0,1.5,0.1c0.5,0,1.1,0.1,1.6,0.1s1,0,1.5,0c0.4,0,0.9,0,1.2,0
	s0.7-0.1,1-0.2c0.1,0,0.2-0.1,0.4-0.2c0.1,0,0.1-0.1,0.2-0.1l0.1-0.1c0-0.1,0-0.1,0-0.2s0-0.1,0-0.2c0-0.2,0-0.3-0.1-0.4
	c-0.1-0.3-0.3-0.7-0.5-1c-0.2-0.4-0.5-0.8-0.7-1.1c-0.3-0.4-0.6-0.8-0.9-1.2c-0.3-0.4-0.7-0.9-1-1.3c-0.3-0.4-0.6-0.8-0.9-1.2
	c0,0-0.1-0.1-0.1-0.2c-0.3-0.4-0.6-0.9-0.9-1.3c-0.1-0.2-0.2-0.4-0.3-0.6l0,0c-0.1-0.1-0.1-0.2-0.2-0.3l0,0
	c-0.1-0.2-0.1-0.3-0.2-0.5c-0.1-0.3-0.1-0.6-0.1-0.9v-0.1c0-0.1,0-0.1,0-0.1c0-0.2,0.1-0.3,0.1-0.5c0.1-0.2,0.2-0.3,0.3-0.5
	c0.2-0.1,0.3-0.2,0.5-0.2s0.3,0,0.5,0l0,0c0,0,0,0,0.1,0c0.3,0.1,0.5,0.2,0.8,0.4c0.1,0.1,0.3,0.2,0.4,0.4l0,0
	c0.1,0.1,0.2,0.2,0.3,0.3l0,0c0.2,0.2,0.3,0.4,0.5,0.6c0.3,0.5,0.7,1,1,1.5c0,0.1,0.1,0.1,0.1,0.2c0.3,0.5,0.6,1,0.9,1.4
	c0.3,0.5,0.7,1.1,1,1.6s0.6,1,1,1.5c0.3,0.4,0.6,0.8,0.9,1.2c0.2,0.3,0.5,0.6,0.8,0.8c0.1,0.1,0.2,0.2,0.4,0.2c0.1,0,0.1,0,0.2,0
	c0.1,0,0.1,0,0.2,0c0.1,0,0.1-0.1,0.2-0.1c0-0.1,0.1-0.1,0.1-0.2c0.1-0.1,0.2-0.3,0.2-0.5c0.1-0.4,0.2-0.9,0.3-1.3
	c0.1-0.5,0.2-1.1,0.2-1.7c0.1-0.7,0.1-1.3,0.2-2c0.1-0.7,0.1-1.4,0.2-2.1c0.1-0.6,0.1-1.2,0.2-1.9l0,0c0-0.1,0-0.2,0-0.2
	c0.1-0.6,0.2-1.4,0.3-2c0.1-0.3,0.1-0.5,0.2-0.8l0,0c0.1-0.2,0.1-0.3,0.2-0.4l0,0c0.1-0.2,0.2-0.4,0.3-0.6c0.2-0.3,0.5-0.5,0.8-0.7
	c0,0,0.1,0,0.1-0.1c0.2-0.1,0.5-0.2,0.7-0.3c0.3,0,0.5,0,0.8,0c0.3,0.1,0.5,0.2,0.8,0.4c0.2,0.1,0.4,0.3,0.5,0.5c0,0,0,0.1,0.1,0.1
	c0,0,0,0.1,0.1,0.1c0.2,0.3,0.4,0.6,0.5,1c0.1,0.2,0.1,0.4,0.1,0.7l0,0c0,0.2,0,0.3,0,0.5l0,0c0,0.3,0,0.6,0,0.8
	c0,0.6-0.2,1.3-0.3,1.9c0,0.1,0,0.2,0,0.2v0.1c-0.1,0.6-0.2,1.1-0.4,1.7c-0.1,0.7-0.3,1.4-0.5,2c-0.1,0.6-0.3,1.3-0.4,1.9
	c-0.1,0.6-0.2,1.2-0.3,1.8c-0.1,0.5-0.1,1-0.1,1.5c0,0.2,0,0.5,0.1,0.7c0,0.1,0,0.2,0.1,0.3c0,0.1,0.1,0.2,0.1,0.3s0.1,0.1,0.2,0.2
	c0.1,0.1,0.1,0.1,0.2,0.2c0.1,0.1,0.3,0.2,0.4,0.2c0.3,0.1,0.7,0.2,1,0.2c0.4,0,0.8,0,1.2-0.1c0.5,0,0.9-0.1,1.4-0.2
	c0.5-0.1,1-0.2,1.5-0.3c0.4-0.1,0.9-0.2,1.3-0.3h0.2c0.4-0.1,1-0.2,1.4-0.2c0.2,0,0.4,0,0.6,0l0,0c0.1,0,0.2,0,0.4,0l0,0
	c0.2,0,0.3,0.1,0.5,0.1c0.3,0.1,0.6,0.2,0.8,0.4c0,0,0,0,0.1,0.1c0.2,0.2,0.4,0.3,0.5,0.5c0.2,0.2,0.3,0.4,0.4,0.7
	c0.1,0.2,0.2,0.4,0.2,0.7c0,0.2,0,0.4-0.1,0.6c0,0,0,0,0,0.1c-0.1,0.2-0.2,0.4-0.3,0.5s-0.2,0.2-0.3,0.2l0,0c-0.1,0-0.2,0.1-0.2,0.1
	l0,0c-0.2,0-0.3,0.1-0.5,0.1c-0.4,0.1-0.8,0.1-1.2,0.1H205c-0.4,0-0.8,0-1.2,0c-0.5,0-0.9,0-1.4-0.1c-0.5,0-1-0.1-1.4-0.1
	c-0.5,0-0.9,0-1.4,0s-0.9,0-1.3,0.1c-0.2,0-0.4,0-0.6,0.1c-0.1,0-0.2,0-0.3,0.1c-0.1,0-0.2,0-0.3,0.1c-0.1,0-0.2,0-0.3,0.1
	c-0.1,0-0.2,0.1-0.2,0.1c-0.2,0.1-0.3,0.1-0.5,0.2c-0.3,0.2-0.5,0.4-0.7,0.6c-0.2,0.2-0.4,0.5-0.6,0.8c0,0.1-0.1,0.1-0.1,0.2
	c0,0.1-0.1,0.2-0.1,0.2c0,0.1-0.1,0.1-0.1,0.2c0,0.1-0.1,0.2-0.1,0.2c0,0.1-0.1,0.2-0.1,0.2c0,0.1-0.1,0.2-0.1,0.2
	c-0.1,0.2-0.1,0.3-0.2,0.5c-0.1,0.4-0.2,0.7-0.3,1.1c-0.1,0.4-0.2,0.8-0.3,1.2s-0.2,0.8-0.3,1.2s-0.2,0.8-0.4,1.2
	c-0.1,0.4-0.3,0.8-0.4,1.3c-0.2,0.4-0.3,0.9-0.4,1.3c-0.1,0.4-0.3,0.9-0.4,1.3s-0.2,0.9-0.3,1.4l0,0c-0.1,0.5-0.2,0.9-0.3,1.4
	s-0.1,1-0.2,1.5c0,0.5,0,1,0,1.5s0,1.1,0.1,1.6s0.2,1.1,0.3,1.6l0,0c0.1,0.6,0.3,1.1,0.4,1.7c0.2,0.6,0.3,1.1,0.5,1.7
	s0.4,1.2,0.7,1.7c0.2,0.6,0.5,1.2,0.8,1.8c0.3,0.6,0.6,1.2,0.9,1.8c0.3,0.6,0.6,1.2,1,1.8c0.3,0.6,0.7,1.2,1.1,1.7
	c0.4,0.6,0.8,1.1,1.2,1.7s0.9,1.1,1.4,1.6c0.3,0.2,0.5,0.5,0.8,0.7s0.6,0.5,0.9,0.7c0.6,0.5,1.3,0.9,2,1.2c0.8,0.4,1.6,0.7,2.4,1
	c0.4,0.1,0.9,0.3,1.3,0.4c0.5,0.1,1,0.2,1.6,0.4c0.6,0.1,1.1,0.2,1.8,0.3c0.2,0,0.3,0,0.5,0s0.3,0,0.5,0l0,0c0.2,0,0.4,0,0.6,0
	c0.2,0,0.4,0,0.6,0c0.4,0,0.9,0,1.3,0c0.4,0,0.8,0,1.2-0.1C214.7,98.7,215.1,98.7,215.5,98.6z"/>
<path id="DDS:_Left_Leg" class="st4" d="M247.4,158.3c0,0.3-0.1,0.5-0.2,0.8c-0.1,0.3-0.3,0.5-0.5,0.8c-0.2,0.2-0.5,0.5-0.7,0.6
	c-0.1,0.1-0.3,0.2-0.4,0.2c-0.1,0-0.1,0.1-0.2,0.1c-0.1,0-0.2,0.1-0.2,0.1c-0.1,0-0.2,0-0.2,0.1c-0.1,0-0.2,0-0.3,0.1
	c-0.2,0-0.4,0.1-0.6,0.1H244c-0.4,0-0.9,0.1-1.3,0.1c-0.5,0-1,0-1.5,0s-1,0-1.5-0.1c-0.4,0-0.9-0.1-1.3-0.1c-0.4,0-0.8,0-1.1,0
	s-0.6,0-0.8,0.1c-0.1,0-0.2,0.1-0.3,0.1c0,0-0.1,0-0.1,0.1v0.1v0.1v0.1c0,0.1,0.1,0.2,0.1,0.3c0.2,0.3,0.4,0.5,0.6,0.8
	c0.3,0.3,0.6,0.6,0.9,0.9c0.3,0.3,0.7,0.7,1,1c0.4,0.4,0.8,0.7,1.2,1.1c0.4,0.4,0.8,0.8,1.1,1.2s0.7,0.8,1,1.2
	c0.1,0.2,0.3,0.3,0.4,0.5l0.1,0.1c0,0,0,0.1,0.1,0.1c0,0.1,0.1,0.2,0.1,0.2c0,0.1,0.1,0.2,0.1,0.2l0,0c0,0.1,0.1,0.1,0.1,0.2
	c0.1,0.2,0.1,0.3,0.2,0.5c0.1,0.3,0.1,0.6,0.1,0.9c0,0.3,0,0.5-0.1,0.8c-0.1,0.2-0.2,0.5-0.4,0.6c-0.2,0.2-0.4,0.3-0.6,0.4
	c-0.2,0.1-0.5,0.2-0.8,0.2s-0.6,0-0.9-0.1c-0.2,0-0.3-0.1-0.5-0.2c-0.1,0-0.2-0.1-0.2-0.1c-0.1,0-0.2-0.1-0.2-0.1
	c-0.1,0-0.2-0.1-0.3-0.2c-0.1-0.1-0.2-0.1-0.3-0.2c-0.2-0.2-0.4-0.3-0.6-0.5c-0.4-0.4-0.9-0.8-1.3-1.1c-0.4-0.4-0.9-0.8-1.3-1.3
	c-0.4-0.4-0.8-0.9-1.3-1.3c-0.4-0.4-0.8-0.8-1.2-1.2c-0.3-0.3-0.7-0.6-1-0.9c-0.2-0.2-0.5-0.4-0.8-0.5c-0.1,0-0.2-0.1-0.3-0.1H231
	h-0.1l-0.1,0.1c0,0,0,0.1,0,0.2c0,0.1,0,0.3,0,0.4c0,0.4,0,0.8,0.1,1.2c0.1,0.5,0.2,1,0.3,1.5c0.1,0.6,0.2,1.2,0.4,1.8
	c0.1,0.7,0.3,1.3,0.4,2c0.1,0.7,0.2,1.3,0.3,2c0.1,0.6,0.2,1.3,0.2,1.9c0,0.3,0,0.6,0,0.9c0,0.1,0,0.3,0,0.4c0,0.1,0,0.2,0,0.4
	s0,0.2,0,0.4c0,0.1,0,0.2-0.1,0.3c0,0.2-0.1,0.4-0.2,0.7c-0.1,0.4-0.3,0.8-0.5,1.1s-0.4,0.6-0.7,0.8c-0.2,0.2-0.5,0.4-0.8,0.4
	c-0.3,0.1-0.5,0.1-0.8,0.1s-0.6-0.2-0.8-0.3c-0.3-0.2-0.5-0.5-0.7-0.8c-0.1-0.2-0.2-0.3-0.3-0.5c0-0.1-0.1-0.2-0.1-0.3
	s-0.1-0.2-0.1-0.3s-0.1-0.2-0.1-0.4c0-0.1-0.1-0.2-0.1-0.4c-0.1-0.3-0.1-0.6-0.2-0.8c-0.1-0.6-0.2-1.3-0.2-2s-0.1-1.4-0.1-2.1
	c0-0.7-0.1-1.4-0.1-2.1c0-0.7-0.1-1.4-0.1-2s-0.1-1.2-0.2-1.7c-0.1-0.4-0.2-0.9-0.3-1.3c-0.1-0.1-0.1-0.3-0.2-0.5
	c0-0.1-0.1-0.1-0.1-0.2c0,0-0.1-0.1-0.2-0.1c-0.1,0-0.1,0-0.2,0s-0.1,0-0.2,0c-0.1,0-0.3,0.1-0.4,0.1c-0.3,0.2-0.7,0.4-1,0.7
	c-0.4,0.3-0.8,0.7-1.1,1.1c-0.4,0.4-0.8,0.9-1.2,1.4s-0.8,1-1.3,1.5c-0.4,0.5-0.9,1-1.3,1.5c-0.4,0.5-0.8,0.9-1.3,1.4
	c-0.2,0.2-0.4,0.4-0.6,0.6c-0.1,0.1-0.2,0.2-0.3,0.2c-0.1,0.1-0.2,0.2-0.3,0.2c-0.1,0.1-0.2,0.1-0.3,0.2c-0.1,0.1-0.2,0.1-0.3,0.2
	c-0.2,0.1-0.3,0.2-0.5,0.3l0,0c-0.3,0.1-0.6,0.2-0.9,0.2c-0.3,0-0.5,0-0.8-0.1c-0.2-0.1-0.4-0.2-0.6-0.4c-0.2-0.2-0.3-0.4-0.3-0.7
	c-0.1-0.3-0.1-0.6,0-0.9c0-0.2,0.1-0.4,0.1-0.6c0-0.2,0.1-0.3,0.2-0.5c0.1-0.2,0.2-0.4,0.3-0.6c0-0.1,0.1-0.2,0.2-0.3
	c0.1-0.1,0.1-0.2,0.2-0.3c0.1-0.1,0.1-0.2,0.2-0.3c0.1-0.1,0.2-0.2,0.2-0.3c0.2-0.2,0.3-0.5,0.5-0.7c0.4-0.5,0.8-1,1.3-1.4
	c0.5-0.5,1-1,1.4-1.5c0.5-0.5,1-1,1.5-1.4s0.9-0.9,1.4-1.4c0.4-0.4,0.8-0.8,1.2-1.3c0.3-0.3,0.6-0.7,0.8-1v-0.1
	c0.1-0.1,0.2-0.3,0.3-0.5c0-0.1,0.1-0.2,0.1-0.2c0-0.1,0-0.1,0.1-0.2c0-0.1,0-0.1,0-0.2c0-0.1,0-0.1,0-0.2c0-0.1,0-0.2-0.1-0.3
	c0-0.1-0.1-0.2-0.2-0.2c-0.1-0.1-0.2-0.2-0.3-0.3c-0.3-0.2-0.6-0.3-0.9-0.4c-0.2,0-0.4-0.1-0.6-0.1c-0.1,0-0.2,0-0.3-0.1
	s-0.2,0-0.3-0.1c-0.1,0-0.2,0-0.3-0.1s-0.2,0-0.4-0.1l0,0c-0.2,0-0.5-0.1-0.8-0.1c-0.6-0.1-1.1-0.2-1.7-0.2
	c-0.6-0.1-1.2-0.2-1.8-0.3s-1.2-0.2-1.8-0.4c-0.6-0.1-1.2-0.3-1.8-0.5s-1.1-0.4-1.7-0.6l0,0c-0.5-0.2-1-0.5-1.5-0.7
	c-0.5-0.3-1-0.5-1.4-0.9c-0.4-0.3-0.9-0.6-1.3-1c-0.4-0.3-0.8-0.7-1.1-1.1c-0.3-0.4-0.7-0.8-0.9-1.2c-0.3-0.4-0.5-0.8-0.8-1.3
	c-0.2-0.4-0.4-0.9-0.5-1.3s-0.3-0.9-0.4-1.4c-0.1-0.5-0.2-1-0.2-1.5c-0.1-0.5-0.1-1-0.2-1.5c0-0.5-0.1-1-0.1-1.6
	c0-0.5-0.1-1.1-0.1-1.6c-0.1-0.5-0.1-1.1-0.2-1.6c-0.1-0.5-0.2-1.1-0.3-1.6s-0.3-1.1-0.4-1.6c-0.2-0.5-0.3-1.1-0.5-1.6
	s-0.4-1-0.7-1.5c-0.2-0.5-0.5-1-0.8-1.4c-0.3-0.5-0.6-0.9-0.9-1.3c-0.3-0.4-0.7-0.8-1-1.2c-0.4-0.4-0.8-0.8-1.2-1.1
	c-0.2-0.2-0.5-0.4-0.7-0.5c-0.1-0.1-0.3-0.2-0.4-0.3h-0.1c-0.1-0.1-0.3-0.2-0.4-0.2c-0.2-0.1-0.3-0.1-0.5-0.2
	c-0.1,0-0.3-0.1-0.5-0.1h-0.1c-0.1,0-0.4-0.1-0.5-0.1c-0.3,0-0.7,0-1,0c-0.6,0-1.2,0-1.9,0.1c-0.5,0-0.9,0.1-1.4,0.2
	c-0.2-2.3,0.2-4.4,1.5-6c0.7-0.9,2.8-3,14-3c4.4,0,8.5,0.3,11.8,0.8c-0.4,0.6-0.7,1.3-1,1.9c-0.4,0.8-0.8,1.7-1.1,2.5
	s-0.6,1.7-0.9,2.6c-0.3,0.9-0.5,1.7-0.8,2.6c-0.2,0.9-0.4,1.7-0.6,2.5c-0.2,0.8-0.4,1.6-0.5,2.4c-0.2,0.8-0.3,1.5-0.5,2.3
	c-0.1,0.5-0.2,1-0.3,1.5c0,0.2-0.1,0.4-0.1,0.6c-0.1,0.6-0.2,1.3-0.3,1.9c-0.1,0.6-0.1,1.2-0.2,1.8c0,0.5-0.1,1.1-0.1,1.6
	s0,1,0.1,1.5c0,0.1,0,0.2,0,0.2c0,0.4,0.1,0.8,0.2,1.2c0.1,0.4,0.2,0.8,0.4,1.2s0.3,0.8,0.5,1.1c0.2,0.4,0.5,0.7,0.7,1
	c0.3,0.3,0.6,0.6,0.9,0.9c0.3,0.3,0.7,0.6,1,0.8c0.4,0.3,0.8,0.5,1.2,0.8c0.4,0.2,0.8,0.5,1.3,0.7s0.9,0.4,1.4,0.6
	c0.5,0.2,1,0.4,1.5,0.6c0.5,0.2,1,0.4,1.6,0.5c0.5,0.2,1.1,0.3,1.6,0.5c0.5,0.1,1.1,0.3,1.6,0.4c0.3,0,0.5,0.1,0.8,0.1
	c0.1,0,0.3,0,0.4,0c0.1,0,0.3,0,0.4,0c0.1,0,0.3,0,0.4,0s0.3,0,0.4,0c0.2,0,0.4,0,0.5,0s0.2,0,0.2,0c0.5,0,1-0.1,1.5-0.2
	c0.5-0.1,1-0.3,1.4-0.5c0.2-0.1,0.5-0.2,0.7-0.3c0.1-0.1,0.2-0.1,0.3-0.2s0.2-0.1,0.3-0.2l0.1-0.1c0.1,0,0.1-0.1,0.2-0.1
	c0.1-0.1,0.2-0.2,0.3-0.3c0.2-0.2,0.4-0.4,0.6-0.6c0.4-0.4,0.8-0.9,1.2-1.3c0.4-0.5,0.8-1,1.2-1.5s0.7-1,1.1-1.6
	c0.4-0.5,0.7-1,1.1-1.6c0.3-0.5,0.7-1,1-1.5c0.3-0.4,0.6-0.9,1-1.3c0.1-0.2,0.3-0.3,0.4-0.5l0.2-0.2c0.1,0,0.1-0.1,0.2-0.1
	c0-0.1,0.1-0.1,0.2-0.1c0,0,0.1,0,0.1-0.1c0,0,0.1,0,0.1-0.1c0.1-0.1,0.3-0.2,0.4-0.2c0.3-0.1,0.5-0.2,0.8-0.3c0.2,0,0.5,0,0.8,0
	c0.2,0,0.4,0.2,0.6,0.3c0.2,0.2,0.3,0.3,0.5,0.5c0.1,0.2,0.2,0.5,0.3,0.8s0.1,0.6,0,0.9c0,0.2,0,0.3-0.1,0.5v0.1v0.1
	c0,0.1,0,0.1-0.1,0.2c0,0.1-0.1,0.2-0.1,0.2s0,0,0,0.1s-0.1,0.1-0.1,0.2c-0.1,0.2-0.2,0.4-0.3,0.6c-0.3,0.5-0.6,0.9-0.9,1.4
	c-0.3,0.5-0.6,1-1,1.4c-0.3,0.5-0.7,0.9-1,1.4c-0.3,0.4-0.6,0.9-0.9,1.3c-0.2,0.4-0.5,0.8-0.8,1.2c0,0.1-0.1,0.2-0.1,0.2
	c-0.1,0.2-0.2,0.5-0.3,0.7c0,0.1-0.1,0.3-0.1,0.4c0,0.1,0,0.1,0,0.2v0.1c0,0,0,0.1,0.1,0.1l0.1,0.1c0.1,0.1,0.2,0.1,0.3,0.1
	c0.3,0.1,0.6,0.1,0.9,0.1c0.2,0,0.3,0,0.5,0s0.5,0,0.8-0.1c0.4,0,0.9-0.1,1.4-0.2c0.5-0.1,1-0.1,1.5-0.2c0.5-0.1,1-0.1,1.5-0.2
	c0.5,0,0.9-0.1,1.4,0c0.2,0,0.4,0,0.6,0c0.1,0,0.2,0,0.2,0c0.1,0,0.1,0,0.2,0c0.1,0,0.1,0,0.2,0c0.1,0,0.1,0.1,0.2,0.1
	c0.1,0,0.2,0.1,0.4,0.2c0.2,0.2,0.4,0.3,0.6,0.6c0.2,0.2,0.2,0.5,0.3,0.7C247.4,157.8,247.5,158.1,247.4,158.3z"/>
<path id="DDS:_Head" class="st5" d="M118.1,103.6c-1,4.9-3.9,9.6-6.7,12.7c-1.8,1.9-3.7,3.4-5.7,4.5c-0.2-0.2-0.5-0.4-0.7-0.6
	c-0.4-0.3-0.7-0.5-1.1-0.8c-0.2-0.1-0.4-0.2-0.6-0.3c-0.1-0.1-0.2-0.1-0.3-0.2c-0.1,0-0.2-0.1-0.3-0.1c-0.1,0-0.2-0.1-0.3-0.1
	c-0.1,0-0.2-0.1-0.3-0.1c-0.2-0.1-0.4-0.2-0.6-0.2c-0.4-0.1-0.9-0.3-1.3-0.4c-0.3-0.1-0.6-0.2-1-0.3c-0.1,0-0.2-0.1-0.3-0.2
	c-0.1-0.1-0.2-0.2-0.4-0.3c-0.1-0.1-0.1-0.2-0.2-0.4c-0.1-0.2-0.2-0.5-0.4-0.7c0,0-0.1-0.1-0.1-0.2s-0.1-0.1-0.1-0.1l-0.1-0.1
	l-0.1-0.1l-0.1-0.1c-0.1,0-0.1-0.1-0.2-0.1c-0.1-0.1-0.2-0.2-0.3-0.2h-0.1c-0.3-0.2-0.5-0.3-0.8-0.4h-0.1c-0.3-0.1-0.5-0.2-0.7-0.3
	c-0.2-0.1-0.3-0.1-0.5-0.2h-0.1c-0.3-0.2-0.5-0.3-0.8-0.5c0,0-0.1,0-0.1-0.1c-0.2-0.1-0.3-0.2-0.5-0.4c-0.4-0.2-0.6-0.4-0.9-0.7
	c0,0-0.1,0-0.1-0.1c-0.5-0.4-1-0.7-1.6-1c0,0-0.1,0-0.1-0.1c-0.6-0.4-1.2-0.7-1.8-1.1c-0.6-0.3-1.1-0.7-1.7-1
	c-0.1,0-0.1-0.1-0.2-0.1c-0.6-0.4-1.3-0.8-1.9-1.2c-0.3-0.2-0.7-0.4-1-0.7c-0.3-0.2-0.6-0.5-0.9-0.8c0-0.1-0.1-0.1-0.2-0.2
	c-0.2-0.2-0.3-0.4-0.5-0.6c-0.1-0.2-0.2-0.4-0.4-0.6c-0.2-0.4-0.3-0.7-0.5-1.1c-0.1-0.3-0.2-0.7-0.3-1.1c-0.1-0.3-0.1-0.7-0.1-1
	s0-0.7,0.1-1c0-0.3,0.1-0.6,0.2-0.9c0.1-0.1,0.1-0.3,0.2-0.4c0-0.1,0.1-0.1,0.1-0.2s0.1-0.1,0.1-0.2s0.1-0.1,0.1-0.2
	s0.1-0.1,0.1-0.2c0.1-0.1,0.1-0.2,0.2-0.3c0.2-0.2,0.3-0.4,0.6-0.6c0.2-0.2,0.5-0.4,0.7-0.5c0.3-0.1,0.5-0.3,0.8-0.4s0.7-0.2,1-0.2
	c0.4-0.1,0.8-0.1,1.2-0.1c0.3,0,0.5,0,0.8,0s0.5,0.1,0.8,0.1c0.1,0,0.1,0,0.1,0c0.4,0.1,0.9,0.2,1.3,0.4c0.4,0.2,0.9,0.3,1.3,0.5
	c0.8,0.3,1.6,0.6,2.3,1c0.6,0.2,1.1,0.5,1.7,0.7c0.2,0.1,0.4,0.2,0.7,0.3c0.8,0.3,1.5,0.7,2.3,1c0.4,0.2,0.8,0.4,1.2,0.5
	c0.3,0.1,0.7,0.3,1,0.4s0.6,0.2,0.9,0.3c0.4,0.2,0.8,0.3,1.1,0.5c0.1,0,0.1,0,0.2,0.1c0.2,0.1,0.4,0.2,0.6,0.2
	c0.2,0.1,0.3,0.2,0.5,0.2c0.2,0.1,0.3,0.2,0.5,0.3c0,0,0.1,0,0.1,0.1c0.3,0.1,0.5,0.3,0.8,0.4c0.2,0.1,0.3,0.2,0.5,0.3
	c0.2,0.1,0.3,0.2,0.5,0.3c0.2,0.1,0.4,0.2,0.5,0.3c0.2,0.1,0.3,0.1,0.5,0.2c0.1,0,0.2,0,0.2,0.1c0.1,0,0.2,0,0.2,0s0.1,0,0.2,0
	c0,0,0,0,0.1,0s0.2,0,0.2,0c0.2,0,0.3,0,0.5,0c0.3,0,0.7-0.1,1-0.2s0.4-0.1,0.6-0.1s0.4-0.1,0.6-0.1h0.1c0.2,0,0.5,0,0.7,0h0.7
	c0.3,0,0.6,0,0.8,0c0.1,0,0.2,0,0.4,0c0.2,0,0.4,0,0.6,0c0.1,0,0.2,0,0.3,0c0.1,0,0.2,0,0.3,0s0.2,0,0.3,0c0.1,0,0.2,0,0.3-0.1
	c0.2,0,0.5-0.1,0.7-0.2c0.5-0.1,0.9-0.2,1.4-0.4C117.5,103.8,117.8,103.7,118.1,103.6z"/>
<rect id="NLED:_APA102C" x="92.3" y="101.2" class="st5" width="13.2" height="13.2"/>
<rect id="NLED:_APA102C_1_" x="117.1" y="109.6" class="st5" width="13.2" height="13.2"/>
<rect id="NLED:_APA102C_2_" x="152.3" y="114.2" class="st5" width="13.2" height="13.2"/>
<rect id="NLED:_APA102C_3_" x="193" y="98.1" class="st5" width="13.2" height="13.2"/>
<rect id="NLED:_APA102C_4_" x="196.2" y="120.8" class="st5" width="13.2" height="13.2"/>
<rect id="NLED:_APA102C_5_" x="237.7" y="94.6" class="st5" width="13.2" height="13.2"/>
<rect id="MC:_Microcontroller" x="250" y="9.2" transform="matrix(3.639737e-11 1 -1 3.639737e-11 332.2388 -214.0389)" class="st6" width="46.3" height="99.7"/>
<polygon id="BI:_Breakin_1_" class="st7" points="234.4,68.2 234.4,65.9 234.4,64.4 234.4,59.9 234.4,58.4 234.4,53.9 234.4,47.9 
	223.3,47.9 223.3,52 223.3,53.9 223.3,58.4 223.3,59.9 223.3,64.4 223.3,65.9 223.3,68.2 223.3,70.4 234.4,70.4 "/>
<path id="CP:_circuit_Path" class="st8" d="M316.3,59.1c-77.9,12.6-110.9,7.1-154.8,2.4c-33.8-3.6-73.6-10.6-82,5.5
	c-5.8,11.2,4.2,32.2,18,42.5c8.2,6.1,16.7,7.7,26.5,9.5c15.3,2.9,23,0.6,35.5,0.5c34.2-0.3,38.7,15.4,66.5,12.5
	c18.4-1.9,37.5-10.9,37-17.5c-0.5-6.4-20.4-9.8-36-12.5c-23.8-4.1-43.8-4.1-57-3.5"/>
<circle id="NUT:_NUTTY" class="st9" cx="69.7" cy="42.8" r="6.8"/>
<circle id="NUT:_NUTTY_1_" class="st9" cx="69.7" cy="180.1" r="6.8"/>
<circle id="NUT:_NUTTY_2_" class="st9" cx="309.5" cy="180.1" r="6.8"/>
</svg>
