<?xml version="1.0" encoding="utf-8"?>
<!-- Generator: Adobe Illustrator 19.2.1, SVG Export Plug-In . SVG Version: 6.00 Build 0)  -->
<svg version="1.1" id="Layer_1" xmlns="http://www.w3.org/2000/svg" xmlns:xlink="http://www.w3.org/1999/xlink" x="0px" y="0px"
	 viewBox="0 0 1728 864" style="enable-background:new 0 0 1728 864;" xml:space="preserve">
<style type="text/css">
	.st0{fill:#484748;stroke:#FFFFFF;stroke-miterlimit:10;}
	.st1{fill:#7B7B7B;}
	.st2{fill:#AEADAE;}
	.st3{fill:#B2B3B3;}
	.st4{fill:#B7B7B7;}
	.st5{fill:none;stroke:#1E1010;stroke-miterlimit:10;}
	.st6{fill:#484748;}
</style>
<path id="DIF:_Diffuser" class="st0" d="M959.5,526.8c0.5-2.2,1.3-6.3,0-11.2c-0.8-2.9-2-5.2-3-6.8c2.2-0.3,15.2-2.5,23-14.2
	c6.9-10.4,7.2-24.2,0.8-35.8c0-0.3,0-6.4-5-9.5c-3.9-2.4-9.1-1.9-12.8,1.2c-0.3-1.1-1.5-5.3-5.5-8c-4-2.7-9.4-2.8-14-0.5
	c-18.5-0.3-22.5-1.1-22.5-1.8c0-0.9,6.5-0.6,10-5.2c1.7-2.2,3.5-6.5,1.2-9.5c-1.9-2.6-6.1-3.4-10-1.5c0.6-4.5-0.3-8.7-2.8-10
	c-3.2-1.7-9.8,1.2-13.5,9c-0.7-0.2-7.9-1.9-14,3c-5.5,4.5-5.7,11.1-5.8,12c-0.7-0.6-6.5-5.2-13.8-3.5c-3.8,0.9-10.1,3.9-10.8,9.8
	c-0.6,5.4,3.9,11.3,11,12.8c-2.2,0.7-5.3,2-8.5,4.5c-4.3,3.4-6.6,7.2-7.8,9.5c-3.6,1.6-6.2,1.6-8,1.2c-2-0.4-3.3-1.2-4.8-0.5
	c-1.6,0.8-1.2,2.3-3,3.5c-2.1,1.5-3.9,0.1-5.2,1.5c-1.2,1.3,0,2.6-1.2,4.8c-1.1,1.9-2.5,1.5-3.2,3.2c-0.7,1.7,0.4,2.3-0.2,4.2
	c-0.6,1.8-1.7,1.9-2.5,3.8c-0.6,1.4-0.6,2.8-0.5,3.8c0.1,1.4,0.6,4.2,2.5,7c1.3,1.9,2.7,3,3.8,3.8c-3.2-1-6.8-0.1-9,2.2
	c-2.6,2.8-3,7.1-1,10.5c1.2,1.1,3,2.7,5.5,3.8c3,1.3,4.7,1,5.8,2.2c0.9,1.1,1.3,3.5-1.5,9c-1.8,3-4.7,8.9-4.8,15.8
	c0,4.4,1.2,6.6,1.8,7.5c1.3,2.1,3.1,3.4,4.2,4c0.2,0.7,0.6,2.3,2,3.8c1.6,1.7,3.6,2.1,4.2,2.2c0.7,1.9,2.2,3.1,4,3.2
	c1.5,0.1,2.7-0.7,3-1c0.7,0.5,2,1.4,4,1.8c2.8,0.5,5-0.6,5.8-1c0.3,5.7,3.8,10.8,9,13c5.5,2.3,12,1,16.2-3.2
	c0.2,0.6,1.3,3.9,4.8,5.5c2,0.9,3.9,0.9,4.8,0.8c0.2,0.3,1.5,2.7,4.5,3.2c2.7,0.5,4.7-1,5-1.2c1.5,1.3,3.5,1.7,5.2,1
	c2.1-0.8,2.9-2.7,3-3c1.3,0.8,3,0.8,4.2,0c1.4-0.8,2.2-2.4,2-4c0.3,0,2.4-0.2,3.8-2c1-1.4,1-2.8,1-3.2c0.5-0.3,1.9-1.3,2.8-3.2
	c0.7-1.6,0.6-3.1,0.5-3.8c0.6-0.9,1.4-2.1,2-3.5c0.7-1.5,1-2.9,1.2-4c5,1.3,10.2-0.6,13-4.8c2.5-3.8,2.6-8.8,0.2-12.8
	c4.8-0.8,6.5-2.4,7-3.8c0.3-0.8,0.3-2,1.2-2.5c1-0.6,2,0.3,3-0.2c0.9-0.5,0.6-1.7,1.2-3.5c0.8-2.2,2.1-2.3,4-5
	C957.9,530.1,958.8,528.7,959.5,526.8z"/>
<circle id="DD:_Diffuser_247_" class="st1" cx="892.3" cy="518.5" r="16.5"/>
<ellipse id="DD:_Diffuser_245_" transform="matrix(0.8962 -0.4436 0.4436 0.8962 -134.0158 440.7901)" class="st2" cx="875.1" cy="506.8" rx="8.2" ry="8.2"/>
<ellipse id="DD:_Diffuser_244_" transform="matrix(0.6064 -0.7952 0.7952 0.6064 -43.5124 907.8191)" class="st2" cx="895.2" cy="497.9" rx="8.2" ry="8.2"/>
<ellipse id="DD:_Diffuser_243_" transform="matrix(0.1907 -0.9816 0.9816 0.1907 235.6354 1309.5841)" class="st2" cx="912.1" cy="511.9" rx="8.2" ry="8.2"/>
<ellipse id="DD:_Diffuser_242_" transform="matrix(0.9644 -0.2646 0.2646 0.9644 -108.1757 259.1069)" class="st2" cx="907.7" cy="531.1" rx="8.2" ry="8.2"/>
<ellipse id="DD:_Diffuser_241_" transform="matrix(0.7469 -0.6649 0.6649 0.7469 -132.0779 728.0062)" class="st2" cx="890.3" cy="537.5" rx="8.3" ry="8.2"/>
<ellipse id="DD:_Diffuser_246_" transform="matrix(0.7469 -0.6649 0.6649 0.7469 -129.2847 716.4237)" class="st2" cx="876.5" cy="528" rx="8.3" ry="8.2"/>
<path id="DD:_Diffuser_237_" class="st3" d="M915.5,418c1.5,0.5-0.5,4.7,2,8.5c3,4.6,9.5,3.9,9.5,5.5s-6.8,4.8-12,2
	c-2.7-1.4-5-4.5-5-8C910,421.4,914,417.5,915.5,418z"/>
<circle id="DD:_Diffuser_236_" class="st1" cx="902.8" cy="441.5" r="4.2"/>
<circle id="DD:_Diffuser_235_" class="st2" cx="893.3" cy="441.6" r="4.2"/>
<circle id="DD:_Diffuser_234_" class="st2" cx="897.5" cy="433.6" r="4.2"/>
<circle id="DD:_Diffuser_233_" class="st2" cx="898.1" cy="449.7" r="4.2"/>
<circle id="DD:_Diffuser_232_" class="st2" cx="907" cy="432.9" r="4.2"/>
<circle id="DD:_Diffuser_231_" class="st2" cx="912.1" cy="441.2" r="4.2"/>
<circle id="DD:_Diffuser_230_" class="st2" cx="907.8" cy="450.1" r="4.2"/>
<circle id="DD:_Diffuser_210_" class="st2" cx="948" cy="457.5" r="7.5"/>
<circle id="DD:_Diffuser_209_" class="st2" cx="965" cy="465" r="7.5"/>
<circle id="DD:_Diffuser_208_" class="st2" cx="965" cy="482.5" r="7.5"/>
<circle id="DD:_Diffuser_207_" class="st1" cx="951.5" cy="472.5" r="7.5"/>
<circle id="DD:_Diffuser_206_" class="st2" cx="936.6" cy="472.5" r="7.5"/>
<circle id="DD:_Diffuser_205_" class="st2" cx="948" cy="487.8" r="7.5"/>
<path id="DD:_Diffuser_188_" class="st4" d="M844.3,522c0.4-3.8-1.5-7.9-4.8-10c-5-3.1-12.5-1.3-13.5,1.8c-0.7,2.1,1.5,5,3.3,6.5
	c3.4,2.7,6.5,1.5,8,3.8c1.7,2.7-0.9,6.3,0,6.8C838.4,531.6,843.8,527.7,844.3,522z"/>
<path id="DD:_Diffuser_187_" class="st3" d="M914.5,484.7c-4.2-2.8-9.4-6.2-14.3-4.3c-3.4,1.3-6.2,4.9-5.4,6.9
	c0.8,1.9,4.4,0.5,6.9,2.9c4.1,3.9-0.1,13,2.7,14.4c1.8,0.9,3.9-3,8.1-2.6c3.3,0.3,4,2.9,6.4,2.6c2.8-0.3,5.5-4.2,5.6-7.7
	C924.8,491.4,919,487.6,914.5,484.7z"/>
<ellipse id="DD:_Diffuser_167_" class="st2" cx="858.2" cy="478.2" rx="1.8" ry="2.5"/>
<ellipse id="DD:_Diffuser_166_" class="st2" cx="886.8" cy="468.6" rx="1.8" ry="2.5"/>
<ellipse id="DD:_Diffuser_165_" class="st2" cx="891.4" cy="463.5" rx="1.8" ry="2.5"/>
<ellipse id="DD:_Diffuser_164_" class="st2" cx="897.5" cy="460.2" rx="1.8" ry="2.5"/>
<ellipse id="DD:_Diffuser_163_" class="st2" cx="903.7" cy="460.2" rx="1.8" ry="2.5"/>
<ellipse id="DD:_Diffuser_162_" class="st2" cx="908.8" cy="462.2" rx="1.8" ry="2.5"/>
<ellipse id="DD:_Diffuser_161_" class="st2" cx="913.9" cy="466.1" rx="1.8" ry="2.5"/>
<ellipse id="DD:_Diffuser_160_" class="st2" cx="851.6" cy="475.7" rx="1.8" ry="2.5"/>
<ellipse id="DD:_Diffuser_159_" class="st2" cx="844.4" cy="476.9" rx="1.8" ry="2.5"/>
<ellipse id="DD:_Diffuser_158_" class="st2" cx="838.5" cy="480.6" rx="1.8" ry="2.5"/>
<ellipse id="DD:_Diffuser_157_" class="st2" cx="834.9" cy="485.9" rx="1.8" ry="2.5"/>
<ellipse id="DD:_Diffuser_156_" class="st2" cx="833" cy="493.3" rx="1.8" ry="2.5"/>
<ellipse id="DD:_Diffuser_155_" class="st2" cx="834" cy="499.4" rx="1.8" ry="2.5"/>
<ellipse id="DD:_Diffuser_154_" class="st2" cx="837.6" cy="505.2" rx="1.8" ry="2.5"/>
<ellipse id="DD:_Diffuser_153_" class="st2" cx="843.1" cy="532" rx="1.8" ry="2.5"/>
<ellipse id="DD:_Diffuser_152_" class="st2" cx="838.3" cy="535.7" rx="1.8" ry="2.5"/>
<ellipse id="DD:_Diffuser_151_" class="st2" cx="834" cy="542.6" rx="1.8" ry="2.5"/>
<ellipse id="DD:_Diffuser_150_" class="st2" cx="833.3" cy="549.3" rx="1.8" ry="2.5"/>
<ellipse id="DD:_Diffuser_149_" class="st2" cx="835.2" cy="556.1" rx="1.8" ry="2.5"/>
<ellipse id="DD:_Diffuser_148_" class="st2" cx="840.1" cy="562.2" rx="1.8" ry="2.5"/>
<ellipse id="DD:_Diffuser_147_" class="st2" cx="845.3" cy="565.3" rx="1.8" ry="2.5"/>
<ellipse id="DD:_Diffuser_146_" class="st2" cx="851.9" cy="566.6" rx="1.8" ry="2.5"/>
<ellipse id="DD:_Diffuser_145_" class="st2" cx="859.4" cy="565.7" rx="1.8" ry="2.5"/>
<ellipse id="DD:_Diffuser_144_" transform="matrix(0.8759 -0.4824 0.4824 0.8759 -167.3757 498.5293)" class="st2" cx="885.6" cy="574.7" rx="2.5" ry="1.8"/>
<ellipse id="DD:_Diffuser_143_" transform="matrix(0.8759 -0.4824 0.4824 0.8759 -170.1009 501.8857)" class="st2" cx="890.8" cy="581.7" rx="2.5" ry="1.8"/>
<ellipse id="DD:_Diffuser_142_" transform="matrix(0.1437 -0.9896 0.9896 0.1437 189.7269 1389.3019)" class="st2" cx="897.7" cy="585" rx="2.5" ry="1.8"/>
<ellipse id="DD:_Diffuser_141_" transform="matrix(0.9751 -0.2219 0.2219 0.9751 -107.1759 215.4188)" class="st2" cx="905.1" cy="584.7" rx="1.8" ry="2.5"/>
<ellipse id="DD:_Diffuser_140_" transform="matrix(0.9751 -0.2219 0.2219 0.9751 -106.4109 216.6356)" class="st2" cx="910.9" cy="581.9" rx="1.8" ry="2.5"/>
<ellipse id="DD:_Diffuser_139_" transform="matrix(0.5478 -0.8366 0.8366 0.5478 -69.157 1026.9357)" class="st2" cx="915.4" cy="577.4" rx="1.8" ry="2.5"/>
<ellipse id="DD:_Diffuser_138_" transform="matrix(0.5478 -0.8366 0.8366 0.5478 -63.3989 1027.3654)" class="st2" cx="918.7" cy="572.3" rx="1.8" ry="2.5"/>
<ellipse id="DD:_Diffuser_137_" transform="matrix(0.5478 -0.8366 0.8366 0.5478 -58.0338 1026.6687)" class="st2" cx="920.7" cy="567" rx="1.8" ry="2.5"/>
<ellipse id="DD:_Diffuser_136_" transform="matrix(0.5478 -0.8366 0.8366 0.5478 -27.9566 1028.8302)" class="st2" cx="937.7" cy="540.3" rx="1.8" ry="2.5"/>
<ellipse id="DD:_Diffuser_135_" transform="matrix(0.5478 -0.8366 0.8366 0.5478 -23.8796 1032.7476)" class="st2" cx="943.4" cy="538.5" rx="1.8" ry="2.5"/>
<ellipse id="DD:_Diffuser_134_" transform="matrix(0.5478 -0.8366 0.8366 0.5478 -19.1299 1034.9482)" class="st2" cx="947.8" cy="535.2" rx="1.8" ry="2.5"/>
<ellipse id="DD:_Diffuser_133_" transform="matrix(0.5478 -0.8366 0.8366 0.5478 -14.1701 1035.9413)" class="st2" cx="951.2" cy="531.1" rx="1.8" ry="2.5"/>
<ellipse id="DD:_Diffuser_132_" transform="matrix(0.9937 -0.1117 0.1117 0.9937 -52.8193 109.8125)" class="st2" cx="953.6" cy="526.3" rx="2.5" ry="1.8"/>
<ellipse id="DD:_Diffuser_131_" transform="matrix(0.9937 -0.1117 0.1117 0.9937 -52.1924 109.8117)" class="st2" cx="953.9" cy="520.7" rx="2.5" ry="1.8"/>
<ellipse id="DD:_Diffuser_130_" transform="matrix(0.9937 -0.1117 0.1117 0.9937 -51.5512 109.6524)" class="st2" cx="952.8" cy="514.9" rx="2.5" ry="1.8"/>
<ellipse id="DD:_Diffuser_129_" transform="matrix(0.9937 -0.1117 0.1117 0.9937 -51.0787 109.2894)" class="st2" cx="949.8" cy="510.5" rx="2.5" ry="1.8"/>
<ellipse id="DD:_Diffuser_128_" transform="matrix(0.9937 -0.1117 0.1117 0.9937 -50.7314 108.8891)" class="st2" cx="946.4" cy="507.2" rx="2.5" ry="1.8"/>
<path id="DD:_Diffuser_99_" class="st3" d="M869.2,481.4c-2.3,1.3-8.2,4.7-8.6,10.6c-0.3,4.5,2.5,9.4,5.2,9.6
	c2.5,0.2,2.9-3.6,6.2-4.5c5.5-1.5,11.5,6.4,13.2,5c1.1-0.9-1.4-4.1-0.2-8c0.9-3.3,4.1-3.1,4.8-5.6c0.8-3.2-2.9-7.7-7-9.4
	C877.2,476.8,871.6,480,869.2,481.4z"/>
<path id="DD:_Diffuser_98_" class="st3" d="M846.8,517.8c-0.5,4-1.1,8.9,2,12.8c4.7,5.7,14.9,5.7,16.5,2.9c0.9-1.7-1.7-3.2-1.1-6.1
	c1-5,9.5-6.2,9.2-8.9c-0.2-1.7-3.6-1.2-5.8-4.1c-2.8-3.6,0.1-7.6-2.2-10.4c-2.3-2.6-7.7-2.4-11.2-0.6
	C848.2,506.3,847.2,513.9,846.8,517.8z"/>
<path id="DD:_Diffuser_97_" class="st3" d="M866.8,560c-2.4-1.4-8.2-4.8-9-11c-0.9-7.4,6-14.6,8.9-13.9c1.5,0.4,1.5,2.9,3.9,3.6
	c2.2,0.7,3.8-1.1,5-0.2c1.4,1-0.3,3.6,0.9,5.8c1.9,3.6,8.7,1.1,10.9,4.2c2.2,3.2-0.8,11.2-6.8,13.9C875,564.8,869.4,561.6,866.8,560
	z"/>
<path id="DD:_Diffuser_96_" class="st3" d="M910.1,522.4c-0.5,1.8,5.6,3.4,6.8,8.1c0.9,3.9-2.5,6.3-1.2,8c2.2,2.8,14.2,0.8,16.6-5.4
	c1-2.6-0.7-3.5-0.9-9.1c-0.2-7.7,2.9-9.9,1.1-13.2c-2.3-4.4-10.2-5.9-11.8-3.9c-0.8,1,1.9,2.7,1.8,6c-0.2,3.7-3.6,6.2-4,6.5
	C914.6,522.2,910.6,520.9,910.1,522.4z"/>
<path id="DD:_Diffuser_95_" class="st3" d="M907,565c4.9-1.1,13.3-5,14.4-12.2c0.8-5.8-3.2-12.3-6.5-12.4c-1.9,0-2.2,2.1-4.6,2.8
	c-5.5,1.4-11.4-8-13.8-6.6c-1.2,0.7,0.3,3.2-1.2,6.2c-1.6,3.2-4.4,2.7-5.9,5.1c-2.6,4.1,0.4,13,6.8,16.4
	C900.4,566.5,904.7,565.5,907,565z"/>
<path id="DD:_Diffuser_75_" class="st4" d="M935.4,535.7c3.6,3,15.2-4.7,14.7-14.7c-0.5-8.9-10.6-15.9-14.2-13
	C932.9,510.5,932.4,533.1,935.4,535.7z"/>
<path id="DD:_Diffuser_74_" class="st4" d="M921.8,556.8c-0.3-1.6,3.3-2.4,4.2-6c0.9-4-2.7-6.6-1.5-8.3c1.2-1.9,6.7-1.4,10.2,1.3
	c3.9,3.1,5.9,9.5,3.2,13.3C933.9,562.8,922.4,559.5,921.8,556.8z"/>
<path id="DD:_Diffuser_73_" class="st4" d="M890.5,562.2c-1.8-0.1-4,2.1-4.5,4.3c-1.3,5.5,6.6,15,15.3,14.8
	c11.3-0.2,16.8-16.5,15.3-17.8c-0.7-0.7-3.2,2.2-9.8,4.3c-4.1,1.3-7.5,2.3-10.3,0.8C892.9,566.8,893,562.4,890.5,562.2z"/>
<path id="DD:_Diffuser_72_" class="st4" d="M873.5,565.7c-4-1.1-4.6-3.3-6.5-3c-3.4,0.6-7.1,8.7-3.8,14.3c2.4,4,7.1,4.6,7.5,4.7
	c4.9,0.5,9.2-2.7,10.8-6.5c1.2-2.6,1.7-6.9-0.3-8.7C879.5,565.1,877.6,566.8,873.5,565.7z"/>
<path id="DD:_Diffuser_71_" class="st4" d="M854.8,541.5c-0.9-3.4-5-6.2-8.8-6c-5.5,0.2-8.6,6.2-9.3,10.2
	c-1.1,5.6,1.8,10.8,5.3,13.7c7.2,5.8,18.6,3.1,19.2,0.5c0.4-2.2-7-3.4-8-8.8C852.4,547,855.9,545.2,854.8,541.5z"/>
<path id="DD:_Diffuser_70_" class="st4" d="M858,499.2c-1.2,1.5-4.1-0.7-7.1,1c-3.6,2-2.6,7.1-5,7.8c-2.5,0.7-6.4-4.1-8-8.5
	c-0.5-1.4-2.6-7,0.5-12.6c0.4-0.7,2.9-5.1,8.1-6.5c3-0.8,5.5-0.3,7.8,0.2c1.7,0.4,6.6,1.5,6.8,3.5c0.2,1.8-3.7,2.1-4.9,5.1
	C854.7,493.2,859.5,497.3,858,499.2z"/>
<path id="DD:_Diffuser_69_" class="st4" d="M873,476.9c-4.5,1.4-5.2,3.5-7.1,3c-3-0.7-5.6-6.4-4-11.1c1.4-4.2,5.6-5.8,6.1-6
	c0.3-0.1,5.4-1.8,9.5,1.4c3.7,3,4.9,8.9,2.9,11.1C879.1,476.7,877.4,475.5,873,476.9z"/>
<path id="DD:_Diffuser_68_" class="st4" d="M891.8,479.9c-1.9-0.5-3-3.1-3.1-5.1c-0.3-5.1,5.6-10.8,11.4-11.2
	c10.3-0.8,17.2,15.4,15.6,17c-1.4,1.3-9-7.6-16.1-5C895.8,476.8,894.3,480.6,891.8,479.9z"/>
<ellipse id="DD:_Diffuser_59_" class="st3" cx="937.8" cy="447.3" rx="3.1" ry="3.7"/>
<ellipse id="DD:_Diffuser_57_" class="st3" cx="925.9" cy="480.6" rx="3.1" ry="3.7"/>
<ellipse id="DD:_Diffuser_56_" class="st3" cx="933.2" cy="493.5" rx="3.1" ry="3.7"/>
<ellipse id="DD:_Diffuser_55_" class="st3" cx="944.9" cy="500.5" rx="3.1" ry="3.7"/>
<ellipse id="DD:_Diffuser_54_" class="st3" cx="955.9" cy="500.3" rx="3.1" ry="3.7"/>
<circle id="DD:_Diffuser_1_" class="st3" cx="963.1" cy="495.3" r="3.4"/>
<circle id="DD:_Diffuser_2_" class="st3" cx="975.9" cy="473.2" r="3.4"/>
<ellipse id="DD:_Diffuser_5_" transform="matrix(0.9829 -0.184 0.184 0.9829 -74.0406 186.6983)" class="st2" cx="968.9" cy="492.3" rx="1.8" ry="2.5"/>
<ellipse id="DD:_Diffuser_6_" transform="matrix(0.7303 -0.6832 0.6832 0.7303 -71.9468 796.9689)" class="st2" cx="973.3" cy="489.6" rx="1.8" ry="2.5"/>
<ellipse id="DD:_Diffuser_7_" transform="matrix(0.8102 -0.5862 0.5862 0.8102 -96.6113 663.1138)" class="st2" cx="975.6" cy="480.7" rx="2.5" ry="1.8"/>
<ellipse id="DD:_Diffuser_8_" transform="matrix(0.1711 -0.9853 0.9853 0.1711 330.5866 1363.9379)" class="st2" cx="975.9" cy="485.5" rx="1.8" ry="2.5"/>
<ellipse id="DD:_Diffuser_12_" transform="matrix(5.290437e-02 -0.9986 0.9986 5.290437e-02 462.4171 1413.8679)" class="st2" cx="976.6" cy="463.2" rx="1.8" ry="2.5"/>
<ellipse id="DD:_Diffuser_11_" transform="matrix(0.8707 -0.4917 0.4917 0.8707 -99.3304 538.6749)" class="st2" cx="975" cy="458.3" rx="2.5" ry="1.8"/>
<ellipse id="DD:_Diffuser_10_" transform="matrix(0.9255 -0.3787 0.3787 0.9255 -99.9001 399.9292)" class="st2" cx="966.9" cy="454" rx="1.8" ry="2.5"/>
<ellipse id="DD:_Diffuser_9_" transform="matrix(0.3986 -0.9171 0.9171 0.3986 167.2764 1164.6514)" class="st2" cx="971.6" cy="454.8" rx="2.5" ry="1.8"/>
<ellipse id="DD:_Diffuser_14_" transform="matrix(0.1203 -0.9927 0.9927 0.1203 392.2258 1350.9933)" class="st2" cx="958.4" cy="454.2" rx="1.8" ry="2.5"/>
<ellipse id="DD:_Diffuser_13_" transform="matrix(0.7933 -0.6088 0.6088 0.7933 -76.0704 675.1888)" class="st2" cx="956.4" cy="449.6" rx="2.5" ry="1.8"/>
<ellipse id="DD:_Diffuser_4_" transform="matrix(0.8634 -0.5045 0.5045 0.8634 -95.7976 539.1534)" class="st2" cx="947.8" cy="446.5" rx="1.8" ry="2.5"/>
<ellipse id="DD:_Diffuser_3_" transform="matrix(0.2662 -0.9639 0.9639 0.2662 268.4607 1245.9583)" class="st2" cx="952.6" cy="446.6" rx="2.5" ry="1.8"/>
<ellipse id="DD:_Diffuser_18_" transform="matrix(0.2461 -0.9693 0.9693 0.2461 259.161 1254.963)" class="st2" cx="936.3" cy="460.9" rx="2.5" ry="1.8"/>
<ellipse id="DD:_Diffuser_17_" transform="matrix(0.9497 -0.3131 0.3131 0.9497 -97.6721 314.7006)" class="st2" cx="931.2" cy="461.5" rx="1.8" ry="2.5"/>
<ellipse id="DD:_Diffuser_16_" transform="matrix(0.9815 -0.1915 0.1915 0.9815 -72.6019 185.8531)" class="st2" cx="925.4" cy="468.6" rx="2.5" ry="1.8"/>
<ellipse id="DD:_Diffuser_15_" transform="matrix(0.5693 -0.8222 0.8222 0.5693 17.7345 962.1245)" class="st2" cx="927.1" cy="464.1" rx="1.8" ry="2.5"/>
<path id="DD:_Diffuser_19_" class="st4" d="M889.6,453.7c0.4-3.8-1.5-7.9-4.8-10c-5-3.1-12.5-1.3-13.5,1.8c-0.7,2.1,1.5,5,3.3,6.5
	c3.4,2.7,6.5,1.5,8,3.8c1.7,2.7-0.9,6.3,0,6.8C883.7,463.3,889.1,459.4,889.6,453.7z"/>
<path id="DD:_Diffuser_20_" class="st4" d="M921,461.3c0.8-0.4-1.5-3.6,0-6c1.3-2,4-1,7-3.3c1.6-1.3,3.5-3.9,2.9-5.7
	c-0.9-2.7-7.4-4.3-11.8-1.6c-2.9,1.8-4.6,5.4-4.2,8.8C915.3,458.5,920,461.9,921,461.3z"/>
<g>
	<polyline id="CP:_circuit" class="st5" points="881.6,518.2 890,517.5 900.5,440.5 949.2,471.1 	"/>
</g>
<rect id="NLED:_led_3_" x="883.8" y="511.9" class="st6" width="14.2" height="14.2"/>
<rect id="NLED:_led_7_" x="896.2" y="436.3" class="st6" width="14.2" height="14.2"/>
<rect id="NLED:_led_8_" x="942.5" y="464.5" class="st6" width="14.2" height="14.2"/>
</svg>
