<?xml version="1.0" encoding="utf-8"?>
<!-- Generator: Adobe Illustrator 19.2.1, SVG Export Plug-In . SVG Version: 6.00 Build 0)  -->
<svg version="1.1" id="Layer_1" xmlns="http://www.w3.org/2000/svg" xmlns:xlink="http://www.w3.org/1999/xlink" x="0px" y="0px"
	 viewBox="0 0 766.4 701.8" style="enable-background:new 0 0 766.4 701.8;" xml:space="preserve">
<style type="text/css">
	.st0{fill:#ED1C24;}
	.st1{fill:#00A651;}
	.st2{fill:#231F20;}
	.st3{fill:#1C75BC;}
	.st4{fill:#2B3990;stroke:#231F20;stroke-width:9;stroke-miterlimit:10;}
	.st5{fill:#FFF200;stroke:#231F20;stroke-width:9;stroke-miterlimit:10;}
	.st6{fill:#00AEEF;}
	.st7{fill:none;stroke:#FFF200;stroke-width:4;}
	.st8{fill:#294DFF;}
	.st9{fill:#FFE313;}
	.st10{fill:none;stroke:#ED1C24;stroke-width:3;}
</style>
<circle id="BASE:_Base" class="st0" cx="418.8" cy="349.8" r="397.2"/>
<g id="DIF:_SunRays_2_">
	<g>
		<path class="st1" d="M419.2,688.4c-13.3,0-26.7-0.8-39.9-2.3c-0.1-8,0.1-14,0.4-16.7l0.2-1.5c1.4-12.2,4.6-23.9,9.5-34.8l0.1-0.2
			c0-0.1,0.1-0.2,0.1-0.3c0.2-0.5,0.5-1,0.7-1.4l0.2-0.4c0.2-0.4,0.4-0.9,0.7-1.3c0.2-0.4,0.4-0.8,0.6-1.2c0.5-1,1-1.9,1.5-2.8
			c0.3-0.5,0.6-1.1,0.9-1.6c0.1-0.2,0.9-1.5,0.9-1.5c0.6-1,1.2-2,1.8-3l2.2-3.5l-3.3-2.5c-21.3-15.8-27.3-35.7-28.1-51.1
			c5,0.4,12.3,0.8,20.3,0.8c57.1,0,110.7-22.2,151.1-62.5s62.6-93.9,62.6-150.9c0-117.6-95.9-213.3-213.7-213.3
			c-10.2,0-19.7,0.1-28.4,0.3c1.5-14.7,6.6-26.8,14.9-35.5c2-2,6-6.3,29.8-16.3l4.3-1.8l-2-4.2c-1.2-2.5-2.1-4.6-2.9-6.7
			c-7.3-18.7-6.8-44.7-5.9-58.2c7.2-0.4,14.4-0.7,21.5-0.7c90.3,0,175.2,35.1,239.1,98.9s99,148.5,99,238.7s-35.2,174.9-99,238.7
			C594.4,653.2,509.5,688.4,419.2,688.4z"/>
		<path class="st2" d="M419.2,17.8c45,0,88.7,8.8,129.8,26.2c39.7,16.8,75.4,40.8,106,71.4s54.7,66.2,71.5,105.9
			c17.4,41.1,26.2,84.7,26.2,129.6s-8.8,88.6-26.2,129.6c-16.8,39.7-40.9,75.3-71.5,105.9s-66.3,54.6-106,71.4
			c-41.1,17.4-84.8,26.2-129.8,26.2c-11.8,0-23.7-0.6-35.4-1.9c0-5.8,0.1-10.1,0.4-12.2v-0.4v-0.4l0,0l0,0V669c0-0.1,0-0.3,0-0.4
			c1.4-11.8,4.4-23.1,9.1-33.5l0.1-0.2v-0.1l0.1-0.1v-0.1v-0.1c0.2-0.4,0.4-0.9,0.6-1.3l0.2-0.4c0.2-0.4,0.4-0.9,0.6-1.3l0,0l0,0
			c0.2-0.4,0.3-0.7,0.5-1.1l0,0l0,0c0.5-1,0.9-1.8,1.4-2.6c0.3-0.5,0.6-1,0.9-1.5c0.1-0.2,0.2-0.3,0.3-0.5c0.1-0.2,0.2-0.4,0.3-0.6
			c0.1-0.1,0.1-0.3,0.2-0.4c0.6-1,1.2-2,1.8-2.9l4.4-7.1l-6.7-5c-17.6-13-24-29.1-25.8-42.6c4.4,0.3,9.7,0.5,15.4,0.5
			c29.4,0,58-5.8,84.9-17.1c26-11,49.3-26.7,69.4-46.7c20-20,35.8-43.3,46.8-69.2c11.4-26.9,17.2-55.4,17.2-84.8
			s-5.8-57.9-17.2-84.8c-11-25.9-26.7-49.2-46.8-69.2c-20-20-43.4-35.7-69.4-46.7c-26.9-11.4-55.5-17.1-84.9-17.1
			c-8.2,0-16,0.1-23.2,0.2c2-11.4,6.4-20.8,13-27.7c1.6-1.7,5.4-5.6,28.3-15.3l8.6-3.6l-3.9-8.4c-0.7-1.5-1.7-3.8-2.8-6.4
			c-6.4-16.3-6.5-38.5-5.8-52.3C407.8,17.9,413.6,17.8,419.2,17.8 M419.2,8.8c-8.6,0-17.2,0.3-25.6,1c-1.5,17.6-1.7,44.8,5.9,64.1
			c1,2.5,2,4.8,3,6.9c-24.6,10.4-28.9,14.9-31.3,17.3c-10,10.4-15.7,25.3-16.6,43.2c9.2-0.3,20.2-0.5,33.3-0.5
			c115.5,0,209.2,93.5,209.2,208.8s-93.7,208.8-209.2,208.8c-10.5,0-20-0.8-25-1.3c-0.1,15.1,4.1,40.4,30.1,59.7
			c-0.6,1-1.3,2-1.9,3.1c-0.2,0.3-0.4,0.6-0.6,1c-0.1,0.2-0.2,0.4-0.3,0.6c-0.3,0.5-0.6,1.1-0.9,1.6c-0.5,1-1,1.9-1.5,2.9
			c-0.2,0.4-0.4,0.9-0.6,1.3c-0.2,0.5-0.5,1-0.7,1.4c-0.3,0.6-0.6,1.2-0.9,1.8c-0.1,0.2-0.2,0.4-0.3,0.6
			c-5.8,12.8-8.6,25.4-9.9,36.2c0,0.2,0,0.4-0.1,0.6c0,0.3-0.1,0.6-0.1,0.9c-0.4,3.9-0.5,12.6-0.3,21.2c14.5,1.9,29.3,2.8,44.3,2.8
			c189.2,0,342.6-153.1,342.6-342S608.4,8.8,419.2,8.8L419.2,8.8z M359.4,556.8c-0.3,0,1,0.2,3.5,0.4v-0.1
			C360.8,556.9,359.7,556.8,359.4,556.8L359.4,556.8z"/>
	</g>
</g>
<g id="DIF:_MoonRAys">
	<path class="st3" d="M367.1,683.8c-72.1-10.3-137.5-43.1-189.5-95.1c-26.6-26.6-48.4-57.1-64.7-90.5c-1.5-3.3-3.4-7.3-3.7-8.1
		c0.1,0.2,0.6,1.8-0.3,3.5l-2.9,2.2l-2-8.6l4.9,2.4c-3.9-8.5-7.4-17.2-10.4-25.6c-5.6-18-10.1-34.9-13.6-50.2
		c-3.9-20.7-5.9-41.9-5.9-63c0-40.2,7-79.5,20.7-116.8c0.3-0.6,0.6-1.2,0.8-1.8c0.2-0.6,0.8-2.1,1.1-3.1c0.1-0.2,0.1-0.5,0.2-0.7
		c16.9-43.3,42.3-82.2,75.7-115.5c28.6-28.6,61.5-51.6,97.8-68.2c34.5-15.8,71.3-25.6,109.4-29c-1.4,12.5-1.9,35.4,7.5,59.5
		c0.4,1,0.8,1.9,1.2,2.9c-21.8,9.5-26,13.9-28.5,16.6c-10.3,10.7-16.3,25.7-17.7,43.6c-48.3,8.7-92.5,34.1-124.6,71.8
		c-0.6,0.6-1.3,1.4-2.1,2.4c-0.9,1.1-1.5,1.8-1.9,2.4c-30.5,37.9-47.3,85.5-47.3,134c0,46.3,14.6,90.3,42.2,127.4l6,7.7
		c34.4,42.2,82.6,69.4,136,76.9c0.6,14.7,5.7,38.2,28.6,56.9l-0.4,0.7c-0.1,0.2-0.3,0.4-0.4,0.7c-0.3,0.5-0.6,1.1-0.9,1.7
		c-0.6,1-1.1,2-1.6,3c-0.2,0.4-0.4,0.8-0.7,1.3c0,0-0.5,1.1-0.7,1.5l-0.2,0.5c-0.2,0.5-0.5,1-0.7,1.5c-0.1,0.2-0.2,0.4-0.3,0.7
		c-5.3,11.7-8.7,24.3-10.2,37.4l-0.2,1.5C367.2,673.6,367,678.9,367.1,683.8z"/>
	<path class="st2" d="M379.8,20.9c-0.9,13.4-0.3,33.7,7.9,55c-17.5,7.9-22.6,12.3-26,15.8c-10.3,10.7-16.7,25.5-18.6,42.9
		c-48,9.5-91.7,35-123.8,72.6c-0.8,0.8-1.5,1.6-2.2,2.5c-0.8,1-1.4,1.8-2,2.5c-15.3,19-27.2,40.1-35.4,62.9
		c-8.5,23.7-12.9,48.6-12.9,73.9c0,47.2,14.9,92.2,43.1,130.1l0.1,0.1l0.1,0.1l5.8,7.5l0.1,0.1l0.1,0.1
		c17.6,21.5,38.7,39.3,62.9,52.9c22.6,12.6,46.9,21.1,72.3,25.1c1.3,14.9,7,36.2,27.1,54c-0.5,0.9-1,1.8-1.5,2.9
		c-0.2,0.5-0.5,0.9-0.7,1.4s-0.5,1-0.7,1.5v0.1v0.1l-0.2,0.4c-0.2,0.5-0.5,1-0.7,1.4c-0.1,0.2-0.2,0.5-0.4,0.8
		c-5.4,12.1-9,25.1-10.6,38.7v0.1v0.1v0.1c0,0.2,0,0.3-0.1,0.5v0.4v0.4c-0.4,3.7-0.6,7.3-0.7,10.9c-32.5-5.2-63.8-15.1-93.2-29.5
		c-32.7-16-62.5-37.4-88.6-63.5c-26.2-26.2-47.7-56.3-63.8-89.2c-1.5-3.1-3.2-6.9-3.5-7.7c0.2,0.6,1.3,3.7-0.5,7.1l-8-4.2l2,8.8
		l-2-8.8l0,0l8-3.6c-3.8-8.4-7.2-16.9-10.2-25.2c-5.5-17.9-10-34.6-13.4-49.7c-3.8-20.4-5.8-41.3-5.8-62.1c0-39.5,6.8-78,20.3-114.7
		c1.2-2.1,1.9-4.4,2.3-5.8c0.1-0.2,0.1-0.4,0.2-0.6c16.7-42.6,41.7-80.8,74.5-113.6C209,88,241.5,65.3,277.3,48.9
		C309.7,34.1,344.2,24.7,379.8,20.9 M390,10.9c-81.5,6-157.2,40.6-215.6,98.9c-34.1,34.1-60,74.1-76.9,117.6
		c0.2,0.2-1.7,4.8-1.8,4.8l0,0c-13.9,37.5-21.1,77.5-21.1,118.6c0,21.7,2,43.1,6,64c3.5,15.5,8.1,32.4,13.7,50.7
		c3.1,8.8,6.7,17.5,10.5,26c0.1,0,0.1,0,0.2,0c-0.2,0,3.9,8.7,3.9,8.7c16.4,33.6,38.4,64.5,65.6,91.7c54,54,122.9,87.6,197.4,97.1
		c-0.4-5-0.5-12.1,0.4-20.3c0-0.3,0.1-0.6,0.1-0.9c0-0.2,0-0.4,0.1-0.6c1.2-10.7,4.1-23.4,9.9-36.2c0.1-0.2,0.2-0.4,0.3-0.6
		c0.3-0.6,0.6-1.2,0.9-1.8c0.2-0.5,0.5-1,0.7-1.4s0.4-0.9,0.6-1.3c0.5-1,1-1.9,1.5-2.9c0.3-0.5,0.6-1.1,0.9-1.6
		c0.1-0.2,0.2-0.4,0.4-0.6c0.2-0.3,0.4-0.6,0.6-1c0.6-1.1,1.3-2.1,1.9-3.1c-26-19.3-30.2-44.7-30.1-59.7
		c-55-6.7-103.5-34.8-136.9-75.7l-5.8-7.5c-25.9-34.9-41.3-78.1-41.3-124.8c0-49.7,17.4-95.5,46.5-131.4c-0.1,0,3.4-4.3,3.5-4.3l0,0
		c31.5-37,75.7-62.9,125.7-71.1c0.7-18.4,6.4-33.7,16.6-44.3c2.3-2.4,6.7-6.9,31.3-17.3c-1-2.1-2-4.4-3-6.9
		C386.8,48.9,387.7,24.8,390,10.9L390,10.9z"/>
</g>
<path id="DIF:_Moon" class="st4" d="M473.8,528c-27.4,13.5-57.6,20.6-88.4,20.6c-110,0-199.5-89.5-199.5-199.5
	s89.5-199.5,199.5-199.5c24.1,0,47.6,4.2,69.8,12.6c-0.7,0.2-1.3,0.4-2,0.6c-0.5,0.2-1,0.3-1.6,0.5c-1,0.3-2,0.7-3,1
	c-0.3,0.1-0.7,0.2-1.1,0.4c-1.3,0.5-2.7,0.9-4,1.4c-0.5,0.2-0.9,0.3-1.4,0.5c-0.9,0.3-1.8,0.6-2.6,1c-0.5,0.2-1.1,0.4-1.6,0.6
	c-0.8,0.3-1.5,0.6-2.3,0.9c-0.6,0.2-1.2,0.5-1.7,0.7c-0.7,0.3-1.5,0.6-2.2,0.9c-0.6,0.2-1.2,0.5-1.8,0.7c-0.7,0.3-1.4,0.6-2.1,0.9
	c-0.6,0.3-1.2,0.5-1.8,0.8c-0.7,0.3-1.4,0.6-2.1,1c-0.6,0.3-1.2,0.5-1.7,0.8c-0.7,0.3-1.4,0.7-2.1,1c-0.5,0.3-1.1,0.5-1.6,0.8
	c-0.8,0.4-1.5,0.7-2.2,1.1c-0.5,0.2-1,0.5-1.5,0.8c-0.9,0.5-1.8,0.9-2.8,1.4c-0.3,0.2-0.6,0.3-1,0.5c-1.2,0.6-2.4,1.3-3.6,1.9
	c-0.4,0.2-0.9,0.5-1.3,0.7c-0.8,0.4-1.5,0.8-2.3,1.3c-0.5,0.3-1,0.6-1.5,0.9c-0.7,0.4-1.4,0.8-2,1.2c-0.5,0.3-1.1,0.6-1.6,1
	c-0.7,0.4-1.3,0.8-2,1.2c-0.5,0.3-1,0.7-1.6,1c-0.6,0.4-1.3,0.8-1.9,1.2c-0.5,0.3-1,0.7-1.5,1c-0.6,0.4-1.3,0.8-1.9,1.3
	c-0.5,0.3-1,0.7-1.5,1c-0.6,0.4-1.3,0.9-1.9,1.3c-0.5,0.3-0.9,0.6-1.4,1c-0.7,0.5-1.4,1-2.1,1.5c-0.4,0.3-0.8,0.6-1.2,0.9
	c-0.9,0.7-1.8,1.4-2.7,2c-0.2,0.1-0.4,0.3-0.5,0.4c-1.1,0.8-2.1,1.6-3.2,2.5c-0.4,0.3-0.7,0.6-1.1,0.9c-0.7,0.5-1.4,1.1-2.1,1.7
	c-0.4,0.3-0.8,0.7-1.2,1c-0.6,0.5-1.2,1-1.9,1.6c-0.4,0.4-0.8,0.7-1.3,1.1c-0.6,0.5-1.2,1-1.8,1.5c-0.4,0.4-0.9,0.8-1.3,1.1
	c-0.6,0.5-1.1,1-1.7,1.5c-0.4,0.4-0.8,0.8-1.2,1.2c-0.6,0.5-1.1,1.1-1.7,1.6c-0.4,0.4-0.8,0.8-1.2,1.1c-0.6,0.6-1.2,1.1-1.7,1.7
	l-1.1,1.1c-0.6,0.6-1.2,1.3-1.9,1.9c-0.3,0.3-0.6,0.6-0.9,0.9c-0.9,0.9-1.8,1.9-2.7,2.9c-30.9,33.6-47.2,73.8-47.2,116.2
	c0,44.4,18.8,87.8,52.9,122.1c1,1,2,2,3,3c0.3,0.3,0.7,0.7,1,1c0.7,0.7,1.4,1.3,2.1,2c0.4,0.4,0.8,0.8,1.2,1.1
	c0.6,0.6,1.3,1.2,1.9,1.8c0.4,0.4,0.9,0.8,1.3,1.2c0.6,0.6,1.3,1.1,1.9,1.6c0.5,0.4,0.9,0.8,1.4,1.2c0.6,0.5,1.3,1,1.9,1.6
	c0.5,0.4,1,0.8,1.5,1.2c0.6,0.5,1.3,1,1.9,1.5c0.5,0.4,1,0.8,1.5,1.2c0.7,0.5,1.3,1,2,1.5c0.5,0.4,1,0.7,1.5,1.1
	c0.7,0.5,1.4,1,2.1,1.5c0.5,0.4,1,0.7,1.4,1c0.8,0.5,1.5,1.1,2.3,1.6c0.4,0.3,0.9,0.6,1.3,0.9c1,0.7,2,1.4,3,2
	c0.2,0.1,0.4,0.3,0.6,0.4c1.2,0.8,2.4,1.6,3.7,2.4c0.4,0.3,0.9,0.5,1.3,0.8c0.8,0.5,1.6,1,2.5,1.5c0.5,0.3,1,0.6,1.6,0.9
	c0.7,0.4,1.5,0.9,2.2,1.3c0.6,0.3,1.1,0.6,1.7,1c0.7,0.4,1.4,0.8,2.2,1.2c0.6,0.3,1.2,0.6,1.8,1c0.7,0.4,1.4,0.8,2.2,1.2
	c0.6,0.3,1.2,0.6,1.8,0.9c0.7,0.4,1.5,0.8,2.2,1.1c0.6,0.3,1.2,0.6,1.8,0.9c0.7,0.4,1.5,0.7,2.2,1.1c0.6,0.3,1.2,0.6,1.8,0.9
	c0.8,0.4,1.5,0.7,2.3,1.1c0.6,0.3,1.2,0.5,1.8,0.8c0.8,0.4,1.6,0.7,2.4,1.1c0.6,0.2,1.1,0.5,1.7,0.7c1,0.4,2,0.9,3,1.3
	c0.4,0.2,0.8,0.3,1.1,0.5c1.4,0.6,2.8,1.1,4.2,1.7c0.5,0.2,1,0.4,1.5,0.5c0.9,0.4,1.9,0.7,2.8,1.1c0.6,0.2,1.2,0.4,1.7,0.6
	c0.9,0.3,1.7,0.6,2.5,0.9c0.6,0.2,1.2,0.4,1.9,0.6c0.8,0.3,1.6,0.6,2.5,0.9c0.6,0.2,1.3,0.4,1.9,0.6c0.8,0.3,1.6,0.5,2.5,0.8
	c0.7,0.2,1.3,0.4,1.9,0.6c0.8,0.3,1.7,0.5,2.5,0.8c0.6,0.2,1.3,0.4,1.9,0.6c0.8,0.2,1.7,0.5,2.6,0.7c0.6,0.2,1.2,0.3,1.9,0.5
	c0.9,0.2,1.8,0.5,2.7,0.7c0.6,0.2,1.2,0.3,1.8,0.5c1,0.2,2,0.5,2.9,0.7c0.5,0.1,1,0.2,1.6,0.4C473.5,527.9,473.7,527.9,473.8,528z"
	/>
<path id="DIF:_Sun" class="st5" d="M584.6,360L584.6,360C584.6,360.1,584.6,360.1,584.6,360c-1.6,28.5-9.2,56.3-22.3,81.4
	c0,0-0.1,0-0.1-0.1l-2.2,4.5l0,0c-0.8,1.3-1.5,2.7-2.3,4c-17,29.1-41.3,53.5-70.2,70.7c-0.5-0.1-0.9-0.2-1.3-0.2
	c-0.8-0.2-1.6-0.3-2.4-0.5c-0.7-0.2-1.5-0.3-2.2-0.5c-0.8-0.2-1.6-0.3-2.3-0.5c-0.7-0.2-1.5-0.3-2.2-0.5c-0.8-0.2-1.5-0.3-2.3-0.5
	c-0.7-0.2-1.5-0.3-2.2-0.5c-0.8-0.2-1.5-0.4-2.3-0.6c-0.7-0.2-1.5-0.4-2.2-0.6c-0.7-0.2-1.5-0.4-2.2-0.6c-0.7-0.2-1.5-0.4-2.2-0.6
	c-0.7-0.2-1.5-0.4-2.2-0.6c-0.7-0.2-1.5-0.4-2.2-0.7c-0.7-0.2-1.4-0.4-2.2-0.7c-0.7-0.2-1.5-0.5-2.2-0.7s-1.4-0.5-2.1-0.7
	s-1.5-0.5-2.2-0.8c-0.7-0.2-1.4-0.5-2.1-0.7c-0.7-0.3-1.5-0.5-2.2-0.8c-0.7-0.2-1.4-0.5-2.1-0.8s-1.5-0.5-2.2-0.8s-1.4-0.5-2-0.8
	c-0.7-0.3-1.5-0.6-2.2-0.9s-1.3-0.5-2-0.8s-1.4-0.6-2.2-0.9c-0.6-0.3-1.3-0.6-2-0.9s-1.4-0.6-2.2-0.9c-0.7-0.3-1.3-0.6-1.9-0.9
	c-0.7-0.3-1.4-0.7-2.1-1c-0.6-0.3-1.3-0.6-1.9-0.9c-0.7-0.3-1.4-0.7-2.1-1c-0.6-0.3-1.2-0.6-1.9-0.9c-0.7-0.4-1.4-0.7-2.1-1.1
	c-0.6-0.3-1.2-0.6-1.8-1c-0.7-0.4-1.4-0.7-2.1-1.1c-0.6-0.3-1.2-0.7-1.8-1c-0.7-0.4-1.4-0.8-2-1.2c-0.6-0.3-1.2-0.7-1.8-1
	c-0.7-0.4-1.3-0.8-2-1.2c-0.6-0.4-1.2-0.7-1.8-1c-0.7-0.4-1.3-0.8-2-1.2c-0.6-0.4-1.2-0.7-1.8-1.1c-0.7-0.4-1.3-0.8-2-1.3
	c-0.6-0.4-1.1-0.7-1.7-1.1c-0.7-0.4-1.3-0.9-2-1.3c-0.5-0.4-1.1-0.7-1.7-1.1s-1.3-0.9-1.9-1.3c-0.5-0.4-1.1-0.8-1.6-1.2
	c-0.6-0.5-1.3-0.9-1.9-1.4c-0.5-0.4-1.1-0.8-1.6-1.2c-0.6-0.5-1.2-1-1.9-1.4c-0.5-0.4-1-0.8-1.6-1.2c-0.6-0.5-1.2-1-1.8-1.5
	c-0.5-0.4-1-0.8-1.5-1.2c-0.6-0.5-1.2-1-1.8-1.5c-0.5-0.4-1-0.8-1.5-1.2c-0.6-0.5-1.2-1.1-1.8-1.6c-0.5-0.4-0.9-0.8-1.4-1.2
	c-0.6-0.5-1.2-1.1-1.9-1.7c-0.4-0.4-0.9-0.8-1.3-1.2c-0.7-0.6-1.4-1.3-2.1-1.9c-0.3-0.3-0.7-0.6-1-1c-1-1-2-2-3-3
	c-32.2-32.4-49.9-73.2-49.9-115c0-39.8,15.4-77.6,44.6-109.4c0.9-1,1.8-1.9,2.7-2.9c0.3-0.3,0.6-0.6,0.9-0.9
	c0.6-0.6,1.2-1.3,1.8-1.9c0.4-0.4,0.8-0.8,1.2-1.2c0.5-0.5,1.1-1.1,1.6-1.6c0.4-0.4,0.9-0.8,1.3-1.2c0.5-0.5,1.1-1,1.6-1.5
	c0.5-0.4,0.9-0.8,1.4-1.2c0.5-0.5,1-1,1.6-1.4c0.5-0.4,1-0.9,1.5-1.3c0.5-0.5,1-0.9,1.5-1.3c0.5-0.4,1-0.8,1.5-1.3
	c0.5-0.4,1-0.9,1.5-1.3c0.5-0.4,1-0.8,1.6-1.3c0.5-0.4,1-0.8,1.6-1.3c0.5-0.4,1.1-0.8,1.6-1.2s1-0.8,1.6-1.2
	c0.5-0.4,1.1-0.8,1.7-1.2c0.5-0.4,1.1-0.8,1.6-1.2c0.6-0.4,1.1-0.8,1.7-1.2c0.5-0.4,1.1-0.8,1.6-1.2c0.6-0.4,1.2-0.8,1.7-1.2
	s1.1-0.7,1.6-1.1c0.6-0.4,1.2-0.8,1.8-1.2c0.5-0.4,1.1-0.7,1.6-1.1c0.6-0.4,1.2-0.8,1.8-1.1c0.6-0.4,1.1-0.7,1.7-1.1
	c0.6-0.4,1.2-0.8,1.8-1.1c0.6-0.3,1.1-0.7,1.7-1c0.6-0.4,1.2-0.7,1.8-1.1c0.6-0.3,1.1-0.7,1.7-1c0.6-0.4,1.2-0.7,1.9-1.1
	c0.6-0.3,1.1-0.7,1.7-1s1.3-0.7,1.9-1s1.2-0.6,1.8-1c0.6-0.3,1.3-0.7,1.9-1s1.2-0.6,1.8-0.9c0.6-0.3,1.3-0.7,2-1
	c0.6-0.3,1.2-0.6,1.8-0.9c0.7-0.3,1.3-0.6,2-0.9c0.6-0.3,1.2-0.6,1.8-0.9c0.7-0.3,1.3-0.6,2-0.9c0.6-0.3,1.2-0.6,1.9-0.8
	c0.7-0.3,1.3-0.6,2-0.9c0.6-0.3,1.3-0.5,1.9-0.8c0.7-0.3,1.3-0.5,2-0.8c0.6-0.3,1.3-0.5,1.9-0.8c0.7-0.3,1.3-0.5,2-0.8
	c0.6-0.2,1.3-0.5,2-0.8c0.7-0.2,1.3-0.5,2-0.8c0.7-0.2,1.3-0.5,2-0.7s1.3-0.5,2-0.7s1.3-0.5,2-0.7s1.4-0.5,2-0.7
	c0.7-0.2,1.3-0.4,2-0.7c0.7-0.2,1.4-0.4,2-0.7c0.7-0.2,1.4-0.4,2-0.6s1.4-0.4,2-0.6c0.7-0.2,1.4-0.4,2.1-0.6c0.7-0.2,1.4-0.4,2-0.6
	c0.2-0.1,0.4-0.1,0.7-0.2c0,0,5.2,0.1,5.6-0.9c31.6,15,58.6,38,78.5,66.7c-0.7,0.5,3,4.4,3,4.5c19.1,29.1,30,62.4,32.1,97.1
	c-0.6,0-0.3,5,0.2,5c0.1,2.3,0.1,4.7,0.1,7C584.9,352.7,584.8,356.4,584.6,360z"/>
<rect id="NLED:_APA102C" x="120.9" y="356.6" class="st6" width="14.2" height="14.2"/>
<rect id="NLED:_APA102C_1_" x="259.4" y="111.5" class="st6" width="14.2" height="14.2"/>
<rect id="NLED:_APA102C_2_" x="493.1" y="92.8" class="st6" width="14.2" height="14.2"/>
<rect id="NLED:_APA102C_3_" x="409.9" y="115.6" class="st6" width="14.2" height="14.2"/>
<rect id="NLED:_APA102C_4_" x="529.5" y="163.8" class="st6" width="14.2" height="14.2"/>
<rect id="NLED:_APA102C_5_" x="587.8" y="112.8" class="st6" width="14.2" height="14.2"/>
<rect id="NLED:_APA102C_6_" x="618.1" y="187.1" class="st6" width="14.2" height="14.2"/>
<rect id="NLED:_APA102C_7_" x="602.2" y="269.9" class="st6" width="14.2" height="14.2"/>
<rect id="NLED:_APA102C_8_" x="687.1" y="261.2" class="st6" width="14.2" height="14.2"/>
<rect id="NLED:_APA102C_9_" x="599.6" y="399.7" class="st6" width="14.2" height="14.2"/>
<rect id="NLED:_APA102C_10_" x="688.8" y="340" class="st6" width="14.2" height="14.2"/>
<rect id="NLED:_APA102C_11_" x="689.9" y="440" class="st6" width="14.2" height="14.2"/>
<rect id="NLED:_APA102C_12_" x="539.1" y="512.8" class="st6" width="14.2" height="14.2"/>
<rect id="NLED:_APA102C_13_" x="646.4" y="506.6" class="st6" width="14.2" height="14.2"/>
<rect id="NLED:_APA102C_14_" x="596.1" y="586.7" class="st6" width="14.2" height="14.2"/>
<rect id="NLED:_APA102C_15_" x="495.1" y="570.3" class="st6" width="14.2" height="14.2"/>
<rect id="NLED:_APA102C_16_" x="418.9" y="579.4" class="st6" width="14.2" height="14.2"/>
<rect id="NLED:_APA102C_17_" x="432.4" y="658.2" class="st6" width="14.2" height="14.2"/>
<rect id="NLED:_APA102C_18_" x="253.7" y="578.8" class="st6" width="14.2" height="14.2"/>
<rect id="NLED:_APA102C_19_" x="262" y="261.7" class="st6" width="14.2" height="14.2"/>
<rect id="NLED:_APA102C_20_" x="279.1" y="442.3" class="st6" width="14.2" height="14.2"/>
<rect id="NLED:_APA102C_21_" x="443.9" y="344.6" class="st6" width="14.2" height="14.2"/>
<polyline id="CP:_CircuitPath" class="st7" points="90,286.9 276.2,261.7 259.4,111.5 424.1,129.8 500.2,99.9 543.6,178 
	601.9,112.8 625.1,194.1 609.2,277 687.1,261.2 695.9,347.1 606.7,406.8 689.9,440 660.6,506.6 539.1,527 603.1,593.7 495.1,570.3 
	432.4,672.4 426,586.4 260.8,585.9 286.1,449.3 451,351.7 89.1,367.8 54,370.8 "/>
<rect id="MC:_ATTINY" x="233" y="624.7" transform="matrix(0.4711 -0.8821 0.8821 0.4711 -460.1998 576.8654)" class="st8" width="35.8" height="95.1"/>
<polygon id="BI:_Breakin_1_" class="st9" points="49,360.1 48.2,361.7 47.6,362.8 45.9,365.9 45.4,366.9 43.7,370.1 41.5,374.2 
	60,384.1 61.5,381.3 62.2,380 63.9,376.8 64.4,375.8 66.1,372.6 66.7,371.6 67.5,370 68.3,368.5 49.8,358.6 "/>
<polyline id="WIRE:_manual_wire" class="st10" points="292.4,695.5 301.4,700.3 310.4,683.4 207.3,604 54,370.8 "/>
</svg>
