<?xml version="1.0" encoding="utf-8"?>
<!-- Generator: Adobe Illustrator 19.2.1, SVG Export Plug-In . SVG Version: 6.00 Build 0)  -->
<svg version="1.1" id="ELD:_Sun_and_Moon" xmlns="http://www.w3.org/2000/svg" xmlns:xlink="http://www.w3.org/1999/xlink" x="0px"
	 y="0px" viewBox="0 0 766.4 701.8" style="enable-background:new 0 0 766.4 701.8;" xml:space="preserve">
<style type="text/css">
	.st0{fill:#00A651;}
	.st1{fill:#231F20;}
	.st2{fill:#1C75BC;}
	.st3{fill:#2B3990;stroke:#231F20;stroke-width:9;stroke-miterlimit:10;}
	.st4{fill:#FFF200;stroke:#231F20;stroke-width:9;stroke-miterlimit:10;}
	.st5{fill:#00AEEF;}
	.st6{fill:#0C00FF;}
	.st7{fill:none;stroke:#FFF200;stroke-width:4;}
</style>
<g id="DIF:_SunRays_2_">
	<g>
		<path class="st0" d="M419.2,688.4c-13.3,0-26.7-0.8-39.9-2.3c-0.1-8,0.1-14,0.4-16.7l0.2-1.5c1.4-12.2,4.6-23.9,9.5-34.8l0.1-0.2
			c0-0.1,0.1-0.2,0.1-0.3c0.2-0.5,0.5-1,0.7-1.4l0.2-0.4c0.2-0.4,0.4-0.9,0.7-1.3c0.2-0.4,0.4-0.8,0.6-1.2c0.5-1,1-1.9,1.5-2.8
			c0.3-0.5,0.6-1.1,0.9-1.6c0.1-0.2,0.9-1.5,0.9-1.5c0.6-1,1.2-2,1.8-3l2.2-3.5l-3.3-2.5c-21.3-15.8-27.3-35.7-28.1-51.1
			c5,0.4,12.3,0.8,20.3,0.8c57.1,0,110.7-22.2,151.1-62.5s62.6-93.9,62.6-150.9c0-117.6-95.9-213.3-213.7-213.3
			c-10.2,0-19.7,0.1-28.4,0.3c1.5-14.7,6.6-26.8,14.9-35.5c2-2,6-6.3,29.8-16.3l4.3-1.8l-2-4.2c-1.2-2.5-2.1-4.6-2.9-6.7
			c-7.3-18.7-6.8-44.7-5.9-58.2c7.2-0.4,14.4-0.7,21.5-0.7c90.3,0,175.2,35.1,239.1,98.9s99,148.5,99,238.7s-35.2,174.9-99,238.7
			C594.4,653.2,509.5,688.4,419.2,688.4z"/>
		<path class="st1" d="M419.2,17.8c45,0,88.7,8.8,129.8,26.2c39.7,16.8,75.4,40.8,106,71.4s54.7,66.2,71.5,105.9
			c17.4,41.1,26.2,84.7,26.2,129.6s-8.8,88.6-26.2,129.6c-16.8,39.7-40.9,75.3-71.5,105.9s-66.3,54.6-106,71.4
			c-41.1,17.4-84.8,26.2-129.8,26.2c-11.8,0-23.7-0.6-35.4-1.9c0-5.8,0.1-10.1,0.4-12.2v-0.4v-0.4l0,0l0,0V669c0-0.1,0-0.3,0-0.4
			c1.4-11.8,4.4-23.1,9.1-33.5l0.1-0.2v-0.1l0.1-0.1v-0.1v-0.1c0.2-0.4,0.4-0.9,0.6-1.3l0.2-0.4c0.2-0.4,0.4-0.9,0.6-1.3l0,0l0,0
			c0.2-0.4,0.3-0.7,0.5-1.1l0,0l0,0c0.5-1,0.9-1.8,1.4-2.6c0.3-0.5,0.6-1,0.9-1.5c0.1-0.2,0.2-0.3,0.3-0.5c0.1-0.2,0.2-0.4,0.3-0.6
			c0.1-0.1,0.1-0.3,0.2-0.4c0.6-1,1.2-2,1.8-2.9l4.4-7.1l-6.7-5c-17.6-13-24-29.1-25.8-42.6c4.4,0.3,9.7,0.5,15.4,0.5
			c29.4,0,58-5.8,84.9-17.1c26-11,49.3-26.7,69.4-46.7c20-20,35.8-43.3,46.8-69.2c11.4-26.9,17.2-55.4,17.2-84.8
			s-5.8-57.9-17.2-84.8c-11-25.9-26.7-49.2-46.8-69.2c-20-20-43.4-35.7-69.4-46.7c-26.9-11.4-55.5-17.1-84.9-17.1
			c-8.2,0-16,0.1-23.2,0.2c2-11.4,6.4-20.8,13-27.7c1.6-1.7,5.4-5.6,28.3-15.3l8.6-3.6l-3.9-8.4c-0.7-1.5-1.7-3.8-2.8-6.4
			c-6.4-16.3-6.5-38.5-5.8-52.3C407.8,17.9,413.6,17.8,419.2,17.8 M419.2,8.8c-8.6,0-17.2,0.3-25.6,1c-1.5,17.6-1.7,44.8,5.9,64.1
			c1,2.5,2,4.8,3,6.9c-24.6,10.4-28.9,14.9-31.3,17.3c-10,10.4-15.7,25.3-16.6,43.2c9.2-0.3,20.2-0.5,33.3-0.5
			c115.5,0,209.2,93.5,209.2,208.8s-93.7,208.8-209.2,208.8c-10.5,0-20-0.8-25-1.3c-0.1,15.1,4.1,40.4,30.1,59.7
			c-0.6,1-1.3,2-1.9,3.1c-0.2,0.3-0.4,0.6-0.6,1c-0.1,0.2-0.2,0.4-0.3,0.6c-0.3,0.5-0.6,1.1-0.9,1.6c-0.5,1-1,1.9-1.5,2.9
			c-0.2,0.4-0.4,0.9-0.6,1.3c-0.2,0.5-0.5,1-0.7,1.4c-0.3,0.6-0.6,1.2-0.9,1.8c-0.1,0.2-0.2,0.4-0.3,0.6
			c-5.8,12.8-8.6,25.4-9.9,36.2c0,0.2,0,0.4-0.1,0.6c0,0.3-0.1,0.6-0.1,0.9c-0.4,3.9-0.5,12.6-0.3,21.2c14.5,1.9,29.3,2.8,44.3,2.8
			c189.2,0,342.6-153.1,342.6-342S608.4,8.8,419.2,8.8L419.2,8.8z M359.4,556.8c-0.3,0,1,0.2,3.5,0.4v-0.1
			C360.8,556.9,359.7,556.8,359.4,556.8L359.4,556.8z"/>
	</g>
</g>
<g id="DIF:_MoonRAys">
	<path class="st2" d="M367.1,683.8c-72.1-10.3-137.5-43.1-189.5-95.1c-26.6-26.6-48.4-57.1-64.7-90.5c-1.5-3.3-3.4-7.3-3.7-8.1
		c0.1,0.2,0.6,1.8-0.3,3.5l-2.9,2.2l-2-8.6l4.9,2.4c-3.9-8.5-7.4-17.2-10.4-25.6c-5.6-18-10.1-34.9-13.6-50.2
		c-3.9-20.7-5.9-41.9-5.9-63c0-40.2,7-79.5,20.7-116.8c0.3-0.6,0.6-1.2,0.8-1.8c0.2-0.6,0.8-2.1,1.1-3.1c0.1-0.2,0.1-0.5,0.2-0.7
		c16.9-43.3,42.3-82.2,75.7-115.5c28.6-28.6,61.5-51.6,97.8-68.2c34.5-15.8,71.3-25.6,109.4-29c-1.4,12.5-1.9,35.4,7.5,59.5
		c0.4,1,0.8,1.9,1.2,2.9c-21.8,9.5-26,13.9-28.5,16.6c-10.3,10.7-16.3,25.7-17.7,43.6c-48.3,8.7-92.5,34.1-124.6,71.8
		c-0.6,0.6-1.3,1.4-2.1,2.4c-0.9,1.1-1.5,1.8-1.9,2.4c-30.5,37.9-47.3,85.5-47.3,134c0,46.3,14.6,90.3,42.2,127.4l6,7.7
		c34.4,42.2,82.6,69.4,136,76.9c0.6,14.7,5.7,38.2,28.6,56.9l-0.4,0.7c-0.1,0.2-0.3,0.4-0.4,0.7c-0.3,0.5-0.6,1.1-0.9,1.7
		c-0.6,1-1.1,2-1.6,3c-0.2,0.4-0.4,0.8-0.7,1.3c0,0-0.5,1.1-0.7,1.5l-0.2,0.5c-0.2,0.5-0.5,1-0.7,1.5c-0.1,0.2-0.2,0.4-0.3,0.7
		c-5.3,11.7-8.7,24.3-10.2,37.4l-0.2,1.5C367.2,673.6,367,678.9,367.1,683.8z"/>
	<path class="st1" d="M379.8,20.9c-0.9,13.4-0.3,33.7,7.9,55c-17.5,7.9-22.6,12.3-26,15.8c-10.3,10.7-16.7,25.5-18.6,42.9
		c-48,9.5-91.7,35-123.8,72.6c-0.8,0.8-1.5,1.6-2.2,2.5c-0.8,1-1.4,1.8-2,2.5c-15.3,19-27.2,40.1-35.4,62.9
		c-8.5,23.7-12.9,48.6-12.9,73.9c0,47.2,14.9,92.2,43.1,130.1l0.1,0.1l0.1,0.1l5.8,7.5l0.1,0.1l0.1,0.1
		c17.6,21.5,38.7,39.3,62.9,52.9c22.6,12.6,46.9,21.1,72.3,25.1c1.3,14.9,7,36.2,27.1,54c-0.5,0.9-1,1.8-1.5,2.9
		c-0.2,0.5-0.5,0.9-0.7,1.4s-0.5,1-0.7,1.5v0.1v0.1l-0.2,0.4c-0.2,0.5-0.5,1-0.7,1.4c-0.1,0.2-0.2,0.5-0.4,0.8
		c-5.4,12.1-9,25.1-10.6,38.7v0.1v0.1v0.1c0,0.2,0,0.3-0.1,0.5v0.4v0.4c-0.4,3.7-0.6,7.3-0.7,10.9c-32.5-5.2-63.8-15.1-93.2-29.5
		c-32.7-16-62.5-37.4-88.6-63.5c-26.2-26.2-47.7-56.3-63.8-89.2c-1.5-3.1-3.2-6.9-3.5-7.7c0.2,0.6,1.3,3.7-0.5,7.1l-8-4.2l2,8.8
		l-2-8.8l0,0l8-3.6c-3.8-8.4-7.2-16.9-10.2-25.2c-5.5-17.9-10-34.6-13.4-49.7c-3.8-20.4-5.8-41.3-5.8-62.1c0-39.5,6.8-78,20.3-114.7
		c1.2-2.1,1.9-4.4,2.3-5.8c0.1-0.2,0.1-0.4,0.2-0.6c16.7-42.6,41.7-80.8,74.5-113.6C209,88,241.5,65.3,277.3,48.9
		C309.7,34.1,344.2,24.7,379.8,20.9 M390,10.9c-81.5,6-157.2,40.6-215.6,98.9c-34.1,34.1-60,74.1-76.9,117.6
		c0.2,0.2-1.7,4.8-1.8,4.8l0,0c-13.9,37.5-21.1,77.5-21.1,118.6c0,21.7,2,43.1,6,64c3.5,15.5,8.1,32.4,13.7,50.7
		c3.1,8.8,6.7,17.5,10.5,26c0.1,0,0.1,0,0.2,0c-0.2,0,3.9,8.7,3.9,8.7c16.4,33.6,38.4,64.5,65.6,91.7c54,54,122.9,87.6,197.4,97.1
		c-0.4-5-0.5-12.1,0.4-20.3c0-0.3,0.1-0.6,0.1-0.9c0-0.2,0-0.4,0.1-0.6c1.2-10.7,4.1-23.4,9.9-36.2c0.1-0.2,0.2-0.4,0.3-0.6
		c0.3-0.6,0.6-1.2,0.9-1.8c0.2-0.5,0.5-1,0.7-1.4s0.4-0.9,0.6-1.3c0.5-1,1-1.9,1.5-2.9c0.3-0.5,0.6-1.1,0.9-1.6
		c0.1-0.2,0.2-0.4,0.4-0.6c0.2-0.3,0.4-0.6,0.6-1c0.6-1.1,1.3-2.1,1.9-3.1c-26-19.3-30.2-44.7-30.1-59.7
		c-55-6.7-103.5-34.8-136.9-75.7l-5.8-7.5c-25.9-34.9-41.3-78.1-41.3-124.8c0-49.7,17.4-95.5,46.5-131.4c-0.1,0,3.4-4.3,3.5-4.3l0,0
		c31.5-37,75.7-62.9,125.7-71.1c0.7-18.4,6.4-33.7,16.6-44.3c2.3-2.4,6.7-6.9,31.3-17.3c-1-2.1-2-4.4-3-6.9
		C386.8,48.9,387.7,24.8,390,10.9L390,10.9z"/>
</g>
<path id="DIF:_Moon" class="st3" d="M473.8,528c-27.4,13.5-57.6,20.6-88.4,20.6c-110,0-199.5-89.5-199.5-199.5
	s89.5-199.5,199.5-199.5c24.1,0,47.6,4.2,69.8,12.6c-0.7,0.2-1.3,0.4-2,0.6c-0.5,0.2-1,0.3-1.6,0.5c-1,0.3-2,0.7-3,1
	c-0.3,0.1-0.7,0.2-1.1,0.4c-1.3,0.5-2.7,0.9-4,1.4c-0.5,0.2-0.9,0.3-1.4,0.5c-0.9,0.3-1.8,0.6-2.6,1c-0.5,0.2-1.1,0.4-1.6,0.6
	c-0.8,0.3-1.5,0.6-2.3,0.9c-0.6,0.2-1.2,0.5-1.7,0.7c-0.7,0.3-1.5,0.6-2.2,0.9c-0.6,0.2-1.2,0.5-1.8,0.7c-0.7,0.3-1.4,0.6-2.1,0.9
	c-0.6,0.3-1.2,0.5-1.8,0.8c-0.7,0.3-1.4,0.6-2.1,1c-0.6,0.3-1.2,0.5-1.7,0.8c-0.7,0.3-1.4,0.7-2.1,1c-0.5,0.3-1.1,0.5-1.6,0.8
	c-0.8,0.4-1.5,0.7-2.2,1.1c-0.5,0.2-1,0.5-1.5,0.8c-0.9,0.5-1.8,0.9-2.8,1.4c-0.3,0.2-0.6,0.3-1,0.5c-1.2,0.6-2.4,1.3-3.6,1.9
	c-0.4,0.2-0.9,0.5-1.3,0.7c-0.8,0.4-1.5,0.8-2.3,1.3c-0.5,0.3-1,0.6-1.5,0.9c-0.7,0.4-1.4,0.8-2,1.2c-0.5,0.3-1.1,0.6-1.6,1
	c-0.7,0.4-1.3,0.8-2,1.2c-0.5,0.3-1,0.7-1.6,1c-0.6,0.4-1.3,0.8-1.9,1.2c-0.5,0.3-1,0.7-1.5,1c-0.6,0.4-1.3,0.8-1.9,1.3
	c-0.5,0.3-1,0.7-1.5,1c-0.6,0.4-1.3,0.9-1.9,1.3c-0.5,0.3-0.9,0.6-1.4,1c-0.7,0.5-1.4,1-2.1,1.5c-0.4,0.3-0.8,0.6-1.2,0.9
	c-0.9,0.7-1.8,1.4-2.7,2c-0.2,0.1-0.4,0.3-0.5,0.4c-1.1,0.8-2.1,1.6-3.2,2.5c-0.4,0.3-0.7,0.6-1.1,0.9c-0.7,0.5-1.4,1.1-2.1,1.7
	c-0.4,0.3-0.8,0.7-1.2,1c-0.6,0.5-1.2,1-1.9,1.6c-0.4,0.4-0.8,0.7-1.3,1.1c-0.6,0.5-1.2,1-1.8,1.5c-0.4,0.4-0.9,0.8-1.3,1.1
	c-0.6,0.5-1.1,1-1.7,1.5c-0.4,0.4-0.8,0.8-1.2,1.2c-0.6,0.5-1.1,1.1-1.7,1.6c-0.4,0.4-0.8,0.8-1.2,1.1c-0.6,0.6-1.2,1.1-1.7,1.7
	l-1.1,1.1c-0.6,0.6-1.2,1.3-1.9,1.9c-0.3,0.3-0.6,0.6-0.9,0.9c-0.9,0.9-1.8,1.9-2.7,2.9c-30.9,33.6-47.2,73.8-47.2,116.2
	c0,44.4,18.8,87.8,52.9,122.1c1,1,2,2,3,3c0.3,0.3,0.7,0.7,1,1c0.7,0.7,1.4,1.3,2.1,2c0.4,0.4,0.8,0.8,1.2,1.1
	c0.6,0.6,1.3,1.2,1.9,1.8c0.4,0.4,0.9,0.8,1.3,1.2c0.6,0.6,1.3,1.1,1.9,1.6c0.5,0.4,0.9,0.8,1.4,1.2c0.6,0.5,1.3,1,1.9,1.6
	c0.5,0.4,1,0.8,1.5,1.2c0.6,0.5,1.3,1,1.9,1.5c0.5,0.4,1,0.8,1.5,1.2c0.7,0.5,1.3,1,2,1.5c0.5,0.4,1,0.7,1.5,1.1
	c0.7,0.5,1.4,1,2.1,1.5c0.5,0.4,1,0.7,1.4,1c0.8,0.5,1.5,1.1,2.3,1.6c0.4,0.3,0.9,0.6,1.3,0.9c1,0.7,2,1.4,3,2
	c0.2,0.1,0.4,0.3,0.6,0.4c1.2,0.8,2.4,1.6,3.7,2.4c0.4,0.3,0.9,0.5,1.3,0.8c0.8,0.5,1.6,1,2.5,1.5c0.5,0.3,1,0.6,1.6,0.9
	c0.7,0.4,1.5,0.9,2.2,1.3c0.6,0.3,1.1,0.6,1.7,1c0.7,0.4,1.4,0.8,2.2,1.2c0.6,0.3,1.2,0.6,1.8,1c0.7,0.4,1.4,0.8,2.2,1.2
	c0.6,0.3,1.2,0.6,1.8,0.9c0.7,0.4,1.5,0.8,2.2,1.1c0.6,0.3,1.2,0.6,1.8,0.9c0.7,0.4,1.5,0.7,2.2,1.1c0.6,0.3,1.2,0.6,1.8,0.9
	c0.8,0.4,1.5,0.7,2.3,1.1c0.6,0.3,1.2,0.5,1.8,0.8c0.8,0.4,1.6,0.7,2.4,1.1c0.6,0.2,1.1,0.5,1.7,0.7c1,0.4,2,0.9,3,1.3
	c0.4,0.2,0.8,0.3,1.1,0.5c1.4,0.6,2.8,1.1,4.2,1.7c0.5,0.2,1,0.4,1.5,0.5c0.9,0.4,1.9,0.7,2.8,1.1c0.6,0.2,1.2,0.4,1.7,0.6
	c0.9,0.3,1.7,0.6,2.5,0.9c0.6,0.2,1.2,0.4,1.9,0.6c0.8,0.3,1.6,0.6,2.5,0.9c0.6,0.2,1.3,0.4,1.9,0.6c0.8,0.3,1.6,0.5,2.5,0.8
	c0.7,0.2,1.3,0.4,1.9,0.6c0.8,0.3,1.7,0.5,2.5,0.8c0.6,0.2,1.3,0.4,1.9,0.6c0.8,0.2,1.7,0.5,2.6,0.7c0.6,0.2,1.2,0.3,1.9,0.5
	c0.9,0.2,1.8,0.5,2.7,0.7c0.6,0.2,1.2,0.3,1.8,0.5c1,0.2,2,0.5,2.9,0.7c0.5,0.1,1,0.2,1.6,0.4C473.5,527.9,473.7,527.9,473.8,528z"
	/>
<path id="DIF:_Sun" class="st4" d="M584.6,360L584.6,360C584.6,360.1,584.6,360.1,584.6,360c-1.6,28.5-9.2,56.3-22.3,81.4
	c0,0-0.1,0-0.1-0.1l-2.2,4.5l0,0c-0.8,1.3-1.5,2.7-2.3,4c-17,29.1-41.3,53.5-70.2,70.7c-0.5-0.1-0.9-0.2-1.3-0.2
	c-0.8-0.2-1.6-0.3-2.4-0.5c-0.7-0.2-1.5-0.3-2.2-0.5c-0.8-0.2-1.6-0.3-2.3-0.5c-0.7-0.2-1.5-0.3-2.2-0.5c-0.8-0.2-1.5-0.3-2.3-0.5
	c-0.7-0.2-1.5-0.3-2.2-0.5c-0.8-0.2-1.5-0.4-2.3-0.6c-0.7-0.2-1.5-0.4-2.2-0.6c-0.7-0.2-1.5-0.4-2.2-0.6c-0.7-0.2-1.5-0.4-2.2-0.6
	c-0.7-0.2-1.5-0.4-2.2-0.6c-0.7-0.2-1.5-0.4-2.2-0.7c-0.7-0.2-1.4-0.4-2.2-0.7c-0.7-0.2-1.5-0.5-2.2-0.7s-1.4-0.5-2.1-0.7
	s-1.5-0.5-2.2-0.8c-0.7-0.2-1.4-0.5-2.1-0.7c-0.7-0.3-1.5-0.5-2.2-0.8c-0.7-0.2-1.4-0.5-2.1-0.8s-1.5-0.5-2.2-0.8s-1.4-0.5-2-0.8
	c-0.7-0.3-1.5-0.6-2.2-0.9s-1.3-0.5-2-0.8s-1.4-0.6-2.2-0.9c-0.6-0.3-1.3-0.6-2-0.9s-1.4-0.6-2.2-0.9c-0.7-0.3-1.3-0.6-1.9-0.9
	c-0.7-0.3-1.4-0.7-2.1-1c-0.6-0.3-1.3-0.6-1.9-0.9c-0.7-0.3-1.4-0.7-2.1-1c-0.6-0.3-1.2-0.6-1.9-0.9c-0.7-0.4-1.4-0.7-2.1-1.1
	c-0.6-0.3-1.2-0.6-1.8-1c-0.7-0.4-1.4-0.7-2.1-1.1c-0.6-0.3-1.2-0.7-1.8-1c-0.7-0.4-1.4-0.8-2-1.2c-0.6-0.3-1.2-0.7-1.8-1
	c-0.7-0.4-1.3-0.8-2-1.2c-0.6-0.4-1.2-0.7-1.8-1c-0.7-0.4-1.3-0.8-2-1.2c-0.6-0.4-1.2-0.7-1.8-1.1c-0.7-0.4-1.3-0.8-2-1.3
	c-0.6-0.4-1.1-0.7-1.7-1.1c-0.7-0.4-1.3-0.9-2-1.3c-0.5-0.4-1.1-0.7-1.7-1.1s-1.3-0.9-1.9-1.3c-0.5-0.4-1.1-0.8-1.6-1.2
	c-0.6-0.5-1.3-0.9-1.9-1.4c-0.5-0.4-1.1-0.8-1.6-1.2c-0.6-0.5-1.2-1-1.9-1.4c-0.5-0.4-1-0.8-1.6-1.2c-0.6-0.5-1.2-1-1.8-1.5
	c-0.5-0.4-1-0.8-1.5-1.2c-0.6-0.5-1.2-1-1.8-1.5c-0.5-0.4-1-0.8-1.5-1.2c-0.6-0.5-1.2-1.1-1.8-1.6c-0.5-0.4-0.9-0.8-1.4-1.2
	c-0.6-0.5-1.2-1.1-1.9-1.7c-0.4-0.4-0.9-0.8-1.3-1.2c-0.7-0.6-1.4-1.3-2.1-1.9c-0.3-0.3-0.7-0.6-1-1c-1-1-2-2-3-3
	c-32.2-32.4-49.9-73.2-49.9-115c0-39.8,15.4-77.6,44.6-109.4c0.9-1,1.8-1.9,2.7-2.9c0.3-0.3,0.6-0.6,0.9-0.9
	c0.6-0.6,1.2-1.3,1.8-1.9c0.4-0.4,0.8-0.8,1.2-1.2c0.5-0.5,1.1-1.1,1.6-1.6c0.4-0.4,0.9-0.8,1.3-1.2c0.5-0.5,1.1-1,1.6-1.5
	c0.5-0.4,0.9-0.8,1.4-1.2c0.5-0.5,1-1,1.6-1.4c0.5-0.4,1-0.9,1.5-1.3c0.5-0.5,1-0.9,1.5-1.3c0.5-0.4,1-0.8,1.5-1.3
	c0.5-0.4,1-0.9,1.5-1.3c0.5-0.4,1-0.8,1.6-1.3c0.5-0.4,1-0.8,1.6-1.3c0.5-0.4,1.1-0.8,1.6-1.2s1-0.8,1.6-1.2
	c0.5-0.4,1.1-0.8,1.7-1.2c0.5-0.4,1.1-0.8,1.6-1.2c0.6-0.4,1.1-0.8,1.7-1.2c0.5-0.4,1.1-0.8,1.6-1.2c0.6-0.4,1.2-0.8,1.7-1.2
	s1.1-0.7,1.6-1.1c0.6-0.4,1.2-0.8,1.8-1.2c0.5-0.4,1.1-0.7,1.6-1.1c0.6-0.4,1.2-0.8,1.8-1.1c0.6-0.4,1.1-0.7,1.7-1.1
	c0.6-0.4,1.2-0.8,1.8-1.1c0.6-0.3,1.1-0.7,1.7-1c0.6-0.4,1.2-0.7,1.8-1.1c0.6-0.3,1.1-0.7,1.7-1c0.6-0.4,1.2-0.7,1.9-1.1
	c0.6-0.3,1.1-0.7,1.7-1s1.3-0.7,1.9-1s1.2-0.6,1.8-1c0.6-0.3,1.3-0.7,1.9-1s1.2-0.6,1.8-0.9c0.6-0.3,1.3-0.7,2-1
	c0.6-0.3,1.2-0.6,1.8-0.9c0.7-0.3,1.3-0.6,2-0.9c0.6-0.3,1.2-0.6,1.8-0.9c0.7-0.3,1.3-0.6,2-0.9c0.6-0.3,1.2-0.6,1.9-0.8
	c0.7-0.3,1.3-0.6,2-0.9c0.6-0.3,1.3-0.5,1.9-0.8c0.7-0.3,1.3-0.5,2-0.8c0.6-0.3,1.3-0.5,1.9-0.8c0.7-0.3,1.3-0.5,2-0.8
	c0.6-0.2,1.3-0.5,2-0.8c0.7-0.2,1.3-0.5,2-0.8c0.7-0.2,1.3-0.5,2-0.7s1.3-0.5,2-0.7s1.3-0.5,2-0.7s1.4-0.5,2-0.7
	c0.7-0.2,1.3-0.4,2-0.7c0.7-0.2,1.4-0.4,2-0.7c0.7-0.2,1.4-0.4,2-0.6s1.4-0.4,2-0.6c0.7-0.2,1.4-0.4,2.1-0.6c0.7-0.2,1.4-0.4,2-0.6
	c0.2-0.1,0.4-0.1,0.7-0.2c0,0,5.2,0.1,5.6-0.9c31.6,15,58.6,38,78.5,66.7c-0.7,0.5,3,4.4,3,4.5c19.1,29.1,30,62.4,32.1,97.1
	c-0.6,0-0.3,5,0.2,5c0.1,2.3,0.1,4.7,0.1,7C584.9,352.7,584.8,356.4,584.6,360z"/>
<rect id="NLED:_APA102C" x="120.9" y="356.6" class="st5" width="14.2" height="14.2"/>
<rect id="NLED:_APA102C_1_" x="259.4" y="111.5" class="st5" width="14.2" height="14.2"/>
<rect id="NLED:_APA102C_2_" x="493.1" y="92.8" class="st5" width="14.2" height="14.2"/>
<rect id="NLED:_APA102C_3_" x="409.9" y="115.6" class="st5" width="14.2" height="14.2"/>
<rect id="NLED:_APA102C_4_" x="529.5" y="163.8" class="st5" width="14.2" height="14.2"/>
<rect id="NLED:_APA102C_5_" x="587.8" y="112.8" class="st5" width="14.2" height="14.2"/>
<rect id="NLED:_APA102C_6_" x="618.1" y="187.1" class="st5" width="14.2" height="14.2"/>
<rect id="NLED:_APA102C_7_" x="602.2" y="269.9" class="st5" width="14.2" height="14.2"/>
<rect id="NLED:_APA102C_8_" x="687.1" y="261.2" class="st5" width="14.2" height="14.2"/>
<rect id="NLED:_APA102C_9_" x="599.6" y="399.7" class="st5" width="14.2" height="14.2"/>
<rect id="NLED:_APA102C_10_" x="688.8" y="340" class="st5" width="14.2" height="14.2"/>
<rect id="NLED:_APA102C_11_" x="689.9" y="440" class="st5" width="14.2" height="14.2"/>
<rect id="NLED:_APA102C_12_" x="539.1" y="512.8" class="st5" width="14.2" height="14.2"/>
<rect id="NLED:_APA102C_13_" x="646.4" y="506.6" class="st5" width="14.2" height="14.2"/>
<rect id="NLED:_APA102C_14_" x="596.1" y="586.7" class="st5" width="14.2" height="14.2"/>
<rect id="NLED:_APA102C_15_" x="495.1" y="570.3" class="st5" width="14.2" height="14.2"/>
<rect id="NLED:_APA102C_16_" x="418.9" y="579.4" class="st5" width="14.2" height="14.2"/>
<rect id="NLED:_APA102C_17_" x="432.4" y="658.2" class="st5" width="14.2" height="14.2"/>
<rect id="NLED:_APA102C_18_" x="253.7" y="578.8" class="st5" width="14.2" height="14.2"/>
<rect id="NLED:_APA102C_19_" x="262" y="261.7" class="st5" width="14.2" height="14.2"/>
<rect id="NLED:_APA102C_20_" x="279.1" y="442.3" class="st5" width="14.2" height="14.2"/>
<rect id="NLED:_APA102C_21_" x="443.9" y="344.6" class="st5" width="14.2" height="14.2"/>
<path id="BO:_Breakout" class="st6" d="M42.6,418.8v-9v-6v-18v-6v-18v-24H20.4v24v18v6v18v6v9v9h22.2V418.8z"/>
<path id="BI:_Breakin" class="st6" d="M42.3,311.9v-9v-6v-18v-6v-18v-24H20.1v24v18v6v18v6v9v9h22.2
	C42.3,320.9,42.3,311.9,42.3,311.9z"/>
<polyline id="CP:_CircuitPath" class="st7" points="32.1,277.8 276.2,261.7 259.4,111.5 424.1,129.8 500.2,99.9 543.6,178 
	601.9,112.8 625.1,194.1 609.2,277 687.1,261.2 695.9,347.1 606.7,406.8 689.9,440 660.6,506.6 539.1,527 603.1,593.7 495.1,570.3 
	432.4,672.4 426,586.4 260.8,585.9 286.1,449.3 451,351.7 89.1,367.8 42.6,385.8 "/>
<path id="ART:_Sun_and_Moon" d="M764,298.1l-1.1-6.6c-4.5-26.4-12.1-52.3-22.6-77c-2.5-5.9-5.3-12.1-8.4-18.3l-3.1-6.2
	c-16.3-31.5-37.3-60.4-62.5-85.9l-5-4.9c-21.1-20.5-44.5-38.2-69.6-52.7l-6.5-3.6c-10.5-5.7-21.2-11-32.1-15.5
	c-19.3-8.2-39.4-14.6-59.9-19.2l-6.3-1.4c-23.1-4.7-47-7.1-70.8-7.1c-5.5,0-11.2,0.1-16.8,0.4c-0.4-0.2-0.9-0.3-1.1-0.3
	c0,0-3.8-0.2-5.3,0.7C353.5,2.9,315.2,12,279.1,27.2c-41.9,17.7-79.5,43.1-111.9,75.4c-32.3,32.3-57.7,69.9-75.4,111.9
	c-18.4,43.4-27.7,89.5-27.7,137c0,47.5,9.3,93.6,27.7,137c17.7,41.9,43.1,79.5,75.4,111.9c32.3,32.3,69.9,57.7,111.9,75.4
	c43.4,18.4,89.5,27.7,137,27.7c47.5,0,93.6-9.3,137-27.7c41.9-17.7,79.5-43.1,111.9-75.4c7.2-7.2,14.2-14.8,20.9-22.8l3.9-4.7
	c15.6-19.3,29.2-40.3,40.4-62.4l3-6.1c2.5-5.2,4.9-10.5,7.1-15.8c12.3-29.1,20.6-59.8,24.7-91.2l0.8-6.7c1.4-13,2.2-26.2,2.2-39.1
	C768,333.6,766.6,315.6,764,298.1z M371.4,688.5c-74.5-9.7-142.1-43.1-195.6-96.6c-27.7-27.7-50.2-59.4-66.8-94.3
	c0.2,0,0.3-0.1,0.5-0.1c0.3-0.1,0.6-0.1,0.9-0.2c0.3-0.1,0.7-0.1,1.1-0.2c0.3,0,0.6-0.1,0.9-0.1c0.4-0.1,0.7-0.1,1.1-0.1l1-0.1
	c0.4,0,0.8-0.1,1.2-0.1c0.3,0,0.7-0.1,1-0.1c0.4,0,0.8-0.1,1.3-0.1l1-0.1c0.4,0,0.9-0.1,1.3-0.1l1.1-0.1c0.4,0,0.9,0,1.4-0.1
	l21.7-0.3c3.3,0,6.5,0.1,9.6,0.3c8.9,0.5,15.4,1.6,21.2,2.5c1.1,0.2,2.1,0.4,3.2,0.5l1.2,0.2c0.4,0.1,0.8,0.1,1.2,0.2l0.6,0.1
	c0.4,0.1,0.8,0.1,1.2,0.2l0.7,0.1c0.3,0,0.7,0.1,1,0.1l0.7,0.1c0.3,0,0.7,0.1,1,0.1l0.7,0c0.3,0,0.7,0,1,0.1l0.8,0c0.3,0,0.6,0,1,0
	l0.1,0c0.1,0,0.3,0,0.4,0l0.4,0c0.2,0,0.5,0,0.7,0c0.2,0,0.4,0,0.7,0l0.4,0c0.2,0,0.4,0,0.6,0c0.2,0,0.4,0,0.7-0.1l0.5-0.1
	c0.2,0,0.4,0,0.6-0.1c0.2,0,0.5-0.1,0.7-0.1l0.5-0.1c0.2,0,0.4-0.1,0.6-0.1c0.3,0,0.5-0.1,0.8-0.2l0.5-0.1c0.2,0,0.3-0.1,0.5-0.1
	c0.3-0.1,0.6-0.2,1-0.2l0.4-0.1c0.1,0,0.3-0.1,0.4-0.1c0.4-0.1,0.8-0.2,1.3-0.4l0.2-0.1c0.1,0,0.2-0.1,0.3-0.1
	c0.6-0.2,1.3-0.4,1.9-0.7c0.7-0.3,1.5-0.6,2.1-0.8c0.2-0.1,0.3-0.1,0.4-0.2l0.5-0.2c0.4-0.2,0.8-0.3,1.1-0.5
	c0.2-0.1,0.4-0.2,0.6-0.3l0.4-0.2c0.3-0.2,0.6-0.3,0.9-0.5c0.2-0.1,0.4-0.2,0.6-0.3l0.3-0.2c0.3-0.2,0.6-0.3,0.9-0.5
	c0.2-0.1,0.4-0.2,0.6-0.4l0.3-0.2c0.3-0.2,0.5-0.3,0.8-0.5c0.2-0.2,0.5-0.3,0.7-0.5c0.3-0.2,0.6-0.4,0.8-0.6
	c0.2-0.2,0.5-0.3,0.7-0.5c0.3-0.2,0.5-0.4,0.8-0.6c0.2-0.2,0.4-0.4,0.6-0.5c0.2-0.2,0.5-0.4,0.7-0.6c0.2-0.2,0.4-0.4,0.6-0.5
	c0.2-0.2,0.4-0.4,0.7-0.6c0.2-0.2,0.4-0.4,0.6-0.6c0.2-0.2,0.4-0.4,0.6-0.6c0.2-0.2,0.4-0.4,0.5-0.6c0.2-0.2,0.4-0.4,0.6-0.7
	c0.2-0.2,0.3-0.3,0.5-0.5c0.2-0.2,0.4-0.4,0.6-0.7l0.5-0.6c0.2-0.2,0.4-0.4,0.6-0.7l0.1-0.1c34.4,41.8,82.7,68.5,136,75.2
	c0,14.2,4.1,39.7,29.7,59.1c-0.5,0.8-0.9,1.5-1.4,2.3c-0.2,0.3-0.4,0.6-0.6,1l-0.4,0.6c-0.3,0.5-0.6,1.1-0.9,1.6
	c-0.5,1-1,1.9-1.5,2.9c-0.2,0.3-0.3,0.7-0.5,1l-0.2,0.3c-0.2,0.5-0.5,1-0.7,1.4c-0.3,0.6-0.6,1.2-0.9,1.9l-0.3,0.6
	c-5.1,11.4-8.5,23.6-10,36.5l-0.2,1.5C370.9,678,371.1,684.7,371.4,688.5z M551.3,619.1c-4.9-10.5-9.7-24.5-10.8-40.6
	c-0.3-5-0.3-9.4-0.2-13.3c0-2.7,0.1-5.4,0-8.1c6-0.4,14-1.4,23.7-3.1c0.5-0.1,1.1-0.2,1.6-0.3c-3.2,8.4-5.9,14.5-8.1,19.4
	c-4.4,9.8-7,15.8-7.7,26.3C549.4,605.9,549.9,612.5,551.3,619.1z M560.4,128.2c0.7,2,1.5,4.4,2.3,7c-5.9-1.3-12-2.6-18.7-3.7
	l-1.2-0.2c0.3-3.1,0.6-6.4,1.2-10.1c2.7-16,8.8-29.4,14.7-39.4c-2,6.4-3.2,13-3.4,19.5C555,111.8,557,118,560.4,128.2z M686.4,384.3
	c-9.4,4.6-13.9,9.3-21.4,17.2c-3.3,3.5-7.4,7.8-13,13.1c-0.8-3.2-1.5-6.4-2.4-9.8c-1.3-5.2-2.7-9.9-3.9-13.9
	c1.8-0.7,3.6-1.5,5.4-2.3c3.6-1.6,7.6-3.3,12.4-4.9c15.3-5.2,30.1-6.1,41.7-5.6C698.6,379.3,692.3,381.4,686.4,384.3z M647.1,289.4
	c1.5-4.5,2.8-8.8,4.1-13c3.1,3.3,5.6,6.2,7.9,8.7c7.1,8.1,11.4,12.9,20.7,17.8c5.8,3.1,12,5.4,18.6,6.8c-11.6,0.1-26.3-1.3-41.4-7
	c-4.7-1.8-8.7-3.7-12.2-5.3l-0.3-0.1C645.2,294.9,646.2,292.2,647.1,289.4z M660,224.7c-5.7,8.8-7.1,15.2-9.5,25.7
	c-0.8,3.4-1.7,7.5-2.9,12.4c-3.3-3.3-6.8-6.7-10.6-10.1c-2-1.8-3.9-3.6-5.7-5.2l0.7-1c2.3-3.2,4.8-6.8,8.1-10.6
	c10.5-12.3,22.7-20.7,32.9-26.2C667.9,214.2,663.6,219.2,660,224.7z M635.5,301c-4.9,12.7-7.5,15.6-8.9,17.2
	c-7.3,8.2-17.6,13.8-30.6,16.7c-0.5-6.6-1.2-13.2-2.3-19.6c8.3-10,17.2-15.7,26.5-16.9C626,297.7,630.4,298.8,635.5,301z
	 M626.8,386.9c-10.4-1.7-22.7-12.4-30.8-21.9c0.3-3.4,0.4-6.9,0.5-10.2c15.2,3.3,27.2,10.3,34.8,20c1.1,1.4,2.9,3.7,5.7,11.7
	C633.5,387.3,630.3,387.4,626.8,386.9z M578.8,434.3c12.7-4.1,23.4-4.1,32,0c3.7,1.8,6.6,4.1,9.3,7.5c-6.2,4.3-8.8,5.2-10.4,5.7
	c-10.7,3.4-23.3,2.7-36.3-1.9C575.3,441.8,577.1,438,578.8,434.3z M582.2,426c6.4-16.6,10.8-33.9,12.9-51.7
	c6.8,7.1,18.6,17.5,30.6,19.5c4.6,0.7,8.9,0.5,13.5-0.6c1.2,3.9,2.5,8.4,3.8,13.5c1.2,4.7,2.3,9.2,3.3,13.6
	c-2.8,2.5-5.7,5.1-8.7,7.7c-4.4,3.8-8.3,7-11.8,9.7c-3.5-4.4-7.2-7.4-11.9-9.7c-5.2-2.5-11-3.7-17.4-3.7
	C591.9,424.2,587.2,424.8,582.2,426z M610.2,257.5c-10,4-22.5,2.5-37-4.4c-2.4-4.7-5.1-9.4-7.8-13.9c14.5-5.4,28.3-6,39.9-1.9
	c2,0.7,5.8,2,16.6,11.2C618.7,252.4,615.4,255.4,610.2,257.5z M592.1,306.6c-3.1-15.1-8-29.9-14.3-43.9c13.2,4.9,25,5.3,35,1.3
	c6.9-2.7,11-6.8,14.3-11c1.7,1.5,3.4,3.1,5.2,4.7c4.8,4.4,9.1,8.6,13.2,12.8c-1.5,5.4-3.2,10.8-5.1,16.6c-0.8,2.5-1.7,5-2.5,7.2
	c-5.9-2.5-11.4-3.9-18.6-3C609.7,292.7,600.6,297.8,592.1,306.6z M562.8,547.1c-9.7,1.7-17.5,2.7-23.3,3c-0.8-3.8-2.1-7.1-4.2-10.5
	c-5.3-8.6-14.2-15-26.5-19c17.3-12.5,32.6-27.4,45.4-44.4c1.9,10.7,6.4,27.6,15.9,35.6c2.3,1.9,4.7,3.5,7.3,4.6
	c-1.2,5.5-3.3,12.6-6.1,21.1c-1,2.9-2,5.8-2.9,8.6C566.6,546.4,564.7,546.7,562.8,547.1L562.8,547.1z M408.2,84.3
	c7-2.8,13.6-5.3,20.2-7.5c5.2,4.7,10.3,9.6,15.6,15c-7.2,6-12.8,10.8-15.8,20.4c-2.9,9.4-2,20.1,2.8,31.7
	c-11.1-2.4-22.4-3.9-33.8-4.5c10.4-9.3,16.2-19.3,17.4-29.9C415.7,99.5,412.4,92.8,408.2,84.3z M509,135.9c2.3-0.5,7.1-1.7,26.3,1.3
	c-0.6,6.9-1.5,12.3-5.8,17.9c-6.4,8.4-17.6,13.5-33.2,15.2c-2.6-1.6-5.3-3.2-8.1-4.7l1-0.2l-12.9-5.9
	C485.6,146.8,496.9,138.7,509,135.9z M584.2,360.9c-1.6,27.7-9.1,55.2-21.8,79.8l-0.1-0.1l-2.7,5.4l-0.2,0.3
	c-0.7,1.2-1.4,2.4-2.1,3.7c-16.9,28.8-40.9,53-69.6,70.1l-1-0.2c-0.8-0.2-1.6-0.3-2.4-0.5c-0.7-0.1-1.5-0.3-2.2-0.4
	c-0.8-0.2-1.6-0.3-2.3-0.5c-0.7-0.2-1.5-0.3-2.2-0.5c-0.8-0.2-1.5-0.3-2.3-0.5c-0.7-0.2-1.5-0.4-2.2-0.5c-0.8-0.2-1.5-0.4-2.3-0.6
	c-0.7-0.2-1.5-0.4-2.2-0.6c-0.7-0.2-1.5-0.4-2.2-0.6c-0.7-0.2-1.4-0.4-2.1-0.6l-0.2,0c-0.7-0.2-1.4-0.4-2.1-0.6
	c-0.7-0.2-1.3-0.4-1.9-0.6l-0.3-0.1c-0.7-0.2-1.4-0.4-2.1-0.6c-0.7-0.2-1.5-0.5-2.2-0.7l-0.2-0.1c-0.6-0.2-1.3-0.4-1.9-0.6
	c-0.7-0.2-1.5-0.5-2.2-0.8c-0.7-0.2-1.4-0.5-2.1-0.7c-0.6-0.2-1.3-0.5-1.9-0.7l-0.4-0.2c-0.6-0.2-1.3-0.5-1.9-0.7
	c-0.7-0.2-1.3-0.5-2-0.7l-0.6-0.2c-0.6-0.2-1.1-0.4-1.6-0.6c-0.6-0.2-1.1-0.5-1.7-0.7l-0.9-0.4c-0.5-0.2-1-0.4-1.5-0.6
	c-0.6-0.3-1.2-0.5-1.8-0.8l-0.8-0.3c-0.5-0.2-1-0.4-1.5-0.7c-0.6-0.3-1.2-0.5-1.8-0.8l-0.8-0.3c-0.5-0.2-1-0.4-1.5-0.7
	c-0.7-0.3-1.4-0.6-2-1l-0.5-0.2c-0.5-0.2-1-0.5-1.5-0.7c-0.6-0.3-1.2-0.6-1.8-0.9l-0.8-0.4c-0.4-0.2-0.9-0.4-1.3-0.7
	c-0.5-0.3-1.1-0.6-1.6-0.8l-1-0.5c-0.4-0.2-0.9-0.5-1.3-0.7c-0.5-0.3-1.1-0.6-1.6-0.9l-0.8-0.5c-0.5-0.3-0.9-0.5-1.4-0.8
	c-0.6-0.3-1.1-0.6-1.6-0.9l-0.9-0.5c-0.4-0.2-0.8-0.5-1.2-0.7c-0.5-0.3-1-0.6-1.5-0.9l-1.1-0.6c-0.4-0.2-0.8-0.5-1.2-0.7
	c-0.6-0.3-1.1-0.7-1.6-1l-0.8-0.5c-0.4-0.3-0.9-0.5-1.3-0.8c-0.5-0.3-1.1-0.7-1.6-1l-0.9-0.6c-0.4-0.3-0.8-0.5-1.2-0.8
	c-0.5-0.3-1-0.7-1.5-1l-0.9-0.6c-0.4-0.3-0.8-0.5-1.2-0.8c-0.5-0.3-1-0.7-1.4-1l-1-0.7c-0.4-0.3-0.7-0.5-1.1-0.8
	c-0.5-0.3-0.9-0.7-1.4-1l-1-0.7c-0.4-0.3-0.7-0.5-1.1-0.8c-0.4-0.3-0.9-0.7-1.3-1l-1.1-0.8c-0.3-0.3-0.7-0.5-1-0.8
	c-0.4-0.3-0.9-0.7-1.3-1l-1-0.8c-0.3-0.3-0.7-0.5-1-0.8c-0.4-0.3-0.8-0.7-1.3-1l-1.1-0.9c-0.3-0.3-0.6-0.5-0.9-0.8
	c-0.4-0.4-0.9-0.8-1.3-1.1l-1-0.9c-0.3-0.3-0.6-0.5-0.9-0.8c-0.5-0.4-0.9-0.8-1.4-1.3l-1-0.9c-0.3-0.2-0.5-0.5-0.8-0.7
	c-0.6-0.5-1.1-1-1.7-1.6l-0.8-0.8c-0.2-0.2-0.4-0.4-0.6-0.6c-1-1-2-2-3-3c-32-32.2-49.7-72.8-49.7-114.3
	c0-39.5,15.3-77.1,44.3-108.7c0.9-1,1.8-1.9,2.7-2.8c0.2-0.2,0.4-0.4,0.5-0.5l0.7-0.7c0.5-0.5,1-1.1,1.6-1.6
	c0.2-0.2,0.5-0.5,0.7-0.7l0.9-0.9c0.4-0.4,0.8-0.8,1.2-1.2c0.3-0.3,0.6-0.5,0.8-0.8l0.9-0.8c0.4-0.4,0.8-0.7,1.2-1.1
	c0.3-0.3,0.6-0.5,0.9-0.8l0.9-0.9c0.4-0.3,0.7-0.7,1.1-1c0.3-0.3,0.6-0.6,1-0.8l0.9-0.8c0.4-0.3,0.7-0.6,1.1-1
	c0.3-0.3,0.7-0.6,1-0.9l0.9-0.8c0.4-0.3,0.7-0.6,1.1-0.9c0.4-0.3,0.7-0.6,1.1-0.9l0.9-0.7c0.4-0.3,0.7-0.6,1.1-0.9
	c0.4-0.3,0.8-0.6,1.2-0.9l0.9-0.7c0.4-0.3,0.8-0.6,1.1-0.9c0.4-0.3,0.8-0.6,1.2-0.9l0.9-0.6c0.4-0.3,0.8-0.6,1.2-0.9
	c0.4-0.3,0.8-0.6,1.3-0.9l0.8-0.6c0.4-0.3,0.8-0.6,1.2-0.9c0.4-0.3,0.9-0.6,1.3-0.9l0.9-0.6c0.4-0.3,0.8-0.5,1.1-0.8
	c0.4-0.3,0.9-0.6,1.3-0.9l0.9-0.6c0.4-0.3,0.8-0.5,1.1-0.8c0.5-0.3,1-0.6,1.5-1l0.7-0.5c0.4-0.3,0.8-0.5,1.2-0.8
	c0.5-0.3,1-0.6,1.5-0.9l0.9-0.5c0.4-0.2,0.8-0.5,1.2-0.7c0.5-0.3,1-0.6,1.6-0.9l0.7-0.4c0.4-0.2,0.8-0.5,1.3-0.7
	c0.5-0.3,1-0.5,1.4-0.8l0.8-0.5c0.5-0.3,0.9-0.5,1.4-0.8c0.5-0.3,1-0.5,1.5-0.8l0.8-0.4c0.5-0.2,0.9-0.5,1.4-0.7
	c0.5-0.3,1.1-0.6,1.6-0.8l0.5-0.3c0.5-0.3,1-0.5,1.6-0.8c0.5-0.3,1.1-0.5,1.6-0.8l0.7-0.4c0.5-0.2,0.9-0.5,1.4-0.7
	c0.6-0.3,1.2-0.6,1.7-0.8l0.6-0.3c0.5-0.2,0.9-0.4,1.4-0.7c0.6-0.3,1.2-0.5,1.8-0.8l0.4-0.2c0.5-0.2,1.1-0.5,1.6-0.7
	c0.6-0.3,1.2-0.5,1.8-0.8l0.4-0.2c0.5-0.2,1.1-0.5,1.6-0.7c0.6-0.3,1.2-0.5,1.9-0.8l0.2-0.1c0.6-0.2,1.2-0.5,1.8-0.7
	c0.6-0.2,1.2-0.5,1.9-0.7l0.4-0.1c0.6-0.2,1.1-0.4,1.7-0.7c0.7-0.3,1.3-0.5,2-0.8c0.7-0.2,1.3-0.5,2-0.7c0.7-0.2,1.3-0.5,2-0.7
	c0.7-0.2,1.3-0.5,2-0.7c0.7-0.2,1.4-0.5,2-0.7c0.7-0.2,1.3-0.4,2-0.7c0.7-0.2,1.4-0.4,2-0.7c0.7-0.2,1.4-0.4,2-0.6
	c0.7-0.2,1.4-0.4,2-0.6c0.7-0.2,1.4-0.4,2.1-0.6c0.7-0.2,1.4-0.4,2-0.6l0.5-0.1c3.3,0,4.8-0.3,5.6-0.7
	c30.9,14.8,57.6,37.5,77.3,65.7c0,0.8,0.5,1.9,3.2,4.7l0.2,0.2c18.7,28.7,29.8,61.9,31.9,96.2c-0.3,0.6-0.4,1.6-0.2,3.6
	c0.1,0.7,0.1,1.6,0.5,2.2c0.1,2.2,0.1,4.5,0.1,6.6c0,3.2-0.1,6.7-0.3,10.5l-0.4,0.3L584.2,360.9z M464,515.5L464,515.5L464,515.5
	L464,515.5z M452,162.8c-1,0.3-2,0.7-3,1l-1.1,0.4c-1.3,0.5-2.7,0.9-4,1.4l-1.4,0.5c-0.9,0.3-1.8,0.6-2.6,1
	c-0.4,0.1-0.8,0.3-1.1,0.4l-0.6,0.2c-0.7,0.3-1.5,0.6-2.2,0.9c-0.5,0.2-0.9,0.4-1.4,0.6l-0.3,0.1c-0.7,0.3-1.5,0.6-2.2,0.9
	c-0.6,0.2-1.2,0.5-1.8,0.7c-0.7,0.3-1.4,0.6-2.1,0.9c-0.6,0.3-1.2,0.5-1.8,0.8c-0.7,0.3-1.4,0.6-2.1,1c-0.6,0.3-1.2,0.5-1.7,0.8
	c-0.7,0.3-1.4,0.7-2.2,1l-0.5,0.2c-0.4,0.2-0.8,0.4-1.2,0.6c-0.7,0.3-1.4,0.7-2,1l-0.7,0.4c-0.3,0.2-0.7,0.3-1,0.5
	c-0.9,0.5-1.8,0.9-2.8,1.4l-1,0.5c-1.2,0.6-2.4,1.3-3.6,2l-1.4,0.8c-0.7,0.4-1.5,0.8-2.2,1.2c-0.4,0.2-0.7,0.4-1.1,0.6l-0.4,0.3
	c-0.7,0.4-1.4,0.8-2.1,1.2c-0.4,0.3-0.9,0.5-1.3,0.8l-0.3,0.2c-0.7,0.4-1.3,0.8-2,1.2c-0.5,0.3-1,0.7-1.6,1
	c-0.6,0.4-1.3,0.8-1.9,1.2c-0.5,0.3-1,0.7-1.6,1c-0.6,0.4-1.3,0.8-1.9,1.3l-0.1,0.1c-0.5,0.3-0.9,0.6-1.4,0.9
	c-0.7,0.4-1.3,0.9-2,1.4l-0.4,0.3c-0.3,0.2-0.7,0.5-1,0.7c-0.7,0.5-1.4,1-2.1,1.5l-0.4,0.3c-0.3,0.2-0.5,0.4-0.8,0.6
	c-0.9,0.7-1.8,1.4-2.7,2l-0.5,0.4c-1.1,0.8-2.1,1.6-3.2,2.5c-0.2,0.2-0.5,0.4-0.7,0.6l-0.4,0.3c-0.7,0.6-1.4,1.1-2.1,1.7
	c-0.3,0.2-0.6,0.5-0.9,0.7l-0.3,0.3c-0.6,0.5-1.2,1-1.9,1.6c-0.4,0.3-0.7,0.6-1.1,0.9l-0.2,0.2c-0.6,0.5-1.2,1-1.8,1.5
	c-0.4,0.4-0.9,0.8-1.3,1.1c-0.6,0.5-1.1,1-1.7,1.6c-0.4,0.4-0.8,0.8-1.3,1.2c-0.6,0.5-1.1,1.1-1.7,1.6l-0.1,0.1
	c-0.4,0.3-0.7,0.7-1.1,1c-0.6,0.6-1.1,1.1-1.7,1.7l-1.1,1.1c-0.6,0.6-1.2,1.3-1.9,1.9l-0.9,0.9c-0.9,1-1.8,1.9-2.7,2.9
	c-31.1,33.8-47.5,74.2-47.5,116.8c0,44.7,18.9,88.3,53.1,122.8c1,1,2,2,3.1,3l1,1c0.7,0.7,1.4,1.3,2.1,2c0.3,0.3,0.6,0.5,0.9,0.8
	l0.4,0.3c0.6,0.6,1.3,1.2,1.9,1.8c0.4,0.3,0.8,0.7,1.1,1l0.2,0.2c0.6,0.6,1.3,1.1,1.9,1.7c0.4,0.4,0.9,0.7,1.3,1.1l0.1,0.1
	c0.6,0.5,1.3,1.1,1.9,1.6c0.5,0.4,1,0.8,1.5,1.2c0.6,0.5,1.3,1,1.9,1.5c0.5,0.4,1,0.8,1.5,1.2c0.7,0.5,1.3,1,2,1.5l0.2,0.2
	c0.4,0.3,0.9,0.6,1.3,1c0.7,0.5,1.4,1,2.1,1.5l0.4,0.3c0.4,0.3,0.7,0.5,1.1,0.8c0.8,0.5,1.5,1.1,2.3,1.6l0.5,0.3
	c0.3,0.2,0.5,0.4,0.8,0.6c1,0.7,2,1.4,3,2l0.6,0.4c1.2,0.8,2.4,1.6,3.7,2.4c0.3,0.2,0.5,0.3,0.8,0.5l0.5,0.3c0.8,0.5,1.6,1,2.5,1.5
	c0.4,0.2,0.7,0.4,1.1,0.6l0.5,0.3c0.7,0.4,1.5,0.9,2.2,1.3c0.5,0.3,1,0.6,1.5,0.9l0.2,0.1c0.7,0.4,1.4,0.8,2.2,1.2
	c0.6,0.3,1.2,0.6,1.8,1c0.7,0.4,1.4,0.8,2.2,1.2c0.6,0.3,1.2,0.6,1.8,0.9c0.7,0.4,1.5,0.8,2.2,1.1c0.6,0.3,1.2,0.6,1.8,0.9
	c0.7,0.4,1.5,0.7,2.2,1.1l0.3,0.1c0.5,0.3,1,0.5,1.5,0.7c0.7,0.3,1.5,0.7,2.2,1l0.6,0.3c0.4,0.2,0.9,0.4,1.3,0.6
	c0.8,0.4,1.6,0.7,2.5,1.1l0.5,0.2c0.4,0.2,0.7,0.3,1.1,0.5c1,0.4,2,0.9,3,1.3l1.2,0.5c1.4,0.6,2.8,1.1,4.2,1.7l1.6,0.6
	c0.9,0.3,1.7,0.7,2.6,1c0.4,0.1,0.8,0.3,1.2,0.4l0.6,0.2c0.8,0.3,1.7,0.6,2.5,0.9c0.4,0.2,0.9,0.3,1.3,0.5l0.5,0.2
	c0.8,0.3,1.7,0.6,2.5,0.8c0.6,0.2,1.3,0.4,1.9,0.6c0.8,0.3,1.6,0.5,2.5,0.8c0.6,0.2,1.3,0.4,1.9,0.6c0.8,0.3,1.7,0.5,2.5,0.8
	c0.6,0.2,1.3,0.4,1.9,0.6c0.9,0.2,1.7,0.5,2.6,0.7c0.6,0.2,1.3,0.3,1.9,0.5c0.9,0.2,1.8,0.5,2.7,0.7l0.6,0.2
	c0.4,0.1,0.8,0.2,1.2,0.3c0.7,0.2,1.4,0.4,2.1,0.5c-26.5,12.6-56,19.3-85.4,19.3c-109.5,0-198.5-89.1-198.5-198.5
	S276.5,151.1,386,151.1c23,0,45.4,3.9,66.7,11.5L452,162.8z M541.5,207.7c1.5-13,6-22.6,13.1-28.6c5.4-4.5,10.8-5.7,17.6-6.6
	c3.9,19.1,2.9,23.9,2.5,26.2c-2,10.5-7.7,20.3-16.9,29.3C552.9,220.9,547.4,214.1,541.5,207.7z M570.8,165.6c-7.3,1-14,2.5-20.7,8.1
	c-7.4,6.2-12.4,15.5-14.7,27.5c-9.3-9.3-19.5-17.8-30.3-25.3c13.5-2.7,23.5-8.3,29.9-16.7c5.3-6.9,6.5-13.7,7.2-21l0.6,0.1
	c8,1.4,15.3,2.9,22.3,4.6c2,6.9,3.9,14.1,5.6,22L570.8,165.6z M578.7,509.2c-1.4-0.8-2.7-1.7-4-2.8c-8.1-6.8-12.8-24-14.6-37.9
	c11.1,11.1,17.6,23.5,18.6,35.9C578.8,505.3,578.9,506.7,578.7,509.2z M501.8,525.9c13.2,3.4,22.5,9.2,27.6,17.4
	c1.4,2.2,2.3,4.4,3,6.8c-1.6-0.1-2.6-0.4-3.4-0.6c-11.3-2.7-22-10.1-31.1-21.4L501.8,525.9z M587.8,163c-3.7,0.8-7,1.3-10.1,1.7
	l-0.3-1.2c-1.5-6.6-3-12.7-4.6-18.5c2.7,0.7,5.1,1.4,7.1,2c10.4,2.9,16.6,4.7,27.1,3.8c6.5-0.5,13-2,19.3-4.3
	C616.8,152.8,603.7,159.6,587.8,163z M469.5,156.3c-9.7-4.2-19.8-7.7-29.9-10.4c-5.9-11.9-7.5-22.6-4.7-31.7
	c2.4-7.7,7.2-11.7,13.8-17.3l0.2-0.2c17.1,18.1,19.1,23.4,20,25.9C472.6,132.7,472.8,144,469.5,156.3z M407.6,108.7
	c-1.2,10.7-8.3,20.9-21.2,30.4l-0.4,0c-9.2,0-18.5,0.6-27.7,1.8c1-16,6.1-29.1,14.8-38.2c1.9-1.9,5.8-6,28.6-15.7l0.2,0.3
	C405.7,95.1,408.5,100.7,407.6,108.7z M393.4,611.3l-0.3,0.4c-21.4-16.4-26.3-37.3-26.6-52l0-0.3c0,0,0-0.1,0-0.1
	c6.5,0.6,13,0.9,19.5,0.9l0.9,0c10.1,10.4,15.1,20.7,14.9,30.8C401.6,598.9,398.2,604.1,393.4,611.3z M399.2,615.2L399.2,615.2
	c5.3-7.9,9.4-14.1,9.6-24.2c0.2-10.4-4.1-20.9-12.7-31.2c15.7-0.8,31.2-3.3,46.3-7.5c-0.2,15.8,3.2,28.9,10.1,38.9
	c1,1.5,2,2.8,3.1,4.1c-3.9,3.7-9.1,8.2-15.4,13.3c-7.4,6-14.5,11.3-21.5,16.1c-6.1-1.6-8.9-3-10.8-4l-0.6-0.3
	c-3-1.5-5.9-3.1-8.6-4.9L399.2,615.2z M449.5,550.4c6.2-2,12.4-4.2,18.4-6.8c3.6,15.8,2.4,30.1-3.5,41.3c-0.6,1.1-1.4,2.6-3.9,5.5
	c-0.8-0.9-1.5-1.9-2.2-2.9C452,578.1,449,565.7,449.5,550.4z M627.1,534.8c-10.5-0.9-16.7,0.9-27.1,3.8c-5.9,1.7-13.2,3.7-23.7,5.9
	c0.5-1.5,1.1-3.1,1.6-4.8c2.8-8.3,4.8-15.4,6.1-21c3.4,0.8,6.9,1.3,10.6,1.7c3.9,0.5,8.3,1.1,13.2,2.1c15.8,3.4,28.9,10.2,38.6,16.6
	C640.1,536.8,633.6,535.4,627.1,534.8z M642.1,433.2c2-1.7,3.9-3.4,5.8-5.1c1.3,6.5,2.1,11.7,2.7,15.9l0,0
	c1.6,10.6,2.6,17.1,7.8,26.2c3.2,5.7,7.2,11,11.9,15.8c-9.8-6.2-21.4-15.3-31.1-28.3c-3-4-5.3-7.8-7.4-11.1
	c-0.7-1.1-1.4-2.3-2.1-3.3C633.4,440.5,637.5,437.1,642.1,433.2z M449.4,87.3c-4.5-4.6-8.9-8.9-13.2-12.9c1-0.3,1.9-0.6,2.8-0.8
	c10.3-3.2,16.5-5.1,24.8-11.5c5.2-4,9.8-8.7,13.9-14.1c-4.7,10.6-12.1,23.4-23.5,34.8C452.7,84.2,451.1,85.7,449.4,87.3z
	 M189.7,499.1L189.7,499.1L189.7,499.1L189.7,499.1z M386.6,638.2l0.1-0.2c0.1-0.3,0.2-0.5,0.3-0.8c0.2-0.6,0.5-1.1,0.7-1.7
	c0.2-0.5,0.4-1,0.7-1.5c0.2-0.5,0.4-1,0.7-1.5c0.3-0.6,0.6-1.2,0.9-1.9l0.2-0.4c0.1-0.3,0.2-0.5,0.4-0.8c0.5-1,1-2,1.6-3
	c0.3-0.6,0.7-1.2,1-1.8l0.3-0.5c0.3-0.4,0.5-0.9,0.8-1.3l0.2-0.4c0.2-0.3,0.4-0.6,0.6-0.9c3,1.9,6.1,3.7,9.3,5.3l0.6,0.3
	c1.4,0.7,3.3,1.7,6.4,2.8c-0.7,0.4-1.3,0.9-1.9,1.3c-9,5.9-14.4,9.4-20.7,17.9c-3.8,5.2-7,11-9.4,17.3
	C380.4,658.3,382.5,648.5,386.6,638.2z M505.5,635.8c-10.1-4.3-16.5-4.4-27.1-4.5c-8.2-0.1-19.4-0.2-37.5-2.5
	c-4.7-0.6-9.1-1.2-12.9-1.9c5.4-3.9,10.8-8,16.5-12.7c6.6-5.3,12-10,16-13.9c4.3,3.4,8.9,5.6,14.2,8.2c3.7,1.8,7.9,3.8,12.5,6.5
	c15.2,9,27.1,20.9,35.6,31.2C517.4,641.8,511.5,638.3,505.5,635.8z M748.5,298.7c-5.9,2.9-12.2,5.1-18.8,6.5
	c-0.8-0.5-1.6-0.6-2.9-0.6c-0.7,0-1.6,0-2.6,0.1c-7.2,0.3-24.1,1.2-41.1-7.9c-8.2-4.3-11.9-8.6-18.8-16.3
	c-2.8-3.2-6.3-7.1-10.9-11.9c1.8-6.9,3-12.3,4-16.7c2.2-10.1,3.5-15.6,8.5-23.4c10.5-16.2,25.7-23.6,32.2-26.8
	c1-0.5,1.8-0.9,2.4-1.2c4-1.2,8.2-2,12.3-2.6c2.1-0.3,4.2-0.5,6.4-0.6c16,31.3,26.9,64.8,32.5,99.7
	C750.5,297.7,749.5,298.2,748.5,298.7z M711.7,190c-5,0.6-10,1.7-15,3.3c-9.7,1.7-39.6,11.8-62,38.1c-3.4,4-6.1,7.8-8.5,11.1
	l-0.3,0.4c-11.6-9.7-15.9-11.2-18.5-12.1c-5.8-2-11.9-3.1-18.4-3.1c-8.2,0-17,1.6-25.9,4.9c10-9.9,16.2-20.8,18.4-32.6
	c0.6-3.2,1.6-8.4-2.4-28.4c2.9-0.4,6.3-0.9,10.1-1.7c38.2-8.2,62.8-34.9,64.5-38.9c0.1-0.3,0.2-0.5,0.3-0.8c2.3-3,4.3-6.1,6-9.3
	c0.7-1.3,1.4-2.6,2-3.9c20.9,21.9,38.8,46.4,53,72.6C713.9,189.7,712.8,189.8,711.7,190z M653.1,117c-2.1,3.9-4.7,7.6-7.6,11.1
	l-0.1,0c-5.9,4.2-19.6,14-38.8,15.6c-9.2,0.8-14.7-0.8-24.6-3.6c-3.1-0.9-6.8-1.9-11.3-3.1c-1.3-4.4-2.6-8.1-3.6-11.2
	c-3.3-9.8-5-15.2-4.7-24.4c0.7-19.3,9.9-33.5,13.8-39.5c1.6-2.4,2.4-3.6,2.4-5c0.9-0.9,1.8-1.9,2.8-2.7
	c27.2,15.2,52.3,34.2,74.7,56.4C655.1,113,654.2,115,653.1,117z M567,59.1c-5.7,6.1-24.3,28-29.8,60.9c-0.6,3.8-1,7.2-1.3,10.1
	c-20.2-3.1-25.4-1.8-28.5-1.1c-10.5,2.5-20.2,8.2-28.9,17c0.9-9.2-0.1-17.8-3-25.6c-1.2-3.2-3.4-9.1-21.3-28.1
	c1.8-1.6,3.4-3.1,4.9-4.6c24.7-24.6,31.3-54.4,32.5-60.4c0.9-2.2,1.5-4.6,2-7c28,6.5,55,16.5,80.4,29.9
	C571.3,52.9,568.9,55.9,567,59.1z M483.7,22.3c-2.7,6.7-8.9,22.4-24.2,34.2c-7.3,5.6-12.8,7.3-22.6,10.3c-2,0.6-4.3,1.3-6.7,2.1
	c-1.9-1.7-3.6-3.2-5.2-4.5c-7.8-6.7-12.1-10.4-16.6-18.5c-5.4-9.9-8.3-21.3-8.5-33.9c5.4-0.3,10.9-0.4,16.3-0.4
	c23.3,0,46.5,2.4,69.2,7C484.8,19.5,484.3,20.6,483.7,22.3z M422.4,71.5c-5.6,1.9-11.2,4.1-17.2,6.5c-1-2.1-1.8-4-2.5-5.9
	c-5.9-15.1-7.6-29.7-7.6-41.3c1.6,6.6,3.9,12.8,7.1,18.5c5.1,9.2,10,13.5,18.1,20.5C421,70.3,421.7,70.9,422.4,71.5z M368.1,97.8
	c-10.2,10.6-16,25.8-16.9,44.1c-48.5,8.1-92.9,33.2-125.1,70.8c-12-3-30.2-5.7-50.2-2c-16,3-25.9,8.7-34.7,13.7
	c-8.6,4.9-15.4,8.8-25.4,8.2c-5.8-0.3-11.1-2-16.4-5.1c17.1-43.7,42.8-82.9,76.4-116.5c28.9-28.9,62.2-52.1,98.8-68.9
	c36.2-16.6,74.8-26.6,114.9-29.6c-1.6,10.7-3.7,35.5,6.7,62.1c0.8,1.9,1.6,3.9,2.6,6C374.8,90.9,370.4,95.4,368.1,97.8z
	 M144.7,230.6c8.3-4.7,17.7-10.1,32.5-12.9c14-2.6,28.8-2.3,43.9,1.1c-29.5,37.1-45.7,83.5-45.7,130.8c0,46.8,15.1,91,43.6,128.1
	l-3.6,4.2c-0.1,0.1-0.3,0.3-0.4,0.4l-0.3,0.3c-0.1,0.1-0.2,0.2-0.4,0.4c-0.1,0.1-0.3,0.3-0.4,0.4l-0.3,0.3c-0.1,0.1-0.2,0.2-0.3,0.3
	c-0.1,0.1-0.3,0.3-0.5,0.4l-0.4,0.3c-0.1,0.1-0.2,0.2-0.3,0.3c-0.2,0.1-0.3,0.3-0.5,0.4l-0.4,0.3c-0.1,0.1-0.2,0.2-0.3,0.3
	c-0.2,0.1-0.4,0.3-0.6,0.4l-0.4,0.3c-0.1,0.1-0.2,0.2-0.3,0.2c-0.2,0.1-0.4,0.3-0.7,0.4l-0.4,0.3c-0.1,0.1-0.2,0.1-0.3,0.2
	c-0.2,0.2-0.5,0.3-0.8,0.4l-0.4,0.2c-0.1,0.1-0.2,0.1-0.3,0.2c-0.3,0.2-0.7,0.3-1,0.5l-0.3,0.2c-0.1,0-0.2,0.1-0.3,0.1
	c-0.4,0.2-0.9,0.4-1.4,0.6l-0.4,0.2c-0.6,0.3-1.2,0.5-1.9,0.7c-9,3.3-15.3,2.2-24.9,0.7c-7.8-1.3-17.4-2.9-31.9-2.9l-3.4,0
	l-14.2,0.1c-0.6,0-1.1,0-1.6,0l-1.3,0c-0.5,0-1.1,0-1.6,0.1l-1.2,0.1c-0.4,0-0.9,0-1.3,0.1l-1.3,0.1c-0.5,0-1,0.1-1.6,0.1l-1,0.1
	c-0.6,0.1-1.1,0.1-1.7,0.2l-0.8,0.1c-0.8,0.1-1.6,0.2-2.3,0.3l-0.6,0.1c-0.5,0.1-1.1,0.2-1.6,0.3c-0.2,0-0.4,0.1-0.6,0.1l-0.3,0.1
	c-0.4,0.1-0.9,0.2-1.3,0.3c-0.2,0.1-0.5,0.1-0.7,0.2l-0.2,0c-3.8-8.4-7.2-16.8-10.2-25.2c-5.6-18.2-10.2-35.2-13.7-50.6
	c-4-20.9-6-42.4-6-63.8c0-40.3,7-79.8,20.7-117.2c5.9,3.3,12.2,5.1,18.5,5.5C127.5,240.4,135.5,235.9,144.7,230.6z M394.3,653.3
	c5.5-7.4,10.2-10.6,18.8-16.2c2.1-1.4,4.4-2.9,7-4.7c5.4,1.2,12.1,2.4,19.9,3.3c18.5,2.3,29.9,2.4,38.3,2.5
	c10,0.1,15.5,0.1,24.4,3.9c17.1,7.3,28.7,21.5,33.4,27.5c-38.3,14.4-78.6,21.7-120,21.7c-11.6,0-23.4-0.6-35.2-1.8
	C381.6,683.3,383.8,667.6,394.3,653.3z M477.9,602.2c-4.9-2.4-8.8-4.2-12.3-7c3.2-3.6,4.3-5.6,5-7c6.9-13.1,8.2-29.5,3.8-47.5
	c5.2-2.4,10.5-5.1,15.5-8l0,0l1.7-1c10.1,13,22.4,21.5,35.5,24.7c1.3,0.3,3,0.7,6,0.8c0.1,2.5,0.1,5.1,0,7.8
	c-0.1,4-0.2,8.6,0.2,13.9c2.4,36.3,22.3,62.9,27.6,68.1c2.1,2.9,4.4,5.8,7,8.6c-7.8,3.9-15.6,7.5-23.3,10.6
	c-3.4-6.4-21.4-38.1-53.8-57.3C486.1,606.1,481.8,604,477.9,602.2z M556.8,599.8c0.6-9.2,2.9-14.4,7.1-23.8
	c2.6-5.9,5.8-13.1,9.8-23.8c13-2.6,21.8-5.1,28.3-6.9c9.9-2.8,15.4-4.3,24.6-3.5c19.2,1.6,33,11.5,38.8,15.7c1.4,1,2.3,1.7,3.1,2.1
	c1.9,1.9,3.4,3.6,4.8,5.1c1.2,1.3,2.5,2.7,3.9,4.4c-6.6,8-13.6,15.6-20.8,22.8c-24,24-51.3,44.2-81,60c-2.8-3-5.5-6.1-7.8-9.4
	c-0.3-0.5-0.6-1.2-1-2C563.3,634.1,555.6,619,556.8,599.8z M609.3,515.7c-5.2-1.1-9.7-1.7-13.7-2.2c-3.8-0.5-7.1-0.9-10.2-1.7
	c0.6-4.3,0.4-6.5,0.3-8c-1.3-14.5-8.8-28.8-21.9-41.4c1.5-2.3,2.7-4.3,3.9-6.3c0.8-1.3,1.6-2.8,2.5-4.3c14.9,5.5,29.2,6.3,41.7,2.3
	c2.1-0.7,5.2-1.7,12.2-6.6c0.6,0.9,1.2,1.9,1.8,2.8c2.1,3.4,4.5,7.3,7.7,11.6c23.2,31.2,55.7,41.7,61.2,42.5c4.6,1.9,9.3,3.3,14,4.4
	c2.6,0.6,5.3,1.1,8.1,1.4c-9.8,18.4-21.3,36.1-34.4,52.5c-1.1-1.3-2.2-2.4-3.2-3.5c-2.9-3.2-6.1-6.4-9.4-9.6
	C665.8,545.2,644.2,523.3,609.3,515.7z M664.4,466.8c-4.5-8.1-5.4-13.7-7-23.9c-0.8-5.3-1.8-11.8-3.6-20.4
	c7.3-6.8,12.3-12.1,16.3-16.4c7.1-7.5,11-11.6,19.3-15.7c17.3-8.5,34.2-7.1,41.4-6.5c1.4,0.1,2.4,0.2,3.2,0.2
	c4.2,1.2,8.3,2.6,12.3,4.3c2.4,1,4.8,2.2,7.2,3.5c-4.6,38.7-15.6,75.9-32.9,110.5c-3.5-0.3-6.9-0.8-10.2-1.6
	c-5.2-1.2-10.4-2.9-15.5-5.2l-0.2-0.1C688.5,492.1,673.9,483.7,664.4,466.8z M661.3,377.1c-5,1.7-9.2,3.5-12.9,5.1
	c-1.7,0.7-3.3,1.4-4.8,2c-3.3-9.2-5.5-12.1-6.8-13.8c-8.8-11.4-22.7-19.3-40.2-22.9c0-1.9-0.1-3.7-0.1-5.6
	c14.9-3.1,27.1-9.7,35.5-19.1c1.8-2,4.8-5.4,10-18.9c3.6,1.7,7.6,3.6,12.5,5.4c29.8,11.2,57.1,7,66.3,5.1l0,0.2l1-0.1
	c10.6-1.1,20.8-4.1,30.3-8.7c0.3-0.1,0.6-0.3,0.9-0.4c2.1,15.3,3.1,30.7,3.1,46c0,10.7-0.5,21.5-1.5,32.1c-1.7-0.8-3.3-1.6-5-2.3
	c-5.4-2.3-11.1-4.2-16.9-5.6C720.1,371.4,691,367,661.3,377.1z"/>
</svg>
