<?xml version="1.0" encoding="utf-8"?>
<!-- Generator: Adobe Illustrator 19.2.1, SVG Export Plug-In . SVG Version: 6.00 Build 0)  -->
<svg version="1.1" id="Layer_1" xmlns="http://www.w3.org/2000/svg" xmlns:xlink="http://www.w3.org/1999/xlink" x="0px" y="0px"
	 viewBox="0 0 440.4 407.4" style="enable-background:new 0 0 440.4 407.4;" xml:space="preserve">
<style type="text/css">
	.st0{fill:#00A651;stroke:#231F20;stroke-width:9;stroke-miterlimit:10;}
	.st1{fill:#1C75BC;stroke:#231F20;stroke-width:9;stroke-miterlimit:10;}
	.st2{fill:#2B3990;stroke:#231F20;stroke-width:9;stroke-miterlimit:10;}
	.st3{fill:#FFF200;stroke:#231F20;stroke-width:9;stroke-miterlimit:10;}
	.st4{fill:#00AEEF;}
	.st5{fill:#0C00FF;}
	.st6{fill:none;stroke:#FFF200;stroke-width:4;}
</style>
<path id="DIF:_SunRays" class="st0" d="M236.4,4.5c-5,0-10,0.2-14.9,0.6c-0.9,10.3-1,26.1,3.4,37.3c0.6,1.5,1.2,2.8,1.7,4
	c-14.3,6.1-16.8,8.7-18.2,10.1c-5.8,6.1-9.1,14.7-9.6,25.2c5.4-0.2,11.8-0.3,19.4-0.3C285.5,81.4,340,135.9,340,203
	s-54.5,121.6-121.8,121.6c-11.5,0-20.9-1.6-14.5-0.8c-0.1,8.8,2.4,23.6,17.5,34.8c-0.4,0.6-4.4,8.2-4.5,8.3
	c-3.4,7.5-5.8,21.3-5.8,21.4c0,0.2,0,0.3-0.1,0.5c-0.2,2.3-0.3,7.4-0.2,12.4c8.5,1.1,17.1,1.7,25.8,1.7
	c110.2,0,199.5-89.2,199.5-199.2S346.6,4.5,236.4,4.5z"/>
<path id="DIF:_MoonRAys" class="st1" d="M201.9,323.8c-32-3.9-60.3-20.3-79.8-44.1l-3.4-4.4c-15.1-20.3-24.1-45.5-24.1-72.7
	c0-29,10.1-55.6,27.1-76.6c0,0,2-2.5,2.1-2.5c18.4-21.5,44.1-36.7,73.2-41.4c0.4-10.7,3.7-19.6,9.7-25.8c1.4-1.4,3.9-4,18.2-10.1
	c-0.6-1.2-1.2-2.6-1.7-4c-5.7-14.4-5.1-28.5-3.8-36.6C172,9.2,127.8,29.4,93.8,63.4C74,83.2,58.9,106.5,49,131.9
	c0.1,0.1-1,2.8-1,2.8c-8.1,21.8-12.3,45.1-12.3,69.1c0,12.6,1.2,25.1,3.5,37.3c2,9,4.7,18.9,8,29.5c1.8,5.1,8.5,20.2,8.5,20.2
	c9.5,19.5,22.4,37.6,38.2,53.4c31.4,31.4,71.6,51,115,56.5c-0.3-2.9-0.3-7,0.2-11.9c0-0.2,0-0.3,0.1-0.5c0-0.1,0-0.2,0-0.4
	c0.7-6.3,2.4-13.6,5.8-21.1c0-0.1,0.1-0.2,0.2-0.3c0.2-0.4,0.3-0.7,0.5-1.1c0.1-0.3,0.3-0.6,0.4-0.8c0.1-0.3,0.2-0.5,0.4-0.7
	c0.3-0.6,0.6-1.1,0.9-1.7c0.2-0.3,0.4-0.6,0.5-0.9c0.1-0.1,0.1-0.2,0.2-0.3c0.1-0.2,0.2-0.4,0.3-0.6c0.4-0.6,0.7-1.2,1.1-1.8
	C204.3,347.4,201.8,332.6,201.9,323.8z"/>
<path id="DIF:_Moon" class="st2" d="M268.2,306.9c-15.9,7.9-33.6,12-51.5,12c-64.1,0-116.2-52.1-116.2-116.2
	c0-64.1,52.1-116.2,116.2-116.2c14.1,0,27.7,2.5,40.7,7.3c-0.4,0.1-0.8,0.2-1.2,0.4c-0.3,0.1-0.6,0.2-0.9,0.3
	c-0.6,0.2-1.2,0.4-1.7,0.6c-0.2,0.1-0.4,0.1-0.6,0.2c-0.8,0.3-1.5,0.5-2.3,0.8c-0.3,0.1-0.5,0.2-0.8,0.3c-0.5,0.2-1,0.4-1.5,0.6
	c-0.3,0.1-0.6,0.2-1,0.4c-0.4,0.2-0.9,0.3-1.3,0.5c-0.3,0.1-0.7,0.3-1,0.4c-0.4,0.2-0.9,0.3-1.3,0.5c-0.3,0.1-0.7,0.3-1,0.4
	c-0.4,0.2-0.8,0.4-1.2,0.5c-0.3,0.2-0.7,0.3-1,0.4c-0.4,0.2-0.8,0.4-1.2,0.6c-0.3,0.2-0.7,0.3-1,0.5c-0.4,0.2-0.8,0.4-1.2,0.6
	c-0.3,0.2-0.6,0.3-1,0.5c-0.4,0.2-0.9,0.4-1.3,0.6c-0.3,0.1-0.6,0.3-0.9,0.4c-0.5,0.3-1.1,0.5-1.6,0.8c-0.2,0.1-0.4,0.2-0.6,0.3
	c-0.7,0.4-1.4,0.8-2.1,1.1c-0.3,0.1-0.5,0.3-0.8,0.4c-0.4,0.3-0.9,0.5-1.3,0.8c-0.3,0.2-0.6,0.3-0.9,0.5c-0.4,0.2-0.8,0.5-1.2,0.7
	c-0.3,0.2-0.6,0.4-0.9,0.6c-0.4,0.2-0.8,0.5-1.1,0.7c-0.3,0.2-0.6,0.4-0.9,0.6c-0.4,0.2-0.8,0.5-1.1,0.7c-0.3,0.2-0.6,0.4-0.9,0.6
	c-0.4,0.2-0.7,0.5-1.1,0.7c-0.3,0.2-0.6,0.4-0.9,0.6c-0.4,0.3-0.8,0.5-1.1,0.8c-0.3,0.2-0.5,0.4-0.8,0.6c-0.4,0.3-0.8,0.6-1.2,0.9
	c-0.2,0.2-0.5,0.3-0.7,0.5c-0.5,0.4-1.1,0.8-1.6,1.2c-0.1,0.1-0.2,0.2-0.3,0.2c-0.6,0.5-1.2,0.9-1.8,1.4c-0.2,0.2-0.4,0.3-0.6,0.5
	c-0.4,0.3-0.8,0.6-1.2,1c-0.2,0.2-0.5,0.4-0.7,0.6c-0.4,0.3-0.7,0.6-1.1,0.9c-0.3,0.2-0.5,0.4-0.7,0.6c-0.3,0.3-0.7,0.6-1,0.9
	c-0.3,0.2-0.5,0.4-0.7,0.7c-0.3,0.3-0.7,0.6-1,0.9c-0.2,0.2-0.5,0.4-0.7,0.7c-0.3,0.3-0.7,0.6-1,0.9c-0.2,0.2-0.5,0.4-0.7,0.7
	c-0.3,0.3-0.7,0.7-1,1l-0.6,0.6c-0.4,0.4-0.7,0.7-1.1,1.1c-0.2,0.2-0.4,0.4-0.5,0.5c-0.5,0.6-1,1.1-1.6,1.7
	c-18,19.6-27.5,43-27.5,67.7c0,25.9,10.9,51.1,30.8,71.1c0.6,0.6,1.2,1.2,1.8,1.7c0.2,0.2,0.4,0.4,0.6,0.6c0.4,0.4,0.8,0.8,1.2,1.1
	c0.2,0.2,0.5,0.4,0.7,0.7c0.4,0.3,0.8,0.7,1.1,1c0.3,0.2,0.5,0.5,0.8,0.7c0.4,0.3,0.7,0.6,1.1,1c0.3,0.2,0.5,0.5,0.8,0.7
	c0.4,0.3,0.7,0.6,1.1,0.9c0.3,0.2,0.6,0.5,0.8,0.7c0.4,0.3,0.7,0.6,1.1,0.9c0.3,0.2,0.6,0.4,0.9,0.7c0.4,0.3,0.8,0.6,1.2,0.9
	c0.3,0.2,0.6,0.4,0.9,0.6c0.4,0.3,0.8,0.6,1.2,0.9c0.3,0.2,0.6,0.4,0.8,0.6c0.4,0.3,0.9,0.6,1.3,0.9c0.3,0.2,0.5,0.4,0.8,0.5
	c0.6,0.4,1.2,0.8,1.8,1.2c0.1,0.1,0.2,0.2,0.4,0.2c0.7,0.5,1.4,0.9,2.1,1.4c0.3,0.2,0.5,0.3,0.8,0.5c0.5,0.3,0.9,0.6,1.4,0.9
	c0.3,0.2,0.6,0.4,0.9,0.5c0.4,0.3,0.9,0.5,1.3,0.8c0.3,0.2,0.7,0.4,1,0.6c0.4,0.2,0.8,0.5,1.3,0.7c0.3,0.2,0.7,0.4,1,0.6
	c0.4,0.2,0.8,0.5,1.3,0.7c0.3,0.2,0.7,0.4,1,0.5c0.4,0.2,0.8,0.4,1.3,0.7c0.4,0.2,0.7,0.4,1.1,0.5c0.4,0.2,0.9,0.4,1.3,0.6
	c0.3,0.2,0.7,0.3,1.1,0.5c0.4,0.2,0.9,0.4,1.3,0.6c0.3,0.2,0.7,0.3,1,0.5c0.5,0.2,0.9,0.4,1.4,0.6c0.3,0.1,0.6,0.3,1,0.4
	c0.6,0.3,1.2,0.5,1.8,0.7c0.2,0.1,0.4,0.2,0.7,0.3c0.8,0.3,1.6,0.7,2.4,1c0.3,0.1,0.6,0.2,0.8,0.3c0.5,0.2,1.1,0.4,1.6,0.6
	c0.3,0.1,0.7,0.3,1,0.4c0.5,0.2,1,0.4,1.5,0.5c0.4,0.1,0.7,0.3,1.1,0.4c0.5,0.2,1,0.3,1.4,0.5c0.4,0.1,0.7,0.2,1.1,0.4
	c0.5,0.2,1,0.3,1.4,0.5c0.4,0.1,0.8,0.2,1.1,0.3c0.5,0.2,1,0.3,1.4,0.4c0.4,0.1,0.8,0.2,1.1,0.3c0.5,0.1,1,0.3,1.5,0.4
	c0.4,0.1,0.7,0.2,1.1,0.3c0.5,0.1,1,0.3,1.6,0.4c0.3,0.1,0.7,0.2,1,0.3c0.6,0.1,1.1,0.3,1.7,0.4c0.3,0.1,0.6,0.1,0.9,0.2
	C268,306.9,268.1,306.9,268.2,306.9z"/>
<path id="DIF:_Sun" class="st3" d="M332.7,209.1C332.7,209.1,332.7,209.1,332.7,209.1c-0.9,16.6-5.3,32.8-13,47.4c0,0-0.1,0-0.1,0
	l-1.3,2.6c0,0,0,0,0,0c-0.4,0.8-0.9,1.6-1.3,2.3c-9.9,16.9-24.1,31.1-40.9,41.2c-0.3,0-0.5-0.1-0.8-0.1c-0.5-0.1-0.9-0.2-1.4-0.3
	c-0.4-0.1-0.8-0.2-1.3-0.3c-0.5-0.1-0.9-0.2-1.4-0.3c-0.4-0.1-0.9-0.2-1.3-0.3c-0.4-0.1-0.9-0.2-1.3-0.3c-0.4-0.1-0.9-0.2-1.3-0.3
	c-0.4-0.1-0.9-0.2-1.3-0.3c-0.4-0.1-0.9-0.2-1.3-0.3c-0.4-0.1-0.9-0.2-1.3-0.3c-0.4-0.1-0.9-0.2-1.3-0.4c-0.4-0.1-0.9-0.2-1.3-0.4
	c-0.4-0.1-0.9-0.3-1.3-0.4c-0.4-0.1-0.8-0.3-1.3-0.4c-0.4-0.1-0.9-0.3-1.3-0.4c-0.4-0.1-0.8-0.3-1.2-0.4c-0.4-0.1-0.9-0.3-1.3-0.4
	c-0.4-0.1-0.8-0.3-1.2-0.4c-0.4-0.2-0.9-0.3-1.3-0.5c-0.4-0.1-0.8-0.3-1.2-0.4c-0.4-0.2-0.9-0.3-1.3-0.5c-0.4-0.2-0.8-0.3-1.2-0.5
	c-0.4-0.2-0.9-0.3-1.3-0.5c-0.4-0.2-0.8-0.3-1.2-0.5c-0.4-0.2-0.8-0.4-1.3-0.5c-0.4-0.2-0.8-0.3-1.1-0.5c-0.4-0.2-0.8-0.4-1.3-0.6
	c-0.4-0.2-0.8-0.3-1.1-0.5c-0.4-0.2-0.8-0.4-1.2-0.6c-0.4-0.2-0.7-0.3-1.1-0.5c-0.4-0.2-0.8-0.4-1.2-0.6c-0.4-0.2-0.7-0.4-1.1-0.5
	c-0.4-0.2-0.8-0.4-1.2-0.6c-0.4-0.2-0.7-0.4-1.1-0.6c-0.4-0.2-0.8-0.4-1.2-0.6c-0.4-0.2-0.7-0.4-1.1-0.6c-0.4-0.2-0.8-0.4-1.2-0.7
	c-0.3-0.2-0.7-0.4-1-0.6c-0.4-0.2-0.8-0.5-1.2-0.7c-0.3-0.2-0.7-0.4-1-0.6c-0.4-0.2-0.8-0.5-1.2-0.7c-0.3-0.2-0.7-0.4-1-0.6
	c-0.4-0.2-0.8-0.5-1.1-0.7c-0.3-0.2-0.7-0.4-1-0.6c-0.4-0.3-0.8-0.5-1.1-0.8c-0.3-0.2-0.6-0.4-1-0.7c-0.4-0.3-0.7-0.5-1.1-0.8
	c-0.3-0.2-0.6-0.4-0.9-0.7c-0.4-0.3-0.7-0.5-1.1-0.8c-0.3-0.2-0.6-0.5-0.9-0.7c-0.4-0.3-0.7-0.6-1.1-0.8c-0.3-0.2-0.6-0.5-0.9-0.7
	c-0.4-0.3-0.7-0.6-1.1-0.8c-0.3-0.2-0.6-0.5-0.9-0.7c-0.3-0.3-0.7-0.6-1-0.9c-0.3-0.2-0.6-0.5-0.9-0.7c-0.4-0.3-0.7-0.6-1.1-0.9
	c-0.3-0.2-0.6-0.5-0.8-0.7c-0.4-0.3-0.7-0.7-1.1-1c-0.3-0.2-0.5-0.5-0.8-0.7c-0.4-0.4-0.8-0.8-1.2-1.1c-0.2-0.2-0.4-0.4-0.6-0.6
	c-0.6-0.6-1.2-1.1-1.8-1.7c-18.8-18.9-29.1-42.7-29.1-67c0-23.2,9-45.2,26-63.7c0.5-0.6,1-1.1,1.6-1.7c0.2-0.2,0.3-0.4,0.5-0.5
	c0.4-0.4,0.7-0.7,1.1-1.1c0.2-0.2,0.5-0.5,0.7-0.7c0.3-0.3,0.6-0.6,0.9-0.9c0.3-0.2,0.5-0.5,0.8-0.7c0.3-0.3,0.6-0.6,0.9-0.9
	c0.3-0.2,0.5-0.5,0.8-0.7c0.3-0.3,0.6-0.6,0.9-0.8c0.3-0.2,0.6-0.5,0.9-0.7c0.3-0.3,0.6-0.5,0.9-0.8c0.3-0.3,0.6-0.5,0.9-0.7
	c0.3-0.3,0.6-0.5,0.9-0.8c0.3-0.2,0.6-0.5,0.9-0.7c0.3-0.2,0.6-0.5,0.9-0.7c0.3-0.2,0.6-0.5,0.9-0.7c0.3-0.2,0.6-0.5,0.9-0.7
	c0.3-0.2,0.6-0.5,1-0.7c0.3-0.2,0.6-0.5,0.9-0.7c0.3-0.2,0.7-0.5,1-0.7c0.3-0.2,0.6-0.4,0.9-0.7c0.3-0.2,0.7-0.5,1-0.7
	c0.3-0.2,0.6-0.4,0.9-0.6c0.3-0.2,0.7-0.5,1-0.7c0.3-0.2,0.6-0.4,0.9-0.6c0.3-0.2,0.7-0.4,1-0.7c0.3-0.2,0.6-0.4,1-0.6
	c0.4-0.2,0.7-0.4,1.1-0.7c0.3-0.2,0.7-0.4,1-0.6c0.4-0.2,0.7-0.4,1.1-0.6c0.3-0.2,0.7-0.4,1-0.6c0.4-0.2,0.7-0.4,1.1-0.6
	c0.3-0.2,0.7-0.4,1-0.6c0.4-0.2,0.7-0.4,1.1-0.6c0.3-0.2,0.7-0.4,1-0.6c0.4-0.2,0.7-0.4,1.1-0.6c0.3-0.2,0.7-0.4,1-0.5
	c0.4-0.2,0.8-0.4,1.1-0.6c0.3-0.2,0.7-0.3,1-0.5c0.4-0.2,0.8-0.4,1.1-0.5c0.4-0.2,0.7-0.3,1.1-0.5c0.4-0.2,0.8-0.4,1.1-0.5
	c0.4-0.2,0.7-0.3,1.1-0.5c0.4-0.2,0.8-0.3,1.2-0.5c0.4-0.2,0.7-0.3,1.1-0.5c0.4-0.2,0.8-0.3,1.2-0.5c0.4-0.2,0.7-0.3,1.1-0.5
	c0.4-0.2,0.8-0.3,1.2-0.5c0.4-0.1,0.8-0.3,1.1-0.4c0.4-0.1,0.8-0.3,1.2-0.4c0.4-0.1,0.8-0.3,1.2-0.4c0.4-0.1,0.8-0.3,1.2-0.4
	c0.4-0.1,0.8-0.3,1.2-0.4c0.4-0.1,0.8-0.3,1.2-0.4c0.4-0.1,0.8-0.3,1.2-0.4c0.4-0.1,0.8-0.3,1.2-0.4c0.4-0.1,0.8-0.3,1.2-0.4
	c0.4-0.1,0.8-0.2,1.2-0.4c0.4-0.1,0.8-0.2,1.2-0.4c0.4-0.1,0.8-0.2,1.2-0.3c0.1,0,0.3-0.1,0.4-0.1c0,0,3,0.1,3.3-0.5
	c18.4,8.7,34.1,22.1,45.7,38.8c-0.4,0.3,1.7,2.5,1.8,2.6c11.1,16.9,17.5,36.4,18.7,56.6c0,0,0.2,5.6,0.2,7
	C332.9,204.8,332.7,209.1,332.7,209.1z"/>
<rect id="NLED:_APA102C" x="62.7" y="207.1" class="st4" width="8.3" height="8.3"/>
<rect id="NLED:_APA102C_1_" x="143.3" y="64.4" class="st4" width="8.3" height="8.3"/>
<rect id="NLED:_APA102C_2_" x="279.4" y="53.4" class="st4" width="8.3" height="8.3"/>
<rect id="NLED:_APA102C_3_" x="231" y="66.7" class="st4" width="8.3" height="8.3"/>
<rect id="NLED:_APA102C_4_" x="300.6" y="94.8" class="st4" width="8.3" height="8.3"/>
<rect id="NLED:_APA102C_5_" x="334.6" y="65.1" class="st4" width="8.3" height="8.3"/>
<rect id="NLED:_APA102C_6_" x="352.2" y="108.3" class="st4" width="8.3" height="8.3"/>
<rect id="NLED:_APA102C_7_" x="343" y="156.6" class="st4" width="8.3" height="8.3"/>
<rect id="NLED:_APA102C_8_" x="392.4" y="151.5" class="st4" width="8.3" height="8.3"/>
<rect id="NLED:_APA102C_9_" x="341.5" y="232.2" class="st4" width="8.3" height="8.3"/>
<rect id="NLED:_APA102C_10_" x="393.4" y="197.4" class="st4" width="8.3" height="8.3"/>
<rect id="NLED:_APA102C_11_" x="394" y="255.7" class="st4" width="8.3" height="8.3"/>
<rect id="NLED:_APA102C_12_" x="306.3" y="298.1" class="st4" width="8.3" height="8.3"/>
<rect id="NLED:_APA102C_13_" x="368.7" y="294.4" class="st4" width="8.3" height="8.3"/>
<rect id="NLED:_APA102C_14_" x="339.4" y="341.1" class="st4" width="8.3" height="8.3"/>
<rect id="NLED:_APA102C_15_" x="280.6" y="331.6" class="st4" width="8.3" height="8.3"/>
<rect id="NLED:_APA102C_16_" x="236.2" y="336.8" class="st4" width="8.3" height="8.3"/>
<rect id="NLED:_APA102C_17_" x="244.1" y="382.8" class="st4" width="8.3" height="8.3"/>
<rect id="NLED:_APA102C_18_" x="140" y="336.5" class="st4" width="8.3" height="8.3"/>
<rect id="NLED:_APA102C_19_" x="144.8" y="151.8" class="st4" width="8.3" height="8.3"/>
<rect id="NLED:_APA102C_20_" x="154.8" y="257" class="st4" width="8.3" height="8.3"/>
<rect id="NLED:_APA102C_21_" x="250.8" y="200.1" class="st4" width="8.3" height="8.3"/>
<path id="BO:_Breakout" class="st5" d="M17.1,243.3v-5.2v-3.5v-10.5v-3.5v-10.5v-14H4.1v14v10.5v3.5v10.5v3.5v5.2v5.2h12.9V243.3z"
	/>
<path id="BI:_Breakin" class="st5" d="M16.9,181v-5.2v-3.5v-10.5v-3.5v-10.5v-14H3.9v14v10.5v3.5v10.5v3.5v5.2v5.2h12.9V181z"/>
<polyline id="CP:_CircuitPath" class="st6" points="10.9,161.2 153.1,151.8 143.3,64.4 239.2,75 283.6,57.6 308.9,103.1 342.8,65.1 
	356.3,112.5 347.1,160.7 392.4,151.5 397.6,201.6 345.6,236.3 394,255.7 377,294.4 306.3,306.3 343.5,345.2 280.6,331.6 244.1,391 
	240.3,341 144.1,340.6 158.9,261.1 254.9,204.2 44.1,213.6 17.1,224.1 "/>
</svg>
