<?xml version="1.0" encoding="utf-8"?>
<!-- Generator: Adobe Illustrator 19.2.1, SVG Export Plug-In . SVG Version: 6.00 Build 0)  -->
<svg version="1.1" id="Layer_1" xmlns="http://www.w3.org/2000/svg" xmlns:xlink="http://www.w3.org/1999/xlink" x="0px" y="0px"
	 viewBox="0 0 864 1114.2" style="enable-background:new 0 0 864 1114.2;" xml:space="preserve">
<style type="text/css">
	.st0{fill:#1C75BC;stroke:#231F20;stroke-miterlimit:10;}
	.st1{fill:#00AEEF;stroke:#231F20;stroke-miterlimit:10;}
	.st2{fill:#FFFFFF;stroke:#231F20;stroke-miterlimit:10;}
	.st3{fill:#294DFF;}
	.st4{fill:#FFE313;}
	.st5{fill:none;stroke:#DCED00;stroke-width:5;stroke-miterlimit:10;}
</style>
<rect id="BASE:_Control" x="109.5" y="109.7" class="st0" width="360" height="360"/>
<g>
	<circle id="DIF:_Disk_1_" class="st1" cx="204.4" cy="200.3" r="85"/>
	<rect id="NLED:_APA102C_3_" x="198.4" y="194.2" class="st2" width="12.1" height="12.1"/>
</g>
<g>
	
		<rect id="DIF:_Plank" x="349.9" y="115.2" transform="matrix(4.490523e-11 1 -1 4.490523e-11 580.5635 -180.0307)" class="st1" width="60.7" height="170.1"/>
	
		<rect id="NLED:_APA102C_2_" x="313.9" y="194.2" transform="matrix(4.484483e-11 1 -1 4.484483e-11 520.2764 -119.7436)" class="st2" width="12.1" height="12.1"/>
</g>
<g>
	<circle id="DIF:_Hemisphere" class="st1" cx="201.6" cy="376.7" r="85"/>
	<rect id="NLED:_APA102C_1_" x="195.5" y="370.6" class="st2" width="12.1" height="12.1"/>
</g>
<g>
	<rect id="DIF:_Cuboid" x="292.4" y="291.6" class="st1" width="170.1" height="170.1"/>
	<rect id="NLED:_APA102C" x="371.3" y="370.6" class="st2" width="12.1" height="12.1"/>
</g>
<g>
	
		<rect id="MC:_ATTiny" x="401" y="84.1" transform="matrix(-2.336906e-03 1 -1 -2.336906e-03 554.7438 -285.4825)" class="st3" width="37.5" height="99.7"/>
	<polygon id="BI:_Breakin_1_" class="st4" points="381,143.4 381,141.2 381,139.7 381,135.2 381,133.7 381,129.2 381.1,123.2 
		370,123.2 369.9,127.3 369.9,129.2 369.9,133.7 369.9,135.2 369.9,139.7 369.9,141.2 369.9,143.4 369.9,145.7 381,145.7 	"/>
</g>
<polyline id="CP:_Control_Path" class="st5" points="389.3,134.4 343.9,134 343.9,200.3 167.9,200.3 170.6,376.7 469.5,376.7 "/>
</svg>
