<?xml version="1.0" encoding="utf-8"?>
<!-- Generator: Adobe Illustrator 19.2.1, SVG Export Plug-In . SVG Version: 6.00 Build 0)  -->
<svg version="1.1" id="ELD:_Texas" xmlns:sketch="http://www.bohemiancoding.com/sketch/ns"
	 xmlns="http://www.w3.org/2000/svg" xmlns:xlink="http://www.w3.org/1999/xlink" x="0px" y="0px" viewBox="0 0 180.1 174.4"
	 style="enable-background:new 0 0 180.1 174.4;" xml:space="preserve">
<style type="text/css">
	.st0{fill:#FEFFFE;stroke:#000000;stroke-width:7;}
	.st1{fill:none;stroke:#FFFF00;stroke-width:3;stroke-miterlimit:10;}
	.st2{fill:#ED08FF;stroke:#231F20;stroke-miterlimit:10;}
	.st3{fill:#FFFFFF;stroke:#231F20;stroke-miterlimit:10;}
</style>
<path id="DIF:Texas" class="st0" d="M77.6,3.5h19.2v32.9l10.5,2.7l17.7,2.8l25.7,3.2l9.1-1.7l11,8V77l5.5,10.9l-5.5,20.1l-20.1,12.6
	l-15.3,14.5l-2.7,16.5l2.7,18.1l-30.2-7.1L94,135.2l-11-16.5l-8.7-7.9l-7.8-2.8l-9.2,2.8l-7.3,9.8l-16.5-11l-7.4-18.4l-14.5-7.6
	l-5.5-8.9h47.5V3.5H77.6z"/>
<line id="CP:_CircuitPath" class="st1" x1="58.9" y1="150.8" x2="105.1" y2="87.2"/>
<rect id="BI:_Breakin" x="49.5" y="141.8" transform="matrix(0.5 -0.866 0.866 0.5 -101.1998 126.3856)" class="st2" width="18.8" height="18"/>
<polygon id="NLED:_Lone_Star" class="st3" points="112.2,94.3 98,94.3 98,80.1 112.2,80.1 112.2,87.2 "/>
</svg>
