<?xml version="1.0" encoding="utf-8"?>
<!-- Generator: Adobe Illustrator 19.2.1, SVG Export Plug-In . SVG Version: 6.00 Build 0)  -->
<svg version="1.1" id="ELD:_Display" xmlns="http://www.w3.org/2000/svg" xmlns:xlink="http://www.w3.org/1999/xlink" x="0px"
	 y="0px" viewBox="0 0 302 165" style="enable-background:new 0 0 302 165;" xml:space="preserve">
<style type="text/css">
	.st0{fill:none;stroke:#BA0000;stroke-width:2;stroke-miterlimit:10;}
	.st1{opacity:0.5;fill:#27AAE1;enable-background:new    ;}
	.st2{opacity:0.5;fill:#52B1FF;}
	.st3{fill:none;stroke:#000000;stroke-miterlimit:10;}
	.st4{fill:none;stroke:#1A8746;stroke-width:2;stroke-miterlimit:10;}
</style>
<path id="REF:_Reflective" class="st0" d="M193.6,55l0.1,3.2c0.7,2.3-2.5,5.4-9.2,8.9l-0.2,0.1c-5.8,3.1-15.3,5.3-15.7,5.4l-2.3,0.5
	l-32.4,0l-2.3-0.5c-0.4-0.1-9.9-2.3-15.7-5.4l-0.2-0.1c-6.7-3.5-9.8-6.5-9.2-8.9l0.1-3.2"/>
<polygon id="LENS:_1.93" class="st1" points="192.6,57 107.5,57 107.5,54.1 149.8,54.1 192.6,54.1 "/>
<path id="LENS:_1.44" class="st2" d="M191.3,58.3l-82,0c-1,3.4,7.7,7.6,8.9,8.2c5.6,2.9,14,4.7,14,4.7l1.9,0.4l-0.4-7.5
	c0,0,11.2-3.5,16.5-3.4c5.6-0.2,15.6,3.2,15.6,3.2l0.4,7.8l1.2-0.3c0,0,9.3-2.1,14.9-4.9C183.6,65.9,192.3,61.6,191.3,58.3z"/>
<polyline id="IMG:_PicturePlane" class="st3" points="107.5,50.2 181.5,50.2 192.6,50.2 "/>
<line id="BASE:_PCB" class="st4" x1="108" y1="75.7" x2="193.5" y2="75.7"/>
</svg>
