<?xml version="1.0" encoding="utf-8"?>
<!-- Generator: Adobe Illustrator 19.2.1, SVG Export Plug-In . SVG Version: 6.00 Build 0)  -->
<svg version="1.1" id="Layer_1" xmlns="http://www.w3.org/2000/svg" xmlns:xlink="http://www.w3.org/1999/xlink" x="0px" y="0px"
	 viewBox="0 0 360 360" style="enable-background:new 0 0 360 360;" xml:space="preserve">
<style type="text/css">
	.st0{fill:none;stroke:#231F20;stroke-width:2;stroke-miterlimit:10;}
</style>
<path id="DIF:_Venn_Collective" class="st0" d="M193.4,211.6c-0.3-38.9-31.9-70.4-70.9-70.4c-38.5,0-69.8,30.7-70.9,69
	c-21.4,12.2-35.8,35.2-35.8,61.6c0,39.2,31.7,70.9,70.9,70.9c12.6,0,24.4-3.3,34.6-9c10.5,6.2,22.7,9.7,35.8,9.7
	c39.2,0,70.9-31.7,70.9-70.9C228,246.6,214.1,224,193.4,211.6z"/>
<circle id="DDS:_Venn_1_" class="st0" cx="86.6" cy="272.7" r="70.9"/>
<circle id="DDS:_Venn" class="st0" cx="122.4" cy="213" r="70.9"/>
<circle id="DIF:_Venn" class="st0" cx="157" cy="273.4" r="70.9"/>
<rect id="BASE:_diagram" x="2.4" y="128.8" class="st0" width="238.9" height="227.1"/>
</svg>
