<?xml version="1.0" encoding="utf-8"?>
<!-- Generator: Adobe Illustrator 19.2.1, SVG Export Plug-In . SVG Version: 6.00 Build 0)  -->
<svg version="1.1" id="ELD:_Display" xmlns="http://www.w3.org/2000/svg" xmlns:xlink="http://www.w3.org/1999/xlink" x="0px"
	 y="0px" viewBox="0 0 302 165" style="enable-background:new 0 0 302 165;" xml:space="preserve">
<style type="text/css">
	.st0{fill:none;stroke:#BA0000;stroke-width:2;stroke-miterlimit:10;}
	.st1{opacity:0.5;fill:#52B1FF;enable-background:new    ;}
	.st2{fill:none;stroke:#000000;stroke-miterlimit:10;}
	.st3{fill:none;stroke:#1A8746;stroke-width:2;stroke-miterlimit:10;}
</style>
<path id="REF:_Reflective" class="st0" d="M192.2,42.3l-0.1,2.8c0,0-7.6,17.1-11.2,20.9c-4.5,4.8-14.7,7.1-14.7,7.1h-32.4
	c0,0-12.5-1.9-17.4-6.9c-4-4-9.1-20.4-9.1-20.4l-0.2-3.4"/>
<path id="LENS:_1.44" class="st1" d="M190.1,45.4l-81.4,0.5c0,0,0,0,0,0c0,0,5.1,16.3,9.4,19.7c4.9,3.9,15.9,6.1,15.9,6.1l6.5,0.1
	l-0.1-7.6c0,0,5.3-15.7,10-15.8c4.7-0.1,10.6,15.8,10.6,15.8l0.1,7.5l5,0.1c0,0,7.5-2.1,12.3-5.3C183.8,62.8,190.1,45.4,190.1,45.4z
	"/>
<polyline id="IMG:_PicturePlane" class="st2" points="107.5,32.2 181.5,32.2 192.6,32.2 "/>
<line id="BASE:_PCB" class="st3" x1="108" y1="75.7" x2="193.5" y2="75.7"/>
</svg>
