<?xml version="1.0" encoding="utf-8"?>
<!-- Generator: Adobe Illustrator 19.2.1, SVG Export Plug-In . SVG Version: 6.00 Build 0)  -->
<svg version="1.1" id="ELD:_Part" xmlns="http://www.w3.org/2000/svg" xmlns:xlink="http://www.w3.org/1999/xlink" x="0px" y="0px"
	 viewBox="0 0 21.5 22.5" style="enable-background:new 0 0 21.5 22.5;" xml:space="preserve">
<style type="text/css">
	.st0{fill:#00AEEF;}
</style>
<g id="CC:_APA102C_Footprint">
	<g id="TR:_Traces">
		<polygon class="st0" points="20.1,0 20.1,0 18.1,0 2.9,0 2.9,0 0,0 0,3.5 1.5,3.5 1.5,3.5 6.5,3.5 6.5,3.5 7.8,3.5 7.8,3.5 
			8.1,3.5 8.1,8.8 12.2,17.6 18.6,17.6 18.6,17.6 20,17.6 20,17.6 21.5,17.6 21.5,14.1 20,14.1 20,14.1 18.6,14.1 15.1,14.1 
			14.4,14.1 11.6,8 11.6,3.5 13.7,3.5 13.7,3.5 16.3,3.5 20.2,3.5 20.2,3.5 21.5,3.5 21.5,0 		"/>
		<polygon class="st0" points="20,4.9 15.1,4.9 15.1,8.4 20,8.4 20,8.4 21.5,8.4 21.5,4.9 20,4.9 		"/>
		<polygon class="st0" points="20,9.5 15.1,9.5 15.1,13 20,13 20,13 21.5,13 21.5,9.5 20,9.5 		"/>
		<polygon class="st0" points="1.5,8.4 6.5,8.4 6.5,4.9 1.5,4.9 1.5,4.9 0,4.9 0,8.4 1.5,8.4 		"/>
		<polygon class="st0" points="1.5,13 6.5,13 6.5,9.5 1.5,9.5 1.5,9.5 0,9.5 0,13 1.5,13 		"/>
		<polygon class="st0" points="20,19 18.6,19 18.6,19 11.8,19 9.7,14.1 6.5,14.1 2.9,14.1 1.5,14.1 1.5,14.1 0,14.1 0,17.6 
			1.5,17.6 1.5,17.6 2.9,17.6 2.9,17.6 7.4,17.6 8,19 2.9,19 2.9,19 1.5,19 1.5,19 0,19 0,22.5 4.6,22.5 4.6,22.5 16.9,22.5 
			16.9,22.5 21.5,22.5 21.5,19 20,19 		"/>
	</g>
	<rect id="SMD:_APA102C" x="3.6" y="4.2" width="14.2" height="14.2"/>
</g>
</svg>
