<?xml version="1.0" encoding="utf-8"?>
<!-- Generator: Adobe Illustrator 19.2.1, SVG Export Plug-In . SVG Version: 6.00 Build 0)  -->
<svg version="1.1" id="Layer_1" xmlns="http://www.w3.org/2000/svg" xmlns:xlink="http://www.w3.org/1999/xlink" x="0px" y="0px"
	 viewBox="0 0 56.2 87.2" style="enable-background:new 0 0 56.2 87.2;" xml:space="preserve">
<style type="text/css">
	.st0{fill:#00AEEF;}
</style>
<path class="st0" d="M43.8,22.5L44,9.2l-11.8,0V0H19.8v13.9H0v12.4h20v12.2h1.4l0.1,33.8l2.2,6.6v8.4h4.9h4.6h0.2h4.9h4.4h0.2h9.5
	v-7.5l2.3-5.3h1.5V53.2V38.4V22.5H43.8z M18.3,23.4H2.8v-6.7h15.5V23.4z M30.6,84.3h-4v-6l-2.2-6.6l0-0.3l-0.2-35.9h-1.4V25.3h6.7
	v10.2h-1.3l0.2,35.5l2.3,6.6V84.3z M36,73.6l-0.6,4.6v6.2h-4l0-6.6l0.6-4.6l0-1.7h-1.3V56.1h6.7v15.5H36L36,73.6z M31,38.4h1.3
	L45.1,50v3.3h-1.4h-3.5h-4.4h-4.8L31,38.4z M45.4,71.6h-1.3l0,3.6L40.1,79v5.4h-4v-7l3.9-3.8l0-1.9h-1.4V56.1h6.7V71.6z M53.3,71.6
	H52v1.9l-2.4,5.6v5.3h-4v-6.1l2.4-5.6v-1.1h-1.4V56.1H48v-7.4L36.8,39L37,16l-11,0l0-0.2h-3.4v-13h6.7V12l11.7,0l-0.3,25.2L52,46.8
	v9.2h1.4V71.6z M53.3,35.6h-6.7V25.3h6.7V35.6z"/>
</svg>
