<?xml version="1.0" encoding="utf-8"?>
<!-- Generator: Adobe Illustrator 16.0.0, SVG Export Plug-In . SVG Version: 6.00 Build 0)  -->
<!DOCTYPE svg PUBLIC "-//W3C//DTD SVG 1.1//EN" "http://www.w3.org/Graphics/SVG/1.1/DTD/svg11.dtd">
<svg version="1.1" id="Layer_1" xmlns="http://www.w3.org/2000/svg" xmlns:xlink="http://www.w3.org/1999/xlink" x="0px" y="0px"
	 width="851px" height="315px" viewBox="0 0 851 315" enable-background="new 0 0 851 315" xml:space="preserve">
<path fill="#010101" d="M431.648,57.473c0.002,0.001,0.006,0.003,0.01,0.005l70.372,38.514c0.331,0.183,0.719,0.22,1.08,0.106
	c0.361-0.116,0.656-0.375,0.819-0.715l17.479-24.572c0.319-0.656,0.067-1.452-0.569-1.806c-0.001-0.001-0.006-0.003-0.008-0.005
	L444.99,27.395c-0.652-0.357-1.469-0.132-1.85,0.508l-12.006,27.66c-0.189,0.321-0.242,0.71-0.143,1.068
	C431.086,56.991,431.323,57.291,431.648,57.473L431.648,57.473z"/>
<path fill="#010101" d="M378.831,114.749l-14.087,122.726c-0.034,0.358,0.062,0.717,0.28,1.001c0.095,0.118,1.201,1.938,4.508,5.079
	c0.28,0.269,0.723,0.322,1.112,0.24c0.39-0.084,0.721-0.332,0.915-0.68l44.764-80.591c0.336-0.604,0.078-1.264-0.385-1.779
	c-1.836-2.027-2.281-3.076-3.223-5.479c-1.364-3.464-1.297-7.249,0.188-10.666c1.481-3.412,4.205-6.042,7.673-7.404
	c3.898-1.534,8.229-1.245,11.892,0.797c2.802,1.562,4.999,4.07,6.176,7.062c2.816,7.146-0.711,15.255-7.856,18.072
	c-3.01,1.19-5.432,1.799-8.499,0.797c-0.632-0.208-1.313,0.064-1.636,0.643l-44.918,80.875c-0.186,0.333-0.226,0.726-0.108,1.089
	c0.118,0.365,0.376,0.677,0.721,0.825c1.727,0.829,2.542,0.896,4.238,1.22c0.386,0.074,0.787-0.023,1.101-0.261l99.73-76.571
	c0.335-0.258,0.537-0.656,0.54-1.081c0.004-0.521-2.67-20.733,10.326-70.073c0.193-0.73,0.118-1.497-0.54-1.864
	c-0.002-0.001-0.004-0.002-0.009-0.005L436.51,68.427c-0.551-0.301-1.238-0.19-1.666,0.267c-0.237,0.255-24.088,25.45-55.375,45.046
	C379.115,113.961,378.879,114.337,378.831,114.749L378.831,114.749z"/>
<text transform="matrix(0.9998 0.0182 -0.0182 0.9998 578.5586 275.9707)" fill="#010101" font-family="'HelveticaNeue-Bold'" font-size="12.6">Created by WARPAINT Media Inc.</text>
<text transform="matrix(0.9998 0.0182 -0.0182 0.9998 578.3291 288.5684)" fill="#010101" font-family="'HelveticaNeue-Bold'" font-size="12.6">from the Noun Project</text>
<g>
	<path fill="none" stroke="#000000" stroke-width="4" stroke-miterlimit="10" stroke-dasharray="3.9758,3.9758" d="M243.21,135.188
		c9.334-14.632,80.68-22.967,96.554-12.917c26.42,16.734,26.012,52.71,49.463,74.338c44.07,40.634,36.155,89.539-13.111,89.769
		c-19.277,0.094-54.792,14.431-73.942,12.638c-19.29-1.802-40.752-16.177-56.083-30.533c-15.201-14.237-33.792-50.447-29.587-74.48
		C222.11,161.961,228.879,157.65,243.21,135.188z"/>
</g>
</svg>
