<?xml version="1.0" encoding="utf-8"?>
<!-- Generator: Adobe Illustrator 19.1.0, SVG Export Plug-In . SVG Version: 6.00 Build 0)  -->
<svg version="1.1" id="parallel_x5F_circuit_x5F_5leds"
	 xmlns="http://www.w3.org/2000/svg" xmlns:xlink="http://www.w3.org/1999/xlink" x="0px" y="0px" viewBox="0 0 141.7 240"
	 style="enable-background:new 0 0 141.7 240;" xml:space="preserve">
<style type="text/css">
	.st0{fill:none;stroke:#010101;stroke-width:1.4173;stroke-miterlimit:10;}
	.st1{fill:#F89521;stroke:#F89521;stroke-miterlimit:10;}
	.st2{fill:#D1D3D4;}
</style>
<path id="trace_10_" class="st0" d="M34,77.3h39.1"/>
<line id="trace_8_" class="st0" x1="72.8" y1="50.5" x2="111.9" y2="50.5"/>
<path id="trace_7_" class="st0" d="M34,114h39.1"/>
<line id="trace_6_" class="st0" x1="72.8" y1="87.3" x2="111.9" y2="87.3"/>
<path id="trace_5_" class="st0" d="M34,150.8h39.1"/>
<line id="trace_4_" class="st0" x1="72.8" y1="124" x2="111.9" y2="124"/>
<path id="trace_3_" class="st0" d="M34,187.5h39.1"/>
<line id="trace_2_" class="st0" x1="72.8" y1="160.8" x2="111.9" y2="160.8"/>
<path id="trace_1_" class="st0" d="M34,224.3h39.1"/>
<line id="trace" class="st0" x1="72.8" y1="197.5" x2="111.9" y2="197.5"/>
<polyline id="trace_9_" class="st0" points="34,224.3 34,27.3 111.6,27.3 111.9,197.5 "/>
<path id="led_x5F_4" class="st1" d="M73.1,196.7c0,0-22.9,22-15.1,26.2c6.7,3.5,24.9,3.1,30.3,0C93.8,219.1,73.1,196.7,73.1,196.7z"
	/>
<path id="led_x5F_3" class="st1" d="M73.1,160c0,0-22.9,22-15.1,26.2c6.7,3.5,24.9,3.1,30.3,0C93.8,182.4,73.1,160,73.1,160z"/>
<path id="led_x5F_2" class="st1" d="M73.1,123.2c0,0-22.9,22-15.1,26.2c6.7,3.5,24.9,3.1,30.3,0C93.8,145.6,73.1,123.2,73.1,123.2z"
	/>
<path id="led_x5F_1" class="st1" d="M73.1,86.5c0,0-22.9,22-15.1,26.2c6.7,3.5,24.9,3.1,30.3,0C93.8,108.9,73.1,86.5,73.1,86.5z"/>
<path id="led_x5F_0" class="st1" d="M73.1,49.7c0,0-22.9,22-15.1,26.2c6.7,3.5,24.9,3.1,30.3,0C93.8,72.1,73.1,49.7,73.1,49.7z"/>
<circle id="battery" class="st2" cx="72.8" cy="27.3" r="17.7"/>
</svg>
