<?xml version="1.0" encoding="UTF-8"?>
<svg fill="#FFFFFF" width="100pt" height="100pt" version="1.1" viewBox="0 0 100 100" xmlns="http://www.w3.org/2000/svg">
 <g>
  <path d="m78.543 20.539c0 7.0977-5.7539 12.855-12.855 12.855s-12.855-5.7578-12.855-12.855c0-7.1016 5.7539-12.855 12.855-12.855s12.855 5.7539 12.855 12.855"/>
  <path d="m46.887 20.539c0 7.1016-5.7578 12.855-12.859 12.855-7.1016 0-12.855-5.7539-12.855-12.855 0-7.1016 5.7539-12.859 12.855-12.859 7.1016 0 12.859 5.7578 12.859 12.859"/>
  <path d="m78.543 78.145c0 7.0977-5.7539 12.855-12.855 12.855s-12.855-5.7578-12.855-12.855c0-7.1016 5.7539-12.859 12.855-12.859s12.855 5.7578 12.855 12.859"/>
  <path d="m46.887 78.145c0 7.1016-5.7578 12.855-12.859 12.855-7.1016 0-12.855-5.7539-12.855-12.855 0-7.1016 5.7539-12.859 12.855-12.859 7.1016 0 12.859 5.7578 12.859 12.859"/>
  <path d="m82.141 38.453c5.9883 0 10.859 4.8711 10.859 10.855 0 5.9883-4.8711 10.859-10.859 10.859s-10.859-4.8711-10.859-10.859c0-5.9844 4.8711-10.855 10.859-10.855m0-2c-7.1016 0-12.859 5.7539-12.859 12.855 0 7.0977 5.7578 12.859 12.859 12.859s12.859-5.7617 12.859-12.859c0-7.1016-5.7578-12.855-12.859-12.855z"/>
  <path d="m49.996 38.453c5.9844 0 10.855 4.8711 10.855 10.855 0 5.9883-4.8711 10.859-10.855 10.859s-10.855-4.8711-10.855-10.859c0.003906-5.9844 4.8711-10.855 10.855-10.855m0-2c-7.0977 0-12.855 5.7539-12.855 12.855 0 7.0977 5.7578 12.859 12.855 12.859 7.1055 0 12.855-5.7617 12.855-12.859 0.003907-7.1016-5.7461-12.855-12.855-12.855z"/>
  <path d="m17.855 38.453c5.9883 0 10.859 4.8711 10.859 10.855 0 5.9883-4.8711 10.859-10.859 10.859-5.9844 0-10.855-4.8711-10.855-10.855 0-5.9883 4.8711-10.859 10.855-10.859m0-2c-7.1016 0-12.855 5.7539-12.855 12.859 0 7.0977 5.7539 12.859 12.855 12.859 7.1016 0 12.859-5.7617 12.859-12.859 0-7.1055-5.7578-12.859-12.859-12.859z"/>
 </g>
</svg>
