<?xml version="1.0" encoding="UTF-8"?>
<svg fill="#FFFFFF" width="100pt" height="100pt" version="1.1" viewBox="0 0 100 100" xmlns="http://www.w3.org/2000/svg">
 <g>
  <path d="m2.3672 78.824c-0.54297 0-1.0508-0.1875-1.4844-0.50781-0.46875-0.39844-0.79297-0.97656-0.86719-1.5938-0.070312-0.65234 0.10938-1.2266 0.50781-1.7383 0.79687-0.9375 2.3516-1.1172 3.332-0.35938 0.46875 0.39844 0.79297 0.97656 0.83203 1.5938 0.074219 0.61719-0.10938 1.2305-0.46875 1.7383-0.47656 0.53906-1.125 0.86719-1.8516 0.86719zm4.5273-5.6484c-0.50781 0-1.0508-0.17969-1.4492-0.50781-1.0117-0.83594-1.1953-2.3203-0.35937-3.332 0.79687-0.97656 2.3164-1.1172 3.2969-0.36328 1.0117 0.83594 1.1562 2.3203 0.36328 3.332-0.47656 0.54297-1.1289 0.87109-1.8516 0.87109zm4.5625-5.6484c-0.54297 0-1.0859-0.17969-1.4844-0.51172-0.50781-0.39844-0.79688-0.94141-0.86719-1.5898-0.070313-0.61719 0.10938-1.2305 0.50781-1.7383 0.79688-0.94141 2.3164-1.1211 3.293-0.36328 1.0156 0.83203 1.1953 2.3164 0.35938 3.332-0.43359 0.54688-1.1211 0.87109-1.8086 0.87109zm4.5234-5.6484c-0.54688 0-1.0508-0.17969-1.4844-0.50781-1.0117-0.83203-1.1562-2.2812-0.36328-3.293 0.79688-0.97656 2.3555-1.1602 3.332-0.35938 1.0156 0.82812 1.1602 2.3164 0.36328 3.2969-0.47266 0.57031-1.125 0.86328-1.8477 0.86328z"/>
  <path d="m18.586 83.816c-0.32422 0-0.65234-0.070312-0.94141-0.17969-1.1602-0.51172-1.7344-1.9219-1.2305-3.082 0.50781-1.1914 1.957-1.7305 3.1172-1.2578 0.57812 0.24609 1.0156 0.72266 1.2305 1.3008 0.25391 0.58203 0.21484 1.2305 0 1.8086-0.40234 0.87109-1.2305 1.4102-2.1758 1.4102zm2.8633-6.6562c-0.32422 0-0.65234-0.074218-0.94141-0.1875-1.1953-0.50781-1.7344-1.8789-1.2305-3.0742 0.50781-1.1602 1.918-1.7422 3.0781-1.2305 0.57812 0.21484 1.0508 0.6875 1.2695 1.2656 0.25391 0.58203 0.21484 1.2305-0.039062 1.8125-0.36328 0.86719-1.1953 1.4141-2.1367 1.4141zm2.8594-6.668c-0.32422 0-0.65234-0.039063-0.94141-0.17969-0.57813-0.25391-1.0156-0.6875-1.2695-1.3008-0.21484-0.58203-0.21484-1.1992 0.035156-1.7773 0.46875-1.1602 1.918-1.7383 3.0781-1.2305 1.1953 0.50781 1.7383 1.8828 1.2305 3.0781-0.35938 0.87109-1.1875 1.4102-2.1328 1.4102zm2.8242-6.625c-0.28906 0-0.61328-0.070313-0.90625-0.21484-0.57812-0.25391-1.0469-0.69141-1.2656-1.2656-0.21484-0.57812-0.21484-1.2344 0.039062-1.8086 0.46875-1.1602 1.918-1.7383 3.0781-1.2344 1.1953 0.50781 1.7383 1.8828 1.2305 3.0781-0.36719 0.87109-1.2344 1.4453-2.1758 1.4453z"/>
  <path d="m27.746 100c-0.21484 0-0.46875-0.035156-0.6875-0.10938-0.61719-0.17969-1.1211-0.58203-1.4102-1.1602-0.28906-0.54297-0.32813-1.1953-0.14453-1.7734 0.36328-1.1992 1.6992-1.9219 2.9336-1.5586 0.57812 0.18359 1.0859 0.57812 1.375 1.1562 0.28906 0.54687 0.36328 1.1953 0.17969 1.7773-0.28906 0.98047-1.2305 1.668-2.2461 1.668zm2.0977-6.9141c-0.21484 0-0.43359-0.035157-0.65234-0.10938-1.2695-0.39453-1.957-1.6953-1.5938-2.9297 0.39844-1.2305 1.6992-1.9531 2.9336-1.5547 1.2305 0.35937 1.9531 1.6953 1.5547 2.9297-0.28516 0.97656-1.1875 1.6641-2.2422 1.6641zm2.1406-6.918c-0.25391 0-0.46875-0.035157-0.6875-0.10547-0.61328-0.18359-1.1211-0.61328-1.4141-1.1602-0.28906-0.58203-0.36328-1.1953-0.17969-1.8086 0.39844-1.1953 1.6992-1.918 2.9336-1.5547 1.2695 0.39453 1.9531 1.6992 1.5938 2.9297-0.32812 1.0156-1.2344 1.6992-2.2461 1.6992zm2.0977-6.9492c-0.21484 0-0.47266-0.039062-0.6875-0.10547-1.2305-0.36719-1.9531-1.7031-1.5586-2.9375 0.36328-1.2266 1.6992-1.9531 2.9336-1.5547 1.2305 0.39844 1.9531 1.7031 1.5547 2.9336-0.28516 1.0156-1.1875 1.6641-2.2422 1.6641zm2.1016-6.9141c-0.21484 0-0.43359-0.035157-0.65234-0.10547-0.61328-0.18359-1.1211-0.57812-1.4102-1.1602-0.29297-0.54297-0.36328-1.1992-0.17969-1.7773 0.36328-1.1953 1.7383-1.918 2.9336-1.5547 0.61328 0.17969 1.1211 0.57812 1.4102 1.1602 0.28906 0.54297 0.36328 1.1953 0.14453 1.7734-0.29297 0.97656-1.1992 1.6641-2.2461 1.6641z"/>
  <path d="m50.051 86.023c-0.074219 0-0.43359-0.035157-0.50781-0.035157-0.61719-0.10938-1.1211-0.46875-1.4844-1.0156-0.32422-0.50781-0.46875-1.1562-0.32422-1.7734 0.21484-1.0898 1.1914-1.8867 2.3164-1.8867 0.035157 0 0.39844 0.035156 0.47266 0.074219 1.2656 0.25 2.0625 1.4805 1.8125 2.7539-0.22266 1.125-1.1992 1.8828-2.2852 1.8828zm1.4453-7.0547c-0.074219 0-0.39844-0.039062-0.47266-0.039062-1.3047-0.29297-2.1016-1.5586-1.8438-2.8242 0.21484-1.0898 1.1953-1.8477 2.3164-1.8477 0.035156 0 0.39844 0.039063 0.46875 0.039063 1.2695 0.25391 2.0977 1.4805 1.8438 2.7539-0.25 1.1172-1.2266 1.918-2.3125 1.918zm1.4492-7.0977c-0.074218 0-0.40234-0.039063-0.46875-0.039063-1.2656-0.28906-2.1016-1.5195-1.8477-2.7852 0.25391-1.1211 1.1953-1.8828 2.3164-1.8828 0.070313 0 0.39844 0.039063 0.46875 0.039063 1.2695 0.25391 2.0977 1.5234 1.8438 2.7852-0.25 1.082-1.1914 1.8828-2.3125 1.8828zm1.4492-7.0977c-0.042969 0-0.39844-0.035157-0.47266-0.070313-1.2695-0.25781-2.1016-1.5195-1.8086-2.7539 0.21875-1.0859 1.1562-1.8828 2.2812-1.8828 0.070313 0 0.43359 0.039063 0.46484 0.039063 0.61719 0.14062 1.1602 0.50781 1.5234 1.0156 0.32813 0.54297 0.43359 1.1562 0.32813 1.7773-0.21875 1.0781-1.1953 1.875-2.3164 1.875zm1.4453-7.0977c-0.070313 0-0.39844-0.035156-0.46875-0.035156-0.61719-0.14453-1.1211-0.50781-1.4844-1.0508-0.32812-0.50781-0.46875-1.1172-0.32812-1.7344 0.21875-1.0859 1.1953-1.8867 2.2812-1.8867 0.070312 0 0.4375 0.039062 0.46875 0.039062 1.2695 0.28906 2.0977 1.5234 1.8477 2.7891-0.21484 1.0859-1.1914 1.8789-2.3164 1.8789zm1.4844-7.0938c-0.070313 0-0.43359-0.039062-0.50781-0.039062-1.2266-0.28906-2.0625-1.5195-1.8086-2.7852 0.21484-1.0898 1.1992-1.8867 2.3164-1.8867 0.070312 0 0.39844 0.039062 0.46875 0.039062 0.61328 0.14453 1.1211 0.50781 1.4844 1.0117 0.36328 0.54297 0.47266 1.1602 0.32422 1.7773-0.21484 1.0859-1.1914 1.8828-2.2773 1.8828z"/>
  <path d="m67.461 75.816c-1.1992 0-2.1719-0.86719-2.3164-2.0625-0.14453-1.3086 0.76172-2.4609 2.0273-2.6094 1.5234 0.042969 2.5 0.86719 2.6445 2.0273 0.14453 1.3047-0.76172 2.4609-2.0625 2.6445zm-0.82813-7.1641c-1.1992 0-2.2109-0.90625-2.3516-2.1016-0.14844-1.2656 0.79688-2.457 2.0625-2.6055 1.5938 0.039063 2.4609 0.86719 2.6055 2.0664 0.074219 0.61328-0.10938 1.2305-0.46875 1.7344-0.40234 0.47266-0.94141 0.79297-1.5938 0.86719zm-0.87109-7.207c-1.1953 0-2.2109-0.90625-2.3555-2.0625-0.14453-1.3047 0.79688-2.4648 2.0625-2.6445 1.5547 0 2.4961 0.90625 2.6445 2.0625 0.14453 1.3047-0.80078 2.4609-2.0625 2.6445z"/>
  <path d="m28.457 17.273c-1.9414 0.46875-3.1367 2.4258-2.6641 4.3711 0.40234 1.6562 1.8828 2.7695 3.5156 2.7695 0.28516 0 0.57031-0.035156 0.85547-0.10547l3.1797-0.76953-15.297 9.9531c-1.7578 1.1445-2.2578 3.5-1.1094 5.2578 0.72656 1.1172 1.9453 1.7266 3.1875 1.7266 0.71094 0 1.4297-0.19922 2.0703-0.61328l16.344-10.637-17.699 18.742c-1.5781 1.668-1.5039 4.3086 0.16797 5.8828 0.80469 0.76172 1.832 1.1367 2.8555 1.1367 1.1055 0 2.207-0.4375 3.0273-1.3086l12.906-13.668 5.9102-14.797c0.29688-0.74219 1.1367-1.1055 1.8828-0.80469 0.74219 0.29688 1.1055 1.1406 0.80859 1.8828l-12.801 32.109c-0.84375 2.1094 0.17969 4.5078 2.293 5.3516 0.50391 0.20312 1.0195 0.29688 1.5312 0.29688 1.6328 0 3.1797-0.98047 3.8242-2.5898l9.9258-24.789c0.80859-2.0195 2.3555-3.5898 4.3594-4.4297 1.9727-0.83203 4.1562-0.83203 6.1406-0.023438 1.8945 0.77734 3.3906 2.2109 4.2383 4.0547l3.4062 14.055c0.53906 2.2109 2.7656 3.5586 4.9727 3.0312 2.207-0.53516 3.5664-2.7656 3.0312-4.9688l-1.2578-5.1875 5.4492-18.203 16.113-3.8789 0.046875-21.121z"/>
 </g>
</svg>
