<?xml version="1.0" encoding="utf-8"?>
<!-- Generator: Adobe Illustrator 19.2.1, SVG Export Plug-In . SVG Version: 6.00 Build 0)  -->
<svg version="1.1" id="AR_Snippet_UI" xmlns="http://www.w3.org/2000/svg" xmlns:xlink="http://www.w3.org/1999/xlink" x="0px"
	 y="0px" viewBox="0 0 900 165" style="enable-background:new 0 0 900 165;" xml:space="preserve">
<style type="text/css">
	.st0{fill:none;stroke:#FFFFFF;stroke-width:3;stroke-miterlimit:10;}
	.st1{fill:#FCE2EA;}
	.st2{font-family:'Avenir-Black';}
	.st3{font-size:41.8423px;}
	.st4{fill:#FFFFFF;}
	.st5{fill:none;stroke:#FFFFFF;stroke-miterlimit:10;}
</style>
<g>
	<g>
		
			<image style="overflow:visible;opacity:0.75;" width="471" height="471" xlink:href="2092E25DEE981182.png"  transform="matrix(0.24 0 0 0.24 21.1692 40.8825)">
		</image>
		<g>
			<path class="st0" d="M108.6,135.3h-62c-3.9,0-7-3.1-7-7v-62c0-3.9,3.1-7,7-7h62c3.9,0,7,3.1,7,7v62
				C115.6,132.2,112.5,135.3,108.6,135.3z"/>
		</g>
	</g>
	<g>
		
			<image style="overflow:visible;opacity:0.75;" width="245" height="371" xlink:href="2092E25DEE981186.png"  transform="matrix(0.24 0 0 0.24 48.4439 59.7326)">
		</image>
		<g>
			<text transform="matrix(1 0 0 1 65.452 112.4729)" class="st1 st2 st3">1</text>
		</g>
	</g>
</g>
<g>
	<g>
		
			<image style="overflow:visible;opacity:0.75;" width="471" height="471" xlink:href="2092E25DEE981181.png"  transform="matrix(0.24 0 0 0.24 111.1692 40.8825)">
		</image>
		<g>
			<path class="st0" d="M198.6,135.3h-62c-3.9,0-7-3.1-7-7v-62c0-3.9,3.1-7,7-7h62c3.9,0,7,3.1,7,7v62
				C205.6,132.2,202.5,135.3,198.6,135.3z"/>
		</g>
	</g>
	<g>
		
			<image style="overflow:visible;opacity:0.75;" width="245" height="371" xlink:href="2092E25DEE981183.png"  transform="matrix(0.24 0 0 0.24 137.1529 59.7326)">
		</image>
		<g>
			<text transform="matrix(1 0 0 1 154.1607 112.4729)" class="st1 st2 st3">2</text>
		</g>
	</g>
</g>
<g>
	<g>
		
			<image style="overflow:visible;opacity:0.75;" width="471" height="471" xlink:href="2092E25DEE981180.png"  transform="matrix(0.24 0 0 0.24 201.1692 40.8825)">
		</image>
		<g>
			<path class="st0" d="M288.6,135.3h-62c-3.9,0-7-3.1-7-7v-62c0-3.9,3.1-7,7-7h62c3.9,0,7,3.1,7,7v62
				C295.6,132.2,292.5,135.3,288.6,135.3z"/>
		</g>
	</g>
	<g>
		
			<image style="overflow:visible;opacity:0.75;" width="245" height="371" xlink:href="2092E25DEE98118E.png"  transform="matrix(0.24 0 0 0.24 229.8194 59.7326)">
		</image>
		<g>
			<text transform="matrix(1 0 0 1 246.8274 112.4729)" class="st1 st2 st3">3</text>
		</g>
	</g>
</g>
<g>
	<g>
		
			<image style="overflow:visible;opacity:0.75;" width="471" height="471" xlink:href="2092E25DEE981185.png"  transform="matrix(0.24 0 0 0.24 291.1693 40.8825)">
		</image>
		<g>
			<path class="st0" d="M378.6,135.3h-62c-3.9,0-7-3.1-7-7v-62c0-3.9,3.1-7,7-7h62c3.9,0,7,3.1,7,7v62
				C385.6,132.2,382.5,135.3,378.6,135.3z"/>
		</g>
	</g>
	<g>
		
			<image style="overflow:visible;opacity:0.75;" width="245" height="371" xlink:href="2092E25DEE981187.png"  transform="matrix(0.24 0 0 0.24 319.3683 59.7326)">
		</image>
		<g>
			<text transform="matrix(1 0 0 1 336.3761 112.4729)" class="st1 st2 st3">4</text>
		</g>
	</g>
</g>
<g>
	<g>
		
			<image style="overflow:visible;opacity:0.75;" width="471" height="471" xlink:href="2092E25DEE981184.png"  transform="matrix(0.24 0 0 0.24 379.7519 40.8825)">
		</image>
		<g>
			<path class="st0" d="M467.2,135.3h-62c-3.9,0-7-3.1-7-7v-62c0-3.9,3.1-7,7-7h62c3.9,0,7,3.1,7,7v62
				C474.2,132.2,471.1,135.3,467.2,135.3z"/>
		</g>
	</g>
	<g>
		
			<image style="overflow:visible;opacity:0.75;" width="245" height="371" xlink:href="B53AB7937BFA8815.png"  transform="matrix(0.24 0 0 0.24 409.1529 59.7326)">
		</image>
		<g>
			<text transform="matrix(1 0 0 1 426.1607 112.4731)" class="st1 st2 st3">5</text>
		</g>
	</g>
</g>
<g>
	<g>
		
			<image style="overflow:visible;opacity:0.75;" width="471" height="471" xlink:href="B53AB7937BFA882B.png"  transform="matrix(0.24 0 0 0.24 469.6102 40.8825)">
		</image>
		<g>
			<path class="st0" d="M557.1,135.3h-62c-3.9,0-7-3.1-7-7v-62c0-3.9,3.1-7,7-7h62c3.9,0,7,3.1,7,7v62
				C564,132.2,560.9,135.3,557.1,135.3z"/>
		</g>
	</g>
	<g>
		
			<image style="overflow:visible;opacity:0.75;" width="245" height="371" xlink:href="B53AB7937BFA882D.png"  transform="matrix(0.24 0 0 0.24 496.4859 59.7326)">
		</image>
		<g>
			<text transform="matrix(1 0 0 1 513.494 112.4731)" class="st1 st2 st3">6</text>
		</g>
	</g>
</g>
<g>
	<g>
		
			<image style="overflow:visible;opacity:0.75;" width="471" height="471" xlink:href="B53AB7937BFA882F.png"  transform="matrix(0.24 0 0 0.24 560.1771 40.8825)">
		</image>
		<g>
			<path class="st0" d="M647.6,135.3h-62c-3.9,0-7-3.1-7-7v-62c0-3.9,3.1-7,7-7h62c3.9,0,7,3.1,7,7v62
				C654.6,132.2,651.5,135.3,647.6,135.3z"/>
		</g>
	</g>
	<g>
		
			<image style="overflow:visible;opacity:0.75;" width="245" height="371" xlink:href="B53AB7937BFA882C.png"  transform="matrix(0.24 0 0 0.24 589.1529 59.7326)">
		</image>
		<g>
			<text transform="matrix(1 0 0 1 606.1607 112.4731)" class="st1 st2 st3">7</text>
		</g>
	</g>
</g>
<g>
	<g>
		
			<image style="overflow:visible;opacity:0.75;" width="471" height="471" xlink:href="B53AB7937BFA8834.png"  transform="matrix(0.24 0 0 0.24 648.9016 41.0242)">
		</image>
		<g>
			<path class="st0" d="M736.4,135.5h-62c-3.9,0-7-3.1-7-7v-62c0-3.9,3.1-7,7-7h62c3.9,0,7,3.1,7,7v62
				C743.3,132.3,740.2,135.5,736.4,135.5z"/>
		</g>
	</g>
	<g>
		
			<image style="overflow:visible;opacity:0.75;" width="245" height="371" xlink:href="B53AB7937BFA8835.png"  transform="matrix(0.24 0 0 0.24 675.7359 59.7326)">
		</image>
		<g>
			<text transform="matrix(1 0 0 1 692.7435 112.4731)" class="st1 st2 st3">8</text>
		</g>
	</g>
</g>
<g>
	<circle class="st4" cx="77.9" cy="24.1" r="3"/>
	<line class="st5" x1="41.4" y1="24.1" x2="114.3" y2="24.1"/>
</g>
<g>
	<circle class="st4" cx="48.7" cy="40.7" r="6"/>
	<circle class="st5" cx="63.6" cy="40.7" r="6"/>
	<circle class="st5" cx="77.6" cy="40.7" r="6"/>
	<circle class="st5" cx="91.7" cy="40.7" r="6"/>
	<circle class="st5" cx="105.7" cy="40.7" r="6"/>
</g>
<g id="full">
	
		<image style="overflow:visible;opacity:0.75;" width="270" height="270" xlink:href="B53AB7937BFA8837.png"  transform="matrix(0.24 0 0 0.24 771.2549 89.3506)">
	</image>
	<g>
		<path class="st0" d="M814.8,135.5h-22.5c-1.4,0-2.5-1.1-2.5-2.5v-22.5c0-1.4,1.1-2.5,2.5-2.5h22.5c1.4,0,2.5,1.1,2.5,2.5v22.5
			C817.4,134.3,816.2,135.5,814.8,135.5z"/>
	</g>
</g>
<g id="_x32_-side">
	<g>
		
			<image style="overflow:visible;opacity:0.75;" width="270" height="270" xlink:href="B53AB7937BFA8833.png"  transform="matrix(0.24 0 0 0.24 771.2549 45.8961)">
		</image>
		<g>
			<path class="st0" d="M814.8,92h-22.5c-1.4,0-2.5-1.1-2.5-2.5V66.9c0-1.4,1.1-2.5,2.5-2.5h22.5c1.4,0,2.5,1.1,2.5,2.5v22.5
				C817.4,90.9,816.2,92,814.8,92z"/>
		</g>
	</g>
	<line class="st0" x1="803.6" y1="64.4" x2="803.6" y2="92"/>
</g>
<g id="_x32_-up">
	<g>
		
			<image style="overflow:visible;opacity:0.75;" width="270" height="270" xlink:href="B53AB7937BFA883B.png"  transform="matrix(0.24 0 0 0.24 825.1036 45.8961)">
		</image>
		<g>
			<path class="st0" d="M868.7,92h-22.5c-1.4,0-2.5-1.1-2.5-2.5V66.9c0-1.4,1.1-2.5,2.5-2.5h22.5c1.4,0,2.5,1.1,2.5,2.5v22.5
				C871.2,90.9,870.1,92,868.7,92z"/>
		</g>
	</g>
	<line class="st0" x1="843.6" y1="78.2" x2="871.2" y2="78.2"/>
</g>
<g id="_x34_-up">
	<g>
		
			<image style="overflow:visible;opacity:0.75;" width="270" height="270" xlink:href="B53AB7937BFA8850.png"  transform="matrix(0.24 0 0 0.24 825.1036 89.3506)">
		</image>
		<g>
			<path class="st0" d="M868.7,135.5h-22.5c-1.4,0-2.5-1.1-2.5-2.5v-22.5c0-1.4,1.1-2.5,2.5-2.5h22.5c1.4,0,2.5,1.1,2.5,2.5v22.5
				C871.2,134.3,870.1,135.5,868.7,135.5z"/>
		</g>
	</g>
	<line class="st0" x1="857.2" y1="108.4" x2="857.2" y2="137.2"/>
	<line class="st0" x1="844.6" y1="121.7" x2="871.2" y2="121.7"/>
</g>
</svg>
