<?xml version="1.0" encoding="utf-8"?>
<!-- Generator: Adobe Illustrator 19.2.1, SVG Export Plug-In . SVG Version: 6.00 Build 0)  -->
<svg version="1.1" id="Layer_1" xmlns="http://www.w3.org/2000/svg" xmlns:xlink="http://www.w3.org/1999/xlink" x="0px" y="0px"
	 viewBox="0 0 217.9 407.8" style="enable-background:new 0 0 217.9 407.8;" xml:space="preserve">
<style type="text/css">
	.st0{fill:#B63792;stroke:#000000;stroke-miterlimit:10;}
	.st1{fill:#32A8D0;stroke:#000000;stroke-miterlimit:10;}
	.st2{fill:#57B847;stroke:#000000;stroke-miterlimit:10;}
</style>
<path class="st0" d="M175.3,307c-7.9,13-16.3,12.4-24.7,27.3c-5.2,9.3-2.1,9.7-7.3,20c-9.7,18.9-23.1,22.9-22,32.7
	c0.7,6.7,7.7,11,9.3,12c4.1,2.5,9.2,3.9,14.9,4.2c-20.5,6.3-39.1,4.7-49.6,3.8c-2.9-0.2-9.5-0.8-18-2.4c4-2.1,7.1-5,8.6-8.3
	c1-2.2,2.5-7-4.7-23.3c-11.4-25.9-23.9-33.9-38.7-58c-10.5-17.1-18.3-36-15.3-38c4.9-3.4,34.2,44.4,52,38.7c4.6-1.5,5-7,14-41.3
	c5.5-21.1,7.8-28.5,9.6-30.9c0.6-0.8,1.1-1,1.8-1.1c1.1-0.1,2.3,0.5,3.7,1.7c6.9,6.1,16.2,27.5,17.7,49.6c0.6,9.5-0.4,16.1,3.3,18
	c6.3,3.3,20.2-9.6,31.3-20c12.8-12,16.7-18.5,19.3-17.3C184.4,276.1,183.7,293.3,175.3,307z"/>
<path class="st1" d="M217.9,321.7c-7,30.2-26.5,58.2-53.3,73.3c-6.4,3.6-12.8,6.3-19.1,8.2c-5.7-0.3-10.8-1.6-14.9-4.2
	c-1.7-1-8.6-5.3-9.3-12c-1.1-9.8,12.3-13.8,22-32.7c5.3-10.3,2.1-10.7,7.3-20c8.3-14.9,16.7-14.4,24.7-27.3
	c8.4-13.7,9.2-30.9,5.3-32.7c-2.6-1.2-6.5,5.4-19.3,17.3c-11.1,10.4-25,23.3-31.3,20c-3.8-1.9-2.7-8.5-3.3-18
	c-1.4-22.1-10.7-43.6-17.7-49.6c-1.3-1.2-2.6-1.8-3.7-1.7c-0.6,0-1.2,0.3-1.8,1.1c-1.8,2.4-4.1,9.8-9.6,30.9
	c-9,34.3-9.4,39.8-14,41.3c-17.8,5.8-47.1-42-52-38.7c-3,2,4.9,20.9,15.3,38c14.8,24.1,27.3,32.1,38.7,58
	c7.2,16.3,5.7,21.1,4.7,23.3c-1.6,3.3-4.6,6.2-8.6,8.3c-16.7-3.1-40.8-10-59.6-26.2c-2.1-9.5-3.4-21.7-5.1-37.4
	c-2.6-24.2-3.8-36.3,1.3-51.3c8.7-25.5,28.4-39.2,35.3-44c14.4-9.8,29.5-14.4,42.9-16.2c11.1-1.5,21.1-1.1,28.7-0.2
	c6.8,0.8,11.7,1.9,13.7,2.4c11.5,2.9,39,11.7,59.3,38C203.8,281.6,214.5,301,217.9,321.7z"/>
<path class="st2" d="M142.6,148.3c-14.6,30.4-32.3,43.8-28,64.7c1.5,7,4.8,12.1,6.9,16.2c-7.6-0.9-17.6-1.3-28.7,0.2
	c0.2-3.6,1-7.9,1.1-13.1c0.3-17.9-7.3-29.4-12.7-41.3c-9.1-20.1-11-41-14.7-82.7c-4.9-55.2,14-88.9,14-88.9l42-3.5
	c0,0,36.4,88.2,36,92.3C156.2,118.6,146,141.2,142.6,148.3z"/>
</svg>
