<?xml version="1.0" encoding="utf-8"?>
<!-- Generator: Adobe Illustrator 16.0.0, SVG Export Plug-In . SVG Version: 6.00 Build 0)  -->
<!DOCTYPE svg PUBLIC "-//W3C//DTD SVG 1.1//EN" "http://www.w3.org/Graphics/SVG/1.1/DTD/svg11.dtd">
<svg version="1.1" id="Layer_1" xmlns="http://www.w3.org/2000/svg" xmlns:xlink="http://www.w3.org/1999/xlink" x="0px" y="0px"
	 width="851px" height="315px" viewBox="0 0 851 315" enable-background="new 0 0 851 315" xml:space="preserve">
<g>
	<path fill="none" stroke="#FFFFFF" stroke-width="4" stroke-miterlimit="10" stroke-dasharray="3.9662,3.9662" d="M155.934,149.841
		c6.616-10.372,57.189-16.28,68.441-9.156c18.728,11.862,18.439,37.363,35.062,52.694c31.24,28.803,25.628,63.469-9.293,63.632
		c-13.665,0.066-38.839,10.229-52.414,8.958c-13.673-1.277-28.887-11.467-39.754-21.644c-10.775-10.092-23.954-35.759-20.973-52.795
		C140.977,168.818,145.775,165.763,155.934,149.841z"/>
</g>
<g>
	<polygon points="511.737,381.855 545.046,388.705 578.354,395.552 552.058,417.676 533.185,446.396 522.461,414.125 	"/>
	
		<rect x="549.709" y="374.552" transform="matrix(0.6642 -0.7475 0.7475 0.6642 -128.1654 557.1118)" width="12.666" height="93.331"/>
</g>
<line fill="none" x1="183.333" y1="43.333" x2="178.667" y2="161.333"/>
<line fill="none" x1="183.333" y1="43.333" x2="183.333" y2="144.667"/>
<polygon fill="#FFFFFF" points="238.333,194.334 248.054,85.667 254.999,193.667 "/>
<path fill="#FFFFFF" d="M232.666,201.334c4-8.667,24-6.667,26.667,0S249.038,249.051,248,238.667
	C246,218.667,228.666,210.001,232.666,201.334z"/>
</svg>
