<svg xmlns="http://www.w3.org/2000/svg" xmlns:xlink="http://www.w3.org/1999/xlink" version="1.1" x="0px" y="0px" viewBox="0 0 50 62.5" enable-background="new 0 0 50 50" xml:space="preserve"><g><g><rect x="9.786" y="39.87" fill-rule="evenodd" clip-rule="evenodd" fill="#000000" width="14.614" height="3.389"/><rect x="10.893" y="44.396" fill-rule="evenodd" clip-rule="evenodd" fill="#000000" width="12.401" height="4.377"/><path fill="#000000" d="M17.646,3.79v13.254c1.926,0.27,3.411,1.908,3.411,3.908c0,2.189-1.773,3.965-3.966,3.965    c-2.189,0-3.964-1.775-3.964-3.965c0-2,1.488-3.639,3.413-3.908V3.88L7.083,22.003c0,0,5.135,12.049,4.165,16.637    c0.49,0.084,11.55,0.037,11.961-0.029c-1.249-3.512,3.895-16.846,3.895-16.846L17.646,3.79z"/><path fill="#000000" d="M18.64,2.772c0,0.855-0.693,1.547-1.549,1.547c-0.853,0-1.543-0.691-1.543-1.547    c0-0.854,0.69-1.545,1.543-1.545C17.947,1.228,18.64,1.919,18.64,2.772z"/></g><g><rect x="28.543" y="8.243" fill="#000000" width="14.375" height="2.578"/></g></g><text x="0" y="65" fill="#000000" font-size="5px" font-weight="bold" font-family="'Helvetica Neue', Helvetica, Arial-Unicode, Arial, Sans-serif">Created by Mister Pixel</text><text x="0" y="70" fill="#000000" font-size="5px" font-weight="bold" font-family="'Helvetica Neue', Helvetica, Arial-Unicode, Arial, Sans-serif">from the Noun Project</text></svg>