<svg xmlns="http://www.w3.org/2000/svg" xmlns:xlink="http://www.w3.org/1999/xlink" version="1.1" x="0px" y="0px" viewBox="0 0 100 125" enable-background="new 0 0 100 100" xml:space="preserve"><path d="M74.236,55.917c-0.331-0.33-0.779-0.517-1.247-0.517h-1.511c-1.187-5.614-4.516-10.446-9.099-13.586h5.646  c0.517,0.637,1.296,1.053,2.178,1.053c1.553,0,2.816-1.264,2.816-2.816s-1.264-2.816-2.816-2.816c-0.882,0-1.661,0.416-2.178,1.053  H54.55v-1.021c0-0.468-0.186-0.917-0.517-1.248c-0.331-0.33-0.779-0.517-1.247-0.517h-5.57c-0.974,0-1.764,0.79-1.764,1.764v1.021  H31.66c-0.517-0.637-1.295-1.053-2.178-1.053c-1.553,0-2.815,1.264-2.815,2.816s1.263,2.816,2.815,2.816  c0.883,0,1.661-0.416,2.178-1.053h5.959c-4.583,3.139-7.911,7.972-9.099,13.586h-1.509c-0.975,0-1.764,0.79-1.764,1.764v5.57  c0,0.974,0.789,1.764,1.764,1.764h5.568c0.975,0,1.764-0.79,1.764-1.764l0.001-5.57c0.001-0.468-0.186-0.916-0.517-1.247  c-0.33-0.33-0.779-0.517-1.246-0.517h-0.436c1.659-6.516,6.792-11.643,13.306-13.305v0.74c0,0.974,0.79,1.764,1.764,1.764h5.568  c0.974,0,1.763-0.789,1.764-1.763v-0.738c6.514,1.661,11.646,6.787,13.305,13.302h-0.434c-0.974,0-1.764,0.79-1.764,1.764v5.57  c0,0.974,0.79,1.764,1.764,1.764h5.569c0.974,0,1.764-0.79,1.764-1.764l0.001-5.57C74.753,56.696,74.567,56.248,74.236,55.917z   M30.817,60.971h-2.043v-2.043h2.044L30.817,60.971z M51.021,41.072h-2.042v-2.043h2.043L51.021,41.072z M71.226,60.971h-2.043  v-2.043h2.043V60.971z"/><text x="0" y="115" fill="#000000" font-size="5px" font-weight="bold" font-family="'Helvetica Neue', Helvetica, Arial-Unicode, Arial, Sans-serif">Created by Sergey Demushkin</text><text x="0" y="120" fill="#000000" font-size="5px" font-weight="bold" font-family="'Helvetica Neue', Helvetica, Arial-Unicode, Arial, Sans-serif">from the Noun Project</text></svg>