<svg xmlns="http://www.w3.org/2000/svg" xmlns:xlink="http://www.w3.org/1999/xlink" version="1.1" viewBox="0 0 96 120" x="0px" y="0px"><path d="M55.916 30h-16c-1.1 0-2-0.896-2-2v-16c0-1.104 0.9-2 2-2h16c1.1 0 2 0.896 2 2v16c0 1.104-0.9 2-2 2zM41.916 26h12v-12h-12v12z" fill="#000000"/><path d="M13.916 18h24v4h-24v-4z" fill="#000000"/><path d="M57.916 18h24v4h-24v-4z" fill="#000000"/><path d="M84 26c-3.312 0-6-2.692-6-6s2.688-6 6-6c3.304 0 6 2.692 6 6s-2.688 6-6 6zM84 18c-1.1 0-2 0.9-2 2s0.9 2 2 2c1.092 0 2-0.9 2-2s-0.9-2-2-2z" fill="#000000"/><path d="M12 26c-3.312 0-6-2.692-6-6s2.688-6 6-6c3.304 0 6 2.692 6 6s-2.688 6-6 6zM12 18c-1.1 0-2 0.9-2 2s0.9 2 2 2c1.092 0 2-0.9 2-2s-0.9-2-2-2z" fill="#000000"/><path d="M87.252 56.752c-1.1 0-2-0.9-2-2 0-16.236-11.584-30.036-27.532-32.832-1.084-0.188-1.82-1.224-1.624-2.316 0.188-1.092 1.236-1.82 2.312-1.624 17.876 3.132 30.844 18.596 30.844 36.768 0 1.108-0.892 2.004-2 2.004z" fill="#000000"/><path d="M8.576 56.752c-1.104 0-2-0.9-2-2 0-18.172 12.972-33.648 30.848-36.768 1.068-0.2 2.12 0.524 2.312 1.616 0.192 1.088-0.54 2.124-1.624 2.316-15.956 2.796-27.536 16.604-27.536 32.836 0 1.104-0.896 2-2 2z" fill="#000000"/><path d="M60.916 83.252c-0.156 0-0.32-0.024-0.492-0.064-1.072-0.272-1.72-1.36-1.44-2.428l4.776-18.904-15.84-24.208-15.844 24.208 4.78 18.904c0.264 1.080-0.376 2.156-1.444 2.428-1.1 0.272-2.164-0.384-2.428-1.444l-5-19.752c-0.14-0.548-0.044-1.12 0.264-1.584l18-27.5c0.736-1.128 2.608-1.128 3.344 0l18 27.5c0.312 0.464 0.412 1.048 0.264 1.584l-5 19.752c-0.232 0.904-1.044 1.508-1.94 1.508z" fill="#000000"/><path d="M47.916 72c-1.1 0-2-0.9-2-2v-32c0-1.104 0.9-2 2-2s2 0.896 2 2v32c0 1.1-0.9 2-2 2z" fill="#000000"/><path d="M47.916 79.752c-3.308 0-6-2.696-6-6 0-3.312 2.692-6 6-6 3.312 0 6 2.688 6 6 0 3.304-2.688 6-6 6zM47.916 71.752c-1.1 0-2 0.904-2 2 0 1.1 0.9 2 2 2s2-0.9 2-2c0-1.1-0.9-2-2-2z" fill="#000000"/><path d="M65.916 86h-36c-1.1 0-2-0.9-2-2s0.9-2 2-2h36c1.1 0 2 0.9 2 2s-0.9 2-2 2z" fill="#000000"/><text x="0" y="111" fill="#000000" font-size="5px" font-weight="bold" font-family="'Helvetica Neue', Helvetica, Arial-Unicode, Arial, Sans-serif">Created by iconsmind.com</text><text x="0" y="116" fill="#000000" font-size="5px" font-weight="bold" font-family="'Helvetica Neue', Helvetica, Arial-Unicode, Arial, Sans-serif">from the Noun Project</text></svg>