<svg xmlns="http://www.w3.org/2000/svg" xmlns:xlink="http://www.w3.org/1999/xlink" version="1.1" x="0px" y="0px" viewBox="0 0 100 125" enable-background="new 0 0 100 100" xml:space="preserve"><path d="M65.827,81.322c-0.001,0-0.003,0-0.004,0L33.99,81.567c-0.15,0.001-0.292,0.063-0.395,0.172  c-0.103,0.11-0.155,0.257-0.146,0.406l-1.312,11.894c0.016,0.289,0.257,0.516,0.546,0.516c0.001,0,0.003,0,0.004,0l34.326-0.23  c0.295-0.002,0.535-0.238,0.543-0.533l-1.182-11.907c0.004-0.148-0.053-0.293-0.157-0.398C66.115,81.38,65.975,81.322,65.827,81.322  L65.827,81.322z"/><path d="M73.07,51.265L54.244,6.004c-0.057-0.131-0.16-0.237-0.29-0.293c-0.056-0.023-0.791-0.44-2.544-0.89  c-0.149-0.039-0.313,0.028-0.432,0.132c-0.119,0.104-0.186,0.254-0.186,0.412l0.053,36.583c0,0.274,0.217,0.453,0.477,0.542  c1.028,0.348,1.385,0.626,2.176,1.277c1.142,0.937,1.85,2.262,1.995,3.733c0.146,1.469-0.29,2.907-1.229,4.049  c-1.055,1.285-2.612,2.021-4.276,2.021c-1.273,0-2.519-0.445-3.505-1.255c-2.357-1.933-2.701-5.425-0.768-7.782  c0.813-0.994,1.535-1.673,2.792-1.918c0.259-0.05,0.443-0.276,0.443-0.539L48.896,5.365c0-0.151-0.062-0.295-0.173-0.398  c-0.111-0.104-0.261-0.162-0.409-0.147C47.555,4.866,47.26,5,46.609,5.216c-0.148,0.049-0.268,0.16-0.331,0.303L26.501,51.327  c-0.066,0.154-0.059,0.331,0.022,0.479c0.099,0.181,4.931,6.671,9.958,26.284c0.074,0.291,0.248,0.542,0.547,0.542  c0.001,0,0.002,0,0.004,0l24.994-0.168c0.249-0.002,0.466-0.173,0.526-0.414c0.033-0.134,3.433-13.475,10.492-26.312  C73.124,51.593,73.133,51.417,73.07,51.265L73.07,51.265z"/><text x="0" y="115" fill="#000000" font-size="5px" font-weight="bold" font-family="'Helvetica Neue', Helvetica, Arial-Unicode, Arial, Sans-serif">Created by WARPAINT Media Inc.</text><text x="0" y="120" fill="#000000" font-size="5px" font-weight="bold" font-family="'Helvetica Neue', Helvetica, Arial-Unicode, Arial, Sans-serif">from the Noun Project</text></svg>