<svg xmlns="http://www.w3.org/2000/svg" xmlns:xlink="http://www.w3.org/1999/xlink" version="1.1" x="0px" y="0px" viewBox="0 0 100 125" enable-background="new 0 0 100 100" xml:space="preserve"><polygon fill="none" points="71.75,25.5 54.25,25.5 54.25,28.25 45.75,28.25 45.75,25.5 28.25,25.5 28.25,28.25 25.5,28.25   25.5,45.75 28.25,45.75 28.25,54.25 25.5,54.25 25.5,71.75 28.25,71.75 28.25,74.5 47,74.5 47,71.75 55.5,71.75 55.5,74.5   71.75,74.5 71.75,71.75 74.5,71.75 74.5,54.25 71.75,54.25 71.75,45.75 74.5,45.75 74.5,28.25 71.75,28.25 "/><rect x="22.5" y="54.25" width="3" height="17.5"/><rect x="55.5" y="74.5" width="16.25" height="3"/><rect x="22.5" y="28.25" width="3" height="17.5"/><rect x="54.25" y="22.5" width="17.5" height="3"/><rect x="28.25" y="74.5" width="18.75" height="3"/><rect x="28.25" y="22.5" width="17.5" height="3"/><rect x="74.5" y="28.25" width="3" height="17.5"/><rect x="74.5" y="54.25" width="3" height="17.5"/><path d="M19.75,19.75v8.5h2.75h3h2.75V25.5v-3v-2.75H19.75z M26.25,22.5v3v0.75H25.5h-3h-0.75v-4.5h4.5V22.5z"/><path d="M25.5,45.75h-3h-2.75v8.5h2.75h3h2.75v-8.5H25.5z M26.25,52.25H25.5h-3h-0.75v-4.5h0.75h3h0.75V52.25z"/><path d="M77.5,45.75h-3h-2.75v8.5h2.75h3h2.75v-8.5H77.5z M78.25,52.25H77.5h-3h-0.75v-4.5h0.75h3h0.75V52.25z"/><path d="M77.5,71.75h-3h-2.75v2.75v3v2.75h8.5v-8.5H77.5z M78.25,78.25h-4.5V77.5v-3v-0.75h0.75h3h0.75V78.25z"/><path d="M71.75,19.75v2.75v3v2.75h2.75h3h2.75v-8.5H71.75z M78.25,26.25H77.5h-3h-0.75V25.5v-3v-0.75h4.5V26.25z"/><path d="M45.75,19.75v2.75v3v2.75h8.5V25.5v-3v-2.75H45.75z M52.25,22.5v3v0.75h-4.5V25.5v-3v-0.75h4.5V22.5z"/><path d="M25.5,71.75h-3h-2.75v8.5h8.5V77.5v-3v-2.75H25.5z M26.25,74.5v3v0.75h-4.5v-4.5h0.75h3h0.75V74.5z"/><path d="M47,71.75v2.75v3v2.75h8.5V77.5v-3v-2.75H47z M53.5,74.5v3v0.75H49V77.5v-3v-0.75h4.5V74.5z"/><text x="0" y="115" fill="#000000" font-size="5px" font-weight="bold" font-family="'Helvetica Neue', Helvetica, Arial-Unicode, Arial, Sans-serif">Created by Giuditta Valentina Gentile</text><text x="0" y="120" fill="#000000" font-size="5px" font-weight="bold" font-family="'Helvetica Neue', Helvetica, Arial-Unicode, Arial, Sans-serif">from the Noun Project</text></svg>