<svg xmlns="http://www.w3.org/2000/svg" xmlns:xlink="http://www.w3.org/1999/xlink" version="1.1" x="0px" y="0px" viewBox="0 0 50 62.5" enable-background="new 0 0 50 50" xml:space="preserve"><g><g><rect x="9.788" y="39.87" fill-rule="evenodd" clip-rule="evenodd" fill="#000000" width="14.613" height="3.389"/><rect x="10.896" y="44.396" fill-rule="evenodd" clip-rule="evenodd" fill="#000000" width="12.401" height="4.377"/><path fill="#000000" d="M17.647,3.79v13.254c1.926,0.27,3.412,1.908,3.412,3.908c0,2.189-1.775,3.965-3.964,3.965    c-2.19,0-3.965-1.775-3.965-3.965c0-2,1.488-3.639,3.414-3.908V3.88L7.082,22.003c0,0,5.141,12.049,4.168,16.637    c0.491,0.084,11.551,0.037,11.959-0.029c-1.249-3.512,3.896-16.846,3.896-16.846L17.647,3.79z"/><circle fill="#000000" cx="17.096" cy="2.772" r="1.546"/></g><g><rect x="28.546" y="8.243" fill="#000000" width="14.372" height="2.578"/><rect x="34.443" y="2.345" fill="#000000" width="2.578" height="14.371"/></g></g><text x="0" y="65" fill="#000000" font-size="5px" font-weight="bold" font-family="'Helvetica Neue', Helvetica, Arial-Unicode, Arial, Sans-serif">Created by Mister Pixel</text><text x="0" y="70" fill="#000000" font-size="5px" font-weight="bold" font-family="'Helvetica Neue', Helvetica, Arial-Unicode, Arial, Sans-serif">from the Noun Project</text></svg>