<svg id="Layer_1" data-name="Layer 1" xmlns="http://www.w3.org/2000/svg" width="104.58mm" height="91.29mm" viewBox="0 0 296.45 258.78"><defs><style>.cls-1{fill:#ff0;}</style></defs><title>user170 cp_circuit</title><polygon class="cls-1" points="98.76 214.24 98.76 214.24 98.72 214.15 98.76 214.24"/><path class="cls-1" d="M598.13,294.29l-22.84-25.37-4.36-7.59-37.19-2.6-15.81-2-8.72,16.73-18.49,22L448.66,330l7.13,40.41,2.07,18.7,44.37,4.5,30.25-61.17h28.77V308.36H517.52L488,368l-8.38-.85-4.83-27.41,32.9-27,21.62-25.77,2.19-4.21,25.31,1.77,25.76,28.57,32.85,19.81-3.9,24.6L557.94,371.8l-38.46,17.13-26.12,45.8-28,3-21.7,7.82-0.44-1.09-5.91,2.21-9.67,3.8L423.13,439l-11.48,4.6,0,0.06-3.25,1.3,0-.06-11.48,4.6,0,0.06-7.4,3,4.32,10.8-3.9,1.52-3.41-.25-2.75,1.14L381.1,459l-15.82,6.33-0.17.07,2.77,6.93-4.81,2-2.78-7-1.39.56v0l-13.54,5.42,16.89,42.21,14.93-6,10.28-4.11v0L398,501.19l0-.08-2-5,6.43-2.49L413.45,504l29.68-11.61-1.92-4.73,1.2-.48-4.18-10.44,2.06-.87,8.42-3.37,5.14-1.81-0.53-1.32,17.52-8,37.34-4,28.31-49.65L566,394.59l66.92-17.86,8.88-56.09ZM560,322.16h-9.2v-3.5H560v3.5Zm0-4.6h-9.2v-3.5H560v3.5ZM421.55,442.73l3.79,9.47-6.22,2.49-3.79-9.47Zm-7.23,3,3.79,9.47-6.22,2.49-3.79-9.47Zm-7.51,2.93,3.79,9.47-6.22,2.49-3.79-9.47Zm-53.52,37.12-1.52-3.7,0.11,0L349,474.89l8.28-3.31,2.81,7,11.44-4.72-2.76-6.9,10.73-4.29,2.72,6.79,4.78-2,3.38,0.25,8.32-3.25-0.54-1.36-1.16.46-3.79-9.47,6.22-2.49,3.79,9.47-1.72.69,0.68,1.72L436.55,450v0l3.32-1.33,4.43-1.69,0-.07,1.18-.47,4.81-1.93,4.81-1.93,4.81-1.93,5.48-2.2,1.66-.18,5.87-.63,5.16-.55,5.16-.55,5.16-.55,5.46-.58,2.72-4.77,2.46-4.32,2.46-4.32,2.46-4.32,2.46-4.32,2.46-4.32,2.46-4.32,2.46-4.32,2.46-4.32,3.78-6.63,1.89-.84,7-3.1h0l4.39-2,13.89-6.18,1.83-.81,2.92-1.3h0l4.82-2.15,1.48-.66,5.1-1.36,5-1.34,5-1.34,5-1.34,5-1.34,5-1.34,5-1.34,5-1.34,5-1.34,5-1.34,3.81-1,0.62-3.89h0l0.15-1,2.38-15,0.31-2,0-.14h0l0.58-3.63-3.15-1.9L609,328l-4.22-2.54L600.52,323l-4.22-2.54-4.22-2.54-4.22-2.54-4.73-2.86-1.44-1.59-3.7-4.11h0l-3.21-3.57-10.17-11.3-1.34-1.49-1.76-1.95,0,0-0.7-.84-0.32-.36h0l-2.91-3.51h-0.15l-6-.42-14.47-1-2-.14-0.45,0,0,0.18-3.25-.41h-0.16l-1.58,3-4.7,6.18L515,302.76l-1.29,1.53-2.06,2.45h0l-3.76,4.48-0.77.91-4.52,3.71-4.18,3.43-4.18,3.43-4.18,3.43L486,329.57,481.77,333l-4.18,3.43-3.62,3L474.8,344h0l0.47,2.67L479,367.75h0v0.08l2.15,0.22,4,0.4,3.43,0.35,1.53-3.09,2.21-4.47,2.21-4.47,2.21-4.47,2.21-4.47,2.21-4.47,2.21-4.47,2.21-4.47L507.7,330l2.21-4.47L518,309.15h42v3.5h-12.7v4.5l2.8,6.1H560v3.5h-12.1l-4.1-8.8v-5.3H520.19l-7.12,14.41-2.21,4.47L508.65,336l-2.21,4.47-2.21,4.47L502,349.41l-2.21,4.47-2.21,4.47-2.21,4.47-2.21,4.47-2.61,5.28-5.86-.59-4-.4-5-.51-2.45-15.2-4.43.78-5.52,3.82,1.1,8h-3.61l-1.32-9.53,8-5.57,5.22-.92-0.05-.3-0.23-1.28-0.87-4.92-0.23-1.29h0L470.16,338l5.21-4.27,4.18-3.43,4.18-3.43,4.18-3.43,4.18-3.43,4.18-3.43,4.18-3.43,4.27-3.5,0.65-.77,3.67-4.38h0l2-2.37,2.51-3,1.67-2,1.35-1.61-3.45-2.89-6.47-1.78-0.45.54-2.25,2.68-0.9,1.07-1,1.15-2.68-2.25,1-1.15,0.9-1.07,4.11-4.9,9.38,2.52,4.06,3.41,4.24-5.06,2.71-3.23,3.37-6.46,2.82,0.35,3.19,0.22L539,279l2.59,0.18,2.09,0.15,0.31-4.49-2.37-6.28-0.7,0-17.83-1.81L517,278.41l-0.25.48-2.85-2.09,7.25-13.91,22.94,2.29,3.48,9.06-0.37,5.29,0.3,0,1.3,0.09,5,0.35,3.41,0.24,2.08,0.05,4.48,5.41,2.07,2.3,2.61,2.9,1.74,1.93,1.41,1.56,3.34-3,2.66-6.16-0.47-.52-2.34-2.6-0.94-1-1-1.11,2.6-2.34,1,1.11,0.94,1,4.28,4.76-3.8,8.94L573.91,297l0.2,0.22,0.87,1,3.35,3.72,2.28,2.53h0l3.57,4,1.21,1.35,4.29,2.59,4.22,2.54,4.22,2.54,4.22,2.54,4.22,2.54,4.22,2.54,4.22,2.54,5.18,3.12-0.95,6h0v0l-0.61,3.85-0.41,2.57-0.33,2.07,4.44,0.7,6.46-1.81,0.11-.69,0.55-3.46,0.22-1.38,0.23-1.48h0l1.51-9.53H635l-1.79,11.32h0l0,0.24-0.22,1.38-1,6.32-9.33,2.67-5.23-.83,0,0.3-0.2,1.28-0.72,4.52h0l-1,6.15-6,1.61-5,1.34-5,1.34-5,1.34-5,1.34-5,1.34-5,1.34-5,1.34-5,1.34-5,1.34-4.83,1.29-1.24.55-4.8,2.14h0l-2.83,1.26-3.56,1.59-2.38,1.06-1.92.85,1.83,4.11,5,4.43,0.64-.28,3.2-1.42,1.28-.57L556,389l1.42,3.2-1.37.61-1.28.57-5.85,2.6-7.32-6.37-2.16-4.84-0.27.12-1.19.53-4.57,2-3.11,1.38h0l-6.21,2.76-1.59.71-3.21,5.62-2.46,4.32-2.46,4.32-2.46,4.32-2.46,4.32L507,419.49l-2.46,4.32-2.46,4.32-2.46,4.32L496,438.77l-7.26.77-5.16.55-5.16.55-5.16.55-5.65.6-1.4.15-5,2-4.81,1.93-4.81,1.93-4.81,1.93L442,451.67l-4.2,1.68v0l-34.71,13.66,0,0L391,471.81l-3.34-.25-3.95,1.63,0.06,0.15-10.73,4.29,0,0ZM526.1,322.18l-4.51,9.11-2.21,4.47-2.21,4.47L515,344.69l-2.21,4.47-2.21,4.47-2.21,4.47-2.21,4.47L503.92,367l-2.21,4.47-5.54,11.19-12.42-1.26-4-.4-12.62-1.28-1.22-11L465.63,367l-1.06-6,3.45-.61,2.32,16.19,9.8,1,4,0.4,10,1,4.46-9,2.21-4.47L503,361l2.21-4.47,2.21-4.47,2.21-4.47,2.21-4.47,2.21-4.47,2.21-4.47,2.21-4.47,5.47-11.06h18.31v3.5h-6v0H526.1Zm6.56,1.1v3.5H529l-3.24,6.55-2.21,4.47-2.21,4.47-2.21,4.47-2.21,4.47-2.21,4.47-2.21,4.47-2.21,4.47L508,369.06l-2.21,4.47-6.95,14.05L483.29,386l-4-.4L463,383.94,461,369.83h3.61l1.5,10.91,13.51,1.37,4,0.4,13.18,1.34L502.7,372l2.21-4.47,2.21-4.47,2.21-4.47,2.21-4.47,2.21-4.47,2.21-4.47,2.21-4.47,2.21-4.47,2.21-4.47,4.2-8.5h5.87Zm3.61-5.72v0h-13l-5.77,11.67-2.21,4.47L513,338.18l-2.21,4.47-2.21,4.47-2.21,4.47L504.21,356,502,360.52,499.8,365l-2.21,4.47-4.12,8.33-9.25-.94-4-.4-8.93-.91-0.83-7.47-0.34-1.91-1.06-6,3.45-.61,1.06,6,0.12,0.7,0.42,2.36,0.35,3.73L480.6,373l4,0.4L491.4,374l3-6.15,2.21-4.47,2.21-4.47,2.21-4.47,2.21-4.47,2.21-4.47,2.21-4.47,2.21-4.47,2.21-4.47,2.21-4.47,6.74-13.63h21.17v3.5h-6Zm-76.43,16.59,9.5-7.8,4.18-3.43,4.18-3.43,4.18-3.43,4.18-3.43,4.18-3.43,4.18-3.43,3.59-2.94,0.32-.39,3.43-4.08h0l1.35-1.61,3.92-4.67,2.68,2.25L505.77,299l-2,2.37h0l-2.87,3.43-0.44.53-3.84,3.15-4.18,3.43-4.18,3.43-4.18,3.43-4.18,3.43-4.18,3.43-4.18,3.43-7.92,6.5,1.24,7h0l0.56,3.15,1.08,6.11-3.45.61L462,346.37l0-.11h0Zm0.5,9.18h-3.55l-1.94-11,11.58-9.51,4.18-3.43,4.18-3.43,4.18-3.43,4.18-3.43,4.18-3.43,4.18-3.43,3.26-2.67,0.17-.2,3.31-3.94,2.68,2.25-3.4,4.05-0.29.34-3.51,2.88-4.18,3.43-4.18,3.43-4.18,3.43L477,318.65l-4.18,3.43-4.18,3.43-10,8.21Zm9.09-1.52h0L470,345l1.08,6.11-3.45.61-1.08-6.11,0-.11h0L464.83,336l7.42-6.09,4.18-3.43,4.18-3.43,4.18-3.43L489,316.2l4.18-3.43,4.18-3.43,3.92-3.22,0.48-.57,3.54-4.23h0l1.35-1.61,3.92-4.67,2.68,2.25L509.3,302l-2,2.37h0l-3,3.57-0.6.72-4.17,3.42-4.18,3.43-4.18,3.43L487,322.34l-4.18,3.43-4.18,3.43-4.18,3.43-5.84,4.79Zm62-69.47-5.73-.72-4.46,8.94L519.21,283l-4,4.75-2.68-2.25,4-4.75,1.24-1.48,6-11.45L533,269l1.76,0.12,6.09,0.43L540.62,273Zm9.1,1.8-0.24,3.49-12-1-3.53,6.93L522.73,286l-4,4.75-2.68-2.25,4-4.75,1.74-2.21,4.54-8.71Zm23.28-3.27,7.26,8.76,1.12,1.24,4.08,4.53-2.6,2.34-4.08-4.53-0.76-.84,0,0-0.52-.63-0.77-.86,0,0-5.42-6.55-3.56-.09-6.9-.43-2.48-.17,0.24-3.49,6.18,0.43,1.79,0.13Zm-3.41-1.27v-3.5l5.62,0.23,8.65,10.44L572,279l-7.6-9.17Zm-5.11,5.57,1.9,0.13,4.41,0.11,6,7.23,1.18,1.31,4.08,4.53-2.6,2.34-4.08-4.53-0.88-1,0,0-0.46-.55-0.71-.79,0,0-4.21-5.08-11.05-.65,0.24-3.49Zm65.17,43.31-4.22-2.54L612,313.4l-4.22-2.54-4.22-2.54-4.22-2.54-4.22-2.54-2.94-1.77-0.53-.59-3.19-3.55,2.6-2.34,3.07,3.41,0.31,0.35,2.49,1.5,4.22,2.54,4.22,2.54,4.22,2.54,4.22,2.54,4.22,2.54,4.22,2.54,13.31,8L635,327H631.5l0.27-1.7Zm-29.57-16.85,0.61,0.67,3.08,1.86,4.22,2.54,4.22,2.54,4.22,2.54,4.22,2.54,4.22,2.54,4.22,2.54,10.66,6.43-1.95,12.3h0l-0.8,5.08-3.46-.55,1-6,0.48-3.06h0l0.94-6-8.64-5.21-4.22-2.54-4.22-2.54-4.22-2.54-4.22-2.54L597,309.71l-4.22-2.54L589.25,305l-0.83-.92-2.69-3h0l-2.14-2.38-4.15-4.61,2.6-2.34,4.15,4.61,1.47,1.63h0Zm24.81,24.74-4.22-2.54-4.22-2.54-4.22-2.54-4.22-2.54-4.22-2.54-4.22-2.54-4.11-2.48-1.12-1.25-2.85-3.17h0l-2.14-2.38L576,297.23l2.6-2.34,4.15,4.61,1.47,1.63h0l3.4,3.77,0.9,1,3.66,2.21,4.22,2.54,4.22,2.54,4.22,2.54,4.22,2.54,4.22,2.54,4.22,2.54,8,4.83-1.46,9.24h0l-0.8,5.08L619.8,342l1-6,0.48-3.06h0l0.46-2.9ZM617,359.75l0.5-3.16,1-6.12,3.46,0.55-0.72,4.52h0l-1.47,9.3-9.1,2.43-5,1.34-5,1.34-5,1.34-5,1.34-5,1.34-5,1.34-5,1.34-5,1.34-5,1.34L561,380.51l-0.92.41L555.34,383h0l-1.92.85-5.57,2.48-1.42-3.2,5.57-2.48,2.83-1.26h0l3.87-1.73,1.15-.51,4.72-1.26,5-1.34,5-1.34,5-1.34,5-1.34,5-1.34,5-1.34,5-1.34,5-1.34,5-1.34,6.9-1.84,0.36-2.29h0Zm-63.12,25.14,2.83-1.26h0l3.84-1.71,0.85-.38,4.37-1.17,5-1.34,5-1.34,5-1.34,5-1.34,5-1.34,5-1.34,5-1.34,5-1.34,5-1.34,9.79-2.61,0.83-5.25h0l0.5-3.16,1-6.12,3.46,0.55-0.72,4.52h0l-1.94,12.26-12,3.2-5,1.34-5,1.34-5,1.34-5,1.34-5,1.34-5,1.34-5,1.34-5,1.34-5,1.34-4.1,1.09-0.62.28-4.73,2.11h0l-1.92.85-5.57,2.48-1.42-3.2Zm8.52,1.26,0.55-.24,4-1.07,5-1.34,5-1.34,5-1.34,5-1.34,5-1.34,5-1.34,5-1.34,5-1.34,5-1.34,12.68-3.39,1.69-10.65H630l-2.13,13.44-14.88,4-5,1.34-5,1.34-5,1.34-5,1.34-5,1.34-5,1.34-5,1.34-5,1.34-5,1.34-3.75,1-0.32.14-4.7,2.09-1.42-3.2Zm-28.2,11.33h0L530,399.35l-0.8.35-1.66,2.92-2.46,4.32-2.46,4.32-2.46,4.32-2.46,4.32-2.46,4.32-2.46,4.32-2.46,4.32-2.46,4.32-6,10.57L489.76,449l-5.16.55-5.16.55-5.16.55-5,.54-0.7.07-3.81,1.53-4.81,1.93-4.81,1.93-4.81,1.93-4.81,1.93L441,462.3l0,0.07-0.74.29-11.51,7.67-5.47,2.24,0.88,2.2,1.44-.58,5,12.46-6.22,2.49-5-12.46,1.44-.58-2.21-5.52,8.6-3.52,11.37-7.62,1.2-.47v0l2-.81,6-2.36,0-.05,1.16-.46,4.81-1.93,4.81-1.93,4.81-1.93,4.26-1.71,1-.1,5.27-.56,5.16-.55,5.16-.55,5.16-.55,10.31-1.1,5.14-9,2.46-4.32,2.46-4.32,2.46-4.32,2.46-4.32,2.46-4.32,2.46-4.32,2.46-4.32,2.46-4.32,2.23-3.92,1.09-.48,4-1.78h0l2.92-1.3,5.66-2.52,1.42,3.2-5.66,2.52Zm1.88,4.22-3.16,1.41-0.41.18-0.92,1.61-2.46,4.32-2.46,4.32-2.46,4.32-2.46,4.32-2.46,4.32-2.46,4.32-2.46,4.32-2.46,4.32L504.69,452l-14.44,1.54-5.16.55-5.16.55-5.16.55-4.75.51-0.36,0-3.22,1.29L461.64,459l-4.81,1.93L452,462.84l-1.14.46-1.31-3.24,1.15-.46,4.81-1.93,4.81-1.93,4.81-1.93,3.67-1.47,0.62-.07,5-.53,5.16-.55,5.16-.55,5.16-.55,12.66-1.35,6.31-11.06,2.46-4.32,2.46-4.32,2.46-4.32,2.46-4.32,2.46-4.32,2.46-4.32,2.46-4.32,2.46-4.32,1.48-2.6,0.7-.31,3.92-1.74Zm-122.7,88.95-8.82-8.29-12.2,4.73-32.8,12.78-5.17-12.25,33-12.88,0.73-.3,3.31,0.24,12.66-5,2.2-.9,3.45,8.61-1.44.58Zm-1.37-11,1.44-.58-4.63-11.56,32.41-13.93,4.92-2,0-.05,1.17-.47,4.81-1.93,4.81-1.93,4.81-1.93,4.85-1.94,1.3-.14,5.56-.59,5.16-.55,5.16-.55,5.16-.55,8-.85,4-7,2.46-4.32,2.46-4.32,2.46-4.32,2.46-4.32,2.46-4.32,2.46-4.32,2.46-4.32,2.46-4.32,3-5.23,1.47-.66,5-2.22h0l2.92-1.3,5.66-2.52,1.42,3.2-5.66,2.52-2,.89h0l-5.15,2.29-1.18.53-2.41,4.23-2.46,4.32L518.66,409l-2.46,4.32-2.46,4.32-2.46,4.32-2.46,4.32-2.46,4.32-2.46,4.32L499,443.39l-9.76,1-5.16.55-5.16.55-5.16.55-5.34.57-1,.11-4.4,1.76-4.81,1.93-4.81,1.93-4.81,1.93-4.81,1.93L439.42,458l-26,11.41,3.32,8.3,1.44-.58,5,12.46L417,492.06Zm226-140-0.52,3.3-1.92,12.15-0.42,2.65h0l-2.91,18.35-18,4.79-5,1.34-5,1.34-5,1.34-5,1.34-5,1.34-5,1.34-5,1.34-5,1.34-5,1.34-3.38.9h0l-4.67,2.08h0l-5.85,2.6-11.24,5L538,406.16h0l-2.11.94-0.12.21-2.46,4.32L530.9,416l-2.46,4.32L526,424.59l-2.46,4.32-2.46,4.32-2.46,4.32-2.46,4.32-8.43,14.79-16.93,1.8-5.16.55-5.16.55-5.16.55-4.44.47-2.59,1-4.81,1.93-4.81,1.93L452.76,468l-5,1.85-8.5,3.4-4.67,2,4.15,10.38-1.22.49,1.91,4.71-25.34,9.91L403,490.29l-10.76,4.17,2.06,5.15-7.9,3.16-2.82,1.13-19.76,7.91-4.27-10.66,19.76-7.91,2.58-1h0l5.57-2.23h0l2.58-1,0.72,1.8,13.15-5.1L415,496.06l19.21-7.52-0.4-1-1.29.52-5.76-14.39L433,471.2l0.27,0.66,4.64-2,5.11-2,0,0.1,4.71-1.89,2.37-1,1.32-.49v0l1.14-.45,4.81-1.93,4.81-1.93,4.81-1.93,3-1.22,0.26,0,4.66-.5,5.16-.55,5.16-.55,5.16-.55,15.16-1.61,7.55-13.24,2.46-4.32,2.46-4.32,2.46-4.32,2.46-4.32,2.46-4.32,2.46-4.32,2.46-4.32,2.46-4.32,0.69-1.21,0.29-.13,1.95-.87v0l4-1.79L541,401l4.66-2.07-1.12-1-4.11,1.83-1.28.57-1.37.61-1.42-3.2,1.37-.61,1.28-.57,3.29-1.46,2.92-1.3,3.91,3.62,6.21-2.77,1.28-.57,3.93-1.75v0l3.78-1.68,0.23-.1,3.64-1,5-1.34,5-1.34,5-1.34,5-1.34,5-1.34,5-1.34,5-1.34,5-1.34,5-1.34,15.76-4.21,1.8-11.35h0l0.69-4.35,0.22-1.38,0.8-5-1.48.37-0.7,4.44-0.15,1h0l-0.15,1h-3.56l0.17-1.09,0.22-1.38,0.56-3.56,0.5-3.16,5.17-1.31,1.06-6.72,0.22-1.38,0.67-4.25h0l1.95-12.28L623,314.29l-4.22-2.54-4.22-2.54-4.22-2.54-4.22-2.54-4.22-2.54L597.69,299l-2.31-1.39-0.22-.25-2.35-2.61h0l-2.94-3.27-0.94-1-3.41-3.79-0.64,1.38,3,3.34,0.94,1,1,1.11-2.6,2.34-1-1.11-0.94-1-2.41-2.68-2.14-2.38,2.24-4.84-4.55-5.05-0.94-1-1.3-1.44,0,0-0.45-.54-1.11-1.23,0.05,0-7.93-9.58-18.34-.88,0.5,1.44,4.49,0.31,5.52,0.22v3.5l-7.08-.32-2.28-.16-3.19-.22-1.75-5-24.23-2.44-8.1,15.18-1.08,1.29-0.9,1.07L507,282.81l1.46,0.44,2.89-3.45,0.9-1.07,1-1.15,2.68,2.25-1,1.15-0.9,1.07-2.31,2.76-2.06,2.45-5.1-1.54-4.37,5.21-0.9,1.07-2.76,3.29h0l-2.63,3.13-0.12.14-3.16,2.59-4.18,3.43L482.23,308l-4.18,3.43-4.18,3.43-4.18,3.43-4.18,3.43-12.22,10,2.21,12.53h0l0.76,4.33,0.24,1.38,0.89,5,1.27-.83-0.78-4.43-0.24-1.38-0.23-1.29h0l-0.14-.79h3.57l0.26,1.48,0.24,1.38,0.63,3.55,0.56,3.15-4.46,2.92,1.18,6.7,0.24,1.38,0.65,4.25,1.57,14.15L479.18,387l4,0.4,16.57,1.68,7.38-14.93,2.21-4.47,2.21-4.47,2.21-4.47,2.21-4.47,2.21-4.47,2.21-4.47,2.21-4.47,2.21-4.47,2.21-4.47,2.85-5.77h3v0h10.9l-0.6-1.4h-6.87v0H533.9v-3.5h1.83v0h9.7l2.1,4.9H560v3.5H532l-1.89,3.83L527.89,340l-2.21,4.47-2.21,4.47-2.21,4.47-2.21,4.47-2.21,4.47-2.21,4.47-2.21,4.47-2.21,4.47-8.45,17.1-19-1.93-4-.4-20.26-2.06-2-18.28-1-5.76-2.14-12.11-0.77-4.35h0l-3.1-17.57L463.31,319l4.18-3.43,4.18-3.43,4.18-3.43,4.18-3.43,4.18-3.43,4.18-3.43,2.9-2.38h0l3.18-3.79h0l4.11-4.9,7.91-9.42,3.35-4,8.53-16.37L552,260.81l6,0.42,10.41,0.27,9.83,11.86,3.93,4.37,8.23,9.14,4.35,4.83h0l2.9,3.22,1.87,1.13,4.22,2.54,4.22,2.54,4.22,2.54,4.22,2.54,4.22,2.54,4.22,2.54L640.94,321,638,339.65h0Z" transform="translate(-345.35 -256.75)"/></svg>