<?xml version="1.0" encoding="utf-8"?>
<!-- Generator: Adobe Illustrator 19.2.1, SVG Export Plug-In . SVG Version: 6.00 Build 0)  -->
<svg version="1.1" id="Layer_1" xmlns="http://www.w3.org/2000/svg" xmlns:xlink="http://www.w3.org/1999/xlink" x="0px" y="0px"
	 viewBox="0 0 1242 659" style="enable-background:new 0 0 1242 659;" xml:space="preserve">
<style type="text/css">
	.st0{fill:#294DFF;}
	.st1{display:none;fill:#FFE313;}
	.st2{fill:#DFDFDF;stroke:#000000;stroke-width:3;stroke-miterlimit:10;}
	.st3{fill:#DFDFDF;stroke:#000000;stroke-miterlimit:10;stroke-dasharray:2,1;enable-background:new    ;}
	.st4{opacity:0.5;fill:#DFDFDF;stroke:#000000;stroke-miterlimit:10;stroke-dasharray:2,1;enable-background:new    ;}
	.st5{fill:#E5E619;stroke:#000000;stroke-miterlimit:10;}
	.st6{fill:#19E5E6;stroke:#000000;stroke-miterlimit:10;}
	.st7{fill:#FFFFFF;stroke:#000000;stroke-miterlimit:10;}
	.st8{fill:#19E680;stroke:#000000;stroke-miterlimit:10;}
	.st9{display:none;fill:none;stroke:#E5E619;stroke-width:3;stroke-miterlimit:10;}
	.st10{fill:#4FB524;}
</style>
<path id="BASE:_Base_Path" d="M762,365.8c-14.4-0.8-26.9-9.2-41.2-8.4c-8.3,0.5-17.5,0.8-26.9,1.2c4.1-4.1,7.9-8.6,11.3-13.3
	c9.6,8,20.5,12.5,31.2,12.5c0,0,0,0,0,0c5.1,0,10-1,14.6-3c3.2-1.4,13.1-5.7,15.2-16.5c2.1-10.7-4.7-17.8-9.2-22.5
	c-3.8-3.9-8-8.4-11.3-15.7c-2.5-5.6-4.9-12.6-7.2-19.2c-3.1-9.2-6.1-17.9-9.9-25.1c-3.5-6.8-7.7-11.8-12.4-15
	c-4.4-12.6-10.3-24.8-17.5-35.9c0.5-2.2,0.7-4.5,0.7-6.9c0-10.5-7.6-47.7-31.7-47.7c-5.8,0-13.1,2.2-19.3,10.8
	c-8.6-3.6-18.9-6.8-27.4-6.8c-9.9,0-19.6,2.1-29.1,6.2c-6.1-8.2-13.2-10.3-18.9-10.3c-24.1,0-31.7,37.2-31.7,47.7
	c0,2.8,0.3,5.5,1,8.1c-4.5,8.4-11.7,22.5-16.3,34.5c-4.8,3.2-9,8.3-12.6,15.2c-3.8,7.2-6.8,15.9-9.9,25.1
	c-2.3,6.7-4.7,13.6-7.2,19.3c-3.3,7.4-7.5,11.8-11.3,15.7c-4.5,4.7-11.3,11.9-9.2,22.5c2.1,10.8,11.9,15.1,15.1,16.5
	c4.6,2.1,9.6,3.1,14.7,3.1c10.7,0,21.5-4.5,31.1-12.5c5.3,7.5,11.7,14.3,19,20.2c-5.5,0.1-11.1,0.2-16.9,0.7
	c-14.8,1.3-27.6,6.1-42.1,8.4c-18.6,3-34.5,7.1-49.3,19.4c-6.7,5.6-15.6,7.4-23.4,12.3c-6.9,4.3,1-2.7-6.7-1.7
	c-2.4,4-1.3,4.8-0.5,8.7l14.5,34.6c2.9,3.4,9.8,6.3,14.4,5.7l5-5.8c9.5,0.5,17.8-2.8,23.3-9.5c9-11,18.4-13.3,31.3-16.3
	c17.1-3.9,25.6-13.7,43.4-16.3c14-2,23.8-1.1,38.8,0.6c14.5,1.7,30.2,0.7,44.3,3.2c6.4,1.1,10.7,4.5,17.4,4.2
	c11.7-0.6,23.7-8.9,35.8-10.4c17.8-2.2,37.5-8.6,55.2-8c10.3,0.3,18.7,1.6,29.2,0.1c13.3-1.8,23.1,3.9,28.7-8.5
	c2.8-6.2,2.7-15.8,4.1-22.4C788.7,363.5,775.1,366.5,762,365.8z"/>
<rect id="MC:_Microcontroller" x="450.4" y="361.5" transform="matrix(0.3871 0.922 -0.922 0.3871 666.8063 -180.4352)" class="st0" width="37.5" height="99.7"/>
<polygon id="BI:_Breakin_1_" class="st1" points="437.1,435.2 436.2,433.1 435.6,431.7 433.9,427.6 433.3,426.2 431.6,422 
	429.3,416.5 419,420.8 420.6,424.6 421.3,426.3 423.1,430.5 423.7,431.9 425.4,436 426,437.4 426.9,439.5 427.7,441.5 438,437.3 "/>
<path id="DDS:_body" class="st2" d="M729.5,307c-9.5-21.4-15.3-53.5-27.7-53.5l0,0c-4.7-16.2-12.6-32.5-22.7-46.3l0,0
	c1.7-2.6,2.7-5.8,2.7-9.2c0-8.7-6.9-30.7-14.7-30.7c-4.7,0-8.7,8.2-11.1,16.6c0,0-22.9-12.6-35.6-12.6c-13.1,0-25.5,5-36.7,13.3
	l-0.2-0.8c-2.4-8.4-6.3-16.6-11.1-16.6c-7.8,0-14.7,22-14.7,30.7c0,3.5,1,6.7,2.7,9.3c0,0-16.7,29.7-21.5,46.3l0,0
	c-12.4,0-18.2,32.1-27.7,53.5c-10.3,23.3-28.5,25.9-14,32.3c13.2,5.9,31.1-4.8,42-24.2c11.9,32.6,44.7,55.9,81.2,56.6l1.8,0.1
	c36.5-0.8,67.4-24.2,79.3-56.7c10.9,19.4,28.8,30,42,24.2C758.1,332.9,739.8,330.3,729.5,307L729.5,307z"/>
<path id="DDS:_beak" class="st2" d="M630.8,237.2c3,0.4,6,1.1,8.9,1.9c-0.2,16.5-9.2,45.1-19.2,45.1c-10.1,0-17.5-28.9-17.7-45.3
	c3-0.8,6.2-1.5,9.4-1.9c2.8-0.4,5.8-4.9,8.7-4.9C624.3,232.3,627.6,236.9,630.8,237.2L630.8,237.2z"/>
<path id="DDS:_x5F_eye11_1" class="st2" d="M567.1,225.6c0-10.6,8.6-19.2,19.2-19.2s19.2,8.6,19.2,19.2s-8.6,19.2-19.2,19.2
	S567.1,236.2,567.1,225.6z"/>
<path id="DDS:_x5F_eye22_1" class="st2" d="M633.4,225.6c0-10.6,8.6-19.2,19.2-19.2s19.2,8.6,19.2,19.2s-8.6,19.2-19.2,19.2
	S633.4,236.2,633.4,225.6z"/>
<path id="DDS:_belly" class="st3" d="M688.6,304.2c0,36.7-29.3,66.7-65.8,67.6c-0.6,0-1.2,0-1.9,0s-1.2,0-1.9,0
	c-36.5-1-65.8-30.9-65.8-67.6c0-31.1,21-57.3,49.6-65.2c0.1,16.4,7.6,45.3,17.7,45.3c10.1,0,19-28.7,19.2-45.1
	c1.2,0.4,2.4,0.7,3.6,1.2c1.4,0.8,2.9,1.4,4.5,1.8C671.9,252.6,688.6,276.5,688.6,304.2L688.6,304.2z"/>
<path id="DDS:_eye_1" class="st4" d="M601.3,233.8c0,2.2-6.7,10-15,10s-15-7.8-15-10s6.7,3,15,3S601.3,231.6,601.3,233.8z"/>
<path id="DDS:_eye_2" class="st4" d="M667.6,233.8c0,2.2-6.7,10-15,10s-15-7.8-15-10s6.7,3,15,3S667.6,231.6,667.6,233.8z"/>
<polygon id="NLED:_x5F__x7B__x22_colorID_x22_:_x5B_0.89804_x2C_0.90196_x2C_0.09804_x5D__x2C__x22_target_x22_:5_x2C__x22_forceTarget_x22_:5_x7D_" class="st5" points="
	614.4,261.5 614.4,247.3 628.5,247.3 628.5,261.5 "/>
<polygon id="NLED:_x5F__x7B__x22_colorID_x22_:_x5B_0.09804_x2C_0.89804_x2C_0.90196_x5D__x2C__x22_target_x22_:3_x2C__x22_forceTarget_x22_:3_x7D_" class="st6" points="
	693.3,288.4 693.3,274.2 707.5,274.2 707.5,288.4 "/>
<polygon id="NLED:_x5F__x7B__x22_colorID_x22_:_x5B_0.09804_x2C_0.89804_x2C_0.90196_x5D__x2C__x22_target_x22_:3_x7D_" class="st6" points="
	533.5,297.4 533.5,283.2 547.6,283.2 547.6,297.4 "/>
<polygon id="NLED:_x5F__x7B__x22_colorID_x22_:_x5B_1_x2C_1_x2C_1_x5D__x2C__x22_target_x22_:11_x7D_" class="st7" points="
	579.1,230.9 579.1,216.8 593.3,216.8 593.3,230.9 "/>
<polygon id="NLED:_x5F__x7B__x22_colorID_x22_:_x5B_1_x2C_1_x2C_1_x5D__x2C__x22_target_x22_:12_x7D_" class="st7" points="
	645.9,230.9 645.9,216.8 660,216.8 660,230.9 "/>
<polygon id="NLED:_x5F__x7B__x22_colorID_x22_:_x5B_0.09804_x2C_0.90196_x2C_0.50196_x5D__x2C__x22_target_x22_:3_x7D_" class="st8" points="
	613.1,212.7 613.1,198.5 627.2,198.5 627.2,212.7 "/>
<polygon id="NLED:_x5F__x7B__x22_colorID_x22_:_x5B_1_x2C_1_x2C_1_x5D__x2C__x22_forceTarget_x22_:4_x7D_" class="st7" points="
	612.9,331.8 612.9,317.7 627.1,317.7 627.1,331.8 "/>
<path id="CP:_CIRCUIT_PATH" class="st9" d="M433.9,427.6c55.3-10.9,68.3-22.5,94.1-36.9c35.5-19.8,38.8-29.1,78.7-50
	c62.3-32.6,86-26.6,94.7-47.3c8.7-20.8-24.5-46.2-46-70.7c-15.1-17.1-13.5-38.9-34.7-36.7c-29.1,3.1-25,24-34.5,39.6
	c-14.4,23.8-53.3,71.1-44.9,77.1c5.9,4.2,24.5-4.6,81.3-63.3"/>
<circle id="NUT:_Nut_Placement" class="st10" cx="593.3" cy="390.8" r="10.9"/>
<circle id="NUT:_Nut_Placement_4_" class="st10" cx="755.3" cy="380" r="10.9"/>
<circle id="NUT:_Nut_Placement_1_" class="st10" cx="621.4" cy="163.9" r="9"/>
<circle id="NUT:_Nut_Placement_2_" class="st10" cx="702.8" cy="333.7" r="9"/>
<circle id="NUT:_Nut_Placement_3_" class="st10" cx="537.2" cy="333.7" r="9"/>
</svg>
