<?xml version="1.0" encoding="utf-8"?>
<!-- Generator: Adobe Illustrator 19.2.1, SVG Export Plug-In . SVG Version: 6.00 Build 0)  -->
<svg version="1.1" id="Layer_1" xmlns="http://www.w3.org/2000/svg" xmlns:xlink="http://www.w3.org/1999/xlink" x="0px" y="0px"
	 viewBox="0 0 1243 703" style="enable-background:new 0 0 1243 703;" xml:space="preserve">
<style type="text/css">
	.st0{fill:none;stroke:#231F20;stroke-width:2;stroke-miterlimit:10;}
	.st1{fill:#DDD0D0;stroke:#231F20;stroke-width:2;stroke-miterlimit:10;}
	.st2{fill:none;stroke:#000000;stroke-width:3;stroke-miterlimit:10;}
	.st3{fill:#19E5E6;stroke:#000000;stroke-miterlimit:10;}
	.st4{fill:#E5E619;stroke:#000000;stroke-miterlimit:10;}
	.st5{fill:#E619C3;stroke:#000000;stroke-miterlimit:10;}
	.st6{fill:#FFFFFF;stroke:#000000;stroke-miterlimit:10;}
	.st7{fill:#294DFF;}
	.st8{fill:#FFE313;}
	.st9{fill:none;stroke:#294DFF;stroke-width:4;stroke-miterlimit:10;}
	.st10{fill:#FF2296;}
</style>
<path id="BASE:_STAR_BASE" class="st0" d="M502,178V405H741V178H502z"/>
<polygon id="DIF:_STAR" class="st1" points="677.5,368.7 621.5,339.2 565.5,368.7 576.2,306.2 530.8,262 593.5,253 621.5,196.2 
	649.5,253 712.2,262 666.8,306.2 "/>
<polygon id="DDS:_SOFT" class="st2" points="621.5,307.7 621.5,339.2 565.5,368.7 576.2,306.2 530.8,262 593.5,253 "/>
<polygon id="DDS:_SOFT_1_" class="st2" points="649.5,253 621.5,307.7 593.5,253 621.5,196.2 "/>
<polygon id="DDS:_STAR" class="st2" points="666.8,306.2 677.5,368.7 621.5,339.2 621.5,307.7 649.5,253 712.2,262 "/>
<polygon id="NLED:_x5F__x7B__x22_colorID_x22_:_x5B_0.09804_x2C_0.89804_x2C_0.90196_x5D__x2C__x22_target_x22_:4_x2C__x22_forceTarget_x22_:4_x7D_" class="st3" points="
	589.9,313.8 589.9,299.7 604,299.7 604,313.8 "/>
<polygon id="NLED:_x5F__x7B__x22_colorID_x22_:_x5B_0.89804_x2C_0.90196_x2C_0.09804_x5D__x2C__x22_target_x22_:4_x2C__x22_forceTarget_x22_:4_x7D_" class="st4" points="
	639,314.5 639,300.3 653.1,300.3 653.1,314.5 "/>
<polygon id="NLED:_x5F__x7B__x22_colorID_x22_:_x5B_0.90196_x2C_0.09804_x2C_0.76471_x5D__x2C__x22_target_x22_:4_x2C__x22_forceTarget_x22_:4_x7D_" class="st5" points="
	614.1,256.8 614.1,242.7 628.3,242.7 628.3,256.8 "/>
<polygon id="NLED:_x5F__x7B__x22_colorID_x22_:_x5B_1_x2C_1_x2C_1_x5D__x2C__x22_target_x22_:4_x7D_" class="st6" points="
	614.1,290.1 614.1,276 628.3,276 628.3,290.1 "/>
<rect id="MC:_Microcontroller" x="670.1" y="146.3" transform="matrix(4.485904e-11 1 -1 4.485904e-11 884.9758 -492.6758)" class="st7" width="37.5" height="99.7"/>
<polygon id="BI:_Breakin_1_" class="st8" points="650.1,205.7 650.1,203.4 650.1,201.9 650.1,197.4 650.1,195.9 650.1,191.4 
	650.1,185.4 639,185.4 639,189.5 639,191.4 639,195.9 639,197.4 639,201.9 639,203.4 639,205.7 639,207.9 650.1,207.9 "/>
<path id="CP:_Circuit_Path" class="st9" d="M632.5,196.5c-14.3-2.4-28.4,4-35,15.5c-6.6,11.6,13.8,22.9,11.5,44.5
	c-1.3,11.9-7.3,12.4-11.5,30c-2.2,9.5-5.9,24.9,0.5,33.5c8.2,11.1,33.1,10.9,60-2"/>
<circle id="NUT:_nut_1_" class="st10" cx="516.8" cy="192.8" r="7.8"/>
<circle id="NUT:_nut_x27_" class="st10" cx="727.3" cy="391.8" r="7.8"/>
<circle id="NUT:_nut" class="st10" cx="516.8" cy="391.8" r="7.8"/>
</svg>
