<svg x="0" y="0" width="1242" height="703" version="1.1" xmlns="http://www.w3.org/2000/svg" xmlns:xlink="http://www.w3.org/1999/xlink"><g transform=""><g fill="none" stroke="#000000" stroke-width="none" stroke-linecap="butt" stroke-linejoin="miter" stroke-miterlimit="10" stroke-dasharray="none" stroke-dashoffset="0" font-family="none" font-weight="normal" font-size="none" text-anchor="start" mix-blend-mode="normal"><g id="Layer_1" fill="#dfdfdf" font-family="&quot;Helvetica Neue&quot;, Helvetica, Arial, sans-serif" font-size="14"><polygon points="497,390.7 497,192.3 745,192.3 745,390.7" id="DIF:_Outline 1" stroke-width="3" stroke-dasharray=""/><path d="M545,298.9c0,-39.87496 32.32504,-72.2 72.2,-72.2c39.87496,0 72.2,32.32504 72.2,72.2c0,39.87496 -32.32504,72.2 -72.2,72.2c-39.87496,0 -72.2,-32.32504 -72.2,-72.2z" id="DDS:_Face 1" stroke-width="1" stroke-dasharray="2,1" opacity="0.5"/><path d="M526,245.7c0,-16.56854 13.43146,-30 30,-30c16.56854,0 30,13.43146 30,30c0,16.56854 -13.43146,30 -30,30c-16.56854,0 -30,-13.43146 -30,-30z" id="DDS:_Left_Ear 1" stroke-width="1" stroke-dasharray="2,1" opacity="0.5"/><path d="M649,245.7c0,-16.56854 13.43146,-30 30,-30c16.56854,0 30,13.43146 30,30c0,16.56854 -13.43146,30 -30,30c-16.56854,0 -30,-13.43146 -30,-30z" id="DDS:_right_ear 1" stroke-width="1" stroke-dasharray="2,1" opacity="0.5"/><path d="M578.7,289.9c0,-7.84244 6.35756,-14.2 14.2,-14.2c7.84244,0 14.2,6.35756 14.2,14.2c0,7.84244 -6.35756,14.2 -14.2,14.2c-7.84244,0 -14.2,-6.35756 -14.2,-14.2z" id="DIF:_Left_eye 1" stroke-width="3" stroke-dasharray=""/><path d="M627.6,289.9c0,-7.84244 6.35756,-14.2 14.2,-14.2c7.84244,0 14.2,6.35756 14.2,14.2c0,7.84244 -6.35756,14.2 -14.2,14.2c-7.84244,0 -14.2,-6.35756 -14.2,-14.2z" id="DIF:_Right_eye 1" stroke-width="3" stroke-dasharray=""/><path d="M603,325.8c0,-7.84244 6.35756,-14.2 14.2,-14.2c7.84244,0 14.2,6.35756 14.2,14.2c0,7.84244 -6.35756,14.2 -14.2,14.2c-7.84244,0 -14.2,-6.35756 -14.2,-14.2z" id="DIF:_Nose 1" stroke-width="3" stroke-dasharray=""/></g><polygon points="634.39,297.03406 634.39,282.86083 648.56323,282.86083 648.56323,297.03406" id="NLED:_{&quot;colorID&quot;:[0.09804,0.63137,0.90196],&quot;target&quot;:12}" fill="#19a1e6" stroke-width="1" stroke-dasharray="" font-family="sans-serif" font-size="12"/><polygon points="545.81862,254.4611 545.81862,240.28787 559.99185,240.28787 559.99185,254.4611" id="NLED:_{&quot;colorID&quot;:[0.09804,0.89804,0.90196],&quot;target&quot;:10,&quot;forceTarget&quot;:15}" fill="#19e5e6" stroke-width="1" stroke-dasharray="" font-family="sans-serif" font-size="12"/><polygon points="672.32566,251.49095 672.32566,237.31772 686.49888,237.31772 686.49888,251.49095" id="NLED:_{&quot;colorID&quot;:[0.09804,0.89804,0.90196],&quot;target&quot;:10,&quot;forceTarget&quot;:16}" fill="#19e5e6" stroke-width="1" stroke-dasharray="" font-family="sans-serif" font-size="12"/><polygon points="585.17628,297.59085 585.17628,283.41763 599.34951,283.41763 599.34951,297.59085" id="NLED:_{&quot;colorID&quot;:[0.09804,0.63137,0.90196],&quot;target&quot;:11}" fill="#19a1e6" stroke-width="1" stroke-dasharray="" font-family="sans-serif" font-size="12"/><polygon points="609.31094,306.04207 609.31094,291.86884 623.48417,291.86884 623.48417,306.04207" id="NLED:_{&quot;colorID&quot;:[0.09804,0.49804,0.90196],&quot;target&quot;:10,&quot;forceTarget&quot;:14}" fill="#197fe6" stroke-width="1" stroke-dasharray="" font-family="sans-serif" font-size="12"/><polygon points="610.24901,332.77311 610.24901,318.59988 624.42223,318.59988 624.42223,332.77311" id="NLED:_{&quot;colorID&quot;:[0.09804,0.63137,0.90196],&quot;target&quot;:13}" fill="#19a1e6" stroke-width="1" stroke-dasharray="" font-family="sans-serif" font-size="12"/></g></g></svg>