<svg x="0" y="0" width="1242" height="703" version="1.1" xmlns="http://www.w3.org/2000/svg" xmlns:xlink="http://www.w3.org/1999/xlink"><g transform=""><g fill="none" stroke="#000000" stroke-width="none" stroke-linecap="butt" stroke-linejoin="miter" stroke-miterlimit="10" stroke-dasharray="none" stroke-dashoffset="0" font-family="none" font-weight="normal" font-size="none" text-anchor="start" mix-blend-mode="normal"><g id="Layer_1" fill="#dfdfdf" font-family="&quot;Helvetica Neue&quot;, Helvetica, Arial, sans-serif" font-size="14"><path d="M577.5,241.45l0,200l87,0.1l0,-200.2z M641.7,428.85l-41.4,0l0,-41.4l41.4,0z M641.7,364.25l-41.4,0l0,-41.4l41.4,0z M642.7,302.85l-41.4,0l0,-41.4l41.4,0z" id="DIF:_triangle_1_" stroke-width="3" stroke-dasharray=""/><polygon points="601.4,302.85 601.4,261.45 642.8,261.45 642.8,302.85" id="DDS:_rec_3 1" stroke-width="1" stroke-dasharray="2,1" opacity="0.5"/><polygon points="600.3,364.35 600.3,322.95 641.7,322.95 641.7,364.35" id="DDS:_rec_2 1" stroke-width="1" stroke-dasharray="2,1" opacity="0.5"/><polygon points="600.3,428.85 600.3,387.45 641.7,387.45 641.7,428.85" id="DDS:_rec_1 1" stroke-width="1" stroke-dasharray="2,1" opacity="0.5"/><path d="M598.3,213.95c0,-12.15026 9.84974,-22 22,-22c12.15026,0 22,9.84974 22,22c0,12.15026 -9.84974,22 -22,22c-12.15026,0 -22,-9.84974 -22,-22z" id="DIF:_clock 1" stroke-width="3" stroke-dasharray=""/><polygon points="664.5,241.35 577.5,241.35 621,141.45" id="DIF:_triangle" stroke-width="3" stroke-dasharray=""/></g><polygon points="581.98218,436.30754 581.98218,422.13431 596.15541,422.13431 596.15541,436.30754" id="NLED:_{&quot;colorID&quot;:[0.09804,0.10196,0.90196],&quot;target&quot;:3,&quot;forceTarget&quot;:15}" fill="#191ae6" stroke-width="1" stroke-dasharray="" font-family="sans-serif" font-size="12"/><polygon points="646.55121,319.05695 646.55121,304.88372 660.72444,304.88372 660.72444,319.05695" id="NLED:_{&quot;colorID&quot;:[0.09804,0.10196,0.90196],&quot;target&quot;:3}" fill="#191ae6" stroke-width="1" stroke-dasharray="" font-family="sans-serif" font-size="12"/><polygon points="582.82497,377.07373 582.82497,362.9005 596.9982,362.9005 596.9982,377.07373" id="NLED:_{&quot;colorID&quot;:[0.09804,0.10196,0.90196],&quot;target&quot;:3}" fill="#191ae6" stroke-width="1" stroke-dasharray="" font-family="sans-serif" font-size="12"/><polygon points="613.20393,191.50966 613.20393,177.33644 627.37716,177.33644 627.37716,191.50966" id="NLED:_{&quot;colorID&quot;:[0.09804,0.10196,0.90196],&quot;target&quot;:12,&quot;forceTarget&quot;:12}" fill="#191ae6" stroke-width="1" stroke-dasharray="" font-family="sans-serif" font-size="12"/><polygon points="613.91339,222.01628 613.91339,207.84305 628.08661,207.84305 628.08661,222.01628" id="NLED:_{&quot;colorID&quot;:[0.89804,0.90196,0.09804],&quot;target&quot;:13}" fill="#e5e619" stroke-width="1" stroke-dasharray="" font-family="sans-serif" font-size="12"/><polygon points="594.04861,259.61747 594.04861,245.44424 608.22184,245.44424 608.22184,259.61747" id="NLED:_{&quot;colorID&quot;:[0.09804,0.10196,0.90196],&quot;target&quot;:3}" fill="#191ae6" stroke-width="1" stroke-dasharray="" font-family="sans-serif" font-size="12"/><polygon points="647.96729,436.27208 647.96729,422.09885 662.14051,422.09885 662.14051,436.27208" id="NLED:_{&quot;colorID&quot;:[0.09804,0.10196,0.90196],&quot;target&quot;:3}" fill="#191ae6" stroke-width="1" stroke-dasharray="" font-family="sans-serif" font-size="12"/></g></g></svg>