<?xml version="1.0" encoding="utf-8"?>
<!-- Generator: Adobe Illustrator 19.2.1, SVG Export Plug-In . SVG Version: 6.00 Build 0)  -->
<svg version="1.1" id="ELD:_Teddy_Bear" xmlns="http://www.w3.org/2000/svg" xmlns:xlink="http://www.w3.org/1999/xlink" x="0px"
	 y="0px" viewBox="0 0 1242 703" style="enable-background:new 0 0 1242 703;" xml:space="preserve">
<style type="text/css">
	.st0{fill:#DFDFDF;stroke:#000000;stroke-width:3;stroke-miterlimit:10;}
	.st1{opacity:0.5;fill:#DFDFDF;stroke:#000000;stroke-miterlimit:10;stroke-dasharray:2,1;enable-background:new    ;}
	.st2{fill:#19A1E6;stroke:#000000;stroke-miterlimit:10;}
	.st3{fill:#19E5E6;stroke:#000000;stroke-miterlimit:10;}
	.st4{fill:#197FE6;stroke:#000000;stroke-miterlimit:10;}
	.st5{fill:#294DFF;}
	.st6{fill:#FFE313;}
	.st7{fill:none;stroke:#FFE313;stroke-miterlimit:10;}
</style>
<rect id="BASE:_base" x="455.8" y="148.3" width="332.7" height="287.1"/>
<polygon id="DIF:_x5F_Outline_1" class="st0" points="498.2,390.7 498.2,192.3 746.2,192.3 746.2,390.7 "/>
<path id="DDS:_x5F_Face_1" class="st1" d="M545,298.9c0-39.9,32.3-72.2,72.2-72.2c39.9,0,72.2,32.3,72.2,72.2s-32.3,72.2-72.2,72.2
	C577.3,371.1,545,338.8,545,298.9L545,298.9z"/>
<path id="DDS:_x5F_Left_x5F_Ear_1" class="st1" d="M526,245.7c0-16.6,13.4-30,30-30s30,13.4,30,30s-13.4,30-30,30
	S526,262.3,526,245.7L526,245.7z"/>
<path id="DDS:_x5F_right_x5F_ear_1" class="st1" d="M649,245.7c0-16.6,13.4-30,30-30s30,13.4,30,30s-13.4,30-30,30
	S649,262.3,649,245.7L649,245.7z"/>
<path id="DIF:_x5F_Left_x5F_eye_1" class="st0" d="M578.7,289.9c0-7.8,6.4-14.2,14.2-14.2s14.2,6.4,14.2,14.2s-6.4,14.2-14.2,14.2
	S578.7,297.7,578.7,289.9z"/>
<path id="DIF:_x5F_Right_x5F_eye_1" class="st0" d="M627.6,289.9c0-7.8,6.4-14.2,14.2-14.2s14.2,6.4,14.2,14.2s-6.4,14.2-14.2,14.2
	S627.6,297.7,627.6,289.9z"/>
<path id="DIF:_x5F_Nose_1" class="st0" d="M603,325.8c0-7.8,6.4-14.2,14.2-14.2s14.2,6.4,14.2,14.2S625,340,617.2,340
	S603,333.6,603,325.8z"/>
<polygon id="NLED:_x5F__x7B__x22_colorID_x22_:_x5B_0.09804_x2C_0.63137_x2C_0.90196_x5D__x2C__x22_target_x22_:12_x7D_" class="st2" points="
	634.4,297 634.4,282.9 648.6,282.9 648.6,297 "/>
<polygon id="NLED:_x5F__x7B__x22_colorID_x22_:_x5B_0.09804_x2C_0.89804_x2C_0.90196_x5D__x2C__x22_target_x22_:10_x2C__x22_forceTarget_x22_:15_x7D_" class="st3" points="
	545.8,254.5 545.8,240.3 560,240.3 560,254.5 "/>
<polygon id="NLED:_x5F__x7B__x22_colorID_x22_:_x5B_0.09804_x2C_0.89804_x2C_0.90196_x5D__x2C__x22_target_x22_:10_x2C__x22_forceTarget_x22_:16_x7D_" class="st3" points="
	672.3,251.5 672.3,237.3 686.5,237.3 686.5,251.5 "/>
<polygon id="NLED:_x5F__x7B__x22_colorID_x22_:_x5B_0.09804_x2C_0.63137_x2C_0.90196_x5D__x2C__x22_target_x22_:11_x7D_" class="st2" points="
	585.2,297.6 585.2,283.4 599.3,283.4 599.3,297.6 "/>
<polygon id="NLED:_x5F__x7B__x22_colorID_x22_:_x5B_0.09804_x2C_0.49804_x2C_0.90196_x5D__x2C__x22_target_x22_:10_x2C__x22_forceTarget_x22_:14_x7D_" class="st4" points="
	609.3,306 609.3,291.9 623.5,291.9 623.5,306 "/>
<polygon id="NLED:_x5F__x7B__x22_colorID_x22_:_x5B_0.09804_x2C_0.63137_x2C_0.90196_x5D__x2C__x22_target_x22_:13_x7D_" class="st2" points="
	610.2,332.8 610.2,318.6 624.4,318.6 624.4,332.8 "/>
<rect id="MC:_Microcontroller" x="714.5" y="359.6" transform="matrix(4.485904e-11 1 -1 4.485904e-11 1142.7151 -323.8073)" class="st5" width="37.5" height="99.7"/>
<polygon id="BI:_Breakin_1_" class="st6" points="694.5,419 694.5,416.8 694.5,415.3 694.5,410.8 694.5,409.3 694.5,404.8 
	694.5,398.8 683.4,398.8 683.4,402.9 683.4,404.8 683.4,409.3 683.4,410.8 683.4,415.3 683.4,416.8 683.4,419 683.4,421.3 
	694.5,421.3 "/>
<path id="CP:_Circuit_Path" class="st7" d="M704.8,410c-12.8-6-33.7-10.2-51.5-28.3c-10.1-10.3-9.7-12.8-26.7-35.7
	c-12.1-16.2-31-41.8-57-68.3c-23.5-23.9-30.6-26.2-29.3-31.7c5.4-24.2,151.9-24.1,157.3,1.7c2.1,9.9-16.1,27.2-93.7,59.3"/>
</svg>
