<svg x="0" y="0" width="1243" height="703" version="1.1" xmlns="http://www.w3.org/2000/svg" xmlns:xlink="http://www.w3.org/1999/xlink"><g transform=""><g fill="none" stroke="none" stroke-width="none" stroke-linecap="butt" stroke-linejoin="miter" stroke-miterlimit="10" stroke-dasharray="none" stroke-dashoffset="0" font-family="none" font-weight="normal" font-size="none" text-anchor="start" mix-blend-mode="normal"><g id="Layer_1" font-family="&quot;Helvetica Neue&quot;, Helvetica, Arial, sans-serif" font-size="14"><polygon points="502.05,405.05 502.05,177.95 740.95,177.95 740.95,405.05" id="BASE:_diagram 1" fill="none" stroke="#231f20" stroke-width="2" stroke-dasharray=""/><polygon points="621.45,196.15 649.55,252.95 712.15,262.05 666.85,306.25 677.55,368.65 621.45,339.15 565.45,368.65 576.15,306.25 530.85,262.05 593.45,252.95" id="DIF:_Star" fill="#dfdfdf" stroke="#000000" stroke-width="3" stroke-dasharray=""/><line x1="621.45" y1="339.15" x2="621.45" y2="307.65" id="DDS:_soft_edge_bottom" fill="#dfdfdf" stroke="#000000" stroke-width="1" stroke-dasharray="2,1" opacity="0.5"/><line x1="593.45" y1="252.95" x2="621.45" y2="307.65" id="DDS:_soft_edge_left" fill="#dfdfdf" stroke="#000000" stroke-width="1" stroke-dasharray="2,1" opacity="0.5"/><line x1="649.55" y1="252.95" x2="621.45" y2="307.65" id="DDS:_soft_edge_right" fill="#dfdfdf" stroke="#000000" stroke-width="1" stroke-dasharray="2,1" opacity="0.5"/></g><polygon points="589.85221,313.82873 589.85221,299.65551 604.02544,299.65551 604.02544,313.82873" id="NLED:_{&quot;colorID&quot;:[0.09804,0.89804,0.90196],&quot;target&quot;:4,&quot;forceTarget&quot;:4}" fill="#19e5e6" stroke="#000000" stroke-width="1" stroke-dasharray="" font-family="sans-serif" font-size="12"/><polygon points="638.96464,314.51435 638.96464,300.34112 653.13787,300.34112 653.13787,314.51435" id="NLED:_{&quot;colorID&quot;:[0.89804,0.90196,0.09804],&quot;target&quot;:4,&quot;forceTarget&quot;:4}" fill="#e5e619" stroke="#000000" stroke-width="1" stroke-dasharray="" font-family="sans-serif" font-size="12"/><polygon points="614.14495,256.84796 614.14495,242.67473 628.31817,242.67473 628.31817,256.84796" id="NLED:_{&quot;colorID&quot;:[0.90196,0.09804,0.76471],&quot;target&quot;:4,&quot;forceTarget&quot;:4}" fill="#e619c3" stroke="#000000" stroke-width="1" stroke-dasharray="" font-family="sans-serif" font-size="12"/><polygon points="614.14495,290.13449 614.14495,275.96126 628.31817,275.96126 628.31817,290.13449" id="NLED:_{&quot;colorID&quot;:[1,1,1],&quot;target&quot;:4}" fill="#ffffff" stroke="#000000" stroke-width="1" stroke-dasharray="" font-family="sans-serif" font-size="12"/></g></g></svg>