<?xml version="1.0" encoding="utf-8"?>
<!-- Generator: Adobe Illustrator 19.2.1, SVG Export Plug-In . SVG Version: 6.00 Build 0)  -->
<svg version="1.1" id="Layer_1" xmlns="http://www.w3.org/2000/svg" xmlns:xlink="http://www.w3.org/1999/xlink" x="0px" y="0px"
	 viewBox="0 0 360 360" style="enable-background:new 0 0 360 360;" xml:space="preserve">
<style type="text/css">
	.st0{fill:none;stroke:#231F20;stroke-width:2;stroke-miterlimit:10;}
</style>
<path id="DIF:G" class="st0" d="M241.3,128.8v227.1H2.4V231h26.3c-6.6,9.3-11,20.3-12.4,32.3c-0.1,0.5-0.2,1.1-0.2,1.7
	c-0.3,2.5-0.4,5.1-0.4,7.8c0,39.2,31.7,70.9,70.9,70.9c12.9,0,25-3.4,35.4-9.5c10.3,5.9,22.3,9.3,35.1,9.3
	c39.2,0,70.9-31.7,70.9-70.9c0-25.9-13.9-48.5-34.6-60.9c-0.2-19.9-8.5-37.9-21.9-50.7h0c-12.7-12.2-30-19.7-49-19.7
	c-0.2,0-0.4,0-0.6,0v-12.4H241.3z"/>
<path id="DIF:F" class="st0" d="M47.6,306.2l-13.3,13.5c-11.5-12.6-18.5-29.4-18.5-47.8c0-2.3,0.1-4.6,0.3-6.9
	c0-0.6,0.1-1.1,0.2-1.7c1.6-12,6.1-23,12.9-32.3h40.2c-22.5,0-40.8,18.2-40.8,40.8C28.7,286.2,36.3,298.9,47.6,306.2z"/>
<path id="DDS:E" class="st0" d="M228,272.5c0,39.2-31.7,70.9-70.9,70.9c-12.8,0-24.7-3.3-35.1-9.3c21.2-12.3,35.5-35.2,35.5-61.4
	c0-26.3-14.3-49.3-35.6-61.5l71.5,0.4C214.1,224,228,246.6,228,272.5z"/>
<path id="DDS:D" class="st0" d="M193.4,211.6l-71.5-0.4l49.6-50.3h0C184.9,173.7,193.2,191.7,193.4,211.6z"/>
<path id="DIF:C" class="st0" d="M121.9,128.8v12.4c-38.2,0.3-69.2,30.9-70.3,69c-9.1,5.2-16.9,12.3-22.9,20.8H2.4V128.8H121.9z"/>
<path id="DDS:B" class="st0" d="M157.5,272.7c0,26.2-14.3,49.2-35.5,61.4c-10.4,6-22.5,9.5-35.4,9.5c-39.2,0-70.9-31.7-70.9-70.9
	c0-2.6,0.1-5.2,0.4-7.8c-0.2,2.3-0.3,4.5-0.3,6.9c0,18.4,7,35.2,18.5,47.8l13.3-13.5c6.3,4,13.8,6.3,21.8,6.3
	c22.5,0,40.8-18.2,40.8-40.8c0-8.2-2.4-15.8-6.6-22.2l18.3-18.5H29.3c-6.8,9.3-11.4,20.3-12.9,32.3c1.4-11.9,5.8-22.9,12.4-32.3
	c6-8.5,13.8-15.6,22.9-20.8c1.1-38.1,32.1-68.7,70.3-69c0.2,0,0.4,0,0.6,0c19,0,36.3,7.5,49,19.7l-49.6,50.3
	C143.2,223.4,157.5,246.4,157.5,272.7z"/>
<path id="DIF:A" class="st0" d="M103.6,249.5c4.2,6.4,6.6,14,6.6,22.2c0,22.5-18.2,40.8-40.8,40.8c-8,0-15.5-2.3-21.8-6.3
	c-11.4-7.2-18.9-19.9-18.9-34.4c0-22.5,18.2-40.8,40.8-40.8h52.4L103.6,249.5z"/>
</svg>
