<svg x="0" y="0" width="1242" height="703" version="1.1" xmlns="http://www.w3.org/2000/svg" xmlns:xlink="http://www.w3.org/1999/xlink"><g transform=""><g fill="none" stroke="#000000" stroke-width="none" stroke-linecap="butt" stroke-linejoin="miter" stroke-miterlimit="10" stroke-dasharray="none" stroke-dashoffset="0" font-family="none" font-weight="normal" font-size="none" text-anchor="start" mix-blend-mode="normal"><g id="Layer_1" fill="#dfdfdf" font-family="&quot;Helvetica Neue&quot;, Helvetica, Arial, sans-serif" font-size="14"><path d="M677.65,207.56709c-13,-16.7 -33.2,-27.5 -56.2,-27.4c-18.1,0 -34.7,6.8 -47.2,18l-1,0.1c-5.8,1.1 -11.5,2.9 -17,5.5c-32.1,15.1 -47.6,51.1 -37.9,84.1c0,0.1 0.1,0.2 0.1,0.3c-1.6,4.7 -2.7,9.6 -3.2,14.7c-0.2,2.3 -0.3,4.6 -0.3,6.9c0,30 18.6,55.7 45,66l1.2,1.3c20.1,24.4 54.9,33.1 84.8,19c7.9,-3.7 14.8,-8.7 20.6,-14.6c0.3,-0.3 0.7,-0.6 1,-1l0,0c30.8,-4.9 55,-29.8 59,-61c0,-0.3 0.1,-0.6 0.1,-0.9c0.3,-2.3 0.4,-4.7 0.4,-7.2c0,-6.6 -0.9,-13 -2.6,-19.1c0.1,-0.3 0.2,-0.5 0.2,-0.7c3.7,-15.1 2.4,-31.5 -4.8,-46.7c-8.5,-18.1 -23.7,-30.9 -41.2,-36.9c-0.4,-0.1 -0.8,-0.2 -1,-0.4" id="DIF:_outline" stroke-width="3" stroke-dasharray=""/><path d="M654.15,290.36709c-3.8,11.6 -10.7,22.1 -20,30.5c-4,0.7 -8,1 -12.2,1c-7.7,0 -15,-1.2 -22,-3.5c-3.1,-4 -5.8,-8.5 -8.1,-13.2c-1.7,-3.6 -3.1,-7.3 -4.1,-11.1c3.1,-12.4 9.4,-23.4 18.1,-32.2c11.9,-1.8 24,-0.4 35,3.7c6,7.2 10.6,15.6 13.3,24.8z" id="DDS:_center" stroke-width="1" stroke-dasharray="2,1" opacity="0.5"/><path d="M727.45,311.36709c0,2.5 -0.1,4.9 -0.4,7.2c0,0.3 -0.1,0.6 -0.1,0.9c-4,31.2 -28.2,56.1 -59.1,61c10.7,-11.4 17.3,-26.1 18.8,-41.5c1.2,-12.3 -0.8,-25.1 -6.4,-37.1c-1,-2.1 -2.1,-4.2 -3.3,-6.2c-5.1,-8.6 -11.8,-15.7 -19.5,-21.3c-5.1,-3.7 -10.7,-6.6 -16.6,-8.8c-11,-4.1 -23.1,-5.5 -35,-3.7c4.7,-4.9 10.2,-9 16.1,-12.4c9,-5.1 19.3,-8.2 30.3,-8.9c1.4,-0.1 2.9,-0.1 4.3,-0.1c13.3,0 25.7,3.6 36.3,10c15.4,9.2 27.1,24.1 32,41.8c1.7,6.1 2.6,12.5 2.6,19.1z" id="DIF:_petal" stroke-width="3" stroke-dasharray=""/><path d="M725.05,291.56709c0,0.2 -0.1,0.4 -0.2,0.7c-4.9,-17.7 -16.6,-32.6 -32,-41.8c-10.6,-6.3 -23,-10 -36.3,-10c-1.5,0 -2.9,0 -4.3,0.1c-10.9,0.7 -21.2,3.8 -30.3,8.9c-6,3.3 -11.4,7.5 -16.1,12.4c-8.6,8.8 -15,19.9 -18.1,32.2c-2.4,-8.6 -3.1,-17.4 -2.3,-26c1,-9.8 4,-19.3 8.8,-27.8c7,-12.4 17.8,-22.9 31.7,-29.4c0.6,-0.3 1.2,-0.5 1.8,-0.8c16.5,-7.2 34.4,-7.6 50.3,-2.4c0.3,0.1 0.7,0.2 1,0.3c17.5,6 32.7,18.8 41.2,36.9c7.2,15.2 8.5,31.6 4.8,46.7z" id="DDS:_petal_2" stroke-width="1" stroke-dasharray="2,1" opacity="0.5"/><path d="M678.05,207.56709c-16,-5.2 -33.8,-4.8 -50.3,2.4c-0.6,0.3 -1.2,0.5 -1.8,0.8c-13.9,6.5 -24.7,17 -31.7,29.4c-4.8,8.5 -7.8,18 -8.8,27.8c-0.8,8.6 -0.1,17.4 2.3,26c1,3.7 2.4,7.5 4.1,11.1c2.2,4.8 5,9.2 8.1,13.2c-5.1,-1.6 -9.9,-3.8 -14.3,-6.5c-10.1,-6 -18.6,-14.5 -24.6,-24.6c-6.4,-10.6 -10,-23.1 -10,-36.3c0,-0.6 0,-1.3 0,-1.9c0,-0.3 0,-0.6 0,-0.8l0,0c0,-1.2 0.1,-2.3 0.2,-3.5c0,-0.3 0,-0.6 0.1,-0.9c1.8,-18.1 10.5,-34.2 23.3,-45.6c12.5,-11.2 29.1,-18 47.2,-18c23,-0.1 43.3,10.7 56.2,27.4z" id="DIF:_petal_3" stroke-width="3" stroke-dasharray=""/><path d="M634.15,320.86709c-5,4.5 -10.8,8.3 -17.2,11.3c-0.6,0.3 -1.2,0.5 -1.8,0.8c-7.8,3.4 -16,5.3 -24.1,5.8c-16.3,1 -32.5,-3.7 -45.6,-13.2c-9.5,-6.8 -17.5,-16.1 -22.8,-27.5c-1.5,-3.2 -2.8,-6.5 -3.8,-9.9c0,-0.1 -0.1,-0.2 -0.1,-0.3c-9.7,-33 5.8,-69 37.9,-84.1c5.5,-2.6 11.2,-4.4 17,-5.5c-12.4,11.6 -20.6,27.5 -22.2,45.4c0,0.3 -0.1,0.6 -0.1,0.9c-0.1,1.2 -0.2,2.4 -0.2,3.5c0,0.3 0,0.6 0,0.8c0,0.6 0,1.3 0,1.9c0,13.3 3.6,25.7 10,36.3c6,10.1 14.5,18.5 24.6,24.6c4.5,2.7 9.3,4.9 14.3,6.5c6.9,2.3 14.3,3.5 22,3.5c4.1,0.2 8.2,-0.1 12.1,-0.8z" id="DDS:_petal_4" stroke-width="1" stroke-dasharray="2,1" opacity="0.5"/><path d="M657.15,310.66709c0,0.6 0,1.3 0,1.9c-0.3,11.9 -3.6,23.1 -9.1,32.9c-6.2,11.1 -15.4,20.3 -26.4,26.6c-0.2,-0.1 -0.5,-0.3 -0.7,-0.4c-0.3,0.2 -0.6,0.3 -0.9,0.5c-10,5.4 -21.5,8.5 -33.8,8.5c-9.1,0 -17.9,-1.7 -25.9,-4.9c-26.4,-10.3 -45,-36 -45,-66c0,-2.3 0.1,-4.6 0.3,-6.9c0.5,-5.1 1.6,-10 3.2,-14.7c1,3.3 2.2,6.6 3.8,9.9c5.3,11.4 13.3,20.7 22.8,27.5c13.2,9.4 29.3,14.2 45.6,13.2c8.1,-0.5 16.2,-2.4 24.1,-5.8c0.6,-0.3 1.2,-0.5 1.8,-0.8c6.4,-3 12.1,-6.8 17.2,-11.3c9.3,-8.3 16.1,-18.9 20,-30.5c1.9,6.4 3,13.3 3,20.3z" id="DIF:_petal_5" stroke-width="3" stroke-dasharray=""/><path d="M686.75,338.96709c-1.5,15.4 -8.1,30.1 -18.8,41.5c-0.3,0.4 -0.7,0.7 -1,1c-5.8,5.9 -12.7,10.9 -20.6,14.6c-29.9,14.1 -64.7,5.4 -84.8,-19c7.7,2.9 16,4.4 24.7,4.4c12.6,0 24.4,-3.3 34.6,-9c0.3,-0.2 0.6,-0.3 0.8,-0.5c11,-6.3 20.1,-15.6 26.4,-26.6c5.5,-9.8 8.8,-20.9 9.1,-32.9c0,-0.6 0,-1.3 0,-1.9c0,-7.1 -1,-13.9 -3,-20.3c-2.7,-9.2 -7.3,-17.6 -13.2,-24.8c5.9,2.2 11.5,5.2 16.6,8.8c7.7,5.5 14.4,12.7 19.5,21.3c1.2,2 2.3,4.1 3.3,6.2c5.6,12.1 7.6,24.9 6.4,37.2z" id="DDS:_petal_6" stroke-width="1" stroke-dasharray="2,1" opacity="0.5"/></g><polygon points="625.88447,302.1463 625.88447,287.97308 640.0577,287.97308 640.0577,302.1463" id="NLED:_{&quot;colorID&quot;:[0.09804,0.10196,0.90196],&quot;target&quot;:3,&quot;forceTarget&quot;:4}" fill="#191ae6" stroke-width="1" stroke-dasharray="" font-family="sans-serif" font-size="12"/><polygon points="651.69752,367.27546 651.69752,353.10223 665.87075,353.10223 665.87075,367.27546" id="NLED:_{&quot;colorID&quot;:[0.90196,0.49804,0.09804],&quot;target&quot;:3,&quot;forceTarget&quot;:10}" fill="#e67f19" stroke-width="1" stroke-dasharray="" font-family="sans-serif" font-size="12"/><polygon points="534.84366,296.27118 534.84366,282.09795 549.01689,282.09795 549.01689,296.27118" id="NLED:_{&quot;colorID&quot;:[0.90196,0.49804,0.09804],&quot;target&quot;:3,&quot;forceTarget&quot;:8}" fill="#e67f19" stroke-width="1" stroke-dasharray="" font-family="sans-serif" font-size="12"/><polygon points="650.27804,231.56009 650.27804,217.38686 664.45127,217.38686 664.45127,231.56009" id="NLED:_{&quot;colorID&quot;:[0.90196,0.49804,0.09804],&quot;target&quot;:3,&quot;forceTarget&quot;:6}" fill="#e67f19" stroke-width="1" stroke-dasharray="" font-family="sans-serif" font-size="12"/><polygon points="602.62843,287.61822 602.62843,273.44499 616.80165,273.44499 616.80165,287.61822" id="NLED:_{&quot;colorID&quot;:[0.09804,0.10196,0.90196],&quot;target&quot;:3,&quot;forceTarget&quot;:4}" fill="#191ae6" stroke-width="1" stroke-dasharray="" font-family="sans-serif" font-size="12"/></g></g></svg>