<?xml version="1.0" encoding="utf-8"?>
<!-- Generator: Adobe Illustrator 19.2.1, SVG Export Plug-In . SVG Version: 6.00 Build 0)  -->
<svg version="1.1" id="Layer_1" xmlns="http://www.w3.org/2000/svg" xmlns:xlink="http://www.w3.org/1999/xlink" x="0px" y="0px"
	 viewBox="0 0 1728 864" style="enable-background:new 0 0 1728 864;" xml:space="preserve">
<style type="text/css">
	.st0{opacity:0.5;fill:#E0E0DF;stroke:#010101;stroke-miterlimit:10;stroke-dasharray:2,1;enable-background:new    ;}
</style>
<path id="DIF:_bear_outline" class="st0" d="M931.4,414c2.6,7.5,4,15.5,4,23.9c0,39.9-32.3,72.2-72.2,72.2
	c-39.9,0-72.2-32.3-72.2-72.2c0-8.4,1.4-16.5,4.1-24c-13.3-3.1-23.1-15-23.1-29.2c0-16.6,13.4-30,30-30c12.8,0,23.6,7.9,28,19.1
	c10-5.2,21.3-8.1,33.2-8.1c12.2,0,23.7,3,33.7,8.3c4.3-11.3,15.2-19.3,28.1-19.3c16.6,0,30,13.4,30,30
	C955,399.1,944.9,411.1,931.4,414z"/>
</svg>
