<?xml version="1.0" encoding="utf-8"?>
<!-- Generator: Adobe Illustrator 19.2.1, SVG Export Plug-In . SVG Version: 6.00 Build 0)  -->
<svg version="1.1" id="Layer_1" xmlns="http://www.w3.org/2000/svg" xmlns:xlink="http://www.w3.org/1999/xlink" x="0px" y="0px"
	 viewBox="0 0 315 315" style="enable-background:new 0 0 315 315;" xml:space="preserve">
<style type="text/css">
	.st0{fill:#DD7FD0;stroke:#000000;stroke-miterlimit:10;enable-background:new    ;}
	.st1{fill:#14DDC5;stroke:#000000;stroke-width:3;stroke-miterlimit:10;}
	.st2{fill:#565656;}
	.st3{fill:none;stroke:#FFE313;stroke-width:4;stroke-miterlimit:10;}
	.st4{fill:#191AE6;stroke:#000000;stroke-miterlimit:10;}
	.st5{fill:#E67F19;stroke:#000000;stroke-miterlimit:10;}
	.st6{fill:#180C91;}
	.st7{fill:#FFE313;}
</style>
<circle id="BASE:_base_path" cx="157.5" cy="157.5" r="157.5"/>
<path id="DIF:_MAIN_OUTLINE_1_" class="st0" d="M214.1,69.1c-12.9-16.7-33.2-27.5-56.2-27.4c-18.1,0-34.7,6.8-47.2,18l-0.9,0.1
	c-5.8,1.1-11.5,2.9-17,5.5c-32.1,15.1-47.6,51.1-37.9,84.1c0,0.1,0.1,0.2,0.1,0.3c0,0,0,0.1,0,0.1c0,0,0-0.1,0-0.1
	c-1.6,4.7-2.7,9.6-3.2,14.7c-0.2,2.3-0.3,4.6-0.3,6.9c0,30,18.6,55.7,45,66l1.2,1.3c20.1,24.4,54.9,33.1,84.8,19
	c7.9-3.7,14.8-8.7,20.6-14.6c0.3-0.3,0.7-0.6,1-1c0,0,0,0,0,0c30.8-4.9,55-29.8,59-61c0-0.3,0.1-0.6,0.1-0.9
	c0.3-2.3,0.4-4.7,0.4-7.2c-0.1-6.6-1-13-2.6-19.1c0-0.1,0-0.1,0-0.2c0.1-0.2,0.1-0.4,0.1-0.5c3.8-15.1,2.5-31.5-4.8-46.7
	c-8.5-18.1-23.7-30.9-41.2-36.9c-0.3-0.1-0.7-0.2-1-0.3"/>
<path id="DDS:_dds" class="st1" d="M256.3,105.8c-8.5-18.1-23.7-30.9-41.2-36.9c-0.4-0.1-0.7-0.1-0.8-0.3c-0.1,0.2-0.2,0.3-0.3,0.5
	c-16-5.2-33.8-4.8-50.3,2.4c-0.6,0.3-1.2,0.5-1.8,0.8c-13.9,6.5-24.7,17-31.7,29.4c-4.8,8.5-7.8,18-8.8,27.8
	c-0.8,8.6-0.1,17.4,2.3,26c1,3.7,2.4,7.5,4.1,11.1c2.2,4.8,5,9.2,8.1,13.2c-5.1-1.6-9.9-3.8-14.3-6.5c-10.1-6-18.6-14.5-24.6-24.6
	c-6.4-10.6-10-23.1-10-36.3c0-0.6,0-1.3,0-1.9c0-0.3,0-0.6,0-0.8c0-1.2,0.1-2.3,0.2-3.5c0-0.3,0-0.6,0.1-0.9
	c1.8-18.1,10.5-34.2,23.3-45.6c0.9-0.8,0.9-1.4,0.1-0.6l-1,0.1c-5.8,1.1-11.5,2.9-17,5.5c-32.1,15.1-47.6,51.1-37.9,84.1
	c0,0.1,0.1,0.2,0.1,0.3c-0.1-0.3,0,0.6,0,0.6c1,3.3,2.2,6.6,3.8,9.9C64,171,72,180.3,81.5,187.1c13.2,9.4,29.3,14.2,45.6,13.2
	c8.1-0.5,16.2-2.4,24.1-5.8c0.6-0.3,1.2-0.5,1.8-0.8c6.4-3,12.1-6.8,17.2-11.3c9.3-8.3,16.1-18.9,20-30.5c1.8,6.4,2.9,13.3,3,20.3
	c0,0.6,0,1.3,0,1.9c-0.3,11.9-3.6,23.1-9.1,32.9c-6.2,11.1-15.4,20.3-26.4,26.6c-0.2-0.1-0.5-0.3-0.7-0.4c-0.3,0.2-0.6,0.3-0.9,0.5
	c-10,5.4-21.5,8.5-33.8,8.5c-8.8,0-17.2-1.6-25-4.6l0.3,0.3c20.1,24.4,54.9,33.1,84.8,19c7.9-3.7,14.8-8.7,20.6-14.6
	c0.3-0.3,0.7-0.6,1-1c0.2,0,0.4-0.1,0.6-0.1c10.3-11.3,16.7-25.7,18.1-40.8c1.2-12.3-0.8-25.1-6.4-37.1c-1-2.1-2.1-4.2-3.3-6.2
	c-5.1-8.6-11.8-15.7-19.5-21.3c-5.1-3.7-10.7-6.6-16.6-8.8c-11-4.1-23.1-5.5-35-3.7c4.7-4.9,10.2-9,16.1-12.4
	c9-5.1,19.3-8.2,30.3-8.9c1.4-0.1,2.9-0.1,4.3-0.1c13.3,0,25.7,3.6,36.3,10c15.4,9.2,27.1,24.1,32,41.8c0,0,0.1-0.9,0.1-0.8
	c0.1-0.2,0.1-0.4,0.1-0.5C264.8,137.4,263.5,121,256.3,105.8z"/>
<path id="NUT:_nut_1_" class="st2" d="M16,155.6c0-4.8,3.9-8.7,8.7-8.7s8.7,3.9,8.7,8.7c0,4.8-3.9,8.7-8.7,8.7S16,160.4,16,155.6z"
	/>
<path id="NUT:_nut_2_" class="st2" d="M279,155.6c0-4.8,3.9-8.7,8.7-8.7s8.7,3.9,8.7,8.7c0,4.8-3.9,8.7-8.7,8.7S279,160.4,279,155.6
	z"/>
<path id="NUT:_nut_3_" class="st2" d="M143.1,22.2c0-4.8,3.9-8.7,8.7-8.7s8.7,3.9,8.7,8.7s-3.9,8.7-8.7,8.7S143.1,27,143.1,22.2z"/>
<path id="CP:_CircuitPath" class="st3" d="M145,286.8c-13.6,1.9-36.8,2.8-56-10.7c-39.2-27.4-41-99.9-8.7-144
	c17-23.2,55.5-59.2,96-46c23.7,7.7,41.6,28.6,47.3,51.3c13.2,52.1-40.9,95.8-46.7,92.7c-4.2-2.3,16.7-28.9,7.3-54.7
	c-9.3-25.7-44.1-37.5-76.7-43.3"/>
<polygon id="NLED:_x5F__x7B__x22_colorID_x22_:_x5B_0.09804_x2C_0.10196_x2C_0.90196_x5D__x2C__x22_target_x22_:3_x2C__x22_forceTarget_x22_:4_x7D_" class="st4" points="
	160.9,163.6 160.9,149.5 175.1,149.5 175.1,163.6 "/>
<polygon id="NLED:_x5F__x7B__x22_colorID_x22_:_x5B_0.90196_x2C_0.49804_x2C_0.09804_x5D__x2C__x22_target_x22_:3_x2C__x22_forceTarget_x22_:10_x7D_" class="st5" points="
	186.7,228.8 186.7,214.6 200.9,214.6 200.9,228.8 "/>
<polygon id="NLED:_x5F__x7B__x22_colorID_x22_:_x5B_0.90196_x2C_0.49804_x2C_0.09804_x5D__x2C__x22_target_x22_:3_x2C__x22_forceTarget_x22_:8_x7D_" class="st5" points="
	69.8,157.8 69.8,143.6 84,143.6 84,157.8 "/>
<polygon id="NLED:_x5F__x7B__x22_colorID_x22_:_x5B_0.90196_x2C_0.49804_x2C_0.09804_x5D__x2C__x22_target_x22_:3_x2C__x22_forceTarget_x22_:6_x7D_" class="st5" points="
	185.3,93.1 185.3,78.9 199.5,78.9 199.5,93.1 "/>
<polygon id="NLED:_x5F__x7B__x22_colorID_x22_:_x5B_0.09804_x2C_0.10196_x2C_0.90196_x5D__x2C__x22_target_x22_:3_x2C__x22_forceTarget_x22_:4_x7D__1_" class="st4" points="
	137.6,149.1 137.6,134.9 151.8,134.9 151.8,149.1 "/>
<g>
	<path id="MC:_micro" class="st6" d="M274.4,263.1h-61.8h-25.9h-73.8v42.3h73.8h25.2h0.7v-0.3C236.5,296.2,257.6,281.6,274.4,263.1z
		"/>
	<polygon id="BI:_Breakin_1_" class="st7" points="124,293.2 124,291 124,289.5 124,285 124,283.5 124,279 124,273 112.9,273 
		112.9,277.1 112.9,279 112.9,283.5 112.9,285 112.9,289.5 112.9,291 112.9,293.2 112.9,295.5 124,295.5 	"/>
</g>
</svg>
