<svg x="0" y="0" width="1243" height="659" version="1.1" xmlns="http://www.w3.org/2000/svg" xmlns:xlink="http://www.w3.org/1999/xlink"><g transform=""><g fill="none" stroke="#000000" stroke-width="none" stroke-linecap="butt" stroke-linejoin="miter" stroke-miterlimit="10" stroke-dasharray="none" stroke-dashoffset="0" font-family="&quot;Helvetica Neue&quot;, Helvetica, Arial, sans-serif" font-weight="normal" font-size="14" text-anchor="start" mix-blend-mode="normal"><g><g><g><g id="Layer_1"><g><g><g id="Layer_1_1_" fill="#dfdfdf"><g><path d="M709.88333,349.56968c-6.5,6.6 -11,11.3 -15.8,15.9c-2.6,2.5 -5.5,4.9 -8.3,7.2c-2.2,1.8 -4.5,3.6 -6.8,5.3c-3.4,2.5 -6.9,5.1 -10.4,7.5c-2.7,1.8 -5.4,3.6 -8.2,5.3c-3.6,2.2 -7.3,4.3 -11.1,6.4c-3.2,1.8 -6.5,3.4 -9.8,5c-3.1,1.5 -6.4,2.7 -9.5,4c-2.1,0.9 -4.1,1.8 -6.2,2.5c-3,1.1 -6,2 -9.1,2.9c-2.5,0.8 -5,1.5 -7.5,2.1c-2.6,0.7 -5.3,1.2 -8,1.8c-2.4,0.5 -4.7,1.1 -7.1,1.4c-4.3,0.6 -8.5,1.1 -12.8,1.4c-4.9,0.3 -9.9,0.5 -14.8,0.3c-4,-0.2 -7.9,-1 -11.9,-1.6c-6.6,-1 -12.9,-2.8 -19.1,-5.2c-10.9,-4.2 -20.5,-10.2 -29,-18.3c-5.4,-5.2 -10.4,-10.7 -14.1,-17.2c-2.4,-4.2 -5,-8.4 -6.7,-12.9c-2.2,-5.9 -3.8,-12 -5.3,-18c-1,-4.3 -1.6,-8.8 -2.1,-13.2c-0.4,-4 -0.4,-8 -0.4,-12c0,-3.5 0.1,-6.9 0.3,-10.4c0.2,-3.2 0.7,-6.4 1.2,-9.7c0.3,-2.5 0.6,-5.1 1.1,-7.6c0.5,-2.7 1.1,-5.4 1.8,-8c0.7,-3.1 1.5,-6.1 2.3,-9.1c0.6,-2.1 1.3,-4.2 2,-6.3c1.4,-4 2.9,-7.9 4.4,-11.8c0.5,-1.4 1.2,-2.7 1.8,-4c0.7,-1.5 1.3,-2.9 2,-4.4c1.8,-3.6 3.4,-7.3 5.3,-10.9c1.4,-2.7 3,-5.2 4.5,-7.8c2.5,-4 5,-8 7.5,-11.9c1.2,-1.9 2.5,-3.9 3.9,-5.7c3,-4 6.1,-7.8 9,-11.8c5.7,-7.7 12.5,-14.4 19.2,-21.2c4,-4.1 8.4,-7.8 12.7,-11.7c2,-1.8 4.1,-3.4 6.1,-5c2.2,-1.7 4.4,-3.4 6.6,-5c3.2,-2.3 6.5,-4.6 9.8,-6.7c2.6,-1.7 5.2,-3.3 7.8,-4.8c3.4,-2 6.9,-3.9 10.4,-5.8c3.1,-1.6 6.3,-3.2 9.5,-4.6c4.1,-1.8 8.3,-3.5 12.5,-5.1c2.9,-1.2 5.9,-2.3 8.9,-3.2c3.3,-1 6.7,-1.8 10,-2.7c2.5,-0.6 5,-1.3 7.5,-1.8c3,-0.6 6.1,-1 9.2,-1.4c2.8,-0.4 5.5,-0.8 8.3,-1c3.3,-0.2 6.6,-0.5 9.9,-0.4c4.3,0 8.5,0.2 12.8,0.5c2.4,0.2 4.7,0.8 7.1,1.2c7,1.3 13.8,3.1 20.4,5.9c6.9,3 13.5,6.6 19.5,11.1c3.9,2.9 7.3,6.4 10.7,9.9c4.9,5.1 9,10.8 12.3,17c2,3.8 4.3,7.6 5.6,11.6c1.9,5.6 3.4,11.5 4.7,17.3c1.2,5.5 1.8,11.1 2.5,16.6c0.3,2.1 0,4.3 0,6.4c-0.1,4.3 -0.2,8.6 -0.5,12.8c-0.2,3.3 -0.8,6.5 -1.3,9.8c-0.7,4.2 -1.5,8.4 -2.4,12.6c-0.6,2.9 -1.5,5.8 -2.4,8.7c-0.9,3.2 -1.9,6.5 -2.9,9.7c-0.4,1.3 -1,2.6 -1.5,3.9c-1,2.6 -2,5.2 -3.2,7.8c-1.7,3.9 -3.6,7.8 -5.4,11.7c-1.3,2.8 -2.7,5.5 -4.2,8.2c-1.9,3.4 -4.1,6.8 -6,10.2c-2.5,4.5 -5.3,8.7 -8.4,12.7c-2.2,2.8 -4.2,5.8 -6.4,8.5c-4.6,5.7 -9.4,11.4 -12.5,15.1z" id="DIF:_Boundary" stroke-width="3" stroke-dasharray="2,1"/><path d="M702.68333,344.66968c-5.5,5.5 -9.6,9.8 -14,13.9c-3.2,3 -6.6,5.8 -10,8.7c-1.8,1.5 -3.8,3 -5.7,4.4c-2.1,1.6 -4.2,3.2 -6.3,4.7c-2.9,2 -5.9,4 -8.9,6c-2.7,1.7 -5.3,3.4 -8.1,5c-3.3,1.9 -6.6,3.7 -9.9,5.3c-4,2 -8.1,3.9 -12.2,5.7c-3.5,1.5 -7,2.9 -10.6,4.1c-5.4,1.7 -10.8,3.5 -16.3,4.7c-5.7,1.3 -11.5,2 -17.2,2.9c-6.4,1 -13,0.8 -19.5,0.9c-4.9,0 -9.5,-1.2 -14.2,-2.1c-7.2,-1.4 -14.1,-3.6 -20.7,-6.8c-7.5,-3.6 -14.1,-8.5 -20.2,-14.1c-7.4,-6.8 -12.7,-15.1 -17,-24c-2.2,-4.6 -3.6,-9.7 -4.9,-14.7c-1.3,-5.4 -2.3,-11 -3,-16.5c-0.5,-4.4 -0.4,-9 -0.4,-13.4c0,-3.5 0.3,-7.1 0.6,-10.6c0.2,-2.5 0.7,-5 1.1,-7.5c0.6,-3.5 1.2,-7 1.8,-10.5c0.4,-1.9 0.9,-3.7 1.4,-5.6c0.9,-3.4 1.9,-6.8 2.9,-10.1c0.7,-2.3 1.5,-4.5 2.4,-6.7c1.5,-3.8 3.1,-7.5 4.7,-11.3c1,-2.4 2,-4.7 3.2,-7c1.5,-3 3.1,-6 4.7,-8.9c1.8,-3.3 3.7,-6.4 5.5,-9.7c2.6,-4.6 5.6,-9 8.8,-13.2c1.9,-2.4 3.6,-4.9 5.4,-7.4c6.1,-8.6 13.6,-15.9 20.8,-23.5c3,-3.1 6.4,-6 9.6,-8.9c0.8,-0.8 1.6,-1.6 2.5,-2.3c3.3,-2.8 6.5,-5.6 9.8,-8.2c3.5,-2.7 7.1,-5.3 10.7,-7.8c2.5,-1.7 5,-3.3 7.6,-4.9c3.8,-2.3 7.7,-4.6 11.6,-6.8c3.2,-1.7 6.4,-3.4 9.7,-4.8c3.9,-1.7 7.9,-3.2 11.9,-4.8c2.2,-0.9 4.4,-1.8 6.7,-2.6c2.7,-0.9 5.4,-1.6 8.1,-2.4c1.8,-0.5 3.7,-1.1 5.6,-1.5c4,-0.8 7.9,-1.7 11.9,-2.4c2.9,-0.5 5.9,-0.9 8.8,-1.1c3.7,-0.3 7.4,-0.4 11.1,-0.3c4.8,0.1 9.6,0.3 14.3,0.7c2.4,0.2 4.7,1 7,1.5c8.5,1.7 16.6,4.8 24.1,9c7.4,4.2 13.6,9.8 19.4,15.9c5.1,5.4 9.1,11.6 12.5,18.2c2.6,5.2 4.3,10.6 5.6,16.2c1.1,4.7 2,9.5 2.8,14.3c0.7,4.4 0.9,8.8 0.7,13.3c-0.2,3.5 -0.2,7 -0.5,10.5c-0.3,3.3 -0.8,6.6 -1.3,9.9c-0.5,3.5 -1.1,6.9 -1.8,10.4c-0.5,2.7 -1.2,5.3 -2,8c-1,3.4 -2,6.8 -3,10.2c-0.7,2.3 -1.5,4.5 -2.4,6.7c-1.8,4.3 -3.5,8.6 -5.4,12.9c-0.8,1.9 -1.8,3.7 -2.8,5.5c-1.9,3.5 -3.8,6.9 -5.7,10.4c-2,3.4 -3.9,6.8 -6,10c-2.7,4.2 -5.6,8.2 -8.4,12.3c-0.7,1 -1.5,2 -2.3,3c-5.3,6 -10.5,12.3 -14.6,17.2z" id="DDS:_Outer" stroke-width="1" stroke-dasharray="2,1" opacity="0.5"/><path d="M739.18333,271.86968c-2.2,-12 -5.2,-23.6 -11.6,-34.1c-4.1,-6.7 -9.1,-12.7 -16.3,-16.5c-3.9,-2 -8,-2.9 -12.3,-1.6c-2.6,0.8 -4.9,2.4 -6.7,4.6c-3.1,3.8 -4.7,8.3 -5.8,13c-1,4.5 -1.4,9 -1.4,13.5c0,4.2 0.4,8.3 0.7,12.5c0,0.9 -0.1,1.7 -0.1,2.6c-2.8,-0.7 -5.7,-1.4 -8.5,-2.1c-3.1,-0.7 -6.3,-0.8 -9.3,0.5c-1,0.5 -2.1,1.5 -2.5,2.5c-1.4,3.7 -1.5,7.5 -0.6,11.3c2.1,8.3 5.2,16.3 8.6,24.1c4.1,9.2 8.2,18.4 12.4,27.8c-2.4,-0.9 -4.6,-1.7 -6.8,-2.5c-10.3,-3.7 -20.5,-7.5 -30.9,-11c-4.5,-1.5 -9.3,-2.5 -14,-3.4c-3.4,-0.7 -6.9,-0.9 -10.2,0c-2.1,0.5 -4.2,1.5 -5.1,3.6c-0.5,1.2 -0.5,2.7 -0.5,4c0,3.2 1,6.2 2.1,9.1c0.5,1.2 0.9,2.4 1.4,3.6c0.3,0.8 0.3,1.2 -0.8,1.2c-2.2,-0.1 -4.3,-0.1 -6.5,0c-3.9,0.2 -7.9,0.2 -11.8,0.7c-3.3,0.4 -6.6,1.1 -9.8,1.8c-1.7,0.4 -3.4,1 -5,1.8c-4.1,2 -7.7,4.5 -10,8.5c-2.7,4.8 -2.2,9.6 0.4,14.4c2.9,5.3 7.2,9.1 12,12.4c6.8,4.8 14.4,7.8 22.5,9.8c5.8,1.5 11.6,2.5 17.6,2.8c0.3,0 0.7,0 1.1,0.3c-1.4,0.7 -2.8,1.4 -4.3,2.1c-1.5,0.7 -3.1,1.4 -4.6,2c-4.1,1.5 -8.3,3.1 -12.4,4.5c-2.7,0.9 -5.4,1.9 -8.2,2.6c-3.3,0.9 -6.6,1.6 -10,2.2c-3.6,0.7 -7.2,1.2 -10.8,1.7c-3,0.3 -6.1,0.6 -9.2,0.5c-5.3,-0.2 -10.6,-0.6 -15.8,-1.3c-9.3,-1.3 -18.2,-4 -26.7,-8.3c-10.1,-5.1 -18.8,-11.8 -24.9,-21.4c-4.5,-7 -7.8,-14.6 -9.6,-22.8c-1.1,-4.8 -2,-9.7 -2.5,-14.6c-0.5,-4.4 -0.6,-8.8 -0.5,-13.2c0.1,-5.1 0.5,-10.1 1.1,-15.1c0.4,-3.5 1.2,-7 1.9,-10.5c1,-4.5 2,-9.1 3.2,-13.5c0.7,-2.6 1.7,-5 2.5,-7.5c1.1,-3.3 2.2,-6.6 3.4,-9.9c0.5,-1.4 1.1,-2.7 1.7,-4c1.2,-2.8 2.5,-5.6 3.7,-8.4c0.6,-1.4 1.1,-2.8 1.6,-4.2c0.1,-0.4 0.5,-0.6 0.9,-1.1c0.6,2.4 1.1,4.6 1.6,6.9c1.9,8.1 4.7,15.8 9.8,22.5c4.7,6.1 11,9.7 18.6,10.6c3,0.4 6.1,-0.5 9.1,-0.9c3.3,-0.4 6.4,-1.8 9.1,-3.6c4,-2.7 7.4,-6.1 9.8,-10.4c0.9,-1.6 1.2,-3.7 1.1,-5.6c-0.4,-9.6 -4.4,-18 -10.5,-25.2c-5.8,-6.9 -12.2,-13.3 -18.3,-19.9c-2.3,-2.5 -4.6,-5 -6.9,-7.5c-0.2,-0.2 -0.3,-0.4 -0.4,-0.6c-0.1,-0.4 -0.2,-0.8 -0.3,-1.2c0.4,0 0.9,-0.2 1.3,-0.1c2.5,0.9 5.1,1.7 7.6,2.7c1.4,0.6 2.8,1.3 4.2,1.9c1.9,0.9 3.4,0.5 4.3,-1.4c1.4,-3.1 4,-5.3 6.3,-7.7c0.9,-0.9 2.1,-1.7 3.1,-2.4c1.8,-1.3 2.2,-2.7 1,-5c-1.6,-3.1 -3.2,-6.3 -4.8,-9.4c-0.4,-0.7 -0.6,-1.5 -0.9,-2.2c0.2,-0.1 0.3,-0.3 0.5,-0.4c1.4,0.9 3,1.6 4.3,2.6c6.5,5.2 13.1,10.4 19.5,15.7c6.3,5.3 13.1,9.7 21,12c3.9,1.2 7.9,2.2 12.1,1.9c3.3,-0.2 6.3,-1.5 8.5,-4.1c2,-2.3 4.2,-4.5 5.9,-7.1c2.1,-3.1 3.1,-6.7 3.7,-10.3c0.6,-3.7 0.4,-7.3 -0.4,-10.9c-1,-4.3 -3.2,-8 -6.2,-11.2c-5.5,-5.8 -12.3,-9.2 -19.9,-11.1c-4,-1 -8,-1.7 -12,-2.5c-1,-0.2 -2,-0.2 -3.3,-0.3c0.4,-0.5 0.7,-0.9 1.1,-1.1c1.6,-0.8 3.2,-1.6 4.8,-2.4c4,-2 7.9,-3.9 11.9,-5.9c2.2,-1.1 4.3,-2.2 6.6,-3.1c3.5,-1.5 7,-2.8 10.5,-4.2c2.9,-1.1 5.8,-2.2 8.8,-3.1c3.4,-1 6.8,-1.9 10.3,-2.7c3,-0.7 6.1,-1.4 9.1,-1.8c3.5,-0.5 7.1,-0.9 10.6,-1.2c3.7,-0.3 7.5,-0.5 11.3,-0.5c4,0.1 8.1,0.3 12.1,0.8c6.5,0.8 12.8,2.4 18.9,4.8c9.1,3.5 17,8.8 23.4,16.2c6.9,7.8 11.8,16.8 15.1,26.6c1.9,5.7 3.5,11.5 4.4,17.4c0.9,5.4 0.9,11 0.9,16.6c0,4.9 -0.3,9.8 -0.8,14.6c-0.4,3.5 -1.2,7 -1.9,10.5c-0.9,3.9 -1.9,7.8 -2.9,11.6c-0.5,1.9 -1.1,3.8 -1.8,5.6c-1,3.1 -2.1,6.1 -3.2,9.2c-0.1,0.6 -0.3,0.9 -0.5,1.3z" id="DIF:_Core" stroke-width="3" stroke-dasharray=""/></g></g><polygon points="509.28333,313.36968 509.28333,299.16968 523.48333,299.16968 523.48333,313.36968" id="NLED:_{&quot;colorID&quot;:[0.93333,0.72157,0.29412],&quot;target&quot;:12}" fill="#ffffff" stroke-width="1" stroke-dasharray=""/><polygon points="576.18333,242.46968 576.18333,228.36968 590.38333,228.36968 590.38333,242.46968" id="NLED:_{&quot;colorID&quot;:[0.93333,0.72157,0.29412],&quot;target&quot;:12}" fill="#ffffff" stroke-width="1" stroke-dasharray=""/><polygon points="636.08333,169.26968 636.08333,155.16968 650.18333,155.16968 650.18333,169.26968" id="NLED:_{&quot;colorID&quot;:[0.93333,0.72157,0.29412],&quot;target&quot;:10}" fill="#ffffff" stroke-width="1" stroke-dasharray=""/><polygon points="530.58333,371.56968 530.58333,357.36968 544.78333,357.36968 544.78333,371.56968" id="NLED:_{&quot;colorID&quot;:[0,0.65882,0.88235],&quot;target&quot;:12}" fill="#ffffff" stroke-width="1" stroke-dasharray=""/><polygon points="618.68333,284.96968 618.68333,270.86968 632.88333,270.86968 632.88333,284.96968" id="NLED:_{&quot;colorID&quot;:[0,0.65882,0.88235],&quot;target&quot;:10}" fill="#ffffff" stroke-width="1" stroke-dasharray=""/><polygon points="706.88333,192.16968 706.88333,177.96968 721.08333,177.96968 721.08333,192.16968" id="NLED:_{&quot;colorID&quot;:[0,0.65882,0.88235],&quot;target&quot;:10}" fill="#ffffff" stroke-width="1" stroke-dasharray=""/><polygon points="535.28333,264.56968 535.28333,250.36968 549.48333,250.36968 549.48333,264.56968" id="NLED:_{&quot;colorID&quot;:[1,1,1],&quot;target&quot;:10}" fill="#ffffff" stroke-width="1" stroke-dasharray=""/><polygon transform="translate(0,0.78707)" points="595.08333,197.66968 595.08333,183.46968 609.28333,183.46968 609.28333,197.66968" id="NLED:_{&quot;colorID&quot;:[1,1,1],&quot;target&quot;:10}" fill="#ffffff" stroke-width="1" stroke-dasharray=""/><polygon points="623.48333,360.56968 623.48333,346.36968 637.58333,346.36968 637.58333,360.56968" id="NLED:_{&quot;colorID&quot;:[1,1,1],&quot;target&quot;:10}" fill="#ffffff" stroke-width="1" stroke-dasharray=""/><polygon points="698.98333,281.86968 698.98333,267.66968 713.18333,267.66968 713.18333,281.86968" id="NLED:_{&quot;colorID&quot;:[1,1,1],&quot;target&quot;:10}" fill="#ffffff" stroke-width="1" stroke-dasharray=""/></g></g></g></g></g></g></g></g></svg>