<svg x="0" y="0" width="1050" height="659" version="1.1" xmlns="http://www.w3.org/2000/svg" xmlns:xlink="http://www.w3.org/1999/xlink"><g transform=""><g fill="none" stroke="none" stroke-width="none" stroke-linecap="butt" stroke-linejoin="miter" stroke-miterlimit="10" stroke-dasharray="none" stroke-dashoffset="0" font-family="none" font-weight="normal" font-size="none" text-anchor="start" mix-blend-mode="normal"><g id="Layer_1" fill="#000000" font-family="&quot;Helvetica Neue&quot;, Helvetica, Arial, sans-serif" font-size="14"><polygon points="405.55,383.05 405.55,155.95 644.45,155.95 644.45,383.05" id="DIF:_boundary 1" stroke="#000000" stroke-width="0" stroke-dasharray=""/><path d="M611.05,217.55l-171.7,0c-6.6,0 -12,-5.4 -12,-12l0,-16.8c0,-6.6 5.4,-12 12,-12l171.7,0c6.6,0 12,5.4 12,12l0,16.8c0,6.6 -5.4,12 -12,12z" id="DDS:_Venn_5_" stroke="#333333" stroke-width="2" stroke-dasharray="2,1" opacity="0.5"/><path d="M453.35,360.15l-14,0c-6.6,0 -12,-5.4 -12,-12l0,-112c0,-6.6 5.4,-12 12,-12l14,0c6.6,0 12,5.4 12,12l0,112c0,6.6 -5.4,12 -12,12z" id="DDS:_Venn_4_" stroke="#333333" stroke-width="2" stroke-dasharray="2,1" opacity="0.5"/><path d="M536.85,292.25l-49.7,0c-6.6,0 -12,-5.4 -12,-12l0,-41.8c0,-6.6 5.4,-12 12,-12l49.8,0c6.6,0 12,5.4 12,12l0,41.8c-0.1,6.6 -5.5,12 -12.1,12z" id="DIF:_Venn" stroke="#ffff00" stroke-width="0" stroke-dasharray=""/><path d="M611.05,360.15l-123.9,0c-6.6,0 -12,-5.4 -12,-12l0,-34.9c0,-6.6 5.4,-12 12,-12l124,0c6.6,0 12,5.4 12,12l0,34.9c-0.1,6.6 -5.5,12 -12.1,12z" id="DIF:_more_box" stroke="#ffff00" stroke-width="0" stroke-dasharray=""/><path d="M611.05,254.65l-41.4,0c-6.6,0 -12,-5.4 -12,-12l0,-3.8c0,-6.6 5.4,-12 12,-12l41.4,0c6.6,0 12,5.4 12,12l0,3.8c0,6.6 -5.4,12 -12,12z" id="DDS:_Venn_1_" stroke="#333333" stroke-width="1" stroke-dasharray="2,1" opacity="0.5"/><path d="M611.05,291.95l-41.4,0c-6.6,0 -12,-5.4 -12,-12l0,-3.8c0,-6.6 5.4,-12 12,-12l41.4,0c6.6,0 12,5.4 12,12l0,3.8c0,6.6 -5.4,12 -12,12z" id="DDS:_Venn" stroke="#333333" stroke-width="1" stroke-dasharray="2,1" opacity="0.5"/><path d="M602.66166,329.53228c-6.24203,-1.17118 -10.35278,-7.18077 -9.1816,-13.4228c1.17118,-6.24203 7.18077,-10.35278 13.4228,-9.1816c6.24203,1.17118 10.35278,7.18077 9.1816,13.4228c-1.17118,6.24203 -7.18077,10.35278 -13.4228,9.1816z" id="DIF:_bound 1" stroke="#000000" stroke-width="0" stroke-dasharray=""/><path d="M584.20758,354.02564c-6.24203,-1.17118 -10.35278,-7.18077 -9.1816,-13.4228c1.17118,-6.24203 7.18077,-10.35278 13.4228,-9.1816c6.24203,1.17118 10.35278,7.18077 9.1816,13.4228c-1.17118,6.24203 -7.18077,10.35278 -13.4228,9.1816z" id="DIF:_bound_1_ 1" stroke="#000000" stroke-width="0" stroke-dasharray=""/><path d="M560.7734,329.5428c-6.24203,-1.17118 -10.35278,-7.18077 -9.1816,-13.4228c1.17118,-6.24203 7.18077,-10.35278 13.4228,-9.1816c6.24203,1.17118 10.35278,7.18077 9.1816,13.4228c-1.17118,6.24203 -7.18077,10.35278 -13.4228,9.1816z" id="DIF:_bound_3_ 1" stroke="#000000" stroke-width="0" stroke-dasharray=""/><path d="M542.33766,353.93778c-6.24203,-1.17118 -10.35278,-7.18077 -9.1816,-13.4228c1.17118,-6.24203 7.18077,-10.35278 13.4228,-9.1816c6.24203,1.17118 10.35278,7.18077 9.1816,13.4228c-1.17118,6.24203 -7.18077,10.35278 -13.4228,9.1816z" id="DIF:_bound_2_ 1" stroke="#000000" stroke-width="0" stroke-dasharray=""/><path d="M518.88514,329.55322c-6.24203,-1.17118 -10.35278,-7.18077 -9.1816,-13.4228c1.17118,-6.24203 7.18077,-10.35278 13.4228,-9.1816c6.24203,1.17118 10.35278,7.18077 9.1816,13.4228c-1.17118,6.24203 -7.18077,10.35278 -13.4228,9.1816z" id="DIF:_bound_5_ 1" stroke="#000000" stroke-width="0" stroke-dasharray=""/><path d="M500.4494,353.9483c-6.24203,-1.17118 -10.35278,-7.18077 -9.1816,-13.4228c1.17118,-6.24203 7.18077,-10.35278 13.4228,-9.1816c6.24203,1.17118 10.35278,7.18077 9.1816,13.4228c-1.17118,6.24203 -7.18077,10.35278 -13.4228,9.1816z" id="DIF:_bound_4_ 1" stroke="#000000" stroke-width="0" stroke-dasharray=""/></g><polygon points="576.63581,323.70363 576.63581,309.5304 590.80904,309.5304 590.80904,323.70363" id="NLED:_{&quot;target&quot;:7}" fill="#ff1c1c" stroke="#ff1c1c" stroke-width="1" stroke-dasharray="" font-family="sans-serif" font-size="12"/><polygon points="534.69122,324.90205 534.69122,310.72882 548.86445,310.72882 548.86445,324.90205" id="NLED:_{&quot;target&quot;:7}" fill="#ffc61c" stroke="#ffc61c" stroke-width="1" stroke-dasharray="" font-family="sans-serif" font-size="12"/><polygon points="505.92922,265.58041 505.92922,251.40719 520.10245,251.40719 520.10245,265.58041" id="NLED:_{&quot;target&quot;:6}" fill="#8eff1c" stroke="#8eff1c" stroke-width="1" stroke-dasharray="" font-family="sans-serif" font-size="12"/><polygon points="438.21866,330.29493 438.21866,316.1217 452.39189,316.1217 452.39189,330.29493" id="NLED:_{&quot;target&quot;:16,&quot;forceTarget&quot;:5}" fill="#1cff55" stroke="#1cff55" stroke-width="1" stroke-dasharray="" font-family="sans-serif" font-size="12"/><polygon points="491.54821,324.30284 491.54821,310.12961 505.72144,310.12961 505.72144,324.30284" id="NLED:_{&quot;target&quot;:7}" fill="#6ebda7" stroke="#6ebda7" stroke-width="1" stroke-dasharray="" font-family="sans-serif" font-size="12"/><polygon points="450.80204,205.65957 450.80204,191.48634 464.97527,191.48634 464.97527,205.65957" id="NLED:_{&quot;target&quot;:16,&quot;forceTarget&quot;:4}" fill="#1c55ff" stroke="#1c55ff" stroke-width="1" stroke-dasharray="" font-family="sans-serif" font-size="12"/><polygon points="583.82631,204.46115 583.82631,190.28792 597.99954,190.28792 597.99954,204.46115" id="NLED:_{&quot;target&quot;:16,&quot;forceTarget&quot;:4}" fill="#8e1cff" stroke="#8e1cff" stroke-width="1" stroke-dasharray="" font-family="sans-serif" font-size="12"/></g></g></svg>