<svg x="0" y="0" width="1242" height="659" version="1.1" xmlns="http://www.w3.org/2000/svg" xmlns:xlink="http://www.w3.org/1999/xlink"><g transform=""><g fill="none" stroke="none" stroke-width="none" stroke-linecap="butt" stroke-linejoin="miter" stroke-miterlimit="10" stroke-dasharray="none" stroke-dashoffset="0" font-family="none" font-weight="normal" font-size="none" text-anchor="start" mix-blend-mode="normal"><g id="Layer_1" font-family="&quot;Helvetica Neue&quot;, Helvetica, Arial, sans-serif" font-size="14"><path d="M692.55,238.75c-0.3,-38.9 -31.9,-70.4 -70.9,-70.4c-38.5,0 -69.8,30.7 -70.9,69c-21.4,12.2 -35.8,35.2 -35.8,61.6c0,39.2 31.7,70.9 70.9,70.9c12.6,0 24.4,-3.3 34.6,-9c10.5,6.2 22.7,9.7 35.8,9.7c39.2,0 70.9,-31.7 70.9,-70.9c0,-25.9 -13.9,-48.5 -34.6,-60.9z" id="DIF:_Venn_Collective" fill="#dfdfdf" stroke="#000000" stroke-width="3" stroke-dasharray=""/><path d="M514.85,299.85c0,-39.15699 31.74301,-70.9 70.9,-70.9c39.15699,0 70.9,31.74301 70.9,70.9c0,39.15699 -31.74301,70.9 -70.9,70.9c-39.15699,0 -70.9,-31.74301 -70.9,-70.9z" id="DDS:_Venn_1_ 1" fill="#dfdfdf" stroke="#000000" stroke-width="1" stroke-dasharray="2,1" opacity="0.5"/><path d="M550.65,240.15c0,-39.15699 31.74301,-70.9 70.9,-70.9c39.15699,0 70.9,31.74301 70.9,70.9c0,39.15699 -31.74301,70.9 -70.9,70.9c-39.15699,0 -70.9,-31.74301 -70.9,-70.9z" id="DDS:_Venn 1" fill="#dfdfdf" stroke="#000000" stroke-width="1" stroke-dasharray="2,1" opacity="0.5"/><path d="M585.25,300.55c0,-39.15699 31.74301,-70.9 70.9,-70.9c39.15699,0 70.9,31.74301 70.9,70.9c0,39.15699 -31.74301,70.9 -70.9,70.9c-39.15699,0 -70.9,-31.74301 -70.9,-70.9z" id="DDS:_Venn_2_ 1" fill="#dfdfdf" stroke="#000000" stroke-width="1" stroke-dasharray="2,1" opacity="0.5"/><polygon points="501.55,383.05 501.55,155.95 740.45,155.95 740.45,383.05" id="BASE:_diagram 1" fill="none" stroke="#231f20" stroke-width="2" stroke-dasharray=""/></g><polygon points="615.89679,296.47125 615.89679,282.29802 630.07002,282.29802 630.07002,296.47125" id="NLED:_{&quot;colorID&quot;:[0.09804,0.23529,0.90196],&quot;target&quot;:3,&quot;forceTarget&quot;:9}" fill="#193ce6" stroke="#000000" stroke-width="1" stroke-dasharray="" font-family="sans-serif" font-size="12"/><polygon points="607.69364,278.74244 607.69364,264.56921 621.86687,264.56921 621.86687,278.74244" id="NLED:_{&quot;colorID&quot;:[0.90196,0.09804,0.09804],&quot;target&quot;:3,&quot;forceTarget&quot;:10}" fill="#e61919" stroke="#000000" stroke-width="1" stroke-dasharray="" font-family="sans-serif" font-size="12"/><polygon points="626.0011,278.90766 626.0011,264.73443 640.17433,264.73443 640.17433,278.90766" id="NLED:_{&quot;colorID&quot;:[0.89804,0.90196,0.09804],&quot;target&quot;:3,&quot;forceTarget&quot;:8}" fill="#e5e619" stroke="#000000" stroke-width="1" stroke-dasharray="" font-family="sans-serif" font-size="12"/></g></g></svg>