<svg x="0" y="0" width="1242" height="703" version="1.1" xmlns="http://www.w3.org/2000/svg" xmlns:xlink="http://www.w3.org/1999/xlink"><g transform=""><g fill="none" stroke="#000000" stroke-width="none" stroke-linecap="butt" stroke-linejoin="miter" stroke-miterlimit="10" stroke-dasharray="none" stroke-dashoffset="0" font-family="none" font-weight="normal" font-size="none" text-anchor="start" mix-blend-mode="normal"><g id="Layer_2" fill="#dfdfdf" font-family="&quot;Helvetica Neue&quot;, Helvetica, Arial, sans-serif" font-size="14"><path d="M560.27739,163.27163c-6.1,6.8 -11.4,14.4 -15.1,23.3c0,0 -30.5,25.5 -36,80.5c-5.5,55 -5,99.5 12,126.5c17,27 51.5,56.5 80,62.5c28.5,6 85,-5.5 95,-30.5c10,-25 38.5,-23.5 39,-84.5c0.5,-61 8,-89.5 -37,-157c0,0 -2.9,-6.7 -7.2,-15" id="DIF:_h3" stroke-width="3" stroke-dasharray=""/><path d="M566.67739,156.77163c9.6,-9.3 20.3,-17 29.5,-24.7c5.6,-4.6 13.6,-6.5 22.4,-6.6" id="DIF:_h4" stroke-width="3" stroke-dasharray=""/><path d="M639.77739,127.87163c12,2.7 23.1,7.1 28.9,10.7c4.8,3 10,9.8 14.6,17.1" id="DIF:_h0" stroke-width="3" stroke-dasharray=""/><path d="M619.37739,348.57163c0,0 7,-6.3 3.8,-10.3c-3.2,-4 -16.2,-15.3 -19.5,-9.7c-3.3,5.6 9,24 15.7,20z" id="DIF:_n3" stroke-width="3" stroke-dasharray=""/><path d="M630.67739,347.27163c0,0 -1.7,-6.7 0,-9.2c1.7,-2.5 11.3,-9.5 14.7,-8.2c3.3,1.3 3.7,4.2 2.7,8.6c-1,4.4 -12.4,14.4 -17.4,8.8z" id="DIF:_n2" stroke-width="3" stroke-dasharray=""/><path d="M578.97739,378.27163c0,0 7.3,8.3 18,7.3c10.7,-1 28,-5.3 37.3,-3.6c9.3,1.6 17.7,5.3 22.7,5.3c5,0 11.3,-1.3 12.7,-4.5" id="DIF:_mouth" stroke-width="3" stroke-dasharray=""/><path d="M598.37739,352.57163c0,0 -5.7,-12 -5.7,-20.7c0,-8.7 8.7,-18.7 22.3,-19c13.7,-0.3 11.2,12.3 11.2,12.3l-0.4,-6c0,0 0.9,-6 7.2,-6.3c6.3,-0.3 20.3,3.3 23,10c0,0 10,14.7 0,28.7l4,-8.3c2.7,2.3 16.3,26.3 16.3,31.7c0,5.3 -2.3,17 -11.7,19.3c-9.3,2.3 -35.7,-3.3 -42.3,-3c-6.7,0.3 -29.7,10 -41.3,0c-11.7,-10 -9,-17.7 -9,-27.7c0,-10 22.3,-24.2 22.3,-24.2" id="DDS:_muzzle" stroke-width="1" stroke-dasharray="2,1" opacity="0.5"/><path d="M658.07739,325.97163c0,0 9.6,-2.8 6.3,-17.4c0,0 26.3,-4.7 28.3,-23.3c2,-18.6 -2.7,-26 -10.3,-30.7c-7.7,-4.7 -24.4,-8.3 -39.2,10.3c-14.8,18.7 -34.4,-2 -36.4,-5.3c-1.6,-2.7 -14.6,-14.7 -26.8,-10.1c-2.8,1.1 -5.6,3 -8.2,6.1c-13.7,16.7 -6.3,37 0,41.3c6.3,4.3 14.9,8.7 17.6,7.7c0,0 -3.3,14.5 9.3,14.7" id="DDS:_face" stroke-width="1" stroke-dasharray="2,1" opacity="0.5"/><path d="M577.07739,250.47163c0,0 -5.1,-10.9 1.9,-15.6c0.9,-0.6 3.1,-1.2 6.2,-1.7l6.7,-39.1l-31.6,-30.8c2,-2.3 4.2,-4.5 6.3,-6.6l39.3,-5.7l12.6,-25.6c6.9,-0.1 14.2,0.9 21.2,2.4l11.4,23.2l32.1,4.7c2.8,4.5 5.4,9.1 7.6,13.4l-25.7,25.1l6.6,38.6c3.3,0.6 5.7,1.3 6.8,2.1c9,6.7 3.7,19.7 3.7,19.7" id="DDS:_H2" stroke-width="1" stroke-dasharray="2,1" opacity="0.5"/><path d="M653.87739,276.07163c0,-3.20325 2.59675,-5.8 5.8,-5.8c3.20325,0 5.8,2.59675 5.8,5.8c0,3.20325 -2.59675,5.8 -5.8,5.8c-3.20325,0 -5.8,-2.59675 -5.8,-5.8z" id="DIF:_e2 1" stroke-width="3" stroke-dasharray=""/><path d="M587.87739,273.97163c0,-2.98234 2.41766,-5.4 5.4,-5.4c2.98234,0 5.4,2.41766 5.4,5.4c0,2.98234 -2.41766,5.4 -5.4,5.4c-2.98234,0 -5.4,-2.41766 -5.4,-5.4z" id="DIF:_e3 1" stroke-width="3" stroke-dasharray=""/><path d="M656.07739,271.57163c0,0 -6.7,6 -7.6,8.7c0,0 6.3,1.9 11.2,1.5c4.9,-0.4 9.3,-2.6 9.3,-5.1c0,-2.5 -2.3,-7.2 -9.3,-6.4z" id="DIF:_e1" stroke-width="3" stroke-dasharray=""/><path d="M591.17739,268.57163c0,0 -6.6,-0.1 -6,6.2c0.6,6.3 8.1,4.5 8.1,4.5c4,1.8 12,-1.4 12,-1.4c-0.5,-3 -8.8,-8.2 -8.8,-8.2z" id="DIF:_eye" stroke-width="3" stroke-dasharray=""/></g><polygon points="619.41195,207.37604 619.41195,193.20282 633.58518,193.20282 633.58518,207.37604" id="NLED:_{&quot;colorID&quot;:[1,1,1],&quot;target&quot;:3,&quot;forceTarget&quot;:11}" fill="#ffffff" stroke-width="1" stroke-dasharray="" font-family="sans-serif" font-size="12"/><polygon points="620.19746,296.92412 620.19746,282.75089 634.37069,282.75089 634.37069,296.92412" id="NLED:_{&quot;colorID&quot;:[1,0,0.41176],&quot;target&quot;:3,&quot;forceTarget&quot;:10}" fill="#ff0069" stroke-width="1" stroke-dasharray="" font-family="sans-serif" font-size="12"/><polygon points="619.41195,373.90405 619.41195,359.73082 633.58518,359.73082 633.58518,373.90405" id="NLED:_{&quot;colorID&quot;:[0.44314,0.09804,0.63137],&quot;target&quot;:3,&quot;forceTarget&quot;:9}" fill="#7119a1" stroke-width="1" stroke-dasharray="" font-family="sans-serif" font-size="12"/><polygon points="543.21753,333.84307 543.21753,319.66984 557.39076,319.66984 557.39076,333.84307" id="NLED:_{&quot;colorID&quot;:[1,0.45098,0.60784],&quot;target&quot;:3}" fill="#ff739b" stroke-width="1" stroke-dasharray="" font-family="sans-serif" font-size="12"/><polygon points="696.39188,337.77061 696.39188,323.59739 710.56511,323.59739 710.56511,337.77061" id="NLED:_{&quot;colorID&quot;:[1,0.45098,0.60784],&quot;target&quot;:3}" fill="#ff739b" stroke-width="1" stroke-dasharray="" font-family="sans-serif" font-size="12"/></g></g></svg>