<svg x="0" y="0" width="1242" height="703" version="1.1" xmlns="http://www.w3.org/2000/svg" xmlns:xlink="http://www.w3.org/1999/xlink"><g fill="none" stroke="#000000" stroke-width="none" stroke-linecap="butt" stroke-linejoin="miter" stroke-miterlimit="10" stroke-dasharray="none" stroke-dashoffset="0" font-family="none" font-weight="normal" font-size="none" text-anchor="start" mix-blend-mode="normal"><g id="bear" fill="#dfdfdf" font-family="&quot;Helvetica Neue&quot;, Helvetica, Arial, sans-serif" font-size="14"><path d="M603.90011,200.81474c0,0 -19.7,0.5 -33.4,33.6l-5.1,5.4c0,0 -9.1,3.8 -9.6,21.7c0,0 -26.8,24.4 -22.7,61.3c0,0 -14.2,47.7 30.3,67.2c0,0 32.8,16.8 57.6,-9.8c0,0 7.6,8.7 15.2,-21.7c0,0 45.5,-4.9 57.6,-65.9l0,-7.9c0,0 30.8,-29.3 10.1,-47.7c0,0 -1.3,18.7 -19.9,29.4l-8.2,-9.5c0,0 8.3,-12.6 9.5,-21.1c0,0 8.3,-21.1 20,-14.4c0,0 -1.6,-13.2 -18.1,-6.9c0,0 -28.7,12.6 -28.5,27.2l-3.5,-4.1l7.5,-17.9c0,0 9.3,-21.5 16.7,-17.4l2.9,0.3c0,0 -0.3,-13.8 -17.2,-7.4c0,0 -19.1,7.6 -25.6,23l-7.2,12.2l-4.2,-2.2l9.1,-22.2c0,0 7.5,-15.5 14.3,-15c0,0 -11.7,-11.2 -29,7.9c0,0 -16.7,21 -18.3,30.6l-9,0c0,0 2.9,-19.3 16.4,-26.8c0.1,0.2 -4,-2.6 -7.7,-1.9z" id="DIF:_paw_x5F_print" stroke-width="3" stroke-dasharray=""/><path d="M661.50011,285.11474c0,0 0.8,-5.1 -3.8,-2.7c0,0 -1.4,0.8 -2.8,-2.5c0,0 -0.6,-1.1 -3.1,0.5c0,0 -3.3,-2.6 -6.7,-3c0,0 -2.4,-0.1 -6.7,-4.2c0,0 -9.6,-8.2 -26.2,0.5c0,0 -23.8,-5.9 -37.1,3.2c0,0 -10,7.4 -12.5,15.1c0,0 0,0.2 0.9,1.1l0.5,0.7c0,0 0.1,0.8 -0.6,1.3c0,0 -0.3,0.2 -0.5,1.7l-0.1,5.4c0,0 -0.1,4 -0.4,5l-1.4,3.4l-1.1,3.4c0,0 -0.6,1.5 -1.4,3.2c0,0 -1.4,2.4 0.3,4.3c0,0 0.7,1 3.1,1.7c0,0 3.6,2 6.1,0.8c0,0 3.1,-0.2 3.7,0.4c0,0 0.8,0.4 0.4,-0.4c0,0 -0.3,-0.8 0.5,-0.2c0,0 0.8,0.6 0.5,-0.4c0,0 -0.2,-0.7 0.6,-0.2c0,0 1.2,0.5 0.5,-0.7l-1.1,-1.1c0,0 -1.2,-1.7 -3.6,-2.1l-1.2,-0.1l-0.9,-0.1c0,0 -2.4,-0.3 -0.1,-1.4l1.6,-0.6c0,0 8.5,-0.8 9.5,-4.5l0.8,-1.7c0,0 0.4,-1.1 1.4,0l1.4,1.3l2,1.6l2,1.8l3,2.8c0,0 1.7,1.6 2.6,3c0,0 1.7,2.6 4.4,2.3c0,0 0.8,-0.1 3,0.2c0,0 1.7,0.4 3.7,-0.1c0,0 3.5,-0.8 4.1,-0.1c0,0 0.3,0.3 0.7,-0.1c0,0 1.7,0.1 1.2,-0.8c0,0 -0.9,-1.1 0.5,-0.3c0,0 1,0.6 0.4,-0.5c0,0 -0.6,-2 -3.4,-2.5c0,0 -3.2,-1.2 -5.1,-0.6c0,0 -0.7,0.4 -0.7,-1l0.2,-7.8c0,0 -0.1,-1.8 -0.4,-2.2c0,0 -0.3,-0.6 0.5,-0.3c0,0 1.6,0.4 4.1,-0.8c0,0 0.3,-0.1 1.1,-0.1l2.1,0c0,0 1.4,0 0.6,0.8l-1.3,1.7l-1.1,2.1c0,0 -0.8,2 -0.3,3.1c0,0 4.6,7.8 7.6,7.9l3.9,-0.1c0,0 0.9,0 1.1,-0.2c0,0 1.8,-0.6 2.2,0.4c0,0 0.4,0.5 0.5,-0.2c0,0 0.2,-0.4 0.5,0c0,0 0.6,0.6 0.6,-0.2c0,0 -0.1,-0.5 0.1,-0.4c0,0 0.4,0 0,-0.5c0,0 -1.2,-1.3 -1.5,-1.3c0,0 -1.4,-1.7 -3.8,-2.1l-1.7,-0.7c0,0 -1.9,-0.8 0.7,-2.4l1.1,-0.6c0,0 1.1,-0.5 2.9,-2.2l2,-2.1c0,0 1.8,-1.9 3.5,0.1l1.4,1.2c0,0 1.2,0.8 2.1,1.8l1.9,2.3c0,0 2.1,2.9 5.1,4.5c0,0 0.7,0.4 2.2,1.7c0,0 0.2,0.4 3.2,1.9c0,0 1.2,0.8 2.8,1c0,0 0.9,0.1 1.3,0.4c0,0 0.4,0.3 3.7,-0.1l4.2,0c0,0 0.7,0.1 0.5,-0.2c0,0 -0.4,-0.4 0.5,-0.1l1.5,0.7c0,0 1.3,0.5 0.5,-0.6c0,0 -1,-1 0.3,-0.5c0,0 1.1,0.6 0.8,-0.3c0,0 -0.2,-0.5 0.8,-0.2c0,0 2.4,0.7 0.6,-0.6l-2.6,-1.5c0,0 -2.9,-1.5 -4.5,-1.6c0,0 -1.9,0.3 -3.5,-2.2c0,0 -1,-2 -4.2,-4.4l-0.8,-0.6c0,0 -1.2,-0.7 -1.3,-2c0,0 -0.1,-0.8 -1,-2.6l-0.4,-1c0,0 -0.1,-0.1 -0.8,-2.5l-0.8,-2.6c0,0 -0.7,-1.4 1,-1c0,0 2.1,0.1 4.2,0.6c0,0 1.7,0.1 5,1.6c3.3,1.4 3.5,1.5 3.5,1.5l4.4,1.8c0,0 1,0.3 1,0.4c0,0.1 3.6,2 4.6,0.9l1.2,-1c0,0 1.1,-0.4 -0.5,-1.6c0,0 -1.1,-0.5 -2.1,-1.6l-0.8,-1c0,0 -1.2,-0.9 0.9,-0.7c0,0 2.1,0.2 3.4,1.1c0,0 0.9,0.8 2.6,0.3c0,0 3.1,-0.4 3.2,-2.2l0,-1.1c0,0 0.4,-0.6 -1.2,-1.2c0,0 -2.7,-1.1 -3.6,-3.6c0,0 -0.5,-1.1 -0.4,-2.6l0,-0.9c0,0 0.4,-1.5 -0.5,-2.9c0,0 -1.6,-2.5 -3.5,-3.4z" id="DDS:_bear" stroke-width="1" stroke-dasharray="2,1" opacity="0.5"/></g><polygon points="636.96856,300.94869 636.96856,286.77546 651.14179,286.77546 651.14179,300.94869" id="NLED:_{&quot;colorID&quot;:[0.89804,0.90196,0.09804],&quot;target&quot;:3,&quot;forceTarget&quot;:4}" fill="#e5e619" stroke-width="1" stroke-dasharray="" font-family="sans-serif" font-size="12"/><polygon points="582.02858,300.45815 582.02858,286.28492 596.2018,286.28492 596.2018,300.45815" id="NLED:_{&quot;colorID&quot;:[0.89804,0.90196,0.09804],&quot;target&quot;:3,&quot;forceTarget&quot;:4}" fill="#e5e619" stroke-width="1" stroke-dasharray="" font-family="sans-serif" font-size="12"/><polygon points="581.0475,245.51817 581.0475,231.34494 595.22073,231.34494 595.22073,245.51817" id="NLED:_{&quot;colorID&quot;:[0.09804,0.36471,0.90196],&quot;target&quot;:3,&quot;forceTarget&quot;:3}" fill="#195de6" stroke-width="1" stroke-dasharray="" font-family="sans-serif" font-size="12"/><polygon points="633.53481,251.4046 633.53481,237.23137 647.70804,237.23137 647.70804,251.4046" id="NLED:_{&quot;colorID&quot;:[0.09804,0.36471,0.90196],&quot;target&quot;:3,&quot;forceTarget&quot;:3}" fill="#195de6" stroke-width="1" stroke-dasharray="" font-family="sans-serif" font-size="12"/><polygon points="677.68301,286.23262 677.68301,272.05939 691.85624,272.05939 691.85624,286.23262" id="NLED:_{&quot;colorID&quot;:[0.09804,0.36471,0.90196],&quot;target&quot;:3}" fill="#195de6" stroke-width="1" stroke-dasharray="" font-family="sans-serif" font-size="12"/><polygon points="553.08698,356.3792 553.08698,342.20598 567.26021,342.20598 567.26021,356.3792" id="NLED:_{&quot;colorID&quot;:[0.09804,0.36471,0.90196],&quot;target&quot;:3}" fill="#195de6" stroke-width="1" stroke-dasharray="" font-family="sans-serif" font-size="12"/><polygon points="595.27303,369.62366 595.27303,355.45044 609.44626,355.45044 609.44626,369.62366" id="NLED:_{&quot;colorID&quot;:[0.09804,0.36471,0.90196],&quot;target&quot;:3}" fill="#195de6" stroke-width="1" stroke-dasharray="" font-family="sans-serif" font-size="12"/></g></svg>