<?xml version="1.0" encoding="utf-8"?>
<!-- Generator: Adobe Illustrator 19.2.1, SVG Export Plug-In . SVG Version: 6.00 Build 0)  -->
<svg version="1.1" id="ELD:_165" xmlns="http://www.w3.org/2000/svg" xmlns:xlink="http://www.w3.org/1999/xlink" x="0px" y="0px"
	 viewBox="0 0 1243 659" style="enable-background:new 0 0 1243 659;" xml:space="preserve">
<style type="text/css">
	.st0{fill:#DFDFDF;stroke:#000000;stroke-width:3;stroke-miterlimit:10;}
	.st1{display:none;fill:#FFFFFF;stroke:#000000;stroke-miterlimit:10;}
	.st2{fill:#FFFFFF;stroke:#000000;stroke-miterlimit:10;}
	.st3{fill:#294DFF;}
	.st4{fill:#FFE313;}
	.st5{fill:none;stroke:#294DFF;stroke-width:4;stroke-miterlimit:10;}
	.st6{fill:#8E8A00;}
</style>
<path id="BASE:_base_path" d="M760.4,377.2c39-27.9,60.5-65.6,60.5-106.1S799.4,193,760.4,165c-37.3-26.7-86.6-41.4-138.9-41.4
	c-52.2,0-101.6,14.7-138.9,41.4c-39,27.9-60.5,65.6-60.5,106.1s21.5,78.2,60.5,106.1c9.9,7.1,20.7,13.4,32.2,18.7h-63.7v59h340.8
	v-59h-63.7C739.6,390.6,750.4,384.3,760.4,377.2z"/>
<path id="DIF:_Boundary" class="st0" d="M627.4,388.6c-9.3,0.1-15.8,0.2-22.4,0.1c-3.6-0.1-7.4-0.4-11-0.8c-2.8-0.3-5.7-0.6-8.6-1.1
	c-4.2-0.6-8.5-1.3-12.7-2.1c-3.2-0.6-6.4-1.3-9.5-2.1c-4.1-1-8.2-2.1-12.4-3.3c-3.5-1-7-2.2-10.5-3.4c-3.3-1.1-6.4-2.6-9.5-3.9
	c-2.1-0.8-4.2-1.6-6.2-2.6c-2.9-1.3-5.7-2.8-8.5-4.4c-2.3-1.2-4.6-2.5-6.8-3.8c-2.3-1.3-4.6-2.9-6.9-4.4c-2.1-1.3-4.1-2.5-6-4
	c-3.5-2.6-6.8-5.2-10-8.1c-3.7-3.3-7.4-6.6-10.7-10.3c-2.7-3-4.9-6.3-7.3-9.5c-4-5.4-7.1-11.1-9.8-17.2c-4.7-10.7-7.3-21.7-7.6-33.4
	c-0.1-7.5,0.2-14.9,2.2-22.1c1.3-4.7,2.4-9.5,4.4-13.9c2.6-5.7,5.8-11.2,9-16.5c2.3-3.7,5.1-7.4,7.8-10.8c2.5-3.1,5.4-5.9,8.2-8.8
	c2.5-2.5,4.9-4.8,7.6-7.1c2.4-2.1,5-4,7.7-6c2-1.6,4-3.2,6.2-4.6c2.3-1.6,4.6-3,6.9-4.4c2.7-1.7,5.4-3.3,8.1-4.8
	c1.9-1.1,3.9-2.1,5.9-3c3.8-1.8,7.6-3.5,11.5-5.2c1.3-0.6,2.8-1.1,4.1-1.6c1.6-0.6,3-1.1,4.5-1.7c3.8-1.3,7.6-2.8,11.5-4
	c2.9-0.9,5.8-1.6,8.7-2.3c4.6-1.1,9.2-2.1,13.7-3.1c2.2-0.5,4.5-1,6.8-1.3c4.9-0.7,9.8-1.2,14.7-2c9.5-1.4,19-1.3,28.6-1.4
	c5.7-0.1,11.5,0.4,17.3,0.7c2.7,0.1,5.3,0.5,7.8,0.8c2.8,0.4,5.5,0.7,8.2,1.1c3.9,0.6,7.8,1.3,11.7,2.2c3,0.6,6,1.3,8.9,2.1
	c3.8,1,7.6,2.1,11.5,3.3c3.3,1.1,6.7,2.2,10,3.5c4.2,1.6,8.3,3.4,12.4,5.2c2.9,1.2,5.8,2.5,8.6,4c3,1.6,6,3.5,9,5.2
	c2.2,1.3,4.5,2.6,6.6,4c2.5,1.7,5,3.6,7.5,5.5c2.3,1.7,4.5,3.3,6.6,5.2c2.5,2.2,5,4.3,7.3,6.7c3,3,5.9,6.2,8.7,9.4
	c1.6,1.8,2.8,3.9,4.2,5.9c4,5.9,7.6,12,10.3,18.6c2.8,7,4.9,14.2,5.9,21.6c0.7,4.8,0.6,9.7,0.6,14.6c-0.1,7.1-1.3,14-3.3,20.7
	c-1.3,4.1-2.3,8.4-4.2,12.2c-2.6,5.3-5.7,10.5-8.9,15.6c-3,4.7-6.6,9.1-10,13.5c-1.3,1.7-3,3-4.5,4.5c-3.1,3-6.2,5.9-9.4,8.7
	c-2.5,2.2-5.2,4-7.8,6c-3.5,2.5-7,4.9-10.6,7.2c-2.5,1.6-5.2,3-7.8,4.5c-2.9,1.6-5.9,3.3-8.9,4.8c-1.2,0.6-2.5,1.1-3.8,1.7
	c-2.5,1.1-5.1,2.3-7.8,3.3c-4,1.6-8.1,3-12.1,4.5c-2.9,1.1-5.8,2-8.8,2.8c-3.7,1.1-7.7,1.9-11.5,3c-4.9,1.4-9.9,2.4-14.9,3
	c-3.5,0.4-7.1,1.1-10.5,1.5C639.6,387.6,632.2,388.2,627.4,388.6L627.4,388.6z"/>
<path id="DIF:_Core" class="st0" d="M703,354.4c6.9-10,13-20.4,15.9-32.3c1.8-7.6,2.5-15.4,0.1-23.2c-1.3-4.2-3.6-7.7-7.6-9.8
	c-2.4-1.3-5.2-1.8-8-1.5c-4.9,0.5-9.2,2.5-13.3,5.1c-3.9,2.5-7.4,5.4-10.5,8.6c-3,3-5.6,6.2-8.3,9.3c-0.6,0.6-1.3,1.1-1.9,1.8
	c-1.5-2.5-3-5-4.5-7.5c-1.7-2.7-3.9-5-6.9-6.2c-1.1-0.4-2.5-0.4-3.5,0c-3.6,1.6-6.4,4.2-8.4,7.6c-4.4,7.4-7.8,15.2-11,23.1
	c-3.6,9.4-7.2,18.8-10.9,28.4c-1.1-2.3-2.1-4.5-3-6.6c-4.7-9.9-9.2-19.8-14.1-29.6c-2.1-4.2-4.8-8.3-7.5-12.3
	c-1.9-2.9-4.2-5.5-7.2-7.2c-1.8-1.1-4-1.9-6.2-1.1c-1.2,0.5-2.3,1.6-3.2,2.5c-2.3,2.3-3.7,5.1-4.9,7.9c-0.5,1.2-1.1,2.3-1.6,3.5
	c-0.4,0.8-0.6,1.1-1.4,0.3c-1.5-1.6-3-3.1-4.6-4.6c-2.9-2.6-5.7-5.4-8.8-7.8c-2.6-2.1-5.4-3.9-8.2-5.7c-1.5-0.9-3.1-1.7-4.8-2.3
	c-4.3-1.5-8.6-2.3-13.1-1.1c-5.3,1.5-8.3,5.2-9.9,10.5c-1.7,5.8-1.3,11.5-0.3,17.3c1.4,8.2,4.7,15.7,9,22.8c3,5.2,6.4,10,10.5,14.4
	c0.2,0.2,0.5,0.5,0.6,1c-1.5-0.5-3-1-4.5-1.6c-1.6-0.6-3.2-1.2-4.7-1.8c-4-1.8-8.1-3.7-12-5.6c-2.5-1.3-5.2-2.5-7.6-4
	c-3-1.7-5.8-3.5-8.6-5.5c-3-2.1-5.9-4.2-8.8-6.4c-2.3-1.9-4.7-3.9-6.9-6.2c-3.6-3.9-7.1-7.9-10.3-12.1c-5.7-7.5-10-15.7-13-24.7
	c-3.5-10.7-4.9-21.6-2.5-32.7c1.8-8.1,4.8-15.8,9.3-22.9c2.6-4.2,5.4-8.3,8.6-12.1c2.8-3.5,5.8-6.6,9-9.7c3.7-3.5,7.5-6.8,11.5-9.9
	c2.8-2.2,5.8-4.1,8.8-6.1c3.9-2.5,7.8-5,11.8-7.3c2.3-1.3,4.7-2.3,7.1-3.5c3.1-1.6,6.2-3.1,9.4-4.6c1.3-0.6,2.7-1.1,4-1.6
	c2.8-1.1,5.7-2.2,8.6-3.3c1.4-0.6,2.8-1.2,4.1-1.8c0.4-0.2,0.8-0.1,1.4-0.1c-1.3,2.1-2.5,4-3.7,6c-4.4,7.1-7.8,14.5-9,22.8
	c-1,7.6,0.9,14.6,5.7,20.6c1.8,2.4,4.7,4,7.1,5.8c2.6,2.1,5.8,3.3,9,3.9c4.7,0.9,9.5,0.9,14.3-0.4c1.8-0.5,3.5-1.8,4.7-3.2
	c6.5-7.1,9.6-15.8,10.4-25.2c0.8-9,0.8-18,1.1-27c0.1-3.4,0.3-6.8,0.4-10.2c0-0.3,0.1-0.5,0.1-0.7c0.2-0.4,0.4-0.7,0.6-1.1
	c0.3,0.3,0.8,0.5,1,0.8c1.1,2.4,2.4,4.8,3.5,7.3c0.6,1.4,1.1,2.9,1.6,4.3c0.7,2,2.1,2.8,4,2.1c3.2-1.2,6.6-0.9,9.9-1
	c1.3,0,2.7,0.3,3.9,0.5c2.2,0.4,3.5-0.4,4.2-2.8c1.1-3.3,2.2-6.7,3.3-10c0.2-0.8,0.6-1.5,0.9-2.2c0.2,0.1,0.4,0,0.6,0.1
	c0.4,1.6,1,3.3,1.2,4.9c0.9,8.3,1.9,16.6,2.7,24.9c0.7,8.2,2.4,16.1,6.4,23.3c1.9,3.6,4,7.1,7.2,9.9c2.5,2.2,5.5,3.4,8.9,3.1
	c3-0.2,6.2-0.2,9.2-0.8c3.7-0.7,6.9-2.5,9.9-4.7c3-2.2,5.4-4.9,7.4-8c2.3-3.7,3.4-7.9,3.5-12.3c0.2-8-2.2-15.2-6.2-21.9
	c-2.1-3.5-4.5-6.9-6.7-10.3c-0.6-0.8-1.3-1.6-2.1-2.5c0.6-0.1,1.1-0.1,1.6,0c1.7,0.6,3.4,1.1,5.1,1.7c4.2,1.4,8.3,2.8,12.6,4.2
	c2.3,0.8,4.6,1.5,6.9,2.5c3.5,1.4,6.9,3,10.4,4.5c2.8,1.3,5.7,2.5,8.4,4c3.1,1.7,6.2,3.5,9.2,5.4c2.6,1.6,5.3,3.3,7.7,5.2
	c2.8,2.1,5.7,4.4,8.3,6.6c2.8,2.4,5.7,4.9,8.3,7.6c2.8,2.9,5.5,5.9,8,9.1c4,5.2,7.4,10.7,10,16.8c4,8.9,5.8,18.2,5.1,28
	c-0.6,10.4-3.5,20.2-8.1,29.5c-2.7,5.4-5.7,10.6-9.2,15.4c-3.2,4.5-7.1,8.4-11.1,12.4c-3.5,3.5-7.1,6.7-10.9,9.8
	c-2.8,2.2-5.8,4.1-8.8,6.1c-3.4,2.1-6.9,4.2-10.3,6.2c-1.7,1-3.5,1.9-5.2,2.7c-2.9,1.5-5.8,2.8-8.8,4.2
	C703.8,354.2,703.5,354.2,703,354.4L703,354.4z"/>
<polygon id="NLED:_x5F__x7B__x22_colorID_x22_:_x5B_0.93333_x2C_0.72157_x2C_0.29412_x5D__x2C__x22_target_x22_:12_x7D_" class="st1" points="
	511.1,221.2 521.2,211.1 531.2,221.2 521.2,231.2 "/>
<polygon id="NLED:_x5F__x7B__x22_colorID_x22_:_x5B_0.93333_x2C_0.72157_x2C_0.29412_x5D__x2C__x22_target_x22_:12_x7D__1_" class="st2" points="
	608.6,218.3 618.5,208.4 628.6,218.4 618.6,228.4 "/>
<polygon id="NLED:_x5F__x7B__x22_colorID_x22_:_x5B_0.93333_x2C_0.72157_x2C_0.29412_x5D__x2C__x22_target_x22_:10_x7D_" class="st2" points="
	702.7,208.9 712.7,199 722.6,208.9 712.7,218.9 "/>
<polygon id="NLED:_x5F__x7B__x22_colorID_x22_:_x5B_0_x2C_0.65882_x2C_0.88235_x5D__x2C__x22_target_x22_:12_x7D_" class="st2" points="
	485,277.4 495.1,267.3 505.1,277.4 495.1,287.4 "/>
<polygon id="NLED:_x5F__x7B__x22_colorID_x22_:_x5B_0_x2C_0.65882_x2C_0.88235_x5D__x2C__x22_target_x22_:10_x7D_" class="st2" points="
	608.6,278.4 618.5,268.5 628.6,278.5 618.6,288.5 "/>
<polygon id="NLED:_x5F__x7B__x22_colorID_x22_:_x5B_0_x2C_0.65882_x2C_0.88235_x5D__x2C__x22_target_x22_:10_x7D__1_" class="st2" points="
	736.6,275.2 746.6,265.2 756.6,275.2 746.6,285.2 "/>
<polygon id="NLED:_x5F__x7B__x22_colorID_x22_:_x5B_1_x2C_1_x2C_1_x5D__x2C__x22_target_x22_:10_x7D_" class="st2" points="564,205 
	574.1,195 584.1,205 574.1,215.1 "/>
<polygon id="NLED:_x5F__x7B__x22_colorID_x22_:_x5B_1_x2C_1_x2C_1_x5D__x2C__x22_target_x22_:10_x7D__1_" class="st2" points="
	653.1,200.6 663.1,190.5 673.1,200.6 663.1,210.6 "/>
<polygon id="NLED:_x5F__x7B__x22_colorID_x22_:_x5B_1_x2C_1_x2C_1_x5D__x2C__x22_target_x22_:10_x7D__2_" class="st2" points="
	558.5,335.3 568.5,325.3 578.5,335.2 568.5,345.3 "/>
<polygon id="NLED:_x5F__x7B__x22_colorID_x22_:_x5B_1_x2C_1_x2C_1_x5D__x2C__x22_target_x22_:10_x7D__3_" class="st2" points="
	667.5,333 677.6,323 687.6,333 677.6,343.1 "/>
<rect id="MC:_Microcontroller" x="722.6" y="377.1" transform="matrix(4.485904e-11 1 -1 4.485904e-11 1168.3308 -314.4287)" class="st3" width="37.5" height="99.7"/>
<polygon id="BI:_Breakin_1_" class="st4" points="702.6,436.5 702.6,434.2 702.6,432.7 702.6,428.2 702.6,426.7 702.6,422.2 
	702.6,416.2 691.5,416.2 691.5,420.3 691.5,422.2 691.5,426.7 691.5,428.2 691.5,432.7 691.5,434.2 691.5,436.5 691.5,438.7 
	702.6,438.7 "/>
<path id="CP:_CircuitPath" class="st5" d="M684.7,426.7c-24.1,7.5-47.9,0.4-56.7-14c-13.8-22.8,32.5-66.6,34.7-68.7
	c31.1-29.2,52.6-23.7,70.7-51.3c2.6-3.9,22.4-34.3,11.3-53.3c-15.8-27.3-72,7.9-162-17.3c-23.5-6.6-37.2-13.9-54.7-7.3
	c-26,9.8-49.5,46-38.7,78c12.2,36.1,61.7,47.8,95.3,32.7c38-17.2,43.1-63.2,43.3-65.3"/>
<circle id="NUT:_Nut_here" class="st6" cx="437.3" cy="274" r="10.8"/>
<circle id="NUT:_Nut_here_1_" class="st6" cx="805.4" cy="269.1" r="10.8"/>
<circle id="NUT:_Nut_here_2_" class="st6" cx="476.1" cy="427" r="10.8"/>
<circle id="NUT:_Nut_here_3_" class="st6" cx="621.3" cy="138.5" r="10.8"/>
</svg>
