<?xml version="1.0" encoding="utf-8"?>
<!-- Generator: Adobe Illustrator 19.2.1, SVG Export Plug-In . SVG Version: 6.00 Build 0)  -->
<svg version="1.1" id="Layer_1" xmlns="http://www.w3.org/2000/svg" xmlns:xlink="http://www.w3.org/1999/xlink" x="0px" y="0px"
	 viewBox="0 0 240.9 229.1" style="enable-background:new 0 0 240.9 229.1;" xml:space="preserve">
<style type="text/css">
	.st0{fill:none;stroke:#231F20;stroke-width:2;stroke-miterlimit:10;}
	.st1{fill:#DDD0D0;stroke:#231F20;stroke-width:2;stroke-miterlimit:10;}
	.st2{fill:none;stroke:#000000;stroke-width:3;stroke-miterlimit:10;}
	.st3{fill:#19E5E6;stroke:#000000;stroke-miterlimit:10;}
	.st4{fill:#E5E619;stroke:#000000;stroke-miterlimit:10;}
	.st5{fill:#E619C3;stroke:#000000;stroke-miterlimit:10;}
	.st6{fill:#FFFFFF;stroke:#000000;stroke-miterlimit:10;}
	.st7{fill:#294DFF;}
	.st8{fill:#FFE313;}
	.st9{fill:none;stroke:#294DFF;stroke-width:4;stroke-miterlimit:10;}
	.st10{fill:#FF2296;}
</style>
<title>user160_production</title>
<path id="BASE:_STAR_BASE" class="st0" d="M1,1.1v227h239V1.1H1z"/>
<polygon id="DIF:_STAR" class="st1" points="176.5,191.7 120.4,162.2 64.4,191.7 75.1,129.3 29.8,85.1 92.4,76 120.4,19.2 148.5,76 
	211.1,85.1 165.8,129.3 "/>
<polygon id="DDS:_SOFT" class="st2" points="120.4,130.7 120.4,162.2 64.4,191.7 75.1,129.3 29.8,85.1 92.4,76 "/>
<polygon id="DDS:_SOFT-2" class="st2" points="148.5,76 120.4,130.7 92.4,76 120.4,19.2 "/>
<polygon id="DDS:_STAR" class="st2" points="165.8,129.3 176.5,191.7 120.4,162.2 120.4,130.7 148.5,76 211.1,85.1 "/>
<polygon id="NLED:__colorID_:_0.09804_0.89804_0.90196_target_:4_forceTarget_:4_" class="st3" points="87.1,140.6 87.1,126.5 
	101.3,126.5 101.3,140.6 "/>
<polygon id="NLED:__colorID_:_0.89804_0.90196_0.09804_target_:4_forceTarget_:4_" class="st4" points="139.1,141.5 139.1,127.3 
	153.2,127.3 153.2,141.5 "/>
<polygon id="NLED:__colorID_:_0.90196_0.09804_0.76471_target_:4_forceTarget_:4_" class="st5" points="113.1,73.1 113.1,58.9 
	127.3,58.9 127.3,73 "/>
<polygon id="NLED:__colorID_:_1_1_1_target_:4_" class="st6" points="113.1,108.8 113.1,94.6 127.3,94.6 127.3,108.8 "/>
<rect id="MC:_Microcontroller" x="139.3" y="26.1" class="st7" width="99.7" height="37.5"/>
<polygon id="BI:_Breakin" class="st8" points="150.4,54.4 150.4,52.1 150.4,50.6 150.4,46.1 150.4,44.6 150.4,40.1 150.4,34.1 
	139.3,34.1 139.3,38.2 139.3,40.1 139.3,44.6 139.3,46.1 139.3,50.6 139.3,52.1 139.3,54.4 139.3,56.6 150.4,56.6 "/>
<path id="CP:_Circuit_Path" class="st9" d="M150.4,45.3c-14.3-2.4-29.3-36-35.9-24.5s5.9-1.7,3.5,19.9c-1.3,12,4.8,7.4,0.7,25
	c-1.4,5.7-31,45.7-23,67.9c5.2,14.6,38.1-0.1,53.4,9.8c5.6-26-39.7-20.4-30.4-39.7"/>
<circle id="NUT:_nut" class="st10" cx="15.8" cy="15.8" r="7.8"/>
<circle id="NUT:_nut_" class="st10" cx="226.3" cy="214.9" r="7.8"/>
<circle id="NUT:_nut-2" class="st10" cx="15.8" cy="214.9" r="7.8"/>
</svg>
