<svg x="0" y="0" width="1242" height="659" version="1.1" xmlns="http://www.w3.org/2000/svg" xmlns:xlink="http://www.w3.org/1999/xlink"><g fill="none" stroke="#000000" stroke-width="none" stroke-linecap="butt" stroke-linejoin="miter" stroke-miterlimit="10" stroke-dasharray="none" stroke-dashoffset="0" font-family="none" font-weight="normal" font-size="none" text-anchor="start" mix-blend-mode="normal"><g id="Layer_2" fill="#dfdfdf" font-family="&quot;Helvetica Neue&quot;, Helvetica, Arial, sans-serif" font-size="14"><path d="M730.12851,306.95c-9.5,-21.4 -15.3,-53.5 -27.7,-53.5l0,0c-4.7,-16.2 -12.6,-32.5 -22.7,-46.3l0,0c1.7,-2.6 2.7,-5.8 2.7,-9.2c0,-8.7 -6.9,-30.7 -14.7,-30.7c-4.7,0 -8.7,8.2 -11.1,16.6c0,0 -22.9,-12.6 -35.6,-12.6c-13.1,0 -25.5,5 -36.7,13.3l-0.2,-0.8c-2.4,-8.4 -6.3,-16.6 -11.1,-16.6c-7.8,0 -14.7,22 -14.7,30.7c0,3.5 1,6.7 2.7,9.3c0,0 -16.7,29.7 -21.5,46.3l0,0c-12.4,0 -18.2,32.1 -27.7,53.5c-10.3,23.3 -28.5,25.9 -14,32.3c13.2,5.9 31.1,-4.8 42,-24.2c11.9,32.6 42.8,56 79.3,56.7c-36.5,-1 -65.8,-30.9 -65.8,-67.6c0,-25.9 14.5,-48.4 35.9,-59.7c-0.9,0.1 -1.9,0.2 -2.9,0.2c-10.6,0 -19.2,-8.6 -19.2,-19.2c0,-10.6 8.6,-19.2 19.2,-19.2c10.6,0 19.2,8.6 19.2,19.2c0,6 -2.8,11.4 -7.1,14.9c1.5,-0.5 2.9,-1 4.4,-1.4c3,-0.8 6.2,-1.5 9.4,-1.9c2.8,-0.4 5.8,-4.9 8.7,-4.9c3.4,0 6.6,4.6 9.9,5.1c2.8,0.4 5.5,1 8.1,1.7c-3.4,-3.5 -5.5,-8.2 -5.5,-13.5c0,-10.6 8.6,-19.2 19.2,-19.2c10.6,0 19.2,8.6 19.2,19.2c0,10.4 -8.2,18.8 -18.5,19.2c-0.1,0 -0.2,0 -0.2,0c21.1,11.4 35.5,33.8 35.5,59.5c0,36.7 -29.3,66.7 -65.8,67.6c36.5,-0.8 67.4,-24.2 79.3,-56.7c10.9,19.4 28.8,30 42,24.2c14.6,-6.4 -3.7,-9 -14,-32.3z" id="DIF:_body" stroke-width="3" stroke-dasharray=""/><path d="M688.62851,304.25c0,36.7 -29.3,66.7 -65.8,67.6c-0.6,0 -1.2,0 -1.9,0c-0.7,0 -1.2,0 -1.9,0c-36.5,-1 -65.8,-30.9 -65.8,-67.6c0,-31.1 21,-57.3 49.6,-65.2c0.1,16.4 7.6,45.3 17.7,45.3c10.1,0 19,-28.7 19.2,-45.1c1.2,0.4 2.4,0.7 3.6,1.2c1.4,0.8 2.9,1.4 4.5,1.8c24.1,10.3 40.8,34.2 40.8,62z" id="DDS:_belly" stroke-width="1" stroke-dasharray="2,1" opacity="0.5"/><path d="M630.82851,237.25c3,0.4 6,1.1 8.9,1.9c-0.2,16.5 -9.2,45.1 -19.2,45.1c-10.1,0 -17.5,-28.9 -17.7,-45.3c3,-0.8 6.2,-1.5 9.4,-1.9c2.8,-0.4 5.8,-4.9 8.7,-4.9c3.4,0.1 6.7,4.7 9.9,5.1z" id="DIF:_beak" stroke-width="3" stroke-dasharray=""/><path d="M639.72851,239.25c-0.2,16.5 -9.2,45.1 -19.2,45.1c-10.1,0 -17.5,-28.9 -17.7,-45.3" id="DIF:_beak_target" stroke-width="3" stroke-dasharray=""/><path d="M567.12851,225.55c0,-10.60387 8.59613,-19.2 19.2,-19.2c10.60387,0 19.2,8.59613 19.2,19.2c0,10.60387 -8.59613,19.2 -19.2,19.2c-10.60387,0 -19.2,-8.59613 -19.2,-19.2z" id="DIF:_eye11 1" stroke-width="3" stroke-dasharray=""/><path d="M633.42851,225.55c0,-10.60387 8.59613,-19.2 19.2,-19.2c10.60387,0 19.2,8.59613 19.2,19.2c0,10.60387 -8.59613,19.2 -19.2,19.2c-10.60387,0 -19.2,-8.59613 -19.2,-19.2z" id="DIF:_eye22 1" stroke-width="3" stroke-dasharray=""/><path d="M601.32851,233.75c0,2.2 -6.7,10 -15,10c-8.3,0 -15,-7.8 -15,-10c0,-2.2 6.7,3 15,3c8.3,0 15,-5.2 15,-3z" id="DDS:_eye_1" stroke-width="1" stroke-dasharray="2,1" opacity="0.5"/><path d="M667.62851,233.75c0,2.2 -6.7,10 -15,10c-8.3,0 -15,-7.8 -15,-10c0,-2.2 6.7,3 15,3c8.3,0 15,-5.2 15,-3z" id="DDS:_eye_2" stroke-width="1" stroke-dasharray="2,1" opacity="0.5"/></g><polygon points="614.36309,261.48206 614.36309,247.30883 628.53632,247.30883 628.53632,261.48206" id="NLED:_{&quot;colorID&quot;:[0.89804,0.90196,0.09804],&quot;target&quot;:5,&quot;forceTarget&quot;:5}" fill="#e5e619" stroke-width="1" stroke-dasharray="" font-family="sans-serif" font-size="12"/><polygon points="693.28619,288.39583 693.28619,274.2226 707.45941,274.2226 707.45941,288.39583" id="NLED:_{&quot;colorID&quot;:[0.09804,0.89804,0.90196],&quot;target&quot;:3,&quot;forceTarget&quot;:3}" fill="#19e5e6" stroke-width="1" stroke-dasharray="" font-family="sans-serif" font-size="12"/><polygon points="533.46816,297.3583 533.46816,283.18508 547.64138,283.18508 547.64138,297.3583" id="NLED:_{&quot;colorID&quot;:[0.09804,0.89804,0.90196],&quot;target&quot;:3}" fill="#19e5e6" stroke-width="1" stroke-dasharray="" font-family="sans-serif" font-size="12"/><polygon points="579.12701,230.92954 579.12701,216.75631 593.30024,216.75631 593.30024,230.92954" id="NLED:_{&quot;colorID&quot;:[1,1,1],&quot;target&quot;:11}" fill="#ffffff" stroke-width="1" stroke-dasharray="" font-family="sans-serif" font-size="12"/><polygon points="645.85239,230.92954 645.85239,216.75631 660.02562,216.75631 660.02562,230.92954" id="NLED:_{&quot;colorID&quot;:[1,1,1],&quot;target&quot;:12}" fill="#ffffff" stroke-width="1" stroke-dasharray="" font-family="sans-serif" font-size="12"/><polygon points="613.0579,212.69619 613.0579,198.52296 627.23113,198.52296 627.23113,212.69619" id="NLED:_{&quot;colorID&quot;:[0.09804,0.90196,0.50196],&quot;target&quot;:3}" fill="#19e680" stroke-width="1" stroke-dasharray="" font-family="sans-serif" font-size="12"/><polygon points="612.88936,331.84501 612.88936,317.67178 627.06258,317.67178 627.06258,331.84501" id="NLED:_{&quot;colorID&quot;:[1,1,1],&quot;forceTarget&quot;:4}" fill="#ffffff" stroke-width="1" stroke-dasharray="" font-family="sans-serif" font-size="12"/></g></svg>