<svg x="0" y="0" width="1242" height="703" version="1.1" xmlns="http://www.w3.org/2000/svg" xmlns:xlink="http://www.w3.org/1999/xlink"><g transform=""><g fill="none" stroke="none" stroke-width="none" stroke-linecap="butt" stroke-linejoin="miter" stroke-miterlimit="10" stroke-dasharray="none" stroke-dashoffset="0" font-family="none" font-weight="normal" font-size="none" text-anchor="start" mix-blend-mode="normal"><g id="Layer_1" fill="#000000" font-family="&quot;Helvetica Neue&quot;, Helvetica, Arial, sans-serif" font-size="14"><polygon points="477.05,399.6 477.05,183.4 764.95,183.4 764.95,399.6" id="DIF:_diagram 1" stroke="#000000" stroke-width="0" stroke-dasharray=""/><g><polygon points="516.85,258.7 516.85,208.2 694.05,208.2 694.05,258.7" id="DDS:_p 1" stroke="#333333" stroke-width="1" stroke-dasharray="2,1" opacity="0.5"/><polygon points="624.85,338.3 624.85,233.4 729.75,233.4 729.75,338.3" id="DDS:_n 1" stroke="#333333" stroke-width="1" stroke-dasharray="2,1" opacity="0.5"/><polygon points="536.05,317.5 512.25,272.3 527.35,223.5 572.55,199.7 621.35,214.8 645.15,260 630.05,308.8 584.85,332.6" id="DIF:_Polygon" stroke="#000000" stroke-width="0" stroke-dasharray=""/><polygon points="696.35,279.5 636.45,383.4 576.45,279.5" id="DDS:_Polygon" stroke="#333333" stroke-width="1" stroke-dasharray="2,1" opacity="0.5"/><path d="M516.85,327.5c0,-13.25483 31.2953,-24 69.9,-24c38.6047,0 69.9,10.74517 69.9,24c0,13.25483 -31.2953,24 -69.9,24c-38.6047,0 -69.9,-10.74517 -69.9,-24z" id="DIF:_Ellipse 1" stroke="#000000" stroke-width="0" stroke-dasharray=""/></g></g><polygon points="634.11094,229.56293 634.11094,215.3897 648.28417,215.3897 648.28417,229.56293" id="NLED:_{&quot;colorID&quot;:[0.90196,0.09804,0.09804],&quot;target&quot;:10,&quot;forceTarget&quot;:12}" fill="#e61919" stroke="#e61919" stroke-width="1" stroke-dasharray="" font-family="sans-serif" font-size="12"/><polygon points="593.54199,297.73236 593.54199,283.55913 607.71522,283.55913 607.71522,297.73236" id="NLED:_{&quot;colorID&quot;:[0.90196,0.49804,0.09804],&quot;target&quot;:10,&quot;forceTarget&quot;:7}" fill="#e67f19" stroke="#e67f19" stroke-width="1" stroke-dasharray="" font-family="sans-serif" font-size="12"/><polygon points="651.88147,301.87278 651.88147,287.69956 666.0547,287.69956 666.0547,301.87278" id="NLED:_{&quot;colorID&quot;:[0.09804,0.36471,0.90196],&quot;target&quot;:10,&quot;forceTarget&quot;:8}" fill="#195de6" stroke="#195de6" stroke-width="1" stroke-dasharray="" font-family="sans-serif" font-size="12"/><polygon points="537.76232,339.62621 537.76232,325.45298 551.93555,325.45298 551.93555,339.62621" id="NLED:_{&quot;colorID&quot;:[0.09804,0.89804,0.90196],&quot;target&quot;:11,&quot;forceTarget&quot;:11}" fill="#19e5e6" stroke="#19e5e6" stroke-width="1" stroke-dasharray="" font-family="sans-serif" font-size="12"/><polygon points="630.35476,364.09926 630.35476,349.92603 644.52799,349.92603 644.52799,364.09926" id="NLED:_{&quot;colorID&quot;:[0.63137,0.09804,0.90196],&quot;target&quot;:10,&quot;forceTarget&quot;:13}" fill="#a119e6" stroke="#a119e6" stroke-width="1" stroke-dasharray="" font-family="sans-serif" font-size="12"/><polygon points="675.29376,254.9839 675.29376,240.81067 689.46699,240.81067 689.46699,254.9839" id="NLED:_{&quot;colorID&quot;:[0.89804,0.90196,0.09804],&quot;target&quot;:10,&quot;forceTarget&quot;:13}" fill="#e5e619" stroke="#e5e619" stroke-width="1" stroke-dasharray="" font-family="sans-serif" font-size="12"/><polygon points="534.27911,243.63638 534.27911,229.46315 548.45234,229.46315 548.45234,243.63638" id="NLED:_{&quot;colorID&quot;:[0.90196,0.09804,0.63137],&quot;target&quot;:7}" fill="#e619a1" stroke="#e619a1" stroke-width="1" stroke-dasharray="" font-family="sans-serif" font-size="12"/></g></g></svg>