<svg x="0" y="0" width="1187" height="681" version="1.1" xmlns="http://www.w3.org/2000/svg" xmlns:xlink="http://www.w3.org/1999/xlink"><g transform=""><g fill="none" stroke="none" stroke-width="none" stroke-linecap="butt" stroke-linejoin="miter" stroke-miterlimit="10" stroke-dasharray="none" stroke-dashoffset="0" font-family="none" font-weight="normal" font-size="none" text-anchor="start" mix-blend-mode="normal"><g id="Layer_1" font-family="&quot;Helvetica Neue&quot;, Helvetica, Arial, sans-serif" font-size="14"><polygon points="474,167 474,394 713,394 713,167" id="BASE:_STAR_BASE" fill="none" stroke="#231f20" stroke-width="2" stroke-dasharray="" visibility="hidden"/><polygon points="649.5,357.7 593.5,328.2 537.5,357.7 548.2,295.2 502.8,251 565.5,242 593.5,185.2 621.5,242 684.2,251 638.8,295.2" id="DIF:_STAR" fill="#000000" stroke="#000000" stroke-width="0" stroke-dasharray=""/><polygon points="593.5,296.7 593.5,328.2 537.5,357.7 548.2,295.2 502.8,251 565.5,242" id="DDS:_SOFT" fill="#000000" stroke="#333333" stroke-width="1" stroke-dasharray="2,1" opacity="0.5"/><polygon points="621.5,242 593.5,296.7 565.5,242 593.5,185.2" id="DDS:_SOFT_1_" fill="#000000" stroke="#333333" stroke-width="1" stroke-dasharray="2,1" opacity="0.5"/><polygon points="638.8,295.2 649.5,357.7 593.5,328.2 593.5,296.7 621.5,242 684.2,251" id="DDS:_STAR" fill="#000000" stroke="#333333" stroke-width="1" stroke-dasharray="2,1" opacity="0.5"/></g><polygon points="564.69381,311.88898 564.69381,297.71575 578.86704,297.71575 578.86704,311.88898" id="NLED:_{&quot;colorID&quot;:[0.09804,0.76863,0.90196],&quot;target&quot;:4,&quot;forceTarget&quot;:5}" fill="#19c4e6" stroke="#19c4e6" stroke-width="1" stroke-dasharray="" font-family="sans-serif" font-size="12"/><polygon points="605.86862,310.84073 605.86862,296.6675 620.04185,296.6675 620.04185,310.84073" id="NLED:_{&quot;colorID&quot;:[0.63137,0.90196,0.09804],&quot;target&quot;:4,&quot;forceTarget&quot;:7}" fill="#a1e619" stroke="#a1e619" stroke-width="1" stroke-dasharray="" font-family="sans-serif" font-size="12"/><polygon points="586.67947,244.69946 586.67947,230.52623 600.8527,230.52623 600.8527,244.69946" id="NLED:_{&quot;colorID&quot;:[0.90196,0.09804,0.63137],&quot;target&quot;:4,&quot;forceTarget&quot;:6}" fill="#e619a1" stroke="#e619a1" stroke-width="1" stroke-dasharray="" font-family="sans-serif" font-size="12"/><polygon points="586.11339,275.16903 586.11339,260.9958 600.28661,260.9958 600.28661,275.16903" id="NLED:_{&quot;colorID&quot;:[1,1,1],&quot;target&quot;:4,&quot;forceTarget&quot;:6}" fill="#ffffff" stroke="#ffffff" stroke-width="1" stroke-dasharray="" font-family="sans-serif" font-size="12"/></g></g></svg>