<?xml version="1.0" encoding="utf-8"?>
<!-- Generator: Adobe Illustrator 19.2.1, SVG Export Plug-In . SVG Version: 6.00 Build 0)  -->
<svg version="1.1" id="Layer_1" xmlns="http://www.w3.org/2000/svg" xmlns:xlink="http://www.w3.org/1999/xlink" x="0px" y="0px"
	 viewBox="0 0 311.4 399.2" style="enable-background:new 0 0 311.4 399.2;" xml:space="preserve">
<style type="text/css">
	.st0{fill:#FFE313;}
	.st1{fill:#565656;}
	.st2{fill:#493BFF;stroke:#000000;stroke-miterlimit:10;}
	.st3{opacity:0.5;fill:#DFDFDF;stroke:#000000;stroke-miterlimit:10;stroke-dasharray:2,1;enable-background:new    ;}
	.st4{fill:#FFFFFF;stroke:#000000;stroke-miterlimit:10;}
	.st5{fill:#FF739B;stroke:#000000;stroke-miterlimit:10;}
	.st6{fill:#FF0069;stroke:#000000;stroke-miterlimit:10;}
	.st7{fill:none;stroke:#FF0069;stroke-miterlimit:10;}
	.st8{fill:#FF0069;}
</style>
<path id="BASE:_Base_path" d="M262.1,302.8c10-12.4,19.4-31.1,19.7-66.8c0.1-7.6,0.2-14.7,0.4-21.6c1.2-47.3,2-81.6-39.6-144.5
	c-0.2-0.4-0.4-0.8-0.6-1.3l1.1-1.1L237,55.4c-0.4-0.9-0.9-1.7-1.4-2.6l0.4-0.5l-7.4-11.7c-7.2-11.4-13.7-18.7-20.5-22.9
	c-6.4-3.9-15.8-7.8-25.9-10.8l-0.3-0.5l-8.8-1.9c-1.3-0.3-2.6-0.5-3.9-0.8L152.6,0l-0.1,1.7c-1.1,0-2.2-0.1-3.2-0.1
	c-0.4,0-0.8,0-1.2,0l-11.3,0.2l-0.5,1c-8.6,1.6-16,4.8-21.9,9.7l-0.1,0.1c-2.8,2.4-5.8,4.7-9,7.3c-5.5,4.4-11.2,8.9-16.9,14
	l-0.6,0.1c0,0-4.9,4.9-5.2,5.2l-1.8-0.1l-5.8,6.5c-7.2,8-12.7,16.1-16.7,24.8c-9.3,9.4-33.9,38.6-39,89.5
	c-6.9,69.4-2.5,110.7,14.7,138.2c1.3,2,2.7,4.1,4.1,6.1c-17.5,8-24.4,16-28.4,22.5c-2.6,4.2-13.6,21.7-8,36c0,0,16.1,33.1,117,36
	c139,4,121-18.4,169-11c6.2,1,18.7,3.1,23-3C312.3,382.3,315.8,374.2,262.1,302.8z"/>
<polygon id="BI:_Breakin_1_" class="st0" points="107.8,356.7 107.3,358.9 107,360.4 106,364.8 105.7,366.2 104.7,370.6 
	103.4,376.5 114.2,378.9 115.1,374.9 115.5,373 116.5,368.6 116.8,367.2 117.8,362.8 118.1,361.3 118.6,359.1 119.1,356.9 
	108.3,354.5 "/>
<path id="NUT:_nut_3_" class="st1" d="M47.1,86.8c0-4.8,3.9-8.7,8.7-8.7s8.7,3.9,8.7,8.7s-3.9,8.7-8.7,8.7S47.1,91.6,47.1,86.8z"/>
<path id="NUT:_nut_1_" class="st1" d="M238.6,94.6c0-4.8,3.9-8.7,8.7-8.7s8.7,3.9,8.7,8.7s-3.9,8.7-8.7,8.7S238.6,99.4,238.6,94.6z"
	/>
<path id="NUT:_nut_2_" class="st1" d="M238.6,323.6c0-4.8,3.9-8.7,8.7-8.7s8.7,3.9,8.7,8.7c0,4.8-3.9,8.7-8.7,8.7
	S238.6,328.4,238.6,323.6z"/>
<path id="NUT:_nut_4_" class="st1" d="M41.1,311.8c0-4.8,3.9-8.7,8.7-8.7s8.7,3.9,8.7,8.7c0,4.8-3.9,8.7-8.7,8.7
	S41.1,316.6,41.1,311.8z"/>
<path id="DDS:_around_the_head" class="st2" d="M226.4,78.8c0,0-2.7-6.2-6.7-14.1l0.9-0.9c-2.2-4.3-4.8-8.9-7.6-13.3l0.1-0.1
	c-4.6-7.3-9.8-14.1-14.6-17.1c-5.8-3.6-16.9-8-28.9-10.7l0,0.1l-0.1-0.2c-7-1.5-14.3-2.5-21.2-2.4l-0.1,0.1
	c-8.7,0.1-16.7,2-22.2,6.6c-9.2,7.7-19.8,15.3-29.4,24.6l-0.2,0c-2.1,2.1-4.3,4.3-6.3,6.6l0.1,0.1L88.5,58
	c-6.1,6.8-11.4,14.4-15.1,23.3c0,0-30.5,25.5-36,80.5s-5,99.5,12,126.5s51.5,56.5,80,62.5s85-5.5,95-30.5s38.5-23.5,39-84.5
	S271.4,146.3,226.4,78.8z"/>
<path id="DDS:_muzzle" class="st3" d="M189.3,239.2L189,240c2.1-7.5-0.2-14.4-2-18.2l-0.6-0.1c-0.9-1.9-1.7-3-1.7-3
	c-2.7-6.7-16.7-10.3-23-10c-5.9,0.3-7.1,5.6-7.2,6.2c-1-3.2-3.8-6.4-10.8-6.2c-6.8,0.2-12.4,2.8-16.3,6.4l0.3,0.5
	c-3.6,3.6-5.7,8.1-5.7,12.2c0,2.5,1.1,7.8,1.1,7.8c-3.3,2.1-21.8,14.8-21.8,23.9c0,10-2.7,17.7,9,27.7c11.6,10,34.6,0.3,41.3,0
	c6.6-0.3,33,5.3,42.3,3c9.4-2.3,11.7-14,11.7-19.3C205.6,265.5,192,241.5,189.3,239.2z"/>
<path id="DDS:eye" class="st3" d="M210.8,149.8c-7.7-4.7-24.4-8.3-39.2,10.3c-14.8,18.7-34.4-2-36.4-5.3
	c-1.6-2.7-14.6-14.7-26.8-10.1c-2.8,1.1-5.6,3-8.2,6.1c-13.7,16.7-6.3,37,0,41.3s14.9,8.7,17.6,7.7c0,0-3.3,14.5,9.3,14.7
	c3.9-3.7,9.5-6.2,16.3-6.4c7-0.2,9.8,3.1,10.8,6.3c0.1-0.4,1.1-6,7.2-6.3c6.3-0.3,20.3,3.3,23,10c0,0,0.8,1.1,1.7,3.1l0.4,0
	c0,0,9.6-2.8,6.3-17.4c0,0,26.3-4.7,28.3-23.3S218.4,154.5,210.8,149.8z"/>
<path id="DDS:_star" class="st3" d="M211.7,150.1c-5.4-3.2-15.2-5.9-25.5-0.9c-4.5,2.1-9.1,5.7-13.5,11.3
	c-14.8,18.7-34.4-2-36.4-5.3c-0.9-1.4-5-5.5-10.5-8.3c-4.8-2.4-10.6-3.9-16.3-1.8c-0.7,0.3-1.5,0.6-2.2,1l-0.7,0
	c0,0-5.1-10.9,1.9-15.6c0.9-0.6,3.1-1.2,6.2-1.7l6.7-39.1L89.8,58.9c2-2.3,4.2-4.5,6.3-6.6l39.3-5.7L148,21
	c6.9-0.1,14.2,0.9,21.2,2.4l11.4,23.2l32.1,4.7c2.8,4.5,5.4,9.1,7.6,13.4l-25.7,25.1l6.6,38.6c3.3,0.6,5.7,1.3,6.8,2.1
	C216.5,136.8,212.2,148.9,211.7,150.1z"/>
<polygon id="NLED:_x5F__x7B__x22_colorID_x22_:_x5B_1_x2C_1_x2C_1_x5D__x2C__x22_target_x22_:3_x2C__x22_forceTarget_x22_:11_x7D_" class="st4" points="
	149.5,101 149.5,86.8 163.7,86.8 163.7,101 "/>
<polygon id="NLED:_x5F__x7B__x22_colorID_x22_:_x5B_0.44314_x2C_0.09804_x2C_0.63137_x5D__x2C__x22_target_x22_:3_x2C__x22_forceTarget_x22_:9_x7D_" class="st5" points="
	149.5,267.5 149.5,253.4 163.7,253.4 163.7,267.5 "/>
<polygon id="NLED:_x5F__x7B__x22_colorID_x22_:_x5B_1_x2C_0_x2C_0.41176_x5D__x2C__x22_target_x22_:3_x2C__x22_forceTarget_x22_:10_x7D_" class="st6" points="
	149.9,193.8 149.9,179.6 164,179.6 164,193.8 "/>
<polygon id="NLED:_x5F__x7B__x22_colorID_x22_:_x5B_1_x2C_0.45098_x2C_0.60784_x5D__x2C__x22_target_x22_:3_x7D_" class="st5" points="
	73.3,227.5 73.3,213.3 87.5,213.3 87.5,227.5 "/>
<polygon id="NLED:_x5F__x7B__x22_colorID_x22_:_x5B_1_x2C_0.45098_x2C_0.60784_x5D__x2C__x22_target_x22_:3_x7D__1_" class="st5" points="
	226.5,231.4 226.5,217.2 240.7,217.2 240.7,231.4 "/>
<polyline id="CP:_circuit_path" class="st7" points="13.8,342.9 164,375.2 238.6,208.6 149.5,86.8 87.5,227.5 163.7,267.5 
	164,179.6 "/>
<path id="MC:_MICRO" class="st8" d="M104.7,349.3l2.7-12l-13-2.9l-1-0.2l-1.5-0.3l0-0.1L78.8,331l-1-0.2l-6.9-1.5l-10.6,0.6
	L38,324.9l0,0l-15.2-3.4l-6.6-1.4l-2.3-0.7l-0.4,0.5c-1.8,2-3.3,4.1-4.8,6.4c-11.5,18.3-7.7,30.2-8.1,37c0,0,0.5,0.9,1.6,2.4
	l0.3,0.3l3.8,0.4l6.2,1.5l37.4,8.3l11,11l32.3,7.5l1.1-5l1.3,0.3l2.4-11l16.3,3.8l6.5-29.6L104.7,349.3z"/>
</svg>
