<?xml version="1.0" encoding="utf-8"?>
<!-- Generator: Adobe Illustrator 19.2.1, SVG Export Plug-In . SVG Version: 6.00 Build 0)  -->
<svg version="1.1" id="Layer_1" xmlns="http://www.w3.org/2000/svg" xmlns:xlink="http://www.w3.org/1999/xlink" x="0px" y="0px"
	 viewBox="0 0 312.1 235.4" style="enable-background:new 0 0 312.1 235.4;" xml:space="preserve">
<style type="text/css">
	.st0{fill:#FFFF00;}
</style>
<g>
	<path class="st0" d="M162.1,62.5l-4.2,1.1l0,0l-10.8,2.9l-7.2,12.6l-2.6,4.6l-2.6,4.6l-2.6,4.6l-2.6,4.6l-2.6,4.6l-2.6,4.6
		l-2.6,4.6l-7.8,13.6l6,10.8l0,0l2.1,3.8l0.7,1.2l2.5,4.5l0.9-1.2l-2.2-3.9l-0.7-1.2l-0.6-1l0,0l-7.2-13l7.4-12.9l2.6-4.6l2.6-4.6
		l2.6-4.6l2.6-4.6l2.6-4.6l2.6-4.6l2.6-4.6l6.9-12.1l13.4-3.6l0,0l1-0.3l1.4-0.4l6.2-1.7l6.2,7.4l1.4,5.1l0.3-0.1l1.3-0.3l4.8-1.3
		l1.1-0.3l0,0l7.8-2.1l7,4l4.5,2.6l4.5,2.6l4.5,2.6l4.5,2.6l4.5,2.6l4.5,2.6l4.5,2.6l4.5,2.6l4.5,2.6l4.5,2.6l4.5,2.6l4.5,2.6
		l4.5,2.6l4.5,2.6l4.5,2.6l4.5,2.6l4.5,2.6l4.5,2.6l4.5,2.6l5.8,3.3l-0.1,6.7l0,0l0,0.8l-0.1,3.9l0,2.6l0,2.1l4.5,0.1l6.1-2.7l0-0.7
		l0.1-3.5l0-1.4l0-1.5l0,0l0.2-12.5l-11.3-6.4l-4.5-2.6l-4.5-2.6l-4.5-2.6l-4.5-2.6l-4.5-2.6l-4.5-2.6l-4.5-2.6l-4.5-2.6l-4.5-2.6
		l-4.5-2.6l-4.5-2.6l-4.5-2.6l-4.5-2.6l-4.5-2.6l-4.5-2.6l-4.5-2.6l-4.5-2.6l-4.5-2.6l-4.5-2.6l-10.8-6.1l-11.7,3.1l0,0l-1.4,0.4
		l-1.4,0.4l-3.5,0.9l-3.1,0.8l-3.3-4.2l-6.6,1.8L162.1,62.5z M293.3,139.3l0.1-6.1l0.1-3.1l0,0l0.1-4.2l-6.5-3.7l-4.5-2.6L278,117
		l-4.5-2.6l-4.5-2.6l-4.5-2.6l-4.5-2.6l-4.5-2.6l-4.5-2.6l-4.5-2.6l-4.5-2.6l-4.5-2.6l-4.5-2.6l-4.5-2.6l-4.5-2.6l-4.5-2.6l-4.5-2.6
		l-4.5-2.6l-4.5-2.6l-4.5-2.6l-7.5-4.3l-5.2,1.4l0,0l-3.1,0.8l-6,1.6l-0.9-3.4l5.9-1.6l0,0l9.8-2.6l8.8,5l4.5,2.6l4.5,2.6l4.5,2.6
		l4.5,2.6l4.5,2.6l4.5,2.6l4.5,2.6l4.5,2.6l4.5,2.6l4.5,2.6l4.5,2.6l4.5,2.6l4.5,2.6l4.5,2.6l4.5,2.6l4.5,2.6l4.5,2.6l4.5,2.6
		l4.5,2.6l8.3,4.7l-0.2,9.6l0,0l-0.1,5.9L293.3,139.3z M182.6,63.2L182.6,63.2l11.6-3.1l10.4,5.9l4.5,2.6l4.5,2.6l4.5,2.6l4.5,2.6
		l4.5,2.6l4.5,2.6l4.5,2.6l4.5,2.6l4.5,2.6l4.5,2.6l4.5,2.6l4.5,2.6l4.5,2.6l4.5,2.6l4.5,2.6l4.5,2.6l4.5,2.6l4.5,2.6l4.5,2.6
		l10.7,6.1l-0.2,12.3l0,0l-0.1,5.9l-3.5-0.1l0.1-6.1l0.1-3.1l0,0l0.1-7l-8.9-5l-4.5-2.6l-4.5-2.6l-4.5-2.6l-4.5-2.6l-4.5-2.6
		l-4.5-2.6l-4.5-2.6l-4.5-2.6l-4.5-2.6l-4.5-2.6l-4.5-2.6l-4.5-2.6l-4.5-2.6l-4.5-2.6l-4.5-2.6l-4.5-2.6l-4.5-2.6l-4.5-2.6l-4.5-2.6
		l-9.2-5.2l-7,1.9l0,0l-3.1,0.8l-6,1.6l-0.9-3.4L182.6,63.2z"/>
	<path class="st0" d="M311.1,172.7l1-57.4L195.6,49.1l-51.3,13.8l-35.5,62l27,48.8l83.1,14.1v-59.6h-24.1v31.1l-43.5-7.4L136.4,125
		l23.8-41.5l32.1-8.6l95.5,54.2l-0.5,28.9l-99,52.6l-35.8-3.8L36.2,114.1l1.7-7.5l1.7,0.4l1.5-6.1l2.3-10.1l12,2.7L58,81.3h-0.1
		l0.8-3.4h0.1l2.7-12.1h-0.1l1.7-7.8l-11.4-2.5l0.9-4.1l2.1-2.7l0.6-2.9l7.1,1.6l3.7-16.6v-0.2L58.8,29l1.1-5.1l7.3,1.6l0.3-1.5
		l3.2-14.2L26.7,0l-3.5,15.7l-2.4,10.8l-2.5,11.1h0.1l5.3,1.2l-1.6,6.7L7.2,48.8L0,79.8l5,1.1l-0.3,1.3l11,2.5l-0.4,2.2l-2,8.9
		l-1.4,5.3l2.4,0.5l-4.9,21.9L143,230.2l50.1,5.3L311.1,172.7z M208.5,130.6v3.1v6.1H205v-6.1v-3.1H208.5z M203.9,130.6v3.1v6.1
		h-3.5v-6.1v-3.1H203.9z M53.3,90l-10-2.2l1.5-6.5l10,2.2L53.3,90z M54.9,82.3l-10-2.2l1.5-6.5l10,2.2L54.9,82.3z M56.7,74.4
		l-10-2.2l1.5-6.5l10,2.2L56.7,74.4z M180.6,233.3L180.6,233.3l-6.4-0.7l-12.2-1.3l-6.5-0.7l0,0l-5.1-0.5l-7.2-0.8l-1.8-1.5
		l-5.6-4.5l-4-3.2l-4-3.2l-4-3.2l-4-3.2l-4-3.2l-4-3.2l-4-3.2l-4-3.2l-4-3.2l-4-3.2l-4-3.2l-4-3.2l-4-3.2l-4-3.2l-4-3.2l-4-3.2
		l-4-3.2l-4-3.2l-4-3.2l-4-3.2l-4-3.2l-4-3.2l-4-3.2l-4-3.2l-4-3.2l-4-3.2l-4-3.2l-4-3.2l-14.3-11.4l3.9-17.8l1.3-6.2l-0.2,0
		l0.7-2.7l2-8.9l1-5L8.1,80.2l0.3-1.3l-5-1.1l6.1-26.5l15-3.5l2.6-11.2l-5.4-1.2l1.9-8.3l0.7-3l4.6-20.8l11.2,2.5l-4.6,20.8
		l-0.6,2.7l-1.3,5.9L33,37.9l-1.9-0.4l-3.2,13.7l-14.8,3.3L8.5,74.6l1,0.2l0.3-1.4l15.1,3.4l-1.5,6.5l-0.7-0.2l-1,4.9l-2,9l-0.8,3
		l0,0l-0.2,0.9l-0.3,1.2l0,0l-0.9,4l-3.4,15.7l12.6,10l4,3.2l4,3.2l4,3.2l4,3.2l4,3.2l4,3.2l4,3.2l4,3.2l4,3.2l4,3.2l4,3.2l4,3.2
		l4,3.2l4,3.2l4,3.2l4,3.2l4,3.2l4,3.2l4,3.2l4,3.2l4,3.2l4,3.2l4,3.2l4,3.2l4,3.2l4,3.2l4,3.2l4,3.2l5.1,4.1l1.5,1.2l6.2,0.6
		l4.1,0.4l0,0l4.4,0.5l1.4,0.1l5.1,0.5l-0.5-1.5l-4.5-0.5l-1.4-0.1l-1.5-0.2l0.4-3.5l1.5,0.2l1.4,0.1l3.6,0.4l3.2,0.3l1.6,5.1
		l6.8,0.7l1.4,0.1l4.3,0.4l0,0l4.2,0.4l6.1,0.6l2.2-1.2l5.8-3.1l4.6-2.5l4.6-2.5l4.6-2.5l4.6-2.5l4.6-2.5l4.6-2.5l4.6-2.5l4.6-2.5
		l4.6-2.5l4.6-2.5l4.6-2.5l4.6-2.5l4.6-2.5l4.6-2.5l4.6-2.5l4.6-2.5l4.6-2.5l4.6-2.5l4.6-2.5l4.6-2.5l14-7.4l0.2-12.6l0,0l0.1-4.4
		l0-1.4l0.1-5.1l-1.4,0.6l-0.1,4.5l0,1.4l0,1.1l0,0l-0.3,15l-13.3,7l-4.6,2.5l-4.6,2.5l-4.6,2.5l-4.6,2.5l-4.6,2.5l-4.6,2.5
		l-4.6,2.5l-4.6,2.5l-4.6,2.5l-4.6,2.5l-4.6,2.5l-4.6,2.5l-4.6,2.5l-4.6,2.5l-4.6,2.5l-4.6,2.5l-4.6,2.5l-4.6,2.5l-4.6,2.5l-4.6,2.5
		l-5.6,3l-2.1,1.1l-5.7-0.6l-5.2-0.5l0.4-3.5l5.2,0.5l4.6,0.5l1.7-0.9l5.1-2.7l4.6-2.5l4.6-2.5l4.6-2.5l4.6-2.5l4.6-2.5l4.6-2.5
		l4.6-2.5l4.6-2.5l4.6-2.5l4.6-2.5l4.6-2.5l4.6-2.5l4.6-2.5l4.6-2.5l4.6-2.5l4.6-2.5l4.6-2.5l4.6-2.5l4.6-2.5l4.6-2.5l11.4-6.1
		l0.2-12.6l0,0l0-1.5l0-1.4l0.1-3.6l0.1-3.2l4.9-2l0.1-6.8l0-1.4l0.1-4.3l0,0l0.2-12.6l-13.8-7.8l-4.5-2.6l-4.5-2.6l-4.5-2.6
		l-4.5-2.6l-4.5-2.6l-4.5-2.6l-4.5-2.6l-4.5-2.6l-4.5-2.6l-4.5-2.6l-4.5-2.6l-4.5-2.6l-4.5-2.6l-4.5-2.6l-4.5-2.6l-4.5-2.6l-4.5-2.6
		l-4.5-2.6l-4.5-2.6L195,53.7l-10.8,2.9l0,0l-4.3,1.1l-1.4,0.4l-4.9,1.3l0.9,1.2l4.3-1.2l1.4-0.4l1.1-0.3l0,0l13.4-3.6l12.1,6.8
		l4.5,2.6l4.5,2.6l4.5,2.6l4.5,2.6l4.5,2.6l4.5,2.6l4.5,2.6l4.5,2.6l4.5,2.6l4.5,2.6l4.5,2.6l4.5,2.6l4.5,2.6l4.5,2.6l4.5,2.6
		l4.5,2.6l4.5,2.6l4.5,2.6l4.5,2.6l13.1,7.4l-0.3,15l0,0l0,1l0,1.4l-0.1,6.4l-8.9,3.9l-5.3-0.1l0,0.3l0,1.3l-0.1,5l0,1.1l0,0
		l-0.1,6.7l-5.9,3.1l-4.6,2.5l-4.6,2.5l-4.6,2.5l-4.6,2.5l-4.6,2.5l-4.6,2.5l-4.6,2.5l-4.6,2.5L244,186l-4.6,2.5l-4.6,2.5l-4.6,2.5
		l-4.6,2.5l-4.6,2.5l-4.6,2.5l-4.6,2.5l-4.6,2.5l-4.6,2.5l-4.6,2.5l-4.6,2.5l-3.4,1.8l-0.4,0.2l-1.4-0.1l-5.2-0.5l0,0l-3.1-0.3
		l-3.9-0.4l-2.6-0.3l-2.1-0.2l-0.5,4.5l2.1,6.4l0.7,0.1l3.5,0.4l1.4,0.1l1.5,0.2l-0.4,3.5l-1.5-0.2l-1.4-0.1l-6.4-0.7l-3.2-9.2
		l0.6-5.3l-0.3,0l-1.3-0.1l-5-0.5l-3.4-0.4l0,0l-5.1-0.5l-1.6-0.2l-0.3-0.2l-2.8-2.3l-4-3.2l-4-3.2l-4-3.2l-4-3.2l-4-3.2l-4-3.2
		l-4-3.2l-4-3.2l-4-3.2l-4-3.2l-4-3.2l-4-3.2l-4-3.2l-4-3.2l-4-3.2l-4-3.2l-4-3.2l-4-3.2l-4-3.2l-4-3.2l-4-3.2l-4-3.2l-4-3.2l-4-3.2
		l-4-3.2l-4-3.2l-4-3.2l-4-3.2l-5-4l1.4-6.3l1.3-6.1l0,0l1-4L43.8,61l2.7-12.7l2.1-2.6l0.9-4.2h-0.2l2.5-11.3l4.4-20.9l3.9,0.8v0.1
		l7.5,1.7l-1.9,8.7L58.3,19l-2.6,12.1l7.3,1.6L60.5,44l-7.1-1.6l-1.1,5.1l-2.1,2.6l-2,8.7l1.4,0.3l0.3-1.2l10,2.2l-1.5,6.5l-10-2.2
		l0.4-1.8L47,62.2l-8.7,37.9l-1.5,6.2l0.2,0l-0.8,3.8l-0.9,4.2l3.3,2.7l4,3.2l4,3.2l4,3.2l4,3.2l4,3.2l4,3.2l4,3.2l4,3.2l4,3.2
		l4,3.2l4,3.2l4,3.2l4,3.2l4,3.2l4,3.2l4,3.2l4,3.2l4,3.2l4,3.2l4,3.2l4,3.2l4,3.2l4,3.2l4,3.2l4,3.2l4,3.2l4,3.2l4,3.2l2.3,1.8
		l0.6,0.1l5.1,0.5l0,0l4.8,0.5l15.1,1.6l2,0.2l3.2,0.3l0,0l5.2,0.5l0.3,0l2.9-1.5l4.6-2.5l4.6-2.5l4.6-2.5l4.6-2.5l4.6-2.5l4.6-2.5
		l4.6-2.5l4.6-2.5l4.6-2.5l4.6-2.5l4.6-2.5l4.6-2.5l4.6-2.5l4.6-2.5l4.6-2.5l4.6-2.5l4.6-2.5l4.6-2.5l4.6-2.5l4.6-2.5l4.1-2.2
		l0.1-4.6l0,0l0-2.5l0.3-15.2l0-2l0-0.9l0,0l0.1-4.6l-4-2.3l-4.5-2.6l-4.5-2.6l-4.5-2.6l-4.5-2.6l-4.5-2.6l-4.5-2.6l-4.5-2.6
		l-4.5-2.6l-4.5-2.6l-4.5-2.6l-4.5-2.6l-4.5-2.6l-4.5-2.6l-4.5-2.6l-4.5-2.6l-4.5-2.6l-4.5-2.6l-4.5-2.6l-4.5-2.6l-5.8-3.3l-6.4,1.7
		l0,0l-2.5,0.7l-14.7,3.9l-1.9,0.5l-0.9,0.2l0,0l-6.4,1.7l-3.3,5.7l-2.6,4.6l-2.6,4.6l-2.6,4.6l-2.6,4.6l-2.6,4.6l-2.6,4.6l-2.6,4.6
		l-2.4,4.3l2.4,4.3l0,0l1.2,2.2l7.4,13.3l1,1.7l0.5,0.8l0,0l2.8,5.1l5.8,1l5.1,0.9l5.1,0.9l5.1,0.9l5.1,0.9l5.1,0.9l5.1,0.9l5.1,0.9
		l3.1,0.5v-2.3v-1.1h0V152v-15.2v-2v-4.2h3.5v4.1v3.9v2.6v2.1h4.5l6.1-2.8v-0.7v-3.5v-1.4v-1.5h3.5v1.5v1.4v6.4l-8.8,4.1H199v0.3
		v1.3v5v3.4h0v2.4v5.1l-3.5-0.6l-3.7-0.6l-5.1-0.9l-5.1-0.9l-5.1-0.9l-5.1-0.9l-5.1-0.9l-5.1-0.9l-5.1-0.9l-7.4-1.3l-3.7-6.6l0,0
		l-0.4-0.7l-1.9-3.4l-1.3-2.3l-1-1.8l-3.9,2.2l-4,5.4l0.3,0.6l1.7,3.1l0.7,1.2l0.7,1.3l0,0l5.9,10.7l12.5,2.1l5.1,0.9l5.1,0.9
		l5.1,0.9l5.1,0.9l5.1,0.9l5.1,0.9l5.1,0.9l5.7,1l13.9,2.4v-13.6v-6.5h3.5v7.9V181l-17.4-2.9l-6.3-1.1l-5.1-0.9l-5.1-0.9l-5.1-0.9
		l-5.1-0.9l-5.1-0.9l-5.1-0.9l-5.1-0.9l-14.1-2.4l-6.9-12.5l0,0L132,155l-0.7-1.2l-3.1-5.6l5.7-7.9l4.6-2.6l-0.1-0.3l-0.6-1.1
		l-2.4-4.4l-0.6-1l0,0l-3.3-6l3.4-6l2.6-4.6l2.6-4.6l2.6-4.6l2.6-4.6l2.6-4.6l2.6-4.6l2.6-4.6l4-7l7.8-2.1l0,0l0.8-0.2l3.8-1
		l2.5-0.7l2-0.5l-1.2-4.3l-4.3-5.2l-0.7,0.2l-3.4,0.9l-1.4,0.4l-1.4,0.4l0,0l-11.6,3.1l-6.2,10.8l-2.6,4.6l-2.6,4.6l-2.6,4.6
		l-2.6,4.6l-2.6,4.6l-2.6,4.6l-2.6,4.6l-6.4,11.2l6.1,10.9l0,0l0.7,1.3l0.7,1.2l1.7,3.1l1.6,2.8l-3.3,4.2l3.3,5.9l0.7,1.2l2.1,3.8
		l0,0l5.7,10.3l14.8,2.5l5.1,0.9l5.1,0.9l5.1,0.9l5.1,0.9l5.1,0.9l5.1,0.9l5.1,0.9l6.5,1.1l18.8,3.2v-17.5v-7.4h0v-4.4V152v-5.1
		l-1.4,0.6v4.5v1.4v1.5h-3.5v-1.5V152v-3.6v-3.2l4.9-2.1v-6.8v-1.4v-4.3h3.5v7.4v12.3v6.5h0v9.7v20.3l-22.2-3.8l-7.2-1.2l-5.1-0.9
		l-5.1-0.9l-5.1-0.9l-5.1-0.9l-5.1-0.9l-5.1-0.9l-5.1-0.9l-16.4-2.8l-8.1-14.6l0,0l-2-3.6l-6-10.8l-2.1-3.7l0,0l-8.5-15.4l8.8-15.3
		l2.6-4.6l2.6-4.6l2.6-4.6l2.6-4.6l2.6-4.6l2.6-4.6l2.6-4.6l7.9-13.8l15.4-4.1l0,0l4-1.1l11.9-3.2l4.1-1.1l0,0l15.3-4.1l13.8,7.8
		l4.5,2.6l4.5,2.6l4.5,2.6l4.5,2.6l4.5,2.6l4.5,2.6l4.5,2.6l4.5,2.6l4.5,2.6l4.5,2.6l4.5,2.6l4.5,2.6l4.5,2.6l4.5,2.6l4.5,2.6
		l4.5,2.6l4.5,2.6l4.5,2.6l4.5,2.6l15.6,8.9l-0.3,17.9l0,0l-0.1,4.1l-0.2,12.3l-0.1,4.2l0,0l-0.3,17.9l-15.8,8.4l-4.6,2.5l-4.6,2.5
		l-4.6,2.5l-4.6,2.5l-4.6,2.5l-4.6,2.5l-4.6,2.5l-4.6,2.5l-4.6,2.5l-4.6,2.5l-4.6,2.5l-4.6,2.5l-4.6,2.5l-4.6,2.5l-4.6,2.5l-4.6,2.5
		l-4.6,2.5l-4.6,2.5l-4.6,2.5l-4.6,2.5l-6.4,3.4l-2.6,1.4l-7.2-0.8L180.6,233.3z M31.4,109.1l-1.6,7.2l5.7,4.6l4,3.2l4,3.2l4,3.2
		l4,3.2l4,3.2l4,3.2l4,3.2l4,3.2l4,3.2l4,3.2l4,3.2l4,3.2l4,3.2l4,3.2l4,3.2l4,3.2l4,3.2l4,3.2l4,3.2l4,3.2l4,3.2l4,3.2l4,3.2l4,3.2
		l4,3.2l4,3.2l4,3.2l4,3.2l3,2.4l0.4,0.3l2,0.2l4.1,0.4l0,0l3.2,0.3l6.2,0.6l-0.4,3.5l-6.2-0.6l-2.2-0.2l0,0l-5.1-0.5l-3.1-0.3
		l-0.7-0.5l-3.6-2.8l-4-3.2l-4-3.2l-4-3.2l-4-3.2l-4-3.2l-4-3.2l-4-3.2l-4-3.2l-4-3.2l-4-3.2l-4-3.2l-4-3.2l-4-3.2l-4-3.2l-4-3.2
		l-4-3.2l-4-3.2l-4-3.2l-4-3.2l-4-3.2l-4-3.2l-4-3.2l-4-3.2l-4-3.2l-4-3.2l-4-3.2l-4-3.2l-4-3.2l-7.4-5.9l2-9.3l0.9-4l0.1,0l1.1-5.1
		l5.8-31.1l-8.7-1.9l-0.3,1.5l-13.1-2.9l1.5-6.5l13.1,2.9L28,62.8l12.2,2.7l-6.8,34.6l-0.7,3l0,0L31.4,109.1z M155.9,217.6l3.2,0.3
		l6.2,0.6l-0.4,3.5l-6.2-0.6l-2.2-0.2l0,0l-5.1-0.5l-4.4-0.5l-1.1-0.8l-4.2-3.4l-4-3.2l-4-3.2l-4-3.2l-4-3.2l-4-3.2l-4-3.2l-4-3.2
		l-4-3.2l-4-3.2l-4-3.2l-4-3.2l-4-3.2l-4-3.2l-4-3.2l-4-3.2l-4-3.2l-4-3.2l-4-3.2l-4-3.2l-4-3.2l-4-3.2l-4-3.2l-4-3.2l-4-3.2l-4-3.2
		l-4-3.2l-4-3.2l-4-3.2l-9.7-7.7l2.6-12.1l1.3-6.1l-0.1,0l1.7-7.3l0.2-13.8l1.2-5.8l-2.3-0.5l-0.3,1.5l-13.1-2.9l1.5-6.5l13.1,2.9
		l-0.3,1.5l5.8,1.3l-2,9.1l-0.1,13.7l-1.7,7.6l-0.2,0l-1.3,6.1l-2.2,9.9l8,6.4l4,3.2l4,3.2l4,3.2l4,3.2l4,3.2l4,3.2l4,3.2l4,3.2
		l4,3.2l4,3.2l4,3.2l4,3.2l4,3.2l4,3.2l4,3.2l4,3.2l4,3.2l4,3.2l4,3.2l4,3.2l4,3.2l4,3.2l4,3.2l4,3.2l4,3.2l4,3.2l4,3.2l4,3.2l3.7,3
		l0.8,0.6l3.4,0.4L155.9,217.6L155.9,217.6z M23.2,103.2l-0.9,4l-2.8,12.7l10.2,8.1l4,3.2l4,3.2l4,3.2l4,3.2l4,3.2l4,3.2l4,3.2
		l4,3.2l4,3.2l4,3.2l4,3.2l4,3.2l4,3.2l4,3.2l4,3.2l4,3.2l4,3.2l4,3.2l4,3.2l4,3.2l4,3.2l4,3.2l4,3.2l4,3.2l4,3.2l4,3.2l4,3.2l4,3.2
		l4.4,3.5l1.1,0.9l4.7,0.5l5.1,0.5l-0.4,3.5l-5.1-0.5l-5.7-0.6l-1.4-1.1l-4.9-3.9l-4-3.2l-4-3.2l-4-3.2l-4-3.2l-4-3.2l-4-3.2l-4-3.2
		l-4-3.2l-4-3.2l-4-3.2l-4-3.2l-4-3.2l-4-3.2l-4-3.2l-4-3.2l-4-3.2l-4-3.2l-4-3.2l-4-3.2l-4-3.2l-4-3.2l-4-3.2l-4-3.2l-4-3.2l-4-3.2
		l-4-3.2l-4-3.2l-4-3.2l-11.9-9.5l3.2-14.9l0.9-4L23.2,103.2z M31.2,60.5l0.3-1.5l-13.3-3L30,53.4l3-12.7l2.1,0.5l6.1-35l13.6,3
		L46,44.4L43.9,47l-3.1,13.2l-0.5,2.3L31.2,60.5z M190,216.2l3.7-1.9l4.6-2.5l4.6-2.5l4.6-2.5l4.6-2.5l4.6-2.5l4.6-2.5l4.6-2.5
		l4.6-2.5l4.6-2.5l4.6-2.5l4.6-2.5l4.6-2.5l4.6-2.5l4.6-2.5l4.6-2.5l4.6-2.5l4.6-2.5l4.6-2.5l4.6-2.5l4.6-2.5l6.6-3.5l0.1-4.3l0,0
		l0.1-3.2l0.1-6.2l3.5,0.1l-0.1,6.1l0,0l-0.2,9.6l-8.5,4.5l-4.6,2.5l-4.6,2.5l-4.6,2.5l-4.6,2.5l-4.6,2.5l-4.6,2.5l-4.6,2.5
		l-4.6,2.5l-4.6,2.5l-4.6,2.5l-4.6,2.5l-4.6,2.5l-4.6,2.5l-4.6,2.5l-4.6,2.5l-4.6,2.5l-4.6,2.5l-4.6,2.5l-4.6,2.5l-4.6,2.5l-4.2,2.2
		l-1,0.5l-2.9-0.3l-5.2-0.5l0,0l-2.1-0.2l-6.1-0.6l0.4-3.5l6.1,0.6l3.1,0.3l0,0l4.2,0.4l1.8,0.2L190,216.2z M179.8,220.2l3.1,0.3
		l0,0l4.2,0.4l3.2,0.3l1.1-0.6l4.4-2.3l4.6-2.5l4.6-2.5l4.6-2.5l4.6-2.5l4.6-2.5l4.6-2.5l4.6-2.5l4.6-2.5l4.6-2.5l4.6-2.5l4.6-2.5
		l4.6-2.5l4.6-2.5l4.6-2.5l4.6-2.5l4.6-2.5l4.6-2.5l4.6-2.5l4.6-2.5l4.6-2.5l9-4.8l0.1-7l0,0l0.1-3.2l0.1-6.2l3.5,0.1l-0.1,6.1l0,0
		l-0.2,12.3l-10.9,5.8l-4.6,2.5l-4.6,2.5l-4.6,2.5l-4.6,2.5l-4.6,2.5l-4.6,2.5l-4.6,2.5l-4.6,2.5l-4.6,2.5l-4.6,2.5l-4.6,2.5
		l-4.6,2.5l-4.6,2.5l-4.6,2.5l-4.6,2.5l-4.6,2.5l-4.6,2.5l-4.6,2.5l-4.6,2.5l-4.6,2.5l-4.9,2.6l-1.5,0.8l-4.3-0.4l-5.2-0.5l0,0
		l-2.1-0.2l-6.1-0.6l0.4-3.5L179.8,220.2z M203.9,154.6v2.2h0v4.3v9l-8.3-1.4l-4.6-0.8l-5.1-0.9l-5.1-0.9l-5.1-0.9l-5.1-0.9
		l-5.1-0.9l-5.1-0.9l-5.1-0.9l-9.8-1.7l-4.8-8.7l0,0l-2.9-5.2l3.1-1.7l3,5.3l1.5,2.7l0,0l2.4,4.3l8.1,1.4l5.1,0.9l5.1,0.9l5.1,0.9
		l5.1,0.9l5.1,0.9l5.1,0.9l5.1,0.9l4,0.7l4.9,0.8v-6.2v-2h0v-3.2v-6.2h3.5V154.6z M205,148.4h3.5v6.2v2.2h0v6.1v12.7l-12.8-2.2
		l-5.5-0.9l-5.1-0.9l-5.1-0.9l-5.1-0.9l-5.1-0.9l-5.1-0.9l-5.1-0.9l-5.1-0.9l-11.9-2l-5.9-10.6l0,0l-2.9-5.2l3.1-1.7l3,5.3l1.5,2.7
		l0,0l3.5,6.3l10.3,1.7l5.1,0.9l5.1,0.9l5.1,0.9l5.1,0.9l5.1,0.9l5.1,0.9l5.1,0.9l4.8,0.8l9.4,1.6v-9.9v-3.7h0v-3.2V148.4z
		 M126.5,135.6l-5.9-10.7l6.1-10.6l2.6-4.6l2.6-4.6l2.6-4.6l2.6-4.6l2.6-4.6l2.6-4.6l2.6-4.6l6-10.4l11.6-3.1l0,0l5.7-1.5l0.9,3.4
		l-5.9,1.6l-3,0.8l0,0l-7,1.9l-5.2,9.1l-2.6,4.6l-2.6,4.6l-2.6,4.6l-2.6,4.6l-2.6,4.6l-2.6,4.6l-2.6,4.6l-5.1,8.9l3.4,6.1l0,0
		l1.6,2.8l3,5.4l-3.1,1.7L126.5,135.6L126.5,135.6z M156.4,78.6l-4.3,7.5l-2.6,4.6l-2.6,4.6l-2.6,4.6l-2.6,4.6l-2.6,4.6l-2.6,4.6
		l-2.6,4.6l-3.8,6.7l2.1,3.9l0,0l1.6,2.8l3,5.4l-3.1,1.7l-3-5.4l0,0l-4.7-8.5l4.8-8.4l2.6-4.6l2.6-4.6l2.6-4.6l2.6-4.6l2.6-4.6
		l2.6-4.6l2.6-4.6l5-8.7l9.7-2.6l0,0l5.7-1.5l0.9,3.4l-5.9,1.6l-3,0.8l0,0L156.4,78.6z"/>
</g>
</svg>
