<?xml version="1.0" encoding="utf-8"?>
<!-- Generator: Adobe Illustrator 19.2.1, SVG Export Plug-In . SVG Version: 6.00 Build 0)  -->
<svg version="1.1" id="ELD:_Part" xmlns="http://www.w3.org/2000/svg" xmlns:xlink="http://www.w3.org/1999/xlink" x="0px" y="0px"
	 viewBox="0 0 27.2 22.5" style="enable-background:new 0 0 27.2 22.5;" xml:space="preserve">
<style type="text/css">
	.st0{fill:#00AEEF;}
</style>
<g id="CC:_APA102C_Footprint">
	<g id="TR:_Traces">
		<polygon class="st0" points="23,0 23,0 21,0 5.8,0 5.8,0 0,0 0,3.5 4.4,3.5 4.4,3.5 9.4,3.5 9.4,3.5 10.7,3.5 10.7,3.5 11,3.5 
			11,8.8 15.1,17.6 21.5,17.6 21.5,17.6 22.9,17.6 22.9,17.6 24.4,17.6 24.4,14.1 22.9,14.1 22.9,14.1 21.5,14.1 18,14.1 17.3,14.1 
			14.5,8 14.5,3.5 16.6,3.5 16.6,3.5 19.2,3.5 23.1,3.5 23.1,3.5 27.2,3.5 27.2,0 		"/>
		<polygon class="st0" points="24.1,4.9 18,4.9 18,8.4 24.1,8.4 24.1,8.4 27.2,8.4 27.2,4.9 		"/>
		<polygon class="st0" points="24.1,9.5 18,9.5 18,13 24.1,13 24.1,13 27.2,13 27.2,9.5 		"/>
		<polygon class="st0" points="3.2,8.4 9.4,8.4 9.4,4.9 3.2,4.9 3.2,4.9 0,4.9 0,8.4 		"/>
		<polygon class="st0" points="3.2,13 9.4,13 9.4,9.5 3.2,9.5 3.2,9.5 0,9.5 0,13 		"/>
		<polygon class="st0" points="22.9,19 21.5,19 21.5,19 14.7,19 12.6,14.1 9.4,14.1 5.8,14.1 4.4,14.1 4.4,14.1 2.9,14.1 2.9,17.6 
			4.4,17.6 4.4,17.6 5.8,17.6 5.8,17.6 10.3,17.6 10.9,19 5.8,19 5.8,19 4.4,19 4.4,19 0,19 0,22.5 7.5,22.5 7.5,22.5 19.8,22.5 
			19.8,22.5 27.2,22.5 27.2,19 		"/>
	</g>
	<rect id="SMD:_APA102C" x="6.5" y="4.2" width="14.2" height="14.2"/>
</g>
</svg>
