<?xml version="1.0" encoding="utf-8"?>
<!-- Generator: Adobe Illustrator 19.2.1, SVG Export Plug-In . SVG Version: 6.00 Build 0)  -->
<svg version="1.1" id="Layer_1" xmlns="http://www.w3.org/2000/svg" xmlns:xlink="http://www.w3.org/1999/xlink" x="0px" y="0px"
	 viewBox="0 0 57 108.5" style="enable-background:new 0 0 57 108.5;" xml:space="preserve">
<style type="text/css">
	.st0{fill:#294DFF;}
</style>
<path class="st0" d="M57,75.9V63.5h-0.1v-8H45.2l0-4.2l1.5-3.1l0-3H54v-17v-0.2h-7.5l-0.1-5.2H54v-1.5h0V6.8L54,0L8.7,0.4L8.6,6.8
	v16.1V34h0v11.3h0.1h5.4L14,52.2L0.2,58.6L0,90.5l5.1,0v1.3h11.2l0,2.2l0,9.1l-0.2,5.4l2.9,0l0.1-5.4l0-9.2l-0.1-5.1H7.9v-1.3
	l-5.1,0l0.2-27.2L16.8,54L17,42.5h-5.5V34v-3V9.6h11.5v21.3v2.8h0v6h0v2.8H21l-0.2,14.1L7,63L6.9,83.6l1.1,0v-1.4h15.5v6.7h-0.7
	l0.1,5v9.2l-0.1,5.3l5.9,0l0.1-9.6l-2.8-13.5l0-5.9h-2.4V81H10v-6.7h13.4v1.6h5.9l0.1,9.3l2.9,13.4l-0.1,10l1,0v-5.3l-0.8-31.7h-8.9
	V73H10v-6.7h13.4v1.6h12.5l0.9,35.3l0,5.3l1.3,0l0.1-6.4l0.2-39.4l0,0l0.1-13l1.5-3l0-4.3h-0.2V30.9h0L39.5,9.6l4,0l0,0.1h7.7v8.9
	h-7.6l0.1,12.4h7.4v11.6h-7.3l0.1,5.2l-1.5,3l-0.1,8.9l1.5,0v-1.2h10.2v6.7H43.9v-1.9l-1.9,0l-0.2,38.9l-0.1,6.3l2.8,0l0.1-6.3
	l0.1-10.4H57V79.4h-0.1L57,75.9L57,75.9z M31.3,15.6c1.2,0,2.2,1,2.2,2.2c0,1.2-1,2.2-2.2,2.2c-1.2,0-2.2-1-2.2-2.2
	C29,16.6,30,15.6,31.3,15.6z M32.7,32.3c0,0.8-0.6,1.4-1.4,1.4c-0.8,0-1.4-0.6-1.4-1.4c0-0.8,0.6-1.4,1.4-1.4
	C32.1,30.9,32.7,31.6,32.7,32.3z M35.6,49.1l-0.1,13.6l0,2.4h-9.3v-1.5H12.7l11-5.1l0.1-13.1h2h11.1h0.2l0,0.8L35.6,49.1z
	 M43.9,74.4h10.2v6.7H43.9V74.4z M54.1,88.9H43.9v-6.7h10.2V88.9z M54.1,73H43.9v-6.7h10.2V73z"/>
</svg>
