<?xml version="1.0" encoding="utf-8"?>
<!-- Generator: Adobe Illustrator 19.2.1, SVG Export Plug-In . SVG Version: 6.00 Build 0)  -->
<svg version="1.1" id="ELD:_Bouquet" xmlns="http://www.w3.org/2000/svg" xmlns:xlink="http://www.w3.org/1999/xlink" x="0px"
	 y="0px" viewBox="0 0 288 432" style="enable-background:new 0 0 288 432;" xml:space="preserve">
<style type="text/css">
	.st0{fill:#005F07;}
	.st1{fill:#008307;}
	.st2{display:none;fill:#FFFFFF;}
	.st3{display:none;}
	.st4{fill:#0000FF;}
	.st5{fill:none;stroke:#FFE500;stroke-miterlimit:10;}
</style>
<g id="DIF:_Diffuser_1_">
	<g>
		<path class="st0" d="M33.7,227.8c0,0,39,11.4,52.7-10.9c4-6.5-0.9,1.2-1.3,1.9c-0.7,1.2,1.8,4.3,3.5,3.1l16.6,10.4
			c0,0-8.1-9.3,2.2-13.8c10.3-4.5,8.7-1.6,8.7-1.6s-4.1,2.4-5.7,5.7c-1.6,3.3,1.4,0.3,7.4-4.2c6-4.5,12.5,7.1,0,10.5s-17.8,6-17.8,6
			l37.5,11.5l45.4-4.9l12-7.7c0,0,15.8,6,22.1,4c6.3-2-15.9-7.7-14.1-15.3c1.7-7.7,0-7.7,0-7.7s12.8,8.7,15.2,12.2s0-5.8,0-5.8
			s-3.8-10.3-7.3-11.5c-3.5-1.2,10.5-7.7,10.5-7.7s5.3,1.8,7,5.1c1.6,3.2,6.9,3.7,6.9,3.7l9.3-0.8l9-2.9c0,0-27.7,1.5-32.7-9.9
			c-5.1-11.4,9.9-11.7,9.9-11.7s3.2,0.1,7.9,1.5c2.4,0.7,5.6,2.2,8.1,3.3c8.4,3.9-3.5-7.8-13.2-9.9c-9.9-2.1-9.3-2.3-12.8-3.7
			c-2.7-1.1-4.4-2.8-5.7-5.4c-1.4-2.9,1.2-4.8,3.4-6.6c3.8-3.1,14.7-7.8,14.7-7.8s-13.4-4.1-23.7,0.2c-2,0.8,0.6-3.7,5.7-7.2
			c4.6-3.1,13-5,12.5-5.8c-0.6-1-5.6-0.7-9.5,0.8c-2.4,1-4.1,1.1-5.7,2.4c-4.4,3.8-10.2,0.9-10.2,0.9s0.2-8.5,8.6-12.1
			c4.2-1.8,12.8-3.2,12.8-3.2s7.8-6,10.5-14.7c2.2-6.9-1.1,0.9-2.7,2.5c-1.6,1.7-14.6,11.3-25.7,6.3c-0.5-0.2-0.9-3.9,3.2-6.3
			c6.5-3.8,14.3-6.5,13.9-8.2c-0.4-1.5-8,2.3-14.9,3.5c-5.8,1-8.6-1-8.6-1.6c0-9.7,4.7-10.9,4.7-10.9s6-3.1,13.1-3.8
			c6.5-0.6,7.5-6.2,7.5-6.2s-10.6,5.3-11.7,3.5c-1.1-1.8,4.2-13.3,4.2-13.3s-6.1,3.6-9.9,8.5c-3.8,5-18-29.2-18.6-29.2
			s-21.9-7.8-25.7-6.7c-3.8,1.2-32.5,15.8-33.2,19c-0.7,3.2-1.8-11.8-2.5-13.7s-1.5,4.8-3.2,9c-1.7,4.2-2.7,7-2.7,7
			s-1.4,1.9-5.5-1.8c-4.2-3.7-2.9-10-2-11.6c1-1.6-6-5.8-6-5.8s1.5,1,2.8,9.4S109.2,87,109.2,87L93.5,72.1c0,0-3.5-3.8-1.3,2.7
			c2.2,6.5,10.4,20.6,10.4,20.6s2.2,7.9,0,10c-2.2,2.2-14,3.7-16.6,2.1c-2.5-1.6,4.5-9.2-4-12c-8.5-2.9-14.7-9.7-16-10.2
			c-1.3-0.4-6.4-1.2-8-0.7s9,2.5,11.3,8.7c2.3,6.2-0.3,7.2-0.3,7.2s-9.3-7.8-11.3-8c-2-0.2,10.7,10.9,10,13.9
			c-0.7,2.9-9.8,4.2-14.3,1.6c-4.5-2.6-4.5-2.6-4.5-2.6s4.8,8.7,10,8.5s-9.5,35.8-9.5,35.8s-14.5,7.6-17.5,12.2s3.8-4.5,12.7-5.6
			c8.8-1.1,9.3,12.6,9.3,12.6s4.5,5.8-4.2,8.1c-8.7,2.3-13.9,6-13.9,6s-8.8,10.7-6.8,9.5s15.3-11.7,22.8-10s7.8,8.8,7.8,9.1
			c0,0.3-8.2,1.3-16.1,9.4s-8.1,9-8.1,9s10-12.6,24-12.6c14,0,16.7,5.7,16.7,5.7S76.5,219.4,33.7,227.8z"/>
	</g>
</g>
<path id="DIF:_Diffuser_2_" class="st1" d="M109.7,196.2c0,0-12.2-9.2-22.2,0c-4.8,4.4-7.2,7.6-8.4,9.1c-1.3,1.6-1.2,1.4-2.7,4.3
	c-0.8,1.6-1.9,3.6-0.7,4.1c3.3,1.4,9.2,2,15.6,2.9c9.2,1.2,19.5-1.2,21.7-6.8s1.2-7.8,1.2-7.8s-5.4-1.6-10.6,0
	c-2.8,0.8-5.8,2-7.9,3.2c-6.4,3.7-5.5,2.9-5.5,2.9s2.4-4,7.1-7.8S109.7,196.2,109.7,196.2z"/>
<path id="DIF:_Diffuser" class="st1" d="M231.8,217.8c-0.7-3.8-1.9-7.4-3.8-10.6c0,0,0,0,0-0.1c-0.2-0.3-0.3-0.5-0.5-0.8
	c-2-2.7-6.4-4.2-6.4-4.2s-14,6.5-10.5,7.7c3.5,1.2,7.3,11.5,7.3,11.5s2.5,9.3,0,5.8c-2.2-3.1-12.8-10.5-14.9-11.9
	c0.4,0.5,0.8,2.2-0.4,7.4c-1.7,7.7,20.4,13.3,14.1,15.3c-5.5,1.8-18.3-2.6-21.4-3.8c1.6,1,3.4,1.8,5.3,2.5c10,3.7,20.4,3,30.7,2.6
	c2.2-0.1,2.6-0.9,2.4-2.7C233.1,230.3,232.9,224,231.8,217.8z"/>
<g id="DIF:_Diffuser_3_">
	<g>
		<g>
			<path class="st1" d="M206.8,92.5c3.8-5,9.9-8.5,9.9-8.5s-5.3,11.5-4.2,13.3c1.1,1.8,11.7-3.5,11.7-3.5s-0.9,5.5-7.5,6.2
				c-0.6,0.1-1.2,0.1-1.7,0.2c1.2,0.5,2.7,0.6,4.2,0.1c4.2-1.5,5.8-5,6.3-9.1c0.7-5.8-1-11.3-2.5-16.9c-0.3-1.1-0.8-1.3-1.8-1
				c-3.3,1.1-6.7,2.1-9.8,3.5c-3.5,1.5-6.5,3.8-8,7.5c-1.1,2.6-1,5.1,0,6.9C204.8,92.9,206.1,93.6,206.8,92.5z"/>
		</g>
	</g>
</g>
<path id="DIF:_Diffuser_5_" class="st1" d="M217.9,100.7c-0.7-0.2-1.4-0.3-2.2-0.3c-0.2-0.1-0.4-0.1-0.6-0.1c-0.1,0-0.2,0-0.3-0.1
	c-6.2,1-11.2,3.6-11.2,3.6s-4.7,1.2-4.7,10.9c0,0.6,2.8,2.6,8.6,1.6c6.9-1.2,14.5-5,14.9-3.5c0.4,1.7-7.4,4.4-13.9,8.2
	c-4.1,2.4-3.7,6.1-3.2,6.3c11.2,5,24.1-4.6,25.7-6.3c1.6-1.7,4.8-9.4,2.7-2.5c-2.7,8.7-10.5,14.7-10.5,14.7c2.1-1.2,3.9-2.9,5.6-5
	c5-6.4,7-14.2,9.1-21.8c0.4-1.6,0-2.1-1.4-2.4c-4.7-1-9.4-2.4-14.2-3C220.9,100.8,219.4,100.7,217.9,100.7z"/>
<path id="DIF:_Diffuser_6_" class="st1" d="M223.7,133.1c-0.1,0-0.2,0-0.2,0c-0.1,0.1-0.1,0.1-0.1,0.1s-8.6,1.4-12.8,3.2
	c-8.3,3.6-8.6,12.1-8.6,12.1s5.8,2.9,10.2-0.9c1.5-1.3,3.3-1.5,5.7-2.4c3.9-1.5,8.9-1.9,9.5-0.8c0.5,0.8-7.9,2.7-12.5,5.8
	c-5.1,3.5-7.7,8.1-5.7,7.2c8.3-3.5,18.7-1.4,22.3-0.5c1.4-0.8,2.7-1.9,4-3.2c4.2-4.5,6.1-10.2,8.2-15.8c0.4-1.2,0.1-1.6-0.9-1.9
	c-3.5-1-6.9-2.3-10.4-3.1C229.4,132.3,226.5,132.2,223.7,133.1z"/>
<path id="DIF:_Diffuser_7_" class="st1" d="M272.8,194.3c-5.6-7.2-10.8-14.7-16.9-21.6c-6.4-7.2-13.8-13.2-23.1-15.5
	c-0.2,0.1-10.9,4.8-14.7,7.8c-2.2,1.8-4.9,3.7-3.4,6.6c1.3,2.6,3,4.3,5.7,5.4c3.4,1.4,2.9,1.6,12.8,3.7c3.6,0.8,7.6,2.9,10.7,5.1
	c0,0,0,0,0.1,0c0,0,0,0,0,0c5.1,3.6,7.7,7.2,2.4,4.7c-2.5-1.2-5.7-2.6-8.1-3.3c-4.7-1.4-7.9-1.5-7.9-1.5s-14.9,0.3-9.9,11.7
	s32.7,9.9,32.7,9.9l-9,2.9c10.4-1.9,19.2-6.7,28.1-11.4C274.6,197.6,274.5,196.4,272.8,194.3z"/>
<path id="DIF:_Diffuser_8_" class="st1" d="M33.7,227.8c42.8-8.4,42.5-24.7,42.5-24.7s-2.7-5.7-16.7-5.7c-14,0-24,12.6-24,12.6
	s0.2-0.8,8.1-9s16.1-9.2,16.1-9.4s-0.3-7.4-7.8-9.1s-20.8,8.8-22.8,10c-2,1.2,6.8-9.5,6.8-9.5c-1.1,1-2.2,2-3.1,3
	c-11.8,15.9-13.2,21.4-17.8,38.5c4.8,2.6,13.6,3.8,22.5,4.2C35,228.2,33.7,227.8,33.7,227.8z"/>
<path id="DIF:_Diffuser_9_" class="st1" d="M53.3,108c4.5,2.6,13.7,1.3,14.3-1.6c0.7-2.9-12-14.1-10-13.9s11.3,8,11.3,8
	s2.7-1,0.3-7.2c-2.3-6.2-13-8.2-11.3-8.7c1.6-0.5,6.4,0.2,7.9,0.7c-0.4-0.1-0.7-0.3-1.1-0.4c-7.2-2.1-14.2-0.4-21.2,1.2
	c0,4.4,3.1,15.4,5.3,19.3C48.8,105.4,48.8,105.4,53.3,108z"/>
<path id="DIF:_Diffuser_10_" class="st1" d="M73.2,90.9c2.5,1.7,5.4,3.5,8.8,4.6c8.4,2.9,1.6,10.3,4,12c0.3,0.1,0.7,0.3,1,0.4
	c3.7,0.9,13.6-0.5,15.6-2.4c2.2-2.2,0-10,0-10s-8.2-14.1-10.4-20.6c-1.6-4.7-0.2-4,0.7-3.3c0,0,0,0,0-0.1c0.2,0.2,0.4,0.4,0.6,0.6
	c0,0,0,0,0,0L109.2,87c0,0,2.3-10.5,1.1-18.9c-1.2-8.4-2.8-9.4-2.8-9.4s7,4.2,6,5.8c-1,1.6-2.2,7.9,2,11.6c4.2,3.7,5.5,1.8,5.5,1.8
	s0.3-1,1-2.6c-1.2-6-4.9-10.8-10.1-14.5c-11.1-8-24.2-9.3-37.1-10.7c-2.6,7.6-3.9,28.4-2.5,36.2C72.5,87.9,72.8,89.4,73.2,90.9z"/>
<path id="DIF:_Diffuser_11_" class="st1" d="M115.5,76.2c4.2,3.7,5.5,1.8,5.5,1.8s1-2.8,2.7-7c1.7-4.2,2.5-10.8,3.2-9
	s1.8,16.8,2.5,13.7c0.2-0.9,2.7-2.8,6.3-5c0-0.5-0.1-0.9-0.2-1.4c-0.9-5.8-4-10.7-7-15.6c-0.6-1-1.1-1-2-0.4c-2.9,2-5.9,3.8-8.6,6
	c-2.1,1.7-3.9,3.8-4.9,6.2C112.3,67.8,111.9,73,115.5,76.2z"/>
<path id="DIF:_Diffuser_12_" class="st1" d="M117.7,218.5c-6,4.5-9,7.5-7.4,4.2c1.6-3.3,5.7-5.7,5.7-5.7s1.7-2.9-8.7,1.6
	c-10.3,4.5-2.2,13.8-2.2,13.8l-0.2-0.1c0.2,0.2,0.3,0.3,0.5,0.5c2.9-1,6.9-2.3,12.2-3.8C130.2,225.6,123.7,214,117.7,218.5z"/>
<path id="DIF:_Diffuser_13_" class="st1" d="M49.6,177c2.6-0.7,4.1-1.7,4.8-2.8c0.9-2.6-0.6-5.3-0.6-5.3s-0.5-13.7-9.3-12.6
	c-8.8,1.1-15.7,10.2-12.7,5.6c3-4.6,17.5-12.2,17.5-12.2s0.1-0.2,0.3-0.6c0,0,0-0.1,0-0.1c0-0.1,0.1-0.3,0.2-0.4
	c0-0.1,0-0.1,0.1-0.2c0.1-0.2,0.1-0.3,0.2-0.5c0,0,0-0.1,0.1-0.1c0.1-0.2,0.2-0.4,0.3-0.7c0,0,0-0.1,0-0.1c0.1-0.2,0.2-0.5,0.3-0.8
	c0-0.1,0.1-0.1,0.1-0.2c0.1-0.3,0.2-0.5,0.3-0.8c-1.4-2.8-4.4-5.2-7.3-5.6c-6.8-1-12.3,1.9-16.6,6.8c-7.2,8.2-9.3,18.5-11.4,28.7
	c5.1,2.3,18.2,4.6,25.7,4.8C43.7,178.9,46.4,177.8,49.6,177z"/>
<g id="ART">
	<path class="st2" d="M310.7,424.4c-109.5,0-219,0-328.5,0c0-146,0-292,0-438c109.5,0,219,0,328.5,0
		C310.7,132.4,310.7,278.4,310.7,424.4z M183.8,293.8c0.4-2.9,0.8-5.5,1.2-8.2c1.5-9.5,2.7-19.1,5.7-28.3c2.2-6.7,4-13.6,5.8-20.4
		c0.4-1.5-0.2-3.2-0.3-4.8c-1.6,0.2-3.2,0.2-4.7,0.8c-4.4,1.7-8.6,3.8-12.9,5.5c-15.7,5.8-31.6,5.6-47.6,1.6
		c-14.5-3.6-27.8-9.8-40.5-17.4c-3-1.8-6-3.5-9.2-4.9c-2.4-1.1-3.4-0.4-3.2,2.2c0.2,2.1,0.6,4.2,1.3,6.2c2.7,8.3,5.3,16.6,11.1,23.5
		c6.5,7.9,14.4,14.1,23.1,19.4c14.1,8.7,29.3,15.1,45.2,19.5c6.6,1.8,13.4,3.2,20.1,4.7C180.4,293.3,182,293.5,183.8,293.8z
		 M100.8,275.7c-0.3,5.1,16.4,31.6,26.7,42.1c17.5,17.8,37.8,30.8,62.9,36.5c-4.6-16.7-6.7-33.1-6.9-50c-3.4-0.4-6.7-0.7-10-1.2
		c-16.5-2.5-32.1-7.8-47.2-14.7c-7-3.2-13.8-7-20.7-10.5C104.2,277.1,102.6,276.5,100.8,275.7z M213.3,399.3
		c0.2-0.2,0.3-0.4,0.5-0.6c-1-1.6-2-3.3-3.1-4.9c-6.2-9.1-12.8-18-17.2-28.1c-0.2-0.5-1.1-1-1.7-1.2c-9-1.8-17.6-4.9-25.9-9
		c-5-2.5-10-4.8-15-7.2c-0.9-0.4-1.9-0.4-2.8-0.6c-0.1,0.2-0.2,0.4-0.3,0.6c0.8,1.1,1.4,2.3,2.3,3.3c10.8,11.9,21.9,23.4,35.4,32.3
		c8.2,5.4,16.9,9.9,25.4,14.8C211.5,399.1,212.4,399.1,213.3,399.3z M33.5,218.5c4,0.5,7.8,1,11.6,1.3c2.6,0.2,5.3,0.2,7.9,0
		c4.5-0.4,8.8-1.5,12.4-4.4c5.9-4.8,5.5-12.7-0.8-16.2c-1.3-0.7-2.4-0.9-3.8-0.1c-4.7,2.6-9.5,5.2-13.9,7.7
		c-0.1,0.1,0.1-0.2,0.3-0.4c3.6-3.4,7.2-6.8,10.8-10.3c0.5-0.5,1-1.5,0.9-2c-1-3.7-5-6.1-8.8-5.5c-6.1,1-9.9,4.8-12.4,10.2
		C34.9,204.9,34.2,211.6,33.5,218.5z M241.7,145.6c0,0.1,0,0.2-0.1,0.3c-5.2,0.8-10.4,1.5-15.5,2.3c-0.9,0.1-2,0.6-2.5,1.2
		c-2.9,3.9-1.8,10,2.4,12.6c4.4,2.7,8.9,2.3,13.5,0.5c8.1-3.2,13.7-9.7,20.1-15.7c-3.2-3.1-6.2-6.2-9.5-8.9c-4.6-3.8-9.6-6.8-16-6.5
		c-5,0.2-8.9,2.8-10,6.8c-1.1,4.1,0.2,5.8,4.3,6C232.9,144.6,237.3,145.1,241.7,145.6z M227.6,233.2c-0.2,0.1-0.4,0.2-0.6,0.3
		c-0.4-0.6-0.7-1.2-1.1-1.8c-2.9-3.8-5.9-7.7-8.8-11.5c-0.4-0.5-1.1-1-1.7-1c-4.2,0-8.4,1.8-9.5,6.6c-1.3,6,1.6,10.3,6,13.8
		c6.3,5,13.9,7,21.4,9.1c1.6,0.5,2.1,0,2.4-1.4c1-4.6,2.4-9.2,3-13.9c0.7-5.1,0.3-10.2-3-14.7c-3.4-4.6-8.1-6.2-12.2-3.9
		c-2.9,1.6-3,2.2-1.6,5.3C223.9,224.5,225.7,228.9,227.6,233.2z M138.1,97.7c0.1-0.5,0.1-0.6,0.1-0.6c-0.2-0.5-0.4-1.1-0.6-1.6
		c-1.8-5.8-2.8-11.8-1.7-17.9c2.9-15.5,18.1-22.8,32.1-20c4.5,0.9,8.7,2.6,12.6,5.8c-4-10.8-14.9-19.7-28.6-18.1
		c-14.9,1.7-28.7,15.3-24.4,33.3C129.3,85.9,133,92,138.1,97.7z M89.2,64.1c0.1-0.1,0.1-0.1,0.2-0.2c3.5,3.9,6.9,7.8,10.4,11.6
		c0.5,0.5,1.4,1.1,2,1c2.9-0.5,5.6-3.9,5.8-6.9c0.2-5.4-2.4-9.3-6.5-12.3c-6.9-4.9-14.9-5.7-23-6.6c-1.6,4.7-2.4,17.5-1.6,22.4
		c0.7,4.2,2.1,8,5.2,10.9c4.9,4.6,11.7,3.6,14.9-2c0.7-1.3,0.8-2.5,0.1-3.8C94.2,73.6,91.7,68.9,89.2,64.1z M98.5,162.8
		c0.2,0.2,0.4,0.4,0.6,0.5c3.3-2.5,6.7-4.8,9.7-7.5c9.1-8.2,13.6-21.2,7.4-33.3c-5.8-11.3-18.2-18-30.6-15.4
		c-6.1,1.3-11.1,4.5-15.6,9.3c13.6-3,25.3-0.5,33.2,10.9C111.9,140,106.9,151.8,98.5,162.8z M195.1,203.5c-0.8,0.5-1.4,0.7-1.8,1.1
		c-6.9,6.2-15.1,8.5-24.2,7.3c-13.1-1.7-21.4-11.8-21.8-24.9c-0.1-3.8,0.4-7.7,0.6-11.5c-2.1,3.6-4.1,7.4-5.5,11.4
		c-3.1,8.8-3.1,17.6,2.2,25.6c6.4,9.6,15.8,13.4,27.2,12.3C183.2,223.7,192,215.4,195.1,203.5z M51.1,135c-1.4,1.7-2.9,3.4-4.3,5.2
		c-3.8,5.1-6.8,10.6-7.2,17c-0.5,8.8,3.7,15.4,11,19.8c10.1,6.2,21.1,7.2,32.4,4.1c2.4-0.7,4.7-1.7,7.1-2.6c-2.6-0.7-5-0.9-7.4-1.3
		c-2.4-0.5-4.9-1-7.2-1.8C58.1,169.2,47.1,154.8,51.1,135z M147.6,158.6c0.7-0.3,0.9-0.4,1.2-0.5c7.5-3.7,15.4-5.4,23.7-4.8
		c8.1,0.6,15.4,3.2,21.3,9c4.3,4.3,7,9.4,8.9,15.4c0.3-0.8,0.5-1.3,0.6-1.9c1.2-5,1.6-10.1,1.3-15.2c-0.7-9.5-6.8-17-15.9-19.4
		c-8.4-2.1-16.3-0.7-24,2.9C157.8,147.3,152.2,152,147.6,158.6z M192,86.8c-0.2,0.7-0.2,0.9-0.2,1.1c-3.3,19.8-17.3,27.5-32.5,28.9
		c-4.2,0.4-8.6-0.6-12.9-1c-1.5-0.1-2.9-0.6-4.9-1c0.7,0.9,1,1.3,1.3,1.6c10,8.7,21.5,12.8,34.7,10.5c8.8-1.5,15.5-6.1,18.1-15.1
		C197.9,103.3,195.4,95.2,192,86.8z M151,102.6c-0.1,0.2-0.1,0.4-0.2,0.6c3.5,1.2,6.9,2.8,10.5,3.6c8.2,1.9,15.7,0.6,21.3-6.2
		c5.7-6.9,7.6-15.2,6.4-24c-0.6-4.6-3.1-8.4-8-9.9c-2.9-0.9-5.7-0.9-8,1.2c-2.3,2.1-1.8,4.8-1,7.5c1.5,4.7,2.3,9.5,2.1,14.5
		c-0.3,9.1-6.5,14.7-15.5,13.8C156.1,103.5,153.6,103,151,102.6z M85.5,163.7c-3.2-0.6-5.8-1-8.4-1.5c-7-1.6-11.9-7.8-10.9-14.2
		c0.5-3.1,1.4-6.2,2.8-9.1c1.5-3.2,3.6-6.1,5.6-9c2.7-4,1.5-8.2-3.1-9.7c-1.6-0.5-3.5-0.7-5.2-0.5c-5.2,0.8-8.3,4.4-10.1,9.1
		c-2,4.9-2.5,10.1-2.2,15.3c0.6,8.8,4.9,15.6,13.8,18.6C73.4,164.7,79.1,164.7,85.5,163.7z M159.9,168.6c2.3-0.8,4.6-1.7,7-2.3
		c5.4-1.3,10.5-1.1,14.4,3.6c2.6,3.1,3.9,6.9,4,10.8c0.1,4.4-0.3,8.8-0.5,13.2c-0.2,4.3,2.4,6.9,6.7,6.5c4.8-0.4,8.8-4,9.7-9
		c1.5-7.5-1.3-13.9-5-20.2c-3-5.1-7.3-8.7-13.2-9.9C174,159.6,166.7,163.3,159.9,168.6z M175.5,157.9c0-0.2,0-0.4,0-0.5
		c-2.6-0.2-5.3-0.8-7.9-0.6c-15.3,1.4-28,8.2-37.9,19.9c-4,4.7-6.3,10.3-5.2,16.7c0.9,5.3,5,9.9,9.9,10.8c2.6,0.5,3.4-0.2,3.4-2.7
		c0-3.5,0.1-7,0.5-10.4c1.2-10.2,5.8-18.6,14.1-24.9C159.2,161.1,167,158.5,175.5,157.9z M120.9,143.1
		C109.4,167,91.3,174.9,66,166.2c2.8,1.9,5.6,3.8,8.6,5c9.3,3.8,19.1,4.2,28.9,2.9c5.8-0.8,11.4-2.4,16.3-5.7
		c5.8-3.9,9-9.1,8.2-16.4C127.5,147.5,124.5,143.8,120.9,143.1z M167.8,111.1c-3.3-0.2-6.3-0.2-9.3-0.5c-19.9-2.5-33-16.9-34.3-37.7
		c-0.1-2-0.9-2.2-2.5-1.9c-5.1,1-9.2,6.3-9.5,12.2c-0.2,6.2,2.5,11.2,6.9,15.3c10.1,9.5,22.3,14.1,36.1,14.8
		C159.4,113.3,163.6,113.1,167.8,111.1z M197.4,98.9c4.4-5.6,7.7-11.3,9.3-17.7c1.8-7.1,1.1-14-3.9-19.7c-7.6-8.8-18-10.8-28.9-11.4
		c8.6,4.8,14.6,11.9,18.6,20.7C196.6,79.5,198.6,88.7,197.4,98.9z M81.2,106.5c-0.2-0.1-0.4-0.3-0.6-0.4c-7.4-2.3-14.9-3.4-22.5-2
		c-9.5,1.8-15.8,7.2-18,16.8c-1.2,5.2-0.9,10.5,0.1,15.7c0.5,2.4,1.2,4.8,1.8,7.2C45.7,127.7,61.5,109,81.2,106.5z M206.7,165.3
		c3.8,20.1,0,37.7-16.4,52c10.4-2.5,19.9-5.8,26.2-14.6c2.7-3.7,4.1-8,3.8-12.6C219.6,179.7,213.6,172.2,206.7,165.3z M96.9,216.3
		c4.1-1.9,8-3.4,11.6-5.4c3.3-1.8,6.3-4.1,7.9-7.8c1.5-3.5,1-6.6-1.5-8.9c-2.6-2.3-5.8-2.1-7.7,0.7c-2,2.9-3.7,5.9-5.6,8.9
		c0.8-3.2,1.8-6.4,2.9-9.5c1-2.8,0.3-4.4-2.8-4.6c-1.5-0.1-3.3,0.4-4.6,1.2c-2.5,1.5-3.7,4.1-4.2,6.9
		C91.9,204.3,94.4,210,96.9,216.3z M38.1,76.7c2.2,5.8,4,11.4,8,16c2.4,2.7,5.2,4.6,9,4.5c2.9-0.1,5.2-1.9,6-4.6
		c0.8-2.8,0.4-3.9-2.5-6c-1.2-0.9-2.5-1.7-3.7-2.5c-1.4-0.9-2.9-1.6-4.4-2.5c3.2,0.6,6.2,1.6,9.2,2.7c3.1,1.1,4.2,0.7,4.7-2.6
		c0.2-1.3-0.1-3-0.8-4.2c-1.7-3-4.6-4.4-7.9-4.8C49.5,72,43.9,74.3,38.1,76.7z M224.6,101.2c-5,0.6-9.9,1.2-14.3,3.6
		c-2.8,1.5-4.9,3.6-5.9,6.7c-1.1,3.1-0.1,5.9,2.5,7.4c1.1,0.6,2,0.7,2.9-0.5c1.1-1.5,2.3-2.9,3.6-4.3c1-1.1,2.1-2.2,3.5-3.6
		c-1.9,3.7-3.6,6.8-5.2,10.1c-0.3,0.5-0.4,1.2-0.2,1.8c0.8,2.8,4.2,4.8,7.1,4.1c3.6-0.9,6.4-4.4,7.1-8.9
		C226.5,112.1,225.5,106.8,224.6,101.2z M75.7,158.9c8.2,2.1,15,0.4,20.5-5.3c5-5.3,6.7-11.8,5.9-18.9c-0.8-7-5.3-11.9-12.1-13
		c-4.9-0.8-10,2.3-9.4,7.9c1.5,0,3.1-0.1,4.6,0c5.2,0.2,9,3.5,9.8,8.6c0.5,3-0.1,5.9-1.5,8.7c-3,5.9-8,9.2-14.2,11
		C78.2,158.3,77.1,158.5,75.7,158.9z M169.4,168.7c-3.2,0.2-7.9,2.9-10.7,6c-8.5,9.6-5,23.9,2.6,30.6c4.2,3.7,11.1,4.4,15.6,1.7
		c4.4-2.6,5.4-8,2.7-10.8c-0.7,0.5-1.4,1-2.1,1.4c-9.2,5.7-16.4-1-17.3-8.9c-0.6-5.4,1-10.3,4.2-14.6
		C165.9,172.2,167.7,170.5,169.4,168.7z M166.5,71.8c1.5-4.4-0.4-8.4-5.3-10c-5.3-1.7-11.7,0.3-15.2,5c-3.3,4.5-4.4,9.6-4.3,15.1
		c0.2,10.4,8.6,18.9,19,19.3c0-0.1,0-0.2-0.1-0.2c-0.5-0.3-1.1-0.7-1.6-1c-6.8-4.5-11.2-10.4-10.9-19c0.2-5.8,4.2-10.5,9.7-10.8
		C160.6,70,163.5,71.1,166.5,71.8z M161.9,95.1c1.3-0.6,2.8-1,4-1.8c4.7-3.2,5.7-9.8,2.5-15.7c-2.8-5.1-7.9-6.5-12.8-3.4
		c-3.8,2.4-5.2,6.4-3.8,11.2C153.4,91,157.5,94.8,161.9,95.1z M172.5,174.1c-1.6,0.9-3.5,1.4-4.8,2.6c-3.7,3.5-5.1,8-4.1,13
		c0.8,3.7,3.3,5.8,6.9,6.8c3.5,1,6.4,0.1,8.6-2.6c3.6-4.4,3.7-11.4,0.2-15.8C177.7,175.9,175.6,174.6,172.5,174.1z M91.8,140.9
		c0-6.2-6-10.8-11.5-8.9c-5.5,1.9-9.4,8.8-8.2,14.4c0.8,3.8,3.7,6.4,7.1,6.6C85.2,153.2,91.7,147,91.8,140.9z"/>
	<path d="M183.8,293.8c-1.7-0.3-3.4-0.5-5-0.8c-6.7-1.5-13.5-2.8-20.1-4.7c-16-4.4-31.1-10.8-45.2-19.5
		c-8.7-5.3-16.5-11.5-23.1-19.4c-5.7-6.9-8.4-15.2-11.1-23.5c-0.7-2-1.1-4.1-1.3-6.2c-0.2-2.6,0.8-3.3,3.2-2.2
		c3.1,1.5,6.2,3.2,9.2,4.9c12.7,7.6,26.1,13.9,40.5,17.4c16,4,32,4.1,47.6-1.6c4.4-1.6,8.6-3.7,12.9-5.5c1.4-0.6,3.1-0.5,4.7-0.8
		c0.1,1.6,0.7,3.4,0.3,4.8c-1.8,6.9-3.6,13.7-5.8,20.4c-3,9.2-4.2,18.8-5.7,28.3C184.5,288.2,184.2,290.9,183.8,293.8z"/>
	<path d="M100.8,275.7c1.8,0.8,3.3,1.4,4.8,2.1c6.9,3.5,13.7,7.3,20.7,10.5c15.1,6.9,30.7,12.1,47.2,14.7c3.3,0.5,6.6,0.8,10,1.2
		c0.1,16.8,2.3,33.3,6.9,50c-25.1-5.7-45.5-18.7-62.9-36.5C117.3,307.3,100.5,280.8,100.8,275.7z"/>
	<path d="M213.3,399.3c-0.8-0.2-1.8-0.2-2.5-0.7c-8.5-4.9-17.2-9.4-25.4-14.8c-13.5-8.8-24.6-20.4-35.4-32.3c-0.9-1-1.5-2.2-2.3-3.3
		c0.1-0.2,0.2-0.4,0.3-0.6c1,0.2,2,0.2,2.8,0.6c5,2.3,10,4.7,15,7.2c8.2,4.1,16.8,7.1,25.9,9c0.6,0.1,1.5,0.6,1.7,1.2
		c4.4,10.2,11,19.1,17.2,28.1c1.1,1.6,2.1,3.3,3.1,4.9C213.6,398.9,213.4,399.1,213.3,399.3z"/>
	<path class="st3" d="M33.5,218.5c0.7-7,1.4-13.6,4.2-19.8c2.5-5.4,6.3-9.2,12.4-10.2c3.8-0.6,7.8,1.8,8.8,5.5
		c0.2,0.6-0.4,1.5-0.9,2c-3.6,3.5-7.2,6.9-10.8,10.3c-0.2,0.2-0.4,0.5-0.3,0.4c4.4-2.4,9.2-5,13.9-7.7c1.3-0.8,2.5-0.6,3.8,0.1
		c6.3,3.4,6.7,11.4,0.8,16.2c-3.6,3-7.9,4-12.4,4.4c-2.6,0.2-5.3,0.2-7.9,0C41.3,219.6,37.5,219,33.5,218.5z"/>
	<path class="st3" d="M241.7,145.6c-4.4-0.4-8.8-1-13.3-1.3c-4.2-0.3-5.4-1.9-4.3-6c1.1-4,5-6.6,10-6.8c6.4-0.3,11.4,2.7,16,6.5
		c3.3,2.7,6.2,5.8,9.5,8.9c-6.4,6-11.9,12.5-20.1,15.7c-4.6,1.8-9.1,2.2-13.5-0.5c-4.2-2.6-5.3-8.6-2.4-12.6
		c0.5-0.7,1.6-1.1,2.5-1.2c5.2-0.8,10.3-1.6,15.5-2.3C241.6,145.7,241.7,145.6,241.7,145.6z"/>
	<path class="st3" d="M227.6,233.2c-1.9-4.3-3.7-8.7-5.7-12.9c-1.4-3-1.3-3.6,1.6-5.3c4.1-2.3,8.8-0.7,12.2,3.9
		c3.3,4.4,3.7,9.5,3,14.7c-0.6,4.7-2,9.3-3,13.9c-0.3,1.4-0.8,1.8-2.4,1.4c-7.5-2.2-15.1-4.1-21.4-9.1c-4.4-3.5-7.3-7.9-6-13.8
		c1.1-4.8,5.3-6.6,9.5-6.6c0.6,0,1.3,0.5,1.7,1c3,3.8,5.9,7.6,8.8,11.5c0.4,0.5,0.7,1.2,1.1,1.8
		C227.2,233.4,227.4,233.3,227.6,233.2z"/>
	<path id="DIF:_Diffuser_39_" d="M138.1,106.4c-5-5.7-8.8-11.8-10.5-19c-4.3-18,9.5-31.7,24.4-33.3c13.8-1.5,24.7,7.4,28.6,18.1
		c-3.9-3.2-8.1-4.8-12.6-5.8c-14-2.9-29.2,4.4-32.1,20c-1.1,6.1-0.1,12,1.7,17.9c0.2,0.5,0.4,1.1,0.6,1.6
		C138.2,105.8,138.2,105.9,138.1,106.4z"/>
	<path class="st3" d="M89.2,64.1c2.5,4.7,5,9.5,7.6,14.2c0.7,1.3,0.6,2.5-0.1,3.8c-3.1,5.6-10,6.6-14.9,2c-3.2-3-4.5-6.8-5.2-10.9
		c-0.8-4.9-0.1-17.7,1.6-22.4c8,0.9,16.1,1.7,23,6.6c4.1,3,6.7,6.9,6.5,12.3c-0.1,3-2.9,6.4-5.8,6.9c-0.6,0.1-1.5-0.5-2-1
		c-3.5-3.8-6.9-7.7-10.4-11.6C89.3,64,89.2,64.1,89.2,64.1z"/>
	<path id="DIF:_Diffuser_38_" d="M106.5,167.3c8.4-11,13.5-22.8,4.7-35.5c-7.9-11.4-19.6-13.9-33.2-10.9c4.5-4.8,9.5-8.1,15.6-9.3
		c12.5-2.6,24.8,4.1,30.6,15.4c6.2,12.2,1.8,25.2-7.4,33.3c-3,2.7-6.5,5-9.7,7.5C106.9,167.7,106.7,167.5,106.5,167.3z"/>
	<path id="DIF:_Diffuser_37_" d="M198.9,206.4c-3.1,11.9-11.9,20.2-23.2,21.2c-11.4,1.1-20.8-2.7-27.2-12.3
		c-5.3-8-5.3-16.8-2.2-25.6c1.4-4,3.4-7.7,5.5-11.4c-0.2,3.8-0.7,7.7-0.6,11.5c0.4,13,8.7,23.1,21.8,24.9c9.1,1.2,17.3-1.1,24.2-7.3
		C197.6,207.1,198.1,206.9,198.9,206.4z"/>
	<path id="DIF:_Diffuser_36_" d="M59.1,139.5c-4,19.8,7,34.3,24.4,40.5c2.3,0.8,4.8,1.4,7.2,1.8c2.4,0.5,4.8,0.7,7.4,1.3
		c-2.4,0.9-4.7,1.9-7.1,2.6c-11.4,3.1-22.3,2.1-32.4-4.1c-7.3-4.5-11.5-11-11-19.8c0.4-6.5,3.4-12,7.2-17
		C56.2,142.9,57.7,141.2,59.1,139.5z"/>
	<path id="DIF:_Diffuser_35_" d="M151.5,161.5c4.6-6.6,10.2-11.3,17-14.4c7.7-3.6,15.7-5,24-2.9c9.2,2.3,15.3,9.9,15.9,19.4
		c0.4,5.1,0,10.2-1.3,15.2c-0.1,0.5-0.3,1-0.6,1.9c-1.9-6-4.6-11.2-8.9-15.4c-5.9-5.9-13.2-8.5-21.3-9c-8.3-0.6-16.2,1.1-23.7,4.8
		C152.4,161.1,152.2,161.2,151.5,161.5z"/>
	<path id="DIF:_Diffuser_34_" d="M192,95.5c3.4,8.5,5.9,16.5,3.4,25.2c-2.6,9-9.3,13.6-18.1,15.1c-13.2,2.3-24.7-1.8-34.7-10.5
		c-0.3-0.3-0.6-0.7-1.3-1.6c2,0.4,3.5,0.8,4.9,1c4.3,0.4,8.7,1.4,12.9,1c15.2-1.5,29.2-9.1,32.5-28.9
		C191.8,96.4,191.8,96.2,192,95.5z"/>
	<path id="DIF:_Diffuser_33_" d="M151,111.3c2.6,0.4,5.2,0.9,7.8,1.1c9,0.8,15.2-4.8,15.5-13.8c0.2-5-0.6-9.8-2.1-14.5
		c-0.9-2.7-1.3-5.4,1-7.5c2.3-2.1,5.1-2.2,8-1.2c4.8,1.5,7.4,5.3,8,9.9c1.2,8.8-0.8,17-6.4,24c-5.6,6.8-13.1,8.1-21.3,6.2
		c-3.6-0.8-7-2.4-10.5-3.6C150.9,111.7,150.9,111.5,151,111.3z"/>
	<path id="DIF:_Diffuser_32_" d="M93.5,168.2c-6.4,1-12.1,1-17.6-1c-8.9-3.1-13.1-9.8-13.8-18.6c-0.4-5.2,0.2-10.4,2.2-15.3
		c1.9-4.7,4.9-8.2,10.1-9.1c1.7-0.3,3.6-0.1,5.2,0.5c4.6,1.5,5.8,5.7,3.1,9.7c-2,2.9-4.1,5.8-5.6,9c-1.3,2.8-2.3,6-2.8,9.1
		c-1,6.4,3.9,12.6,10.9,14.2C87.7,167.2,90.3,167.6,93.5,168.2z"/>
	<path id="DIF:_Diffuser_31_" d="M163.7,171.4c6.8-5.2,14.1-9,23-7.2c6,1.2,10.2,4.8,13.2,9.9c3.7,6.2,6.5,12.7,5,20.2
		c-1,5.1-5,8.7-9.7,9c-4.3,0.3-6.9-2.2-6.7-6.5c0.2-4.4,0.6-8.8,0.5-13.2c-0.1-4-1.4-7.7-4-10.8c-3.9-4.7-9-4.9-14.4-3.6
		C168.4,169.7,166.1,170.7,163.7,171.4z"/>
	<path id="DIF:_Diffuser_30_" d="M179.4,160.8c-8.5,0.6-16.3,3.2-23.1,8.4c-8.2,6.2-12.9,14.6-14.1,24.9c-0.4,3.4-0.4,6.9-0.5,10.4
		c0,2.4-0.8,3.1-3.4,2.7c-4.9-0.9-9-5.5-9.9-10.8c-1.1-6.5,1.2-12,5.2-16.7c9.9-11.7,22.6-18.4,37.9-19.9c2.6-0.2,5.3,0.3,7.9,0.6
		C179.4,160.4,179.4,160.6,179.4,160.8z"/>
	<path id="DIF:_Diffuser_29_" d="M128.9,147.6c3.6,0.7,6.7,4.4,7.2,8.8c0.8,7.2-2.4,12.5-8.2,16.4c-4.9,3.3-10.5,4.9-16.3,5.7
		c-9.8,1.4-19.6,1-28.9-2.9c-3-1.2-5.8-3.1-8.6-5C99.4,179.4,117.4,171.5,128.9,147.6z"/>
	<path id="DIF:_Diffuser_28_" d="M167.8,119.8c-4.2,2-8.4,2.3-12.6,2.1c-13.8-0.6-25.9-5.3-36.1-14.8c-4.4-4.1-7.1-9.1-6.9-15.3
		c0.2-6,4.3-11.3,9.5-12.2c1.6-0.3,2.4-0.1,2.5,1.9c1.3,20.8,14.4,35.3,34.3,37.7C161.5,119.6,164.5,119.6,167.8,119.8z"/>
	<path id="DIF:_Diffuser_27_" d="M197.4,107.6c1.2-10.2-0.7-19.4-4.8-28.1c-4.1-8.8-10-15.9-18.6-20.7c10.9,0.6,21.3,2.6,28.9,11.4
		c4.9,5.7,5.6,12.6,3.9,19.7C205.1,96.3,201.8,102,197.4,107.6z"/>
	<path id="DIF:_Diffuser_26_" d="M89.2,111c-19.6,2.5-35.4,21.3-39.2,37.4c-0.6-2.4-1.3-4.8-1.8-7.2c-1.1-5.2-1.3-10.5-0.1-15.7
		c2.3-9.5,8.6-15,18-16.8c7.6-1.4,15.1-0.4,22.5,2C88.9,110.7,89,110.8,89.2,111z"/>
	<path id="DIF:_Diffuser_25_" d="M210.5,168.2c7,6.9,12.9,14.4,13.6,24.7c0.3,4.6-1.1,8.9-3.8,12.6c-6.3,8.8-15.8,12.1-26.2,14.6
		C210.5,205.9,214.3,188.3,210.5,168.2z"/>
	<path class="st3" d="M96.9,216.3c-2.5-6.3-5.1-12-4-18.5c0.5-2.8,1.7-5.4,4.2-6.9c1.3-0.8,3.1-1.2,4.6-1.2c3.1,0.2,3.8,1.7,2.8,4.6
		c-1.1,3.1-2.1,6.3-2.9,9.5c1.9-3,3.6-6,5.6-8.9c2-2.8,5.1-3,7.7-0.7c2.6,2.3,3.1,5.5,1.5,8.9c-1.6,3.7-4.6,6-7.9,7.8
		C104.9,212.9,101,214.4,96.9,216.3z"/>
	<path class="st3" d="M38.1,76.7c5.8-2.4,11.4-4.7,17.6-3.9c3.3,0.4,6.2,1.8,7.9,4.8c0.7,1.2,1,2.9,0.8,4.2
		c-0.5,3.3-1.7,3.7-4.7,2.6c-3-1.1-6-2.1-9.2-2.7c1.5,0.8,3,1.6,4.4,2.5c1.3,0.8,2.5,1.6,3.7,2.5c2.9,2.1,3.3,3.1,2.5,6
		c-0.8,2.7-3.1,4.5-6,4.6c-3.8,0.1-6.7-1.8-9-4.5C42.1,88.2,40.3,82.5,38.1,76.7z"/>
	<path class="st3" d="M224.6,101.2c0.9,5.6,1.9,10.9,1,16.3c-0.8,4.6-3.5,8.1-7.1,8.9c-2.9,0.7-6.3-1.3-7.1-4.1
		c-0.1-0.5,0-1.3,0.2-1.8c1.6-3.2,3.3-6.4,5.2-10.1c-1.3,1.4-2.5,2.4-3.5,3.6c-1.2,1.4-2.5,2.8-3.6,4.3c-0.9,1.2-1.7,1.2-2.9,0.5
		c-2.6-1.5-3.6-4.3-2.5-7.4c1-3,3.1-5.2,5.9-6.7C214.7,102.4,219.6,101.8,224.6,101.2z"/>
	<path id="DIF:_Diffuser_24_" d="M83.8,163.4c1.4-0.4,2.5-0.6,3.6-1c6.2-1.8,11.2-5.1,14.2-11c1.4-2.7,2-5.7,1.5-8.7
		c-0.8-5.1-4.6-8.4-9.8-8.6c-1.5-0.1-3.1,0-4.6,0c-0.6-5.7,4.5-8.7,9.4-7.9c6.8,1.1,11.3,6,12.1,13c0.8,7.1-0.8,13.6-5.9,18.9
		C98.8,163.8,91.9,165.5,83.8,163.4z"/>
	<path id="DIF:_Diffuser_23_" d="M173.2,171.6c-1.7,1.8-3.5,3.5-5,5.5c-3.3,4.3-4.9,9.1-4.2,14.6c0.9,7.9,8.1,14.6,17.3,8.9
		c0.7-0.4,1.4-1,2.1-1.4c2.7,2.8,1.6,8.2-2.7,10.8c-4.5,2.7-11.4,2-15.6-1.7c-7.6-6.7-11.1-21-2.6-30.6
		C165.3,174.5,170.1,171.8,173.2,171.6z"/>
	<path id="DIF:_Diffuser_22_" d="M166.6,80.5c-3.1-0.6-5.9-1.8-8.7-1.7c-5.6,0.2-9.5,5-9.7,10.8c-0.3,8.6,4.1,14.5,10.9,19
		c0.5,0.3,1.1,0.7,1.6,1c0,0,0.1,0.1,0.1,0.2c-10.4-0.3-18.8-8.9-19-19.3c-0.1-5.5,1-10.6,4.3-15.1c3.5-4.7,9.9-6.8,15.2-5
		C166.1,72,168.1,76,166.6,80.5z"/>
	<path id="DIF:_Diffuser_21_" d="M161.9,103.8c-4.4-0.3-8.5-4.1-10.1-9.7c-1.4-4.7,0-8.8,3.8-11.2c4.9-3.1,10-1.7,12.8,3.4
		c3.2,5.9,2.2,12.5-2.5,15.7C164.8,102.8,163.3,103.2,161.9,103.8z"/>
	<path id="DIF:_Diffuser_20_" d="M176.4,177c3.1,0.5,5.2,1.8,6.8,3.9c3.5,4.5,3.4,11.5-0.2,15.8c-2.3,2.7-5.1,3.6-8.6,2.6
		c-3.6-1-6.2-3.1-6.9-6.8c-1-5,0.3-9.5,4.1-13C172.8,178.4,174.8,177.8,176.4,177z"/>
	<path d="M99.8,145.4c0,6.1-6.6,12.3-12.6,12.1c-3.4-0.1-6.2-2.8-7.1-6.6c-1.2-5.6,2.7-12.5,8.2-14.4
		C93.9,134.6,99.9,139.2,99.8,145.4z"/>
</g>
<rect id="BO:_BreakOut_1_" x="12.8" y="86.2" class="st4" width="4" height="21.8"/>
<rect id="BI:_BreakIn_1_" x="274.1" y="156.3" class="st4" width="4" height="21.8"/>
<rect id="NLED:_APA102C_40_" x="98.1" y="79.4" class="st4" width="14.2" height="14.2"/>
<rect id="NLED:_APA102C_39_" x="195.5" y="110.6" class="st4" width="14.2" height="14.2"/>
<rect id="NLED:_APA102C_38_" x="49.6" y="196.3" class="st4" width="14.2" height="14.2"/>
<rect id="NLED:_APA102C_37_" x="107.4" y="200.2" class="st4" width="14.2" height="14.2"/>
<rect id="NLED:_APA102C_36_" x="137.1" y="138.1" class="st4" width="14.2" height="14.2"/>
<rect id="NLED:_APA102C_35_" x="167.5" y="182.7" class="st4" width="14.2" height="14.2"/>
<rect id="NLED:_APA102C_34_" x="80.2" y="138.6" class="st4" width="14.2" height="14.2"/>
<rect id="NLED:_APA102C_33_" x="47.7" y="149.2" class="st4" width="14.2" height="14.2"/>
<rect id="NLED:_APA102C_32_" x="200.5" y="145.7" class="st4" width="14.2" height="14.2"/>
<rect id="NLED:_APA102C_31_" x="157.2" y="86.5" class="st4" width="14.2" height="14.2"/>
<rect id="NLED:_APA102C_30_" x="217.1" y="174.2" class="st4" width="14.2" height="14.2"/>
<rect id="NLED:_APA102C_29_" x="68.1" y="99.3" class="st4" width="14.2" height="14.2"/>
<polyline id="CP:_CircuitPath_1_" class="st5" points="14.8,97 75.1,106.4 105.1,86.5 164.3,93.6 202.6,117.7 207.6,152.8 
	144.1,145.2 87.2,145.7 54.8,156.3 56.7,203.4 114.5,207.2 174.5,189.8 224.2,181.3 276.1,167.1 "/>
</svg>
