<?xml version="1.0" encoding="utf-8"?>
<!-- Generator: Adobe Illustrator 19.2.1, SVG Export Plug-In . SVG Version: 6.00 Build 0)  -->
<svg version="1.1" id="ELD:_Sun_and_Moon" xmlns="http://www.w3.org/2000/svg" xmlns:xlink="http://www.w3.org/1999/xlink" x="0px"
	 y="0px" viewBox="0 0 359 362" style="enable-background:new 0 0 359 362;" xml:space="preserve">
<style type="text/css">
	.st0{fill:#0C00FF;}
	.st1{fill:#3B20A8;}
	.st2{fill:#AA22A3;}
</style>
<path id="DIF:_base" d="M184.6,325c-79.4,0-144-64.6-144-144s64.6-144,144-144s144,64.6,144,144S264,325,184.6,325z"/>
<path id="BI:_Breakin_1_" class="st0" d="M60.5,297.2v-3.3v-2.2v-6.7v-2.2v-6.7v-8.9h-8.2v8.9v6.7v2.2v6.7v2.2v3.3v3.3h8.2V297.2z"
	/>
<path id="DDS:_DIFF_20_" class="st1" d="M208.1,59.5c-1,2.5-3.3,8.2-8.8,12.5c-2.7,2.1-4.7,2.7-8.3,3.8c-0.8,0.2-1.6,0.5-2.4,0.8
	c-0.7-0.6-1.3-1.1-1.9-1.7c-2.9-2.4-4.4-3.8-6.1-6.8c-1.7-3.2-2.8-6.8-3.1-10.8c2.2-0.1,4.3-0.2,6.5-0.2
	C192.2,57.2,200.3,58,208.1,59.5z"/>
<path id="DDS:_DIFF_19_" class="st1" d="M240.4,70.8c-0.6,0.7-1.1,1.4-1.6,2.1c-2.1,2.2-8.9,10.3-10.9,22.4
	c-0.2,1.4-0.4,2.7-0.5,3.7c-7.4-1.1-9.3-0.7-10.5-0.4c-3.9,0.9-7.4,3-10.6,6.3c0.3-3.4,0-6.6-1.1-9.4c-0.5-1.1-1.2-3.4-7.9-10.3
	c0.7-0.6,1.2-1.1,1.8-1.7c9.1-9,11.5-20,11.9-22.3c0.1-0.3,0.2-0.7,0.3-1C221.6,62.6,231.3,66.1,240.4,70.8z"/>
<path id="DDS:_DIFF_18_" class="st1" d="M271,93.2c-0.2,0.4-0.4,0.7-0.6,1.1c-0.8,1.5-1.8,2.8-2.8,4.1c-1.1,0.8-2.9,2-5.3,3.2
	c-2.4,1.2-5.5,2.2-9,2.5c-3.4,0.3-5.4-0.3-9-1.3c-1.1-0.3-2.5-0.7-4.1-1.1c-0.5-1.6-1-3-1.3-4.1c-1.2-3.6-1.8-5.6-1.8-8.9
	c0.2-7.1,3.7-12.3,5-14.5c0.6-0.9,0.9-1.2,0.9-1.7C253.4,77.9,262.8,84.9,271,93.2z"/>
<path id="DDS:_DIFF_17_" class="st1" d="M292.1,121.1c-1.8,0.2-3.7,0.6-5.5,1.2c-3.6,0.6-14.6,4.4-22.8,14c-1.2,1.5-2.2,2.9-3.1,4.1
	l-0.1,0.2c-4.3-3.6-5.9-4.1-6.8-4.4c-2.1-0.8-4.4-1.1-6.8-1.1c-3,0-6.3,0.6-9.5,1.8c0,0,0,0,0,0c3.7-3.7,6-7.6,6.8-12
	c0.2-1.1,0.6-3.1-0.9-10.5c1.1-0.2,2.3-0.3,3.7-0.6c14.1-3,23.1-12.8,23.7-14.3c0-0.1,0.1-0.2,0.1-0.3c0.8-1.1,1.6-2.2,2.2-3.4
	c0-0.1,0.1-0.2,0.1-0.3C280.6,103,286.9,111.7,292.1,121.1z"/>
<path id="DDS:_DIFF_16_" class="st1" d="M305.8,161c-0.1,0-0.1,0.1-0.2,0.1c-2.1,1.1-4.5,1.9-6.9,2.4c-0.3-0.2-0.6-0.2-1.1-0.2h-1
	c-2.7,0.1-8.9,0.5-15.1-2.9c-3-1.6-4.4-3.1-6.9-6c-1-1.1-2.3-2.6-4-4.4c0.7-2.5,1.1-4.5,1.5-6.1c0.8-3.7,1.3-5.7,3.1-8.6
	c3.9-6,9.5-8.7,11.9-9.9c0.4-0.2,0.7-0.3,0.9-0.5c1.5-0.5,3-0.8,4.5-1c0.3,0,0.7-0.1,1-0.1C299.5,135.3,303.7,147.8,305.8,161z"/>
<path id="DDS:_DIFF_15_" class="st1" d="M307.4,180.6c0,3.8-0.2,7.7-0.5,11.4c-0.3-0.1-0.5-0.2-0.8-0.3c-2-0.8-4.1-1.5-6.2-2.1
	c-4.7-1.8-15.4-3.4-26.3,0.4c-1.8,0.6-3.4,1.3-4.7,1.9c-0.6,0.2-1.2,0.5-1.8,0.8c-1.2-3.4-2-4.4-2.5-5c-3-4-7.8-6.8-13.7-8.2
	c0-0.8,0-1.7-0.1-2.5c5-1.2,9.1-3.6,12.1-6.8c0.7-0.8,1.8-2,3.7-7c1.3,0.6,2.8,1.3,4.6,2c10.9,4.1,21,2.6,24.4,1.9v0.1h0.4
	c3.7-0.4,7.2-1.4,10.5-2.9C307,169.6,307.4,175,307.4,180.6z"/>
<path id="DDS:_DIFF_14_" class="st1" d="M306.5,195.1c-1.7,14.6-6,28.4-12.3,41c-0.9-0.1-1.8-0.3-2.6-0.5c-1.9-0.5-3.8-1.1-5.7-1.9
	h-0.1c-2.2-1.4-7.6-4.4-11.1-10.6c-1.7-3-2-5-2.6-8.8c-0.3-2-0.7-4.4-1.3-7.5c2.7-2.5,4.5-4.4,6-6c2.6-2.8,4.1-4.3,7.1-5.8
	c6.3-3.1,12.6-2.6,15.2-2.4c0.5,0,0.9,0.1,1.1,0.1c1.5,0.5,3.1,1,4.5,1.6C305.3,194.5,305.9,194.8,306.5,195.1z"/>
<path id="DDS:_DIFF_13_" class="st1" d="M278.6,259.8c-10.4,12.4-23.2,22.8-37.7,30.3c-0.7-0.8-1.3-1.6-2-2.4
	c-0.1-0.2-0.2-0.5-0.4-0.8c-1.1-2.4-4-8-3.5-15c0.2-3.4,1.1-5.3,2.6-8.8c1-2.1,2.1-4.8,3.6-8.8c4.8-1,8-1.9,10.4-2.5
	c3.7-1,5.7-1.6,9-1.3c7,0.6,12.2,4.2,14.3,5.8c0.5,0.4,0.8,0.6,1.1,0.8c0.7,0.7,1.2,1.3,1.8,1.9
	C278.1,259.3,278.4,259.5,278.6,259.8z"/>
<path id="DDS:_DIFF_11_" class="st1" d="M292.8,238.7c-3.5,6.6-7.6,12.8-12.3,18.6c-0.1-0.1-0.2-0.3-0.3-0.4
	c-1.1-1.1-2.2-2.4-3.4-3.5c-1.6-1.6-9.6-9.7-22.4-12.5c-1.9-0.4-3.6-0.6-5-0.8c-1.4-0.2-2.6-0.3-3.7-0.6c0.2-1.6,0.2-2.4,0.1-3
	c-0.4-5-2.8-9.9-7-14.2c0.9-1.5,1.8-3,2.6-4.5c5,1.6,9.9,1.7,14.1,0.4c0.8-0.2,1.9-0.6,4.5-2.4c0.2,0.3,0.5,0.7,0.7,1
	c0.8,1.2,1.7,2.7,2.8,4.3c8.6,11.5,20.5,15.4,22.6,15.7c1.7,0.7,3.4,1.2,5.1,1.6C291.7,238.5,292.3,238.6,292.8,238.7z"/>
<path id="DDS:_DIFF_12_" class="st1" d="M238.3,291.4c-2.7,1.3-5.5,2.6-8.3,3.7c-2.2-3.8-8.6-13.7-19.2-20c-1.8-0.9-3.4-1.7-4.8-2.4
	c-1.8-0.9-3.2-1.5-4.5-2.6c1.1-1.3,1.6-2.1,1.8-2.6c2.3-4.4,2.9-9.8,1.8-15.8c2.4-1.1,4.8-2.4,7.1-3.7c3.5,4,7.6,6.6,11.9,7.7
	c0.5,0.1,1.1,0.2,2.2,0.3v2.9c0,1.5-0.1,3.1,0.1,5.1c0.9,13.4,8.2,23.2,10.2,25.1C237.1,290,237.7,290.7,238.3,291.4z"/>
<path id="DDS:_DIFF_10_" class="st1" d="M226.5,296.5c-13.3,4.9-27.6,7.5-42.6,7.5c-4.5,0-9-0.2-13.4-0.7c0.5-2.7,1.6-7.4,4.7-11.7
	c2-2.8,3.7-3.9,6.9-6c0.8-0.5,1.6-1.1,2.6-1.8c2,0.5,4.4,0.9,7.3,1.2c6.8,0.8,11,0.9,14.1,0.9c3.7,0,5.7,0,8.9,1.5
	C220.5,289.8,224.4,294,226.5,296.5z"/>
<path id="DDS:_DIFF_9_" class="st2" d="M245.2,184c-0.6,10.2-3.4,20.3-8,29.4l-1,2l-0.1,0.1c-0.2,0.5-0.5,0.9-0.8,1.4
	c-6.2,10.6-15.1,19.5-25.6,25.8l-0.4-0.1c-0.3-0.1-0.6-0.1-0.9-0.2c-0.2,0-0.5-0.1-0.8-0.2c-0.3-0.1-0.6-0.1-0.8-0.2
	s-0.5-0.1-0.8-0.2c-0.3-0.1-0.5-0.1-0.8-0.2c-0.2-0.1-0.5-0.2-0.8-0.2c-0.3-0.1-0.5-0.2-0.8-0.2c-0.2-0.1-0.5-0.2-0.8-0.2
	c-0.3-0.1-0.5-0.2-0.8-0.2c-0.2-0.1-0.5-0.2-0.8-0.2h-0.1c-0.2-0.1-0.5-0.2-0.8-0.2c-0.2-0.1-0.5-0.2-0.7-0.2h-0.1
	c-0.2-0.1-0.5-0.2-0.8-0.2c-0.2-0.1-0.5-0.2-0.8-0.2h-0.1c-0.2-0.1-0.5-0.2-0.7-0.2c-0.2-0.1-0.5-0.2-0.8-0.3
	c-0.2-0.1-0.5-0.2-0.8-0.2c-0.2-0.1-0.5-0.2-0.7-0.2l-0.2-0.1c-0.2-0.1-0.5-0.2-0.7-0.2c-0.2-0.1-0.5-0.2-0.8-0.2l-0.2-0.1
	c-0.2-0.1-0.4-0.2-0.6-0.2c-0.2-0.1-0.4-0.2-0.6-0.2l-0.3-0.2c-0.2-0.1-0.4-0.2-0.5-0.2c-0.2-0.1-0.5-0.2-0.7-0.3l-0.3-0.1
	c-0.2-0.1-0.4-0.2-0.5-0.2c-0.2-0.1-0.5-0.2-0.7-0.3l-0.3-0.1c-0.2-0.1-0.4-0.2-0.5-0.2c-0.2-0.1-0.5-0.2-0.8-0.4l-0.2-0.1
	c-0.2-0.1-0.4-0.2-0.5-0.2c-0.2-0.1-0.5-0.2-0.7-0.3l-0.3-0.2c-0.2-0.1-0.3-0.2-0.5-0.2c-0.2-0.1-0.4-0.2-0.6-0.3l-0.4-0.2
	c-0.2-0.1-0.3-0.2-0.5-0.2s-0.4-0.2-0.6-0.3l-0.3-0.2c-0.2-0.1-0.3-0.2-0.5-0.3c-0.2-0.1-0.4-0.2-0.6-0.3l-0.3-0.2
	c-0.2-0.1-0.3-0.2-0.5-0.2c-0.2-0.1-0.4-0.2-0.5-0.3l-0.4-0.2c-0.2-0.1-0.3-0.2-0.5-0.2c-0.2-0.1-0.4-0.2-0.6-0.4l-0.3-0.2
	c-0.2-0.1-0.3-0.2-0.5-0.3c-0.2-0.1-0.4-0.2-0.6-0.4l-0.3-0.2c-0.2-0.1-0.3-0.2-0.5-0.3c-0.2-0.1-0.4-0.2-0.5-0.4l-0.3-0.2
	c-0.2-0.1-0.3-0.2-0.5-0.3c-0.2-0.1-0.4-0.2-0.5-0.4l-0.4-0.2c-0.2-0.1-0.2-0.2-0.4-0.3c-0.2-0.1-0.3-0.2-0.5-0.4l-0.4-0.2
	c-0.2-0.1-0.2-0.2-0.4-0.3c-0.2-0.1-0.3-0.2-0.5-0.4l-0.4-0.3c-0.1-0.1-0.2-0.2-0.4-0.3c-0.2-0.1-0.3-0.2-0.5-0.4l-0.4-0.3
	c-0.1-0.1-0.2-0.2-0.4-0.3c-0.2-0.1-0.3-0.2-0.5-0.4l-0.4-0.3c-0.1-0.1-0.2-0.2-0.3-0.3c-0.2-0.2-0.3-0.3-0.5-0.4l-0.4-0.3
	c-0.1-0.1-0.2-0.2-0.3-0.3c-0.2-0.2-0.3-0.3-0.5-0.5l-0.4-0.3c-0.1-0.1-0.2-0.2-0.3-0.2c-0.2-0.2-0.4-0.4-0.6-0.6l-1.6-1.6
	c-11.8-11.9-18.3-26.8-18.3-42.1c0-14.5,5.7-28.4,16.3-40c0.3-0.4,0.7-0.7,1-1c0.1-0.1,0.2-0.2,0.2-0.2l0.8-0.8
	c0.1-0.1,0.2-0.2,0.2-0.2l0.3-0.3c0.2-0.2,0.3-0.3,0.5-0.5c0.1-0.1,0.2-0.2,0.3-0.3l0.3-0.3c0.2-0.2,0.3-0.2,0.5-0.4
	c0.1-0.1,0.2-0.2,0.3-0.3l0.3-0.3c0.2-0.1,0.2-0.2,0.4-0.4c0.1-0.1,0.2-0.2,0.4-0.3l0.3-0.3c0.2-0.1,0.2-0.2,0.4-0.4
	c0.1-0.1,0.2-0.2,0.4-0.3l0.3-0.3c0.2-0.1,0.2-0.2,0.4-0.3c0.2-0.1,0.2-0.2,0.4-0.3l0.3-0.2c0.2-0.1,0.2-0.2,0.4-0.3
	c0.2-0.1,0.3-0.2,0.5-0.3l0.3-0.2c0.2-0.1,0.3-0.2,0.4-0.3c0.2-0.1,0.3-0.2,0.5-0.3l0.3-0.2c0.2-0.1,0.3-0.2,0.5-0.3
	c0.2-0.1,0.3-0.2,0.5-0.3l0.3-0.2c0.2-0.1,0.3-0.2,0.5-0.3c0.2-0.1,0.3-0.2,0.5-0.3l0.3-0.2c0.2-0.1,0.3-0.2,0.4-0.3
	c0.2-0.1,0.3-0.2,0.5-0.3l0.3-0.2c0.2-0.1,0.3-0.2,0.4-0.3c0.2-0.1,0.4-0.2,0.5-0.4l0.2-0.2c0.2-0.1,0.3-0.2,0.5-0.3
	c0.2-0.1,0.4-0.2,0.5-0.3l0.3-0.2c0.2-0.1,0.3-0.2,0.5-0.2c0.2-0.1,0.4-0.2,0.6-0.3l0.2-0.2c0.2-0.1,0.3-0.2,0.5-0.2
	s0.4-0.2,0.5-0.3l0.3-0.2c0.2-0.1,0.3-0.2,0.5-0.3c0.2-0.1,0.4-0.2,0.5-0.3l0.3-0.2c0.2-0.1,0.3-0.2,0.5-0.2
	c0.2-0.1,0.4-0.2,0.6-0.3l0.2-0.1c0.2-0.1,0.4-0.2,0.6-0.3c0.2-0.1,0.4-0.2,0.6-0.3l0.2-0.2c0.2-0.1,0.3-0.2,0.5-0.2
	c0.2-0.1,0.5-0.2,0.6-0.3l0.2-0.1c0.2-0.1,0.3-0.2,0.5-0.2c0.2-0.1,0.5-0.2,0.7-0.3l0.2-0.1c0.2-0.1,0.4-0.2,0.6-0.2
	c0.2-0.1,0.5-0.2,0.7-0.3l0.2-0.1c0.2-0.1,0.4-0.2,0.6-0.2c0.2-0.1,0.5-0.2,0.7-0.3h0.1c0.2-0.1,0.5-0.2,0.7-0.2
	c0.2-0.1,0.5-0.2,0.7-0.2h0.2c0.2-0.1,0.4-0.2,0.6-0.2c0.2-0.1,0.5-0.2,0.8-0.3c0.2-0.1,0.5-0.2,0.8-0.2c0.2-0.1,0.5-0.2,0.8-0.2
	c0.2-0.1,0.5-0.2,0.8-0.2c0.2-0.1,0.5-0.2,0.8-0.2c0.2-0.1,0.5-0.2,0.8-0.2c0.2-0.1,0.5-0.2,0.8-0.2c0.2-0.1,0.5-0.2,0.8-0.2
	c0.2-0.1,0.5-0.2,0.8-0.2c0.2-0.1,0.5-0.2,0.8-0.2c0.2-0.1,0.5-0.2,0.8-0.2h0.2c1.2,0,1.8-0.1,2.1-0.2c11.4,5.4,21.2,13.8,28.5,24.2
	c0,0.3,0.2,0.7,1.1,1.8l0.1,0.1c6.9,10.6,10.9,22.8,11.8,35.4c-0.1,0.2-0.2,0.6-0.1,1.3c0,0.2,0,0.6,0.2,0.8v2.4c0,0.9,0,2,0,3.1
	L245.2,184z"/>
<path id="DDS:_DIFF_8_" class="st2" d="M203.6,245.1c-9.8,4.7-20.7,7.1-31.4,7.1c-40.3,0-73-32.8-73-73c0-40.2,32.8-73.1,73.1-73.1
	c8.5,0,16.7,1.5,24.6,4.2l-0.4,0.8c-0.4,0.1-0.8,0.2-1.1,0.4l-0.4,0.2c-0.5,0.2-1,0.3-1.5,0.5l-0.5,0.2c-0.3,0.1-0.7,0.2-1,0.4
	c-0.2,0-0.3,0.1-0.4,0.2l-0.2,0.1c-0.2,0.1-0.5,0.2-0.8,0.3c-0.2,0.1-0.3,0.2-0.5,0.2h-0.1c-0.2,0.1-0.5,0.2-0.8,0.3
	c-0.2,0.1-0.5,0.2-0.7,0.2c-0.2,0.1-0.5,0.2-0.8,0.3c-0.2,0.1-0.5,0.2-0.7,0.3c-0.2,0.1-0.5,0.2-0.8,0.4c-0.2,0.1-0.5,0.2-0.6,0.3
	c-0.2,0.1-0.5,0.2-0.8,0.4l-0.2,0.1c-0.2,0.1-0.3,0.2-0.5,0.2c-0.2,0.1-0.5,0.2-0.8,0.4l-0.2,0.2c-0.1,0.1-0.2,0.1-0.4,0.2
	c-0.3,0.2-0.7,0.3-1,0.5l-0.4,0.2c-0.5,0.2-0.9,0.5-1.3,0.8l-0.5,0.3c-0.2,0.2-0.5,0.3-0.8,0.5c-0.2,0.1-0.2,0.2-0.4,0.2l-0.2,0.1
	c-0.2,0.2-0.5,0.3-0.8,0.5c-0.2,0.1-0.3,0.2-0.5,0.3l-0.1,0.1c-0.2,0.2-0.5,0.3-0.8,0.5c-0.2,0.1-0.4,0.2-0.6,0.4
	c-0.2,0.2-0.5,0.3-0.7,0.5c-0.2,0.1-0.4,0.2-0.6,0.4l-0.7,0.5c-0.2,0.1-0.3,0.2-0.5,0.3c-0.2,0.2-0.5,0.3-0.8,0.5l-0.2,0.1
	c-0.1,0.1-0.2,0.2-0.4,0.2c-0.2,0.2-0.5,0.4-0.8,0.5l-0.2,0.1c-0.1,0.1-0.2,0.2-0.3,0.2c-0.3,0.2-0.7,0.5-1,0.8l-0.2,0.2
	c-0.4,0.3-0.8,0.6-1.1,0.9c-0.1,0.1-0.2,0.2-0.2,0.2l-0.2,0.1c-0.2,0.2-0.5,0.4-0.8,0.6c-0.1,0.1-0.2,0.2-0.3,0.2l-0.1,0.1
	c-0.2,0.2-0.5,0.4-0.7,0.6c-0.2,0.1-0.2,0.2-0.4,0.3l-0.1,0.1c-0.2,0.2-0.5,0.4-0.7,0.5c-0.2,0.2-0.3,0.3-0.5,0.4
	c-0.2,0.2-0.4,0.4-0.6,0.6c-0.2,0.2-0.3,0.3-0.5,0.5c-0.2,0.2-0.4,0.4-0.6,0.6c-0.2,0.1-0.2,0.2-0.4,0.4l-1,1
	c-0.2,0.2-0.5,0.5-0.7,0.7l-0.3,0.3c-0.3,0.4-0.7,0.7-1,1.1c-11.5,12.5-17.5,27.3-17.5,43c0,16.4,7,32.5,19.6,45.2
	c0.4,0.4,0.8,0.8,1.1,1.1l0.4,0.4c0.2,0.2,0.5,0.5,0.8,0.8c0.1,0.1,0.2,0.2,0.3,0.3l0.2,0.1c0.2,0.2,0.5,0.5,0.7,0.7
	c0.2,0.1,0.3,0.2,0.4,0.4l0.1,0.1c0.2,0.2,0.5,0.4,0.7,0.6c0.2,0.2,0.3,0.2,0.5,0.4c0.2,0.2,0.5,0.4,0.7,0.6
	c0.2,0.2,0.4,0.3,0.5,0.5c0.2,0.2,0.5,0.4,0.7,0.5c0.2,0.2,0.4,0.3,0.5,0.5c0.2,0.2,0.5,0.4,0.8,0.5l0.1,0.1
	c0.2,0.1,0.3,0.2,0.5,0.4c0.2,0.2,0.5,0.4,0.8,0.5l0.2,0.1c0.2,0.1,0.2,0.2,0.4,0.3c0.3,0.2,0.5,0.4,0.8,0.6l0.2,0.1
	c0.1,0.1,0.2,0.2,0.3,0.2c0.4,0.2,0.8,0.5,1.1,0.8l0.2,0.2c0.5,0.3,0.9,0.6,1.4,0.9c0.1,0.1,0.2,0.1,0.3,0.2l0.2,0.1
	c0.3,0.2,0.6,0.4,0.9,0.5c0.2,0.1,0.2,0.2,0.4,0.2l0.2,0.1c0.2,0.2,0.5,0.3,0.8,0.5c0.2,0.1,0.4,0.2,0.5,0.3h0.1
	c0.2,0.2,0.5,0.3,0.8,0.5c0.2,0.1,0.5,0.2,0.7,0.4s0.5,0.3,0.8,0.5c0.2,0.1,0.5,0.2,0.7,0.3c0.2,0.2,0.5,0.3,0.8,0.4
	c0.2,0.1,0.5,0.2,0.7,0.3c0.2,0.2,0.5,0.2,0.8,0.4h0.1c0.2,0.1,0.4,0.2,0.5,0.2c0.2,0.1,0.5,0.2,0.8,0.4l0.2,0.1
	c0.2,0.1,0.3,0.2,0.5,0.2c0.3,0.2,0.6,0.2,0.9,0.4l0.2,0.1c0.2,0.1,0.2,0.1,0.4,0.2c0.4,0.2,0.8,0.3,1.1,0.5l0.5,0.2
	c0.5,0.2,1,0.4,1.5,0.6l0.6,0.2c0.3,0.1,0.6,0.2,1,0.4c0.2,0,0.3,0.1,0.5,0.2l0.2,0.1c0.3,0.1,0.6,0.2,0.9,0.3
	c0.2,0.1,0.3,0.1,0.5,0.2l0.2,0.1c0.3,0.1,0.6,0.2,0.9,0.3c0.2,0.1,0.5,0.2,0.7,0.2c0.3,0.1,0.6,0.2,0.9,0.3
	c0.2,0.1,0.5,0.2,0.7,0.2c0.3,0.1,0.6,0.2,0.9,0.3c0.2,0.1,0.5,0.2,0.7,0.2c0.3,0.1,0.6,0.2,1,0.2c0.2,0.1,0.5,0.1,0.7,0.2
	c0.3,0.1,0.7,0.2,1,0.2l0.2,0.1c0.2,0,0.3,0.1,0.5,0.1C203.1,245,203.4,245.1,203.6,245.1z"/>
<path id="DDS:_DIFF_7_" class="st2" d="M177,80.7c-8.9,3.9-10.6,5.6-11.4,6.4c-3.7,3.9-5.8,9.3-6.2,16c-18.5,3-34.9,12.6-46.6,26.2
	c-4.4-1-10.8-1.9-18-0.6c-5.9,1.1-9.6,3.2-12.8,5c-3.1,1.8-5.7,3.2-9.3,3c-1.4,0-2.6-0.3-3.9-0.9c16.7-42.9,56.7-74.1,104.4-78.2
	c-0.5,4.6-0.6,12.5,2.7,20.9C176.3,79.2,176.6,79.9,177,80.7z"/>
<path id="DDS:_DIFF_6_" class="st2" d="M93.8,180.5c0,17.9,6,34.3,16,47.5l-0.5,0.6c0,0-0.1,0.1-0.2,0.2l-0.1,0.1
	c0,0-0.1,0.1-0.2,0.2c0,0-0.1,0.1-0.2,0.2l-0.1,0.1l-0.1,0.1c0,0-0.1,0.1-0.2,0.2l-0.2,0.1l-0.1,0.1c-0.1,0-0.1,0.1-0.2,0.2
	l-0.2,0.1l-0.1,0.1c-0.1,0-0.2,0.1-0.2,0.2l-0.2,0.1l-0.1,0.1c-0.1,0-0.2,0.1-0.2,0.2l-0.2,0.1c0,0-0.1,0-0.1,0.1
	c-0.1,0.1-0.2,0.1-0.3,0.2l-0.2,0.1c0,0-0.1,0-0.1,0.1c-0.1,0.1-0.2,0.1-0.4,0.2l-0.1,0.1h-0.1c-0.2,0.1-0.3,0.2-0.5,0.2l-0.2,0.1
	c-0.2,0.1-0.5,0.2-0.7,0.2c-3.3,1.2-5.7,0.8-9.2,0.2c-2.9-0.5-6.4-1.1-11.8-1.1H73.1c-0.2,0-0.4,0-0.6,0.1h-0.3
	c-0.3,0-0.6,0.1-0.8,0.1h-0.1c-6.9-15.4-10.7-32.4-10.7-50.3c0-15.1,2.7-29.6,7.7-43c1.5,0.6,3.1,0.9,4.7,1
	c4.1,1.1,7.1-0.6,10.5-2.5c3.1-1.8,6.5-3.7,11.9-4.7c5-1,10.3-0.8,15.7,0.3C100.2,145,93.8,162,93.8,180.5z"/>
<path id="DDS:_DIFF_5_" class="st2" d="M172.6,279.5c-0.2,0.3-0.3,0.5-0.5,0.8c-0.1,0.1-0.2,0.2-0.2,0.4l-0.2,0.2
	c-0.1,0.2-0.2,0.4-0.3,0.6c-0.2,0.4-0.4,0.7-0.5,1.1c-0.1,0.1-0.1,0.2-0.2,0.4l-0.1,0.1c-0.1,0.2-0.2,0.4-0.2,0.5
	c-0.1,0.2-0.2,0.5-0.3,0.7l-0.1,0.2c-1.9,4.2-3.1,8.7-3.7,13.5l-0.1,0.5c0.3,1.5,0.4,3,0.4,4.3c-41.5-5.8-76.4-32.3-94-68.6h2.4
	l8-0.1c1.2,0,2.4,0,3.5,0.1c3.3,0.2,5.7,0.6,7.8,0.9c0.4,0.1,0.8,0.2,1.1,0.2l0.5,0.1c0.2,0,0.3,0,0.5,0.1h0.2c0.2,0,0.3,0,0.5,0.1
	h2.5c0,0,0.1,0,0.2,0h2.2c0.1,0,0.2,0,0.3-0.1h0.2c0.1,0,0.1,0,0.2,0c0.1,0,0.2-0.1,0.4-0.1h0.2c0,0,0.1,0,0.2,0
	c0.2,0,0.3-0.1,0.5-0.2h0.2c0.2-0.1,0.5-0.2,0.7-0.2c0.2-0.1,0.5-0.2,0.8-0.3c0.1,0,0.1,0,0.2-0.1l0.2-0.1c0.2-0.1,0.3-0.1,0.4-0.2
	c0.1,0,0.2-0.1,0.2-0.1l0.2-0.1c0.1-0.1,0.2-0.1,0.3-0.2c0.1,0,0.2-0.1,0.2-0.1l0.1-0.1c0.1-0.1,0.2-0.1,0.3-0.2
	c0.1,0,0.2-0.1,0.2-0.2l0.1-0.1c0.1-0.1,0.2-0.1,0.3-0.2c0.1-0.1,0.2-0.1,0.2-0.2c0.1-0.1,0.2-0.2,0.3-0.2c0.1-0.1,0.2-0.1,0.2-0.2
	c0.1-0.1,0.2-0.2,0.3-0.2c0.1-0.1,0.2-0.2,0.2-0.2c0.1-0.1,0.2-0.2,0.2-0.2c0.1-0.1,0.2-0.2,0.2-0.2c0.1-0.1,0.2-0.2,0.2-0.2
	c0.1-0.1,0.2-0.2,0.2-0.2c0.1-0.1,0.2-0.2,0.2-0.2c0.1-0.1,0.2-0.2,0.2-0.2c0.1-0.1,0.2-0.2,0.2-0.2c0.1-0.1,0.1-0.1,0.2-0.2
	c0.1-0.1,0.2-0.2,0.2-0.2l0.2-0.2c0.1-0.1,0.1-0.1,0.2-0.2c12.3,15,30,25.4,50.2,28.1C161.7,263.6,163.5,272.6,172.6,279.5z"/>
<path id="DDS:_DIFF_4_" class="st2" d="M230,295.2c-1.2,0.5-2.3,0.9-3.5,1.3c-2.1-2.5-6-6.7-11.4-9c-3.2-1.5-5.3-1.5-8.9-1.5
	c-3.1,0-7.3-0.1-14.1-0.9c-2.9-0.3-5.4-0.8-7.3-1.2c-1,0.7-1.8,1.2-2.6,1.8c-3.1,2.1-4.9,3.2-6.9,6c-3.2,4.3-4.3,8.9-4.7,11.7
	c-1.3-0.1-2.6-0.3-3.8-0.5c-0.1-1.3-0.2-2.9-0.4-4.3l0.1-0.5c0.5-4.7,1.8-9.3,3.7-13.5l0.1-0.2c0.1-0.2,0.2-0.5,0.3-0.7
	c0.1-0.2,0.2-0.4,0.2-0.5l0.1-0.1c0.1-0.2,0.1-0.3,0.2-0.4c0.2-0.4,0.4-0.7,0.5-1.1c0.1-0.2,0.2-0.5,0.3-0.6l0.2-0.2
	c0.1-0.2,0.2-0.3,0.2-0.4c0.2-0.3,0.4-0.5,0.5-0.8c-9.1-6.9-10.8-15.9-10.9-21.2c1.1,0.2,2.3,0.3,3.4,0.4c2.4,0.2,4.8,0.3,7.2,0.3
	c0.5,0,1.1,0,1.6,0c1.1,0,2.1-0.1,3.2-0.1c5.5-0.3,10.8-1.2,15.9-2.6c0.9-0.2,1.7-0.5,2.6-0.7c2.4-0.8,4.8-1.6,7.1-2.6
	c0.8-0.3,1.6-0.7,2.4-1.1c1.1,6,0.6,11.4-1.8,15.8c-0.2,0.5-0.7,1.3-1.8,2.6c1.3,1.1,2.7,1.7,4.5,2.6c1.5,0.7,3.1,1.5,4.8,2.4
	C221.4,281.5,227.8,291.4,230,295.2z"/>
<path id="DDS:_DIFF_3_" class="st2" d="M280.6,257.4c-0.7,0.8-1.3,1.6-2,2.4c-0.2-0.3-0.5-0.5-0.7-0.8c-0.5-0.6-1.1-1.2-1.8-1.9
	c-0.3-0.2-0.6-0.4-1.1-0.8c-2.1-1.6-7.3-5.2-14.3-5.8c-3.4-0.3-5.4,0.3-9,1.3c-2.4,0.6-5.6,1.5-10.4,2.5c-1.5,4-2.6,6.7-3.6,8.8
	c-1.5,3.5-2.4,5.4-2.6,8.8c-0.5,7,2.4,12.6,3.5,15c0.2,0.3,0.3,0.6,0.4,0.8c0.6,0.8,1.3,1.6,2,2.4c-0.9,0.5-1.7,0.9-2.6,1.3
	c-0.6-0.7-1.2-1.4-1.7-2.2c-2-1.9-9.3-11.7-10.2-25.1c-0.2-2-0.1-3.7-0.1-5.1v-2.9c-1.1-0.1-1.8-0.2-2.2-0.3
	c-4.3-1.1-8.4-3.7-11.9-7.7c0.7-0.4,1.5-0.9,2.2-1.3c0.8-0.5,1.5-1,2.3-1.5c0.9-0.6,1.8-1.2,2.6-1.9c5.8-4.3,10.9-9.4,15.3-15.1
	c0.7-0.9,1.4-1.8,2-2.8c0.2-0.3,0.4-0.6,0.6-0.9c0.5-0.8,1-1.5,1.5-2.3c4.2,4.3,6.6,9.2,7,14.2c0.1,0.6,0.2,1.4-0.1,3
	c1.1,0.3,2.4,0.5,3.7,0.6c1.5,0.2,3.1,0.5,5,0.8c12.8,2.8,20.8,10.9,22.4,12.5c1.2,1.1,2.4,2.4,3.4,3.5
	C280.4,257.1,280.5,257.2,280.6,257.4z"/>
<path id="DDS:_DIFF_2_" class="st2" d="M306.8,192c-0.1,1-0.2,2-0.3,3c-0.6-0.3-1.2-0.6-1.8-0.9c-1.5-0.6-3-1.1-4.5-1.6
	c-0.2,0-0.6-0.1-1.1-0.1c-2.6-0.2-8.9-0.8-15.2,2.4c-3.1,1.5-4.5,3.1-7.1,5.8c-1.5,1.6-3.3,3.5-6,6c0.6,3.1,1,5.5,1.3,7.5
	c0.6,3.7,0.9,5.8,2.6,8.8c3.5,6.2,8.9,9.3,11.1,10.6h0.1c1.9,0.8,3.8,1.5,5.7,1.9c0.9,0.2,1.7,0.4,2.6,0.5c-0.4,0.9-0.9,1.8-1.4,2.7
	c-0.6-0.1-1.2-0.2-1.7-0.3c-1.7-0.4-3.4-0.9-5.1-1.6c-2.1-0.3-14-4.2-22.6-15.7c-1.1-1.6-2.1-3.1-2.8-4.3c-0.2-0.3-0.5-0.7-0.7-1
	c-2.6,1.8-3.7,2.2-4.5,2.4c-4.2,1.3-9,1.2-14.1-0.4c0.4-0.8,0.8-1.5,1.2-2.3c0.8-1.7,1.6-3.3,2.3-5c0.4-1,0.8-1.9,1.1-2.9
	c2.1-5.6,3.5-11.5,4.2-17.6c0.1-1.1,0.2-2.2,0.3-3.3c0.1-1.5,0.2-3.1,0.2-4.6c0-0.5,0-1,0-1.6c0-0.4,0-0.7,0-1.1
	c6,1.4,10.7,4.2,13.7,8.2c0.5,0.6,1.3,1.7,2.5,5c0.5-0.2,1.1-0.5,1.8-0.8c1.4-0.6,2.9-1.3,4.7-1.9c10.9-3.7,21.6-2.1,26.3-0.4
	c2.1,0.5,4.2,1.2,6.2,2.1C306.3,191.8,306.6,191.9,306.8,192z"/>
<path id="DDS:_DIFF_1_" class="st2" d="M306.3,164.2c-3.3,1.5-6.8,2.6-10.5,2.9h-0.4v-0.1c-3.4,0.7-13.5,2.2-24.4-1.9
	c-1.8-0.7-3.3-1.4-4.6-2c-1.9,5-3,6.2-3.7,7c-2.9,3.2-7,5.6-12.1,6.8c0-0.9-0.1-1.9-0.2-2.8c-0.2-2.7-0.6-5.3-1-7.9
	c-0.2-1-0.4-2-0.6-3.1c-1.2-5.2-2.9-10.2-5-15v0c-0.5-1.1-1.1-2.3-1.6-3.4c-1-2-2.1-4-3.3-5.9c-0.5-0.7-0.9-1.5-1.4-2.2
	c3.3-1.2,6.6-1.8,9.5-1.8c2.4,0,4.7,0.4,6.8,1.1c0.9,0.3,2.5,0.8,6.8,4.4l0.1-0.2c0.9-1.1,1.9-2.6,3.1-4.1
	c8.2-9.6,19.2-13.4,22.8-14c1.8-0.6,3.7-1,5.5-1.2c0.5,0.9,1,1.8,1.5,2.7c-0.3,0-0.7,0.1-1,0.1c-1.5,0.2-3.1,0.5-4.5,1
	c-0.2,0.2-0.5,0.3-0.9,0.5c-2.4,1.1-8,3.9-11.9,9.9c-1.8,2.9-2.3,4.9-3.1,8.6c-0.4,1.6-0.8,3.6-1.5,6.1c1.7,1.8,3,3.2,4,4.4
	c2.5,2.8,3.9,4.4,6.9,6c6.3,3.4,12.5,3,15.1,2.9h1c0.5,0,0.8,0.1,1.1,0.2c2.4-0.5,4.7-1.3,6.9-2.4c0.1,0,0.1-0.1,0.2-0.1
	C306,162.1,306.1,163.1,306.3,164.2z"/>
<path id="DDS:_DIFF" class="st2" d="M273.2,95.4c0,0.1-0.1,0.2-0.1,0.3c-0.6,1.2-1.4,2.4-2.2,3.4c0,0.2-0.1,0.2-0.1,0.3
	c-0.6,1.5-9.6,11.3-23.7,14.3c-1.5,0.3-2.7,0.5-3.7,0.6c1.5,7.4,1.1,9.3,0.9,10.5c-0.8,4.4-3.1,8.3-6.8,12c-0.5-0.7-1-1.5-1.5-2.2
	c-2-2.7-4.1-5.3-6.4-7.8c-0.7-0.8-1.5-1.5-2.2-2.3c-3.3-3.2-6.8-6.2-10.7-8.8c-1-0.7-2-1.4-3.1-2c-2.5-1.6-5.1-3-7.8-4.2
	c-0.9-0.4-1.8-0.8-2.7-1.2c-3.6-1.6-7.4-2.8-11.3-3.8c-1-0.3-2.1-0.5-3.2-0.7c-3.9-0.8-7.9-1.4-12-1.6c-1.3-0.1-2.5-0.1-3.8-0.1
	c-0.2,0-0.3,0-0.5,0c-3.5,0-6.9,0.2-10.2,0.7c-0.9,0.1-1.8,0.2-2.6,0.4c0.3-6.6,2.5-12.1,6.2-16c0.8-0.8,2.4-2.5,11.4-6.4
	c-0.4-0.8-0.7-1.5-1-2.2c-3.3-8.4-3.2-16.3-2.7-20.9c1.4-0.1,2.7-0.2,4.1-0.3c0.3,3.9,1.3,7.5,3.1,10.8c1.7,3,3.2,4.4,6.1,6.8
	c0.6,0.5,1.2,1.1,1.9,1.7c0.8-0.3,1.7-0.5,2.4-0.8c3.6-1.1,5.7-1.8,8.3-3.8c5.5-4.3,7.8-9.9,8.8-12.5c1.1,0.2,2.3,0.5,3.4,0.7
	c-0.1,0.4-0.2,0.7-0.3,1c-0.4,2.2-2.8,13.2-11.9,22.3c-0.6,0.5-1.1,1.1-1.8,1.7c6.7,7,7.4,9.2,7.9,10.3c1.1,2.8,1.4,6,1.1,9.4
	c3.2-3.3,6.7-5.4,10.6-6.3c1.1-0.3,3.1-0.8,10.5,0.4c0.1-1.1,0.2-2.4,0.5-3.7c2-12.1,8.9-20.2,10.9-22.4c0.4-0.7,1-1.5,1.6-2.1
	c0.9,0.5,1.8,1,2.7,1.5c0,0.5-0.3,0.9-0.9,1.7c-1.4,2.2-4.8,7.4-5,14.5c-0.1,3.4,0.5,5.4,1.8,8.9c0.3,1.1,0.8,2.5,1.3,4.1
	c1.6,0.5,3,0.8,4.1,1.1c3.6,1,5.7,1.6,9,1.3c3.6-0.3,6.6-1.4,9-2.5c2.4-1.2,4.2-2.4,5.3-3.2c1.1-1.2,2.1-2.6,2.8-4.1
	c0.2-0.4,0.4-0.7,0.6-1.1C271.8,93.9,272.5,94.6,273.2,95.4z"/>
</svg>
