<?xml version="1.0" encoding="utf-8"?>
<!-- Generator: Adobe Illustrator 19.2.1, SVG Export Plug-In . SVG Version: 6.00 Build 0)  -->
<svg version="1.1" id="Layer_1" xmlns="http://www.w3.org/2000/svg" xmlns:xlink="http://www.w3.org/1999/xlink" x="0px" y="0px"
	 viewBox="0 0 360 360" style="enable-background:new 0 0 360 360;" xml:space="preserve">
<style type="text/css">
	.st0{fill:none;stroke:#231F20;stroke-miterlimit:10;}
	.st1{fill:#294DFF;}
	.st2{fill:#FFE313;}
	.st3{fill:none;stroke:#231F20;stroke-width:2;stroke-miterlimit:10;}
	.st4{fill:none;stroke:#231F20;stroke-width:2;stroke-linejoin:bevel;stroke-miterlimit:50;}
	.st5{fill:#FFFFFF;stroke:#000000;stroke-miterlimit:10;}
	.st6{fill:none;stroke:#294DFF;stroke-width:3;stroke-miterlimit:10;}
</style>
<rect id="BASE:_Base_Path" x="56.5" y="33.6" class="st0" width="247.9" height="270"/>
<rect id="MC:_Microcontroller" x="232.2" y="225.9" transform="matrix(4.485194e-11 1 -1 4.485194e-11 530.4479 20.9921)" class="st1" width="45" height="99.7"/>
<polygon id="BI:_Breakin_1_" class="st2" points="216,284.7 216,282.5 216,281 216,276.5 216,275 216,270.5 216,264.5 204.9,264.5 
	204.9,268.6 204.9,270.5 204.9,275 204.9,276.5 204.9,281 204.9,282.5 204.9,284.7 204.9,287 216,287 "/>
<path id="DIF:_diffuser" class="st3" d="M286.1,178.1c0-0.8-0.1-1.5-0.1-2.3s-0.1-1.5-0.2-2.3c-2.5-22.5-15.6-41.8-34.1-52.8
	c0-1.2-0.1-2.4-0.1-3.6c-0.1-1.1-0.2-2.3-0.3-3.4c-0.1-0.5-0.1-1.1-0.2-1.6c-0.1-0.5-0.1-1.1-0.2-1.6c-0.9-6.2-2.7-12.2-5.2-17.8
	c-3.8-8.6-9.2-16.3-15.9-22.7l0.1-0.1c-12.7-12.2-30-19.7-49-19.7h-0.7c-15.1,0.1-29,5-40.5,13.2c0,0,0,0-0.1,0.1
	c0,0-0.1,0.1-0.1,0.1c-0.4,0.3-0.9,0.6-1.3,1c0,0,0,0,0,0c-0.3,0.3-0.7,0.5-1,0.8c0,0,0,0.1-0.1,0.1c-0.4,0.3-0.8,0.6-1.1,0.9v0
	c-0.1,0.1-0.1,0.1-0.2,0.2c-0.3,0.3-0.6,0.5-1,0.8c-0.4,0.3-0.8,0.7-1.2,1c-1.6,1.5-3.2,3-4.7,4.6c-0.3,0.4-0.7,0.8-1,1.2
	c-0.7,0.8-1.4,1.6-2,2.4c-0.3,0.4-0.6,0.8-1,1.2c-0.3,0.4-0.5,0.7-0.8,1.1c-0.3,0.4-0.5,0.7-0.8,1.1c-0.3,0.4-0.5,0.8-0.8,1.1
	c-7.5,10.9-12,24-12.4,38.2c0,0-0.1,0-0.1,0.1c-2.4,1.4-4.8,3-7,4.6c0,0-0.1,0.1-0.1,0.1c-0.2,0.2-0.4,0.3-0.6,0.5
	c-0.2,0.1-0.3,0.3-0.5,0.4c-0.5,0.4-1,0.8-1.5,1.2c0,0,0,0,0,0c-0.4,0.4-0.9,0.7-1.3,1.1c-0.5,0.4-1,0.8-1.5,1.3
	c-1.9,1.7-3.7,3.5-5.4,5.4c-0.4,0.5-0.9,1-1.3,1.5c-1.2,1.5-2.4,3-3.5,4.6c-5.2,7.4-9,15.7-11,24.7c0-0.2,0.1-0.3,0.1-0.5
	c-0.1,0.3-0.2,0.7-0.3,1.1c-0.1,0.5-0.2,1-0.3,1.5c-0.4,1.9-0.7,3.8-1,5.7c0,0.3-0.1,0.6-0.1,0.9c0,0.2,0,0.5-0.1,0.8v0.1
	c-0.1,1.2-0.2,2.3-0.2,3.5c0-1,0.1-2.1,0.2-3.1c-0.1,0.5-0.1,1-0.2,1.5c-0.1,2-0.2,3.9-0.2,5.9c0,1.2,0,2.4,0.1,3.6
	c0.1,1.2,0.2,2.3,0.3,3.5c0.1,1.1,0.2,2.2,0.4,3.3c5.1,34.2,34.5,60.4,70.1,60.4c12.9,0,25-3.5,35.4-9.5c10.4,6,22.3,9.3,35.1,9.3
	c35.6,0,65.1-26.2,70.1-60.4c0.2-1.1,0.3-2.2,0.4-3.3c0.1-1.2,0.2-2.3,0.3-3.5c0.1-1.2,0.1-2.4,0.1-3.7
	C286.1,180.4,286.1,179.2,286.1,178.1z"/>
<path id="DIF:right" class="st4" d="M285.8,181.9c0,1.2,0,2.4-0.1,3.7c0,0.6-0.1,1.2-0.1,1.8c-0.1,1.1-0.2,2.3-0.3,3.4
	c-0.1,1.1-0.3,2.2-0.5,3.3c-5.8,33.4-34.8,58.8-69.9,58.8c-12.8,0-24.7-3.3-35.1-9.3c0.7-0.4,1.3-0.8,2-1.2c0.6-0.4,1.2-0.8,1.8-1.2
	c0.1-0.1,0.2-0.1,0.3-0.2c0.6-0.4,1.1-0.8,1.7-1.1c0,0,0,0,0.1-0.1c0.5-0.3,0.9-0.7,1.4-1c0.2-0.2,0.4-0.3,0.7-0.5
	c0.5-0.4,1-0.8,1.5-1.2c0.5-0.4,1-0.8,1.5-1.3c0.1-0.1,0.2-0.2,0.3-0.3c1.1-1,2.2-2,3.2-3c0.5-0.5,1-1,1.5-1.5
	c1.2-1.2,2.3-2.5,3.4-3.9c0.3-0.4,0.6-0.8,1-1.2c0.4-0.5,0.7-0.9,1.1-1.4c0.2-0.3,0.5-0.7,0.7-1c0.4-0.5,0.8-1,1.1-1.6v0
	c0.4-0.5,0.7-1.1,1.1-1.6c0.2-0.2,0.3-0.5,0.5-0.7c0.2-0.4,0.5-0.8,0.7-1.1c0.5-0.8,0.9-1.6,1.4-2.4c0.9-1.7,1.8-3.4,2.5-5.2
	c0.2-0.4,0.3-0.7,0.5-1.1c0.8-1.8,1.4-3.6,2-5.4c0.2-0.7,0.5-1.5,0.7-2.2c0.1-0.4,0.2-0.7,0.3-1.1c0.1-0.5,0.3-1,0.4-1.5
	c0.1-0.3,0.1-0.5,0.2-0.8c0.6-2.7,1.1-5.4,1.5-8.2c0.1-0.9,0.2-1.8,0.3-2.7c0-0.6,0.1-1.1,0.1-1.7c0-0.4,0-0.8,0.1-1.2
	c0-0.3,0-0.6,0-0.9c0-0.3,0-0.5,0-0.8c0-0.4,0-0.8,0-1.2c0-0.7,0-1.3,0-2c0-0.9-0.1-1.8-0.1-2.7c0-0.1,0-0.1,0-0.2
	c0-0.3,0-0.7-0.1-1c0-0.5-0.1-0.9-0.1-1.4c0-0.5-0.1-1-0.2-1.4c0-0.3-0.1-0.7-0.1-1c0-0.4-0.1-0.7-0.2-1c-0.1-0.9-0.3-1.7-0.4-2.6
	c0-0.3-0.1-0.6-0.2-0.9c-0.5-2.4-1.1-4.7-1.8-7c-0.1-0.3-0.2-0.7-0.3-1c-0.2-0.6-0.4-1.3-0.7-1.9c-0.1-0.3-0.2-0.6-0.3-0.9
	c-0.2-0.5-0.4-1-0.6-1.6c-0.3-0.7-0.6-1.4-0.9-2.1c-0.2-0.4-0.3-0.7-0.5-1c-0.8-1.8-1.7-3.5-2.6-5.1c-0.4-0.6-0.7-1.2-1.1-1.9
	c0-0.1-0.1-0.1-0.1-0.2c-0.4-0.6-0.8-1.2-1.2-1.9c-0.3-0.5-0.6-1-1-1.4c-0.3-0.4-0.5-0.8-0.8-1.2c-0.3-0.4-0.6-0.9-1-1.3
	c-0.1-0.1-0.1-0.2-0.2-0.3c-0.3-0.5-0.7-0.9-1.1-1.4c-0.2-0.3-0.5-0.6-0.8-0.9c-0.4-0.5-0.8-0.9-1.2-1.4c-0.4-0.4-0.8-0.9-1.2-1.3
	c-0.1-0.1-0.3-0.3-0.4-0.5c-0.3-0.4-0.7-0.7-1-1c-0.3-0.3-0.7-0.7-1-1c-0.1-0.1-0.2-0.2-0.4-0.4c-0.4-0.5-0.9-0.9-1.4-1.3
	c0,0-0.1-0.1-0.1-0.1c-0.5-0.4-1-0.9-1.5-1.3c-0.1-0.1-0.2-0.2-0.3-0.3c-0.5-0.4-0.9-0.8-1.4-1.2c-0.1-0.1-0.1-0.1-0.2-0.2
	c-0.5-0.4-1.1-0.8-1.6-1.3c-2.3-1.8-4.8-3.4-7.3-4.9l71.2,0.4v0.1c0.6,0.3,1.1,0.7,1.7,1c0.5,0.4,1.1,0.7,1.6,1.1
	c0.7,0.5,1.4,0.9,2,1.4c0.4,0.3,0.8,0.5,1.1,0.8c1.1,0.8,2.2,1.7,3.3,2.7c0.4,0.3,0.7,0.6,1.1,0.9c0.1,0.1,0.2,0.2,0.3,0.3
	c0.3,0.3,0.7,0.6,1,0.9c0.2,0.1,0.3,0.3,0.5,0.5c0.3,0.3,0.6,0.5,0.8,0.8c0.2,0.2,0.5,0.5,0.7,0.7c0.4,0.4,0.7,0.8,1.1,1.1
	c0.4,0.4,0.8,0.9,1.2,1.3c0.4,0.5,0.9,1,1.3,1.5c0.3,0.4,0.7,0.8,1,1.2c0.5,0.6,1,1.2,1.5,1.8c0.4,0.5,0.8,1,1.2,1.5c0,0,0,0,0,0
	c0.8,1,1.5,2.1,2.2,3.2c0.4,0.5,0.7,1.1,1,1.7c0.4,0.6,0.8,1.3,1.1,2c0.3,0.5,0.5,1,0.8,1.4c0.3,0.5,0.5,1,0.8,1.5
	c0.4,0.8,0.8,1.6,1.1,2.3c0.2,0.4,0.3,0.7,0.5,1.1c0.1,0.2,0.2,0.4,0.2,0.5c0.2,0.5,0.4,1,0.6,1.5c0,0.1,0.1,0.1,0.1,0.2
	c0.2,0.4,0.3,0.8,0.4,1.2c0.2,0.4,0.3,0.8,0.4,1.2c0.2,0.5,0.4,1.1,0.6,1.6c0.4,1.1,0.7,2.3,1,3.5c0.2,0.7,0.3,1.3,0.5,2
	c0.2,0.6,0.3,1.3,0.4,2c0.3,1.3,0.5,2.6,0.7,4c0.1,0.8,0.2,1.5,0.3,2.2c0.2,1.5,0.3,3,0.4,4.5c0,0.5,0.1,1,0.1,1.5
	C285.8,180.5,285.8,181.2,285.8,181.9z"/>
<path id="DIFL_other" class="st3" d="M251.4,121l-71.2-0.4c-0.1,0-0.1-0.1-0.2-0.1l49.5-50.1l0,0c9.7,9.2,16.7,21.2,19.9,34.6
	c0.2,1,0.4,1.9,0.6,2.9c0.1,0.4,0.2,0.8,0.2,1.2c0.1,0.6,0.2,1.2,0.3,1.8c0.1,0.5,0.2,1,0.2,1.6c0.1,0.5,0.1,1.1,0.2,1.6
	c0.1,1.1,0.2,2.3,0.3,3.4C251.3,118.5,251.4,119.7,251.4,121z"/>
<path id="DIF:_eye" class="st3" d="M161.7,158.9c4.2,6.4,6.6,14,6.6,22.2c0,22.5-18.2,40.8-40.8,40.8c-8,0-15.5-2.3-21.8-6.3
	c-11.4-7.2-18.9-19.9-18.9-34.4c0-22.5,18.2-40.8,40.8-40.8H180L161.7,158.9z"/>
<path id="DIF:_other" class="st3" d="M105.6,215.5L92.4,229c-10.8-11.8-17.6-27.3-18.4-44.4c0-1.1-0.1-2.3-0.1-3.4
	c0-0.5,0-1.1,0-1.6c0-0.6,0-1.2,0.1-1.7c0-1.2,0.1-2.3,0.2-3.5v-0.1c0-0.3,0-0.5,0.1-0.8c0-0.3,0.1-0.6,0.1-0.9
	c0.3-1.9,0.6-3.8,1-5.7c-0.4,1.8-0.7,3.7-0.9,5.6c1.5-12,6.1-22.9,12.8-32.2h40.2c-22.5,0-40.8,18.2-40.8,40.8
	C86.8,195.5,94.3,208.2,105.6,215.5z"/>
<g id="LEDS">
	<rect id="NLED:_APA102c" x="216.1" y="98.4" class="st5" width="14.2" height="14.2"/>
	<rect id="NLED:_APA102c_1_" x="152.1" y="101.4" class="st5" width="14.2" height="14.2"/>
	<rect id="NLED:_APA102c_2_" x="137.5" y="158.5" class="st5" width="14.2" height="14.2"/>
	<rect id="NLED:_APA102c_5_" x="176.5" y="196.7" class="st5" width="14.2" height="14.2"/>
	<rect id="NLED:_APA102c_3_" x="240.6" y="203.8" class="st5" width="14.2" height="14.2"/>
	<rect id="NLED:_APA102c_4_" x="233.5" y="142.2" class="st5" width="14.2" height="14.2"/>
</g>
<path id="CP:_Path" class="st6" d="M239,275c-27,9.5-44.7,3.2-50.7,0.7c-39.3-16.8-43-74-44-88.7c-1.4-21.9,2.9-37.6,10-63.3
	c10.2-36.8,19.5-41.9,22.7-43.3c13.9-6.5,33.9-1.1,42.7,10.7c7.3,9.8,1.2,16.6,6.7,34c6.6,20.7,19.2,23.5,26,39.3
	c8.5,19.7,6.2,48.5-7.3,58.7c-16.3,12.3-54.2,1.4-86-35.3"/>
<circle id="NUT:_nut" class="st1" cx="73.9" cy="287" r="8.9"/>
<circle id="NUT:_nut_1_" class="st1" cx="73.9" cy="50.2" r="8.9"/>
<circle id="NUT:_nut_2_" class="st1" cx="286.1" cy="50.2" r="8.9"/>
</svg>
