<?xml version="1.0" encoding="utf-8"?>
<!-- Generator: Adobe Illustrator 19.1.0, SVG Export Plug-In . SVG Version: 6.00 Build 0)  -->
<svg version="1.1" id="Layer_1" xmlns="http://www.w3.org/2000/svg" xmlns:xlink="http://www.w3.org/1999/xlink" x="0px" y="0px"
	 viewBox="0 0 232.4 161" style="enable-background:new 0 0 232.4 161;" xml:space="preserve">
<style type="text/css">
	.st0{fill:#BE1E2D;}
	.st1{fill:#58595B;}
	.st2{fill:none;stroke:#000000;stroke-width:3;stroke-miterlimit:10;}
	.st3{fill:#020202;}
	.st4{fill:#F7941E;stroke:#F7941E;stroke-miterlimit:10;}
</style>
<g>
	<path class="st0" d="M119.2,123.7C119.2,123.7,119.2,123.7,119.2,123.7c0-3.5-2.9-6.4-6.4-6.4c-3.6,0-6.4,2.9-6.4,6.4v0v12.8h12.9
		V123.7z M115,122.5c-0.7,0.1-1.3-0.4-2-0.2c-1,0.3-0.6,0.9-1.1,1.7c-0.4,0.7-1.5,0.9-2.2,0.5c-2.3-1.4,0-4.3,1.5-4.8
		c1.2-0.9,3.5-0.3,4.4,1.2C116.1,121.5,115.9,122.3,115,122.5z"/>
	<polygon class="st0" points="104.3,137.3 104.3,140.2 109.3,140.2 109.3,149.6 111.4,149.6 111.4,140.2 114.2,140.2 114.2,145.5 
		116.3,145.5 116.3,140.2 121.3,140.2 121.3,137.3 	"/>
</g>
<path class="st1" d="M152.5,27.7V16.3c0-4.7-3.8-8.4-8.4-8.4H81.6c-4.7,0-8.4,3.8-8.4,8.4v11.4h-5.7v5.7h5.7v11.4
	c0,4.7,3.8,8.4,8.4,8.4H144c4.7,0,8.4-3.8,8.4-8.4V33.4h5.7v-5.7H152.5z"/>
<path class="st2" d="M68.4,30.6c0,0-74.9,17.9-53.7,30.6S93.6,63.8,87.6,85S25,84.3,30.4,115.3s79.9,31.7,79.9,31.7"/>
<path class="st2" d="M157.7,30.6c0,0,74.9,17.9,53.7,30.6s-78.8,2.6-72.9,23.9c5.9,21.3,62.7-0.8,57.2,30.2s-79.9,28.2-79.9,28.2"/>
</svg>
