<?xml version="1.0" encoding="utf-8"?>
<!-- Generator: Adobe Illustrator 19.2.1, SVG Export Plug-In . SVG Version: 6.00 Build 0)  -->
<svg version="1.1" id="ELD:_BubbleMachine" xmlns="http://www.w3.org/2000/svg" xmlns:xlink="http://www.w3.org/1999/xlink" x="0px"
	 y="0px" viewBox="0 0 419 315.8" style="enable-background:new 0 0 419 315.8;" xml:space="preserve">
<style type="text/css">
	.st0{fill:#E3F3F3;stroke:#231F20;stroke-width:2;stroke-miterlimit:10;}
	.st1{fill:#C2C4C6;stroke:#231F20;stroke-width:2;stroke-miterlimit:10;}
	.st2{fill:#999B9E;}
	.st3{fill:#333132;stroke:#231F20;stroke-width:2;stroke-miterlimit:10;}
	.st4{opacity:0.76;fill:#97D9EB;enable-background:new    ;}
	.st5{opacity:0.62;fill:#E3F2FA;enable-background:new    ;}
	.st6{opacity:0.49;fill:#E3F2FA;enable-background:new    ;}
</style>
<g id="qheTKP_1_">
	
		<image style="overflow:visible;" width="2608" height="1744" id="qheTKP" xlink:href="329CC7701945B4A.jpg"  transform="matrix(0.1628 0 0 0.1628 -347.46 -60.1407)">
	</image>
</g>
<g id="PUMP:_asdk_5_">
	<path class="st0" d="M-133.8,229v-2.7h-14.6c-1,0-1.9-0.8-1.9-1.9v-4.7h-5.7v4.4c0,1.2-0.9,2.1-2.1,2.1h-14.4v2.7h-4V253h46.7
		v-24.1h-4V229z"/>
	<rect x="-165.2" y="253.1" class="st1" width="24.1" height="28.9"/>
	<rect x="-160.3" y="253.5" class="st2" width="14.3" height="28.3"/>
	<rect x="-165.2" y="282" class="st3" width="24.1" height="4.9"/>
	<rect x="-168.6" y="234.5" class="st3" width="31" height="1.6"/>
	<g>
		<rect x="-158.2" y="209.8" class="st4" width="10" height="16"/>
		<polygon class="st5" points="-148.3,206.3 -153.7,207.2 -158.2,206.3 -158.2,194.8 -148.3,194.8 		"/>
		<rect x="-157.1" y="217.1" class="st6" width="3.8" height="8.7"/>
	</g>
</g>
<g id="PUMP:_asdk">
	<path class="st0" d="M45.2,173v-1.9h-10c-0.7,0-1.3-0.5-1.3-1.3v-3.2H30v3c0,0.8-0.6,1.4-1.4,1.4h-10v1.9h-2.7v16.5h32V173H45.2
		L45.2,173z"/>
	<rect x="23.6" y="189.6" class="st1" width="16.5" height="19.8"/>
	<rect x="27" y="189.8" class="st2" width="9.8" height="19.4"/>
	<rect x="23.6" y="209.4" class="st3" width="16.5" height="3.4"/>
	<rect x="21.3" y="176.8" class="st3" width="21.3" height="1.1"/>
	<g>
		<rect x="28.5" y="159.8" class="st4" width="6.9" height="11"/>
		<path class="st5" d="M35.3,157.4c0,0-2.4,0.5-3.4,0.5c-0.8,0-3.5-0.5-3.5-0.5v-7.9h6.9V157.4z"/>
		<rect x="29.3" y="164.9" class="st6" width="2.6" height="6"/>
	</g>
</g>
<g id="PUMP:_asdk_2_">
	<path class="st0" d="M-304.1,175.5v-1.9h-10c-0.7,0-1.3-0.5-1.3-1.3v-3.2h-3.9v3c0,0.8-0.6,1.4-1.4,1.4h-9.9v1.9h-2.7v16.5h32
		v-16.5h-2.8V175.5L-304.1,175.5z"/>
	<rect x="-325.6" y="192" class="st1" width="16.5" height="19.8"/>
	<rect x="-322.3" y="192.3" class="st2" width="9.8" height="19.4"/>
	<rect x="-325.6" y="211.8" class="st3" width="16.5" height="3.4"/>
	<rect x="-328" y="179.2" class="st3" width="21.3" height="1.1"/>
	<g>
		<rect x="-320.7" y="161.9" class="st4" width="6.9" height="11"/>
		<polygon class="st5" points="-314,159.6 -317.7,160.2 -320.8,159.6 -320.8,151.7 -314,151.7 		"/>
		<rect x="-320" y="167" class="st6" width="2.6" height="6"/>
	</g>
</g>
<g id="TF2OBe.tif">
	
		<image style="overflow:visible;" width="1620" height="916" id="Layer_0_1_" xlink:href="329CC7701945B4E.png"  transform="matrix(0.2995 0 0 0.2995 125.64 -55.38)">
	</image>
</g>
</svg>
