<?xml version="1.0" encoding="utf-8"?>
<!-- Generator: Adobe Illustrator 19.2.1, SVG Export Plug-In . SVG Version: 6.00 Build 0)  -->
<svg version="1.1" id="ELD:_BubbleMachine" xmlns="http://www.w3.org/2000/svg" xmlns:xlink="http://www.w3.org/1999/xlink" x="0px"
	 y="0px" viewBox="0 0 419 315.8" style="enable-background:new 0 0 419 315.8;" xml:space="preserve">
<style type="text/css">
	.st0{fill:#E3F3F3;stroke:#231F20;stroke-width:2;stroke-miterlimit:10;}
	.st1{fill:#C2C4C6;stroke:#231F20;stroke-width:2;stroke-miterlimit:10;}
	.st2{fill:#999B9E;}
	.st3{fill:#333132;stroke:#231F20;stroke-width:2;stroke-miterlimit:10;}
	.st4{opacity:0.76;fill:#97D9EB;enable-background:new    ;}
	.st5{opacity:0.62;fill:#E3F2FA;enable-background:new    ;}
	.st6{opacity:0.49;fill:#E3F2FA;enable-background:new    ;}
</style>
<g id="DEVICE:__x7B__x27_id_x27_:0_x7D__2_">
	<g id="PUMP:_asdk_4_">
		<path class="st0" d="M101.6,158v-3.5H83.2c-1.3,0-2.4-0.9-2.4-2.4v-5.9h-7.1v5.5c0,1.5-1.1,2.6-2.6,2.6H53v3.5H48v30.2h58.7v-30.2
			L101.6,158L101.6,158z"/>
		<rect x="62.1" y="188.5" class="st1" width="30.2" height="36.3"/>
		<rect x="68.2" y="188.8" class="st2" width="18" height="35.6"/>
		<rect x="62.1" y="224.8" class="st3" width="30.2" height="6.2"/>
		<rect x="57.7" y="165" class="st3" width="39" height="2"/>
		<g>
			<rect x="70.9" y="133.5" class="st4" width="12.6" height="20.2"/>
			<polygon class="st5" points="83.4,129.3 77.4,130.4 70.9,129.3 70.9,114.8 83.4,114.8 			"/>
			<rect x="72.4" y="142.8" class="st6" width="4.8" height="11"/>
		</g>
	</g>
	<g id="PUMP:_asdk_1_">
		<path class="st0" d="M169.9,158v-3.5h-18.3c-1.3,0-2.4-0.9-2.4-2.4v-5.9H142v5.5c0,1.5-1.1,2.6-2.6,2.6h-18.1v3.5h-4.9v30.2H175
			v-30.2L169.9,158L169.9,158z"/>
		<rect x="130.5" y="188.5" class="st1" width="30.2" height="36.3"/>
		<rect x="136.5" y="188.8" class="st2" width="18" height="35.6"/>
		<rect x="130.5" y="224.8" class="st3" width="30.2" height="6.2"/>
		<rect x="126.1" y="165" class="st3" width="39" height="2"/>
		<g>
			<rect x="139.3" y="133.5" class="st4" width="12.6" height="20.2"/>
			<polygon class="st5" points="151.7,129.3 145.7,130.4 139.3,129.3 139.3,114.8 151.7,114.8 			"/>
			<rect x="140.7" y="142.8" class="st6" width="4.8" height="11"/>
		</g>
	</g>
	<g id="PUMP:_asdk_2_">
		<path class="st0" d="M238.2,158v-3.5h-18.3c-1.3,0-2.4-0.9-2.4-2.4v-5.9h-7.1v5.5c0,1.5-1.1,2.6-2.6,2.6h-18.1v3.5h-4.9v30.2h58.7
			v-30.2L238.2,158L238.2,158z"/>
		<rect x="198.8" y="188.5" class="st1" width="30.2" height="36.3"/>
		<rect x="204.8" y="188.8" class="st2" width="18" height="35.6"/>
		<rect x="198.8" y="224.8" class="st3" width="30.2" height="6.2"/>
		<rect x="194.4" y="165" class="st3" width="39" height="2"/>
		<g>
			<rect x="207.6" y="133.5" class="st4" width="12.6" height="20.2"/>
			<polygon class="st5" points="220,129.3 214,130.4 207.6,129.3 207.6,114.8 220,114.8 			"/>
			<rect x="209" y="142.8" class="st6" width="4.8" height="11"/>
		</g>
	</g>
	<g id="PUMP:_asdk_5_">
		<path class="st0" d="M374.8,158v-3.5h-18.3c-1.3,0-2.4-0.9-2.4-2.4v-5.9H347v5.5c0,1.5-1.1,2.6-2.6,2.6h-18.1v3.5h-4.9v30.2h58.7
			v-30.2L374.8,158L374.8,158z"/>
		<rect x="335.4" y="188.5" class="st1" width="30.2" height="36.3"/>
		<rect x="341.5" y="188.8" class="st2" width="18" height="35.6"/>
		<rect x="335.4" y="224.8" class="st3" width="30.2" height="6.2"/>
		<rect x="331" y="165" class="st3" width="39" height="2"/>
		<g>
			<rect x="344.2" y="133.5" class="st4" width="12.6" height="20.2"/>
			<polygon class="st5" points="356.7,129.3 350.6,130.4 344.2,129.3 344.2,114.8 356.7,114.8 			"/>
			<rect x="345.7" y="142.8" class="st6" width="4.8" height="11"/>
		</g>
	</g>
	<g id="PUMP:_asdk_3_">
		<path class="st0" d="M306.5,158v-3.5h-18.3c-1.3,0-2.4-0.9-2.4-2.4v-5.9h-7.1v5.5c0,1.5-1.1,2.6-2.6,2.6h-18.1v3.5H253v30.2h58.7
			v-30.2L306.5,158L306.5,158z"/>
		<rect x="267.1" y="188.5" class="st1" width="30.2" height="36.3"/>
		<rect x="273.1" y="188.8" class="st2" width="18" height="35.6"/>
		<rect x="267.1" y="224.8" class="st3" width="30.2" height="6.2"/>
		<rect x="262.7" y="165" class="st3" width="39" height="2"/>
		<g>
			<rect x="275.9" y="133.5" class="st4" width="12.6" height="20.2"/>
			<polygon class="st5" points="288.4,129.3 282.3,130.4 275.9,129.3 275.9,114.8 288.4,114.8 			"/>
			<rect x="277.4" y="142.8" class="st6" width="4.8" height="11"/>
		</g>
	</g>
</g>
</svg>
