<?xml version="1.0" encoding="utf-8"?>
<!-- Generator: Adobe Illustrator 19.2.1, SVG Export Plug-In . SVG Version: 6.00 Build 0)  -->
<svg version="1.1" id="ELD:_BubbleMachine" xmlns="http://www.w3.org/2000/svg" xmlns:xlink="http://www.w3.org/1999/xlink" x="0px"
	 y="0px" viewBox="0 0 1728 864" style="enable-background:new 0 0 1728 864;" xml:space="preserve">
<style type="text/css">
	.st0{fill:#FFFFFF;stroke:#231F20;stroke-miterlimit:10;}
</style>
<g id="DEVICE:_x7B__x27_id_x27_:0_x7D_">
	<path id="MOTOR:_motor_3_" class="st0" d="M455.5,243.2V293c0,6.6-5.4,12-12,12h-34.7v129c0,6.6-5.4,12-12,12h-62.9
		c-6.6,0-12-5.4-12-12V305h-34.7c-6.6,0-12-5.4-12-12v-49.8c0-6.6,5.4-12,12-12h65.1v-13.4c0-6.6,5.4-12,12-12h2.2
		c6.6,0,12,5.4,12,12v13.4h65.1C450.1,231.2,455.5,236.6,455.5,243.2z"/>
	<path id="MOTOR:_motor_2_" class="st0" d="M704.5,243.2V293c0,6.6-5.4,12-12,12h-34.7v129c0,6.6-5.4,12-12,12h-62.9
		c-6.6,0-12-5.4-12-12V305h-34.7c-6.6,0-12-5.4-12-12v-49.8c0-6.6,5.4-12,12-12h65.1v-13.4c0-6.6,5.4-12,12-12h2.2
		c6.6,0,12,5.4,12,12v13.4h65.1C699.1,231.2,704.5,236.6,704.5,243.2z"/>
	<path id="MOTOR:_motor_1_" class="st0" d="M953.5,243.2V293c0,6.6-5.4,12-12,12h-34.7v129c0,6.6-5.4,12-12,12h-62.9
		c-6.6,0-12-5.4-12-12V305h-34.7c-6.6,0-12-5.4-12-12v-49.8c0-6.6,5.4-12,12-12h65.1v-13.4c0-6.6,5.4-12,12-12h2.2
		c6.6,0,12,5.4,12,12v13.4h65.1C948.1,231.2,953.5,236.6,953.5,243.2z"/>
	<path id="MOTOR:_motor" class="st0" d="M1202.5,243.2V293c0,6.6-5.4,12-12,12h-34.7v129c0,6.6-5.4,12-12,12h-62.9
		c-6.6,0-12-5.4-12-12V305h-34.7c-6.6,0-12-5.4-12-12v-49.8c0-6.6,5.4-12,12-12h65.1v-13.4c0-6.6,5.4-12,12-12h2.2
		c6.6,0,12,5.4,12,12v13.4h65.1C1197.1,231.2,1202.5,236.6,1202.5,243.2z"/>
</g>
</svg>
