<?xml version="1.0" encoding="utf-8"?>
<!-- Generator: Adobe Illustrator 19.2.1, SVG Export Plug-In . SVG Version: 6.00 Build 0)  -->
<svg version="1.1" id="ELD:_AESTHETIC_DEVICE" xmlns="http://www.w3.org/2000/svg" xmlns:xlink="http://www.w3.org/1999/xlink"
	 x="0px" y="0px" viewBox="0 0 100 100" style="enable-background:new 0 0 100 100;" xml:space="preserve">
<style type="text/css">
	.st0{fill:#B6B8BA;}
	.st1{fill:#808285;}
	.st2{fill:#E4E5E6;}
	.st3{fill:#C51F30;stroke:#000000;stroke-width:2;stroke-miterlimit:10;}
	.st4{fill:none;stroke:#000000;stroke-miterlimit:10;}
	.st5{fill:#0076B6;}
	.st6{fill:#FFF200;}
	.st7{fill:#FFF34D;}
	.st8{fill:none;}
</style>
<g>
	<path d="M77.7,32.5h-12v-4.7c1.7-0.4,2.9-1.9,2.9-3.7c0-2.1-1.7-3.9-3.9-3.9c-2.1,0-3.8,1.7-3.8,3.9c0,1.8,1.2,3.3,2.9,3.7v4.7
		h-9.9V12.6c1.7-0.4,2.9-1.9,2.9-3.7C56.7,6.7,55,5,52.9,5C50.8,5,49,6.7,49,8.8c0,1.8,1.2,3.3,2.9,3.7v19.9H40.6v-4.7
		c1.7-0.4,2.9-1.9,2.9-3.7c0-2.1-1.7-3.9-3.9-3.9c-2.1,0-3.8,1.7-3.8,3.9c0,1.8,1.2,3.3,2.9,3.7v4.7H28.1c0,0-0.1,0-0.1,0
		c0,0-0.1,0-0.1,0c-0.2,0.1-0.3,0.1-0.4,0.2l-5.8,5.8c-0.2,0.2-0.3,0.4-0.3,0.7V94c0,0.1,0,0.1,0.1,0.2c0,0.1,0,0.1,0,0.2
		c0,0,0,0,0.1,0.1c0,0.1,0.1,0.2,0.2,0.2c0.1,0.1,0.1,0.1,0.2,0.2c0,0,0.1,0,0.1,0.1c0.1,0,0.2,0.1,0.4,0.1h49.5
		c0.2,0,0.5-0.1,0.7-0.3l5.8-5.8c0.1-0.1,0.2-0.3,0.2-0.4c0,0,0-0.1,0-0.1c0,0,0-0.1,0-0.1V33.5C78.6,32.9,78.2,32.5,77.7,32.5z
		 M23.3,39.6l3.8-3.8v52.1l-3.8,3.8V39.6z M71.5,93.1H24.7l3.9-3.9h46.8L71.5,93.1z M76.7,87.3H29.1V64.7h47.6V87.3z M76.7,62.8
		H29.1V34.4h47.6V62.8z"/>
	<polygon class="st0" points="27.2,35.8 27.2,87.9 23.3,91.7 23.3,39.6 	"/>
	<polygon class="st1" points="75.3,89.2 71.5,93.1 24.7,93.1 28.5,89.2 	"/>
	<path class="st2" d="M29.1,64.7v22.6h47.6V64.7H29.1z M52.3,82.3c-3.7,0-6.6-3-6.6-6.6c0-3.7,3-6.6,6.6-6.6c3.7,0,6.6,3,6.6,6.6
		C58.9,79.3,55.9,82.3,52.3,82.3z"/>
	<path class="st3" d="M58.9,75.7c0,3.6-3,6.6-6.6,6.6c-3.7,0-6.6-3-6.6-6.6c0-3.7,3-6.6,6.6-6.6C55.9,69,58.9,72,58.9,75.7z"/>
	<path d="M65.7,40.8c0,0.5-0.4,1-1,1h-25c-0.5,0-1-0.4-1-1c0-0.5,0.4-1,1-1h25C65.3,39.8,65.7,40.3,65.7,40.8z"/>
	<path d="M65.7,50.5c0,0.5-0.4,1-1,1h-25c-0.5,0-1-0.4-1-1c0-0.5,0.4-1,1-1h25C65.3,49.6,65.7,50,65.7,50.5z"/>
	<path d="M62.7,45.7c0,0.5-0.4,1-1,1h-19c-0.5,0-1-0.4-1-1c0-0.5,0.4-1,1-1h19C62.3,44.7,62.7,45.1,62.7,45.7z"/>
	<path d="M62.7,55.4c0,0.5-0.4,1-1,1h-19c-0.5,0-1-0.4-1-1c0-0.5,0.4-1,1-1h19C62.3,54.4,62.7,54.9,62.7,55.4z"/>
</g>
<path class="st4" d="M33.9,24.4c0,0-0.9-2.7,0.9-4.7c2.5-2.8,5.4-1.8,5.4-1.8"/>
<path class="st4" d="M31,21.7c0,0-0.9-2.7,0.9-4.7c2.5-2.8,5.4-1.8,5.4-1.8"/>
<polyline class="st4" points="66.2,18.9 65.7,14.5 69.8,14.9 69.6,11.6 73.1,10.9 "/>
<path class="st4" d="M47.9,2.1c0,0,1,1.9,2.7,1.8c1.9,0,1.8-1.8,3.7-1.9c2.4-0.2,2.9,2.1,2.9,2.1"/>
<path id="HEATER:__x7B__x22_resistance_x22_:60_x7D_" class="st5" d="M29.1,34.4v28.4h47.6V34.4H29.1z M61.7,56.4h-19
	c-0.5,0-1-0.4-1-1c0-0.5,0.4-1,1-1h19c0.5,0,1,0.4,1,1C62.7,55.9,62.3,56.4,61.7,56.4z M64.7,51.5h-25c-0.5,0-1-0.4-1-1
	c0-0.5,0.4-1,1-1h25c0.5,0,1,0.4,1,1C65.7,51.1,65.3,51.5,64.7,51.5z M41.8,45.7c0-0.5,0.4-1,1-1h19c0.5,0,1,0.4,1,1
	c0,0.5-0.4,1-1,1h-19C42.2,46.6,41.8,46.2,41.8,45.7z M64.7,41.8h-25c-0.5,0-1-0.4-1-1c0-0.5,0.4-1,1-1h25c0.5,0,1,0.4,1,1
	C65.7,41.3,65.3,41.8,64.7,41.8z"/>
<circle id="NLED:__x7B__x22_colorID_x22_:_x22__x23_FFFF00_x22__x7D_" class="st6" cx="39.6" cy="24" r="2.3"/>
<circle id="NLED:__x7B__x22_colorID_x22_:_x22__x23_FFFF00_x22__x7D__1_" class="st7" cx="52.9" cy="8.9" r="2.3"/>
<circle id="NLED:__x7B__x22_colorID_x22_:_x22__x23_FFFF00_x22__x7D__2_" class="st7" cx="64.6" cy="24" r="2.3"/>
<line id="CP:_ORDERING" class="st8" x1="13.8" y1="24.4" x2="92.2" y2="24.4"/>
<rect id="BI:_START" x="6.5" y="21.7" class="st8" width="4.5" height="9.8"/>
</svg>
