<?xml version="1.0" encoding="utf-8"?>
<!-- Generator: Adobe Illustrator 19.2.1, SVG Export Plug-In . SVG Version: 6.00 Build 0)  -->
<svg version="1.1" id="Layer_1" xmlns="http://www.w3.org/2000/svg" xmlns:xlink="http://www.w3.org/1999/xlink" x="0px" y="0px"
	 viewBox="0 0 316 208" style="enable-background:new 0 0 316 208;" xml:space="preserve">
<style type="text/css">
	.st0{fill:url(#SVGID_1_);stroke:#000000;stroke-width:4;stroke-miterlimit:10;}
	.st1{fill:url(#SVGID_2_);stroke:#000000;stroke-width:4;stroke-miterlimit:10;}
	.st2{fill:#414042;stroke:#000000;stroke-width:4;stroke-miterlimit:10;}
	.st3{fill:url(#SVGID_3_);stroke:#000000;stroke-width:4;stroke-miterlimit:10;}
	.st4{fill:url(#SVGID_4_);stroke:#000000;stroke-width:4;stroke-miterlimit:10;}
	.st5{fill:url(#SVGID_5_);stroke:#000000;stroke-width:2;stroke-miterlimit:10;}
	.st6{fill:none;stroke:#58595B;stroke-width:2;stroke-miterlimit:10;}
	.st7{fill:none;stroke:#000000;stroke-width:2;stroke-miterlimit:10;}
</style>
<g>
	<g>
		<linearGradient id="SVGID_1_" gradientUnits="userSpaceOnUse" x1="30.7674" y1="114.0698" x2="119.1395" y2="114.0698">
			<stop  offset="3.370800e-02" style="stop-color:#9B9B98"/>
			<stop  offset="0.1228" style="stop-color:#A3A4A5"/>
			<stop  offset="0.2191" style="stop-color:#AEB0B7"/>
			<stop  offset="0.3401" style="stop-color:#9FA4AB"/>
			<stop  offset="0.5712" style="stop-color:#7C858B"/>
			<stop  offset="0.7191" style="stop-color:#657076"/>
			<stop  offset="1" style="stop-color:#8B949A"/>
		</linearGradient>
		<rect x="30.8" y="69.9" class="st0" width="88.4" height="88.4"/>
		<linearGradient id="SVGID_2_" gradientUnits="userSpaceOnUse" x1="66.8372" y1="55.8169" x2="83.0698" y2="55.8169">
			<stop  offset="0" style="stop-color:#E5E2DF"/>
			<stop  offset="0" style="stop-color:#DED9D6"/>
			<stop  offset="6.164776e-02" style="stop-color:#CECAC9"/>
			<stop  offset="0.1794" style="stop-color:#A8A4A7"/>
			<stop  offset="0.264" style="stop-color:#8B878D"/>
			<stop  offset="0.5225" style="stop-color:#F3F4F4"/>
			<stop  offset="0.5875" style="stop-color:#E0DFE0"/>
			<stop  offset="0.7124" style="stop-color:#B7B4B8"/>
			<stop  offset="0.8764" style="stop-color:#807B80"/>
			<stop  offset="1" style="stop-color:#D1D3D4"/>
			<stop  offset="1" style="stop-color:#A7A9AC"/>
		</linearGradient>
		<rect x="66.8" y="41.9" class="st1" width="16.2" height="27.9"/>
		<path class="st2" d="M151.1,41.8H66.8V28h84.3c2.1,0,3.8,1.7,3.8,3.8v6.1C155,40,153.3,41.8,151.1,41.8z"/>
		<radialGradient id="SVGID_3_" cx="74.9186" cy="25.6667" r="5.9478" gradientUnits="userSpaceOnUse">
			<stop  offset="0" style="stop-color:#E5E2DF"/>
			<stop  offset="0" style="stop-color:#F7F6F5"/>
			<stop  offset="0" style="stop-color:#FFFFFF"/>
			<stop  offset="0.1232" style="stop-color:#ECEDED"/>
			<stop  offset="0.3585" style="stop-color:#C8C9CA"/>
			<stop  offset="0.5225" style="stop-color:#ADAEB0"/>
			<stop  offset="0.6004" style="stop-color:#A2A4A6"/>
			<stop  offset="0.7316" style="stop-color:#868C8E"/>
			<stop  offset="0.8989" style="stop-color:#5F686B"/>
			<stop  offset="1" style="stop-color:#465053"/>
		</radialGradient>
		<path class="st3" d="M82,28H66.8v-3.7c0-0.5,0.4-1,1-1H82c0.5,0,1,0.4,1,1V27C83,27.6,82.6,28,82,28z"/>
	</g>
	<g>
		<linearGradient id="SVGID_4_" gradientUnits="userSpaceOnUse" x1="213.4904" y1="88.4117" x2="285.639" y2="140.03">
			<stop  offset="5.618000e-03" style="stop-color:#85878D"/>
			<stop  offset="0.5281" style="stop-color:#979899"/>
			<stop  offset="1" style="stop-color:#5D5C62"/>
		</linearGradient>
		<circle class="st4" cx="242.8" cy="109.4" r="44.4"/>
		<path class="st2" d="M264.8,32.4l-8.5-1.9c-2.2-0.5-9.2,0-9.7,2.2l-11.8,74.4l16.3,3.7l24.4-72.3C276.2,36.3,267,32.9,264.8,32.4z
			 M255.1,80.4c-0.9,2.6-3.8,4-6.4,3.1s-4-3.8-3.1-6.4c0.9-2.6,3.8-4,6.4-3.1C254.6,75,256,77.8,255.1,80.4z M260,64.9
			c-0.9,2.6-3.8,4-6.4,3.1c-2.6-0.9-4-3.8-3.1-6.4c0.9-2.6,3.8-4,6.4-3.1S260.9,62.3,260,64.9z M263.6,48.5c-0.9,2.6-3.8,4-6.4,3.1
			c-2.6-0.9-4-3.8-3.1-6.4c0.9-2.6,3.8-4,6.4-3.1S264.5,45.9,263.6,48.5z"/>
		<g>
			<radialGradient id="SVGID_5_" cx="242.8269" cy="109.4003" r="10.25" gradientUnits="userSpaceOnUse">
				<stop  offset="0" style="stop-color:#E5E2DF"/>
				<stop  offset="0" style="stop-color:#F7F6F5"/>
				<stop  offset="0" style="stop-color:#FFFFFF"/>
				<stop  offset="0.1232" style="stop-color:#ECEDED"/>
				<stop  offset="0.3585" style="stop-color:#C8C9CA"/>
				<stop  offset="0.5225" style="stop-color:#ADAEB0"/>
				<stop  offset="0.6004" style="stop-color:#A2A4A6"/>
				<stop  offset="0.7316" style="stop-color:#868C8E"/>
				<stop  offset="0.8989" style="stop-color:#5F686B"/>
				<stop  offset="1" style="stop-color:#465053"/>
			</radialGradient>
			<circle class="st5" cx="242.8" cy="109.4" r="10.2"/>
			<line class="st6" x1="235.9" y1="101.8" x2="249.3" y2="117.3"/>
			<line class="st6" x1="235.8" y1="116.5" x2="249.8" y2="102.5"/>
			<circle class="st7" cx="242.6" cy="109.2" r="10.2"/>
		</g>
	</g>
</g>
</svg>
