<?xml version="1.0" encoding="utf-8"?>
<!-- Generator: Adobe Illustrator 19.2.1, SVG Export Plug-In . SVG Version: 6.00 Build 0)  -->
<svg version="1.1" id="ELD:_Neopixel_Ring" xmlns="http://www.w3.org/2000/svg" xmlns:xlink="http://www.w3.org/1999/xlink" x="0px"
	 y="0px" viewBox="0 0 114.5 154.1" style="enable-background:new 0 0 114.5 154.1;" xml:space="preserve">
<style type="text/css">
	.st0{fill:#0630FF;}
	.st1{fill:none;stroke:#A67C52;stroke-miterlimit:10;}
	.st2{fill:#C69C6D;stroke:#A67C52;stroke-miterlimit:10;}
	.st3{display:none;fill:#0076B6;}
	.st4{fill:#ED7911;}
	.st5{fill:none;stroke:#FFFF00;stroke-linecap:round;stroke-miterlimit:10;}
	.st6{fill:#FFFF00;}
	.st7{fill:#E6E7E8;stroke:#231F20;stroke-linecap:round;stroke-miterlimit:10;}
	.st8{display:none;}
	.st9{display:inline;opacity:0.69;fill:#42CBEA;enable-background:new    ;}
	.st10{display:inline;}
</style>
<g id="DEVICE:_x7B__x27_id_x27_:_0_x7D_">
	<g id="CONTROL">
		<circle id="MC:__x7B__x22_type_x22_:_x22_ATTiny85_x22__x7D_" class="st0" cx="68.2" cy="136.9" r="1.8"/>
		<g id="NP:_extra">
			<g>
				<line class="st1" x1="53.1" y1="42.6" x2="53.1" y2="0.5"/>
				<rect x="51.6" y="0.5" class="st2" width="3" height="42.1"/>
			</g>
			<g>
				<line class="st1" x1="56.1" y1="42.6" x2="56.1" y2="0.5"/>
				<rect x="54.6" y="0.5" class="st2" width="3" height="42.1"/>
			</g>
			<g>
				<line class="st1" x1="59.1" y1="42.6" x2="59.1" y2="0.5"/>
				<rect x="57.6" y="0.5" class="st2" width="3" height="42.1"/>
			</g>
			<g>
				<line class="st1" x1="62.1" y1="42.6" x2="62.1" y2="0.5"/>
				<rect x="60.6" y="0.5" class="st2" width="3" height="42.1"/>
			</g>
		</g>
		<path id="BASE:_Base" class="st3" d="M50.8,162.5c-1.1,0-2.4-0.2-4.1-0.6c-2.9-0.8-5-2.8-5.8-5.5c-5.3-1.5-11.3-3.7-16.7-7.8
			c-1.1-0.8-2.3-1.6-3.5-2.4c-0.7,0.3-1.5,0.4-2.4,0.4c-0.4,0-0.8,0-1.3-0.1c-3.9-0.7-7-3.5-8.2-7.3c-0.5-1.6-0.4-3.4,0.4-5.1
			c-3.7-5.2-6.4-10.3-8.1-15.5c-1.9-0.6-3.4-1.7-4.6-3.2c-1.7-2.4-2.1-5.6-1-8.8c0.5-1.4,1.4-2.6,2.7-3.6c0-0.2,0-0.4,0-0.5
			c0-3.1-0.1-6.3,0.3-9.6c0.3-2.8,1-5.3,1.7-7.8c-1.8-1.9-2.2-3.9-2-5.4c0.1-2.4,1.1-4.4,2.1-6.3c0.5-0.9,2.2-3.1,5.8-3.1h0.1
			l0.3-0.4c1.9-2.8,3.8-5.7,6-8.5c1.1-1.4,2.4-2.7,3.6-3.8c-0.2-0.6-0.3-1.3-0.2-2.1c0.4-4.2,3.5-6.1,4.9-6.9l0.3-0.2
			c1.5-0.9,3-1.4,4.5-1.4c0.2,0,0.4,0,0.6,0c0.1-2.8,1.2-5.5,3.3-7.6c0.9-0.9,2-1.8,3.3-2.4c0.2-0.8,0.6-1.4,0.9-1.8
			c0.8-1.2,2.4-2.6,5.3-2.7c0.5-0.4,1.1-0.6,1.7-0.8l1.6-3.8l4.7,2.4c0.5-0.1,1-0.2,1.5-0.2h0.2h0.2c1.2,0.1,2.5,0.2,3.7,0.3l1,0.1
			c0.7-0.2,1.3-0.3,1.8-0.3c2.5,0,4.1,1.4,4.8,1.9l0.1,0.1c1.1,0.9,2.3,2.1,3.4,3.6c1-0.3,2-0.5,3.1-0.5c1,0,2,0.1,2.9,0.4
			c0.6-0.2,1.3-0.3,2.1-0.3c1.7,0,3.3,0.5,4.7,1.6c0.1,0,0.2,0,0.4,0c2.4,0,4.6,1.2,6.4,3.5c0.1,0.2,0.3,0.3,0.3,0.3
			c2.2,1.3,3.6,3.5,3.9,5.8c0,0.5,0,1,0,1.5c0.3,0,0.6,0,0.9,0c3.9,0,7.6,1.5,10.5,4.4c1.6,1.6,2.7,4.1,2.1,6.5
			c1.7,0.8,3.4,1.7,5,3.1c5.6,4.7,9.2,10.8,10.7,18.2c0.1,0.5,0.2,0.7,0.2,0.7c2.2,3.9,2.2,7.2-0.1,11v0.1c-0.2,2.4-0.3,4.8-0.4,7.3
			c2.4,3.7,2.4,7.7,0,11.5c-0.8,1.3-1.8,2.2-2.6,2.8c-0.2,0.2-0.4,0.4-0.5,0.5l-0.1,0.1c-0.3,1.9-0.8,4-1.5,6.2
			c2,2.7,2.1,6.1,0.2,9.5c-1.4,2.5-3.9,4-6.6,4c-0.2,0-0.5,0-0.7,0c-1.1,1.5-2.2,3-3.4,4.5c-3.1,3.8-6.7,6.7-9.9,8.8
			c0.3,2.9-1,5.6-3.7,7.2c-1.4,0.9-3.2,1.8-5.5,1.8c-1.2,0-2.7-0.3-4.3-1.4c-5.2,2-10.6,2.9-15,3.6c-1.2,0.2-2.6,0.3-4.1,0.3
			c-0.5,0-1,0-1.5,0C56.2,160.8,54.2,162.5,50.8,162.5z M57.3,118.8c1,0,2.4,0.2,3.9,1c1.5-2.3,4-3.7,6.8-3.7c1.2,0,2.4,0.3,3.5,0.8
			c0.2-0.4,0.3-1,0.4-1.8c0.1-1.6,0.6-3.3,1.4-4.8c0.6-1.1,1.3-2,2.2-2.7c-0.1-0.7-0.1-1.4,0-2.2c0.6-3.3,3.3-4.5,5.5-5.5
			c0.1-0.1,0.2-0.1,0.4-0.2c1.6-0.7,2.9-1,4.2-1c0.6,0,1.2,0.1,1.7,0.2c0.3-1.3,0.8-2.4,1.5-3.3c0-0.2,0-0.4,0-0.6
			c-0.1-0.1-0.2-0.1-0.4-0.2c-0.8,0.3-1.6,0.5-2.4,0.6c-0.5,0.1-0.9,0.1-1.4,0.1c-3.8,0-7.1-1.8-9.3-5c-0.2-0.3-0.5-0.7-0.7-1
			c-0.4,0-0.8,0.1-1.2,0.1c-2.5,0-4.6-1-6.1-2.6c-2.8-0.2-4.4-1.7-5.1-2.6c-0.2-0.3-0.4-0.6-0.6-1c-0.2,0.2-0.5,0.3-0.8,0.5
			l-7.5,3.9l-0.4-4.1l-8.7,5l1.5-6.4L43,83.4c-0.3,0.5-0.7,1.1-1.1,1.6c-0.4,0.6-1,1.1-1.6,1.5c0.1,1.4-0.1,3.1-1.1,5.1
			c-0.3,0.6-0.6,1.1-0.8,1.5c-0.1,0.1-0.1,0.2-0.2,0.3c-0.6,1.1-1.3,2-2.2,2.8c0,0.5,0,1-0.1,1.6c-0.2,1.1-0.5,2.1-1.1,3
			c2.7,2.9,2.6,6.1,1.7,8.7c0.1,0.6,0.1,1.2,0,1.9c0.3,0.1,0.5,0.2,0.7,0.4l11.8,3.7l4.3-0.6l1.8,4.4
			C56,118.9,56.8,118.8,57.3,118.8z M60.3,74.5c0.1-0.1,0.1-0.2,0.2-0.3L60.3,74.5L60.3,74.5z"/>
		<g id="NP:_CircuitBoard">
			<path class="st4" d="M56.9,149c-29.3,0-53.2-23.9-53.2-53.2S27.6,42.6,57,42.6c29.3,0,53.1,23.9,53.1,53.2
				C110.2,125.2,86.2,149,56.9,149z M57.1,63.8c-17.7,0-32,14.4-32,32c0,17.7,14.4,32,32,32s32-14.4,32-32S74.8,63.8,57.1,63.8z"/>
			<path d="M57.1,43.6c28.8,0,52.1,23.4,52.1,52.2S85.8,148,56.9,148S4.8,124.7,4.8,95.8S28.2,43.6,57.1,43.6 M57.1,128.9
				c18.2,0,33-14.8,33-33s-14.8-33-33-33s-33,14.8-33,33S38.8,128.9,57.1,128.9 M57.1,41.6C27.2,41.6,2.8,66,2.8,95.8
				S27,150,56.9,150s54.2-24.3,54.2-54.2S86.8,41.6,57.1,41.6L57.1,41.6z M57.1,126.9c-17.1,0-31-13.9-31-31s13.9-31,31-31
				s31,13.9,31,31S74.2,126.9,57.1,126.9L57.1,126.9z"/>
		</g>
		<path id="CP:_CircuitPath" class="st5" d="M45.3,136.8c-3.9-1.1-7.3-2.7-14.3-9.4c-1.5-1.4-8-7.8-11.8-18.7
			c-1.5-4.4-4.1-11.9-2.6-21.5c1.9-11.2,8.4-18.4,10.6-20.6c14-14.5,33.4-12.4,35.1-12.1c1.6,0.2,24.3,3.6,33.2,24.4
			c5,11.8,2.8,22.5,2.2,25.5c-4.5,20.3-23.1,32.9-40.3,32.9"/>
		<circle id="BI:_Breakin" class="st6" cx="46" cy="136.9" r="1.8"/>
		<rect id="NLED:_x7B__x22_colorID_x22_:_x22__x23_FFFF00_x22__x7D_" x="49.8" y="47.2" class="st7" width="14.2" height="14.2"/>
		
			<rect id="NLED:_x7B__x22_colorID_x22_:_x22__x23_FFFF00_x22__x7D__1_" x="70.4" y="52.6" transform="matrix(0.495 -0.8689 0.8689 0.495 -12.7627 97.4548)" class="st7" width="14.2" height="14.2"/>
		
			<rect id="NLED:_x7B__x22_colorID_x22_:_x22__x23_FFFF00_x22__x7D__2_" x="85.8" y="67.5" transform="matrix(0.8602 -0.51 0.51 0.8602 -25.0501 57.8318)" class="st7" width="14.2" height="14.2"/>
		
			<rect id="NLED:_x7B__x22_colorID_x22_:_x22__x23_FFFF00_x22__x7D__3_" x="91.2" y="88.3" transform="matrix(0.9998 -1.736546e-02 1.736546e-02 0.9998 -1.6417 1.7222)" class="st7" width="14.2" height="14.2"/>
		
			<rect id="NLED:_x7B__x22_colorID_x22_:_x22__x23_FFFF00_x22__x7D__4_" x="85.9" y="109" transform="matrix(0.4798 -0.8774 0.8774 0.4798 -53.5137 142.0005)" class="st7" width="14.2" height="14.2"/>
		
			<rect id="NLED:_x7B__x22_colorID_x22_:_x22__x23_FFFF00_x22__x7D__5_" x="70.8" y="123.8" transform="matrix(0.8512 -0.5248 0.5248 0.8512 -57.1003 60.3734)" class="st7" width="14.2" height="14.2"/>
		
			<rect id="NLED:_x7B__x22_colorID_x22_:_x22__x23_FFFF00_x22__x7D__6_" x="50.1" y="130.1" transform="matrix(0.9994 -3.472024e-02 3.472024e-02 0.9994 -4.7292 2.067)" class="st7" width="14.2" height="14.2"/>
		
			<rect id="NLED:_x7B__x22_colorID_x22_:_x22__x23_FFFF00_x22__x7D__7_" x="29.4" y="124.9" transform="matrix(0.4645 -0.8856 0.8856 0.4645 -97.3888 103.0214)" class="st7" width="14.2" height="14.2"/>
		
			<rect id="NLED:_x7B__x22_colorID_x22_:_x22__x23_FFFF00_x22__x7D__8_" x="14.3" y="109.5" transform="matrix(0.842 -0.5395 0.5395 0.842 -59.5179 29.9929)" class="st7" width="14.2" height="14.2"/>
		
			<rect id="NLED:_x7B__x22_colorID_x22_:_x22__x23_FFFF00_x22__x7D__9_" x="8.3" y="89" transform="matrix(0.9986 -5.207449e-02 5.207449e-02 0.9986 -4.9832 0.9349)" class="st7" width="14.2" height="14.2"/>
		
			<rect id="NLED:_x7B__x22_colorID_x22_:_x22__x23_FFFF00_x22__x7D__10_" x="13.7" y="68.7" transform="matrix(0.4491 -0.8935 0.8935 0.4491 -56.2837 60.4018)" class="st7" width="14.2" height="14.2"/>
		
			<rect id="NLED:_x7B__x22_colorID_x22_:_x22__x23_FFFF00_x22__x7D__11_" x="28.6" y="53.3" transform="matrix(0.8325 -0.5541 0.5541 0.8325 -27.4822 29.9239)" class="st7" width="14.2" height="14.2"/>
	</g>
	<g id="DIFFUSER" class="st8">
		<path id="DIF:_Diffuser" class="st9" d="M112.2,100.4c0.1-2.9,0.3-5.9,0.4-8.7v-0.1c0-0.4,0.1-1.1,0.2-1.3c1.9-2.7,2-4.5,0.4-7.3
			c-0.3-0.5-0.5-1.1-0.7-1.9c-1.3-6.4-4.4-11.7-9.2-15.8c-1.6-1.4-3.6-2.3-5.5-3.1c-0.9-0.4-1.7-0.8-2.5-1.2
			c-0.4-0.2-0.9-0.5-1.4-0.7c0.1,0,0.3,0,0.4-0.1c1.2-0.2,2.1-1.3,2.3-1.6c0.8-1.1-0.3-2.6-0.7-3c-2.1-2.1-4.7-3.2-7.5-3.2
			c-0.8,0-5.1-4.3-5.1-5.3c-0.1-1-0.8-2-1.8-2.6c-0.5-0.3-1-0.8-1.5-1.3c-0.7-0.9-1.6-1.8-3-1.8c-0.5,0-1.1,0.2-1.7,0.5
			c0,0,0-0.1-0.1-0.1c-0.6-0.8-1.6-1.9-3.3-1.9c-0.6,0-1.3,0.2-2.2,0.5h-0.1c-0.9-0.4-1.8-0.7-2.8-0.7c-1.8,0-3.6,0.8-4.7,2.3
			c-0.1,0.1-0.1,0.1-0.2,0.2c-0.1-0.1-0.2-0.1-0.2-0.2c-0.5-3.1-2.4-5.1-4.1-6.4l0.1-0.2c-0.5-0.4-1.2-1-2.1-1
			c-0.4,0-0.9,0.1-1.3,0.4c0,0,0,0-0.1,0c-0.2,0-0.4-0.1-0.6-0.1l-1.2-0.1c-1.2-0.1-2.4-0.2-3.6-0.3h-0.1c-0.6,0-1.1,0.3-1.5,0.7
			c-0.3-0.2-0.5-0.3-0.9-0.4L46,34.3l-1.3-0.7l-0.9,2.1c-0.4-0.1-0.7-0.1-1.1-0.1c-0.9,0-1.4,0.4-1.6,0.7c-0.2,0.2-0.2,0.3-0.7,0.3
			h-0.7c-0.5,0-1.7,0-2.3,1c-0.4,0.6-0.5,1.3-0.2,2.3c-0.1,0-0.2,0.1-0.5,0.2c-1.5,0.4-3,1.3-3.9,2.3c-2.3,2.4-2.8,5.4-1.3,8.9
			c0.1,0.1,0.1,0.2,0.1,0.3c0,0-0.1,0-0.1,0.1c-0.5,0.2-0.9,0.5-1.4,0.8S29.1,53,28.8,53c-0.1,0-0.3,0-0.8-0.5
			c-0.6-0.8-1.4-1.2-2.4-1.2c-0.7,0-1.5,0.2-2.3,0.7l-0.4,0.2c-1.1,0.7-2.6,1.6-2.8,3.6c-0.1,0.7,0.3,1.3,0.5,1.6
			c0,0.1,0.1,0.1,0.1,0.2c0.2,0.3,0.4,0.6,0.6,0.9c-0.4,0.4-0.8,0.8-1.2,1.1c-1.6,1.4-3,2.8-4.3,4.4c-2.1,2.6-4,5.5-5.8,8.2L8.8,74
			c-0.5,0.8-0.7,0.8-0.9,0.8c-0.1,0-0.3,0-0.4-0.1c-0.4-0.1-0.9-0.2-1.4-0.2c-1,0-1.8,0.3-2.1,1c-0.8,1.4-1.6,2.9-1.8,4.7
			c-0.1,1.1,0.8,2.2,2.6,3.4l0,0c-0.2,0.6-0.4,1.3-0.5,1.9c-0.7,2.6-1.5,5.2-1.8,7.9c-0.3,3-0.3,6.1-0.3,9.1c0,0.9,0,1.8,0,2.6
			c0,0.3,0,0.4,0,0.4l0,0c0,0-0.1,0.1-0.3,0.2c-1,0.4-2.2,1.1-2.6,2.3c-0.6,1.9-0.5,3.6,0.5,4.9c0.9,1.2,2.4,1.9,4.2,1.9
			c0.1,0,0.1,0,0.2,0c1.7,6.2,4.7,12.1,9.3,18.2c0.7,0.9,0.7,0.9-0.1,2c-0.3,0.5-1.1,1.7-0.7,2.9c0.7,2.3,2.6,3.9,4.9,4.4
			c0.2,0,0.3,0,0.5,0c0.9,0,1.8-0.5,2.5-1c0.1,0,0.1-0.1,0.2-0.1c0.5,0.3,0.9,0.6,1.4,0.9c1.5,1,3,2,4.4,3
			c5.5,4.1,11.6,6.1,16.9,7.6c1,0.3,1.1,0.5,1.2,1.4c0.1,1.8,1.1,3.1,3,3.6c1.4,0.4,2.3,0.5,3.1,0.5c2.9,0,3.3-2.4,3.5-4.1
			c0.5,0,1,0,1.5,0.1c1,0,2,0.1,3,0.1c1.3,0,2.4-0.1,3.4-0.2c4.7-0.8,10.6-1.8,15.9-4.1c0.3-0.1,0.5-0.2,0.6-0.2s0.3,0,0.7,0.5
			c0.9,1,1.8,1.5,2.9,1.5c0.9,0,1.9-0.4,3.2-1.2c1.8-1.1,2.2-2.9,1.2-4.9c-0.2-0.3-0.2-0.5-0.2-0.5s0.1-0.2,0.6-0.5
			c3.3-2.1,7.6-5.1,10.9-9.2c1.2-1.5,2.4-3.1,3.5-4.6l0.8-1.1c0.6-0.8,0.9-0.8,1-0.8c0.2,0,0.4,0.1,0.6,0.2c0.5,0.2,1,0.3,1.4,0.3
			c1.2,0,2.2-0.7,2.9-1.8c1-1.7,1.5-4.2-1.5-6.3c1.6-3.1,2.2-6.3,2.5-9c0.1-0.2,0.5-0.6,0.7-0.8l0.3-0.3c0.2-0.3,0.6-0.5,0.9-0.8
			c0.6-0.5,1.3-1.1,1.7-1.8c1.6-2.6,1.4-5.2-0.6-7.8C112.3,100.6,112.3,100.5,112.2,100.4z M87.4,98.5c-0.5-0.1-1.1-0.2-1.7-0.2
			c-1.3,0-2.7,0.3-4.2,1c-0.1,0.1-0.2,0.1-0.4,0.2c-2.2,1-4.8,2.2-5.5,5.5c-0.2,0.8-0.2,1.5,0,2.2c-0.9,0.7-1.6,1.6-2.2,2.7
			c-0.8,1.6-1.3,3.2-1.4,4.8c-0.1,0.8-0.2,1.4-0.4,1.8c-1.1-0.5-2.3-0.8-3.5-0.8c-2.8,0-5.3,1.4-6.8,3.7c-1.5-0.8-2.9-1-3.9-1
			c-0.6,0-1.3,0.1-2,0.3l-1.8-4.4l-4.3,0.6l-2.1,0.3c-0.1-0.3-0.3-0.7-0.4-1l-9.3-2.9c-0.2-0.1-0.5-0.3-0.7-0.4
			c0.1-0.7,0.1-1.3,0-1.9c0.9-2.7,1-5.8-1.7-8.7c0.5-0.9,0.9-1.9,1.1-3c0.1-0.5,0.1-1.1,0.1-1.6c0.9-0.7,1.6-1.7,2.2-2.8
			c0.1-0.1,0.1-0.2,0.2-0.3c0.2-0.4,0.5-0.9,0.8-1.5c0.9-2,1.2-3.7,1.1-5.1c0.6-0.4,1.1-0.9,1.6-1.5c0.4-0.5,0.8-1.1,1.1-1.6
			l2.7-1.1L44.6,88l8.7-5l0.4,4.1l7.5-3.9c0.3-0.1,0.5-0.3,0.8-0.5c0.2,0.4,0.4,0.8,0.6,1c0.7,0.9,2.3,2.4,5.1,2.6
			c1.5,1.6,3.6,2.6,6.1,2.6c0.4,0,0.8,0,1.2-0.1c0.2,0.3,0.4,0.7,0.7,1c2.2,3.2,5.5,5,9.3,5c0.5,0,0.9,0,1.4-0.1
			c0.8-0.1,1.6-0.3,2.4-0.6c0.1,0.1,0.2,0.1,0.4,0.2c0,0.2,0,0.4,0,0.6C88.2,96.1,87.7,97.2,87.4,98.5z"/>
		<path id="DDS:_Serpent" class="st10" d="M5.2,113.2c-0.2,0-0.3-0.1-0.5-0.1c-3.2,0.3-5-1.8-3.9-5c0.2-0.6,1.1-1.2,1.8-1.5
			c0.9-0.4,1.2-0.9,1.2-1.9c0-3.9-0.2-7.7,0.3-11.6c0.4-3.3,1.4-6.4,2.3-9.6c0.2-0.8,0.1-1.1-0.6-1.6c-0.8-0.5-2-1.4-2-2
			c0.1-1.4,0.9-2.8,1.6-4.1c0.2-0.3,1.3-0.3,1.9-0.1c1.4,0.4,2.2-0.1,2.9-1.3c2.2-3.4,4.4-6.8,6.9-9.9c1.8-2.2,4-4.1,6.2-6.2
			c-0.3-0.5-0.7-1.2-1.2-1.9c-0.1-0.1-0.4-0.4-0.4-0.7c0.1-1.5,1.4-2.1,2.5-2.8c0.9-0.6,2-0.8,2.8,0.1c1.2,1.5,2.5,1.2,3.8,0.3
			c0.4-0.3,0.8-0.5,1.2-0.7c1-0.5,1.1-1.2,0.7-2.2c-1.1-2.6-1.1-5.2,1-7.3c0.9-0.9,2.1-1.5,3.3-1.9c1.1-0.3,1.8-0.8,1.4-1.9
			c-0.4-1.3,0.4-1.5,1.2-1.5c1,0,1.8,0.2,2.6-0.9c0.2-0.3,1.5,0,2.4,0.1c0.2-0.4,0.4-1,0.7-1.7c0.5,0.3,1,0.4,1.4,0.7
			c0.6,0.4,1.1,0.7,1.5-0.2c0.1-0.2,0.4-0.4,0.6-0.4c1.6,0.1,3.2,0.3,4.8,0.4c0.4,0,1,0.3,1.2,0.1c0.9-0.7,1.5-0.1,2.2,0.4
			c1.8,1.5,3.2,3.2,3.6,5.6c0.1,0.6,1,1.2,1.6,1.7c0.1,0.1,0.9-0.7,1.2-1.1c1.4-1.7,3.8-2.2,5.7-1.2c0.3,0.2,0.9,0.2,1.2,0.1
			c1.7-0.8,2.7-0.6,3.9,0.9c0.5,0.7,1,1,1.8,0.5c1.3-0.8,2.1-0.1,2.9,1c0.5,0.7,1.1,1.3,1.8,1.7c1.3,0.8,1.6,2.1,0.4,3.1
			c-0.6,0.6-1.4,1.1-2.2,1.5c-0.8,0.4-1.1,0.9-0.5,1.7c0.8,0.9,0.7,2,0.2,3c-1,2-1.8,4-3,5.9c-0.4,0.7-1.5,0.9-2.6,1.5
			c1.6,0.7,3.3,1.4,4.9,2c0.3,0.1,0.8-0.2,1-0.4c2.3-2.3,3.4-2.3,5.8,0.4c-0.1-0.7-0.1-1-0.2-1.3c-0.4-0.6-0.9-1-1.3-1.6
			c-2.6-3.5-0.6-6.7,2.8-7.5c3.2-0.7,6.3,0.1,8.8,2.5c0.3,0.3,0.7,1,0.5,1.2c-0.3,0.5-0.9,1-1.4,1.1c-0.7,0.1-1.5-0.1-2.3-0.1
			c-0.4,0-0.9,0.3-1.1,0.6c-0.1,0.2,0.1,0.8,0.4,1c1.1,0.7,2.3,1.3,3.5,2c2.6,1.4,5.6,2.3,7.8,4.2c4.6,3.9,7.5,9,8.8,15
			c0.2,0.8,0.4,1.6,0.8,2.3c1.3,2.3,1.2,3.5-0.3,5.8c-0.4,0.5-0.4,1.4-0.5,2.1c-0.2,2.9-0.3,5.8-0.4,8.8c0,0.4,0.2,0.9,0.4,1.2
			c1.6,2,1.9,4,0.5,6.1c-0.6,0.9-1.7,1.6-2.4,2.4c-0.5,0.6-1.2,1.2-1.3,1.9c-0.4,3.2-1.1,6.2-2.6,9c-0.1,0.3,0.2,1.1,0.6,1.3
			c1.9,1.2,2.3,2.6,1.2,4.5c-0.5,0.9-1.4,1.4-2.5,0.9c-1.5-0.7-2.5-0.1-3.4,1c-1.4,1.9-2.9,3.8-4.4,5.7c-2.9,3.6-6.6,6.4-10.6,8.9
			c-1.2,0.8-1.6,1.5-1,2.8c0.6,1.2,0.6,2.2-0.7,3c-2,1.3-3.1,1.4-4.3,0c-0.9-1-1.8-1.2-3-0.7c-5,2.2-10.3,3.1-15.5,4
			c-2.6,0.4-5.2,0.1-7.8,0.1c-0.8,0-1.2,0.2-1.3,1c-0.4,3.1-0.8,3.7-4.9,2.6c-1.2-0.3-1.8-1-1.9-2.3c-0.1-1.4-0.6-2.3-2.2-2.7
			c-5.8-1.6-11.5-3.7-16.5-7.3c-2.1-1.6-4.3-3-6.5-4.5c0.1,0,0,0-0.1,0c-1,0.5-2,1.4-2.9,1.3c-1.8-0.3-3.3-1.6-3.9-3.4
			c-0.1-0.5,0.2-1.2,0.5-1.6c1.1-1.6,1.1-2.2,0-3.7c-4.2-5.6-7.5-11.6-9.2-18.4C5.4,113.4,5.4,113.4,5.2,113.2z M32.2,85.5
			c2.6,1,3.3,2.7,2.2,5.1c-0.3,0.6-0.7,1.1-1,1.6c-0.6,1.3-1.6,1.7-3,1.5c-0.3-0.1-0.8,0.1-0.9,0.4c-0.2,0.3-0.2,0.9,0,1.2
			c0.1,0.3,0.5,0.6,0.8,0.9c0.8,1,0.5,3-0.5,3.7c-1.6,1-1.6,4-0.1,5c2.4,1.6,2.7,2.7,1.4,5.2c-0.1,0.2-0.2,0.5-0.1,0.7
			c0.7,1.3,0.1,2.2-0.6,3.1c0.5,1.1,0.9,2,1.4,3c0.1,0.2,0.4,0.6,0.6,0.6c2.4,0.1,4,1.6,5.6,3.2c1,1,1.9,0.8,2.6-0.4
			c0.4-0.6,0.7-1.3,1.1-2.2c0.8,2.2,2,4,1.3,6.2c-0.1,0.2,0.2,0.8,0.5,0.9c1.1,0.5,2.1,1,3.3,1.3s2.1-0.3,2.4-1.5
			c0.2-0.8,0.5-1.6,0.7-2.4c0.1,0,0.3,0,0.4-0.1c0.5,1.3,1.1,2.7,1.6,4c0.8,2,2,2.2,3.5,0.7c1.5-1.5,3-1.5,4.6-0.1
			c0.4,0.3,0.9,0.5,1.4,0.6c2.8,0.3,3.6-0.2,4.7-2.7c0.8-1.8,2.8-2.2,4.3-0.9c0.3,0.3,0.9,0.3,1.3,0.3c0.6,0,1.1,0,1.7-0.1
			c0.5-0.1,1.1-0.1,1.4-0.4c2.1-1.8,3-4.1,3.2-6.8c0.1-0.9,0.4-1.9,0.8-2.7c0.5-0.9,1.2-1.4,2.3-0.5c0.3,0.2,0.7,0.4,1,0.3
			c1.2-0.3,1.8-3.1,1-4c-2.2-2.3-2.2-2.3,0.9-3.6c0.1,0,0.2-0.1,0.3-0.1c2-0.9,3-0.6,4.3,1.2c0.1,0.2,0.3,0.3,0.5,0.6
			c1.7-1.3,3.1-0.9,4.3,0.6c1.7-1,1.8-1.2,0.9-2.9c-1.1-2.2-1.9-4.4,0.4-6.4c0.2-0.2,0.3-0.6,0.3-0.9c-0.1-1.6-0.1-3.2-0.3-4.8
			c-0.1-1.1-0.7-1.8-1.9-2c-2.3-0.4-3.2-2.9-2.1-4.9c0.2-0.3,0.4-0.7,0.3-1c-0.5-1.4-3.3-3.1-4.7-2.8c-1.2,0.2-2.1,1.2-1.8,2
			c0.4,1.4,1.5,1,2.4,0.8c1.4-0.4,2.3,0.2,2.4,1.7c0.1,1.8-1.4,3.6-3.3,3.8c-2.3,0.3-4.1-0.6-5.4-2.5c-1-1.4-1.6-2.9-2.5-4.6
			c-0.6,0.2-1.3,0.5-2,0.8c-2.6,1-4.4,0.1-4.6-2.3c-0.5,0-0.9,0.1-1.4,0.1s-1,0-1.5,0c-1.2,0-1.6-0.6-1.3-1.7c0.2-0.7,0.5-1.4,0.7-2
			c-0.2-0.1-0.3-0.3-0.4-0.3c-2.1-0.4-2.2-0.8-1.3-2.6c0.7-1.5,1.5-2.9,2.3-4.4c-3.9-0.9-5.8,0.3-6.7,4c-0.4,1.8-1.1,3.5-3,4.5
			c-0.1-1.6-0.1-3.1-1.5-3.8c-1.4,0.8-2.7,1.5-4.1,2.4c0.4-1.7,1.2-3.1,0.1-4.5c-0.8,0.6-1.5,1.1-2.3,1.5s-1.6,0.7-2.9,1.2
			c1.7-2.4,2.1-4.5,1.3-6.9c-0.2-0.5,0.2-1.1,0.2-1.7c0-0.3-0.1-0.9-0.3-1c-0.6-0.2-1.2-0.2-1.8-0.2c-0.1,0-0.3,0.6-0.2,1
			c0.2,2.2-0.2,3-2.2,3.9c-0.5,0.2-1,0.6-1.3,1c-0.9,1.4-1.7,2.8-2.5,4.3c-0.3,0.5-0.4,1.1-0.7,1.6c-0.8,1.4-1.5,2.8-2.4,4.1
			c-0.3,0.4-1.3,0.6-2,0.5C33.3,83.2,33.2,83.3,32.2,85.5z M42,66.1c-1.5-1.2-2.5-1.9-4.2-0.9c-4.2,2.5-7.7,5.7-10.9,9.2
			C21.6,80,19.1,87,18,94.5c-0.9,5.9-0.4,11.7,1.8,17.4c2.1,5.4,4.5,10.5,8.7,14.7c3,3,6.2,5.6,9.8,7.7c6.7,3.9,14.1,5.2,21.8,4.4
			c7.4-0.7,14.2-3.1,20.1-7.8c1.7-1.4,3.3-2.9,4.9-4.4c3.2-3,5.4-6.9,7.8-10.5c0.2-0.3,0.2-0.6,0.3-1c0.2-0.8,0.3-1.7,0.6-2.5
			c0.4-1.2,0.9-2.4,1.5-3.9c-0.5,0.3-0.8,0.3-1,0.5c-1.5,1.9-3.2,3.8-4.3,5.9c-2.6,5-6,9.5-10.5,13c-6.7,5.2-14.4,7.7-23,7.7
			c-7.2,0-13.8-2.2-19.8-6.2c-4.8-3.2-8.7-7.4-11.6-12.5c-5.1-9-6.1-18.5-3-28.2c2.8-8.6,7.9-15.6,15.8-20.3
			C39.3,67.9,40.7,67,42,66.1z M67.9,70.6c0-0.2,0.1-0.4,0.1-0.6c-1.3-0.6-2.6-1.3-4.1-1.7c-4.9-1.4-9.2-4.1-13.6-6.5
			c-1.7-0.9-3.2-1.6-5.2-0.7c-0.8,0.4-2.2,0.2-3.1-0.3c-2.4-1.2-3.3-3.4-3.1-6c0.2-2.3,1.6-4.1,3.8-5c3.5-1.4,6.7,0,8,3.6
			c0.1,0.3,0.6,0.7,1,0.7c2.5,0.2,5.1,0.6,7.3-0.7c3.6-2,7.2-1.9,11-0.4c2,0.8,4.1,1.3,6.1,1.8c0.6,0.1,1.7-0.1,1.8-0.3
			c0.2-0.7,0.2-1.7-0.2-2.3c-0.4-0.7-1.2-1.3-2-1.6c-4-1.7-8.2-2.4-12.5-2.9c-2.4-0.3-4.6-0.2-6.7,1.1c-2.5,1.6-5,1.6-7.5,0
			c-1.9-1.3-4-1.5-6.3-0.9c-4.8,1.1-7.2,5.7-6.5,9.4c0.8,3.9,3.1,6.9,6.8,8.1c2.9,1,6,1.1,9,1.6c2.2,0.3,4.4,0.2,6.5,1.3
			c1.6,0.9,3.5,1.4,5.3,1.9C65.3,70.5,66.7,70.5,67.9,70.6z M72.2,83.9c0.2,0.2,0.4,0.3,0.6,0.5c1.2-0.6,2.4-1.2,3.6-1.9
			c2.3-1.3,4.5-2.9,7-3.9c4.2-1.7,7.5-0.6,10.3,3c0.8,1.1,1.5,2.2,2.3,3.4c0.5,0.7,1.1,1.1,1.8,0.5c0.7-0.6,2.4-0.8,1.3-2.3
			c-1.3-1.9-2.7-4-4.3-5.6c-2.8-2.8-6.2-4-10.2-3.1c-4.5,1-8.2,3.5-11.2,7C72.8,82.1,72.6,83,72.2,83.9z M92.4,56.6
			c-1.6-1.3-3.1-1.6-4.6-1.5c-1.4,0.1-2.5,0.7-3.2,1.9c-0.6,1.2-0.3,2.3,0.4,3.3c1.3,2.2,3.4,3.2,5.6,3.9
			c5.8,1.9,10.8,5.1,14.3,10.2c1.5,2.1,2.4,4.7,3.6,7c0.2,0.4,0.5,0.7,0.8,1.1c0.2-0.4,0.5-0.8,0.7-1.3c0.1-0.3,0-0.7-0.1-1
			c-0.4-1.2-0.7-2.4-1.3-3.5c-1.6-3.4-3.7-6.6-6.5-9c-2.4-2-5.1-3.4-8.1-4.3c-1.5-0.5-3-1.4-4.2-2.4c-0.5-0.4-0.8-1.8-0.6-2.5
			c0.2-0.6,1.2-1.1,1.9-1.5C91.2,56.8,91.7,56.8,92.4,56.6z M107.4,83.8c-0.5-1.7-0.8-3.3-1.5-4.8c-1.6-3.4-3.8-6.3-6.9-8.6
			c-3.8-2.9-7.9-4.9-12.7-5.1c-0.5,0-1.1,0.1-1.5,0.4c-0.9,0.6-1.7,1.4-2.8,2.4c0.6,0.2,1.1,0.5,1.6,0.4c3.2-0.4,6.1,0.4,8.9,1.8
			c5.3,2.6,9.5,6.4,11.7,12.1C104.8,83.6,105.7,84.1,107.4,83.8z M43.5,66.7c-1.9,1-3.6,1.7-5.2,2.6C34,71.7,30.7,75,28,79
			c-1.8,2.8-3.1,5.8-4.5,8.8c-0.2,0.4,0.1,1.5,0.5,1.6c0.8,0.4,1.5,0,1.8-1c0.9-3.1,2.6-5.8,4.6-8.2c3.5-4.3,6.9-8.9,13.2-9.4
			c1.2-0.1,2.3-1.6,1.9-2.6C45.2,67.7,44.2,67.3,43.5,66.7z M110.3,102.5c-0.1,0.1-0.3,0.3-0.4,0.4c0.1,0.2,0.1,0.4,0.2,0.5
			c0.3,1,0.4,2-0.7,2.3c-1.2,0.4-1.3-0.9-1.6-1.6c-0.1-0.2-0.1-0.4-0.1-0.6c-0.3-1.1-0.4-2.3-0.8-3.4c-0.9-2.3-3.4-2.8-5-1
			c-0.8,0.9-1.3,1.9-2.1,2.8c-0.6,0.6-1.3,1.5-2,1.6c-1.2,0.1-1.1-1.2-1.4-2c0-0.1-0.1-0.1-0.4-0.3c-0.3,0.3-0.9,0.7-0.8,0.9
			c0.3,1.3,0.6,2.6,1.1,3.8c0.1,0.3,1.2,0.5,1.6,0.3c0.8-0.3,1.6-0.9,2.3-1.5c2.2-1.7,4.5-1.3,5.9,1.1c0.4,0.8,0.7,1.6,1.3,2.3
			c0.3,0.4,1.1,0.6,1.5,0.5c1.9-0.5,3.3-3,2.7-4.8C111.3,103.3,110.8,102.9,110.3,102.5z M51.5,150.2c0.1-1.2-0.4-1.8-1.6-2
			c-2.3-0.4-4.6-0.9-6.8-1.6c-3.5-1.2-6.9-2.7-10.3-4c-0.6-0.2-1.5,0.2-2.2,0.3c0.4,0.5,0.6,1.3,1.1,1.6c4,2.5,8.5,4.2,13.1,5.3
			c2.1,0.5,3.4,1.3,3.5,3.7c0,0.4,1,1,1.7,1.2c0.2,0.1,1-0.7,1.1-1.1C51.2,152.4,51.2,151.3,51.5,150.2z M63.6,150.5
			c4.8-0.3,9-1.4,13-3.2c2-0.9,3.6-1.1,5.3,0.5c0.3,0.3,1.2,0.2,1.7,0c0.2-0.1,0.3-1,0.2-1.4c-0.3-0.8-0.7-1.5-1.2-2.2
			c-1.1-1.9-1.3-1.9-3.2-1c-3.9,1.8-7.8,3.5-12.1,4.3c-1.1,0.2-2.3,0.4-3.4,0.9c-0.5,0.2-0.7,1.1-0.9,1.7
			C62.9,150.1,63.4,150.5,63.6,150.5z M43,46.8c1.5,0.1,2.8,0.3,4,0.3c0.8,0,1.7-0.1,2.4-0.5c2.7-1.6,5.6-2.2,8.4-0.6
			c1.7,1,3.3,0.6,5,0.8c0.1-1.6-1.2-3.4-2.9-3.7c-1.8-0.3-3.6-0.4-5.4-0.3c-2.9,0.2-5.9,0.7-8.8,1.2C44.3,44.3,43.5,45.3,43,46.8z
			 M68.7,81.2c2.5-0.6,4.7-1.3,6.6-2.9c1.7-1.4,3.5-2.7,5.4-3.7c3.6-1.9,7.5-2.2,11.1-0.1c3.5,2,6.4,4.8,8.2,8.5
			c0.2,0.5,0.6,0.9,0.9,1.3c0.1-0.1,0.3-0.1,0.4-0.2c-0.1-0.5-0.1-1.1-0.3-1.6c-1.7-3.4-4.2-6.3-7.4-8.3c-5.2-3.2-10.3-2.4-15.2,0.6
			c-2,1.2-3.7,2.9-5.5,4.3c-0.7,0.6-1.4,0.8-2.3,0.1c0.3-0.4,0.6-0.8,0.9-1.1c2.5-1.9,5-3.8,7.7-5.9c-0.9,0-2.1-0.4-2.6,0.1
			c-2.2,1.7-4.2,3.6-6.2,5.6C69.3,78.6,68.6,79.7,68.7,81.2z M92.1,137.1c0.3-0.2,0.7-0.5,1-0.8c2.4-2.9,5.1-5.7,7.2-8.8
			c1.1-1.6,2.1-2.2,3.9-1.8c0.4,0.1,1.4-0.4,1.5-0.7c0.1-0.5-0.3-1.3-0.7-1.7c-0.7-0.6-1.6-0.8-2.5-1.2c-1-0.5-1.8-0.3-2.4,0.8
			c-1,1.8-2.1,3.5-3.3,5.2c-1.5,2-3.2,3.9-4.8,5.9C90.8,135.4,90.8,136,92.1,137.1z M21.5,133.9c-0.1-0.2-0.3-0.7-0.6-1.1
			c-1.6-2.1-3.2-4.1-4.8-6.3c-0.9-1.3-1.6-2.7-2.6-3.9c-0.4-0.5-1.3-0.5-2-0.8c0,0.6-0.1,1.4,0.2,1.9c1.7,2.8,3.4,5.7,5.4,8.3
			c0.9,1.2,0.6,2.2,0.2,3.4c-0.1,0.3-0.5,0.6-0.5,0.9c0,0.4,0,1,0.2,1.3s0.8,0.6,1.2,0.6C19.2,138.2,21.5,135.5,21.5,133.9z
			 M66.1,47.6c0.1-0.9,0.1-1.2,0.2-1.5c0.4-0.7,0.7-1.6,1.3-1.8c1-0.4,1.8,0.3,2.3,1.2c0.3,0.5,0.5,0.9,0.8,1.4
			c1.2,1.7,1.6,1.7,3.2,0.4c1-0.8,2.3-1.3,3.5-2c0.4-0.2,0.7-0.5,1.1-0.8c-0.4-0.3-0.7-0.8-1.1-1c-0.3-0.1-0.8,0-1.1,0.1
			c-1.1,0.7-2,0.6-2.5-0.8c0-0.1-0.1-0.3-0.2-0.4c-0.7-0.2-1.3-0.4-2-0.6c0.1,0.5,0.2,1.1,0.3,1.6c0,0.2,0.1,0.4,0.1,0.5
			c-1.2,0.3-1.3,0.3-2.1-1c-1.5-2.4-4.3-2.4-5.8,0c-0.6,1-0.7,2.1-0.1,3C64.4,46.7,65.2,47,66.1,47.6z M7.4,77.7
			c-0.4,0.3-1.1,0.7-1.2,1.1c-0.1,0.4,0.4,1.1,0.9,1.4c0.7,0.5,1.7,0.8,2.4,1.3c1,0.6,1.6,0.1,2-0.7c0.6-1.1,1-2.3,1.7-3.4
			c1.6-2.7,3.3-5.2,5-7.9c0.4-0.6,0.8-1.1,0.9-1.8c0.1-0.5-0.2-1.1-0.3-1.7c-0.5,0.2-1.1,0.4-1.4,0.8c-2,3-4,5.9-5.9,9
			C10.6,77.3,9.9,78.6,7.4,77.7z M6.4,92.2c-0.2,0.6-0.6,1.2-0.6,1.9c-0.1,3-0.3,5.9-0.1,8.9c0.1,2.3,0.8,4.6-2.2,5.8
			c-0.3,0.1-0.4,1.1-0.3,1.6c0.1,0.3,0.7,0.7,1.1,0.6c1-0.1,1.9-0.3,2.9-0.5c1.2-0.2,1.5-0.9,1.3-2c-0.2-2.1-0.5-4.2-0.5-6.2
			c-0.1-2.6,0-5.3,0-7.9C7.9,93.3,7.8,92.4,6.4,92.2z M55.3,142.2c0.2,0.1,0.3,0.2,0.5,0.4c0.3-0.2,0.7-0.3,1-0.5
			c1.6-0.6,3.3,0,3.7,1.6c0.3,1.1,0.4,2.4,0.1,3.4c-0.2,0.8-1.3,1.6-2.1,1.8c-0.6,0.1-1.5-0.8-2-1.4c-0.3-0.3-0.2-1.1-0.3-1.6
			c-0.2,0-0.4-0.1-0.6,0c-0.7,0.2-1.6,3.2-1.4,4.4c0.2,1.1,1.1,0.6,1.8,0.7c0.5,0.1,1,0.3,1.6,0.4c2.3,0.4,3.3-0.1,3.4-2.1
			c0.1-1.3,0.7-2,1.8-2.5c0.5-0.2,1-1,1.1-1.5c0-0.4-0.7-1-1.2-1.2c-1.1-0.5-1.9-1.2-1.9-2.5c0-0.4-0.4-1-0.6-1c-1.3,0-2.7,0-4,0.3
			C55.8,140.8,55.7,141.7,55.3,142.2z M87.3,88.2c-0.1-0.1-0.2-0.3-0.4-0.4c-0.3,0-0.6,0-0.8,0c-1.4,0.2-3-0.7-3.6-2
			c-0.6-1.4-0.1-2.5,0.9-3.4c1.2-1.1,2.6-1.5,4.2-1.2c2.2,0.4,3.3,2.2,4.8,3.6c0.3,0.3,0.7,0.6,1.1,0.8c0.1-0.1,0.2-0.2,0.4-0.3
			c-0.7-1-1.3-2-2-3c-2.7-3.6-7.9-3.8-10.8-0.3c-1.3,1.6-1.3,3.6,0,5.7c1.1,1.7,3,2.5,4.9,1.8C86.6,89.2,86.9,88.6,87.3,88.2z
			 M26.8,105.8c-0.6-1.3-1.3-1.5-3-1c-1.3,0.4-1.6,1.1-1.3,2.3c0.5,2,1,4,1.7,5.9c0.6,1.6,1.4,3.2,2.3,4.7c0.6,0.9,2.1,0.9,3.2-0.1
			c0.3-0.3,0.2-1.3,0-1.9c-0.3-1-0.8-1.9-1.3-2.8c-0.8-1.6-0.9-2.9,0.7-4.1c0.3-0.2,0.4-0.8,0.3-1.1c-0.1-0.2-0.7-0.4-1.1-0.3
			c-1.9,0.3-2.6,1.4-1.9,3.2c0.7,1.7,1.5,3.3,2.3,4.8c0.7,1.3,0.7,1.4-0.8,1.8c-2.2-2.2-2.7-5.2-3.3-8
			C24,106.7,24.4,106.3,26.8,105.8z M35,141.8c-0.1,0.2-0.2,0.3-0.2,0.5c0.3,0.3,0.6,0.6,1,0.8c1.3,0.6,2.5,1.3,3.9,1.6
			c3.7,1,7.4,1.9,11.1,2.8c0.9,0.2,2,0,2.2-1.3c0.2-1.2-0.5-2-1.8-2.3c-3.5-0.9-6.9-1.9-10.4-2.9c-1.5-0.4-2.9-0.9-4.3-1.4
			c0,0.5,0.1,0.8,0.3,0.9c1.6,0.7,3.1,1.6,4.8,2.1c2.9,0.8,5.9,1.4,8.8,2.2c0.5,0.1,0.8,0.9,1.2,1.3c-0.5,0.2-1.1,0.6-1.6,0.5
			c-4.2-0.8-8.4-1.8-12.3-3.6C36.8,142.4,35.8,142.2,35,141.8z M106.7,112.8c0.2-0.1,0.5-0.1,0.7-0.2c0-1.1,0.2-2.2-0.1-3.1
			c-0.3-1-1.1-1.8-1.5-2.8c-0.9-1.9-2.9-2.6-4.7-1.4c-0.9,0.6-1.9,1.2-2.8,1.9c-0.5,0.4-0.8,1-1.2,1.5c0.5,0.4,1.1,0.9,1.7,1
			c0.3,0.1,0.8-0.3,1.2-0.5c0.5-0.3,0.9-0.8,1.4-0.9c1.4-0.2,3.3,1.3,3.9,2.5C105.7,111.5,106.2,112.1,106.7,112.8z M36.7,137.8
			c-0.1,0.1-0.2,0.1-0.3,0.2c0.3,0.3,0.5,0.8,0.8,0.9c4.7,2.1,9.6,3.5,14.7,4.2c0.4,0.1,1.1-0.2,1.3-0.5c0.8-1.2,0.1-2.8-1.3-3.1
			c-0.5-0.1-1-0.2-1.4-0.3c-3.8-0.5-7.3-1.8-10.8-3.4c-0.9-0.4-1.7-0.7-2.6-1.1c-0.1,0.2-0.2,0.3-0.3,0.5c0.4,0.4,0.8,0.9,1.3,1.1
			c2.7,1.1,5.5,2.2,8.3,3.2c1.5,0.5,3.1,0.6,4.5,1c0.5,0.2,0.9,0.8,1.4,1.2c-0.6,0.2-1.3,0.6-1.8,0.5c-2.6-0.6-5.2-1.3-7.7-2.1
			C40.8,139.4,38.7,138.6,36.7,137.8z M82.8,118.3c-0.1,0.1-0.3,0.2-0.4,0.3c0.1,0.4,0.3,0.8,0.4,1.3c0.1,0.4,0.1,1.1-0.1,1.3
			c-1.2,1.2-2.4,2.3-3.7,3.3c-0.3,0.2-0.8,0.1-1.2,0.2c0.1-0.4,0.1-0.8,0.2-1.1c1-1.8,2.1-3.6,3-5.5c0.3-0.7,0-1.8-0.3-2.6
			c-0.1-0.3-0.8-0.3-1.2-0.5c-0.1,0.4-0.3,0.8-0.3,1.3c-0.1,1,0,2.1-0.4,3c-0.7,1.5-1.6,2.9-2.5,4.3c-0.8,1.3-0.2,2.7,1.2,2.6
			c1.1,0,2.3-0.4,3.2-1c1.2-0.8,2.2-1.8,3.1-2.9c0.5-0.6,1.3-1.6,1.1-2C84.4,119.5,83.6,118.9,82.8,118.3z M64.9,143.7
			c0,0.1,0.1,0.3,0.1,0.4c0.4,0,0.8,0.1,1.2,0c4.2-0.7,8.1-2.3,11.9-4.2c0.4-0.2,1,0,1.5,0c-0.2,0.5-0.3,1-0.6,1.4
			c-0.2,0.3-0.6,0.4-1,0.6c-3.8,1.3-7.6,2.6-11.4,3.9c-0.4,0.2-0.8,0.5-1.2,0.7c0,0.1,0.1,0.3,0.1,0.4c0.5,0,0.9,0,1.4-0.1
			c4.7-1.3,9.3-2.6,13.4-5.2c1.5-0.9,1.6-1.5,0.5-2.9c-0.7-0.9-1.4-0.4-2-0.2c-4.1,1.5-8.2,3-12.3,4.5
			C65.8,143.3,65.4,143.5,64.9,143.7z M39.7,47.3C37,46.6,38.9,44.8,40,43c-0.7-0.1-1.2-0.4-1.6-0.3c-1.9,0.2-3.2,1.2-3.9,2.9
			c-0.6,1.7-0.4,3.5,0.7,5c0.6,0.8,1.3,0.8,2,0.1C38,49.6,38.8,48.3,39.7,47.3z M100.6,116.5c-0.2,0.1-0.3,0.1-0.5,0.2
			c0.1,0.5,0.1,1.3,0.4,1.6c0.6,0.6,1.4,0.9,2.1,1.3c0.9,0.4,1.5,0.1,1.9-0.8c0.4-1.1,0.9-2.2,1.1-3.3c0.1-0.6-0.3-1.4-0.6-2
			c-0.4-0.7-1-1.4-1.4-2.1c-0.5-1-1.4-1.4-2.2-0.7c-0.8,0.8-1.6,0.6-2.4,0.3c-1.8-0.5-2.2-0.4-2.9,1.3c-0.3,0.6-0.6,1.3-0.7,1.9
			s0,1.4,0.4,1.7c0.6,0.5,1.4,0.6,2.2,0.9c0.1-0.1,0.2-0.3,0.2-0.4c-0.1-0.3-0.3-0.6-0.4-0.9c-1.1-1.7-0.4-3.1,1.6-3.4
			c1.7-0.2,3.2,0.4,4.5,1.4c1,0.7,1.1,2.5,0.3,3.4c-0.9,1-1.7,1-3,0C100.9,116.7,100.8,116.6,100.6,116.5z M28.5,120.7
			c0.1,0.3,0.2,0.6,0.4,0.7c2.2,2.2,4.5,4.4,6.7,6.6c0.9,0.9,1.6,0.1,2.2-0.5c0.7-0.8,0-1.2-0.5-1.7c-1.7-1.8-3.4-3.5-5-5.3
			c-1-1.1-2.1-1.3-3.3-0.5C28.7,120.2,28.5,120.5,28.5,120.7z M30.2,68c-0.1-0.1-0.2-0.2-0.3-0.2c-0.3,0.2-0.6,0.4-0.8,0.7
			c-0.7,0.6-1.4,1.3-2.2,1.8c-0.4,0.2-1.2,0.3-1.4,0c-1.1-1.5-2.1-3-2.9-4.6c-0.2-0.4,0.1-1.3,0.4-1.7c0.3-0.2,1.1,0.1,1.6,0.2
			c0.4,0.1,0.8,0.4,1.1,0.4c0.2-0.1,0.6-0.7,0.5-0.9c-1.4-2.6-2.7-2.8-4.7-0.7c-0.3,0.3-0.6,0.6-0.7,0.9c-0.1,0.4-0.2,0.9,0,1.3
			c0.7,1.3,1,2.4,0.3,3.9c-0.2,0.4,0,1.2,0.3,1.5c0.2,0.3,1,0.4,1.4,0.2c0.8-0.3,1.2-0.1,1.8,0.5c1.2,1.1,1.8,1,3-0.1
			c0.7-0.7,1.5-1.4,2.2-2.2C30,68.7,30,68.3,30.2,68z M81.8,71.7c0.6-0.1,1.1-0.2,1.7-0.2c2-0.1,4-0.4,5.9-0.1
			c6.4,0.9,10.1,5.3,12.9,10.7c0.2,0.4,0.5,0.7,0.8,1c0-0.4,0.2-0.8,0-1.2c-1.7-4.6-5.1-7.8-9.3-10.3c-2.1-1.2-4.3-2.3-6.8-2.3
			C84.9,69.3,82.7,68.8,81.8,71.7z M37.8,129.9c2.2,1,4.3,2.2,6.5,3.1c1.4,0.6,2.9,1,4.4,1.2c0.6,0.1,1.7-0.6,2-1.2
			c0.4-1.1-0.8-0.9-1.4-1.1c-2.8-1.1-5.6-2.1-8.4-3.3C39.2,127.8,38.7,127.8,37.8,129.9z M89.9,133.4c-0.8-0.9-1.4-1.4-2.5-1.1
			c-0.6,0.1-1.4-0.4-2-0.8c-0.5-0.3-0.8-0.8-1.3-1.1c-1,0.8-2,1.5-2.9,2.2s-0.8,1.4,0.1,2.2c0.2-0.4,0.4-0.6,0.6-0.9
			c0.9-1.8,2.9-2.3,4.4-0.9c0.8,0.8,1.5,1.9,1.9,3c0.6,1.5-0.2,3.1-1.5,3.5c-1.1,0.3-2.3-0.6-2.8-2.2c-0.1-0.3-0.5-0.6-0.7-0.9
			c-0.2,0.4-0.6,1-0.5,1.3c0.5,1.3,1.1,2.5,1.7,3.7c0.2,0.3,0.9,0.5,1.1,0.4c1.3-0.9,2.7-1.8,3.9-2.8c0.2-0.2,0.4-1,0.2-1.1
			C88.4,136.2,88.9,134.8,89.9,133.4z M27,93.4c-0.6-1.2-1.9-0.8-2.9-1.1c-0.3-0.1-1.1,0.4-1.2,0.7c-0.4,2.2-0.7,4.4-0.8,6.6
			c-0.2,2,0.2,2.4,1.7,2.5c1.8,0,2.2-0.4,2.2-2.4c0-1.9,0-1.9,2.1-1.8c0.3,0,1-0.5,1-0.6c-0.4-1.1-1.3-1.7-2.5-1.6
			c-0.9,0-1.8,0.2-1.7,1.5c0,0.9,0,1.8-0.1,2.6c0,0.3-0.5,0.6-0.7,1c-0.2-0.3-0.6-0.6-0.6-0.9c0-0.8,0-1.7,0.1-2.5
			c0.1-1-0.1-2.3,0.5-2.9C24.5,93.8,25.8,93.8,27,93.4z M27.7,59.9c0.3-0.1,0.6-0.2,0.8-0.3c2-1.2,4.1-2.4,6.1-3.7
			c0.4-0.3,0.7-0.8,0.8-1.3c0.1-0.3,0.1-0.9-0.2-1c-0.2-0.2-0.8-0.2-1.1-0.1c-0.7,0.3-1.4,0.7-2,1.1c-1.9,1.3-3.7,2.7-5.8,0.4
			c-0.2-0.2-1.1-0.2-1.3,0c-0.3,0.3-0.4,1-0.2,1.4c0.6,1,1.3,1.9,2,2.9C27,59.5,27.3,59.7,27.7,59.9z M8.1,84.4
			c-0.5,1.5-1,2.9-1.2,4.3c-0.1,0.6,0.5,1.4,0.9,1.9c0.6,0.7,1.6,1.2,2,1.9c0.6,1.4,1.2,1.7,2.5,0.8c0.4-0.3,1-0.6,1.5-0.5
			c2.2,0.3,2.3,0.3,2.9-1.9c0.2-0.7,0.4-1.5,0.5-2.3c0-0.3-0.2-0.5-0.2-0.8c-0.5,0.4-0.5,0.8-0.7,1.2c-0.5,1.2-0.8,2.7-2.2,2.8
			c-1.4,0-3-0.3-4.3-0.8c-1.2-0.5-1.6-2.4-0.9-3.4c0.6-1,1.8-1.2,3.1-0.5c0.4,0.2,0.9,0.4,1.3,0.6c0.1-0.1,0.1-0.3,0.2-0.4
			C12.1,85.6,10,85.5,8.1,84.4z M58.1,127.8c-1.3,0.7-2.4,1.2-3.4,1.7s-2,3.8-1.4,4.6c0.1,0.2,0.4,0.3,0.6,0.3
			c2.6-0.1,5.2-0.3,7.9-0.5c0.3,0,0.8-0.4,0.8-0.6c-0.1-1-0.2-2.1-0.5-3.1c-0.1-0.2-0.7-0.4-1.1-0.3c-0.2,0-0.5,0.5-0.5,0.8
			c0,0.6,0.2,1.2,0.3,2.1c-1.7,0.1-3.2,0.3-4.6,0.1c-0.5,0-1.2-0.9-1.3-1.4c-0.1-0.9,0.7-0.9,1.4-0.9c0.6-0.1,1.5-0.3,1.7-0.8
			C58.2,129.3,58.1,128.5,58.1,127.8z M62.8,139.5c0,0.2,0.1,0.4,0.1,0.6c0.3,0,0.7,0.1,1,0.1c2.1-0.5,4.2-0.9,6.2-1.6
			c2.3-0.8,4.4-2,6.7-2.9c0.4-0.2,0.9,0,1.3,0.1c-0.1,0.5-0.1,1-0.3,1.5c-0.1,0.2-0.5,0.3-0.7,0.4c-3.9,1.8-7.8,3.5-12.2,4
			c-0.4,0-0.7,0.3-1.1,0.5c0.5,0.3,0.8,0.4,1.1,0.3c2.3-0.6,4.7-1.2,7-2c2.2-0.8,4.3-1.9,6.3-3c1.2-0.6,1-1.7,0.5-2.7
			c-0.5-1.1-1.4-0.8-2.1-0.3c-3.4,2.1-7.2,3.1-11.1,4.1C64.8,138.9,63.8,139.2,62.8,139.5z M84.8,128.8c0.2,0.1,0.3,0.2,0.5,0.3
			c0.2-0.2,0.5-0.3,0.7-0.5c2.3-3,4.6-6,7-9c0.4-0.5,1.2-1.1,1.5-0.9c0.9,0.4,0.4,1.2,0,1.7c-2.2,2.8-4.5,5.6-6.7,8.5
			c-0.3,0.4-0.5,0.9-0.8,1.4c0.2,0.1,0.4,0.2,0.6,0.4c1.5-1.8,3.1-3.5,4.6-5.4c1.3-1.7,2.4-3.5,3.4-5.3c0.7-1.1,0-1.9-1-2.5
			s-1.5,0.1-2,0.8c-1.9,3.1-3.9,6.2-6.6,8.7C85.4,127.5,85.2,128.2,84.8,128.8z M13.5,113.5c-0.3-0.2-0.8-0.7-1.1-0.6
			c-1.1,0.2-2.3,0.4-3.4,0.9c-0.4,0.2-0.8,1-0.7,1.4c0.3,1.2,0.8,2.4,1.2,3.6c0.4,1.1,1.2,1.3,2.3,1.3c0.9-0.1,1.8,0.1,2.6,0.4
			c2.4,0.9,2.4-1.9,3.9-2.5c0.4-0.1,0.6-1.2,0.8-1.8c0-0.1-0.1-0.3-0.2-0.4c-0.3-0.9-0.7-1.7-1-2.6c-0.5-1.3-0.7-1.4-1.8-0.4
			c2.6,2.7,1.9,5-1.7,6.1c-0.3,0.1-0.6,0.2-0.9,0.2c-1.4,0.2-3.3-0.6-3.6-1.8c-0.2-0.8-0.2-2,0.3-2.4C11,114.1,12.1,114,13.5,113.5z
			 M73.7,128.7c-1.8,0.8-3.6,1.6-5.4,2.2c-0.7,0.2-1.6,1.3-2.2,0c-0.1-0.2,0.9-1.1,1.5-1.5c1.9-1.3,2.1-2.8,0.8-3.7
			c-1.2,1.3-2.5,2.4-3.6,3.7c-0.4,0.6-0.7,1.6-0.5,2.2c0.2,0.5,1.2,1,1.8,0.9c3.1-0.3,5.8-1.5,8.3-3.3c0.3-0.2,0.5-1,0.3-1.3
			c-0.2-0.7-0.7-1.3-1.2-1.8c-0.1-0.2-0.5-0.2-0.7-0.2c-0.1,0.3-0.3,0.6-0.2,0.8C72.9,127.3,73.2,127.8,73.7,128.7z M29.2,133.3
			c0.6-0.1,1.1-0.4,1.5-0.3c0.7,0.2,1.5,0.5,1.9,1s0.7,1.6,0.4,2c-0.8,1.3-1.8,2.5-2.8,3.6s-2.2,0.7-3.2-0.1s-0.5-1.8-0.1-2.8
			c0.1-0.3,0.2-0.7,0.3-1c-0.1-0.1-0.2-0.1-0.3-0.2c-0.8,0.7-1.6,1.3-2.3,2c-0.9,0.8-0.7,1.7,0.2,2.4c0.9,0.6,1.9,1.1,2.7,1.7
			c0.9,0.7,1.6,0.5,2.2-0.3c0.6-0.8,1.3-1.2,2.4-1c1.2,0.2,1.7-0.6,1.3-1.8c-0.1-0.5-0.2-1,0-1.5c1.2-3,1.2-3-1.6-4.7
			C30.5,131.4,30,131.5,29.2,133.3z M14,95.5c-0.2,0-0.3-0.1-0.5-0.1c-0.2,0.7-0.5,1.3-0.5,2c0.3,3.7,0.7,7.3,1.1,11
			c0.1,1.2,1,1.7,2.1,1.6s1.5-0.8,1.2-2c-0.7-3.6-0.9-7.1-0.5-10.8c0.1-0.6-0.2-1.3-0.4-2c-0.1,0-0.3,0-0.4,0
			c-0.2,0.8-0.5,1.7-0.5,2.5c0.3,3.3,0.7,6.6,0.9,10c0,0.5-0.4,0.9-0.7,1.4c-0.4-0.4-1-0.7-1-1.1c-0.3-2.3-0.5-4.6-0.6-7
			C14,99.3,14,97.4,14,95.5z M68.2,76.5c3.9-0.6,5.7-3.9,8.6-5.5c-0.1-1-0.2-1.8-0.3-2.5C73.8,68.7,68.6,73.7,68.2,76.5z M9.5,95.4
			c-0.2,0-0.4,0-0.6,0c-0.1,0.9-0.2,1.7-0.2,2.6c-0.2,4,0,8,1.4,11.8c0.2,0.5,1.1,1,1.5,0.9c0.6-0.2,1-0.9,1.4-1.4
			c0.2-0.2,0.1-0.7,0-1c-0.8-3.9-0.9-7.8-0.7-11.8c0-0.3-0.4-0.6-0.6-1c-0.2,0.1-0.4,0.2-0.6,0.3c0.3,4.4,0.6,8.9,0.9,13.3
			c-1.4,0.4-1.7-0.4-1.8-1.2c-0.3-2.8-0.5-5.6-0.6-8.4C9.5,98,9.5,96.7,9.5,95.4z M88.2,131.1c0.1,0.1,0.2,0.3,0.3,0.4
			c0.3-0.2,0.8-0.2,1-0.5c2.9-3,5.7-6.2,7.5-10c0.2-0.4,0.9-0.6,1.4-0.9c0.1,0.6,0.4,1.3,0.1,1.7c-1.5,2.4-3.1,4.8-4.7,7.2
			c-0.9,1.4-2.1,2.6-3.3,4.1c0.6,0,0.7,0,0.7,0c3.5-3.4,6.3-7.3,8.3-11.7c0.1-0.3,0-1-0.3-1.2c-1.1-1.2-2.2-1-3.1,0.4
			c-1.8,2.7-3.7,5.4-5.6,8C90.1,129.4,89.2,130.3,88.2,131.1z M22.9,134.4c3-1.4,3.2-2,1.6-4.1c-2-2.7-4.1-5.4-6.1-8.1
			c-0.2-0.3-0.6-0.5-1.2-1.1c0.1,0.8,0,1.2,0.1,1.4c1.1,1.6,2.1,3.1,3.3,4.6c1.2,1.6,2.5,3.1,3.7,4.7c0.2,0.2-0.1,0.8-0.1,1.2
			c-0.4-0.1-0.9-0.1-1.1-0.3c-2.4-3.1-4.8-6.3-7.3-9.5c-0.3-0.3-0.6-0.6-0.9-0.9c-0.2,0.5-0.3,0.7-0.1,0.9
			C17.5,127,20.1,130.7,22.9,134.4z M97.4,101.3c0.2,0,0.4,0.1,0.5,0.1c0.1-0.5,0.4-1,0.3-1.5c-0.2-2.6-0.5-5.1-0.9-7.7
			c-0.2-1.3-0.6-2.5-1.2-3.7s-3.2-1.1-3.9,0.1c-0.4,0.7-0.1,1.1,0.7,1.2c2,0.2,2.8,1.5,3,3.3C96.4,95.9,96.9,98.6,97.4,101.3z
			 M18.9,120.3c-0.1,0.1-0.2,0.3-0.3,0.4c2,3.8,4.7,7.1,7.7,10.1c0.6,0.6,1.2,0.6,1.9-0.1c1-1,0.6-1.9-0.1-2.8
			c-1.7-2.2-3.5-4.3-5.1-6.5c-0.6-0.8-1-1.7-1.6-2.5c-0.2,0.1-0.3,0.2-0.5,0.2c0.3,0.6,0.5,1.4,0.9,1.9c1.8,2.5,3.8,5,5.6,7.5
			c0.3,0.4,0.1,1.1,0.1,1.6c-0.5-0.2-1.2-0.3-1.5-0.7c-2.1-2.7-4-5.5-6.1-8.2C19.6,120.8,19.2,120.6,18.9,120.3z M18.9,71.2
			c-0.2-0.1-0.4-0.2-0.6-0.2c-1.2,2-2.6,4-3.7,6.1c-0.9,1.7-1.6,3.6-2.3,5.5c-0.4,1.1,0.4,1.4,1.2,1.7c0.9,0.3,1.3,0.1,1.7-0.7
			c1.8-3.3,3.7-6.6,5.5-10c0.2-0.3,0.2-0.7,0.2-1.1c-0.3,0.2-0.7,0.4-0.9,0.7c-1.7,2.9-3.2,5.9-4.9,8.8c-0.3,0.4-0.9,0.7-1.4,1
			c-0.1-0.6-0.4-1.3-0.2-1.7c1.6-3,3.4-6,5.1-9C18.8,71.9,18.8,71.6,18.9,71.2z M51.8,59.5c0,0.2,0,0.4-0.1,0.7
			c1.2,0.7,2.5,1.2,3.6,2c0.8,0.5,1.5,1,2.3,0.1c0.2-0.2,0.6-0.3,0.9-0.3c1.7,0,3.4,0.1,5.1,0.2c0-0.1,0-0.2,0-0.3
			c-1.1-0.5-2.1-1.1-3.2-1.6c0-0.1,0.1-0.1,0.1-0.2c-0.9-0.3-1.8-0.5-2.8-0.8c0,0.1,0,0.1,0,0.2C55.8,59.5,53.8,59.5,51.8,59.5z
			 M109.1,99.5c0.1,0,0.2,0,0.3,0c0.2-1.9,0.4-3.7,0.5-5.6c0.1-1.1,0.1-2.2,0-3.4c0-1.1,0.1-2,1.1-2.8c0.5-0.4,0.3-1.8,0.1-2.6
			c-0.1-0.3-1.7-0.5-1.9-0.2c-0.5,0.6-0.7,1.6-0.7,2.5c0,2.1,0.2,4.2,0.3,6.3C108.8,95.6,108.9,97.5,109.1,99.5z M31.8,80.8
			c-0.1-0.1-0.3-0.1-0.4-0.2c-1.1,1.7-2.3,3.3-3.2,5c-0.5,0.9-0.6,1.9-0.7,2.9c0,1.5,1.5,2.9,3.1,3c1.1,0.1,2.1-1,2.3-2.6
			c0-0.4-0.5-0.9-0.8-1.3c-0.3,0.3-0.7,0.6-0.9,1c-0.3,0.5-0.4,1.1-0.5,1.7c-2-0.2-2.4-1.7-1.9-3c0.4-1,1.1-1.8,1.6-2.8
			C31.2,83.4,32.2,82.4,31.8,80.8z M34.2,80.8c0.5-0.4,1-0.7,1.4-1.1c1.5-1.5,2.9-3.1,4.3-4.7c0.5-0.5,0.9-1,1.3-1.6
			c0.2-0.3,0.1-0.7,0.1-1.1c-0.4,0-0.8-0.1-1,0.1c-1,0.7-2,1.4-2.9,2.2c-1.3,1.3-2.6,2.6-3.8,4c-0.3,0.3-0.3,1-0.2,1.5
			C33.2,80.5,33.8,80.6,34.2,80.8z M105.7,96.8c0.2-0.1,0.3-0.2,0.5-0.2c0-2,0-3.9,0-5.9c0-1.4-0.1-2.7-0.4-4
			c-0.1-0.4-0.8-0.9-1.2-0.8c-0.4,0-0.9,0.8-0.9,1.2c0.3,2.9,0.7,5.9,1.1,8.8C104.8,96.1,105.3,96.4,105.7,96.8z M102.3,94.9
			c-0.4-2.3-0.7-4.9-1.2-7.5c-0.1-0.3-0.8-0.8-1.1-0.7c-0.3,0-0.8,0.7-0.8,1c0.4,2.8,0.8,5.7,1.3,8.5c0,0.3,0.5,0.7,0.7,0.7
			c0.3-0.1,0.7-0.4,0.9-0.7C102.3,95.9,102.2,95.5,102.3,94.9z M64.2,67.6c0-0.1,0.1-0.2,0.1-0.3c-0.2-0.1-0.4-0.2-0.6-0.3
			c-4.5-2.2-9.1-4.3-13.6-6.6c-1.6-0.9-3.1-2.2-4.5-3.4c-0.7-0.6-0.9-1.6-0.1-2.2c0.6-0.5,1.4-0.7,2.1-0.8c0.5-0.1,1.1,0.2,1.5,0.5
			c2.4,2,5.2,1.1,7.9,1.1c-1-0.2-2-0.1-3-0.2c-1.7-0.1-3.4-0.2-4.8-1.5c-0.6-0.6-2-0.7-3-0.5c-1.8,0.3-2.5,1.8-1.3,3.3
			c1,1.3,2.2,2.6,3.5,3.4c3.2,1.9,6.5,3.5,9.8,5.1C60.2,66.1,62.2,66.8,64.2,67.6z M44.7,59c-0.4-1.5-1.3-3-1.2-4.4
			c0.1-2,2.3-1.8,3.7-2.3c-1.4-1.1-2.9-1.1-4.3,0c-1.6,1.2-2,3.1-1.2,5.1C42.2,58.5,43.3,59.1,44.7,59z M50.2,127.2
			c-1.1,0.4-2.2,1-3.3,1.1c-0.8,0.1-1.7-0.5-2.6-0.8c-1.2-0.3-2.3-1.2-3.8-0.7c0.2,0.3,0.3,0.5,0.4,0.6c2,1.6,4.3,2.5,6.7,2.9
			C49.5,130.7,50.8,128.9,50.2,127.2z M72.2,64.1c-0.1,0.1-0.1,0.2-0.2,0.3c2.2,1.7,5.4,1.9,7.1,4.6c-0.6,0.2-1,0.3-1.4,0.4
			c0,1.2,0.7,2,1.8,2c0.7,0,1.6-0.6,2-1.2c0.6-0.9-0.1-2.3-1.5-2.9C77.3,66.2,74.8,65.2,72.2,64.1z M76.1,58.3
			c0.1-0.3,0.1-0.5,0.2-0.8c-2.7-0.9-5.5-1.8-8.2-2.6c-1.2-0.3-2.6-0.4-3.9-0.4c-0.3,0-0.6,0.6-0.9,0.9c0.4,0.1,0.8,0.5,1.1,0.3
			c2.2-0.8,3.9-0.3,5,2c1.3-0.9,2.3-0.5,3.5,0C73.8,58.1,74.9,58.1,76.1,58.3z M82.4,108.2c0,0.1-0.1,0.2-0.1,0.3
			c0.4,0.1,0.7,0.3,1.1,0.4c1.9,0.6,2.4,1.6,1.5,3.4c-0.4,0.7-0.8,1.5-1,2.3c-0.1,0.4,0,0.9,0,1.3c0.2,0,0.3,0.1,0.5,0.1
			c0.7-1.2,1.6-2.3,2-3.6c0.4-1.1,0.4-2.3,0.4-3.5c0-0.4-0.8-1-1.2-1C84.4,107.8,83.4,108,82.4,108.2z M80.9,65.5
			c-0.1,0.1-0.2,0.3-0.4,0.4c-2.7-1-5.4-2.1-8-3.1c0.1,0.3,0.2,0.5,0.4,0.5c2.4,1.1,4.9,2.2,7.4,3.2c0.6,0.2,1.3,0.2,2,0.1
			c1.3-0.2,2.1-1.3,1.8-2.4c-0.3-0.9-1.4-1.6-2.4-1.3C80.4,63.3,80.2,64.2,80.9,65.5z M33.3,119.5c-0.1,0.1-0.2,0.2-0.2,0.3
			c1.2,1.7,2.2,3.6,4.4,4.4c1.9,0.7,3.5-0.3,3.5-2.8c-2.2,2.3-3.8,0.9-5.5-0.5C34.8,120.4,34,120,33.3,119.5z M59.1,63
			c-0.1,0.2-0.1,0.3-0.2,0.5c0.1,0.1,0.2,0.1,0.4,0.2c2.1,0.7,4.4,0.8,6,2.8c0.5,0.6,1.3,0.4,1.4-0.7c0.1-1.6-0.4-2.5-2-2.7
			C62.8,62.9,60.9,63,59.1,63z M59.8,58.5c1.6-0.5,2.9,0.1,4.3,0.7c0.7,0.3,1.8,0.3,2.5,0c0.6-0.3,0.8-1.3,1.2-2
			c-0.6-0.3-1.4-0.9-1.8-0.8c-1.7,0.7-3.3,1.3-5.2,1.2C60.3,57.6,60.1,58.2,59.8,58.5z M85.3,116.7c1.5,1.4,2,1.4,2.7,0
			c0.6-1.1,1.1-2.3,1.5-3.5c0.2-0.5-0.1-1-0.1-1.6c-0.5,0.2-1.3,0.3-1.6,0.7C86.8,113.7,86.2,115.3,85.3,116.7z M36,60.1
			c-0.1-0.1-0.1-0.3-0.2-0.4c-0.4,0.1-0.8,0.2-1.2,0.4c-1.3,0.8-2.5,1.6-3.9,2.3c-0.4,0.2-1,0-1.4-0.1c0.2-0.5,0.2-1.2,0.5-1.4
			c1.4-0.9,2.8-1.7,4.2-2.6c0.4-0.3,0.8-0.7,1.2-1c-0.1-0.1-0.1-0.2-0.2-0.4c-0.3,0.1-0.6,0.1-0.8,0.2c-1.7,1-3.4,1.9-5,2.9
			c-1,0.6-0.9,1.5-0.4,2.4s1.3,1.2,2.2,0.7C32.5,62.3,34.2,61.2,36,60.1z M38.5,63.2c-0.6,0.1-1,0.1-1.2,0.3
			c-1.4,0.9-2.8,1.9-4.3,2.7c-0.4,0.2-0.9,0.2-1.4,0.3c0.1-0.5-0.1-1.2,0.2-1.5c0.7-0.7,1.6-1.2,2.5-1.7c0.8-0.5,1.6-1,2.4-1.6
			c-0.1-0.2-0.3-0.4-0.4-0.7c-1.8,1.2-3.6,2.3-5.2,3.6c-0.9,0.8-0.3,1.8,0.4,2.4c0.3,0.3,1.2,0.4,1.6,0.2c1.7-1,3.2-2.1,4.8-3.2
			C38,64,38.2,63.7,38.5,63.2z M76.3,49.5c0.2,0.2,0.3,0.4,0.4,0.4c1.2,0.3,4.1-1.3,4.5-2.4c0.3-1-0.3-1.8-1.3-1.7
			c-0.8,0.1-1.5,0.3-2.5,0.4C78.8,47.9,77.3,48.6,76.3,49.5z M59.4,55c0.5-0.2,1-0.4,1.5-0.6c1.6-0.4,3.3-1.1,4.9-0.9
			c2.6,0.3,5.2,1.3,7.7,2c1.1,0.3,2.2,0.7,3.3,1.1c0.1-0.1,0.1-0.3,0.2-0.4c-0.3-0.2-0.5-0.4-0.8-0.5c-2.6-0.8-5.2-1.6-7.8-2.5
			C65.1,52.1,62.1,52.5,59.4,55z M25.7,73.8c-0.1-0.1-0.2-0.2-0.3-0.2c-3.1,3.7-5.4,7.9-6.7,12.6C21,82.1,23.2,77.9,25.7,73.8z
			 M50.7,72.5c0.2,0,0.3,0,0.5,0.1c1-1.4,2-2.9,3.2-4.7c-1.2-0.2-2-0.4-2.7-0.3c-0.4,0-1.1,0.6-1.1,1C50.3,69.8,50.5,71.1,50.7,72.5
			z M60.9,70.9c-1.2-0.2-2.7,0.8-3.1,2.1c-0.5,1.6-0.1,2.8,1.3,3.6C59.8,74.7,60.3,72.8,60.9,70.9z M16.2,85.3
			c0.3-0.7,0.5-1.2,0.8-1.6c1.8-3.1,3.6-6.2,5.4-9.3c0.2-0.4,0.3-0.8,0.4-1.2C19.8,76,15.6,83.8,16.2,85.3z M54.8,74.9
			c1-1.9,2-3.7,2.9-5.5c-1.6-0.6-2.4,0.6-3.2,1.5C53.5,72.1,53.8,73.4,54.8,74.9z M56.5,47.8c-1.8-1.2-4.5-0.7-5.5,0.8
			C52.5,49.8,54.8,49.5,56.5,47.8z M42.5,42.4c-0.7,0.7-1.3,1.2-1.8,1.9c-0.4,0.5-1.2,1.4-1,1.7c0.6,1,1.5,0.5,2.2,0
			C43.8,44.6,43.8,43.2,42.5,42.4z M50.8,59.9c0.2-2.2-0.1-3.6-2.2-3.8c-0.3,0-0.5-0.3-0.7-0.5c-0.3-0.1-0.7-0.2-1-0.2
			c0,0.4-0.1,0.9,0.1,1.1C48,57.6,49.3,58.7,50.8,59.9z M39,78.5c-0.2,0-0.3,0-0.5,0c-0.8,0.7-1.6,1.4-2.3,2.2c-0.3,0.3,0,1.1,0,1.6
			c0.5-0.2,1-0.2,1.3-0.5c0.5-0.4,0.9-1,1.2-1.6C39,79.7,38.8,79.1,39,78.5z M49.5,48c2.5-2,5.1-2.4,8-1C55.7,44.8,51,45.4,49.5,48z
			 M53.5,39.5c-0.8-1.6-2.1-2.6-3.9-3.1C50.3,38,51.7,39.1,53.5,39.5z M92.6,109.4c-0.8-0.6-1.2-1.2-1.6-1.2s-1.1,0.7-1.1,1.1
			s0.6,1.3,0.9,1.3C91.2,110.5,91.7,110,92.6,109.4z M69.8,47.7c-0.3-1.2-0.6-2.2-1.8-2.4c-0.1,0-0.6,0.9-0.6,1.2
			C67.8,47.6,68.6,48,69.8,47.7z M48,39.9c-1.6-0.8-3.2-1.7-4.9-2.5C44,39,45.5,39.8,48,39.9z M72.8,59.2c-0.8-0.6-1.2-1.2-1.6-1.1
			c-0.5,0.1-0.9,0.6-1.4,1c0.5,0.3,0.9,0.8,1.4,1C71.6,60.1,71.9,59.6,72.8,59.2z M53.5,36.1c-0.1,0.1-0.3,0.2-0.4,0.4
			c0.4,1.5,1.9,3,3.4,2.9C55.3,38.1,54.3,37.1,53.5,36.1z M67.8,63.8c-0.1,0.1-0.2,0.2-0.2,0.3c1.2,0.9,2.5,1.9,3.9,2.9
			c0.1,0,0.4-0.2,1.1-0.5C70.8,65.6,69.2,64.7,67.8,63.8z M50.3,40c0.1-0.2,0.3-0.4,0.4-0.6c-1.4-0.9-2.8-1.8-4.2-2.6
			c-0.1,0.2-0.2,0.3-0.3,0.5C47.5,38.1,49,39.1,50.3,40z M44.8,40.7c0-0.1,0.1-0.3,0.1-0.4c-1.6-0.7-3-1.8-5-1.4
			C41.7,39.5,43.2,40.1,44.8,40.7z M57.1,36.9c-0.1,0.1-0.2,0.2-0.3,0.3c0.6,2.5,0.9,2.9,2.4,2.4C58.3,38.6,57.7,37.7,57.1,36.9z
			 M62.1,55.9c-1.7-0.7-3.3,0.2-3.4,1.6C59.7,57,60.8,56.5,62.1,55.9z M75.8,59.7c-0.6-0.3-1-0.7-1.2-0.6c-0.5,0.2-0.8,0.7-1.2,1
			c0.3,0.2,0.7,0.7,1,0.6C74.8,60.6,75.2,60.2,75.8,59.7z M69.6,67.5c0.1-0.2,0.3-0.5,0.4-0.7c-0.5-0.2-1-0.6-1.6-0.7
			c-0.2,0-0.8,0.7-0.7,0.8c0.2,0.4,0.6,0.8,1.1,1.1C68.8,68.1,69.2,67.7,69.6,67.5z M57.4,57c-0.1-0.1-0.2-0.2-0.3-0.3
			c-0.4,0.2-1.1,0.4-1.2,0.8c-0.2,0.4,0.1,1.1,0.2,1.6c0.2,0,0.3,0,0.5,0C56.9,58.3,57.2,57.6,57.4,57z M55.5,57
			c-0.2-0.1-0.4-0.3-0.7-0.4c-0.3,0.5-0.7,1.1-1,1.6c0.2,0.1,0.4,0.3,0.7,0.4C54.8,58.1,55.2,57.6,55.5,57z M77.1,47.8
			c-1.5-0.7-2.1-0.4-2.5,1.2C75.4,48.6,76.2,48.2,77.1,47.8z"/>
	</g>
</g>
</svg>
