<?xml version="1.0" encoding="utf-8"?>
<!-- Generator: Adobe Illustrator 19.2.1, SVG Export Plug-In . SVG Version: 6.00 Build 0)  -->
<svg version="1.1" id="ELD:_Linear_Testbed" xmlns="http://www.w3.org/2000/svg" xmlns:xlink="http://www.w3.org/1999/xlink"
	 x="0px" y="0px" viewBox="0 0 685 353.6" style="enable-background:new 0 0 685 353.6;" xml:space="preserve">
<style type="text/css">
	.st0{fill:#FFFFFF;stroke:#231F20;stroke-miterlimit:10;}
	.st1{fill:#FFFFFF;stroke:#231F20;stroke-width:2;stroke-miterlimit:10;}
	.st2{fill:#85FF85;stroke:#000000;stroke-miterlimit:10;}
	.st3{fill:#8E8E8E;stroke:#000000;stroke-miterlimit:10;}
	.st4{fill:#FFF988;stroke:#000000;stroke-miterlimit:10;}
	.st5{fill:#FF8A8A;stroke:#000000;stroke-miterlimit:10;}
	.st6{fill:#FFFF00;}
	.st7{fill:none;stroke:#FFFF00;stroke-miterlimit:10;}
</style>
<path class="st0" d="M671.8,353.1H13.2c-7,0-12.7-4.7-12.7-10.4V10.9c0-5.8,5.7-10.4,12.7-10.4h658.6c7,0,12.7,4.7,12.7,10.4v331.8
	C684.5,348.4,678.9,353.1,671.8,353.1z"/>
<path class="st1" d="M669.6,403.3H11c-7,0-12.7-4.7-12.7-10.4v-23.2c0-5.8,5.7-10.4,12.7-10.4h658.6c7,0,12.7,4.7,12.7,10.4v23.2
	C682.3,398.6,676.6,403.3,669.6,403.3z"/>
<g id="DEVICE:_x7B__x27_id_x27_:0_x7D_">
	<g>
		<path id="DIF:diffuser_15_" class="st2" d="M357.5,345.2h-15v-13.7c0-3.4,3.3-6.2,7.5-6.2l0,0c4.1,0,7.5,2.8,7.5,6.2V345.2
			L357.5,345.2z"/>
		<rect x="342.5" y="345.2" class="st3" width="2.7" height="28.4"/>
		<path class="st3" d="M354.1,345.2c0,3,0,5.9,0,8.9c2.2,1.1,4.4,2.2,6.6,3.3c0,12,0,8.9,0,20.8c-0.9,0-1.8,0-2.7,0
			c0-11.5,0-8,0-19.6c-2.3-1.2-4.6-2.5-6.9-3.7c0-3.1,0-6.7,0-9.8"/>
		
			<rect id="NLED:_x7B__x22_colorID_x22_:_x22__x23_85FF85_x22__x7D__16_" x="344.5" y="331.5" class="st2" width="11.1" height="7.5"/>
	</g>
	<g>
		<path id="DIF:diffuser_14_" class="st2" d="M378,345.3h-15v-13.7c0-3.4,3.3-6.2,7.5-6.2l0,0c4.1,0,7.5,2.8,7.5,6.2V345.3
			L378,345.3z"/>
		<rect x="363" y="345.3" class="st3" width="2.7" height="28.4"/>
		<path class="st3" d="M374.6,345.3c0,3,0,5.9,0,8.9c2.2,1.1,4.4,2.2,6.6,3.3c0,12,0,8.9,0,20.8c-0.9,0-1.8,0-2.7,0
			c0-11.5,0-8,0-19.6c-2.3-1.2-4.6-2.5-6.9-3.7c0-3.1,0-6.7,0-9.8"/>
		
			<rect id="NLED:_x7B__x22_colorID_x22_:_x22__x23_85FF85_x22__x7D__17_" x="365" y="331.6" class="st2" width="11.1" height="7.5"/>
	</g>
	<g>
		<path id="DIF:diffuser_13_" class="st2" d="M398.5,345.1h-15v-13.7c0-3.4,3.3-6.2,7.5-6.2l0,0c4.1,0,7.5,2.8,7.5,6.2V345.1
			L398.5,345.1z"/>
		<rect x="383.4" y="345.1" class="st3" width="2.7" height="28.4"/>
		<path class="st3" d="M395,345.1c0,3,0,5.9,0,8.9c2.2,1.1,4.4,2.2,6.6,3.3c0,12,0,8.9,0,20.8c-0.9,0-1.8,0-2.7,0c0-11.5,0-8,0-19.6
			c-2.3-1.2-4.6-2.5-6.9-3.7c0-3.1,0-6.7,0-9.8"/>
		
			<rect id="NLED:_x7B__x22_colorID_x22_:_x22__x23_85FF85_x22__x7D__18_" x="385.4" y="331.4" class="st2" width="11.1" height="7.5"/>
	</g>
	<g>
		<path id="DIF:diffuser_12_" class="st4" d="M418.9,345.1h-15v-13.7c0-3.4,3.3-6.2,7.5-6.2l0,0c4.1,0,7.5,2.8,7.5,6.2V345.1
			L418.9,345.1z"/>
		<rect x="403.9" y="345.1" class="st3" width="2.7" height="28.4"/>
		<path class="st3" d="M415.5,345.1c0,3,0,5.9,0,8.9c2.2,1.1,4.4,2.2,6.6,3.3c0,12,0,8.9,0,20.8c-0.9,0-1.8,0-2.7,0
			c0-11.5,0-8,0-19.6c-2.3-1.2-4.6-2.5-6.9-3.7c0-3.1,0-6.7,0-9.8"/>
		<rect id="NLED:_x7B__x22_colorID_x22_:_x22__x23_FFF988_x22__x7D_" x="405.9" y="331.4" class="st4" width="11.1" height="7.5"/>
	</g>
	<g>
		<path id="DIF:diffuser_11_" class="st4" d="M438.9,345.1h-15v-13.7c0-3.4,3.3-6.2,7.5-6.2l0,0c4.1,0,7.5,2.8,7.5,6.2V345.1
			L438.9,345.1z"/>
		<rect x="423.9" y="345.1" class="st3" width="2.7" height="28.4"/>
		<path class="st3" d="M435.5,345.1c0,3,0,5.9,0,8.9c2.2,1.1,4.4,2.2,6.6,3.3c0,12,0,8.9,0,20.8c-0.9,0-1.8,0-2.7,0
			c0-11.5,0-8,0-19.6c-2.3-1.2-4.6-2.5-6.9-3.7c0-3.1,0-6.7,0-9.8"/>
		
			<rect id="NLED:_x7B__x22_colorID_x22_:_x22__x23_FFF988_x22__x7D__1_" x="425.9" y="331.4" class="st4" width="11.1" height="7.5"/>
	</g>
	<g>
		<path id="DIF:diffuser_10_" class="st4" d="M459.9,345.5h-15v-13.7c0-3.4,3.3-6.2,7.5-6.2l0,0c4.1,0,7.5,2.8,7.5,6.2V345.5
			L459.9,345.5z"/>
		<rect x="444.8" y="345.5" class="st3" width="2.7" height="28.4"/>
		<path class="st3" d="M456.4,345.5c0,3,0,5.9,0,8.9c2.2,1.1,4.4,2.2,6.6,3.3c0,12,0,8.9,0,20.8c-0.9,0-1.8,0-2.7,0
			c0-11.5,0-8,0-19.6c-2.3-1.2-4.6-2.5-6.9-3.7c0-3.1,0-6.7,0-9.8"/>
		
			<rect id="NLED:_x7B__x22_colorID_x22_:_x22__x23_FFF988_x22__x7D__2_" x="446.8" y="331.8" class="st4" width="11.1" height="7.5"/>
	</g>
	<g>
		<path id="DIF:diffuser_9_" class="st4" d="M480.3,345.1h-15v-13.7c0-3.4,3.3-6.2,7.5-6.2l0,0c4.1,0,7.5,2.8,7.5,6.2V345.1
			L480.3,345.1z"/>
		<rect x="465.3" y="345.1" class="st3" width="2.7" height="28.4"/>
		<path class="st3" d="M476.9,345.1c0,3,0,5.9,0,8.9c2.2,1.1,4.4,2.2,6.6,3.3c0,12,0,8.9,0,20.8c-0.9,0-1.8,0-2.7,0
			c0-11.5,0-8,0-19.6c-2.3-1.2-4.6-2.5-6.9-3.7c0-3.1,0-6.7,0-9.8"/>
		
			<rect id="NLED:_x7B__x22_colorID_x22_:_x22__x23_FFF988_x22__x7D__3_" x="467.3" y="331.4" class="st4" width="11.1" height="7.5"/>
	</g>
	<g>
		<path id="DIF:diffuser_8_" class="st4" d="M500.8,345.1h-15v-13.7c0-3.4,3.3-6.2,7.5-6.2l0,0c4.1,0,7.5,2.8,7.5,6.2V345.1
			L500.8,345.1z"/>
		<rect x="485.8" y="345.1" class="st3" width="2.7" height="28.4"/>
		<path class="st3" d="M497.4,345.1c0,3,0,5.9,0,8.9c2.2,1.1,4.4,2.2,6.6,3.3c0,12,0,8.9,0,20.8c-0.9,0-1.8,0-2.7,0
			c0-11.5,0-8,0-19.6c-2.3-1.2-4.6-2.5-6.9-3.7c0-3.1,0-6.7,0-9.8"/>
		
			<rect id="NLED:_x7B__x22_colorID_x22_:_x22__x23_FFF988_x22__x7D__4_" x="487.7" y="331.4" class="st4" width="11.1" height="7.5"/>
	</g>
	<g>
		<path id="DIF:diffuser_7_" class="st4" d="M520.8,345.1h-15v-13.7c0-3.4,3.3-6.2,7.5-6.2l0,0c4.1,0,7.5,2.8,7.5,6.2V345.1
			L520.8,345.1z"/>
		<rect x="505.8" y="345.1" class="st3" width="2.7" height="28.4"/>
		<path class="st3" d="M517.4,345.1c0,3,0,5.9,0,8.9c2.2,1.1,4.4,2.2,6.6,3.3c0,12,0,8.9,0,20.8c-0.9,0-1.8,0-2.7,0
			c0-11.5,0-8,0-19.6c-2.3-1.2-4.6-2.5-6.9-3.7c0-3.1,0-6.7,0-9.8"/>
		
			<rect id="NLED:_x7B__x22_colorID_x22_:_x22__x23_FFF988_x22__x7D__5_" x="507.7" y="331.4" class="st4" width="11.1" height="7.5"/>
	</g>
	<g>
		<path id="DIF:diffuser_6_" class="st5" d="M541.7,345.1h-15v-13.7c0-3.4,3.3-6.2,7.5-6.2l0,0c4.1,0,7.5,2.8,7.5,6.2V345.1
			L541.7,345.1z"/>
		<rect x="526.7" y="345.1" class="st3" width="2.7" height="28.4"/>
		<path class="st3" d="M538.3,345.1c0,3,0,5.9,0,8.9c2.2,1.1,4.4,2.2,6.6,3.3c0,12,0,8.9,0,20.8c-0.9,0-1.8,0-2.7,0
			c0-11.5,0-8,0-19.6c-2.3-1.2-4.6-2.5-6.9-3.7c0-3.1,0-6.7,0-9.8"/>
		<rect id="NLED:_x7B__x22_colorID_x22_:_x22__x23_FF8A8A_x22__x7D_" x="528.7" y="331.4" class="st5" width="11.1" height="7.5"/>
	</g>
	<g>
		<path id="DIF:diffuser_5_" class="st5" d="M562.2,345.1h-15v-13.7c0-3.4,3.3-6.2,7.5-6.2l0,0c4.1,0,7.5,2.8,7.5,6.2V345.1
			L562.2,345.1z"/>
		<rect x="547.2" y="345.1" class="st3" width="2.7" height="28.4"/>
		<path class="st3" d="M558.8,345.1c0,3,0,5.9,0,8.9c2.2,1.1,4.4,2.2,6.6,3.3c0,12,0,8.9,0,20.8c-0.9,0-1.8,0-2.7,0
			c0-11.5,0-8,0-19.6c-2.3-1.2-4.6-2.5-6.9-3.7c0-3.1,0-6.7,0-9.8"/>
		
			<rect id="NLED:_x7B__x22_colorID_x22_:_x22__x23_FF8A8A_x22__x7D__1_" x="549.1" y="331.4" class="st5" width="11.1" height="7.5"/>
	</g>
	<g>
		<path id="DIF:diffuser_4_" class="st5" d="M582.7,345.1h-15v-13.7c0-3.4,3.3-6.2,7.5-6.2l0,0c4.1,0,7.5,2.8,7.5,6.2V345.1
			L582.7,345.1z"/>
		<rect x="567.6" y="345.1" class="st3" width="2.7" height="28.4"/>
		<path class="st3" d="M579.2,345.1c0,3,0,5.9,0,8.9c2.2,1.1,4.4,2.2,6.6,3.3c0,12,0,8.9,0,20.8c-0.9,0-1.8,0-2.7,0
			c0-11.5,0-8,0-19.6c-2.3-1.2-4.6-2.5-6.9-3.7c0-3.1,0-6.7,0-9.8"/>
		
			<rect id="NLED:_x7B__x22_colorID_x22_:_x22__x23_FF8A8A_x22__x7D__2_" x="569.6" y="331.4" class="st5" width="11.1" height="7.5"/>
	</g>
	<g>
		<path id="DIF:diffuser_3_" class="st5" d="M603.6,345.1h-15v-13.7c0-3.4,3.3-6.2,7.5-6.2l0,0c4.1,0,7.5,2.8,7.5,6.2V345.1
			L603.6,345.1z"/>
		<rect x="588.6" y="345.1" class="st3" width="2.7" height="28.4"/>
		<path class="st3" d="M600.2,345.1c0,3,0,5.9,0,8.9c2.2,1.1,4.4,2.2,6.6,3.3c0,12,0,8.9,0,20.8c-0.9,0-1.8,0-2.7,0
			c0-11.5,0-8,0-19.6c-2.3-1.2-4.6-2.5-6.9-3.7c0-3.1,0-6.7,0-9.8"/>
		
			<rect id="NLED:_x7B__x22_colorID_x22_:_x22__x23_FF8A8A_x22__x7D__3_" x="590.5" y="331.4" class="st5" width="11.1" height="7.5"/>
	</g>
	<g>
		<path id="DIF:diffuser_2_" class="st5" d="M624.9,345.4h-15v-13.7c0-3.4,3.3-6.2,7.5-6.2l0,0c4.1,0,7.5,2.8,7.5,6.2V345.4
			L624.9,345.4z"/>
		<rect x="609.9" y="345.4" class="st3" width="2.7" height="28.4"/>
		<path class="st3" d="M621.5,345.4c0,3,0,5.9,0,8.9c2.2,1.1,4.4,2.2,6.6,3.3c0,12,0,8.9,0,20.8c-0.9,0-1.8,0-2.7,0
			c0-11.5,0-8,0-19.6c-2.3-1.2-4.6-2.5-6.9-3.7c0-3.1,0-6.7,0-9.8"/>
		
			<rect id="NLED:_x7B__x22_colorID_x22_:_x22__x23_FF8A8A_x22__x7D__4_" x="611.9" y="331.7" class="st5" width="11.1" height="7.5"/>
	</g>
	<g>
		<path id="DIF:diffuser_1_" class="st5" d="M646.3,345.1h-15v-13.7c0-3.4,3.3-6.2,7.5-6.2l0,0c4.1,0,7.5,2.8,7.5,6.2V345.1
			L646.3,345.1z"/>
		<rect x="631.3" y="345.1" class="st3" width="2.7" height="28.4"/>
		<path class="st3" d="M642.9,345.1c0,3,0,5.9,0,8.9c2.2,1.1,4.4,2.2,6.6,3.3c0,12,0,8.9,0,20.8c-0.9,0-1.8,0-2.7,0
			c0-11.5,0-8,0-19.6c-2.3-1.2-4.6-2.5-6.9-3.7c0-3.1,0-6.7,0-9.8"/>
		
			<rect id="NLED:_x7B__x22_colorID_x22_:_x22__x23_FF8A8A_x22__x7D__5_" x="633.2" y="331.4" class="st5" width="11.1" height="7.5"/>
	</g>
	<g>
		<path id="DIF:diffuser" class="st5" d="M667.6,345.1h-15v-13.7c0-3.4,3.3-6.2,7.5-6.2l0,0c4.1,0,7.5,2.8,7.5,6.2V345.1
			L667.6,345.1z"/>
		<rect x="652.6" y="345.1" class="st3" width="2.7" height="28.4"/>
		<path class="st3" d="M664.2,345.1c0,3,0,5.9,0,8.9c2.2,1.1,4.4,2.2,6.6,3.3c0,12,0,8.9,0,20.8c-0.9,0-1.8,0-2.7,0
			c0-11.5,0-8,0-19.6c-2.3-1.2-4.6-2.5-6.9-3.7c0-3.1,0-6.7,0-9.8"/>
		
			<rect id="NLED:_x7B__x22_colorID_x22_:_x22__x23_FF8A8A_x22__x7D__6_" x="654.6" y="331.4" class="st5" width="11.1" height="7.5"/>
	</g>
	<ellipse id="BI:_Breakin" class="st6" cx="350" cy="335.5" rx="2.2" ry="1.9"/>
	<line id="CP:_CircuitPath1_1_" class="st7" x1="350" y1="335.4" x2="660.1" y2="335.4"/>
</g>
<g id="DEVICE:_x7B__x27_id_x27_:1_x7D_">
	<g>
		<path id="DIF:diffuser_31_" class="st2" d="M28.6,345.4h-15v-13.7c0-3.4,3.3-6.2,7.5-6.2l0,0c4.1,0,7.5,2.8,7.5,6.2V345.4
			L28.6,345.4z"/>
		<rect x="13.6" y="345.4" class="st3" width="2.7" height="28.4"/>
		<path class="st3" d="M25.2,345.4c0,3,0,5.9,0,8.9c2.2,1.1,4.4,2.2,6.6,3.3c0,12,0,8.9,0,20.8c-0.9,0-1.8,0-2.7,0
			c0-11.5,0-8,0-19.6c-2.3-1.2-4.6-2.5-6.9-3.7c0-3.1,0-6.7,0-9.8"/>
		<rect id="NLED:_x7B__x22_colorID_x22_:_x22__x23_85FF85_x22__x7D_" x="15.5" y="331.7" class="st2" width="11.1" height="7.5"/>
	</g>
	<g>
		<path id="DIF:diffuser_30_" class="st2" d="M50,345.5H35v-13.7c0-3.4,3.3-6.2,7.5-6.2l0,0c4.1,0,7.5,2.8,7.5,6.2V345.5L50,345.5z"
			/>
		<rect x="35" y="345.5" class="st3" width="2.7" height="28.4"/>
		<path class="st3" d="M46.6,345.5c0,3,0,5.9,0,8.9c2.2,1.1,4.4,2.2,6.6,3.3c0,12,0,8.9,0,20.8c-0.9,0-1.8,0-2.7,0
			c0-11.5,0-8,0-19.6c-2.3-1.2-4.6-2.5-6.9-3.7c0-3.1,0-6.7,0-9.8"/>
		<rect id="NLED:_x7B__x22_colorID_x22_:_x22__x23_85FF85_x22__x7D__1_" x="37" y="331.8" class="st2" width="11.1" height="7.5"/>
	</g>
	<g>
		<path id="DIF:diffuser_29_" class="st2" d="M70.5,345.5h-15v-13.7c0-3.4,3.3-6.2,7.5-6.2l0,0c4.1,0,7.5,2.8,7.5,6.2V345.5
			L70.5,345.5z"/>
		<rect x="55.5" y="345.5" class="st3" width="2.7" height="28.4"/>
		<path class="st3" d="M67.1,345.5c0,3,0,5.9,0,8.9c2.2,1.1,4.4,2.2,6.6,3.3c0,12,0,8.9,0,20.8c-0.9,0-1.8,0-2.7,0
			c0-11.5,0-8,0-19.6c-2.3-1.2-4.6-2.5-6.9-3.7c0-3.1,0-6.7,0-9.8"/>
		
			<rect id="NLED:_x7B__x22_colorID_x22_:_x22__x23_85FF85_x22__x7D__2_" x="57.5" y="331.8" class="st2" width="11.1" height="7.5"/>
	</g>
	<g>
		<path id="DIF:diffuser_28_" class="st2" d="M90.8,344.8h-15v-13.7c0-3.4,3.3-6.2,7.5-6.2l0,0c4.1,0,7.5,2.8,7.5,6.2V344.8
			L90.8,344.8z"/>
		<rect x="75.8" y="344.8" class="st3" width="2.7" height="28.4"/>
		<path class="st3" d="M87.5,344.8c0,3,0,5.9,0,8.9c2.2,1.1,4.4,2.2,6.6,3.3c0,12,0,8.9,0,20.8c-0.9,0-1.8,0-2.7,0
			c0-11.5,0-8,0-19.6c-2.3-1.2-4.6-2.5-6.9-3.7c0-3.1,0-6.7,0-9.8"/>
		
			<rect id="NLED:_x7B__x22_colorID_x22_:_x22__x23_85FF85_x22__x7D__3_" x="77.8" y="331.1" class="st2" width="11.1" height="7.5"/>
	</g>
	<g>
		<path id="DIF:diffuser_27_" class="st2" d="M111.2,344.9h-15v-13.7c0-3.4,3.3-6.2,7.5-6.2l0,0c4.1,0,7.5,2.8,7.5,6.2V344.9
			L111.2,344.9z"/>
		<rect x="96.2" y="344.9" class="st3" width="2.7" height="28.4"/>
		<path class="st3" d="M107.8,344.9c0,3,0,5.9,0,8.9c2.2,1.1,4.4,2.2,6.6,3.3c0,12,0,8.9,0,20.8c-0.9,0-1.8,0-2.7,0
			c0-11.5,0-8,0-19.6c-2.3-1.2-4.6-2.5-6.9-3.7c0-3.1,0-6.7,0-9.8"/>
		
			<rect id="NLED:_x7B__x22_colorID_x22_:_x22__x23_85FF85_x22__x7D__4_" x="98.2" y="331.2" class="st2" width="11.1" height="7.5"/>
	</g>
	<g>
		<path id="DIF:diffuser_26_" class="st2" d="M131.5,344.9h-15v-13.7c0-3.4,3.3-6.2,7.5-6.2l0,0c4.1,0,7.5,2.8,7.5,6.2V344.9
			L131.5,344.9z"/>
		<rect x="116.5" y="344.9" class="st3" width="2.7" height="28.4"/>
		<path class="st3" d="M128.1,344.9c0,3,0,5.9,0,8.9c2.2,1.1,4.4,2.2,6.6,3.3c0,12,0,8.9,0,20.8c-0.9,0-1.8,0-2.7,0
			c0-11.5,0-8,0-19.6c-2.3-1.2-4.6-2.5-6.9-3.7c0-3.1,0-6.7,0-9.8"/>
		
			<rect id="NLED:_x7B__x22_colorID_x22_:_x22__x23_85FF85_x22__x7D__5_" x="118.5" y="331.2" class="st2" width="11.1" height="7.5"/>
	</g>
	<g>
		<path id="DIF:diffuser_25_" class="st2" d="M151.9,345.5h-15v-13.7c0-3.4,3.3-6.2,7.5-6.2l0,0c4.1,0,7.5,2.8,7.5,6.2V345.5
			L151.9,345.5z"/>
		<rect x="136.9" y="345.5" class="st3" width="2.7" height="28.4"/>
		<path class="st3" d="M148.5,345.5c0,3,0,5.9,0,8.9c2.2,1.1,4.4,2.2,6.6,3.3c0,12,0,8.9,0,20.8c-0.9,0-1.8,0-2.7,0
			c0-11.5,0-8,0-19.6c-2.3-1.2-4.6-2.5-6.9-3.7c0-3.1,0-6.7,0-9.8"/>
		
			<rect id="NLED:_x7B__x22_colorID_x22_:_x22__x23_85FF85_x22__x7D__6_" x="138.9" y="331.8" class="st2" width="11.1" height="7.5"/>
	</g>
	<g>
		<path id="DIF:diffuser_24_" class="st2" d="M172.3,345.5h-15v-13.7c0-3.4,3.3-6.2,7.5-6.2l0,0c4.1,0,7.5,2.8,7.5,6.2V345.5
			L172.3,345.5z"/>
		<rect x="157.3" y="345.5" class="st3" width="2.7" height="28.4"/>
		<path class="st3" d="M169,345.5c0,3,0,5.9,0,8.9c2.2,1.1,4.4,2.2,6.6,3.3c0,12,0,8.9,0,20.8c-0.9,0-1.8,0-2.7,0c0-11.5,0-8,0-19.6
			c-2.3-1.2-4.6-2.5-6.9-3.7c0-3.1,0-6.7,0-9.8"/>
		
			<rect id="NLED:_x7B__x22_colorID_x22_:_x22__x23_85FF85_x22__x7D__7_" x="159.3" y="331.8" class="st2" width="11.1" height="7.5"/>
	</g>
	<g>
		<path id="DIF:diffuser_23_" class="st2" d="M193.8,345.1h-15v-13.7c0-3.4,3.3-6.2,7.5-6.2l0,0c4.1,0,7.5,2.8,7.5,6.2V345.1
			L193.8,345.1z"/>
		<rect x="178.8" y="345.1" class="st3" width="2.7" height="28.4"/>
		<path class="st3" d="M190.4,345.1c0,3,0,5.9,0,8.9c2.2,1.1,4.4,2.2,6.6,3.3c0,12,0,8.9,0,20.8c-0.9,0-1.8,0-2.7,0
			c0-11.5,0-8,0-19.6c-2.3-1.2-4.6-2.5-6.9-3.7c0-3.1,0-6.7,0-9.8"/>
		
			<rect id="NLED:_x7B__x22_colorID_x22_:_x22__x23_85FF85_x22__x7D__8_" x="180.7" y="331.4" class="st2" width="11.1" height="7.5"/>
	</g>
	<g>
		<path id="DIF:diffuser_22_" class="st2" d="M215.2,344.9h-15v-13.7c0-3.4,3.3-6.2,7.5-6.2l0,0c4.1,0,7.5,2.8,7.5,6.2V344.9
			L215.2,344.9z"/>
		<rect x="200.2" y="344.9" class="st3" width="2.7" height="28.4"/>
		<path class="st3" d="M211.8,344.9c0,3,0,5.9,0,8.9c2.2,1.1,4.4,2.2,6.6,3.3c0,12,0,8.9,0,20.8c-0.9,0-1.8,0-2.7,0
			c0-11.5,0-8,0-19.6c-2.3-1.2-4.6-2.5-6.9-3.7c0-3.1,0-6.7,0-9.8"/>
		
			<rect id="NLED:_x7B__x22_colorID_x22_:_x22__x23_85FF85_x22__x7D__9_" x="202.2" y="331.2" class="st2" width="11.1" height="7.5"/>
	</g>
	<g>
		<path id="DIF:diffuser_21_" class="st2" d="M235.7,344.9h-15v-13.7c0-3.4,3.3-6.2,7.5-6.2l0,0c4.1,0,7.5,2.8,7.5,6.2V344.9
			L235.7,344.9z"/>
		<rect x="220.7" y="344.9" class="st3" width="2.7" height="28.4"/>
		<path class="st3" d="M232.3,344.9c0,3,0,5.9,0,8.9c2.2,1.1,4.4,2.2,6.6,3.3c0,12,0,8.9,0,20.8c-0.9,0-1.8,0-2.7,0
			c0-11.5,0-8,0-19.6c-2.3-1.2-4.6-2.5-6.9-3.7c0-3.1,0-6.7,0-9.8"/>
		
			<rect id="NLED:_x7B__x22_colorID_x22_:_x22__x23_85FF85_x22__x7D__10_" x="222.7" y="331.2" class="st2" width="11.1" height="7.5"/>
	</g>
	<g>
		<path id="DIF:diffuser_20_" class="st2" d="M256.2,344.9h-15v-13.7c0-3.4,3.3-6.2,7.5-6.2l0,0c4.1,0,7.5,2.8,7.5,6.2V344.9
			L256.2,344.9z"/>
		<rect x="241.1" y="344.9" class="st3" width="2.7" height="28.4"/>
		<path class="st3" d="M252.7,344.9c0,3,0,5.9,0,8.9c2.2,1.1,4.4,2.2,6.6,3.3c0,12,0,8.9,0,20.8c-0.9,0-1.8,0-2.7,0
			c0-11.5,0-8,0-19.6c-2.3-1.2-4.6-2.5-6.9-3.7c0-3.1,0-6.7,0-9.8"/>
		
			<rect id="NLED:_x7B__x22_colorID_x22_:_x22__x23_85FF85_x22__x7D__11_" x="243.1" y="331.2" class="st2" width="11.1" height="7.5"/>
	</g>
	<g>
		<path id="DIF:diffuser_19_" class="st2" d="M276.6,345.1h-15v-13.7c0-3.4,3.3-6.2,7.5-6.2l0,0c4.1,0,7.5,2.8,7.5,6.2V345.1
			L276.6,345.1z"/>
		<rect x="261.6" y="345.1" class="st3" width="2.7" height="28.4"/>
		<path class="st3" d="M273.2,345.1c0,3,0,5.9,0,8.9c2.2,1.1,4.4,2.2,6.6,3.3c0,12,0,8.9,0,20.8c-0.9,0-1.8,0-2.7,0
			c0-11.5,0-8,0-19.6c-2.3-1.2-4.6-2.5-6.9-3.7c0-3.1,0-6.7,0-9.8"/>
		
			<rect id="NLED:_x7B__x22_colorID_x22_:_x22__x23_85FF85_x22__x7D__12_" x="263.6" y="331.4" class="st2" width="11.1" height="7.5"/>
	</g>
	<g>
		<path id="DIF:diffuser_18_" class="st2" d="M297.1,344.9h-15v-13.7c0-3.4,3.3-6.2,7.5-6.2l0,0c4.1,0,7.5,2.8,7.5,6.2V344.9
			L297.1,344.9z"/>
		<rect x="282.1" y="344.9" class="st3" width="2.7" height="28.4"/>
		<path class="st3" d="M293.7,344.9c0,3,0,5.9,0,8.9c2.2,1.1,4.4,2.2,6.6,3.3c0,12,0,8.9,0,20.8c-0.9,0-1.8,0-2.7,0
			c0-11.5,0-8,0-19.6c-2.3-1.2-4.6-2.5-6.9-3.7c0-3.1,0-6.7,0-9.8"/>
		
			<rect id="NLED:_x7B__x22_colorID_x22_:_x22__x23_85FF85_x22__x7D__13_" x="284.1" y="331.2" class="st2" width="11.1" height="7.5"/>
	</g>
	<g>
		<path id="DIF:diffuser_17_" class="st2" d="M317.1,345.1h-15v-13.7c0-3.4,3.3-6.2,7.5-6.2l0,0c4.1,0,7.5,2.8,7.5,6.2V345.1
			L317.1,345.1z"/>
		<rect x="302.1" y="345.1" class="st3" width="2.7" height="28.4"/>
		<path class="st3" d="M313.6,345.1c0,3,0,5.9,0,8.9c2.2,1.1,4.4,2.2,6.6,3.3c0,12,0,8.9,0,20.8c-0.9,0-1.8,0-2.7,0
			c0-11.5,0-8,0-19.6c-2.3-1.2-4.6-2.5-6.9-3.7c0-3.1,0-6.7,0-9.8"/>
		
			<rect id="NLED:_x7B__x22_colorID_x22_:_x22__x23_85FF85_x22__x7D__14_" x="304.1" y="331.4" class="st2" width="11.1" height="7.5"/>
	</g>
	<g>
		<path id="DIF:diffuser_16_" class="st2" d="M337.1,344.9h-15v-13.7c0-3.4,3.3-6.2,7.5-6.2l0,0c4.1,0,7.5,2.8,7.5,6.2V344.9
			L337.1,344.9z"/>
		<rect x="322.1" y="344.9" class="st3" width="2.7" height="28.4"/>
		<path class="st3" d="M333.6,344.9c0,3,0,5.9,0,8.9c2.2,1.1,4.4,2.2,6.6,3.3c0,12,0,8.9,0,20.8c-0.9,0-1.8,0-2.7,0
			c0-11.5,0-8,0-19.6c-2.3-1.2-4.6-2.5-6.9-3.7c0-3.1,0-6.7,0-9.8"/>
		
			<rect id="NLED:_x7B__x22_colorID_x22_:_x22__x23_85FF85_x22__x7D__15_" x="324" y="331.2" class="st2" width="11.1" height="7.5"/>
	</g>
	<ellipse id="BI:_Breakin0" class="st6" cx="329.6" cy="335.5" rx="2.2" ry="1.9"/>
	<line id="CP:_CircuitPath0" class="st7" x1="329.6" y1="335.5" x2="21.1" y2="335.4"/>
</g>
</svg>
