<?xml version="1.0" encoding="utf-8"?>
<!-- Generator: Adobe Illustrator 19.2.1, SVG Export Plug-In . SVG Version: 6.00 Build 0)  -->
<svg version="1.1" id="Layer_1" xmlns="http://www.w3.org/2000/svg" xmlns:xlink="http://www.w3.org/1999/xlink" x="0px" y="0px"
	 viewBox="0 0 2852.9 2043.4" style="enable-background:new 0 0 2852.9 2043.4;" xml:space="preserve">
<style type="text/css">
	.st0{fill:#FFFFFF;stroke:#231F20;stroke-miterlimit:10;}
	.st1{fill:#85FF85;stroke:#000000;stroke-miterlimit:10;}
	.st2{fill:#8E8E8E;stroke:#000000;stroke-miterlimit:10;}
	.st3{fill:#FFF988;stroke:#000000;stroke-miterlimit:10;}
	.st4{fill:#FF8A8A;stroke:#000000;stroke-miterlimit:10;}
	.st5{fill:#FFFFFF;stroke:#231F20;stroke-width:2;stroke-miterlimit:10;}
	.st6{fill:#FFFF00;}
	.st7{fill:none;stroke:#FFFF00;stroke-miterlimit:10;}
</style>
<path class="st0" d="M1763.5,1819.5H109.4c-17.6,0-31.9-14.3-31.9-31.9V774.9c0-17.6,14.3-31.9,31.9-31.9h1654.1
	c17.6,0,31.9,14.3,31.9,31.9v1012.8C1795.4,1805.2,1781.1,1819.5,1763.5,1819.5z"/>
<g>
	<path id="DIF:diffuser_31_" class="st1" d="M148,1795.8h-37.7V1754c0-10.4,8.4-18.9,18.9-18.9h0c10.4,0,18.9,8.4,18.9,18.9V1795.8z
		"/>
	<rect x="110.3" y="1795.8" class="st2" width="6.8" height="86.8"/>
	<path class="st2" d="M139.4,1795.8c0,9.3,0,18,0,27.3c5.6,3.3,11.1,6.6,16.7,10c0,36.5,0.1,27.2,0.1,63.6c-2.2,0-4.5,0-6.7,0
		c0-35.1-0.1-24.5-0.1-59.7c-5.8-3.8-11.5-7.5-17.3-11.3c0-9.6,0-20.4,0-29.9"/>
	<rect id="NLED:_x7B__x22_colorID_x22_:_x22__x23_85FF85_x22__x7D_" x="115.2" y="1754" class="st1" width="27.8" height="22.9"/>
</g>
<g>
	<path id="DIF:diffuser_30_" class="st1" d="M201.8,1796.2h-37.7v-41.8c0-10.4,8.4-18.9,18.9-18.9h0c10.4,0,18.9,8.4,18.9,18.9
		V1796.2z"/>
	<rect x="164.1" y="1796.2" class="st2" width="6.8" height="86.8"/>
	<path class="st2" d="M193.3,1796.2c0,9.3,0,18,0,27.3c5.6,3.3,11.1,6.6,16.7,10c0,36.5,0.1,27.2,0.1,63.6c-2.2,0-4.5,0-6.7,0
		c0-35.1-0.1-24.5-0.1-59.7c-5.8-3.8-11.5-7.5-17.3-11.3c0-9.6,0-20.4,0-29.9"/>
	
		<rect id="NLED:_x7B__x22_colorID_x22_:_x22__x23_85FF85_x22__x7D__1_" x="169.1" y="1754.4" class="st1" width="27.8" height="22.9"/>
</g>
<g>
	<path id="DIF:diffuser_29_" class="st1" d="M253.2,1796.2h-37.7v-41.8c0-10.4,8.4-18.9,18.9-18.9h0c10.4,0,18.9,8.4,18.9,18.9
		V1796.2z"/>
	<rect x="215.5" y="1796.2" class="st2" width="6.8" height="86.8"/>
	<path class="st2" d="M244.7,1796.2c0,9.3,0,18,0,27.3c5.6,3.3,11.1,6.6,16.7,10c0,36.5,0.1,27.2,0.1,63.6c-2.2,0-4.5,0-6.7,0
		c0-35.1-0.1-24.5-0.1-59.7c-5.8-3.8-11.5-7.5-17.3-11.3c0-9.6,0-20.4,0-29.9"/>
	
		<rect id="NLED:_x7B__x22_colorID_x22_:_x22__x23_85FF85_x22__x7D__2_" x="220.5" y="1754.4" class="st1" width="27.8" height="22.9"/>
</g>
<g>
	<path id="DIF:diffuser_28_" class="st1" d="M304.3,1794.1h-37.7v-41.8c0-10.4,8.4-18.9,18.9-18.9h0c10.4,0,18.9,8.4,18.9,18.9
		V1794.1z"/>
	<rect x="266.6" y="1794.1" class="st2" width="6.8" height="86.8"/>
	<path class="st2" d="M295.8,1794.1c0,9.3,0,18,0,27.3c5.6,3.3,11.1,6.6,16.7,10c0,36.5,0.1,27.2,0.1,63.6c-2.2,0-4.5,0-6.7,0
		c0-35.1-0.1-24.5-0.1-59.7c-5.8-3.8-11.5-7.5-17.3-11.3c0-9.6,0-20.4,0-29.9"/>
	
		<rect id="NLED:_x7B__x22_colorID_x22_:_x22__x23_85FF85_x22__x7D__3_" x="271.6" y="1752.3" class="st1" width="27.8" height="22.9"/>
</g>
<g>
	<path id="DIF:diffuser_27_" class="st1" d="M355.4,1794.5h-37.7v-41.8c0-10.4,8.4-18.9,18.9-18.9h0c10.4,0,18.9,8.4,18.9,18.9
		V1794.5z"/>
	<rect x="317.7" y="1794.5" class="st2" width="6.8" height="86.8"/>
	<path class="st2" d="M346.9,1794.5c0,9.3,0,18,0,27.3c5.6,3.3,11.1,6.6,16.7,10c0,36.5,0.1,27.2,0.1,63.6c-2.2,0-4.5,0-6.7,0
		c0-35.1-0.1-24.5-0.1-59.7c-5.8-3.8-11.5-7.5-17.3-11.3c0-9.6,0-20.4,0-29.9"/>
	
		<rect id="NLED:_x7B__x22_colorID_x22_:_x22__x23_85FF85_x22__x7D__4_" x="322.7" y="1752.7" class="st1" width="27.8" height="22.9"/>
</g>
<g>
	<path id="DIF:diffuser_26_" class="st1" d="M406.5,1794.5h-37.7v-41.8c0-10.4,8.4-18.9,18.9-18.9h0c10.4,0,18.9,8.4,18.9,18.9
		V1794.5z"/>
	<rect x="368.8" y="1794.5" class="st2" width="6.8" height="86.8"/>
	<path class="st2" d="M398,1794.5c0,9.3,0,18,0,27.3c5.6,3.3,11.1,6.6,16.7,10c0,36.5,0.1,27.2,0.1,63.6c-2.2,0-4.5,0-6.7,0
		c0-35.1-0.1-24.5-0.1-59.7c-5.8-3.8-11.5-7.5-17.3-11.3c0-9.6,0-20.4,0-29.9"/>
	
		<rect id="NLED:_x7B__x22_colorID_x22_:_x22__x23_85FF85_x22__x7D__5_" x="373.8" y="1752.7" class="st1" width="27.8" height="22.9"/>
</g>
<g>
	<path id="DIF:diffuser_25_" class="st1" d="M457.6,1796.2h-37.7v-41.8c0-10.4,8.4-18.9,18.9-18.9h0c10.4,0,18.9,8.4,18.9,18.9
		V1796.2z"/>
	<rect x="419.9" y="1796.2" class="st2" width="6.8" height="86.8"/>
	<path class="st2" d="M449.1,1796.2c0,9.3,0,18,0,27.3c5.6,3.3,11.1,6.6,16.7,10c0,36.5,0.1,27.2,0.1,63.6c-2.2,0-4.5,0-6.7,0
		c0-35.1-0.1-24.5-0.1-59.7c-5.8-3.8-11.5-7.5-17.3-11.3c0-9.6,0-20.4,0-29.9"/>
	
		<rect id="NLED:_x7B__x22_colorID_x22_:_x22__x23_85FF85_x22__x7D__6_" x="424.9" y="1754.4" class="st1" width="27.8" height="22.9"/>
</g>
<g>
	<path id="DIF:diffuser_24_" class="st1" d="M509,1796.2h-37.7v-41.8c0-10.4,8.4-18.9,18.9-18.9h0c10.4,0,18.9,8.4,18.9,18.9V1796.2
		z"/>
	<rect x="471.3" y="1796.2" class="st2" width="6.8" height="86.8"/>
	<path class="st2" d="M500.5,1796.2c0,9.3,0,18,0,27.3c5.6,3.3,11.1,6.6,16.7,10c0,36.5,0.1,27.2,0.1,63.6c-2.2,0-4.5,0-6.7,0
		c0-35.1-0.1-24.5-0.1-59.7c-5.8-3.8-11.5-7.5-17.3-11.3c0-9.6,0-20.4,0-29.9"/>
	
		<rect id="NLED:_x7B__x22_colorID_x22_:_x22__x23_85FF85_x22__x7D__7_" x="476.3" y="1754.4" class="st1" width="27.8" height="22.9"/>
</g>
<g>
	<path id="DIF:diffuser_23_" class="st1" d="M562.9,1794.9h-37.7v-41.8c0-10.4,8.4-18.9,18.9-18.9l0,0c10.4,0,18.9,8.4,18.9,18.9
		V1794.9z"/>
	<rect x="525.2" y="1794.9" class="st2" width="6.8" height="86.8"/>
	<path class="st2" d="M554.3,1794.9c0,9.3,0,18,0,27.3c5.6,3.3,11.1,6.6,16.7,10c0,36.5,0.1,27.2,0.1,63.6c-2.2,0-4.5,0-6.7,0
		c0-35.1-0.1-24.5-0.1-59.7c-5.8-3.8-11.5-7.5-17.3-11.3c0-9.6,0-20.4,0-29.9"/>
	
		<rect id="NLED:_x7B__x22_colorID_x22_:_x22__x23_85FF85_x22__x7D__8_" x="530.1" y="1753.1" class="st1" width="27.8" height="22.9"/>
</g>
<g>
	<path id="DIF:diffuser_22_" class="st1" d="M616.7,1794.5H579v-41.8c0-10.4,8.4-18.9,18.9-18.9l0,0c10.4,0,18.9,8.4,18.9,18.9
		V1794.5z"/>
	<rect x="579" y="1794.5" class="st2" width="6.8" height="86.8"/>
	<path class="st2" d="M608.2,1794.5c0,9.3,0,18,0,27.3c5.6,3.3,11.1,6.6,16.7,10c0,36.5,0.1,27.2,0.1,63.6c-2.2,0-4.5,0-6.7,0
		c0-35.1-0.1-24.5-0.1-59.7c-5.8-3.8-11.5-7.5-17.3-11.3c0-9.6,0-20.4,0-29.9"/>
	
		<rect id="NLED:_x7B__x22_colorID_x22_:_x22__x23_85FF85_x22__x7D__9_" x="584" y="1752.7" class="st1" width="27.8" height="22.9"/>
</g>
<g>
	<path id="DIF:diffuser_21_" class="st1" d="M668.1,1794.5h-37.7v-41.8c0-10.4,8.4-18.9,18.9-18.9l0,0c10.4,0,18.9,8.4,18.9,18.9
		V1794.5z"/>
	<rect x="630.4" y="1794.5" class="st2" width="6.8" height="86.8"/>
	<path class="st2" d="M659.5,1794.5c0,9.3,0,18,0,27.3c5.6,3.3,11.1,6.6,16.7,10c0,36.5,0.1,27.2,0.1,63.6c-2.2,0-4.5,0-6.7,0
		c0-35.1-0.1-24.5-0.1-59.7c-5.8-3.8-11.5-7.5-17.3-11.3c0-9.6,0-20.4,0-29.9"/>
	
		<rect id="NLED:_x7B__x22_colorID_x22_:_x22__x23_85FF85_x22__x7D__10_" x="635.4" y="1752.7" class="st1" width="27.8" height="22.9"/>
</g>
<g>
	<path id="DIF:diffuser_20_" class="st1" d="M719.5,1794.5h-37.7v-41.8c0-10.4,8.4-18.9,18.9-18.9l0,0c10.4,0,18.9,8.4,18.9,18.9
		V1794.5z"/>
	<rect x="681.8" y="1794.5" class="st2" width="6.8" height="86.8"/>
	<path class="st2" d="M710.9,1794.5c0,9.3,0,18,0,27.3c5.6,3.3,11.1,6.6,16.7,10c0,36.5,0.1,27.2,0.1,63.6c-2.2,0-4.5,0-6.7,0
		c0-35.1-0.1-24.5-0.1-59.7c-5.8-3.8-11.5-7.5-17.3-11.3c0-9.6,0-20.4,0-29.9"/>
	
		<rect id="NLED:_x7B__x22_colorID_x22_:_x22__x23_85FF85_x22__x7D__11_" x="686.8" y="1752.7" class="st1" width="27.8" height="22.9"/>
</g>
<g>
	<path id="DIF:diffuser_19_" class="st1" d="M770.9,1794.9h-37.7v-41.8c0-10.4,8.4-18.9,18.9-18.9h0c10.4,0,18.9,8.4,18.9,18.9
		V1794.9z"/>
	<rect x="733.2" y="1794.9" class="st2" width="6.8" height="86.8"/>
	<path class="st2" d="M762.3,1794.9c0,9.3,0,18,0,27.3c5.6,3.3,11.1,6.6,16.7,10c0,36.5,0.1,27.2,0.1,63.6c-2.2,0-4.5,0-6.7,0
		c0-35.1-0.1-24.5-0.1-59.7c-5.8-3.8-11.5-7.5-17.3-11.3c0-9.6,0-20.4,0-29.9"/>
	
		<rect id="NLED:_x7B__x22_colorID_x22_:_x22__x23_85FF85_x22__x7D__12_" x="738.2" y="1753.1" class="st1" width="27.8" height="22.9"/>
</g>
<g>
	<path id="DIF:diffuser_18_" class="st1" d="M822.3,1794.5h-37.7v-41.8c0-10.4,8.4-18.9,18.9-18.9h0c10.4,0,18.9,8.4,18.9,18.9
		V1794.5z"/>
	<rect x="784.6" y="1794.5" class="st2" width="6.8" height="86.8"/>
	<path class="st2" d="M813.7,1794.5c0,9.3,0,18,0,27.3c5.6,3.3,11.1,6.6,16.7,10c0,36.5,0.1,27.2,0.1,63.6c-2.2,0-4.5,0-6.7,0
		c0-35.1-0.1-24.5-0.1-59.7c-5.8-3.8-11.5-7.5-17.3-11.3c0-9.6,0-20.4,0-29.9"/>
	
		<rect id="NLED:_x7B__x22_colorID_x22_:_x22__x23_85FF85_x22__x7D__13_" x="789.6" y="1752.7" class="st1" width="27.8" height="22.9"/>
</g>
<g>
	<path id="DIF:diffuser_17_" class="st1" d="M872.5,1794.9h-37.7v-41.8c0-10.4,8.4-18.9,18.9-18.9h0c10.4,0,18.9,8.4,18.9,18.9
		V1794.9z"/>
	<rect x="834.8" y="1794.9" class="st2" width="6.8" height="86.8"/>
	<path class="st2" d="M863.9,1794.9c0,9.3,0,18,0,27.3c5.6,3.3,11.1,6.6,16.7,10c0,36.5,0.1,27.2,0.1,63.6c-2.2,0-4.5,0-6.7,0
		c0-35.1-0.1-24.5-0.1-59.7c-5.8-3.8-11.5-7.5-17.3-11.3c0-9.6,0-20.4,0-29.9"/>
	
		<rect id="NLED:_x7B__x22_colorID_x22_:_x22__x23_85FF85_x22__x7D__14_" x="839.8" y="1753.1" class="st1" width="27.8" height="22.9"/>
</g>
<g>
	<path id="DIF:diffuser_16_" class="st1" d="M922.7,1794.5H885v-41.8c0-10.4,8.4-18.9,18.9-18.9h0c10.4,0,18.9,8.4,18.9,18.9V1794.5
		z"/>
	<rect x="885" y="1794.5" class="st2" width="6.8" height="86.8"/>
	<path class="st2" d="M914.1,1794.5c0,9.3,0,18,0,27.3c5.6,3.3,11.1,6.6,16.7,10c0,36.5,0.1,27.2,0.1,63.6c-2.2,0-4.5,0-6.7,0
		c0-35.1-0.1-24.5-0.1-59.7c-5.8-3.8-11.5-7.5-17.3-11.3c0-9.6,0-20.4,0-29.9"/>
	
		<rect id="NLED:_x7B__x22_colorID_x22_:_x22__x23_85FF85_x22__x7D__15_" x="890" y="1752.7" class="st1" width="27.8" height="22.9"/>
</g>
<g>
	<path id="DIF:diffuser_15_" class="st1" d="M974.1,1795.3h-37.7v-41.8c0-10.4,8.4-18.9,18.9-18.9h0c10.4,0,18.9,8.4,18.9,18.9
		V1795.3z"/>
	<rect x="936.4" y="1795.3" class="st2" width="6.8" height="86.8"/>
	<path class="st2" d="M965.5,1795.3c0,9.3,0,18,0,27.3c5.6,3.3,11.1,6.6,16.7,10c0,36.5,0.1,27.2,0.1,63.6c-2.2,0-4.5,0-6.7,0
		c0-35.1-0.1-24.5-0.1-59.7c-5.8-3.8-11.5-7.5-17.3-11.3c0-9.6,0-20.4,0-29.9"/>
	
		<rect id="NLED:_x7B__x22_colorID_x22_:_x22__x23_85FF85_x22__x7D__16_" x="941.4" y="1753.5" class="st1" width="27.8" height="22.9"/>
</g>
<g>
	<path id="DIF:diffuser_14_" class="st1" d="M1025.5,1795.7h-37.7v-41.8c0-10.4,8.4-18.9,18.9-18.9h0c10.4,0,18.9,8.4,18.9,18.9
		V1795.7z"/>
	<rect x="987.8" y="1795.7" class="st2" width="6.8" height="86.8"/>
	<path class="st2" d="M1016.9,1795.7c0,9.3,0,18,0,27.3c5.6,3.3,11.1,6.6,16.7,10c0,36.5,0.1,27.2,0.1,63.6c-2.2,0-4.5,0-6.7,0
		c0-35.1-0.1-24.5-0.1-59.7c-5.8-3.8-11.5-7.5-17.3-11.3c0-9.6,0-20.4,0-29.9"/>
	
		<rect id="NLED:_x7B__x22_colorID_x22_:_x22__x23_85FF85_x22__x7D__17_" x="992.8" y="1753.9" class="st1" width="27.8" height="22.9"/>
</g>
<g>
	<path id="DIF:diffuser_13_" class="st1" d="M1076.9,1794.9h-37.7v-41.8c0-10.4,8.4-18.9,18.9-18.9l0,0c10.4,0,18.9,8.4,18.9,18.9
		V1794.9z"/>
	<rect x="1039.2" y="1794.9" class="st2" width="6.8" height="86.8"/>
	<path class="st2" d="M1068.3,1794.9c0,9.3,0,18,0,27.3c5.6,3.3,11.1,6.6,16.7,10c0,36.5,0.1,27.2,0.1,63.6c-2.2,0-4.5,0-6.7,0
		c0-35.1-0.1-24.5-0.1-59.7c-5.8-3.8-11.5-7.5-17.3-11.3c0-9.6,0-20.4,0-29.9"/>
	
		<rect id="NLED:_x7B__x22_colorID_x22_:_x22__x23_85FF85_x22__x7D__18_" x="1044.2" y="1753.1" class="st1" width="27.8" height="22.9"/>
</g>
<g>
	<path id="DIF:diffuser_12_" class="st3" d="M1128.3,1794.9h-37.7v-41.8c0-10.4,8.4-18.9,18.9-18.9h0c10.4,0,18.9,8.4,18.9,18.9
		V1794.9z"/>
	<rect x="1090.6" y="1794.9" class="st2" width="6.8" height="86.8"/>
	<path class="st2" d="M1119.7,1794.9c0,9.3,0,18,0,27.3c5.6,3.3,11.1,6.6,16.7,10c0,36.5,0.1,27.2,0.1,63.6c-2.2,0-4.5,0-6.7,0
		c0-35.1-0.1-24.5-0.1-59.7c-5.8-3.8-11.5-7.5-17.3-11.3c0-9.6,0-20.4,0-29.9"/>
	
		<rect id="NLED:_x7B__x22_colorID_x22_:_x22__x23_FFF988_x22__x7D_" x="1095.5" y="1753.1" class="st3" width="27.8" height="22.9"/>
</g>
<g>
	<path id="DIF:diffuser_11_" class="st3" d="M1178.5,1794.9h-37.7v-41.8c0-10.4,8.4-18.9,18.9-18.9l0,0c10.4,0,18.9,8.4,18.9,18.9
		V1794.9z"/>
	<rect x="1140.8" y="1794.9" class="st2" width="6.8" height="86.8"/>
	<path class="st2" d="M1169.9,1794.9c0,9.3,0,18,0,27.3c5.6,3.3,11.1,6.6,16.7,10c0,36.5,0.1,27.2,0.1,63.6c-2.2,0-4.5,0-6.7,0
		c0-35.1-0.1-24.5-0.1-59.7c-5.8-3.8-11.5-7.5-17.3-11.3c0-9.6,0-20.4,0-29.9"/>
	
		<rect id="NLED:_x7B__x22_colorID_x22_:_x22__x23_FFF988_x22__x7D__1_" x="1145.8" y="1753.1" class="st3" width="27.8" height="22.9"/>
</g>
<g>
	<path id="DIF:diffuser_10_" class="st3" d="M1231.1,1796.1h-37.7v-41.8c0-10.4,8.4-18.9,18.9-18.9h0c10.4,0,18.9,8.4,18.9,18.9
		V1796.1z"/>
	<rect x="1193.4" y="1796.1" class="st2" width="6.8" height="86.8"/>
	<path class="st2" d="M1222.5,1796.1c0,9.3,0,18,0,27.3c5.6,3.3,11.1,6.6,16.7,10c0,36.5,0.1,27.2,0.1,63.6c-2.2,0-4.5,0-6.7,0
		c0-35.1-0.1-24.5-0.1-59.7c-5.8-3.8-11.5-7.5-17.3-11.3c0-9.6,0-20.4,0-29.9"/>
	
		<rect id="NLED:_x7B__x22_colorID_x22_:_x22__x23_FFF988_x22__x7D__2_" x="1198.3" y="1754.3" class="st3" width="27.8" height="22.9"/>
</g>
<g>
	<path id="DIF:diffuser_9_" class="st3" d="M1282.5,1794.9h-37.7v-41.8c0-10.4,8.4-18.9,18.9-18.9l0,0c10.4,0,18.9,8.4,18.9,18.9
		V1794.9z"/>
	<rect x="1244.8" y="1794.9" class="st2" width="6.8" height="86.8"/>
	<path class="st2" d="M1273.9,1794.9c0,9.3,0,18,0,27.3c5.6,3.3,11.1,6.6,16.7,10c0,36.5,0.1,27.2,0.1,63.6c-2.2,0-4.5,0-6.7,0
		c0-35.1-0.1-24.5-0.1-59.7c-5.8-3.8-11.5-7.5-17.3-11.3c0-9.6,0-20.4,0-29.9"/>
	
		<rect id="NLED:_x7B__x22_colorID_x22_:_x22__x23_FFF988_x22__x7D__3_" x="1249.7" y="1753.1" class="st3" width="27.8" height="22.9"/>
</g>
<g>
	<path id="DIF:diffuser_8_" class="st3" d="M1333.9,1794.9h-37.7v-41.8c0-10.4,8.4-18.9,18.9-18.9h0c10.4,0,18.9,8.4,18.9,18.9
		V1794.9z"/>
	<rect x="1296.2" y="1794.9" class="st2" width="6.8" height="86.8"/>
	<path class="st2" d="M1325.3,1794.9c0,9.3,0,18,0,27.3c5.6,3.3,11.1,6.6,16.7,10c0,36.5,0.1,27.2,0.1,63.6c-2.2,0-4.5,0-6.7,0
		c0-35.1-0.1-24.5-0.1-59.7c-5.8-3.8-11.5-7.5-17.3-11.3c0-9.6,0-20.4,0-29.9"/>
	
		<rect id="NLED:_x7B__x22_colorID_x22_:_x22__x23_FFF988_x22__x7D__4_" x="1301.1" y="1753.1" class="st3" width="27.8" height="22.9"/>
</g>
<g>
	<path id="DIF:diffuser_7_" class="st3" d="M1384.1,1794.9h-37.7v-41.8c0-10.4,8.4-18.9,18.9-18.9l0,0c10.4,0,18.9,8.4,18.9,18.9
		V1794.9z"/>
	<rect x="1346.4" y="1794.9" class="st2" width="6.8" height="86.8"/>
	<path class="st2" d="M1375.5,1794.9c0,9.3,0,18,0,27.3c5.6,3.3,11.1,6.6,16.7,10c0,36.5,0.1,27.2,0.1,63.6c-2.2,0-4.5,0-6.7,0
		c0-35.1-0.1-24.5-0.1-59.7c-5.8-3.8-11.5-7.5-17.3-11.3c0-9.6,0-20.4,0-29.9"/>
	
		<rect id="NLED:_x7B__x22_colorID_x22_:_x22__x23_FFF988_x22__x7D__5_" x="1351.3" y="1753.1" class="st3" width="27.8" height="22.9"/>
</g>
<g>
	<path id="DIF:diffuser_6_" class="st4" d="M1436.7,1794.9H1399v-41.8c0-10.4,8.4-18.9,18.9-18.9h0c10.4,0,18.9,8.4,18.9,18.9
		V1794.9z"/>
	<rect x="1399" y="1794.9" class="st2" width="6.8" height="86.8"/>
	<path class="st2" d="M1428.1,1794.9c0,9.3,0,18,0,27.3c5.6,3.3,11.1,6.6,16.7,10c0,36.5,0.1,27.2,0.1,63.6c-2.2,0-4.5,0-6.7,0
		c0-35.1-0.1-24.5-0.1-59.7c-5.8-3.8-11.5-7.5-17.3-11.3c0-9.6,0-20.4,0-29.9"/>
	
		<rect id="NLED:_x7B__x22_colorID_x22_:_x22__x23_FF8A8A_x22__x7D_" x="1403.9" y="1753.1" class="st4" width="27.8" height="22.9"/>
</g>
<g>
	<path id="DIF:diffuser_5_" class="st4" d="M1488.1,1794.9h-37.7v-41.8c0-10.4,8.4-18.9,18.9-18.9l0,0c10.4,0,18.9,8.4,18.9,18.9
		V1794.9z"/>
	<rect x="1450.4" y="1794.9" class="st2" width="6.8" height="86.8"/>
	<path class="st2" d="M1479.5,1794.9c0,9.3,0,18,0,27.3c5.6,3.3,11.1,6.6,16.7,10c0,36.5,0.1,27.2,0.1,63.6c-2.2,0-4.5,0-6.7,0
		c0-35.1-0.1-24.5-0.1-59.7c-5.8-3.8-11.5-7.5-17.3-11.3c0-9.6,0-20.4,0-29.9"/>
	
		<rect id="NLED:_x7B__x22_colorID_x22_:_x22__x23_FF8A8A_x22__x7D__1_" x="1455.3" y="1753.1" class="st4" width="27.8" height="22.9"/>
</g>
<g>
	<path id="DIF:diffuser_4_" class="st4" d="M1539.5,1794.9h-37.7v-41.8c0-10.4,8.4-18.9,18.9-18.9h0c10.4,0,18.9,8.4,18.9,18.9
		V1794.9z"/>
	<rect x="1501.8" y="1794.9" class="st2" width="6.8" height="86.8"/>
	<path class="st2" d="M1530.9,1794.9c0,9.3,0,18,0,27.3c5.6,3.3,11.1,6.6,16.7,10c0,36.5,0.1,27.2,0.1,63.6c-2.2,0-4.5,0-6.7,0
		c0-35.1-0.1-24.5-0.1-59.7c-5.8-3.8-11.5-7.5-17.3-11.3c0-9.6,0-20.4,0-29.9"/>
	
		<rect id="NLED:_x7B__x22_colorID_x22_:_x22__x23_FF8A8A_x22__x7D__2_" x="1506.7" y="1753.1" class="st4" width="27.8" height="22.9"/>
</g>
<g>
	<path id="DIF:diffuser_3_" class="st4" d="M1592.1,1794.9h-37.7v-41.8c0-10.4,8.4-18.9,18.9-18.9l0,0c10.4,0,18.9,8.4,18.9,18.9
		V1794.9z"/>
	<rect x="1554.4" y="1794.9" class="st2" width="6.8" height="86.8"/>
	<path class="st2" d="M1583.5,1794.9c0,9.3,0,18,0,27.3c5.6,3.3,11.1,6.6,16.7,10c0,36.5,0.1,27.2,0.1,63.6c-2.2,0-4.5,0-6.7,0
		c0-35.1-0.1-24.5-0.1-59.7c-5.8-3.8-11.5-7.5-17.3-11.3c0-9.6,0-20.4,0-29.9"/>
	
		<rect id="NLED:_x7B__x22_colorID_x22_:_x22__x23_FF8A8A_x22__x7D__3_" x="1559.3" y="1753.1" class="st4" width="27.8" height="22.9"/>
</g>
<g>
	<path id="DIF:diffuser_2_" class="st4" d="M1645.7,1795.9H1608v-41.8c0-10.4,8.4-18.9,18.9-18.9h0c10.4,0,18.9,8.4,18.9,18.9
		V1795.9z"/>
	<rect x="1608" y="1795.9" class="st2" width="6.8" height="86.8"/>
	<path class="st2" d="M1637.1,1795.9c0,9.3,0,18,0,27.3c5.6,3.3,11.1,6.6,16.7,10c0,36.5,0.1,27.2,0.1,63.6c-2.2,0-4.5,0-6.7,0
		c0-35.1-0.1-24.5-0.1-59.7c-5.8-3.8-11.5-7.5-17.3-11.3c0-9.6,0-20.4,0-29.9"/>
	
		<rect id="NLED:_x7B__x22_colorID_x22_:_x22__x23_FF8A8A_x22__x7D__4_" x="1612.9" y="1754.1" class="st4" width="27.8" height="22.9"/>
</g>
<g>
	<path id="DIF:diffuser_1_" class="st4" d="M1699.3,1794.9h-37.7v-41.8c0-10.4,8.4-18.9,18.9-18.9l0,0c10.4,0,18.9,8.4,18.9,18.9
		V1794.9z"/>
	<rect x="1661.6" y="1794.9" class="st2" width="6.8" height="86.8"/>
	<path class="st2" d="M1690.7,1794.9c0,9.3,0,18,0,27.3c5.6,3.3,11.1,6.6,16.7,10c0,36.5,0.1,27.2,0.1,63.6c-2.2,0-4.5,0-6.7,0
		c0-35.1-0.1-24.5-0.1-59.7c-5.8-3.8-11.5-7.5-17.3-11.3c0-9.6,0-20.4,0-29.9"/>
	
		<rect id="NLED:_x7B__x22_colorID_x22_:_x22__x23_FF8A8A_x22__x7D__5_" x="1666.5" y="1753.1" class="st4" width="27.8" height="22.9"/>
</g>
<g>
	<path id="DIF:diffuser" class="st4" d="M1752.9,1794.9h-37.7v-41.8c0-10.4,8.4-18.9,18.9-18.9h0c10.4,0,18.9,8.4,18.9,18.9V1794.9z
		"/>
	<rect x="1715.2" y="1794.9" class="st2" width="6.8" height="86.8"/>
	<path class="st2" d="M1744.3,1794.9c0,9.3,0,18,0,27.3c5.6,3.3,11.1,6.6,16.7,10c0,36.5,0.1,27.2,0.1,63.6c-2.2,0-4.5,0-6.7,0
		c0-35.1-0.1-24.5-0.1-59.7c-5.8-3.8-11.5-7.5-17.3-11.3c0-9.6,0-20.4,0-29.9"/>
	
		<rect id="NLED:_x7B__x22_colorID_x22_:_x22__x23_FF8A8A_x22__x7D__6_" x="1720.2" y="1753.1" class="st4" width="27.8" height="22.9"/>
</g>
<path class="st5" d="M1757.9,1972.7H103.8c-17.6,0-31.9-14.3-31.9-31.9v-70.7c0-17.6,14.3-31.9,31.9-31.9h1654.1
	c17.6,0,31.9,14.3,31.9,31.9v70.7C1789.8,1958.4,1775.5,1972.7,1757.9,1972.7z"/>
<ellipse id="BI:_Breakin" class="st6" cx="955.3" cy="1765.7" rx="5.6" ry="5.7"/>
<ellipse id="BI:_Breakin_1_" class="st6" cx="903.9" cy="1765.7" rx="5.6" ry="5.7"/>
<line id="CP:_CircuitPath1_1_" class="st7" x1="955.3" y1="1765.3" x2="1734.1" y2="1765.3"/>
<line id="CP:_CircuitPath0" class="st7" x1="903.9" y1="1765.7" x2="129.1" y2="1765.5"/>
</svg>
