<?xml version="1.0" encoding="utf-8"?>
<!-- Generator: Adobe Illustrator 19.2.1, SVG Export Plug-In . SVG Version: 6.00 Build 0)  -->
<svg version="1.1" id="ELD:_Linear_Testbed" xmlns="http://www.w3.org/2000/svg" xmlns:xlink="http://www.w3.org/1999/xlink"
	 x="0px" y="0px" viewBox="0 0 780 648.4" style="enable-background:new 0 0 780 648.4;" xml:space="preserve">
<style type="text/css">
	.st0{fill:#FFFFFF;stroke:#231F20;stroke-miterlimit:10;}
	.st1{fill:#FFFFFF;stroke:#231F20;stroke-width:2;stroke-miterlimit:10;}
	.st2{fill:#85FF85;stroke:#000000;stroke-miterlimit:10;}
	.st3{fill:#8E8E8E;stroke:#000000;stroke-miterlimit:10;}
	.st4{fill:#FFF988;stroke:#000000;stroke-miterlimit:10;}
	.st5{fill:#FF8A8A;stroke:#000000;stroke-miterlimit:10;}
	.st6{fill:#FFFF00;}
	.st7{fill:none;stroke:#FFFF00;stroke-miterlimit:10;}
</style>
<path class="st0" d="M699.4,527.5H40.8c-7,0-12.7-4.7-12.7-10.4V185.3c0-5.8,5.7-10.4,12.7-10.4h658.6c7,0,12.7,4.7,12.7,10.4v331.8
	C712.1,522.8,706.5,527.5,699.4,527.5z"/>
<path class="st1" d="M697.2,577.7H38.6c-7,0-12.7-4.7-12.7-10.4v-23.2c0-5.8,5.7-10.4,12.7-10.4h658.6c7,0,12.7,4.7,12.7,10.4v23.2
	C709.9,573,704.2,577.7,697.2,577.7z"/>
<g id="ELD:_Driver1">
	<g>
		<path id="DIF:diffuser_15_" class="st2" d="M385.1,519.6h-15v-13.7c0-3.4,3.3-6.2,7.5-6.2l0,0c4.1,0,7.5,2.8,7.5,6.2L385.1,519.6
			L385.1,519.6z"/>
		<rect x="370.1" y="519.6" class="st3" width="2.7" height="28.4"/>
		<path class="st3" d="M381.7,519.6c0,3,0,5.9,0,8.9c2.2,1.1,4.4,2.2,6.6,3.3c0,12,0,8.9,0,20.8c-0.9,0-1.8,0-2.7,0
			c0-11.5,0-8,0-19.6c-2.3-1.2-4.6-2.5-6.9-3.7c0-3.1,0-6.7,0-9.8"/>
		
			<rect id="NLED:_x7B__x22_colorID_x22_:_x22__x23_85FF85_x22__x7D__16_" x="372.1" y="505.9" class="st2" width="11.1" height="7.5"/>
	</g>
	<g>
		<path id="DIF:diffuser_14_" class="st2" d="M405.6,519.7h-15V506c0-3.4,3.3-6.2,7.5-6.2l0,0c4.1,0,7.5,2.8,7.5,6.2L405.6,519.7
			L405.6,519.7z"/>
		<rect x="390.6" y="519.7" class="st3" width="2.7" height="28.4"/>
		<path class="st3" d="M402.2,519.7c0,3,0,5.9,0,8.9c2.2,1.1,4.4,2.2,6.6,3.3c0,12,0,8.9,0,20.8c-0.9,0-1.8,0-2.7,0
			c0-11.5,0-8,0-19.6c-2.3-1.2-4.6-2.5-6.9-3.7c0-3.1,0-6.7,0-9.8"/>
		
			<rect id="NLED:_x7B__x22_colorID_x22_:_x22__x23_85FF85_x22__x7D__17_" x="392.6" y="506" class="st2" width="11.1" height="7.5"/>
	</g>
	<g>
		<path id="DIF:diffuser_13_" class="st2" d="M426.1,519.5h-15v-13.7c0-3.4,3.3-6.2,7.5-6.2l0,0c4.1,0,7.5,2.8,7.5,6.2L426.1,519.5
			L426.1,519.5z"/>
		<rect x="411" y="519.5" class="st3" width="2.7" height="28.4"/>
		<path class="st3" d="M422.6,519.5c0,3,0,5.9,0,8.9c2.2,1.1,4.4,2.2,6.6,3.3c0,12,0,8.9,0,20.8c-0.9,0-1.8,0-2.7,0
			c0-11.5,0-8,0-19.6c-2.3-1.2-4.6-2.5-6.9-3.7c0-3.1,0-6.7,0-9.8"/>
		
			<rect id="NLED:_x7B__x22_colorID_x22_:_x22__x23_85FF85_x22__x7D__18_" x="413" y="505.8" class="st2" width="11.1" height="7.5"/>
	</g>
	<g>
		<path id="DIF:diffuser_12_" class="st4" d="M446.5,519.5h-15v-13.7c0-3.4,3.3-6.2,7.5-6.2l0,0c4.1,0,7.5,2.8,7.5,6.2L446.5,519.5
			L446.5,519.5z"/>
		<rect x="431.5" y="519.5" class="st3" width="2.7" height="28.4"/>
		<path class="st3" d="M443.1,519.5c0,3,0,5.9,0,8.9c2.2,1.1,4.4,2.2,6.6,3.3c0,12,0,8.9,0,20.8c-0.9,0-1.8,0-2.7,0
			c0-11.5,0-8,0-19.6c-2.3-1.2-4.6-2.5-6.9-3.7c0-3.1,0-6.7,0-9.8"/>
		<rect id="NLED:_x7B__x22_colorID_x22_:_x22__x23_FFF988_x22__x7D_" x="433.5" y="505.8" class="st4" width="11.1" height="7.5"/>
	</g>
	<g>
		<path id="DIF:diffuser_11_" class="st4" d="M466.5,519.5h-15v-13.7c0-3.4,3.3-6.2,7.5-6.2l0,0c4.1,0,7.5,2.8,7.5,6.2L466.5,519.5
			L466.5,519.5z"/>
		<rect x="451.5" y="519.5" class="st3" width="2.7" height="28.4"/>
		<path class="st3" d="M463.1,519.5c0,3,0,5.9,0,8.9c2.2,1.1,4.4,2.2,6.6,3.3c0,12,0,8.9,0,20.8c-0.9,0-1.8,0-2.7,0
			c0-11.5,0-8,0-19.6c-2.3-1.2-4.6-2.5-6.9-3.7c0-3.1,0-6.7,0-9.8"/>
		
			<rect id="NLED:_x7B__x22_colorID_x22_:_x22__x23_FFF988_x22__x7D__1_" x="453.5" y="505.8" class="st4" width="11.1" height="7.5"/>
	</g>
	<g>
		<path id="DIF:diffuser_10_" class="st4" d="M487.5,519.9h-15v-13.7c0-3.4,3.3-6.2,7.5-6.2l0,0c4.1,0,7.5,2.8,7.5,6.2L487.5,519.9
			L487.5,519.9z"/>
		<rect x="472.4" y="519.9" class="st3" width="2.7" height="28.4"/>
		<path class="st3" d="M484,519.9c0,3,0,5.9,0,8.9c2.2,1.1,4.4,2.2,6.6,3.3c0,12,0,8.9,0,20.8c-0.9,0-1.8,0-2.7,0c0-11.5,0-8,0-19.6
			c-2.3-1.2-4.6-2.5-6.9-3.7c0-3.1,0-6.7,0-9.8"/>
		
			<rect id="NLED:_x7B__x22_colorID_x22_:_x22__x23_FFF988_x22__x7D__2_" x="474.4" y="506.2" class="st4" width="11.1" height="7.5"/>
	</g>
	<g>
		<path id="DIF:diffuser_9_" class="st4" d="M507.9,519.5h-15v-13.7c0-3.4,3.3-6.2,7.5-6.2l0,0c4.1,0,7.5,2.8,7.5,6.2L507.9,519.5
			L507.9,519.5z"/>
		<rect x="492.9" y="519.5" class="st3" width="2.7" height="28.4"/>
		<path class="st3" d="M504.5,519.5c0,3,0,5.9,0,8.9c2.2,1.1,4.4,2.2,6.6,3.3c0,12,0,8.9,0,20.8c-0.9,0-1.8,0-2.7,0
			c0-11.5,0-8,0-19.6c-2.3-1.2-4.6-2.5-6.9-3.7c0-3.1,0-6.7,0-9.8"/>
		
			<rect id="NLED:_x7B__x22_colorID_x22_:_x22__x23_FFF988_x22__x7D__3_" x="494.9" y="505.8" class="st4" width="11.1" height="7.5"/>
	</g>
	<g>
		<path id="DIF:diffuser_8_" class="st4" d="M528.4,519.5h-15v-13.7c0-3.4,3.3-6.2,7.5-6.2l0,0c4.1,0,7.5,2.8,7.5,6.2L528.4,519.5
			L528.4,519.5z"/>
		<rect x="513.4" y="519.5" class="st3" width="2.7" height="28.4"/>
		<path class="st3" d="M525,519.5c0,3,0,5.9,0,8.9c2.2,1.1,4.4,2.2,6.6,3.3c0,12,0,8.9,0,20.8c-0.9,0-1.8,0-2.7,0c0-11.5,0-8,0-19.6
			c-2.3-1.2-4.6-2.5-6.9-3.7c0-3.1,0-6.7,0-9.8"/>
		
			<rect id="NLED:_x7B__x22_colorID_x22_:_x22__x23_FFF988_x22__x7D__4_" x="515.3" y="505.8" class="st4" width="11.1" height="7.5"/>
	</g>
	<g>
		<path id="DIF:diffuser_7_" class="st4" d="M548.4,519.5h-15v-13.7c0-3.4,3.3-6.2,7.5-6.2l0,0c4.1,0,7.5,2.8,7.5,6.2L548.4,519.5
			L548.4,519.5z"/>
		<rect x="533.4" y="519.5" class="st3" width="2.7" height="28.4"/>
		<path class="st3" d="M545,519.5c0,3,0,5.9,0,8.9c2.2,1.1,4.4,2.2,6.6,3.3c0,12,0,8.9,0,20.8c-0.9,0-1.8,0-2.7,0c0-11.5,0-8,0-19.6
			c-2.3-1.2-4.6-2.5-6.9-3.7c0-3.1,0-6.7,0-9.8"/>
		
			<rect id="NLED:_x7B__x22_colorID_x22_:_x22__x23_FFF988_x22__x7D__5_" x="535.3" y="505.8" class="st4" width="11.1" height="7.5"/>
	</g>
	<g>
		<path id="DIF:diffuser_6_" class="st5" d="M569.3,519.5h-15v-13.7c0-3.4,3.3-6.2,7.5-6.2l0,0c4.1,0,7.5,2.8,7.5,6.2L569.3,519.5
			L569.3,519.5z"/>
		<rect x="554.3" y="519.5" class="st3" width="2.7" height="28.4"/>
		<path class="st3" d="M565.9,519.5c0,3,0,5.9,0,8.9c2.2,1.1,4.4,2.2,6.6,3.3c0,12,0,8.9,0,20.8c-0.9,0-1.8,0-2.7,0
			c0-11.5,0-8,0-19.6c-2.3-1.2-4.6-2.5-6.9-3.7c0-3.1,0-6.7,0-9.8"/>
		<rect id="NLED:_x7B__x22_colorID_x22_:_x22__x23_FF8A8A_x22__x7D_" x="556.3" y="505.8" class="st5" width="11.1" height="7.5"/>
	</g>
	<g>
		<path id="DIF:diffuser_5_" class="st5" d="M589.8,519.5h-15v-13.7c0-3.4,3.3-6.2,7.5-6.2l0,0c4.1,0,7.5,2.8,7.5,6.2L589.8,519.5
			L589.8,519.5z"/>
		<rect x="574.8" y="519.5" class="st3" width="2.7" height="28.4"/>
		<path class="st3" d="M586.4,519.5c0,3,0,5.9,0,8.9c2.2,1.1,4.4,2.2,6.6,3.3c0,12,0,8.9,0,20.8c-0.9,0-1.8,0-2.7,0
			c0-11.5,0-8,0-19.6c-2.3-1.2-4.6-2.5-6.9-3.7c0-3.1,0-6.7,0-9.8"/>
		
			<rect id="NLED:_x7B__x22_colorID_x22_:_x22__x23_FF8A8A_x22__x7D__1_" x="576.7" y="505.8" class="st5" width="11.1" height="7.5"/>
	</g>
	<g>
		<path id="DIF:diffuser_4_" class="st5" d="M610.3,519.5h-15v-13.7c0-3.4,3.3-6.2,7.5-6.2l0,0c4.1,0,7.5,2.8,7.5,6.2L610.3,519.5
			L610.3,519.5z"/>
		<rect x="595.2" y="519.5" class="st3" width="2.7" height="28.4"/>
		<path class="st3" d="M606.8,519.5c0,3,0,5.9,0,8.9c2.2,1.1,4.4,2.2,6.6,3.3c0,12,0,8.9,0,20.8c-0.9,0-1.8,0-2.7,0
			c0-11.5,0-8,0-19.6c-2.3-1.2-4.6-2.5-6.9-3.7c0-3.1,0-6.7,0-9.8"/>
		
			<rect id="NLED:_x7B__x22_colorID_x22_:_x22__x23_FF8A8A_x22__x7D__2_" x="597.2" y="505.8" class="st5" width="11.1" height="7.5"/>
	</g>
	<g>
		<path id="DIF:diffuser_3_" class="st5" d="M631.2,519.5h-15v-13.7c0-3.4,3.3-6.2,7.5-6.2l0,0c4.1,0,7.5,2.8,7.5,6.2L631.2,519.5
			L631.2,519.5z"/>
		<rect x="616.2" y="519.5" class="st3" width="2.7" height="28.4"/>
		<path class="st3" d="M627.8,519.5c0,3,0,5.9,0,8.9c2.2,1.1,4.4,2.2,6.6,3.3c0,12,0,8.9,0,20.8c-0.9,0-1.8,0-2.7,0
			c0-11.5,0-8,0-19.6c-2.3-1.2-4.6-2.5-6.9-3.7c0-3.1,0-6.7,0-9.8"/>
		
			<rect id="NLED:_x7B__x22_colorID_x22_:_x22__x23_FF8A8A_x22__x7D__3_" x="618.1" y="505.8" class="st5" width="11.1" height="7.5"/>
	</g>
	<g>
		<path id="DIF:diffuser_2_" class="st5" d="M652.5,519.8h-15v-13.7c0-3.4,3.3-6.2,7.5-6.2l0,0c4.1,0,7.5,2.8,7.5,6.2L652.5,519.8
			L652.5,519.8z"/>
		<rect x="637.5" y="519.8" class="st3" width="2.7" height="28.4"/>
		<path class="st3" d="M649.1,519.8c0,3,0,5.9,0,8.9c2.2,1.1,4.4,2.2,6.6,3.3c0,12,0,8.9,0,20.8c-0.9,0-1.8,0-2.7,0
			c0-11.5,0-8,0-19.6c-2.3-1.2-4.6-2.5-6.9-3.7c0-3.1,0-6.7,0-9.8"/>
		
			<rect id="NLED:_x7B__x22_colorID_x22_:_x22__x23_FF8A8A_x22__x7D__4_" x="639.5" y="506.1" class="st5" width="11.1" height="7.5"/>
	</g>
	<g>
		<path id="DIF:diffuser_1_" class="st5" d="M673.9,519.5h-15v-13.7c0-3.4,3.3-6.2,7.5-6.2l0,0c4.1,0,7.5,2.8,7.5,6.2L673.9,519.5
			L673.9,519.5z"/>
		<rect x="658.9" y="519.5" class="st3" width="2.7" height="28.4"/>
		<path class="st3" d="M670.5,519.5c0,3,0,5.9,0,8.9c2.2,1.1,4.4,2.2,6.6,3.3c0,12,0,8.9,0,20.8c-0.9,0-1.8,0-2.7,0
			c0-11.5,0-8,0-19.6c-2.3-1.2-4.6-2.5-6.9-3.7c0-3.1,0-6.7,0-9.8"/>
		
			<rect id="NLED:_x7B__x22_colorID_x22_:_x22__x23_FF8A8A_x22__x7D__5_" x="660.8" y="505.8" class="st5" width="11.1" height="7.5"/>
	</g>
	<g>
		<path id="DIF:diffuser" class="st5" d="M695.2,519.5h-15v-13.7c0-3.4,3.3-6.2,7.5-6.2l0,0c4.1,0,7.5,2.8,7.5,6.2L695.2,519.5
			L695.2,519.5z"/>
		<rect x="680.2" y="519.5" class="st3" width="2.7" height="28.4"/>
		<path class="st3" d="M691.8,519.5c0,3,0,5.9,0,8.9c2.2,1.1,4.4,2.2,6.6,3.3c0,12,0,8.9,0,20.8c-0.9,0-1.8,0-2.7,0
			c0-11.5,0-8,0-19.6c-2.3-1.2-4.6-2.5-6.9-3.7c0-3.1,0-6.7,0-9.8"/>
		
			<rect id="NLED:_x7B__x22_colorID_x22_:_x22__x23_FF8A8A_x22__x7D__6_" x="682.2" y="505.8" class="st5" width="11.1" height="7.5"/>
	</g>
	<ellipse id="BI:_Breakin" class="st6" cx="377.6" cy="509.9" rx="2.2" ry="1.9"/>
	<line id="CP:_CircuitPath1_1_" class="st7" x1="377.6" y1="509.8" x2="687.7" y2="509.8"/>
</g>
<g id="DEVICE:_x7B__x22_id_x22_:_x22_1_x22__x7D_">
	<g>
		<path id="DIF:diffuser_31_" class="st2" d="M56.2,519.8h-15v-13.7c0-3.4,3.3-6.2,7.5-6.2l0,0c4.1,0,7.5,2.8,7.5,6.2L56.2,519.8
			L56.2,519.8z"/>
		<rect x="41.2" y="519.8" class="st3" width="2.7" height="28.4"/>
		<path class="st3" d="M52.8,519.8c0,3,0,5.9,0,8.9c2.2,1.1,4.4,2.2,6.6,3.3c0,12,0,8.9,0,20.8c-0.9,0-1.8,0-2.7,0
			c0-11.5,0-8,0-19.6c-2.3-1.2-4.6-2.5-6.9-3.7c0-3.1,0-6.7,0-9.8"/>
		<rect id="NLED:_x7B__x22_colorID_x22_:_x22__x23_85FF85_x22__x7D_" x="43.1" y="506.1" class="st2" width="11.1" height="7.5"/>
	</g>
	<g>
		<path id="DIF:diffuser_30_" class="st2" d="M77.6,519.9h-15v-13.7c0-3.4,3.3-6.2,7.5-6.2l0,0c4.1,0,7.5,2.8,7.5,6.2L77.6,519.9
			L77.6,519.9z"/>
		<rect x="62.6" y="519.9" class="st3" width="2.7" height="28.4"/>
		<path class="st3" d="M74.2,519.9c0,3,0,5.9,0,8.9c2.2,1.1,4.4,2.2,6.6,3.3c0,12,0,8.9,0,20.8c-0.9,0-1.8,0-2.7,0
			c0-11.5,0-8,0-19.6c-2.3-1.2-4.6-2.5-6.9-3.7c0-3.1,0-6.7,0-9.8"/>
		
			<rect id="NLED:_x7B__x22_colorID_x22_:_x22__x23_85FF85_x22__x7D__1_" x="64.6" y="506.2" class="st2" width="11.1" height="7.5"/>
	</g>
	<g>
		<path id="DIF:diffuser_29_" class="st2" d="M98.1,519.9h-15v-13.7c0-3.4,3.3-6.2,7.5-6.2l0,0c4.1,0,7.5,2.8,7.5,6.2L98.1,519.9
			L98.1,519.9z"/>
		<rect x="83.1" y="519.9" class="st3" width="2.7" height="28.4"/>
		<path class="st3" d="M94.7,519.9c0,3,0,5.9,0,8.9c2.2,1.1,4.4,2.2,6.6,3.3c0,12,0,8.9,0,20.8c-0.9,0-1.8,0-2.7,0
			c0-11.5,0-8,0-19.6c-2.3-1.2-4.6-2.5-6.9-3.7c0-3.1,0-6.7,0-9.8"/>
		
			<rect id="NLED:_x7B__x22_colorID_x22_:_x22__x23_85FF85_x22__x7D__2_" x="85.1" y="506.2" class="st2" width="11.1" height="7.5"/>
	</g>
	<g>
		<path id="DIF:diffuser_28_" class="st2" d="M118.4,519.2h-15v-13.7c0-3.4,3.3-6.2,7.5-6.2l0,0c4.1,0,7.5,2.8,7.5,6.2L118.4,519.2
			L118.4,519.2z"/>
		<rect x="103.4" y="519.2" class="st3" width="2.7" height="28.4"/>
		<path class="st3" d="M115.1,519.2c0,3,0,5.9,0,8.9c2.2,1.1,4.4,2.2,6.6,3.3c0,12,0,8.9,0,20.8c-0.9,0-1.8,0-2.7,0
			c0-11.5,0-8,0-19.6c-2.3-1.2-4.6-2.5-6.9-3.7c0-3.1,0-6.7,0-9.8"/>
		
			<rect id="NLED:_x7B__x22_colorID_x22_:_x22__x23_85FF85_x22__x7D__3_" x="105.4" y="505.5" class="st2" width="11.1" height="7.5"/>
	</g>
	<g>
		<path id="DIF:diffuser_27_" class="st2" d="M138.8,519.3h-15v-13.7c0-3.4,3.3-6.2,7.5-6.2l0,0c4.1,0,7.5,2.8,7.5,6.2L138.8,519.3
			L138.8,519.3z"/>
		<rect x="123.8" y="519.3" class="st3" width="2.7" height="28.4"/>
		<path class="st3" d="M135.4,519.3c0,3,0,5.9,0,8.9c2.2,1.1,4.4,2.2,6.6,3.3c0,12,0,8.9,0,20.8c-0.9,0-1.8,0-2.7,0
			c0-11.5,0-8,0-19.6c-2.3-1.2-4.6-2.5-6.9-3.7c0-3.1,0-6.7,0-9.8"/>
		
			<rect id="NLED:_x7B__x22_colorID_x22_:_x22__x23_85FF85_x22__x7D__4_" x="125.8" y="505.6" class="st2" width="11.1" height="7.5"/>
	</g>
	<g>
		<path id="DIF:diffuser_26_" class="st2" d="M159.1,519.3h-15v-13.7c0-3.4,3.3-6.2,7.5-6.2l0,0c4.1,0,7.5,2.8,7.5,6.2L159.1,519.3
			L159.1,519.3z"/>
		<rect x="144.1" y="519.3" class="st3" width="2.7" height="28.4"/>
		<path class="st3" d="M155.7,519.3c0,3,0,5.9,0,8.9c2.2,1.1,4.4,2.2,6.6,3.3c0,12,0,8.9,0,20.8c-0.9,0-1.8,0-2.7,0
			c0-11.5,0-8,0-19.6c-2.3-1.2-4.6-2.5-6.9-3.7c0-3.1,0-6.7,0-9.8"/>
		
			<rect id="NLED:_x7B__x22_colorID_x22_:_x22__x23_85FF85_x22__x7D__5_" x="146.1" y="505.6" class="st2" width="11.1" height="7.5"/>
	</g>
	<g>
		<path id="DIF:diffuser_25_" class="st2" d="M179.5,519.9h-15v-13.7c0-3.4,3.3-6.2,7.5-6.2l0,0c4.1,0,7.5,2.8,7.5,6.2L179.5,519.9
			L179.5,519.9z"/>
		<rect x="164.5" y="519.9" class="st3" width="2.7" height="28.4"/>
		<path class="st3" d="M176.1,519.9c0,3,0,5.9,0,8.9c2.2,1.1,4.4,2.2,6.6,3.3c0,12,0,8.9,0,20.8c-0.9,0-1.8,0-2.7,0
			c0-11.5,0-8,0-19.6c-2.3-1.2-4.6-2.5-6.9-3.7c0-3.1,0-6.7,0-9.8"/>
		
			<rect id="NLED:_x7B__x22_colorID_x22_:_x22__x23_85FF85_x22__x7D__6_" x="166.5" y="506.2" class="st2" width="11.1" height="7.5"/>
	</g>
	<g>
		<path id="DIF:diffuser_24_" class="st2" d="M199.9,519.9h-15v-13.7c0-3.4,3.3-6.2,7.5-6.2l0,0c4.1,0,7.5,2.8,7.5,6.2L199.9,519.9
			L199.9,519.9z"/>
		<rect x="184.9" y="519.9" class="st3" width="2.7" height="28.4"/>
		<path class="st3" d="M196.6,519.9c0,3,0,5.9,0,8.9c2.2,1.1,4.4,2.2,6.6,3.3c0,12,0,8.9,0,20.8c-0.9,0-1.8,0-2.7,0
			c0-11.5,0-8,0-19.6c-2.3-1.2-4.6-2.5-6.9-3.7c0-3.1,0-6.7,0-9.8"/>
		
			<rect id="NLED:_x7B__x22_colorID_x22_:_x22__x23_85FF85_x22__x7D__7_" x="186.9" y="506.2" class="st2" width="11.1" height="7.5"/>
	</g>
	<g>
		<path id="DIF:diffuser_23_" class="st2" d="M221.4,519.5h-15v-13.7c0-3.4,3.3-6.2,7.5-6.2l0,0c4.1,0,7.5,2.8,7.5,6.2L221.4,519.5
			L221.4,519.5z"/>
		<rect x="206.4" y="519.5" class="st3" width="2.7" height="28.4"/>
		<path class="st3" d="M218,519.5c0,3,0,5.9,0,8.9c2.2,1.1,4.4,2.2,6.6,3.3c0,12,0,8.9,0,20.8c-0.9,0-1.8,0-2.7,0c0-11.5,0-8,0-19.6
			c-2.3-1.2-4.6-2.5-6.9-3.7c0-3.1,0-6.7,0-9.8"/>
		
			<rect id="NLED:_x7B__x22_colorID_x22_:_x22__x23_85FF85_x22__x7D__8_" x="208.3" y="505.8" class="st2" width="11.1" height="7.5"/>
	</g>
	<g>
		<path id="DIF:diffuser_22_" class="st2" d="M242.8,519.3h-15v-13.7c0-3.4,3.3-6.2,7.5-6.2l0,0c4.1,0,7.5,2.8,7.5,6.2L242.8,519.3
			L242.8,519.3z"/>
		<rect x="227.8" y="519.3" class="st3" width="2.7" height="28.4"/>
		<path class="st3" d="M239.4,519.3c0,3,0,5.9,0,8.9c2.2,1.1,4.4,2.2,6.6,3.3c0,12,0,8.9,0,20.8c-0.9,0-1.8,0-2.7,0
			c0-11.5,0-8,0-19.6c-2.3-1.2-4.6-2.5-6.9-3.7c0-3.1,0-6.7,0-9.8"/>
		
			<rect id="NLED:_x7B__x22_colorID_x22_:_x22__x23_85FF85_x22__x7D__9_" x="229.8" y="505.6" class="st2" width="11.1" height="7.5"/>
	</g>
	<g>
		<path id="DIF:diffuser_21_" class="st2" d="M263.3,519.3h-15v-13.7c0-3.4,3.3-6.2,7.5-6.2l0,0c4.1,0,7.5,2.8,7.5,6.2L263.3,519.3
			L263.3,519.3z"/>
		<rect x="248.3" y="519.3" class="st3" width="2.7" height="28.4"/>
		<path class="st3" d="M259.9,519.3c0,3,0,5.9,0,8.9c2.2,1.1,4.4,2.2,6.6,3.3c0,12,0,8.9,0,20.8c-0.9,0-1.8,0-2.7,0
			c0-11.5,0-8,0-19.6c-2.3-1.2-4.6-2.5-6.9-3.7c0-3.1,0-6.7,0-9.8"/>
		
			<rect id="NLED:_x7B__x22_colorID_x22_:_x22__x23_85FF85_x22__x7D__10_" x="250.3" y="505.6" class="st2" width="11.1" height="7.5"/>
	</g>
	<g>
		<path id="DIF:diffuser_20_" class="st2" d="M283.8,519.3h-15v-13.7c0-3.4,3.3-6.2,7.5-6.2l0,0c4.1,0,7.5,2.8,7.5,6.2L283.8,519.3
			L283.8,519.3z"/>
		<rect x="268.7" y="519.3" class="st3" width="2.7" height="28.4"/>
		<path class="st3" d="M280.3,519.3c0,3,0,5.9,0,8.9c2.2,1.1,4.4,2.2,6.6,3.3c0,12,0,8.9,0,20.8c-0.9,0-1.8,0-2.7,0
			c0-11.5,0-8,0-19.6c-2.3-1.2-4.6-2.5-6.9-3.7c0-3.1,0-6.7,0-9.8"/>
		
			<rect id="NLED:_x7B__x22_colorID_x22_:_x22__x23_85FF85_x22__x7D__11_" x="270.7" y="505.6" class="st2" width="11.1" height="7.5"/>
	</g>
	<g>
		<path id="DIF:diffuser_19_" class="st2" d="M304.2,519.5h-15v-13.7c0-3.4,3.3-6.2,7.5-6.2l0,0c4.1,0,7.5,2.8,7.5,6.2L304.2,519.5
			L304.2,519.5z"/>
		<rect x="289.2" y="519.5" class="st3" width="2.7" height="28.4"/>
		<path class="st3" d="M300.8,519.5c0,3,0,5.9,0,8.9c2.2,1.1,4.4,2.2,6.6,3.3c0,12,0,8.9,0,20.8c-0.9,0-1.8,0-2.7,0
			c0-11.5,0-8,0-19.6c-2.3-1.2-4.6-2.5-6.9-3.7c0-3.1,0-6.7,0-9.8"/>
		
			<rect id="NLED:_x7B__x22_colorID_x22_:_x22__x23_85FF85_x22__x7D__12_" x="291.2" y="505.8" class="st2" width="11.1" height="7.5"/>
	</g>
	<g>
		<path id="DIF:diffuser_18_" class="st2" d="M324.7,519.3h-15v-13.7c0-3.4,3.3-6.2,7.5-6.2l0,0c4.1,0,7.5,2.8,7.5,6.2L324.7,519.3
			L324.7,519.3z"/>
		<rect x="309.7" y="519.3" class="st3" width="2.7" height="28.4"/>
		<path class="st3" d="M321.3,519.3c0,3,0,5.9,0,8.9c2.2,1.1,4.4,2.2,6.6,3.3c0,12,0,8.9,0,20.8c-0.9,0-1.8,0-2.7,0
			c0-11.5,0-8,0-19.6c-2.3-1.2-4.6-2.5-6.9-3.7c0-3.1,0-6.7,0-9.8"/>
		
			<rect id="NLED:_x7B__x22_colorID_x22_:_x22__x23_85FF85_x22__x7D__13_" x="311.7" y="505.6" class="st2" width="11.1" height="7.5"/>
	</g>
	<g>
		<path id="DIF:diffuser_17_" class="st2" d="M344.7,519.5h-15v-13.7c0-3.4,3.3-6.2,7.5-6.2l0,0c4.1,0,7.5,2.8,7.5,6.2L344.7,519.5
			L344.7,519.5z"/>
		<rect x="329.7" y="519.5" class="st3" width="2.7" height="28.4"/>
		<path class="st3" d="M341.2,519.5c0,3,0,5.9,0,8.9c2.2,1.1,4.4,2.2,6.6,3.3c0,12,0,8.9,0,20.8c-0.9,0-1.8,0-2.7,0
			c0-11.5,0-8,0-19.6c-2.3-1.2-4.6-2.5-6.9-3.7c0-3.1,0-6.7,0-9.8"/>
		
			<rect id="NLED:_x7B__x22_colorID_x22_:_x22__x23_85FF85_x22__x7D__14_" x="331.7" y="505.8" class="st2" width="11.1" height="7.5"/>
	</g>
	<g>
		<path id="DIF:diffuser_16_" class="st2" d="M364.7,519.3h-15v-13.7c0-3.4,3.3-6.2,7.5-6.2l0,0c4.1,0,7.5,2.8,7.5,6.2L364.7,519.3
			L364.7,519.3z"/>
		<rect x="349.7" y="519.3" class="st3" width="2.7" height="28.4"/>
		<path class="st3" d="M361.2,519.3c0,3,0,5.9,0,8.9c2.2,1.1,4.4,2.2,6.6,3.3c0,12,0,8.9,0,20.8c-0.9,0-1.8,0-2.7,0
			c0-11.5,0-8,0-19.6c-2.3-1.2-4.6-2.5-6.9-3.7c0-3.1,0-6.7,0-9.8"/>
		
			<rect id="NLED:_x7B__x22_colorID_x22_:_x22__x23_85FF85_x22__x7D__15_" x="351.6" y="505.6" class="st2" width="11.1" height="7.5"/>
	</g>
	<ellipse id="BI:_Breakin0" class="st6" cx="357.2" cy="509.9" rx="2.2" ry="1.9"/>
	<line id="CP:_CircuitPath0" class="st7" x1="357.2" y1="509.9" x2="48.7" y2="509.8"/>
</g>
</svg>
