<svg id="Layer_1" data-name="Layer 1" xmlns="http://www.w3.org/2000/svg" width="61.59" height="60.29" viewBox="0 0 61.59 60.29"><defs><style>.cls-1{fill:#302823;}.cls-2{fill:#51443b;}.cls-3{fill:#3f352e;}.cls-4{fill:#211b18;}</style></defs><title>ship</title><g id="ANCHOR:_An_anchor_of_a_ship" data-name="ANCHOR: An anchor of a ship"><path class="cls-1" d="M61.58,43.47c-0.9-1.42-3.37-4.07-4.35-3.75a25,25,0,0,0-1.7,5.56c-0.06.59,1,.75,1,1.25a6.81,6.81,0,0,1-.8,3.37C50.39,44,32.51,24.09,31.94,23.56c-1.43-1.32-1.07-6.36-1.07-6.36l-8.58,8.18,4.66,0.41a1.76,1.76,0,0,1,1.15.57L53.1,54a9.52,9.52,0,0,1-1.89,1c-1.72.7-6.39,1.85-7.17,1S43,55,42,55.2a6.86,6.86,0,0,0-2.71,1.4s2,4.25,3.44,3.06c0.7-.58,1.72.5,2.38,0.56,3.16,0.3,8.49-.25,12.14-2.75,2.87-2,3.79-9.53,3.86-12.69C61.11,44.12,61.69,43.65,61.58,43.47Z"/><path class="cls-2" d="M24.68,10.11l-2.35,2.12a10.47,10.47,0,0,0-1.9-3.59c-2.23-2.8-5.24-4.12-6.72-2.94S12.82,10.11,15,12.92a10.26,10.26,0,0,0,3.38,2.84l-1.54,1.39,6.52,7.22,7.79-7Z"/><rect class="cls-3" x="14.82" y="18.7" width="6.4" height="8.97" transform="translate(-10.89 18.06) rotate(-42.09)"/><ellipse class="cls-4" cx="17.75" cy="9.06" rx="0.58" ry="2.55" transform="matrix(0.78, -0.62, 0.62, 0.78, -1.78, 13.02)"/><rect class="cls-1" x="8.27" y="24.77" width="9.31" height="6.61" transform="translate(-15.49 15.9) rotate(-42.09)"/><rect class="cls-4" x="1.67" y="31.48" width="9.31" height="5.42" transform="translate(-21.29 13.06) rotate(-42.09)"/><rect class="cls-3" x="26.98" y="7.07" width="10.5" height="7.59" transform="translate(1.03 24.4) rotate(-42.09)"/><rect class="cls-4" x="0.64" y="35.56" width="3.73" height="4.42" rx="0.88" ry="0.88" transform="translate(-24.67 11.41) rotate(-42.09)"/><path class="cls-1" d="M36.45,1.22h5.12a4.37,4.37,0,0,1,4.37,4.37v0a2,2,0,0,1-2,2H36.45a2,2,0,0,1-2-2V3.18a2,2,0,0,1,2-2Z" transform="translate(7.43 28.08) rotate(-42.09)"/></g></svg>