<?xml version="1.0" encoding="utf-8"?>
<!-- Generator: Adobe Illustrator 19.2.1, SVG Export Plug-In . SVG Version: 6.00 Build 0)  -->
<svg version="1.1" id="Layer_1" xmlns="http://www.w3.org/2000/svg" xmlns:xlink="http://www.w3.org/1999/xlink" x="0px" y="0px"
	 viewBox="0 0 238.9 227.1" style="enable-background:new 0 0 238.9 227.1;" xml:space="preserve">
<style type="text/css">
	.st0{fill:#992B5D;}
	.st1{opacity:0.5;stroke:#333333;stroke-width:2;stroke-miterlimit:10;stroke-dasharray:2,1;enable-background:new    ;}
	.st2{opacity:0.5;stroke:#333333;stroke-miterlimit:10;stroke-dasharray:2,1;enable-background:new    ;}
	.st3{fill:#FF1C1C;stroke:#FF1C1C;stroke-miterlimit:10;}
	.st4{fill:#FFC61C;stroke:#FFC61C;stroke-miterlimit:10;}
	.st5{fill:#8EFF1C;stroke:#8EFF1C;stroke-miterlimit:10;}
	.st6{fill:#1CFF55;stroke:#1CFF55;stroke-miterlimit:10;}
	.st7{fill:#6EBDA7;stroke:#6EBDA7;stroke-miterlimit:10;}
	.st8{fill:#1C55FF;stroke:#1C55FF;stroke-miterlimit:10;}
	.st9{fill:#8E1CFF;stroke:#8E1CFF;stroke-miterlimit:10;}
	.st10{fill:none;stroke:#F9FF08;stroke-width:3;stroke-miterlimit:10;}
	.st11{fill:#294DFF;}
	.st12{fill:#FFE313;}
</style>
<polygon id="BASE:_base" class="st0" points="-12.5,286 -12.5,-13 252.5,-13 252.5,286 "/>
<polygon id="DIF:_base" points="0,227.1 0,0 238.9,0 238.9,227.1 "/>
<path id="DDS:_Venn_5_" class="st1" d="M205.5,61.6H33.8c-6.6,0-12-5.4-12-12V32.8c0-6.6,5.4-12,12-12h171.7c6.6,0,12,5.4,12,12
	v16.8C217.5,56.2,212.1,61.6,205.5,61.6z"/>
<path id="DDS:_Venn_4_" class="st1" d="M47.8,204.2h-14c-6.6,0-12-5.4-12-12v-112c0-6.6,5.4-12,12-12h14c6.6,0,12,5.4,12,12v112
	C59.8,198.8,54.4,204.2,47.8,204.2z"/>
<path id="DIF:_Venn" d="M131.3,136.3H81.6c-6.6,0-12-5.4-12-12V82.5c0-6.6,5.4-12,12-12h49.8c6.6,0,12,5.4,12,12v41.8
	C143.3,130.9,137.9,136.3,131.3,136.3z"/>
<path id="DIF:_more_box" d="M205.5,204.2H81.6c-6.6,0-12-5.4-12-12v-34.9c0-6.6,5.4-12,12-12h124c6.6,0,12,5.4,12,12v34.9
	C217.5,198.8,212.1,204.2,205.5,204.2L205.5,204.2z"/>
<path id="DDS:_Venn_1_" class="st2" d="M205.5,98.7h-41.4c-6.6,0-12-5.4-12-12v-3.8c0-6.6,5.4-12,12-12h41.4c6.6,0,12,5.4,12,12v3.8
	C217.5,93.3,212.1,98.7,205.5,98.7z"/>
<path id="DDS:_Venn" class="st2" d="M205.5,136h-41.4c-6.6,0-12-5.4-12-12v-3.8c0-6.6,5.4-12,12-12h41.4c6.6,0,12,5.4,12,12v3.8
	C217.5,130.6,212.1,136,205.5,136z"/>
<path id="DIF:_x5F_bound_x5F_1_x5F__1" d="M178.7,198.1c-6.2-1.2-10.4-7.2-9.2-13.4s7.2-10.4,13.4-9.2s10.4,7.2,9.2,13.4
	S184.9,199.2,178.7,198.1z"/>
<path id="DIF:_x5F_bound_x5F_3_x5F__1" d="M155.2,173.6c-6.2-1.2-10.4-7.2-9.2-13.4s7.2-10.4,13.4-9.2s10.4,7.2,9.2,13.4
	S161.5,174.8,155.2,173.6z"/>
<path id="DIF:_x5F_bound_x5F_2_x5F__1" d="M136.8,198c-6.2-1.2-10.4-7.2-9.2-13.4c1.2-6.2,7.2-10.4,13.4-9.2s10.4,7.2,9.2,13.4
	S143,199.2,136.8,198z"/>
<path id="DIF:_x5F_bound_x5F_5_x5F__1" d="M113.3,173.6c-6.2-1.2-10.4-7.2-9.2-13.4s7.2-10.4,13.4-9.2c6.2,1.2,10.4,7.2,9.2,13.4
	S119.6,174.8,113.3,173.6z"/>
<path id="DIF:_x5F_bound_x5F_4_x5F__1" d="M94.9,198c-6.2-1.2-10.4-7.2-9.2-13.4s7.2-10.4,13.4-9.2s10.4,7.2,9.2,13.4
	C107.2,195.1,101.1,199.2,94.9,198z"/>
<polygon id="NLED:_x5F__x7B__x22_target_x22_:7_x7D_" class="st3" points="171.1,167.8 171.1,153.6 185.3,153.6 185.3,167.8 "/>
<polygon id="NLED:_x5F__x7B__x22_target_x22_:7_x7D__1_" class="st4" points="129.1,169 129.1,154.8 143.3,154.8 143.3,169 "/>
<polygon id="NLED:_x5F__x7B__x22_target_x22_:6_x7D_" class="st5" points="100.4,109.6 100.4,95.5 114.6,95.5 114.6,109.6 "/>
<polygon id="NLED:_x5F__x7B__x22_target_x22_:16_x2C__x22_forceTarget_x22_:5_x7D_" class="st6" points="32.7,174.3 32.7,160.2 
	46.8,160.2 46.8,174.3 "/>
<polygon id="NLED:_x5F__x7B__x22_target_x22_:7_x7D__2_" class="st7" points="86,168.4 86,154.2 100.2,154.2 100.2,168.4 "/>
<polygon id="NLED:_x5F__x7B__x22_target_x22_:16_x2C__x22_forceTarget_x22_:4_x7D_" class="st8" points="45.3,49.7 45.3,35.5 
	59.4,35.5 59.4,49.7 "/>
<polygon id="NLED:_x5F__x7B__x22_target_x22_:16_x2C__x22_forceTarget_x22_:4_x7D__1_" class="st9" points="178.3,48.5 178.3,34.3 
	192.4,34.3 192.4,48.5 "/>
<path id="CP:_Circuit_Path" class="st10" d="M127,222.6c0,0-134.9-43.5-94.3-48.3c60.6-7.1,143.4-8.4,169.8-0.6
	c32.9,9.8-4.2-98-10.2-97.7c-1.7,0.1-132.9-26.3-132.9-26.3"/>
<rect id="MC:_Microcontroller" x="137.3" y="239" class="st11" width="99.7" height="37.5"/>
<polygon id="BI:_Breakin_1_" class="st12" points="148.3,267.2 148.3,265 148.3,263.5 148.3,259 148.3,257.5 148.3,253 148.3,247 
	137.2,247 137.2,251.1 137.2,253 137.2,257.5 137.2,259 137.2,263.5 137.2,265 137.2,267.2 137.2,269.5 148.3,269.5 "/>
</svg>
