<?xml version="1.0" encoding="utf-8"?>
<!-- Generator: Adobe Illustrator 19.2.1, SVG Export Plug-In . SVG Version: 6.00 Build 0)  -->
<svg version="1.1" id="Layer_1" xmlns="http://www.w3.org/2000/svg" xmlns:xlink="http://www.w3.org/1999/xlink" x="0px" y="0px"
	 viewBox="0 0 1242 703" style="enable-background:new 0 0 1242 703;" xml:space="preserve">
<style type="text/css">
	.st0{fill:#DFDFDF;stroke:#000000;stroke-width:3;stroke-miterlimit:10;}
	.st1{opacity:0.5;fill:#DFDFDF;stroke:#000000;stroke-miterlimit:10;stroke-dasharray:2,1;enable-background:new    ;}
	.st2{fill:none;stroke:#000000;stroke-miterlimit:10;}
	.st3{fill:#294DFF;}
	.st4{fill:#FFE313;}
	.st5{fill:#E5E619;stroke:#000000;stroke-miterlimit:10;}
	.st6{fill:#195DE6;stroke:#000000;stroke-miterlimit:10;}
</style>
<path id="BASE:_Base_Path" d="M621.8,386.5c0.1-0.1,0.2-0.2,0.3-0.3c0.5,0.1,1,0.1,1.6,0.1c6.9,0,12.2-7.5,16.6-23.5
	c4.7-1.1,13.5-3.7,23.1-10.3c12.5-8.6,28.8-25.8,35.4-59l0.1-0.5v-0.5v-5.8c4.6-4.8,17.5-19.7,17.3-34.9c-0.1-7.2-3.1-13.5-8.8-18.6
	l-7.6-6.8l-0.7,10.1c0,0.6-1.3,13.9-14,23.2l-3-3.4c2.7-4.5,7-12.6,8.2-19.3c2.1-5,6.7-12.1,10.5-12.1c0.7,0,1.4,0.2,2.1,0.7l8.6,5
	l-1.2-9.9c-0.5-4.5-4.4-13-15.1-13c-2.9,0-6.2,0.7-9.8,2l-0.1,0l-0.1,0c-0.3,0.1-7.7,3.4-15.2,8.6c-0.7,0.5-1.3,0.9-1.9,1.4
	c3-6.3,7.1-12.2,9.2-13l0.6,0.3l1,0.1l2.9,0.3l5.6,0.6l-0.1-5.7c-0.1-5.6-4-14-14.3-14c-2.9,0-6.1,0.7-9.7,2l0,0l0,0
	c-0.2,0.1-1.5,0.6-3.3,1.5l-4.9-4.7c-0.5-0.5-5.1-4.7-12.7-4.7c-7.9,0-15.7,4.3-23.4,12.8l-0.1,0.1l-0.1,0.1c-0.3,0.4-1.2,1.5-2.3,3
	l-1.2-0.3l-1.3-2.7l-2.3,1.3c-1.8-0.7-3.9-1.4-6.3-1.4c-0.6,0-1.2,0-1.8,0.1c-3.4,0.3-23.3,3.3-37.1,35.8l-3.9,4.1
	c-3,1.7-10.4,7.6-11.4,23.5c-5.9,6-26.2,29.5-22.9,63.1c-0.9,3.4-3.2,14.4-1.4,27.4c1.6,11.3,6.7,25.7,20.9,36.7h-21.6v58.6h190.1
	v-58.6H621.8z"/>
<path id="DDS:_paw_x5F_print" class="st0" d="M603.9,200.8c0,0-19.7,0.5-33.4,33.6l-5.1,5.4c0,0-9.1,3.8-9.6,21.7
	c0,0-26.8,24.4-22.7,61.3c0,0-14.2,47.7,30.3,67.2c0,0,32.8,16.8,57.6-9.8c0,0,7.6,8.7,15.2-21.7c0,0,45.5-4.9,57.6-65.9v-7.9
	c0,0,30.8-29.3,10.1-47.7c0,0-1.3,18.7-19.9,29.4l-8.2-9.5c0,0,8.3-12.6,9.5-21.1c0,0,8.3-21.1,20-14.4c0,0-1.6-13.2-18.1-6.9
	c0,0-28.7,12.6-28.5,27.2l-3.5-4.1l7.5-17.9c0,0,9.3-21.5,16.7-17.4l2.9,0.3c0,0-0.3-13.8-17.2-7.4c0,0-19.1,7.6-25.6,23l-7.2,12.2
	l-4.2-2.2l9.1-22.2c0,0,7.5-15.5,14.3-15c0,0-11.7-11.2-29,7.9c0,0-16.7,21-18.3,30.6h-9c0,0,2.9-19.3,16.4-26.8
	C611.7,202.9,607.6,200.1,603.9,200.8L603.9,200.8z"/>
<path id="DDS:_bear" class="st1" d="M661.5,285.1c0,0,0.8-5.1-3.8-2.7c0,0-1.4,0.8-2.8-2.5c0,0-0.6-1.1-3.1,0.5c0,0-3.3-2.6-6.7-3
	c0,0-2.4-0.1-6.7-4.2c0,0-9.6-8.2-26.2,0.5c0,0-23.8-5.9-37.1,3.2c0,0-10,7.4-12.5,15.1c0,0,0,0.2,0.9,1.1l0.5,0.7
	c0,0,0.1,0.8-0.6,1.3c0,0-0.3,0.2-0.5,1.7l-0.1,5.4c0,0-0.1,4-0.4,5l-1.4,3.4l-1.1,3.4c0,0-0.6,1.5-1.4,3.2c0,0-1.4,2.4,0.3,4.3
	c0,0,0.7,1,3.1,1.7c0,0,3.6,2,6.1,0.8c0,0,3.1-0.2,3.7,0.4c0,0,0.8,0.4,0.4-0.4c0,0-0.3-0.8,0.5-0.2c0,0,0.8,0.6,0.5-0.4
	c0,0-0.2-0.7,0.6-0.2c0,0,1.2,0.5,0.5-0.7l-1.1-1.1c0,0-1.2-1.7-3.6-2.1l-1.2-0.1l-0.9-0.1c0,0-2.4-0.3-0.1-1.4l1.6-0.6
	c0,0,8.5-0.8,9.5-4.5l0.8-1.7c0,0,0.4-1.1,1.4,0l1.4,1.3l2,1.6l2,1.8l3,2.8c0,0,1.7,1.6,2.6,3c0,0,1.7,2.6,4.4,2.3
	c0,0,0.8-0.1,3,0.2c0,0,1.7,0.4,3.7-0.1c0,0,3.5-0.8,4.1-0.1c0,0,0.3,0.3,0.7-0.1c0,0,1.7,0.1,1.2-0.8c0,0-0.9-1.1,0.5-0.3
	c0,0,1,0.6,0.4-0.5c0,0-0.6-2-3.4-2.5c0,0-3.2-1.2-5.1-0.6c0,0-0.7,0.4-0.7-1l0.2-7.8c0,0-0.1-1.8-0.4-2.2c0,0-0.3-0.6,0.5-0.3
	c0,0,1.6,0.4,4.1-0.8c0,0,0.3-0.1,1.1-0.1h2.1c0,0,1.4,0,0.6,0.8l-1.3,1.7l-1.1,2.1c0,0-0.8,2-0.3,3.1c0,0,4.6,7.8,7.6,7.9l3.9-0.1
	c0,0,0.9,0,1.1-0.2c0,0,1.8-0.6,2.2,0.4c0,0,0.4,0.5,0.5-0.2c0,0,0.2-0.4,0.5,0c0,0,0.6,0.6,0.6-0.2c0,0-0.1-0.5,0.1-0.4
	c0,0,0.4,0,0-0.5c0,0-1.2-1.3-1.5-1.3c0,0-1.4-1.7-3.8-2.1l-1.7-0.7c0,0-1.9-0.8,0.7-2.4l1.1-0.6c0,0,1.1-0.5,2.9-2.2l2-2.1
	c0,0,1.8-1.9,3.5,0.1l1.4,1.2c0,0,1.2,0.8,2.1,1.8l1.9,2.3c0,0,2.1,2.9,5.1,4.5c0,0,0.7,0.4,2.2,1.7c0,0,0.2,0.4,3.2,1.9
	c0,0,1.2,0.8,2.8,1c0,0,0.9,0.1,1.3,0.4c0,0,0.4,0.3,3.7-0.1h4.2c0,0,0.7,0.1,0.5-0.2c0,0-0.4-0.4,0.5-0.1l1.5,0.7
	c0,0,1.3,0.5,0.5-0.6c0,0-1-1,0.3-0.5c0,0,1.1,0.6,0.8-0.3c0,0-0.2-0.5,0.8-0.2c0,0,2.4,0.7,0.6-0.6l-2.6-1.5c0,0-2.9-1.5-4.5-1.6
	c0,0-1.9,0.3-3.5-2.2c0,0-1-2-4.2-4.4l-0.8-0.6c0,0-1.2-0.7-1.3-2c0,0-0.1-0.8-1-2.6l-0.4-1c0,0-0.1-0.1-0.8-2.5l-0.8-2.6
	c0,0-0.7-1.4,1-1c0,0,2.1,0.1,4.2,0.6c0,0,1.7,0.1,5,1.6c3.3,1.4,3.5,1.5,3.5,1.5l4.4,1.8c0,0,1,0.3,1,0.4s3.6,2,4.6,0.9l1.2-1
	c0,0,1.1-0.4-0.5-1.6c0,0-1.1-0.5-2.1-1.6l-0.8-1c0,0-1.2-0.9,0.9-0.7c0,0,2.1,0.2,3.4,1.1c0,0,0.9,0.8,2.6,0.3c0,0,3.1-0.4,3.2-2.2
	v-1.1c0,0,0.4-0.6-1.2-1.2c0,0-2.7-1.1-3.6-3.6c0,0-0.5-1.1-0.4-2.6v-0.9c0,0,0.4-1.5-0.5-2.9C665,288.5,663.4,286,661.5,285.1
	L661.5,285.1z"/>
<path id="CP:_CircuitPath" class="st2" d="M648,415c-16.5,14.4-39.8,12.6-51-0.5c-8.2-9.6-5.7-24-3-37.5
	c1.1-5.8,13.3-62.2,63.5-87.5c15.6-7.8,23.8-7.2,25-13c3.7-18.5-71.8-58-90.5-40.5c-9,8.4,1.8,23.8-2.5,54
	c-3.8,26.5-16.7,46.7-27,59.5"/>
<g>
	
		<rect id="MC:_Microcontroller" x="645" y="366.5" transform="matrix(4.493187e-11 1 -1 4.493187e-11 1082.5944 -249.7932)" class="st3" width="42.3" height="99.7"/>
	<polygon id="BI:_Breakin_1_" class="st4" points="627.4,425.4 627.4,423.2 627.4,421.7 627.4,417.2 627.4,415.7 627.4,411.2 
		627.4,405.2 616.3,405.2 616.3,409.3 616.3,411.2 616.3,415.7 616.3,417.2 616.3,421.7 616.3,423.2 616.3,425.4 616.3,427.7 
		627.4,427.7 	"/>
</g>
<polygon id="NLED:_x5F__x7B__x22_colorID_x22_:_x5B_0.89804_x2C_0.90196_x2C_0.09804_x5D__x2C__x22_target_x22_:3_x2C__x22_forceTarget_x22_:4_x7D_" class="st5" points="
	637,300.9 637,286.8 651.1,286.8 651.1,300.9 "/>
<polygon id="NLED:_x5F__x7B__x22_colorID_x22_:_x5B_0.89804_x2C_0.90196_x2C_0.09804_x5D__x2C__x22_target_x22_:3_x2C__x22_forceTarget_x22_:4_x7D__1_" class="st5" points="
	582,300.5 582,286.3 596.2,286.3 596.2,300.5 "/>
<polygon id="NLED:_x5F__x7B__x22_colorID_x22_:_x5B_0.09804_x2C_0.36471_x2C_0.90196_x5D__x2C__x22_target_x22_:3_x2C__x22_forceTarget_x22_:3_x7D_" class="st6" points="
	581,245.5 581,231.3 595.2,231.3 595.2,245.5 "/>
<polygon id="NLED:_x5F__x7B__x22_colorID_x22_:_x5B_0.09804_x2C_0.36471_x2C_0.90196_x5D__x2C__x22_target_x22_:3_x2C__x22_forceTarget_x22_:3_x7D__1_" class="st6" points="
	633.5,251.4 633.5,237.2 647.7,237.2 647.7,251.4 "/>
<polygon id="NLED:_x5F__x7B__x22_colorID_x22_:_x5B_0.09804_x2C_0.36471_x2C_0.90196_x5D__x2C__x22_target_x22_:3_x7D_" class="st6" points="
	677.7,286.2 677.7,272.1 691.9,272.1 691.9,286.2 "/>
<polygon id="NLED:_x5F__x7B__x22_colorID_x22_:_x5B_0.09804_x2C_0.36471_x2C_0.90196_x5D__x2C__x22_target_x22_:3_x7D__1_" class="st6" points="
	553.1,356.4 553.1,342.2 567.3,342.2 567.3,356.4 "/>
<polygon id="NLED:_x5F__x7B__x22_colorID_x22_:_x5B_0.09804_x2C_0.36471_x2C_0.90196_x5D__x2C__x22_target_x22_:3_x7D__2_" class="st6" points="
	595.3,369.6 595.3,355.5 609.4,355.5 609.4,369.6 "/>
</svg>
