<?xml version="1.0" encoding="utf-8"?>
<!-- Generator: Adobe Illustrator 20.0.0, SVG Export Plug-In . SVG Version: 6.00 Build 0)  -->
<svg version="1.1" id="Test" xmlns="http://www.w3.org/2000/svg" xmlns:xlink="http://www.w3.org/1999/xlink" x="0px" y="0px"
	 viewBox="0 0 960 560" style="enable-background:new 0 0 960 560;" xml:space="preserve">
<style type="text/css">
	.st0{fill:#5E5E5E;}
	.st1{fill:#C9C9C9;}
	.st2{fill:#4E4E4E;}
	.st3{fill:#212121;}
	.st4{fill:#FCFCFC;}
	.st5{fill:#CBCBCB;}
	.st6{fill:#454545;}
	.st7{fill:#020202;}
	.st8{fill:#FEFEFE;}
	.st9{fill:#2A2A2A;}
	.st10{fill:#494949;}
	.st11{fill:#8F8F8F;}
	.st12{fill:#484848;}
	.st13{fill:#989898;}
	.st14{fill:#171717;}
	.st15{fill:#FFFFFF;}
</style>
<rect id="REC:_Rectangle_17_" x="152.6" y="92.4" class="st0" width="497.5" height="325.2"/>
<rect id="REC:_Rectangle_16_" x="184.5" y="111.7" width="135.3" height="142"/>
<rect id="REC:_Rectangle_15_" x="184.5" y="274.8" class="st1" width="131.9" height="119.3"/>
<polygon id="REC:_Rectangle_14_" class="st2" points="355.1,166.4 401.3,166.4 401.3,223.5 401.3,326.9 355.1,326.9 "/>
<rect id="REC:_Rectangle_21_" x="193" y="123.4" class="st2" width="112" height="119.8"/>
<rect id="REC:_Rectangle_13_" x="412.2" y="115.9" class="st3" width="98.3" height="139.1"/>
<rect id="REC:_Rectangle_12_" x="334.1" y="349.5" class="st4" width="99.2" height="47.9"/>
<rect id="REC:_Rectangle_11_" x="433.2" y="269.7" class="st5" width="136.1" height="57.1"/>
<rect id="REC:_Rectangle_10_" x="529.9" y="142" class="st6" width="24.4" height="24.4"/>
<rect id="REC:_Rectangle_9_" x="563.5" y="115.9" class="st7" width="29.4" height="34.5"/>
<rect id="REC:_Rectangle_8_" x="563.5" y="166.4" class="st8" width="24.8" height="24.8"/>
<rect id="REC:_Rectangle_7_" x="526.5" y="191.1" class="st9" width="26.1" height="32.4"/>
<polygon id="REC:_Rectangle_6_" class="st8" points="575.9,218.5 625.2,218.5 625.2,267.8 575.9,267.8 575.9,246.6 "/>
<rect id="REC:_Rectangle_5_" x="600.5" y="111.7" class="st10" width="42" height="100"/>
<rect id="REC:_Rectangle_4_" x="439.9" y="341.1" class="st11" width="40.1" height="56.3"/>
<rect id="REC:_Rectangle_3_" x="575.9" y="269.7" class="st12" width="66.6" height="89.1"/>
<polygon id="REC:_Rectangle_2_" class="st4" points="334.1,107.5 355.1,107.5 355.1,115.9 355.1,142 334.1,142 "/>
<rect id="REC:_Rectangle_1_" x="501.3" y="369.3" class="st13" width="141.2" height="34.9"/>
<rect id="REC:_Rectangle" x="491.2" y="334.4" class="st14" width="78.2" height="24.4"/>
<rect id="REC:_Rectangle_18_" x="212" y="306" class="st15" width="73" height="63.3"/>
<rect id="REC:_Rectangle_20_" x="203.5" y="133.1" class="st1" width="93.9" height="101.6"/>
<rect id="REC:_Rectangle_19_" x="223.1" y="158.5" class="st15" width="52" height="45.1"/>
<path class="st2" d="M338,165c-7.8,13.1-6.9,32.1,0,35c12.4,5.3,50-39.8,43-50C376.5,143.4,349.3,145.9,338,165z"/>
</svg>
