<?xml version="1.0" encoding="utf-8"?>
<!-- Generator: Adobe Illustrator 19.2.1, SVG Export Plug-In . SVG Version: 6.00 Build 0)  -->
<svg version="1.1" id="Layer_1" xmlns="http://www.w3.org/2000/svg" xmlns:xlink="http://www.w3.org/1999/xlink" x="0px" y="0px"
	 viewBox="0 0 908 671" style="enable-background:new 0 0 908 671;" xml:space="preserve">
<style type="text/css">
	.st0{fill:none;stroke:#000000;stroke-miterlimit:10;}
</style>
<g id="BASE:_x5F_Base_x5F_path_1">
	<rect x="293" y="135.1" class="st0" width="328.1" height="328.1"/>
</g>
<path id="DDS:_diff_4_" class="st0" d="M596.1,342.6l-49.8-27.3c0,0-26.9-21.2-3.9-46.3l53.8-13.3L596.1,342.6L596.1,342.6z"/>
<polygon id="DDS:_Diff" class="st0" points="563.7,338.2 534.8,386 562.6,403.9 592.1,354.4 "/>
<polygon id="DDS:_dsida" class="st0" points="417.1,173.9 323.7,231.2 312.6,226.1 312.6,204.9 390.8,154.1 405.7,154.1 "/>
<polygon id="DDS:_fid" class="st0" points="363.5,255.6 328.3,236.6 363.5,215.6 381.7,243.8 "/>
<path id="DDS:_dif_1_" class="st0" d="M468.6,437.6l21.9-17.7L478,405.4l0.8-1.3l-12.8-9.2l-3.1,5.1c0,0-1.8,1.5-3.5,0.3l-7.7-4.4
	c0,0,0.8,14.4,3.5,18.6l1.7,0.5l2.7-1.2l2.3,2.6l-4.6,3.9l9.7,17.3L468.6,437.6L468.6,437.6z"/>
<path id="DDS:_Dif_2_" class="st0" d="M532,384.4l12.9-19.8L525.8,353l5-8.6l17.7,11.4l9.2-14.4l-12.3-7.5l-1.9,2.8l-6.5-3.9
	l1.8-3.5l-13.5-4.3l-3.1,4.3l-11.3-5.2c0,0-19.7-6.6-42.3,22.4L532,384.4z"/>
<path id="DDS:_Dif_1_" class="st0" d="M395.9,370.2c11.7,9.1,28.8,11.3,28.8,11.3l27.5-48.2c-3.2-14.2-15.9-19.1-15.9-19.1
	l-11.7-12.3l-30.8-14.6l-30.4,67L395.9,370.2z"/>
<path id="DDS:_DIf" class="st0" d="M446.5,437.6l-23.3-48.7c0,0-12.8,0.4-15.4-2.8l-29.7,51.6h68.4V437.6z"/>
<polygon id="DDS:_Dif" class="st0" points="374.3,437.6 406.1,385.2 312.6,338.2 312.6,437.8 "/>
<path id="DDS:_dif" class="st0" d="M596.1,243.9l-55.2,11.8c0,0-16.8-15.3-19.7-21.9l-47.6-71.7l13.8-7.9h108.7L596.1,243.9z"/>
<path id="DDS:_diff_3_" class="st0" d="M509.7,249.8l-18.1-28.4L467,236.8l-0.8-1.1l-6.7,4.2l-1.2,7.2l-6.1,3.4l1,1.5l-9.7,6.1
	l-5.6-8.6l10.8-7.2L437,222.8l-31.3,19.3l0.1,0.2l-24.3,15.1l-1,6l8.7,3.9l4.9-3.8c2.5-0.6,2.2,2.1,2.2,2.1l-4.3,3.2l9.7,4.6
	l16.9-11.1l11.9,18.7l3.2-2.2l9.8,14c3.7,1.9,14.6,0.5,14.6,0.5l47.5-29.8C513.2,258.5,509.7,249.8,509.7,249.8L509.7,249.8z"/>
<path id="DDS:_diff_2_" class="st0" d="M382.1,204.9l8.4,14.4l1.1-0.7l1.4,2.2l6.9-4l5.7,9.3l13.3-8.3l-7.3-11.8l11.8-6.9l3,4.9
	l32.7-20.4c0,0-3.5-5,0.4-7.3l2.1-1.3L448,154.1h-27.9l8.3,12.4c0,0,4.5-3,7,1.2l2.5,3.5l-16.3,10l-1.4-2.4l-12.4,7.7l1.1,1.6
	L382.1,204.9z"/>
<polygon id="DDS:_difff" class="st0" points="316.4,249.6 312.6,257.4 312.6,328.1 355.9,350.8 386.8,284.5 "/>
<polygon id="DDS:_diff_1_" class="st0" points="475.8,437.6 499.5,418.5 497.5,415.9 517,386 556.2,411.9 539.2,437.6 "/>
<polygon id="DDS:_diff" class="st0" points="497.2,379 499.3,376 494.2,372.5 495.7,370.2 491,367.1 482.1,360.8 482.3,360.5 
	479.5,358.9 479.5,358.9 479.5,358.9 463.7,349.9 457.2,360.5 451.7,386.8 485.7,403 499.6,380.5 "/>
<polygon id="NLED:_x5F__x7B__x22_colorID_x22_:_x5B_0.23137_x2C_0.09804_x2C_0.90196_x5D__x2C__x22_target_x22_:43_x2C__x22_forceTarget_x22_:33_x7D_" class="st0" points="
	503.1,353.9 503.1,339.7 517.3,339.7 517.3,353.9 "/>
<polygon id="NLED:_x5F__x7B__x22_colorID_x22_:_x5B_0.90196_x2C_0.09804_x2C_0.09804_x5D__x2C__x22_target_x22_:43_x2C__x22_forceTarget_x22_:38_x7D_" class="st0" points="
	463.7,254.1 463.7,239.9 477.9,239.9 477.9,254.1 "/>
<polygon id="NLED:_x5F__x7B__x22_colorID_x22_:_x5B_0.09804_x2C_0.89804_x2C_0.90196_x5D__x2C__x22_target_x22_:43_x2C__x22_forceTarget_x22_:39_x7D_" class="st0" points="
	419.2,195.3 419.2,181.1 433.4,181.1 433.4,195.3 "/>
<polygon id="NLED:_x5F__x7B__x22_colorID_x22_:_x5B_0.90196_x2C_0.63529_x2C_0.09804_x5D__x2C__x22_target_x22_:43_x2C__x22_forceTarget_x22_:30_x7D_" class="st0" points="
	359.6,192.8 359.6,178.6 373.8,178.6 373.8,192.8 "/>
<polygon id="NLED:_x5F__x7B__x22_colorID_x22_:_x5B_0.09804_x2C_0.90196_x2C_0.50196_x5D__x2C__x22_target_x22_:43_x2C__x22_forceTarget_x22_:31_x7D_" class="st0" points="
	352.9,245.7 352.9,231.5 367.1,231.5 367.1,245.7 "/>
<polygon id="NLED:_x5F__x7B__x22_colorID_x22_:_x5B_0.90196_x2C_0.09804_x2C_0.09804_x5D__x2C__x22_target_x22_:43_x2C__x22_forceTarget_x22_:40_x7D_" class="st0" points="
	331.1,309.4 331.1,295.3 345.3,295.3 345.3,309.4 "/>
<polygon id="NLED:_x5F__x7B__x22_colorID_x22_:_x5B_0.89804_x2C_0.90196_x2C_0.09804_x5D__x2C__x22_target_x22_:43_x2C__x22_forceTarget_x22_:34_x7D_" class="st0" points="
	399.1,342.2 399.1,328 413.3,328 413.3,342.2 "/>
<polygon id="NLED:_x5F__x7B__x22_colorID_x22_:_x5B_0.90196_x2C_0.09804_x2C_0.63137_x5D__x2C__x22_target_x22_:43_x2C__x22_forceTarget_x22_:37_x7D_" class="st0" points="
	536.7,197 536.7,182.8 550.9,182.8 550.9,197 "/>
<polygon id="NLED:_x5F__x7B__x22_colorID_x22_:_x5B_1_x2C_1_x2C_1_x5D__x2C__x22_target_x22_:43_x2C__x22_forceTarget_x22_:35_x7D_" class="st0" points="
	408.3,422.7 408.3,408.6 422.5,408.6 422.5,422.7 "/>
<polygon id="NLED:_x5F__x7B__x22_colorID_x22_:_x5B_0.09804_x2C_0.90196_x2C_0.36471_x5D__x2C__x22_target_x22_:43_x2C__x22_forceTarget_x22_:36_x7D_" class="st0" points="
	337.8,400.1 337.8,385.9 352,385.9 352,400.1 "/>
<polygon id="NLED:_x5F__x7B__x22_colorID_x22_:_x5B_0.90196_x2C_0.63529_x2C_0.09804_x5D__x2C__x22_target_x22_:43_x2C__x22_forceTarget_x22_:41_x7D_" class="st0" points="
	514.9,422.7 514.9,408.6 529.1,408.6 529.1,422.7 "/>
<polygon id="NLED:_x5F__x7B__x22_colorID_x22_:_x5B_1_x2C_1_x2C_1_x5D__x2C__x22_target_x22_:43_x2C__x22_forceTarget_x22_:32_x7D_" class="st0" points="
	462.9,422.7 462.9,408.6 477,408.6 477,422.7 "/>
<polygon id="NLED:_x5F__x7B__x22_colorID_x22_:_x5B_0.09804_x2C_0.90196_x2C_0.63529_x5D__x2C__x22_target_x22_:43_x2C__x22_forceTarget_x22_:42_x7D_" class="st0" points="
	469.6,379.9 469.6,365.8 483.7,365.8 483.7,379.9 "/>
<polygon id="NLED:_x5F__x7B__x22_colorID_x22_:_x5B_0.09804_x2C_0.90196_x2C_0.36471_x5D__x2C__x22_target_x22_:43_x2C__x22_forceTarget_x22_:28_x7D_" class="st0" points="
	566.9,306.9 566.9,292.8 581.1,292.8 581.1,306.9 "/>
<polygon id="NLED:_x5F__x7B__x22_colorID_x22_:_x5B_0.89804_x2C_0.90196_x2C_0.09804_x5D__x2C__x22_target_x22_:43_x2C__x22_forceTarget_x22_:29_x7D_" class="st0" points="
	556,374.9 556,360.7 570.2,360.7 570.2,374.9 "/>
<polygon id="NLED:_x5F__x7B__x22_colorID_x22_:_x5B_0.90196_x2C_0.23137_x2C_0.09804_x5D__x2C__x22_target_x22_:43_x2C__x22_forceTarget_x22_:38_x7D_" class="st0" points="
	423.4,248.2 423.4,234 437.6,234 437.6,248.2 "/>
<polyline id="CP:_circuit_x5F_path" class="st0" points="577,478.7 577,394.9 557.7,334.4 577,282.7 533.1,174 349.7,189.9 
	363.5,255.6 337.8,314.7 345.3,408.6 422.5,408.6 540.3,411.8 503.1,328 466.2,235.6 415.4,241.1 407.8,349.9 497.2,379 "/>
<rect id="MC:_microcontroller" x="446.5" y="446.7" class="st0" width="10.5" height="6"/>
<rect id="DIF:_diff" x="312.6" y="154.1" class="st0" width="283.6" height="283.6"/>
</svg>
