<?xml version="1.0" encoding="utf-8"?>
<!-- Generator: Adobe Illustrator 19.2.1, SVG Export Plug-In . SVG Version: 6.00 Build 0)  -->
<svg version="1.1" xmlns="http://www.w3.org/2000/svg" xmlns:xlink="http://www.w3.org/1999/xlink" x="0px" y="0px"
	 viewBox="0 0 792 612" style="enable-background:new 0 0 792 612;" xml:space="preserve">
<style type="text/css">
	.st0{fill:#484748;}
	.st1{fill:#00A651;}
	.st2{fill:#B03837;}
	.st3{fill:#2E3192;}
	.st4{fill:#F7941E;}
	.st5{fill:#DA1C5C;}
	.st6{fill:#F9ED32;}
	.st7{fill:#00AEEF;}
	.st8{fill:#594A42;}
	.st9{fill:#8DC63F;}
	.st10{fill:#EF4136;}
	.st11{fill:#00A79D;}
	.st12{fill:#7B7B7B;}
	.st13{fill:#AEADAE;}
	.st14{fill:#B7B7B7;}
	.st15{fill:#B2B3B3;}
	.st16{display:none;fill:#484748;}
	.st17{display:none;fill:none;stroke:#1E1010;stroke-miterlimit:10;}
</style>
<g id="BASE:_BASE_1_">
	<path id="BASE:_BASE" class="st0" d="M627.4,414.8c-1.2-1.5-4.8-5.4-10.4-7.3c0.8-3.6,0.8-7.6-0.1-11.3
		c-1.7-6.8-6.4-13.6-13.3-14.9c0-0.5,0.1-0.9,0.1-1.4c0-2.9-0.8-5.5-2.1-7.8c0.7-0.8,1.4-1.7,2-2.7c2.9-5.1,2.7-11.6-0.1-16.5
		c1.7-3.6,1.9-7.7,0.9-11.4c1.8-2.3,2.8-5.1,2.8-8.2c0-7.6-6.3-13.8-14.1-13.8c-0.3,0-0.6,0-0.9,0c-1.3-3.1-3.2-6-5.6-8.1
		c1.8-4,2.7-8.6,2.4-12.9c-0.4-4.9-2-9.3-4.4-12.8c4-1.2,7.1-4.4,8.3-8.4c5-1.6,8.6-6.3,8.6-11.8c0-2.2-0.6-4.3-1.6-6.1
		c0.5-1.3,0.7-2.7,0.7-4.1c0-5.7-3.8-10.4-9-11.9c-1.9-4.5-6.3-7.6-11.4-7.6c-2,0-3.8,0.5-5.5,1.3c-1.4-0.6-3-0.9-4.7-0.9
		c-3.6,0-6.8,1.5-9.1,4c0.1-0.5,0.1-1.1,0.1-1.6c0-7.7-6.3-14-14-14c-0.6,0-1.1,0-1.6,0.1c-2.5-2.5-6-4.1-9.9-4.1
		c-2.7,0-5.2,0.8-7.3,2.1c-0.4,0-0.8-0.1-1.2-0.1c-7.7,0-14,6.3-14,14c0,3.9,1.6,7.4,4.2,9.9c0.1,0.4,0.1,0.8,0.2,1.3
		c-5.8,1-10.2,6.1-10.2,12.2c0,1.8,0.4,3.5,1.1,5c-1.2,1.9-1.9,4.2-1.9,6.6c0,5.9,4.1,10.8,9.7,12.1c0.9,2.6,2.5,4.8,4.7,6.3
		c-1.6,2.2-2.8,4.3-3.6,6.4c-0.3,0-0.6,0-0.9,0c-4.4,0-8.4,2.2-10.8,5.6c-1.3-0.3-2.5-0.4-3.9-0.4c-9,0-16.6,6.5-18.2,15.1
		c-5.4,0.8-9.7,4.8-11,10c-8.7,1.6-16.1,10.3-20.3,17c-4.1-4.4-9.2-7.7-14.8-7.7c-1.5,0-3,0.2-4.4,0.7c-3.3,1.1-9.1,4.5-11,15.1
		c-0.8,4.9-0.7,10.5,0.3,15.5c0.3,1.5,0.8,3,1.3,4.6c-11.9,1.4-15.7,7.4-17,11.2c-0.9,2.6-1.4,6.8,1.2,11.8
		c2.2,4.4,6.6,8.8,11.9,12.3c-0.1,0.1-0.1,0.3-0.2,0.4c-0.6-0.1-1.1-0.1-1.7-0.1c-1.9,0-3.8,0.5-5.4,1.4c-0.6-0.1-1.2-0.2-1.9-0.2
		c-3.5,0-6.6,1.6-8.8,4.2c-3.7,1-6.7,3.8-8,7.5c-2.7,2.3-4.5,5.8-4.5,9.8c0,0.3,0,0.5,0,0.8c-0.2,0.3-0.4,0.7-0.6,1.1
		c-0.6-0.1-1.3-0.1-1.9-0.1c-1.3,0-2.5,0.2-3.7,0.5c0-0.1,0-0.1,0-0.2c0-8-6.5-14.5-14.5-14.5c-4.3,0-8.2,1.9-10.9,5
		c-1.1-0.3-2.1-0.5-3.3-0.5c-0.4-1.7-1.2-3.4-2.4-4.7c1.7-2.9,2.6-6.3,2.6-9.9c0-6-2.6-11.4-6.7-14.8c2.7-0.6,5.1-2.1,6.9-4.2
		c0.5-0.6,1-1.3,1.4-2c1.4-0.2,2.7-0.6,3.9-1.2c0.8,0.1,1.6,0.2,2.4,0.2c0,0,0,0,0,0c6.5,0,14-3.6,19.1-9.3c4.1-4.6,6.1-10,5.6-15.4
		c-0.9-9-8.8-16.2-16.8-18.4c-0.5-2.9-1.6-5.7-3.3-8c-4.9-7-12.6-8.1-17.8-8.8c-1.2-0.2-4.4-0.6-7.9-0.6c-8.4,0-13.2,2.6-16,5.6
		c-2.3,0.3-4.4,1.2-6.2,2.7c-1.5-0.6-3.1-0.9-4.7-0.9c-3.8,0-7.4,1.7-9.8,4.6c-0.9,1.1-1.6,2.3-2.1,3.6c-2.8,1-5.2,2.9-6.8,5.4
		c-1-0.2-2-0.4-3.1-0.4c-2.5,0-4.9,0.7-6.9,1.9c-1.2-0.3-2.5-0.5-3.9-0.5c-1,0-2,0.1-3,0.3c-0.1-0.1-0.1-0.2-0.2-0.3l0.1,0l-0.5-2.1
		c3.9-2.2,6.6-6.6,6.6-11.6c0-0.2,0-0.4,0-0.5l21.1-25.2L280,285.7l-3.3,3.9c-0.1-0.5-0.3-1-0.4-1.5c-2.5-8.9-6.9-13.5-13.3-13.5
		c-3,0-6,1.3-8.2,3.5c-4.1,4.1-6,11.8-6.7,18.2c-1.6-0.4-3.2-0.6-4.9-0.6c-1.9,0-3.7,0.3-5.5,0.8c-8.7,2.7-14.8,11.6-14.3,20.8
		c0.2,3,1,5.7,2.3,8l-0.2,0.1l8.1,32.3l15.9-4c-0.1,0.6-0.2,1.2-0.2,1.8c-7.2,1.7-12.6,8.1-12.6,15.8c0,3.6,1.2,6.8,3.1,9.5
		c-1.9,2.3-3.1,5.3-3.1,8.6c0,5.7,3.6,10.6,8.6,12.6c-1.6,1.8-2.7,4-3,6.7c-0.3,2.1-0.1,5.2,1.8,8.5c-2.4,2.8-3.9,6.3-3.9,10.3
		c0,5.3,2.7,10,6.7,12.9c-0.5,2.3-0.7,4.6-0.5,6.7c0.4,6.3,3.2,9.8,5.5,11.7c2.6,2.1,5.9,3.2,9.5,3.2h0c2.4,0,4.9-0.5,7.2-1.3
		c0.1,0.5,0.2,1,0.3,1.4c2.3,10.7,11.9,25.5,23.8,25.5c0,0,0,0,0,0c1.3,0,2.6-0.2,3.8-0.5c2.8-0.8,5.3-2.6,7.2-5
		c1.3,1.2,2.9,2.1,4.5,2.7c-1.5,2.3-2.4,5-2.4,8c0,8,6.5,14.5,14.5,14.5c0.3,0,0.7,0,1-0.1c1.8,2.5,4.3,4.4,7.3,5.4
		c1,7,7,12.4,14.3,12.4c4.4,0,8.4-2,11.1-5.2c2.7,3.1,6.6,5.2,11.1,5.2c7,0,12.8-4.9,14.2-11.5c2.3-0.9,4.3-2.4,5.9-4.2
		c1.1,0.3,2.2,0.4,3.4,0.4c1.5,0,2.9-0.2,4.3-0.7c0.6,0.6,1.3,1.2,2.1,1.7c1.4,3.6,4.3,6.4,8,7.4c2.1,2.2,5,3.5,8.2,3.5
		c0.4,0,0.8,0,1.2-0.1c1.6,0.9,3.4,1.4,5.4,1.4c0.4,0,0.8,0,1.2-0.1c0.4,1.1,0.9,2.1,1.4,3c3.7,6.3,10.2,9,15.1,9.6
		c0.7,0.1,1.4,0.1,2.1,0.1c3.2,0,6.4-0.8,9.3-2.3c2,2.4,4.8,3.9,8,4.3c1.8,2,4.2,3.3,6.9,3.7c0.5,0.1,1.1,0.1,1.6,0.1
		c1.5,0,3-0.3,4.4-0.9c1.1,0.3,2.3,0.5,3.5,0.5c0.8,0,1.7-0.1,2.5-0.3c2-0.4,3.7-1.4,5.1-2.7c0.2,0,0.5-0.1,0.7-0.1
		c3.3-0.8,6-2.9,7.5-5.8c1.8-0.9,3.4-2.2,4.6-4c0.6-0.9,1-1.8,1.3-2.8c0.8-0.7,1.5-1.5,2.1-2.3c1-1.6,1.6-3.3,1.8-5.1
		c0.1-0.1,0.1-0.2,0.2-0.3c0.8-1.2,1.3-2.4,1.6-3.7c5.6-0.5,10.3-3,13.2-7.2c2.9-4.1,3.6-8.9,2.8-13.4c1.7-0.7,3.2-1.8,4.3-3.3
		c2.1-0.9,3.9-2.3,5.1-4.2c0.3-0.4,0.5-0.8,0.7-1.2c1.1-0.8,2-1.7,2.7-2.9c0.4-0.6,0.7-1.3,1-1.9c2.6,1.3,5.7,2,9.1,2
		c3.5,0,7.1-0.8,10.2-2.1c0.3,0.5,0.5,0.9,0.8,1.4c2.2,3.3,5.5,5.5,9.1,6.1c0.7,0.1,1.4,0.2,2,0.2c0,0,0,0,0,0
		c5.9,0,11-4.2,14.1-9.6c0.5,0.1,1,0.1,1.5,0.1c0.9,0,1.8-0.1,2.7-0.3c3.8-0.9,7-3.5,9-7.5c3-5.9,3.2-14,0.4-20.3
		c-0.2-0.5-0.5-1-0.8-1.5c0.1-0.1,0.1-0.2,0.2-0.2c1.2,0.9,2.4,1.6,3.7,2.2c2.8,1.3,6,1.9,9.2,1.9c8.7,0,15.6-4.4,17.3-10.9
		c0.3-1.1,0.6-3.3,0-6c4.1-1.7,7.8-4.5,10.7-8.2l4.9-6.3L627.4,414.8z"/>
</g>
<g id="DIF">
	<g id="DIF:_DIFFUSER">
		<path class="st1" d="M524.5,464.9c0.9-1,1.3-2.2,1.1-3.6c-0.2-1.2-0.9-2.2-1.8-3c0.5-0.8,0.7-1.8,0.6-2.8c-0.2-1.7-1.4-3-3.1-3.6
			c0-0.2,0-0.5,0-0.7c-0.3-1.8-1.7-3.3-3.6-3.8c-0.5-2-2.5-3.4-4.9-3.4c-0.3,0-0.6,0-0.8,0.1c-1.9,0.3-3.4,1.3-4.2,2.8
			c-1.2-0.4-2.4-0.7-3.5-0.7c-1.6,0-3,0.5-4,1.4c-0.4,0.3-0.7,0.7-1,1.2c-2.2-2-5.2-3.2-8-3.5c1.3-1.9,2-4.3,2-6.4
			c0.1-6.5-5.8-10.7-10.7-13.7c0.2-0.1,0.4-0.3,0.6-0.5c1.4-1.5,1.3-3.8-0.2-7.4c-0.5-1.2-1.2-2.5-2.1-4c0.5-0.2,1-0.6,1.4-1
			c1-1,1.5-2.5,1.5-4c-0.1-2.9-2.1-5.2-4.8-5.2c0,0,0,0,0,0c-0.2,0-0.4,0-0.6,0.1c-0.6-2.2-2.4-3.9-4.6-3.9c0,0,0,0,0,0
			c-0.5,0-0.9,0.1-1.4,0.3c-0.9-1.3-2.3-2.2-3.9-2.2c0,0,0,0,0,0c-1.1,0-2.2,0.5-3,1.4c-0.8-0.8-1.9-1.2-3.1-1.2c0,0,0,0,0,0
			c-1.4,0-2.7,0.7-3.5,2c-0.4,0.5-0.6,1.2-0.8,1.8c-0.5-0.2-1.1-0.4-1.7-0.4c0,0,0,0,0,0c-1.4,0-2.7,0.7-3.5,2c-0.6,0.9-1,2.1-1,3.3
			c-1.8,0.1-3.3,1.2-4,2.9c-0.9-1.6-2.1-3-3.5-4.1c-2.1-1.6-4.6-2.4-7.4-2.4c-2.6,0-4.5,0.7-4.9,0.8c-1.4,0.5-6.1,2.7-7.7,8
			c-0.5,1.6-0.6,3.3-0.4,5c-0.2,0-0.3,0-0.5,0c0,0,0,0,0,0c-0.8,0-1.6,0.3-2.3,0.7c-0.8-1.8-2.4-3-4.3-3c0,0,0,0,0,0
			c-1.8,0-3.2,1.2-4,2.8c-0.8-0.9-2-1.4-3.2-1.4c0,0,0,0,0,0c-1.4,0-2.7,0.7-3.5,2c-0.4,0.6-0.7,1.4-0.9,2.2
			c-0.4-0.1-0.9-0.2-1.3-0.2c0,0,0,0,0,0c-2.6,0.1-4.6,2.4-4.5,5.4c0,0,0,0,0,0c-1,0.3-1.9,0.9-2.5,1.8c-0.7,1-1,2.2-1,3.5
			c0,1,0.3,1.9,0.7,2.7c-1.5,0.9-2.4,2.7-2.4,4.8c0,1.5,0.6,2.8,1.5,3.7c-0.3,0.7-0.4,1.5-0.4,2.3c0.1,2.6,1.7,4.7,3.8,5.1
			c0,0.2,0,0.4,0,0.6c0,0.9,0.2,1.7,0.6,2.4c-4.1,0.1-8.9,1.9-10,5.6c-1.2,3.9,2.3,7.8,4.5,9.5c2.2,1.7,4.3,2.1,5.9,2.5
			c1.1,0.2,1.5,0.3,1.6,0.5c0.4,0.5,0,1.8-0.2,2.7c-0.2,0.9-0.7,2.6,0.1,3.9c-0.7,0.9-1.1,2.1-1,3.5c0,0.6,0.1,1.1,0.3,1.6
			c-1.3,0.1-2.6,0.8-3.4,2c-0.7,1-1,2.2-1,3.5c0,1.1,0.3,2,0.8,2.8c-0.1,0.1-0.2,0.3-0.3,0.4c-0.7,1-1,2.2-1,3.5c0,2,1,3.6,2.4,4.5
			c-0.2,0.7-0.4,1.4-0.4,2.2c0.1,2.9,2.1,5.2,4.7,5.2l0.1,0c0.1,0,0.2,0,0.3,0c0,0.2-0.1,0.5,0,0.8c0.1,2.9,2.1,5.2,4.7,5.2l0.1,0
			c0.3,0,0.6-0.1,0.9-0.1c0.7,1.9,2.4,3.1,4.3,3.1l0.1,0c1,0,1.9-0.4,2.7-1.1c0.9,1.3,2.2,2.2,3.8,2.2l0.1,0c1.4,0,2.7-0.7,3.5-2
			c0.2-0.2,0.3-0.4,0.4-0.7c0.8,1,2,1.6,3.2,1.6c-0.1,2.4,0.4,5,1.8,7.3c3.2,5.1,9.1,5.8,9.8,5.8c0.4,0,0.7,0,1,0c0,0,0,0,0,0
			c4.3,0,8.5-2.3,11-6c0.7,0.4,1.5,0.6,2.3,0.6c0.6,0,1.2-0.1,1.7-0.3c-1.1,1.5-1.3,3.5-0.4,5c0.8,1.4,2.3,2.2,4,2.2
			c1,0,2-0.3,3-0.8c0,0,0,0,0,0c0.3,2.3,1.8,4.1,4,4.4c0.2,0,0.3,0,0.5,0c1.7,0,3.2-1,4-2.5c0.9,1.2,2.3,2,3.8,2c0.3,0,0.7,0,1-0.1
			c1.3-0.3,2.4-1.3,3-2.7c0.1-0.1,0.1-0.3,0.1-0.4c0.5,0.2,1,0.3,1.6,0.3c0.3,0,0.7,0,1-0.1c1.4-0.3,2.4-1.3,3-2.7
			c0.3-0.7,0.4-1.4,0.4-2.2c0.1,0,0.2,0,0.2,0c1.6,0,3.1-0.8,3.9-2.1c0.6-1,0.8-2.1,0.5-3.3c1.1-0.3,2.1-1,2.7-1.9
			c0.7-1.2,0.8-2.6,0.3-3.9c0.6-0.4,1.2-0.8,1.6-1.5c0.7-1.2,0.8-2.7,0.3-4c-0.4-1.1-1.3-2.1-2.3-2.7c-1-0.6-2-0.9-3.1-0.9
			c-0.3,0-0.7,0-1,0.1c0-0.1-0.1-0.1-0.1-0.2c0.6-0.6,1.2-1.2,1.8-1.9c2.4,1.8,6.4,2.7,9.3,2.7c4.4,0,7.9-1.6,9.9-4.5
			c2.8-4.1,1.8-9.6-0.9-13.7c1.1-0.3,2-1,2.6-1.9c0-0.1,0.1-0.1,0.1-0.2c0.5,0.2,1.1,0.2,1.6,0.2c1.6,0,3.1-0.8,3.9-2.1
			c0.3-0.4,0.4-0.9,0.5-1.4c1.6,0,3-0.8,3.8-2.1c0.4-0.7,0.6-1.5,0.6-2.3c1.1-0.3,2.1-1,2.7-1.9c0.7-1.1,0.8-2.4,0.4-3.6
			c1.8-1,2.8-2.7,2.6-4.7C525.4,466.2,525,465.5,524.5,464.9z"/>
	</g>
	<g id="DIF:_DIFFUSER_1_">
		<path class="st2" d="M392.1,489.3c0.4-1,0.6-2.2,0.6-3.3c0-5.6-4.5-10.1-10.1-10.1c-0.4,0-0.8,0-1.2,0.1c0.7-0.6,1.4-1.3,1.9-2.1
			c0.9,0.2,1.8,0.4,2.7,0.4c5.6,0,10.1-4.5,10.1-10.1c0-2.4-0.9-4.7-2.3-6.4c2.3-1.9,3.7-4.7,3.7-7.8c0-5.6-4.5-10.1-10.1-10.1
			c-3.4,0-6.4,1.7-8.3,4.3c-0.5-0.8-1.2-1.5-1.9-2.1c1.4-1.7,2.2-3.9,2.2-6.3c0-5.6-4.5-10.1-10.1-10.1c-4.1,0-7.7,2.5-9.3,6
			c-1.6-1-3.4-1.5-5.4-1.5c-1.6,0-3.1,0.4-4.5,1c-1.7-3.3-5.1-5.5-9-5.5c-5.6,0-10.1,4.5-10.1,10.1c0,2.3,0.7,4.3,2,6
			c-1.1,0.4-2.1,1-2.9,1.8c-1.9-2.3-4.7-3.8-7.8-3.8c-5.6,0-10.1,4.5-10.1,10.1c0,2.3,0.8,4.5,2.1,6.2c-3.1,1.7-5.3,5.1-5.3,8.9
			c0,0.5,0,1.1,0.1,1.6c-2.9,1.8-4.8,5-4.8,8.6c0,5.6,4.5,10.1,10.1,10.1c0.7,0,1.5-0.1,2.2-0.2c0,0.9,0.1,1.7,0.4,2.5
			c-3.4,1.7-5.6,5.1-5.6,9.1c0,5.6,4.5,10.1,10.1,10.1c1.2,0,2.3-0.2,3.3-0.6c1.4,3.8,5,6.6,9.3,6.7c-0.1,0.5-0.1,1-0.1,1.6
			c0,5.6,4.5,10.1,10.1,10.1c5.2,0,9.5-4,10.1-9c0.5,0.1,1,0.1,1.4,0.1c0.2,0,0.4,0,0.5,0c0.6,5,4.9,8.9,10.1,8.9
			c5.6,0,10.1-4.5,10.1-10.1c0-0.2,0-0.3,0-0.5c3.7-0.4,6.8-2.9,8.1-6.2c1.5,0.9,3.3,1.4,5.2,1.4c5.6,0,10.1-4.5,10.1-10.1
			C399.6,494.4,396.4,490.5,392.1,489.3z"/>
	</g>
	<g id="DIF:_DIFFUSER_2_">
		<g>
			<path class="st3" d="M530.9,306.3c0.8,0,1.6-0.1,2.5-0.2c0.8-0.1,1.7-0.2,2.6-0.2c1.6,0,2.8,0.3,3.9,1c1.9,1.2,2.6,3,3.4,4.9
				c0.9,2.2,2,4.9,5.1,5.5c0.3,0.1,0.7,0.1,1.1,0.1c5,0,9.9-6.3,11.5-12.2c2.4,4.2,6.2,7.4,10.6,7.4c0,0,0,0,0,0c0.2,0,0.4,0,0.6,0
				c2.6-0.2,5.1-1.5,7.1-3.9c3-3.5,4.7-8.8,4.4-13.5c-0.6-7.5-6.5-15.8-13.7-15.8c-0.4,0-0.8,0-1.2,0.1c-4.8,0.7-8.3,5.3-9.8,10.6
				c-1.9-3.3-4.7-6.1-8.6-7.6c-1.9-0.7-3.8-1.1-5.8-1.1c-6.7,0-12.5,4.1-15.6,7.9c-2.6,3.2-6.7,10.4-3.3,14.8
				C527.4,306.3,530.1,306.3,530.9,306.3C530.9,306.3,530.9,306.3,530.9,306.3z"/>
			<path class="st3" d="M574.1,441.5c-0.3,0-0.7-0.1-1.1-0.1c-3.2,0-6.2,1.5-7.7,3.9c-0.8,1.3-1.2,2.9-1.1,4.7c-0.1,0-0.2,0-0.3,0
				c-3.2,0-5.8,2.7-7.5,5.8c-0.2-0.8-0.4-1.5-0.7-2c-0.8-1.4-2.7-3-6.8-3c-2.2,0-4.9,0.5-7.1,1.3c-4.7,1.7-9.3,5.8-10.9,9.6
				c-1,2.4-0.7,4.1-0.2,5.2c1.2,2.6,4.5,4.2,8.9,4.2c2.8,0,5.6-0.6,8-1.8c2.6-1.3,4.9-3.4,6.6-5.8c-0.2,3.7,0.7,7.5,2.4,10.1
				c1.5,2.2,3.1,2.8,4.3,3c0.3,0,0.6,0.1,0.9,0.1c4.6,0,8.8-5.9,9.9-11.3c0.1-0.3,0.1-0.5,0.1-0.8c1.8,1.6,3.7,2.7,5.6,2.7
				c0.4,0,0.7,0,1.1-0.1c1.2-0.3,2.9-1.1,4.2-3.7c1.7-3.3,2.5-9.1,0.3-14.2C580.9,444.7,577.7,442,574.1,441.5z"/>
			<g>
				<path class="st3" d="M574.4,438.7c-0.5-0.1-0.9-0.1-1.4-0.1c-4.1,0-8.1,2-10.1,5.2c-0.7,1.1-1.1,2.3-1.4,3.7
					c-1.8,0.5-3.4,1.6-4.9,3.1c-1.5-1.4-3.9-2.6-7.8-2.6c-2.5,0-5.6,0.6-8.1,1.5c-5.5,2-10.6,6.6-12.5,11.1
					c-1.4,3.3-0.9,5.9-0.2,7.4c1.6,3.7,5.9,5.9,11.5,5.9c3.2,0,6.5-0.8,9.3-2.1c1.1-0.5,2.1-1.2,3.1-2c0.5,2,1.3,3.8,2.2,5.3
					c2,3,4.5,4,6.2,4.2c0.4,0.1,0.9,0.1,1.3,0.1c5.2,0,9.7-4.9,11.7-10.4c1.3,0.6,2.6,0.9,3.9,0.9c0.6,0,1.2-0.1,1.7-0.2
					c1.8-0.4,4.3-1.6,6.1-5.2c2-4,2.9-10.6,0.3-16.6C583,442.6,579.1,439.3,574.4,438.7z"/>
				<path class="st3" d="M626.1,413.8c-0.9-1.1-5.6-6.4-12.7-6.8c1.9-3.7,2.4-9,1.3-13.5c-1.4-5.7-5.6-11.8-11.4-11.8
					c-0.2,0-0.3,0-0.4,0c-1.1,0.1-2.2,0.3-3.2,0.8c0,0,0-0.1,0-0.1c1.6-3.8,1-8.1-1.6-11.4c-0.3-0.4-0.6-0.7-0.9-1
					c0.1-0.6,0.1-1.3,0-1.9c1.9-1.1,3.6-2.7,4.7-4.6c2.6-4.5,1.9-10.4-1.6-14.1c0.3-0.4,0.6-0.8,0.8-1.2c2-3.5,2-7.9,0.3-11.4
					c2.1-1.8,3.5-4.4,3.5-7.2c0-5.2-4.4-9.4-9.8-9.4c-1.3,0-2.6,0.3-3.8,0.7c-1-4.3-3.9-9.9-8.5-11.8c2.7-3.9,4.2-9.2,3.8-14
					c-0.7-8.7-7.6-18.5-16.5-18.5c-0.5,0-1,0-1.6,0.1c-4.1,0.6-7.7,3.4-10.1,7.6c-1.9-2-4.2-3.5-6.8-4.6c-2.2-0.9-4.5-1.3-6.9-1.3
					c-7.7,0-14.3,4.6-17.8,9c-3.3,4.1-7.8,12.5-3.4,18.3c1.7,2.3,4.2,3.4,7.5,3.4c0.9,0,1.9-0.1,2.8-0.2c0.8-0.1,1.6-0.2,2.3-0.2
					c1.3,0,2,0.3,2.4,0.6c1,0.7,1.5,1.7,2.2,3.5c0.9,2.4,2.5,6.3,7.2,7.2c0.5,0.1,1,0.1,1.6,0.1c5,0,9.5-4.2,12.3-9.3
					c2.5,2.6,5.5,4.1,8.5,4.5c-1.1,2.6-1.6,5.4-1.5,7.7c0,1.8,0.4,3.7,1,5.4c-0.4-0.1-0.9-0.1-1.3-0.1c-1.2,0-2.3,0.2-3.4,0.7
					c-2.2,1-3.8,3-4.6,5.7c-0.8,2.6-0.7,5.6,0.1,8.4c-0.1,0-0.2,0.1-0.3,0.1c-2.2,1-3.8,3-4.6,5.7c-1.1,3.7-0.5,8.4,1.7,11.8
					c0.4,0.7,1,1.4,1.6,2.1c-1.3,1.5-2.2,3.3-2.6,5.3c-3.8,3.5-4.8,9-2.5,13.5c-0.6,1.2-1,2.5-1.1,3.8c-0.3,2.9,0.5,5.8,2.2,8.1
					c-0.5,3.2,0.3,6.4,2.3,9c2.2,2.7,5.4,4.3,8.9,4.3c0.9,0,1.9-0.1,2.8-0.3c1.7,1.5,3.8,2.5,6.1,2.8c-1.6,2-2.8,4.6-3.5,7.1
					c-2,7.2,0.2,14.9,3.1,18.9c2.4,3.4,5.2,4.2,7.1,4.3c0.1,0,0.3,0,0.4,0c1.4,0,3.4-0.4,5.4-2c1.5,1.9,3.6,3.9,6.6,5.3
					c2.2,1,4.8,1.5,7.4,1.5c5.5,0,11.7-2.4,13.1-7.7c0.5-2,0.4-4.7-1.9-7.7c0.2,0,0.4-0.1,0.6-0.1c6.6-1.3,10.8-5.6,12.7-8.1
					l2.8-3.6L626.1,413.8z"/>
			</g>
			<path class="st3" d="M623.9,415.6c-0.8-1-5-5.8-11.3-5.8c-0.4,0-0.8,0-1.2,0.1c-4.8,0.5-8.8,3.7-10.7,6.6c-1.3,2-1.7,4.1-1.1,5.8
				c0.2,0.6,0.5,1.1,0.9,1.6c-1.9-0.8-5.2-2-8-2c-0.3,0-0.6,0-0.8,0c0-0.8,0-1.7-0.1-2.5c0.9,0.5,1.8,1,2.8,1.4l2,0.8l1.3-1.6
				c1.3-1.6,4.3-5.9,3.5-11.5c1.2,0.8,2.5,1.2,3.8,1.2c0.4,0,0.8,0,1.2-0.1c1.1-0.2,2.8-1,4.1-3.1c1.9-3.1,2.6-8.2,1.6-12.3
				c-1-3.9-4-9.7-8.6-9.7c-0.1,0-0.2,0-0.3,0c-1.9,0.1-3.7,1.2-5.1,3.2c-0.1,0.2-0.2,0.3-0.4,0.5c0.4-2,0-4-1-5.8
				c1.7-3,1.6-6.8-0.7-9.7c-0.5-0.6-1.1-1.2-1.8-1.6c0.1-0.4,0.2-0.7,0.2-1.1c0.1-1.2,0-2.4-0.4-3.6c2.2-0.7,4.2-2.2,5.4-4.3
				c2-3.5,1.5-8-1.2-10.9c-0.6-0.7-1.4-1.2-2.2-1.6c1.1-0.8,2-1.7,2.7-2.9c2-3.5,1.5-8-1.2-10.9c0,0-0.1-0.1-0.1-0.1
				c2.7-0.9,4.7-3.3,4.7-6.2c0-3.6-3.1-6.6-7-6.6c-2.6,0-4.9,1.4-6.1,3.4c0-1.4,0-2.7-0.3-3.9c-0.9-4.7-4.3-11.2-9.3-11.2
				c-0.2,0-0.4,0-0.6,0c-4.9,0.5-7.3,7.2-7.2,11.8c0.2,6.1,4.8,12.5,9.4,13.4c-1.1,0.7-2.2,1.6-3.1,2.5c-0.2-0.5-0.5-1-0.7-1.5
				c-1.8-3.1-5.4-6.2-8.7-6.2c-0.8,0-1.5,0.2-2.2,0.5c-1.4,0.7-2.5,2-3.1,3.9c-0.9,3-0.3,6.8,1.4,9.5c0.1,0.1,0.2,0.3,0.3,0.4
				c-0.4-0.1-0.7-0.1-1.1-0.1c-0.8,0-1.5,0.2-2.2,0.5c-1.4,0.7-2.5,2-3.1,3.9c-0.9,3-0.3,6.8,1.4,9.5c0.9,1.4,2.1,2.6,3.5,3.6
				c-0.4,0.2-0.7,0.4-1,0.7c-1.8,1.4-2.9,3.5-3.2,5.8c0,0.1,0,0.2,0,0.2c-0.1,0.1-0.2,0.1-0.3,0.2c-3.6,2.9-4.3,8.1-1.6,11.8
				c-0.9,1.2-1.4,2.6-1.6,4.1c-0.3,2.3,0.4,4.5,1.8,6.3c0.2,0.3,0.4,0.5,0.7,0.7c-0.8,2.6-0.4,5.6,1.5,8c1.6,2.1,4.1,3.2,6.7,3.2
				c1.2,0,2.5-0.3,3.6-0.8c0,0,0,0.1,0.1,0.1c1.6,2.1,4.1,3.2,6.7,3.2c1.9,0,3.8-0.7,5.4-1.9c0.6-0.5,1.2-1.1,1.6-1.7
				c0.4,0.1,0.7,0.2,1.1,0.3c-0.3,0.6-0.6,1.2-0.8,1.8c-0.3,1-0.4,2-0.4,3.1c-0.2,0-0.5-0.1-0.7-0.1l-0.1,0
				c-5.4,0.1-7.8,7.6-8.2,9.1c-1.7,6.1,0.1,12.9,2.6,16.5c1.8,2.5,3.7,3.1,4.9,3.1c0.1,0,0.2,0,0.2,0c1.9,0,3.7-1.1,5.4-3
				c0.2-0.2,0.3-0.4,0.5-0.6c1.5,2.8,3.9,5.7,7.3,7.2c1.9,0.8,4,1.3,6.2,1.3c4.3,0,9.3-1.7,10.3-5.5c1-4.1-3.4-7.7-6.8-9.8
				c1.1,0.2,2.3,0.3,3.6,0.3c1.4,0,2.9-0.1,4.1-0.4c5.7-1.1,9.3-4.9,11-7l1.4-1.8L623.9,415.6z"/>
		</g>
	</g>
	<g id="DIF:_DIFFUSER_3_">
		<path class="st4" d="M595.8,257.8c0.9-1.3,1.4-2.9,1.4-4.6c0-4.4-3.6-8-8-8c0,0-0.1,0-0.1,0c-0.5-4-3.9-7.1-8-7.1
			c-2,0-3.9,0.8-5.3,2c-1.4-1-3.1-1.6-4.9-1.6c-3.2,0-6,1.9-7.3,4.6c-0.6-0.1-1.1-0.2-1.7-0.2c-4.4,0-8,3.6-8,8c0,0.3,0,0.6,0.1,0.9
			c-0.7-0.5-1.5-0.9-2.3-1.1c0-1.8-0.7-3.5-1.7-4.8c4.3-0.9,7.6-4.8,7.6-9.4c0-5.3-4.3-9.7-9.7-9.7c-1.1,0-2.3,0.2-3.3,0.6
			c-1.7-2.8-4.8-4.6-8.2-4.6c-2.3,0-4.5,0.8-6.2,2.3c-0.7-0.2-1.5-0.3-2.3-0.3c-5.3,0-9.7,4.3-9.7,9.7c0,3.2,1.5,6,4,7.8
			c0,0.1,0,0.1,0,0.2c0,1.6,0.4,3.1,1.1,4.5c-0.5,0.9-0.8,2-0.9,3.1c-0.6-0.2-1.3-0.3-2-0.3c-4.4,0-8,3.6-8,8c0,2.1,0.8,4,2.1,5.4
			c-1.8,1.5-2.9,3.7-2.9,6.2c0,4.4,3.6,8,8,8c0.3,0,0.7,0,1-0.1c0,0.1,0,0.1,0,0.2c0,4.4,3.6,8,8,8c2.6,0,5-1.3,6.5-3.3
			c1.5,2,3.8,3.3,6.5,3.3c3.7,0,6.8-2.5,7.7-5.8c0.3,0,0.5,0,0.8,0c4.4,0,8-3.6,8-8c0-1.6-0.5-3.1-1.3-4.4c1.1,0.5,2.3,0.9,3.6,0.9
			c0.3,0,0.7,0,1-0.1c-0.5,1.1-0.9,2.3-0.9,3.6c0,4.4,3.6,8,8,8c2.8,0,5.3-1.5,6.7-3.6c1.4,2.2,3.9,3.6,6.7,3.6c4.4,0,8-3.6,8-8
			c0-0.1,0-0.2,0-0.3c0,0,0,0,0,0c4.4,0,8-3.6,8-8C598.2,261.3,597.3,259.3,595.8,257.8z"/>
	</g>
	<g id="DIF:_DIFFUSER_4_">
		<path class="st5" d="M570.4,341c0-5.9-3.6-11-8.8-13.1c0.8-1.4,1.3-3,1.3-4.7c0-5.2-4.4-9.4-9.8-9.4c-1.1,0-2.2,0.2-3.2,0.5
			c-0.3-7.6-6.5-13.7-14.2-13.7c-2.9,0-5.5,0.9-7.8,2.3c-1.4-3.2-4.5-5.4-8.2-5.4c-4.1,0-7.5,2.8-8.6,6.6c-1.8-0.9-3.9-1.4-6.1-1.4
			c-7.8,0-14.2,6.4-14.2,14.2c0,0.3,0,0.7,0.1,1c-0.7-0.2-1.4-0.3-2.2-0.3c-4.9,0-8.9,4-8.9,8.9c0,2.1,0.8,4.1,2.1,5.7
			c-3,2.6-4.7,6.5-4.7,10.6c0,6.6,4.6,12.2,10.7,13.8c-2.9,1.6-4.8,4.6-4.8,8.1c0,5.1,4.1,9.2,9.2,9.2c1.8,0,3.6-0.6,5-1.5
			c1,6.9,6.9,12.2,14,12.2c7.8,0,14.2-6.4,14.2-14.2c0-2.4-0.6-4.7-1.7-6.7c1-0.7,1.8-1.5,2.4-2.5c1.2,1.5,2.8,2.7,4.8,3.2
			c-0.7,1.7-1.1,3.5-1.1,5.4c0,7.8,6.4,14.2,14.2,14.2c7.8,0,14.2-6.4,14.2-14.2c0-1.1-0.1-2.1-0.3-3.1c2.9-1.6,4.8-4.6,4.8-8.1
			c0-1.6-0.4-3.2-1.2-4.5C566.9,351.9,570.4,346.8,570.4,341z"/>
	</g>
	<g id="DIF:_DIFFUSER_5_">
		<path class="st6" d="M573.7,428.4c-1.6-0.7-5.5-2.3-8.8-2.3c-1.3,0-2.2,0.2-3,0.6c-0.1-0.6-0.2-1.1-0.4-1.7
			c1.2,0.4,2.6,0.7,4.2,0.7h0c2.1,0,4.1-0.4,5.8-1.3c3.2-1.5,6.1-4.8,7.1-8.2c0.6-2.1,0.5-4.1-0.5-5.6c-1.2-1.9-3.6-3-6.7-3
			c-2.1,0-4.3,0.5-6.2,1.3c-4.3,1.8-9.4,6.7-8.4,11.4c-0.8-0.3-1.6-0.4-2.4-0.4c-4.2,0-7.6,3.4-7.6,7.6c0,2.3,1,4.3,2.6,5.7
			c-0.9,1-1.6,2.2-2.1,3.6c-0.3-1.8-1.1-3.7-2.5-5.4c-0.5-0.7-1.4-1.6-2.6-2.2c0.6-1.3,0.9-2.7,0.9-4.2c0-3.7-1.9-6.9-4.8-8.7
			c2.9-1.8,4.8-5.1,4.8-8.7c0-3.9-2.2-7.4-5.5-9.1c1.5-1.1,2.4-2.9,2.4-4.9c0-3.4-2.8-6.2-6.2-6.2c-1.1,0-2.1,0.3-2.9,0.7
			c-0.7-2.8-3.2-4.9-6.2-4.9c-1.5,0-2.8,0.5-3.9,1.4c-1.1-1.9-2.9-3.1-5.1-3.1c-2.6,0-4.8,1.8-5.6,4.3c-1.1-1.5-2.8-2.4-4.6-2.4
			c-3.3,0-6,2.9-6,6.5c0,1.3,0.4,2.6,1,3.6c-1-0.9-2.3-1.4-3.7-1.4c-3.3,0-6,2.9-6,6.5c0,1.8,0.7,3.4,1.8,4.6c-0.1,0-0.1,0-0.2,0
			c-3.3,0-6,2.9-6,6.5s2.7,6.5,6,6.5c0.6,0,1.1-0.1,1.6-0.2c0,0.2,0.1,0.5,0.1,0.7c-0.1,0-0.3,0-0.4,0c-3.3,0-6,2.9-6,6.5
			s2.7,6.5,6,6.5c3,0,5.4-2.4,5.9-5.5c1.4,0.7,3,1.2,4.7,1.2c0.9,0,1.7-0.1,2.6-0.3c-0.9,1.5-1.5,3.3-1.5,5.3c0,0.5,0.1,1,0.1,1.5
			c-1.1-1.4-2.7-2.3-4.6-2.3c-3.3,0-6,2.9-6,6.5s2.7,6.5,6,6.5c3.3,0,6-2.9,6-6.5c0-0.1,0-0.2,0-0.4c0.5,0.9,1.2,1.7,2,2.3
			c-1.3,1.2-2.2,3-2.2,5c0,3.6,2.7,6.5,6,6.5c2.5,0,4.6-1.7,5.5-4.1c0.9,2.2,3,3.8,5.4,3.8c1.3,0,2.5-0.4,3.4-1.2
			c1.2,0.6,2.5,0.6,3.2,0.6c2.1,0,5.8-0.5,9.3-1.8c3.4-1.3,5.3-2.9,6.4-4.5c0,0.6-0.1,1.2,0,1.8c0.3,6.1,4.6,13.5,9.7,13.5
			c0,0,0,0,0,0c0.2,0,0.4,0,0.7,0c1.1-0.1,2.8-0.8,4.2-2.8c2.3-3.2,3.2-8.6,2.3-13.1c-0.1-0.3-0.2-0.7-0.3-1.1
			c1.4,1.6,3.1,3.1,5.2,4c1.9,0.8,4,1.3,6.2,1.3c4.3,0,9.3-1.7,10.3-5.5C585.9,434,575,428.9,573.7,428.4z"/>
	</g>
	<g id="DIF:_DIFFUSER_6_">
		<path class="st7" d="M294.1,314l-14.5-12.2l-9.7,11.6c0.1-1.5,0.1-2.9,0.1-4.3c0-0.2-0.6-21.2-8.2-21.3c-0.8,0-2,0.2-3.2,1.4
			c-3.2,3.2-5,12.4-5,19.5c0,1.6,0.1,3.6,0.4,5.7c-3.1-2.9-7.4-5.6-12.1-5.6c-1.2,0-2.3,0.2-3.3,0.5c-4.9,1.5-9.6,7-9.2,13.5
			c0.5,7.9,8.2,11.4,9.1,11.8c0.3,0.1,0.6,0.2,0.9,0.3l-6.4,1.6l4.6,18.4l30.9-7.7l-0.9-3.7c0.9,0.7,2,1.2,3.2,1.2
			c2.9,0,5.3-2.7,5.3-6c0-0.9-0.2-1.8-0.5-2.6L294.1,314z"/>
	</g>
	<g id="DIF:_DIFFUSER_7_">
		<path class="st8" d="M491.3,370c-1.9-0.5-4.2-1.1-5.5-3c-0.9-1.4-0.9-3.1-0.9-4.5c0-1.6,0-4.2-2.5-5.1c-0.4-0.1-0.8-0.2-1.2-0.2
			c-0.3,0-0.6,0.1-1,0.1c2.8-6.6,3.5-15.1,1.6-20.4c-1.1-3.1-2.9-4.4-4.2-5c-0.8-0.3-1.7-0.5-2.6-0.5c-6.9,0-15,9.9-18.5,16.9
			c-1.1,2.3-2.3,5.1-3.1,8c-3.5-7.6-10.3-15.3-16.2-15.3c-0.7,0-1.4,0.1-2.1,0.3c-6.8,2.2-7.5,14.6-5.9,22.3c1,4.8,3.3,9.5,6.1,13.4
			c-2.1-0.3-4.3-0.5-6.5-0.5c-8.5,0-14.1,2.4-15.5,6.6c-0.4,1.3-0.7,3.5,0.8,6.3c2.7,5.4,10.3,11.2,18,13.8
			c3.6,1.2,7.6,1.8,11.7,1.8c0,0,0,0,0,0c6.8,0,15.1-1.9,17.1-7c0.9,0.5,2,0.7,3.1,0.7c1.8,0,3.4-0.7,4.7-1.8
			c1.3,1.3,3.1,2.2,5.1,2.2c3.9,0,7.1-3.2,7.1-7.1c0-0.8-0.1-1.5-0.4-2.2c2.7-1,4.6-3.6,4.6-6.6c0-1.2-0.3-2.3-0.8-3.3
			c0.4,0,0.9,0.1,1.4,0.1c3.4,0,7.1-1.3,8.9-3.1c1.1-1.1,1.3-2.2,1.3-2.9C495.8,371.2,493.1,370.5,491.3,370z"/>
	</g>
	<g id="DIF:_DIFFUSER_8_">
		<path class="st9" d="M381.4,359.2c-0.7-7-8.6-12.7-14.7-12.7c-0.7,0-1.3,0.1-2,0.2c0.6-3.9-0.2-7.7-2.2-10.5
			c-3.1-4.4-8.3-5.2-12.9-5.8c-1.2-0.2-3.9-0.6-6.9-0.6c-6.3,0-10.4,1.7-12,5.1c-0.8,1.6-0.9,3.4-0.6,5.1c-0.2-0.3-0.5-0.5-0.7-0.7
			c-1-0.9-2.3-1.3-3.6-1.3c-1.3,0-2.6,0.5-3.6,1.3c-1-0.8-2.3-1.3-3.6-1.3c-1.7,0-3.3,0.7-4.3,2c-1.1,1.3-1.5,3.1-1.2,4.7
			c-0.1,0-0.1,0-0.2,0c-3.1,0-5.7,2.5-5.7,5.7c0,2,1.1,3.8,2.6,4.8c-0.3,0.7-0.5,1.5-0.5,2.3c0,3.1,2.5,5.7,5.7,5.7
			c0.3,0,0.6,0,0.9-0.1c0.6,2.4,2.8,4.2,5.5,4.2c2.3,0,4.3-1.4,5.2-3.5c0.5,0.2,1.1,0.3,1.7,0.3c1.1,0,2-0.3,2.9-0.8
			c-1,2.2-0.5,5,1.5,6.6c0.3,0.2,0.5,0.4,0.8,0.6c-0.2,0.2-0.3,0.3-0.5,0.5c-2,2.4-1.7,6,0.7,8c1,0.9,2.3,1.3,3.6,1.3
			c1.2,0,2.4-0.4,3.4-1.1c0.3,1.2,0.9,2.4,1.9,3.2c1,0.9,2.3,1.3,3.6,1.3c1.7,0,3.3-0.7,4.3-2c1.9-2.3,1.7-5.7-0.5-7.7
			c0.1-0.1,0.2-0.1,0.3-0.2c0.3,0.8,0.9,1.6,1.6,2.2c1,0.9,2.3,1.3,3.6,1.3c1.7,0,3.3-0.7,4.3-2c0,0,0,0,0,0
			c1.1,0.6,2.4,0.9,3.8,0.9c0,0,0,0,0,0c4.4,0,10.1-2.8,13.8-6.9C380.4,365.9,381.7,362.5,381.4,359.2z"/>
	</g>
	<g id="DIF:_DIFFUSER_9_">
		<path class="st10" d="M311.8,383.1c-2.5,0-4.6,1.4-5.7,3.5c-0.2-0.3-0.5-0.6-0.8-0.8c1.3-1.2,2.2-2.9,2.2-4.8c0-3.4-2.7-6.2-6-6.3
			c1.7-1.1,2.9-3.1,2.9-5.3c0-3.5-2.9-6.3-6.5-6.3c-0.2,0-0.4,0-0.7,0c1.7-1.1,2.9-3.1,2.9-5.3c0-3.5-2.9-6.3-6.5-6.3
			c-2.3,0-4.4,1.2-5.5,3.1c-1.5-1-3.3-1.7-5.2-1.7c-2.8,0-5.3,1.3-6.9,3.2c0-0.1,0-0.3,0-0.4c0-5-4.1-9.1-9.1-9.1s-9.1,4.1-9.1,9.1
			c0,3.3,1.7,6.1,4.3,7.7c-0.3,0.3-0.6,0.7-0.9,1.1c-1.7-1.9-4.1-3.1-6.8-3.1c-5,0-9.1,4.1-9.1,9.1s4.1,9.1,9.1,9.1
			c0.9,0,1.7-0.1,2.5-0.4c-1.1,1-1.9,2.3-2.4,3.7c-0.8-0.4-1.8-0.7-2.8-0.7c-3.5,0-6.3,2.8-6.3,6.3s2.8,6.3,6.3,6.3
			c2.1,0,3.9-1,5.1-2.6c0.5,0.5,1,0.9,1.6,1.2c-1.4,1.2-2.3,2.9-2.3,4.9c0,3.5,2.8,6.3,6.3,6.3c2.8,0,5.1-1.8,6-4.3
			c1.1,1.9,3.1,3.2,5.5,3.2c3.5,0,6.3-2.8,6.3-6.3s-2.8-6.3-6.3-6.3c-2.8,0-5.1,1.8-6,4.3c-0.3-0.5-0.6-0.9-1-1.3
			c3.1-1.5,5.2-4.6,5.2-8.2c0-0.3,0-0.6,0-0.9c1.7,2.2,4.3,3.7,7.3,3.7c2.3,0,4.4-0.9,6-2.3c0,0.2,0,0.4,0,0.6
			c0,3.5,2.8,6.3,6.3,6.3c1.2,0,2.4-0.4,3.4-1c0.8,2.6,3.2,4.5,6.1,4.5c2.5,0,4.6-1.4,5.7-3.5c1.2,1.5,3,2.4,5,2.4
			c3.5,0,6.3-2.8,6.3-6.3S315.3,383.1,311.8,383.1z"/>
	</g>
	<g id="DIF:_DIFFUSER_10_">
		<path class="st11" d="M337.6,417.4c5.5-0.1,10-5.3,10-11.7c0-6.5-4.6-11.7-10.2-11.7c-3.5,0-6.5,2-8.4,5.1
			c-0.5-0.9-1.1-1.5-1.7-1.9c-0.8-0.6-1.7-0.8-2.7-0.8c-1.1,0-2.1,0.3-3.1,0.7c-1.5,0.5-3.3,1.1-6.2,1.1c-0.2,0-0.3,0-0.5,0
			c-1.1,0-2-0.1-2.9-0.2c-0.8-0.1-1.4-0.2-2.1-0.2c-0.7,0-1.3,0.1-1.9,0.3c-3.4-4.8-9.4-6.5-13.9-6.5c-0.6,0-1.1,0-1.7,0.1
			c-2.3,0.2-7.8,0.7-9.4,4.8c-0.5,1.2-0.5,2.5-0.2,3.9c-3-0.8-6-1.3-9.3-1.3c-0.3,0-0.6,0-0.9,0c-3.2,0.1-8.3,0.6-12.8,1.7
			c-6.3,1.6-9.5,4-10,7.3c-0.2,1.3,0,3.2,1.9,5.5c1.1,1.4,2.7,2.7,4.6,3.8c-4.7,0-8.5,3.8-8.5,8.5c0,4.7,3.8,8.5,8.5,8.5
			c-1.6,3.6-2.5,7.4-2.3,10.7c0.2,2.9,1.2,5.1,2.9,6.5c1.3,1.1,3,1.6,5,1.6c0,0,0,0,0,0c4.3,0,10.1-2.6,14.3-6.4
			c-0.8,4.1-0.5,8.8,0.2,12.2c2,9.2,9.8,19.9,16.8,19.9c0,0,0,0,0,0c0.6,0,1.2-0.1,1.8-0.3c2.3-0.7,4.2-2.6,5.5-5.7
			c0.8-2,1.4-4.4,1.6-7.1c2,3.8,3.3,5.7,5.6,5.7c0.3,0,0.6,0,0.9-0.1c2.1-0.6,2.6-2.6,2.9-3.7c0.1-0.3,0.2-0.9,0.4-1.2
			c0,0,0.1,0,0.2,0c0.2,0,0.4,0,0.6,0c0.3,0,0.5,0,0.7,0c2.2,0,3-1.5,3.1-2c0.5-1.3,0.2-2.6-1.1-3.8c-0.2-0.1-0.3-0.3-0.4-0.4
			c-0.1-0.2-0.2-0.9,0-1.8c0.3-1,0.8-1.5,1.1-1.7c0,0,0.1,0,0.4-0.1c0.7-0.1,1.9-0.2,3.1-1.3c1.8-1.7,2-4.4,1.5-6.1
			c-0.3-1.1-1-2.7-2.7-4c0.9-1.6,1.3-3.4,1.6-5c0.1-0.4,0.2-0.9,0.3-1.4c0.1,0.1,0.2,0.2,0.3,0.3c1.5,1.5,3.7,3.8,7.2,4
			c0.1,0,0.2,0,0.4,0c3.8,0,7.8-2.6,9.3-6.2c1.4-3.1,0.5-5.9-0.2-7.9c-0.3-0.9-0.7-2-0.5-2.3c0.6-1.1,4.3-1.2,5.7-1.2
			c1.9-0.1,4.9-0.1,5.1-3c0.1-0.9-0.2-1.7-0.8-2.4C345.4,418.8,341.5,417.8,337.6,417.4z"/>
	</g>
</g>
<g id="FLOWER">
	<g id="CENTRAL_FLOWER">
		<circle id="DD:_Diffuser_247_" class="st12" cx="459.3" cy="461.5" r="16.5"/>
		
			<ellipse id="DD:_Diffuser_245_" transform="matrix(0.8962 -0.4436 0.4436 0.8962 -153.6658 242.8266)" class="st13" cx="442.1" cy="449.8" rx="8.2" ry="8.2"/>
		
			<ellipse id="DD:_Diffuser_244_" transform="matrix(0.6064 -0.7952 0.7952 0.6064 -168.6676 541.0403)" class="st13" cx="462.2" cy="440.9" rx="8.2" ry="8.2"/>
		
			<ellipse id="DD:_Diffuser_243_" transform="matrix(0.1907 -0.9816 0.9816 0.1907 -58.8326 838.4177)" class="st13" cx="479.1" cy="454.9" rx="8.2" ry="8.2"/>
		
			<ellipse id="DD:_Diffuser_242_" transform="matrix(0.9644 -0.2646 0.2646 0.9644 -108.5062 142.4953)" class="st13" cx="474.7" cy="474.1" rx="8.2" ry="8.2"/>
		
			<ellipse id="DD:_Diffuser_241_" transform="matrix(0.7469 -0.6649 0.6649 0.7469 -203.7441 425.679)" class="st13" cx="457.3" cy="480.5" rx="8.3" ry="8.2"/>
		
			<ellipse id="DD:_Diffuser_246_" transform="matrix(0.7469 -0.6649 0.6649 0.7469 -200.939 414.1384)" class="st13" cx="443.5" cy="471" rx="8.3" ry="8.2"/>
		<path id="DD:_Diffuser_188_" class="st14" d="M411.3,465c0.4-3.8-1.5-7.9-4.8-10c-5-3.1-12.5-1.3-13.5,1.8c-0.7,2.1,1.5,5,3.3,6.5
			c3.4,2.7,6.5,1.5,8,3.8c1.7,2.7-0.9,6.3,0,6.8C405.4,474.6,410.8,470.7,411.3,465z"/>
		<path id="DD:_Diffuser_187_" class="st15" d="M481.5,427.7c-4.2-2.8-9.4-6.2-14.3-4.3c-3.4,1.3-6.2,4.9-5.4,6.9
			c0.8,1.9,4.4,0.5,6.9,2.9c4.1,3.9-0.1,13,2.7,14.4c1.8,0.9,3.9-3,8.1-2.6c3.3,0.3,4,2.9,6.4,2.6c2.8-0.3,5.5-4.2,5.6-7.7
			C491.8,434.4,486,430.6,481.5,427.7z"/>
		<ellipse id="DD:_Diffuser_167_" class="st13" cx="425.2" cy="421.2" rx="1.8" ry="2.5"/>
		<ellipse id="DD:_Diffuser_166_" class="st13" cx="453.8" cy="411.6" rx="1.8" ry="2.5"/>
		<ellipse id="DD:_Diffuser_165_" class="st13" cx="458.4" cy="406.5" rx="1.8" ry="2.5"/>
		<ellipse id="DD:_Diffuser_164_" class="st13" cx="464.5" cy="403.2" rx="1.8" ry="2.5"/>
		<ellipse id="DD:_Diffuser_163_" class="st13" cx="470.7" cy="403.2" rx="1.8" ry="2.5"/>
		<ellipse id="DD:_Diffuser_162_" class="st13" cx="475.8" cy="405.2" rx="1.8" ry="2.5"/>
		<ellipse id="DD:_Diffuser_161_" class="st13" cx="480.9" cy="409.1" rx="1.8" ry="2.5"/>
		<ellipse id="DD:_Diffuser_160_" class="st13" cx="418.6" cy="418.7" rx="1.8" ry="2.5"/>
		<ellipse id="DD:_Diffuser_159_" class="st13" cx="411.4" cy="419.9" rx="1.8" ry="2.5"/>
		<ellipse id="DD:_Diffuser_158_" class="st13" cx="405.5" cy="423.6" rx="1.8" ry="2.5"/>
		<ellipse id="DD:_Diffuser_157_" class="st13" cx="401.9" cy="428.9" rx="1.8" ry="2.5"/>
		<ellipse id="DD:_Diffuser_156_" class="st13" cx="400" cy="436.3" rx="1.8" ry="2.5"/>
		<ellipse id="DD:_Diffuser_155_" class="st13" cx="401" cy="442.4" rx="1.8" ry="2.5"/>
		<ellipse id="DD:_Diffuser_154_" class="st13" cx="404.6" cy="448.2" rx="1.8" ry="2.5"/>
		<ellipse id="DD:_Diffuser_153_" class="st13" cx="410.1" cy="475" rx="1.8" ry="2.5"/>
		<ellipse id="DD:_Diffuser_152_" class="st13" cx="405.3" cy="478.7" rx="1.8" ry="2.5"/>
		<ellipse id="DD:_Diffuser_151_" class="st13" cx="401" cy="485.6" rx="1.8" ry="2.5"/>
		<ellipse id="DD:_Diffuser_150_" class="st13" cx="400.3" cy="492.3" rx="1.8" ry="2.5"/>
		<ellipse id="DD:_Diffuser_149_" class="st13" cx="402.2" cy="499.1" rx="1.8" ry="2.5"/>
		<ellipse id="DD:_Diffuser_148_" class="st13" cx="407.1" cy="505.2" rx="1.8" ry="2.5"/>
		<ellipse id="DD:_Diffuser_147_" class="st13" cx="412.3" cy="508.3" rx="1.8" ry="2.5"/>
		<ellipse id="DD:_Diffuser_146_" class="st13" cx="418.9" cy="509.6" rx="1.8" ry="2.5"/>
		<ellipse id="DD:_Diffuser_145_" class="st13" cx="426.4" cy="508.7" rx="1.8" ry="2.5"/>
		
			<ellipse id="DD:_Diffuser_144_" transform="matrix(0.8759 -0.4824 0.4824 0.8759 -193.571 282.5731)" class="st13" cx="452.6" cy="517.7" rx="2.5" ry="1.8"/>
		
			<ellipse id="DD:_Diffuser_143_" transform="matrix(0.8759 -0.4824 0.4824 0.8759 -196.3391 285.927)" class="st13" cx="457.8" cy="524.7" rx="2.5" ry="1.8"/>
		
			<ellipse id="DD:_Diffuser_142_" transform="matrix(0.1437 -0.9896 0.9896 0.1437 -124.6159 912.0109)" class="st13" cx="464.7" cy="528" rx="2.5" ry="1.8"/>
		
			<ellipse id="DD:_Diffuser_141_" transform="matrix(0.9751 -0.2219 0.2219 0.9751 -105.309 117.8941)" class="st13" cx="472.1" cy="527.7" rx="1.8" ry="2.5"/>
		
			<ellipse id="DD:_Diffuser_140_" transform="matrix(0.9751 -0.2219 0.2219 0.9751 -104.5455 119.1148)" class="st13" cx="477.9" cy="524.9" rx="1.8" ry="2.5"/>
		
			<ellipse id="DD:_Diffuser_139_" transform="matrix(0.5478 -0.8366 0.8366 0.5478 -217.3216 638.8874)" class="st13" cx="482.4" cy="520.5" rx="1.8" ry="2.5"/>
		
			<ellipse id="DD:_Diffuser_138_" transform="matrix(0.5478 -0.8366 0.8366 0.5478 -211.5025 639.385)" class="st13" cx="485.7" cy="515.3" rx="1.8" ry="2.5"/>
		
			<ellipse id="DD:_Diffuser_137_" transform="matrix(0.5478 -0.8366 0.8366 0.5478 -206.126 638.6503)" class="st13" cx="487.7" cy="510" rx="1.8" ry="2.5"/>
		
			<ellipse id="DD:_Diffuser_136_" transform="matrix(0.5478 -0.8366 0.8366 0.5478 -176.1181 640.8403)" class="st13" cx="504.8" cy="483.3" rx="1.8" ry="2.5"/>
		
			<ellipse id="DD:_Diffuser_135_" transform="matrix(0.5478 -0.8366 0.8366 0.5478 -172.0176 644.6985)" class="st13" cx="510.4" cy="481.5" rx="1.8" ry="2.5"/>
		
			<ellipse id="DD:_Diffuser_134_" transform="matrix(0.5478 -0.8366 0.8366 0.5478 -167.2565 646.8939)" class="st13" cx="514.8" cy="478.2" rx="1.8" ry="2.5"/>
		
			<ellipse id="DD:_Diffuser_133_" transform="matrix(0.5478 -0.8366 0.8366 0.5478 -162.2905 647.8928)" class="st13" cx="518.2" cy="474.1" rx="1.8" ry="2.5"/>
		
			<ellipse id="DD:_Diffuser_132_" transform="matrix(0.9937 -0.1117 0.1117 0.9937 -49.1662 61.082)" class="st13" cx="520.6" cy="469.3" rx="2.5" ry="1.8"/>
		
			<ellipse id="DD:_Diffuser_131_" transform="matrix(0.9937 -0.1117 0.1117 0.9937 -48.5322 61.0851)" class="st13" cx="520.9" cy="463.7" rx="2.5" ry="1.8"/>
		
			<ellipse id="DD:_Diffuser_130_" transform="matrix(0.9937 -0.1117 0.1117 0.9937 -47.8925 60.9244)" class="st13" cx="519.8" cy="457.9" rx="2.5" ry="1.8"/>
		
			<ellipse id="DD:_Diffuser_129_" transform="matrix(0.9937 -0.1117 0.1117 0.9937 -47.4228 60.5626)" class="st13" cx="516.8" cy="453.5" rx="2.5" ry="1.8"/>
		
			<ellipse id="DD:_Diffuser_128_" transform="matrix(0.9937 -0.1117 0.1117 0.9937 -47.0744 60.1632)" class="st13" cx="513.4" cy="450.2" rx="2.5" ry="1.8"/>
		<path id="DD:_Diffuser_99_" class="st15" d="M436.2,424.4c-2.3,1.3-8.2,4.7-8.6,10.6c-0.3,4.5,2.5,9.4,5.2,9.6
			c2.5,0.2,2.9-3.6,6.2-4.5c5.5-1.5,11.5,6.4,13.2,5c1.1-0.9-1.4-4.1-0.2-8c0.9-3.3,4.1-3.1,4.8-5.6c0.8-3.2-2.9-7.7-7-9.4
			C444.2,419.8,438.6,423,436.2,424.4z"/>
		<path id="DD:_Diffuser_98_" class="st15" d="M413.8,460.8c-0.5,4-1.1,8.9,2,12.8c4.7,5.7,14.9,5.7,16.5,2.9
			c0.9-1.7-1.7-3.2-1.1-6.1c1-5,9.5-6.2,9.2-8.9c-0.2-1.7-3.6-1.2-5.8-4.1c-2.8-3.6,0.1-7.6-2.2-10.4c-2.3-2.6-7.7-2.4-11.2-0.6
			C415.2,449.3,414.2,456.9,413.8,460.8z"/>
		<path id="DD:_Diffuser_97_" class="st15" d="M433.8,503c-2.4-1.4-8.2-4.8-9-11c-0.9-7.4,6-14.6,8.9-13.9c1.5,0.4,1.5,2.9,3.9,3.6
			c2.2,0.7,3.8-1.1,5-0.2c1.4,1-0.3,3.6,0.9,5.8c1.9,3.6,8.7,1.1,10.9,4.2c2.2,3.2-0.8,11.2-6.8,13.9
			C442,507.8,436.4,504.6,433.8,503z"/>
		<path id="DD:_Diffuser_96_" class="st15" d="M477.1,465.4c-0.5,1.8,5.6,3.4,6.8,8.1c0.9,3.9-2.5,6.3-1.2,8
			c2.2,2.8,14.2,0.8,16.6-5.4c1-2.6-0.7-3.5-0.9-9.1c-0.2-7.7,2.9-9.9,1.1-13.2c-2.3-4.4-10.2-5.9-11.8-3.9c-0.8,1,1.9,2.7,1.8,6
			c-0.2,3.7-3.6,6.2-4,6.5C481.6,465.2,477.6,463.9,477.1,465.4z"/>
		<path id="DD:_Diffuser_95_" class="st15" d="M474,508c4.9-1.1,13.3-5,14.4-12.2c0.8-5.8-3.2-12.3-6.5-12.4c-1.9,0-2.2,2.1-4.6,2.8
			c-5.5,1.4-11.4-8-13.8-6.6c-1.2,0.7,0.3,3.2-1.2,6.2c-1.6,3.2-4.4,2.7-5.9,5.1c-2.6,4.1,0.4,13,6.8,16.4
			C467.4,509.5,471.7,508.5,474,508z"/>
		<path id="DD:_Diffuser_75_" class="st14" d="M502.4,478.7c3.6,3,15.2-4.7,14.7-14.7c-0.5-8.9-10.6-15.9-14.2-13
			C499.9,453.5,499.4,476.1,502.4,478.7z"/>
		<path id="DD:_Diffuser_74_" class="st14" d="M488.8,499.8c-0.3-1.6,3.3-2.4,4.2-6c0.9-4-2.7-6.6-1.5-8.3c1.2-1.9,6.7-1.4,10.2,1.3
			c3.9,3.1,5.9,9.5,3.2,13.3C500.9,505.8,489.4,502.5,488.8,499.8z"/>
		<path id="DD:_Diffuser_73_" class="st14" d="M457.5,505.2c-1.8-0.1-4,2.1-4.5,4.3c-1.3,5.5,6.6,15,15.3,14.8
			c11.3-0.2,16.8-16.5,15.3-17.8c-0.7-0.7-3.2,2.2-9.8,4.3c-4.1,1.3-7.5,2.3-10.3,0.8C459.9,509.8,460,505.4,457.5,505.2z"/>
		<path id="DD:_Diffuser_72_" class="st14" d="M440.5,508.7c-4-1.1-4.6-3.3-6.5-3c-3.4,0.6-7.1,8.7-3.8,14.3c2.4,4,7.1,4.6,7.5,4.7
			c4.9,0.5,9.2-2.7,10.8-6.5c1.2-2.6,1.7-6.9-0.3-8.7C446.5,508.1,444.6,509.8,440.5,508.7z"/>
		<path id="DD:_Diffuser_71_" class="st14" d="M421.8,484.5c-0.9-3.4-5-6.2-8.8-6c-5.5,0.2-8.6,6.2-9.3,10.2
			c-1.1,5.6,1.8,10.8,5.3,13.7c7.2,5.8,18.6,3.1,19.2,0.5c0.4-2.2-7-3.4-8-8.8C419.4,490,422.9,488.2,421.8,484.5z"/>
		<path id="DD:_Diffuser_70_" class="st14" d="M425,442.2c-1.2,1.5-4.1-0.7-7.1,1c-3.6,2-2.6,7.1-5,7.8c-2.5,0.7-6.4-4.1-8-8.5
			c-0.5-1.4-2.6-7,0.5-12.6c0.4-0.7,2.9-5.1,8.1-6.5c3-0.8,5.5-0.3,7.8,0.2c1.7,0.4,6.6,1.5,6.8,3.5c0.2,1.8-3.7,2.1-4.9,5.1
			C421.7,436.2,426.5,440.3,425,442.2z"/>
		<path id="DD:_Diffuser_69_" class="st14" d="M440,419.9c-4.5,1.4-5.2,3.5-7.1,3c-3-0.7-5.6-6.4-4-11.1c1.4-4.2,5.6-5.8,6.1-6
			c0.3-0.1,5.4-1.8,9.5,1.4c3.7,3,4.9,8.9,2.9,11.1C446.1,419.7,444.4,418.5,440,419.9z"/>
		<path id="DD:_Diffuser_68_" class="st14" d="M458.8,422.9c-1.9-0.5-3-3.1-3.1-5.1c-0.3-5.1,5.6-10.8,11.4-11.2
			c10.3-0.8,17.2,15.4,15.6,17c-1.4,1.3-9-7.6-16.1-5C462.8,419.8,461.3,423.6,458.8,422.9z"/>
	</g>
	<g id="SUBFLOWER">
		<circle id="DD:_Diffuser_229_" class="st12" cx="352.7" cy="446.4" r="4.2"/>
		<circle id="DD:_Diffuser_228_" class="st12" cx="364" cy="454.9" r="4.2"/>
		<circle id="DD:_Diffuser_227_" class="st12" cx="375.3" cy="463.5" r="4.2"/>
		<circle id="DD:_Diffuser_226_" class="st12" cx="364" cy="467.5" r="4.2"/>
		<circle id="DD:_Diffuser_225_" class="st12" cx="352.7" cy="459" r="4.2"/>
		<circle id="DD:_Diffuser_224_" class="st12" cx="341.5" cy="454.8" r="4.2"/>
		<circle id="DD:_Diffuser_223_" class="st12" cx="330.2" cy="463.5" r="4.2"/>
		<circle id="DD:_Diffuser_222_" class="st12" cx="337.2" cy="476.2" r="4.2"/>
		<circle id="DD:_Diffuser_221_" class="st12" cx="341.5" cy="489" r="4.2"/>
		<circle id="DD:_Diffuser_220_" class="st12" cx="355.5" cy="489" r="4.2"/>
		<circle id="DD:_Diffuser_219_" class="st12" cx="372.5" cy="476.2" r="4.2"/>
		<circle id="DD:_Diffuser_51_" class="st12" cx="348.4" cy="476.2" r="4.2"/>
		<circle id="DD:_Diffuser_218_" class="st12" cx="368.2" cy="489" r="4.2"/>
		<circle id="DD:_Diffuser_217_" class="st12" cx="352.7" cy="471.8" r="4.2"/>
		<circle id="DD:_Diffuser_184_" class="st12" cx="354.8" cy="435.3" r="4.5"/>
		<circle id="DD:_Diffuser_183_" class="st12" cx="371" cy="445" r="4.5"/>
		<circle id="DD:_Diffuser_182_" class="st12" cx="387.6" cy="445" r="4.5"/>
		<circle id="DD:_Diffuser_181_" class="st12" cx="386.2" cy="459.3" r="4.5"/>
		<circle id="DD:_Diffuser_180_" class="st12" cx="382.8" cy="481.2" r="4.5"/>
		<circle id="DD:_Diffuser_179_" class="st12" cx="389.7" cy="494.3" r="4.5"/>
		<circle id="DD:_Diffuser_178_" class="st12" cx="375.3" cy="499.1" r="4.5"/>
		<g>
			<circle id="DD:_Diffuser_248_" class="st12" cx="366.3" cy="509.6" r="4.5"/>
			<circle id="DD:_Diffuser_177_" class="st12" cx="355.7" cy="500.7" r="4.5"/>
			<circle id="DD:_Diffuser" class="st12" cx="344.2" cy="509.6" r="4.5"/>
		</g>
		<circle id="DD:_Diffuser_176_" class="st12" cx="334.5" cy="497.9" r="4.5"/>
		<circle id="DD:_Diffuser_175_" class="st12" cx="321.6" cy="491.8" r="4.5"/>
		<circle id="DD:_Diffuser_174_" class="st12" cx="326.9" cy="480" r="4.5"/>
		<circle id="DD:_Diffuser_173_" class="st12" cx="314.6" cy="470.3" r="4.5"/>
		<circle id="DD:_Diffuser_172_" class="st12" cx="319.3" cy="460.1" r="4.5"/>
		<circle id="DD:_Diffuser_171_" class="st12" cx="322.4" cy="445" r="4.5"/>
		<circle id="DD:_Diffuser_170_" class="st12" cx="336.9" cy="446.3" r="4.5"/>
		<circle id="DD:_Diffuser_169_" class="st12" cx="341.3" cy="430.8" r="4.5"/>
		<circle id="DD:_Diffuser_168_" class="st12" cx="369.4" cy="430.8" r="4.5"/>
		<circle id="DD:_Diffuser_62_" class="st12" cx="341.5" cy="467.5" r="4.2"/>
		<circle id="DD:_Diffuser_50_" class="st12" cx="360.8" cy="480.6" r="3.9"/>
	</g>
	<g id="RIGHT_SUBFLOWER">
		
			<ellipse id="DD:_Diffuser_197_" transform="matrix(0.7814 -0.624 0.624 0.7814 -104.0331 446.2858)" class="st13" cx="585" cy="371.6" rx="5.7" ry="5.7"/>
		
			<ellipse id="DD:_Diffuser_190_" transform="matrix(0.7814 -0.624 0.624 0.7814 -105.5122 439.9949)" class="st13" cx="575.3" cy="370.6" rx="5.7" ry="5.7"/>
		
			<ellipse id="DD:_Diffuser_191_" transform="matrix(0.7814 -0.624 0.624 0.7814 -108.8155 435.3269)" class="st13" cx="567" cy="373" rx="5.7" ry="5.7"/>
		
			<ellipse id="DD:_Diffuser_192_" transform="matrix(0.7814 -0.624 0.624 0.7814 -113.4662 434.5016)" class="st13" cx="563.5" cy="379.2" rx="5.7" ry="5.7"/>
		
			<ellipse id="DD:_Diffuser_193_" transform="matrix(0.7814 -0.624 0.624 0.7814 -119.7769 436.712)" class="st13" cx="563.5" cy="389.3" rx="5.7" ry="5.7"/>
		
			<ellipse id="DD:_Diffuser_194_" transform="matrix(0.7814 -0.624 0.624 0.7814 -124.7373 439.9388)" class="st13" cx="565.6" cy="398" rx="5.7" ry="5.7"/>
		
			<ellipse id="DD:_Diffuser_195_" transform="matrix(0.7814 -0.624 0.624 0.7814 -119.9701 452.276)" class="st13" cx="585.6" cy="397.4" rx="5.7" ry="5.7"/>
		
			<ellipse id="DD:_Diffuser_199_" transform="matrix(0.7814 -0.624 0.624 0.7814 -124.0532 446.9353)" class="st13" cx="576" cy="400.5" rx="5.7" ry="5.7"/>
		
			<ellipse id="DD:_Diffuser_196_" transform="matrix(0.7814 -0.624 0.624 0.7814 -114.3324 452.2557)" class="st13" cx="588.4" cy="389.3" rx="5.7" ry="5.7"/>
		
			<ellipse id="DD:_Diffuser_198_" transform="matrix(0.7814 -0.624 0.624 0.7814 -108.9707 450.3777)" class="st13" cx="588.4" cy="380.7" rx="5.7" ry="5.7"/>
		<ellipse id="DD:_Diffuser_189_" class="st12" cx="576.1" cy="386.5" rx="8" ry="10"/>
		<path id="DD:_Diffuser_186_" class="st13" d="M595.3,355.8c-3.3-3.5-10.1-0.3-11.2,0.2c-4.3,2.1-7.2,6.2-6.5,7.2
			c0.6,0.8,3.1-1.3,6.5-0.3c3.1,0.9,3.2,3.3,5.8,3.7c2.2,0.3,4.9-0.9,6.2-3.2C597.6,360.8,597,357.6,595.3,355.8z"/>
		<path id="DD:_Diffuser_185_" class="st13" d="M594.6,340.5c-3.3-3.5-10.1-0.3-11.2,0.2c-4.3,2.1-7.2,6.2-6.5,7.2
			c0.6,0.8,3.1-1.3,6.5-0.3c3.1,0.9,3.2,3.3,5.8,3.7c2.2,0.3,4.9-0.9,6.2-3.2C596.9,345.4,596.2,342.2,594.6,340.5z"/>
		<path id="DD:_Diffuser_100_" class="st12" d="M568.5,285c-5.2,0.7-8.5,8.3-8,14.3c0.5,6.3,5.4,13.6,10.8,13.2
			c5.4-0.4,9.3-8,8.8-14.3C579.7,291.4,574,284.3,568.5,285z"/>
		<path id="DD:_Diffuser_91_" class="st12" d="M540.8,307.2c-5.4-3.4-11.2,0.7-13.5-2.2c-2-2.6,0.7-8.2,3.2-11.2
			c3.3-4,10.6-9,18.2-6c7.9,3.1,10.4,12.3,9,18.8c-1.3,5.7-6.1,11.4-9.5,10.8C544.9,316.6,545.8,310.4,540.8,307.2z"/>
		<path id="DD:_Diffuser_88_" class="st13" d="M578.4,316.8c-2.7,0.3-4.7,5.1-4.6,8.9c0.2,5.8,5.2,11.5,8.2,10.8
			c2.7-0.7,3.9-6.4,3.1-10.8C584.4,321.5,581.4,316.4,578.4,316.8z"/>
		<path id="DD:_Diffuser_87_" class="st13" d="M562.1,351.1c-2.2,1-2.5,6.1-0.5,9.4c1.9,3.1,6.3,5.2,8.2,3.8
			c1.9-1.4,1.1-5.8-0.5-8.5C567.7,353,564.2,350.1,562.1,351.1z"/>
		<path id="DD:_Diffuser_86_" class="st13" d="M566.8,337c-2.2,1-2.5,6.1-0.5,9.4c1.9,3.1,6.3,5.2,8.2,3.8c1.9-1.4,1.1-5.8-0.5-8.5
			C572.4,338.8,568.9,336,566.8,337z"/>
		<path id="DD:_Diffuser_85_" class="st13" d="M605,409.5c3.1-0.7,4.7-7.1,3.5-12c-0.8-3.3-3.3-7.6-6-7.5c-3.2,0.2-6.3,6.6-5,12
			C598.5,406.1,602.2,410.1,605,409.5z"/>
		<path id="DD:_Diffuser_84_" class="st13" d="M582,413.5c-2.8,0.1-4.8,4.5-5.5,7c-1.9,7,1.6,15.8,5,16c3.4,0.2,7.9-8.1,6.5-15
			C587.3,418.1,584.9,413.4,582,413.5z"/>
		<path id="DD:_Diffuser_79_" class="st13" d="M589.3,428.3c2-2.4,9.3,0.7,10.2,1.1c3.7,1.6,9.8,5.5,9,8.5
			c-0.7,2.8-7.6,4.7-12.6,2.4C590.5,437.8,587.5,430.6,589.3,428.3z"/>
		<path id="DD:_Diffuser_78_" class="st13" d="M577,467c3-0.7,4.9-8.4,2.5-14c-0.4-0.9-2.4-5.5-6.5-6c-2.2-0.3-4.8,0.6-6,2.5
			C563.7,454.8,572.7,468,577,467z"/>
		<path id="DD:_Diffuser_77_" class="st13" d="M560.5,476.5c2.9,0.5,6.6-4.4,7.5-9c1-5.2-1.4-11.6-4.5-12c-2.9-0.4-6.1,4.4-7,8.5
			C555.3,469.3,557.3,476,560.5,476.5z"/>
		<path id="DD:_Diffuser_76_" class="st13" d="M532.5,468.5c-1.3-3.1,3.9-8.9,9.5-11c3.4-1.3,9-2,10.5,0.5c1.7,2.7-2,9-7,11.5
			C540.7,471.9,533.7,471.4,532.5,468.5z"/>
		<ellipse id="DD:_Diffuser_49_" class="st13" cx="594.3" cy="332.2" rx="4.1" ry="3.8"/>
		<path id="DD:_Diffuser_47_" class="st13" d="M594.9,420.9c0.7-0.8,3.7-4.6,2.9-9.6c-0.1-0.9-1.2-6.5-5-7.2c-2.9-0.5-6,1.9-6.9,4.5
			C584.6,412.3,587.9,417.9,594.9,420.9z"/>
		<path id="DD:_Diffuser_41_" class="st13" d="M621,420c-0.4-0.5-4.4-5.2-10-4.7c-5.6,0.6-10.3,6-9.3,8.7c0.9,2.4,6.4,2.7,10,2
			C616.8,425,619.9,421.4,621,420z"/>
	</g>
	<g id="TOP_RIGHT_SUBFLOWER">
		<circle id="DD:_Diffuser_22_" class="st12" cx="533.5" cy="264.5" r="6"/>
		<circle id="DD:_Diffuser_21_" class="st12" cx="577.6" cy="259.5" r="6"/>
		<circle id="DD:_Diffuser_20_" class="st12" cx="528" cy="235.5" r="4"/>
		<circle id="DD:_Diffuser_19_" class="st12" cx="532" cy="243.5" r="4"/>
		<circle id="DD:_Diffuser_18_" class="st12" cx="536.5" cy="233.5" r="4"/>
		<circle id="DD:_Diffuser_17_" class="st12" cx="548" cy="237.5" r="4"/>
		<circle id="DD:_Diffuser_16_" class="st13" cx="520.5" cy="258.9" r="2.4"/>
		<circle id="DD:_Diffuser_15_" class="st13" cx="519.6" cy="270.5" r="2.4"/>
		<circle id="DD:_Diffuser_14_" class="st13" cx="530.5" cy="251.9" r="2.4"/>
		<circle id="DD:_Diffuser_13_" class="st13" cx="543.7" cy="251.9" r="2.4"/>
		<circle id="DD:_Diffuser_12_" class="st13" cx="550.1" cy="272.8" r="2.4"/>
		<circle id="DD:_Diffuser_11_" class="st13" cx="549.5" cy="259.5" r="2.4"/>
		<circle id="DD:_Diffuser_10_" class="st13" cx="528.7" cy="278.7" r="2.4"/>
		<circle id="DD:_Diffuser_9_" class="st13" cx="541.6" cy="278.7" r="2.4"/>
		<circle id="DD:_Diffuser_8_" class="st13" cx="560.5" cy="261.3" r="2.4"/>
		<circle id="DD:_Diffuser_7_" class="st13" cx="562" cy="251.9" r="2.4"/>
		<circle id="DD:_Diffuser_6_" class="st13" cx="568.7" cy="272.8" r="2.4"/>
		<circle id="DD:_Diffuser_5_" class="st13" cx="582.1" cy="272.8" r="2.4"/>
		<circle id="DD:_Diffuser_4_" class="st13" cx="590.2" cy="264.5" r="2.4"/>
		<circle id="DD:_Diffuser_3_" class="st13" cx="589.2" cy="254.3" r="2.4"/>
		<circle id="DD:_Diffuser_2_" class="st13" cx="581.2" cy="247.1" r="2.4"/>
		<circle id="DD:_Diffuser_1_" class="st13" cx="571" cy="247.5" r="2.4"/>
	</g>
	<g id="SUBFLOWER_1_">
		<circle id="DD:_Diffuser_107_" class="st14" cx="517.2" cy="308.4" r="3.2"/>
		<circle id="DD:_Diffuser_106_" class="st14" cx="486.2" cy="328.5" r="3.3"/>
		<circle id="DD:_Diffuser_105_" class="st13" cx="528.7" cy="330.9" r="3.5"/>
		<circle id="DD:_Diffuser_104_" class="st13" cx="507.5" cy="345" r="3.5"/>
		<circle id="DD:_Diffuser_103_" class="st13" cx="516" cy="357.9" r="3.7"/>
		<circle id="DD:_Diffuser_102_" class="st13" cx="530.9" cy="357.6" r="3.4"/>
		<circle id="DD:_Diffuser_90_" class="st14" cx="533.1" cy="316.7" r="8.5"/>
		<circle id="DD:_Diffuser_89_" class="st12" cx="522.5" cy="342.9" r="8.5"/>
		<circle id="DD:_Diffuser_67_" class="st14" cx="508.8" cy="372.3" r="8.5"/>
		<circle id="DD:_Diffuser_66_" class="st14" cx="541.6" cy="371.6" r="8.5"/>
		<circle id="DD:_Diffuser_65_" class="st14" cx="553.5" cy="342.9" r="8.5"/>
		<circle id="DD:_Diffuser_64_" class="st14" cx="488.8" cy="344.8" r="8.5"/>
		<circle id="DD:_Diffuser_63_" class="st14" cx="502.5" cy="318.9" r="8.5"/>
		<ellipse id="DD:_Diffuser_48_" class="st14" cx="550.5" cy="325.1" rx="4.1" ry="3.8"/>
		<circle id="DD:_Diffuser_46_" class="st14" cx="489.7" cy="366.6" r="3.5"/>
		<circle id="DD:_Diffuser_44_" class="st14" cx="551.1" cy="360.5" r="3.5"/>
		<circle id="DD:_Diffuser_43_" class="st13" cx="536.3" cy="344.2" r="3.5"/>
		<circle id="DD:_Diffuser_42_" class="st13" cx="513.4" cy="332.2" r="3.5"/>
	</g>
	<g id="CENTRAL_RIGHT_SUBFLOWER">
		<circle id="DD:_Diffuser_210_" class="st13" cx="515" cy="400.5" r="7.5"/>
		<circle id="DD:_Diffuser_209_" class="st13" cx="532" cy="408" r="7.5"/>
		<circle id="DD:_Diffuser_208_" class="st13" cx="532" cy="425.5" r="7.5"/>
		<circle id="DD:_Diffuser_207_" class="st12" cx="518.5" cy="415.5" r="7.5"/>
		<circle id="DD:_Diffuser_206_" class="st13" cx="503.6" cy="415.5" r="7.5"/>
		<circle id="DD:_Diffuser_205_" class="st13" cx="515" cy="430.8" r="7.5"/>
		<circle id="DD:_Diffuser_101_" class="st15" cx="533.1" cy="394" r="3.4"/>
		<path id="DD:_Diffuser_83_" class="st13" d="M574.9,412.8c-1.4-2.3-6.3-1.9-9.4-0.6c-3.8,1.6-7.7,5.8-6.6,8.6
			c1.1,2.7,6.7,3.6,10.6,1.8C573.6,420.6,576.5,415.3,574.9,412.8z"/>
		<path id="DD:_Diffuser_81_" class="st13" d="M552.9,434.4c-2.9,0.2-5.1,5.7-4.9,10.1c0.2,5.4,4.1,11.1,7.1,10.8
			c3-0.4,5.2-7.1,4.1-12.5C558.5,438.9,555.7,434.1,552.9,434.4z"/>
		<path id="DD:_Diffuser_80_" class="st13" d="M561.5,430.5c2-2.4,9.3,0.7,10.2,1.1c3.7,1.6,9.8,5.5,9,8.5
			c-0.7,2.8-7.6,4.7-12.6,2.4C562.6,440,559.7,432.8,561.5,430.5z"/>
		<ellipse id="DD:_Diffuser_61_" class="st15" cx="491.7" cy="410.2" rx="3.1" ry="3.7"/>
		<ellipse id="DD:_Diffuser_60_" class="st15" cx="496.1" cy="399" rx="3.1" ry="3.7"/>
		<ellipse id="DD:_Diffuser_59_" class="st15" cx="504.8" cy="390.3" rx="3.1" ry="3.7"/>
		<ellipse id="DD:_Diffuser_58_" class="st15" cx="515" cy="388.4" rx="3.1" ry="3.7"/>
		<ellipse id="DD:_Diffuser_57_" class="st15" cx="492.9" cy="423.6" rx="3.1" ry="3.7"/>
		<ellipse id="DD:_Diffuser_56_" class="st15" cx="500.2" cy="436.5" rx="3.1" ry="3.7"/>
		<ellipse id="DD:_Diffuser_55_" class="st15" cx="511.9" cy="443.5" rx="3.1" ry="3.7"/>
		<ellipse id="DD:_Diffuser_54_" class="st15" cx="522.9" cy="443.3" rx="3.1" ry="3.7"/>
		<path id="DD:_Diffuser_53_" class="st13" d="M527.4,445.9c-0.3-0.8,3.5-1.8,6.8-6.5c2.9-4.2,2.6-7.3,4.2-7.6
			c2.2-0.4,6,4.2,5.2,7.8C542.4,445.7,528,447.3,527.4,445.9z"/>
		<circle id="DD:_Diffuser_52_" class="st12" cx="553.5" cy="428.1" r="4.8"/>
		<circle id="DD:_Diffuser_45_" class="st15" cx="524" cy="390" r="3.5"/>
	</g>
	<g id="LEFT_SUBFLOWER">
		<path id="DD:_Diffuser_110_" class="st13" d="M262.2,327c2.7-0.1,4.9-10.5,4.8-18.9c-0.2-8.3-2.7-18.5-5.4-18.5
			c-2.6,0-5.4,9.7-5.4,18.1C256.3,316.9,259.5,327.1,262.2,327z"/>
		<path id="DD:_Diffuser_109_" class="st13" d="M256.4,325.9c1.8-6.3-9-17.3-17.1-14.8c-3.9,1.2-7.6,5.7-7.2,10.6
			c0.4,6.2,6.8,9.1,7.4,9.4C246.1,334,255,330.6,256.4,325.9z"/>
		<ellipse id="DD:_Diffuser_108_" class="st12" cx="270.5" cy="337.8" rx="2.5" ry="3.2"/>
		
			<rect id="DD:_Diffuser_93_" x="269.8" y="306" transform="matrix(0.766 0.6428 -0.6428 0.766 269.7992 -103.0767)" class="st13" width="13.3" height="26.2"/>
		
			<rect id="DD:_Diffuser_92_" x="243.8" y="327.9" transform="matrix(0.2419 0.9703 -0.9703 0.2419 520.7694 15.4456)" class="st13" width="13.3" height="26.2"/>
	</g>
	<g id="CENTRAL_TOP_SUBFLOWER">
		<path id="DD:_Diffuser_240_" class="st15" d="M417,385c-1.6,4.9,7.7,13.4,17,16.5c10.5,3.5,24.2,1.2,25.5-4
			c1.3-5.2-9.6-13.4-20-16C430.8,379.3,418.6,380.1,417,385z"/>
		<path id="DD:_Diffuser_239_" class="st15" d="M437,345c4.8-1.6,12.4,7,15.5,15c3.7,9.4,2.8,22.3-2,24c-5.1,1.8-15.1-8.7-17.5-20
			C431.4,356.7,432.5,346.5,437,345z"/>
		<path id="DD:_Diffuser_238_" class="st15" d="M477.5,335.5c-4.7-2-13.4,6.9-17.5,15c-3.4,6.8-6,17.8-2,20.5
			c3.4,2.3,10.7-2.3,13.8-4.8c3.7-3,5.6-6.5,6.2-7.7C482.2,350.1,482.1,337.5,477.5,335.5z"/>
		<path id="DD:_Diffuser_237_" class="st15" d="M482.5,361c1.5,0.5-0.5,4.7,2,8.5c3,4.6,9.5,3.9,9.5,5.5c0,1.6-6.8,4.8-12,2
			c-2.7-1.4-5-4.5-5-8C477,364.4,481,360.5,482.5,361z"/>
		<circle id="DD:_Diffuser_236_" class="st12" cx="469.8" cy="384.5" r="4.2"/>
		<circle id="DD:_Diffuser_235_" class="st13" cx="460.3" cy="384.6" r="4.2"/>
		<circle id="DD:_Diffuser_234_" class="st13" cx="464.5" cy="376.6" r="4.2"/>
		<circle id="DD:_Diffuser_233_" class="st13" cx="465.1" cy="392.7" r="4.2"/>
		<circle id="DD:_Diffuser_232_" class="st13" cx="474" cy="375.9" r="4.2"/>
		<circle id="DD:_Diffuser_231_" class="st13" cx="479.1" cy="384.2" r="4.2"/>
		<circle id="DD:_Diffuser_230_" class="st13" cx="474.8" cy="393.1" r="4.2"/>
	</g>
	<g id="TOP_LEFT_SUBFLOWER">
		<circle id="DD:_Diffuser_40_" class="st12" cx="321.5" cy="352.2" r="4.5"/>
		<circle id="DD:_Diffuser_39_" class="st12" cx="345.5" cy="368" r="4.5"/>
		<circle id="DD:_Diffuser_38_" class="st13" cx="312.4" cy="350.5" r="2.8"/>
		<circle id="DD:_Diffuser_37_" class="st13" cx="330.5" cy="351" r="2.8"/>
		<circle id="DD:_Diffuser_36_" class="st13" cx="320.9" cy="361.8" r="2.8"/>
		<circle id="DD:_Diffuser_35_" class="st13" cx="314.5" cy="357.6" r="2.8"/>
		<circle id="DD:_Diffuser_34_" class="st13" cx="327.7" cy="358.6" r="2.8"/>
		
			<ellipse id="DD:_Diffuser_33_" transform="matrix(0.6428 -0.766 0.766 0.6428 -153.6263 385.7974)" class="st13" cx="336.9" cy="357.6" rx="2.8" ry="2.8"/>
		
			<ellipse id="DD:_Diffuser_32_" transform="matrix(0.6428 -0.766 0.766 0.6428 -166.737 391.911)" class="st13" cx="336.9" cy="374.7" rx="2.8" ry="2.8"/>
		
			<ellipse id="DD:_Diffuser_31_" transform="matrix(0.6428 -0.766 0.766 0.6428 -166.1288 399.9432)" class="st13" cx="345.8" cy="378.1" rx="2.8" ry="2.8"/>
		
			<ellipse id="DD:_Diffuser_30_" transform="matrix(0.6428 -0.766 0.766 0.6428 -157.8424 404.7976)" class="st13" cx="355.1" cy="371.6" rx="2.8" ry="2.8"/>
		
			<ellipse id="DD:_Diffuser_29_" transform="matrix(0.6428 -0.766 0.766 0.6428 -151.6295 400.9502)" class="st13" cx="354.1" cy="363.1" rx="2.8" ry="2.8"/>
		
			<ellipse id="DD:_Diffuser_28_" transform="matrix(0.6428 -0.766 0.766 0.6428 -150.546 392.403)" class="st13" cx="345.5" cy="357.6" rx="2.8" ry="2.8"/>
		
			<ellipse id="DD:_Diffuser_27_" transform="matrix(0.6428 -0.766 0.766 0.6428 -160.2099 387.8516)" class="st13" cx="335.8" cy="365.7" rx="2.8" ry="2.8"/>
		
			<ellipse id="DD:_Diffuser_26_" transform="matrix(0.6428 -0.766 0.766 0.6428 -149.7722 366.45)" class="st13" cx="318" cy="343.8" rx="2.8" ry="2.8"/>
		
			<ellipse id="DD:_Diffuser_25_" transform="matrix(0.6428 -0.766 0.766 0.6428 -147.2074 371.9502)" class="st13" cx="325.2" cy="343.8" rx="2.8" ry="2.8"/>
		<path id="DD:_Diffuser_24_" class="st13" d="M332.7,336.3c2.5-4.9,13.5-3.4,16-3c4.4,0.6,8.6,1.2,11,4.7c3.5,5,1.9,14-3.7,17
			c-5.9,3.2-12.9-2.1-15.3-4C336.3,347.7,330.5,340.7,332.7,336.3z"/>
		<path id="DD:_Diffuser_23_" class="st13" d="M360.7,372.7c5.1,2.8,18.2-4.9,17.3-13c-0.6-6.1-9.2-11.8-14.3-9.7
			c-3.1,1.3-4.3,5.1-5,7.7C357.3,362.5,356.9,370.6,360.7,372.7z"/>
	</g>
	<g id="LEFT_SUBFLOWER_1_">
		<circle id="DD:_Diffuser_216_" class="st13" cx="266.7" cy="355.5" r="6.2"/>
		<circle id="DD:_Diffuser_215_" class="st13" cx="282.8" cy="361.8" r="6.2"/>
		<circle id="DD:_Diffuser_214_" class="st13" cx="279.2" cy="379.5" r="6.2"/>
		<circle id="DD:_Diffuser_213_" class="st13" cx="262.9" cy="385.7" r="6.2"/>
		<circle id="DD:_Diffuser_212_" class="st13" cx="254.2" cy="370.3" r="6.2"/>
		<circle id="DD:_Diffuser_211_" class="st12" cx="268.5" cy="369.5" r="6.2"/>
		<circle id="DD:_Diffuser_123_" class="st12" cx="301" cy="390.3" r="3.5"/>
		<circle id="DD:_Diffuser_122_" class="st12" cx="291.6" cy="386.8" r="3.5"/>
		<circle id="DD:_Diffuser_121_" class="st12" cx="301" cy="380.8" r="3.5"/>
		<ellipse id="DD:_Diffuser_120_" class="st12" cx="293.5" cy="357.6" rx="3.6" ry="3.5"/>
		<ellipse id="DD:_Diffuser_119_" class="st12" cx="297.7" cy="369.2" rx="3.6" ry="3.5"/>
		<circle id="DD:_Diffuser_118_" class="st12" cx="273.7" cy="397.3" r="3.5"/>
		<circle id="DD:_Diffuser_117_" class="st12" cx="262.2" cy="398.4" r="3.5"/>
		<circle id="DD:_Diffuser_116_" class="st12" cx="251.5" cy="388.5" r="3.5"/>
		<circle id="DD:_Diffuser_115_" class="st12" cx="311.7" cy="389.2" r="3.5"/>
	</g>
	<g id="LEFTMOST_FLOWER">
		<path id="DD:_Diffuser_204_" class="st13" d="M294,410.5c-0.2-3-5.8-5-9.2-6.2c-4.5-1.6-8.5-1.8-11.3-1.8
			c-6.3,0.1-19.4,1.9-20,6.5c-0.6,4.3,9.5,10.4,19,11c1.1,0.1,3.8,0.2,7.1-0.4C285.7,418.3,294.2,414.3,294,410.5z"/>
		<path id="DD:_Diffuser_203_" class="st13" d="M264.5,429c-6.4,6.5-8.9,17.9-5,21c3.5,2.8,12.3-1,17-6c0.7-0.7,2.1-2.3,3.3-4.7
			c2.4-4.8,4.2-13,0.7-15.8C277,420.7,269,424.4,264.5,429z"/>
		<path id="DD:_Diffuser_202_" class="st13" d="M280,459c2.1,9.5,10.2,18.9,15,17.5c5.1-1.5,7.5-15.1,2.5-24.5
			c-3-5.7-9.7-11.7-14-10C279,443.8,278.7,453.1,280,459z"/>
		<path id="DD:_Diffuser_201_" class="st13" d="M286.5,398c-2.1,5.5,13,19.4,19,16.5c0.1,0,0.3-0.1,0.6-0.3
			c3.1-2.2,3.3-8.2,1.4-12.2c-2.5-5.4-9-7.5-14-7C291.7,395.2,287.4,395.6,286.5,398z"/>
		<path id="DD:_Diffuser_200_" class="st13" d="M307,442c-2.2-5.5,6.1-14.5,14-18.5c6.1-3.1,11.8-3,14.2-3
			c5.6,0.1,10.3,1.7,10.3,2.5c-0.1,1-8.3-0.7-10.5,3c-1.8,3,2.3,6.4,0.5,10.5c-1.1,2.6-4.2,4.6-7,4.5c-4.4-0.2-6.1-5.6-8.5-5
			c-2.8,0.7-1.4,8.4-5,10C312.5,447.1,308.2,445,307,442z"/>
		<path id="DD:_Diffuser_127_" class="st13" d="M315.5,401.5c6.9,0.2,9.1-2.8,11-1.5c3.2,2.2,0.7,12.7-4.5,20
			c-1.9,2.6-5.3,7.3-8.7,6.7c-3.4-0.7-5.9-6.6-5-11c0.6-2.8,2.1-3.1,2.3-6c0.4-4.2-2.6-6.5-1.5-8C310,400.6,311.9,401.4,315.5,401.5
			z"/>
		<path id="DD:_Diffuser_126_" class="st13" d="M296.4,447.2c1.1-3.3,6.4-5.4,9.1-3.9c1.4,0.8,0.9,2,2.5,3.1
			c2.6,1.8,5.2-0.6,8.5,1.2c0.5,0.3,2.1,1.2,2.5,3c0.3,1,0.2,2.5-0.8,3.4c-0.8,0.8-1.6,0.3-2.8,0.9c-2.3,1.2-3.5,5.3-2.2,7.4
			c0.6,1,1.5,1.4,1.3,1.8c-0.2,0.5-1.9-0.2-3.2,0.4c-2.1,1-1.5,4.5-2.7,4.8c-1.4,0.4-3.3-4.8-7.3-11.8
			C297.4,450.7,295.7,449.4,296.4,447.2z"/>
		<circle id="DD:_Diffuser_125_" class="st12" cx="293.3" cy="428.7" r="3.5"/>
		<circle id="DD:_Diffuser_124_" class="st12" cx="292.7" cy="418.4" r="3.5"/>
		<circle id="DD:_Diffuser_114_" class="st12" cx="285.9" cy="424" r="3.5"/>
		<circle id="DD:_Diffuser_113_" class="st12" cx="257.2" cy="426.5" r="5.7"/>
		<circle id="DD:_Diffuser_112_" class="st12" cx="286.3" cy="435.3" r="3.5"/>
		<circle id="DD:_Diffuser_111_" class="st12" cx="295.1" cy="439.8" r="3.5"/>
		<ellipse id="DD:_Diffuser_94_" class="st13" cx="338.1" cy="406.2" rx="7.4" ry="8.9"/>
	</g>
</g>
<g id="NLED">
	<rect id="NLED:_led" x="452.3" y="454.4" class="st16" width="14.2" height="14.2"/>
	<rect id="NLED:_led_1_" x="542" y="418.1" class="st16" width="14.2" height="14.2"/>
	<rect id="NLED:_led_2_" x="348.4" y="463.2" class="st16" width="14.2" height="14.2"/>
	<rect id="NLED:_led_3_" x="289.7" y="420.4" class="st16" width="14.2" height="14.2"/>
	<rect id="NLED:_led_4_" x="261.4" y="362.4" class="st16" width="14.2" height="14.2"/>
	<rect id="NLED:_led_5_" x="316.2" y="346" class="st16" width="14.2" height="14.2"/>
	<rect id="NLED:_led_6_" x="254.3" y="319.9" class="st16" width="14.2" height="14.2"/>
	<rect id="NLED:_led_7_" x="338.4" y="360.9" class="st16" width="14.2" height="14.2"/>
	<rect id="NLED:_led_8_" x="462.7" y="377.4" class="st16" width="14.2" height="14.2"/>
	<rect id="NLED:_led_9_" x="515.8" y="335.9" class="st16" width="14.2" height="14.2"/>
	<rect id="NLED:_nled" x="511.4" y="408" class="st16" width="14.2" height="14.2"/>
	<rect id="NLED:_led_10_" x="568.6" y="379.2" class="st16" width="14.2" height="14.2"/>
	<rect id="NLED:_led_11_" x="526.4" y="257.4" class="st16" width="14.2" height="14.2"/>
	<rect id="NLED:_led_12_" x="570.5" y="253.1" class="st16" width="14.2" height="14.2"/>
</g>
<g id="CIRCUIT">
	<polyline id="CP:_circuiy" class="st17" points="241.5,262.8 261.4,327 268.5,369.5 321.5,352.2 345.5,368 296.8,427.5 
		355.5,470.3 459.3,461.5 469.8,384.5 518.5,415.1 549.1,425.2 575.7,386.3 522.9,342.9 533.5,264.5 577.6,260.2 546.1,206.9 	"/>
</g>
<g id="BREAKIN">
	<rect id="BI:_Breakin_1_" x="237.3" y="258.5" class="st16" width="8.5" height="8.5"/>
</g>
<g id="BREAKOUT">
	<path id="BO:_Breakout_1_" class="st16" d="M548.8,211.2h-5.5c-0.8,0-1.5-0.7-1.5-1.5v-5.5c0-0.8,0.7-1.5,1.5-1.5h5.5
		c0.8,0,1.5,0.7,1.5,1.5v5.5C550.3,210.5,549.7,211.2,548.8,211.2z"/>
</g>
</svg>
