<?xml version="1.0" encoding="utf-8"?>
<!-- Generator: Adobe Illustrator 20.1.0, SVG Export Plug-In . SVG Version: 6.00 Build 0)  -->
<svg version="1.1" id="Layer_1" xmlns="http://www.w3.org/2000/svg" xmlns:xlink="http://www.w3.org/1999/xlink" x="0px" y="0px"
	 viewBox="0 0 140.7 54.9" style="enable-background:new 0 0 140.7 54.9;" xml:space="preserve">
<style type="text/css">
	.st0{fill:#4C5EAA;}
	.st1{fill:#EAEAEA;}
</style>
<rect id="_BODY:__x7B__x7D_" y="6" class="st0" width="108" height="41.5"/>
<path id="WING:__x7B__x7D_" class="st1" d="M130.4,17.1H93V8.5c0.2-4.7-3.5-8.7-8.2-8.8S76,3.2,75.9,7.9c0,0.2,0,0.4,0,0.6v8.6H38.4
	c-5.7,0-10.3,4.6-10.3,10.3l0,0c0,5.7,4.6,10.3,10.3,10.3h37.4v8.6c0.2,4.7,4.1,8.4,8.8,8.2c4.5-0.2,8.1-3.8,8.2-8.2v-8.6h37.4
	c5.7,0,10.3-4.6,10.3-10.3l0,0C140.7,21.8,136.1,17.1,130.4,17.1z"/>
</svg>
