<?xml version="1.0" encoding="utf-8"?>
<!-- Generator: Adobe Illustrator 20.0.0, SVG Export Plug-In . SVG Version: 6.00 Build 0)  -->
<svg version="1.1" id="Layer_1" xmlns="http://www.w3.org/2000/svg" xmlns:xlink="http://www.w3.org/1999/xlink" x="0px" y="0px"
	 viewBox="0 0 612 792" style="enable-background:new 0 0 612 792;" xml:space="preserve">
<style type="text/css">
	.st0{fill:#186031;}
</style>
<path id="TEST:_test" class="st0" d="M193.1,235c-37.7,4.4-68.5,92.5-72.1,127.1c-4.6,43.6,31.3,90.2,81.3,90l85.1-108l-5.2,134.4
	l45.5-102.8l-11.3,76.4l70-79.9l-72.7-79.9c-11.2,7.8-21.7,14.9-31.6,21.6c-10.3,7-19.9,13.5-28.7,19.3
	c-76.8,51.2-100.1,61.8-102.9,58.1c-2.6-3.3,12.6-16.9,25.9-47.5C185.3,323.7,191.2,248.2,193.1,235z"/>
<path class="st0" d="M272.7,385.4l-45.7,57L272.7,385.4z"/>
<line class="st0" x1="341.1" y1="442.4" x2="272.7" y2="385.4"/>
<path class="st0" d="M272.7,429.7"/>
</svg>
