<?xml version="1.0" encoding="utf-8"?>
<!-- Generator: Adobe Illustrator 19.2.1, SVG Export Plug-In . SVG Version: 6.00 Build 0)  -->
<svg version="1.1" id="ELD:_Display" xmlns="http://www.w3.org/2000/svg" xmlns:xlink="http://www.w3.org/1999/xlink" x="0px"
	 y="0px" viewBox="0 0 302 165" style="enable-background:new 0 0 302 165;" xml:space="preserve">
<style type="text/css">
	.st0{opacity:0.25;fill:#27AAE1;}
	.st1{fill:none;stroke:#EC008C;stroke-width:3;stroke-miterlimit:10;}
</style>
<path id="LENS:_TIR" class="st0" d="M14.3,52.1c0,0,23.3,62,30.8,69.5c4.6,4.6,25.7,45.5,37.2,38L81.9,111c0,0,26.8,8.2,48.7,8.2
	s49.9-6.7,49.9-6.7l-0.5,48.5c8.1-5,33.3-29.8,36.2-36c8.4-18,33.3-73.9,33.3-73.9L14.3,52.1z"/>
<path id="REF:_ReflectivePath_1_" class="st1" d="M4.7,50c0,0,27.6,66,34,75.5c7,10.5,30,35.5,30,35.5"/>
<polygon id="LENS:_Diffuser" class="st0" points="260.2,44.4 205.3,44.4 1.2,44.4 1.2,38 260.2,38 "/>
<path id="REF:_ReflectivePath_2_" class="st1" d="M257.7,48c0,0-27.6,66-34,75.5c-7,10.5-36.5,39-36.5,39"/>
</svg>
