<?xml version="1.0" encoding="utf-8"?>
<!-- Generator: Adobe Illustrator 19.1.0, SVG Export Plug-In . SVG Version: 6.00 Build 0)  -->
<svg version="1.1" id="Layer_1" xmlns="http://www.w3.org/2000/svg" xmlns:xlink="http://www.w3.org/1999/xlink" x="0px" y="0px"
	 viewBox="-263 259 48 60" style="enable-background:new -263 259 48 60;" xml:space="preserve">
<style type="text/css">
	.st0{fill:none;stroke:#000000;stroke-width:2;stroke-linecap:round;stroke-linejoin:round;stroke-miterlimit:10;}
</style>
<g>
	<circle class="st0" cx="-233.9" cy="278.7" r="16.4"/>
	<path class="st0" d="M-226.8,303.7c0.1-0.4,0.1-0.9,0.1-1.3c0-4-3.2-7.2-7.2-7.2c-4,0-7.2,3.2-7.2,7.2c0,0.5,0.1,0.9,0.1,1.3
		H-226.8z"/>
	<g>
		<circle cx="-233.9" cy="278.7" r="1.9"/>
		<path class="st0" d="M-229.9,269.8c0,2.2-1.8,7.7-4,7.7c-2.2,0-4-5.5-4-7.7s1.8-4,4-4C-231.7,265.8-229.9,267.6-229.9,269.8z"/>
		<path class="st0" d="M-229.9,287.6c0-2.2-1.8-7.7-4-7.7c-2.2,0-4,5.5-4,7.7c0,2.2,1.8,4,4,4C-231.7,291.6-229.9,289.8-229.9,287.6
			z"/>
		<path class="st0" d="M-225,274.7c-2.2,0-7.7,1.8-7.7,4s5.5,4,7.7,4c2.2,0,4-1.8,4-4S-222.8,274.7-225,274.7z"/>
		<path class="st0" d="M-242.8,274.7c2.2,0,7.7,1.8,7.7,4s-5.5,4-7.7,4c-2.2,0-4-1.8-4-4S-245,274.7-242.8,274.7z"/>
	</g>
	<path class="st0" d="M-241.2,300.6c-0.1,1.8-7.1,2.6-9,2.1c-3.9-1-6.3-3.4-8.2-7.2c-1.4-2.6-2.4-5.2-1.8-8.4
		c0.5-3.1,2.1-5.2,2.1-8.6"/>
</g>
</svg>
