<?xml version="1.0" encoding="utf-8"?>
<!-- Generator: Adobe Illustrator 19.1.0, SVG Export Plug-In . SVG Version: 6.00 Build 0)  -->
<svg version="1.1" id="Layer_1" xmlns="http://www.w3.org/2000/svg" xmlns:xlink="http://www.w3.org/1999/xlink" x="0px" y="0px"
	 viewBox="-237 226 100 125" style="enable-background:new -237 226 100 125;" xml:space="preserve">
<path d="M-156.4,321.7h-60.6l-0.1-0.6c-0.4-2.1-10.5-51.6,0.2-62.7c5.2-5.4,17.5-8.9,31.6-8.9c13.8,0,24.6,3.3,29,8.9
	c9.4,12.2,0.5,60.6,0.1,62.7L-156.4,321.7z M-215.8,320.2h58.2c1-5.7,8.5-49.9,0-60.9c-4-5.2-14.6-8.4-27.8-8.4
	c-13.4,0-25.7,3.4-30.5,8.4C-225.4,269.4-216.9,314.5-215.8,320.2z M-186.7,312.9c-4.3,0-8.4-1.2-12-3.6c-2.4-1.6-4.3-3.5-5.9-5.8
	l0,0l-0.1-0.2c-1.2-1.8-2.2-3.9-2.8-6l0-0.1c-0.6-1.9-0.8-3.9-0.8-5.9c0-2,0.3-4,0.9-6c0.6-2.1,1.5-4.1,2.7-5.9l0.1-0.1
	c1.6-2.4,3.6-4.4,6-6c3.6-2.4,7.7-3.6,12-3.6c4.3,0,8.4,1.2,12,3.6c2.4,1.6,4.4,3.6,6,6c1.2,1.8,2.2,3.9,2.8,6c0.6,2,0.9,4,0.9,6
	c0,2-0.3,4-0.9,6c-0.6,2.2-1.6,4.2-2.8,6c-1.6,2.4-3.6,4.4-6,6C-178.3,311.7-182.5,312.9-186.7,312.9z M-203.5,302.5
	c1.5,2.2,3.4,4.1,5.6,5.5c3.3,2.2,7.2,3.4,11.1,3.4c4,0,7.8-1.2,11.1-3.4c2.2-1.5,4.1-3.4,5.6-5.6c1.1-1.7,2-3.6,2.6-5.6
	c0.5-1.8,0.8-3.7,0.8-5.6c0-1.9-0.3-3.8-0.8-5.6c-0.6-2-1.5-3.9-2.6-5.6c-1.5-2.2-3.4-4.1-5.6-5.6c-3.3-2.2-7.2-3.4-11.1-3.4
	c-4,0-7.8,1.2-11.1,3.4c-2.2,1.5-4.1,3.3-5.6,5.5l-0.1,0.1c-1.1,1.7-2,3.6-2.6,5.6c-0.5,1.8-0.8,3.7-0.8,5.6s0.3,3.7,0.8,5.6l0,0.1
	c0.6,1.9,1.4,3.7,2.5,5.3l0.1,0L-203.5,302.5z M-198.9,267.5c-2.8,0-5-2.2-5-5s2.3-5,5-5c2.8,0,5,2.2,5,5S-196.1,267.5-198.9,267.5z
	 M-198.9,259c-1.9,0-3.5,1.6-3.5,3.5s1.6,3.5,3.5,3.5c1.9,0,3.5-1.6,3.5-3.5S-196.9,259-198.9,259z M-206.5,267.5h-4.4
	c-1,0-1.8-0.8-1.8-1.8v-6.3c0-1,0.8-1.8,1.8-1.8h4.4c1,0,1.8,0.8,1.8,1.8v6.3C-204.8,266.7-205.6,267.5-206.5,267.5z M-210.9,259.1
	c-0.2,0-0.3,0.1-0.3,0.3v6.3c0,0.2,0.1,0.3,0.3,0.3h4.4c0.2,0,0.3-0.1,0.3-0.3v-6.3c0-0.2-0.1-0.3-0.3-0.3H-210.9z"/>
<path d="M-168.6,295.7c0.3-1.1,0.4-2.2,0.5-3.3h-37.3c0.1,1.1,0.2,2.2,0.5,3.3H-168.6z"/>
<path d="M-170.9,301.2c0.6-1,1.2-2.1,1.6-3.3h-35c0.4,1.2,1,2.3,1.6,3.3H-170.9z"/>
<path d="M-197.3,306.7h21.2c1.4-0.9,2.6-2,3.7-3.3H-201C-199.9,304.6-198.7,305.7-197.3,306.7z"/>
<path d="M-168.1,290.2c-0.1-1.1-0.2-2.2-0.5-3.3h-36.3c-0.3,1.1-0.4,2.2-0.5,3.3H-168.1z"/>
<path d="M-202.6,281.4c-0.6,1-1.2,2.1-1.6,3.3h35c-0.4-1.2-1-2.3-1.6-3.3H-202.6z"/>
<path d="M-176.1,275.9h-21.2c-1.4,0.9-2.6,2-3.7,3.3h28.5C-173.5,277.9-174.8,276.8-176.1,275.9z"/>
<path d="M-198.9,265.1c-1.4,0-2.6-1.1-2.6-2.6s1.2-2.6,2.6-2.6c1.4,0,2.6,1.1,2.6,2.6S-197.4,265.1-198.9,265.1z M-198.9,261
	c-0.9,0-1.6,0.7-1.6,1.6s0.7,1.6,1.6,1.6c0.9,0,1.6-0.7,1.6-1.6S-198,261-198.9,261z"/>
<path d="M-207.1,265.1h-3.3v-5.3h3.3V265.1z M-209.4,264.1h1.3v-3.3h-1.3V264.1z"/>
<path d="M-208.5,247.8L-208.5,247.8c-0.5,0-0.9-0.3-0.9-0.6l0-3.8c-0.1-0.7,0.6-1.3,1.2-1.9c0.4-0.4,0.8-0.7,0.8-1
	c0-0.3-0.4-0.7-0.8-1.1c-0.5-0.5-1.1-1.1-1.2-1.8c-0.1-0.8,0.6-1.4,1.2-2c0.4-0.4,0.8-0.8,0.8-1.1c0-0.5-1-1.7-1.8-2.4
	c-0.3-0.3-0.3-0.7,0.1-0.9c0.4-0.2,0.9-0.2,1.2,0.1c0.4,0.3,2.3,2.1,2.2,3.3c0,0.7-0.6,1.3-1.2,1.8c-0.4,0.4-0.8,0.8-0.8,1.1
	c0,0.3,0.4,0.7,0.8,1.1c0.6,0.6,1.2,1.2,1.2,1.9c-0.1,0.7-0.7,1.2-1.2,1.7c-0.4,0.4-0.8,0.8-0.8,1l0,3.8
	C-207.7,247.5-208,247.8-208.5,247.8z"/>
<path d="M-198.2,247.7L-198.2,247.7c-0.5,0-0.9-0.3-0.9-0.6l0-3.8c-0.1-0.7,0.6-1.3,1.2-1.9c0.4-0.4,0.8-0.7,0.8-1
	c0-0.3-0.4-0.7-0.8-1.1c-0.5-0.5-1.1-1.1-1.2-1.8c-0.1-0.8,0.6-1.4,1.2-2c0.4-0.4,0.8-0.8,0.8-1.1c0-0.5-1-1.7-1.8-2.4
	c-0.3-0.3-0.3-0.7,0.1-0.9c0.4-0.2,0.9-0.2,1.2,0.1c0.4,0.3,2.3,2.1,2.2,3.3c0,0.7-0.6,1.3-1.2,1.8c-0.4,0.4-0.8,0.8-0.8,1.1
	c0,0.3,0.4,0.7,0.8,1.1c0.6,0.6,1.2,1.2,1.2,1.9c-0.1,0.7-0.7,1.2-1.2,1.7c-0.4,0.4-0.8,0.8-0.8,1l0,3.8
	C-197.3,247.4-197.7,247.7-198.2,247.7z"/>
<path d="M-187.6,247.7L-187.6,247.7c-0.5,0-0.9-0.3-0.9-0.6l0-3.8c-0.1-0.7,0.6-1.3,1.2-1.9c0.4-0.4,0.8-0.7,0.8-1
	c0-0.3-0.4-0.7-0.8-1.1c-0.5-0.5-1.1-1.1-1.2-1.8c-0.1-0.8,0.6-1.4,1.2-2c0.4-0.4,0.8-0.8,0.8-1.1c0-0.5-1-1.7-1.8-2.4
	c-0.3-0.3-0.3-0.7,0.1-0.9c0.4-0.2,0.9-0.2,1.2,0.1c0.4,0.3,2.3,2.1,2.2,3.3c0,0.7-0.6,1.3-1.2,1.8c-0.4,0.4-0.8,0.8-0.8,1.1
	c0,0.3,0.4,0.7,0.8,1.1c0.6,0.6,1.2,1.2,1.2,1.9c-0.1,0.7-0.7,1.2-1.2,1.7c-0.4,0.4-0.8,0.8-0.8,1l0,3.8
	C-186.8,247.4-187.2,247.7-187.6,247.7z"/>
<path d="M-177.2,247.8L-177.2,247.8c-0.5,0-0.9-0.3-0.9-0.6l0-3.8c-0.1-0.7,0.6-1.3,1.2-1.9c0.4-0.4,0.8-0.7,0.8-1
	c0-0.3-0.4-0.7-0.8-1.1c-0.5-0.5-1.1-1.1-1.2-1.8c-0.1-0.8,0.6-1.4,1.2-2c0.4-0.4,0.8-0.8,0.8-1.1c0-0.5-1-1.7-1.8-2.4
	c-0.3-0.3-0.3-0.7,0.1-0.9c0.4-0.2,0.9-0.2,1.2,0.1c0.4,0.3,2.3,2.1,2.2,3.3c0,0.7-0.6,1.3-1.2,1.8c-0.4,0.4-0.8,0.8-0.8,1.1
	c0,0.3,0.4,0.7,0.8,1.1c0.6,0.6,1.2,1.2,1.2,1.9c-0.1,0.7-0.7,1.2-1.2,1.7c-0.4,0.4-0.8,0.8-0.8,1l0,3.8
	C-176.4,247.5-176.8,247.8-177.2,247.8z"/>
<path d="M-166.9,247.8L-166.9,247.8c-0.5,0-0.9-0.3-0.9-0.6l0-3.8c-0.1-0.7,0.6-1.3,1.2-1.9c0.4-0.4,0.8-0.7,0.8-1
	c0-0.3-0.4-0.7-0.8-1.1c-0.5-0.5-1.1-1.1-1.2-1.8c-0.1-0.8,0.6-1.4,1.2-2c0.4-0.4,0.8-0.8,0.8-1.1c0-0.5-1-1.7-1.8-2.4
	c-0.3-0.3-0.3-0.7,0.1-0.9c0.4-0.2,0.9-0.2,1.2,0.1c0.4,0.3,2.3,2.1,2.2,3.3c0,0.7-0.6,1.3-1.2,1.8c-0.4,0.4-0.8,0.8-0.8,1.1
	c0,0.3,0.4,0.7,0.8,1.1c0.6,0.6,1.2,1.2,1.2,1.9c-0.1,0.7-0.7,1.2-1.2,1.7c-0.4,0.4-0.8,0.8-0.8,1l0,3.8
	C-166.1,247.5-166.5,247.8-166.9,247.8z"/>
</svg>
