<svg xmlns="http://www.w3.org/2000/svg" xmlns:xlink="http://www.w3.org/1999/xlink" version="1.1" x="0px" y="0px" viewBox="0 0 100 100" enable-background="new 0 0 100 100" xml:space="preserve"><path d="M78.3,23.9C74.3,12.4,62.8,5,50.2,5c-1.2,0-2.3,0.1-3.5,0.2C38.7,6,32,9.4,26.8,15c-8.6,9.4-8.6,23.3-2.5,33.2  c1.9,3.2,4.2,6.1,6.4,9.1c2.7,3.9,4.3,8.2,4.3,12.8c0,2,1.9,3.7,4.3,3.7c1.3,0,18,0.1,20.7,0.1h0.3c2.8,0,4.6-1.7,4.6-4.2  c0-0.6,0.1-1.2,0.1-1.8c0.4-4.3,2.3-8.2,4.9-11.7c1.7-2.3,3.5-4.5,5-7C80.1,41.2,81.4,32.7,78.3,23.9L78.3,23.9z M69.2,45.5  c-0.9,1.6-2.1,3.1-3.4,4.8l-1.4,1.9c-3.7,5.1-5.7,9.8-6.2,14.8H41.8c-0.6-4.8-2.4-9.4-5.5-13.6c-0.7-1.1-1.5-2.1-2.3-3.1  c-1.4-1.9-2.8-3.8-3.9-5.7c-4-6.6-5.2-17.2,1.7-24.9c4.2-4.5,9.3-7.1,15.6-7.7c0.9-0.1,1.7-0.2,2.7-0.2c9.8,0,18.7,5.9,21.7,14.2  C74.2,32.8,73.4,39.2,69.2,45.5L69.2,45.5z M61.4,78.5H38.7c-1.7,0-3.2,1.3-3.2,2.9c0,1.7,1.5,3,3.2,3h22.7c1.7,0,3.2-1.3,3.2-3  C64.6,79.9,63.2,78.5,61.4,78.5L61.4,78.5z M51.2,94.9c4.1-0.5,7.3-2.5,9.5-5.8H39.4C41.6,92.4,46.5,95.5,51.2,94.9z"></path></svg>