<svg id="Layer_1" data-name="Layer 1" xmlns="http://www.w3.org/2000/svg" viewBox="0 0 259.3 174.66"><defs><style>.cls-1{fill:#ff0;}</style></defs><title>GCARDPCB</title><path class="cls-1" d="M245.08,95.17L223.9,105.32l-29.5,6.81,30.65-29.59L213,64.4l-33.36-30-5.84-3.26L135.25,14.72,104.71,0,64.28,29.37l0.12,0.19L41.77,42.11l-26.63-17H0v3H14.28l8.53,5.46,15,9.62,3.81,2.44,2.9-1.6,0,0,4-2.23,10.76-6,3.33-1.84L64,33l2.1-1.33c0.76-.51,1.57-1.13,2.38-1.71l5.67-4.12,0,0,3.72-2.7,10-7.23,3.72-2.7,0,0L105,3.43l16,7.73,11.39,5.49c1.42,0.72,2.86,1.3,4.2,1.87l3.68,1.56L143,21.22v0l4.23,1.8,11.32,4.81,4.23,1.8v0l9.76,4.14,5.41,3,8.37,7.54,0,0,3.42,3.08,9.14,8.23,3.42,3.08,0,0L208.14,64l1.43,1.29a24.23,24.23,0,0,1,3,3.83l8.29,12.51L207.3,95.52l0,0L204,98.76l-8.85,8.54-3.31,3.2-0.35-.37-13.75,5.71-16.57-4-13.81-10-2.4-1.74-6.86-.6v0l-4.58-.4L121.29,98l-4.58-.4v0l-6.84-.6-3.41,1.68-13.95,6.88-13.78-4v0l-4.42-1.27L62.49,97l-4.42-1.27v0l-2.37-.73-1.28,1.7,0,0-2.77,3.67-7.4,9.82-2.77,3.67,0,0-4,5.29-0.13,2.08L37,126.95,40.42,130l0,0,3.42,3.08L53,141.3l3.42,3.08,0,0,3.3,3,5.55-1.06,10.91-2.07,9.12-2.62v0l4.42-1.27,11.82-3.39,4.42-1.27v0l9.09-2.61,9.39-3.71,10.86-4.29L146.11,123v0l4.52-.88,12.07-2.35,4.52-.88v0l11-2.13,5.67,0.08,2.25,0H187l8.42-1.94v0l4.48-1,12-2.77,4.48-1v0l8.54-2,8.72-4.18,12.14-5.82H259.3v3.48H246.54l-11.43,5.48L226,111.42l-9.89,2.28h0l-0.49.11-1.36.31-5,1.15,0.9,1.23,4.38-1,1.36-.31,1.46-.34,0.79,3.41-1.46.34-1.36.31-3.51.81-3.12.72-3.15-4.3L199,117.66l-1.36.31h0l-0.49.11h0l-9.8,2.26-3.57-.05-5.31-.07-11.58,2.25h0l-0.49.1-1.37.27-5,1,0.86,1.26,4.42-.86,1.37-.27,1.47-.29,0.67,3.44-1.47.29-1.37.27-3.53.69-3.14.61-3-4.41-6.68,1.3-1.37.27h0l-0.49.1h0l-11.5,2.24-10.56,4.17-9.54,3.77-10.21,2.93h0l-0.48.14-1.35.39-4.9,1.41,1,1.18,4.33-1.24,1.35-.39,1.44-.41,1,3.36-1.44.41-1.35.39-3.46,1-3.08.88-3.37-4.13L89,144.16l-1.35.39h0l-0.48.14h0L77,147.62l-11.07,2.1-7.25,1.38-5.48-4.94h0L53,146l-1-.94-3.79-3.41-0.49,1.44,3.34,3L52,147l1.11,1-2.34,2.6-1.11-1-1-.94L46,146.27l-2.38-2.14,1.72-5-5.05-4.55-1-.94h0L39,133.4h0l-5.56-5,0.46-7.47,0.19-3.13,5.22-6.93h0l0.3-.4,0.84-1.12,3.07-4.07-1.48-.36-2.71,3.59-0.84,1.12-0.9,1.2-2.8-2.11,0.9-1.2,0.84-1.12,2.17-2.88L40.64,101l5.18,1.27,4.09-5.43,0.84-1.12h0l0.17-.23h0l3.48-4.62,5.53,1.71h0l0.55,0.16,1.35,0.39,4.9,1.41L66.53,93,62.2,91.78l-1.35-.39L59.42,91l1-3.36L61.82,88l1.35,0.39,3.46,1,3.08,0.88,0.67,5.29,6.54,1.87,1.35,0.39,0.27,0.08h0l13.66,3.92,12.74-6.28,4.28-2.11L118,94.2h0l0.5,0,1.39,0.12L125,94.82l-0.48-1.45L120,93l-1.39-.12-1.49-.13,0.31-3.49,1.49,0.13,1.39,0.12,3.59,0.31,3.19,0.28,1.66,5.06,6.77,0.59,1.39,0.12h0l0.5,0h0l8.82,0.77L149.43,99l13.81,10,13.9,3.94,13.17-5.84h0l0.2-.2,1-1,3.67-3.54-1.4-.59L190.56,105l-1,1-1.08,1L186,104.46l1.08-1,1-1,2.59-2.5,2.3-2.22,4.91,2.07,4.89-4.72,1-1h0l0.2-.2h0L216.5,81.27l-7-10.63a11.79,11.79,0,0,0-1.41-1.85c-0.48-.52-0.87-1-1.24-1.34l-1.21-1.09-6.38-5.74h0l-0.37-.33-1-.94L194,55.92l-0.49,1.44,3.34,3,1,0.94,1.11,1-2.34,2.6-1.11-1-1-.94-2.68-2.41-2.38-2.14,1.72-5-5.05-4.55-1-.94h0l-0.37-.33h0l-8.82-7.94L171,36.89,160.5,32.43h0l-0.46-.2-1.29-.55-4.69-2v1.52L158.21,33l1.29,0.55,1.38,0.59-1.37,3.22-1.38-.59-1.29-.55-3.31-1.41-2.95-1.25,0-5.33-6.26-2.66L143,25h0l-0.46-.2h0l-3.61-1.53-3.7-1.57c-1.35-.58-2.81-1.16-4.23-1.88l-11.42-5.51-14.2-6.85L92.56,16.78h0l-0.23.17-1.13.82-4.13,3,1.31,0.78L92,18.89l1.13-.82,1.21-.88L96.42,20l-1.21.88-1.13.82-2.91,2.12-2.59,1.88L84,23l-5.5,4-1.13.82h0L77,28.1h0l-6.55,4.76c-0.82.59-1.63,1.21-2.41,1.73L65.86,36,65,36.5l0,0.06-0.95.52-0.32.21v0l0,0L62.51,38,58,40.43l1.2,0.93,3.94-2.18,1.22-.68,1.31-.73,1.7,3.06-1.31.73-1.22.68L61.74,44l-2.8,1.55-4.21-3.27-5.95,3.3-1.22.68h0l-0.25.14h0l-5.77,3.2L36,46l-15-9.62L13.26,31.5H0v6H11.52l6.21,4,15,9.62,8.55,5.47,8.88-4.92v0l0.25-.14,4.29-2.38,1.7,3.06-4.29,2.38-1.31.73,0,0-9.63,5.34L30.89,54l-15-9.62L10.5,40.94H0V42.1H10.16l5.06,3.24,15,9.62,10.88,7,10.24-5.67h0l1.31-.73L57,53.14l1.7,3.06-4.29,2.38-1.31.73h0L41,66,28.39,57.89l-15-9.62L9.15,45.58H0V47H8.73l3.86,2.47,15,9.62L41,67.61l13.85-7.68h0l0.07,0L58.3,58l2.27-1.26,1.84-1L60.23,51.8l-5.41-4-0.61.34-3.06,1.7-1.22.68-1.31.73-1.7-3.06,1.31-.73,1.22-.68,5.6-3.1,7.85,5.71L65.47,54l0.26-.15,1.14-.63,4.37-2.42,0.84-.47v0l2.28-1.45,2.33-1.49c0.84-.56,1.67-1.2,2.53-1.81l6.84-5h0l0.24-.18,3.16-2.29,2.1-1.53,1.7-1.23-2.65-3.64-5.85-3.29-0.57.41L81.37,31l-1.13.82L79,32.66,77,29.82l1.21-.88,1.13-.82,5.18-3.76L93,29.07l3.12,4.29,0.24-.18,1.05-.76,4-2.94,0.23-.17h0L107,25.43l6,2.9,11.59,5.59c1.43,0.72,2.94,1.34,4.34,1.94l3.83,1.63,3.74,1.59h0l0.28,0.12,3.59,1.52,2.39,1,1.93,0.82,1.76-4.14-0.19-6.71-0.64-.27-3.22-1.37-1.29-.55-1.38-.59,1.37-3.22,1.38,0.59,1.29,0.55,5.89,2.5L150,39l-2.07,4.88L148.19,44l1.2,0.51,4.6,2,0.46,0.2h0l9.74,4.14,2.65,1.48,7.53,6.78h0l0.22,0.2,2.9,2.61,1.93,1.74L181,65l3-3.34,2-6.41-0.52-.47-2.6-2.34-1-.94-1.11-1,2.34-2.6,1.11,1,1,0.94L190,54.15l-2.84,9.28-3.55,3.94,0.22,0.2,1,0.87,3.72,3.35,0.37,0.33h0L194.29,77l0.22,0.2a4.22,4.22,0,0,1,.56.55l1.32,2-3.11,3h0l-0.06.06-2.81,2.71-1.87,1.81L187,88.78,190.15,92l6.25,2.44,0.5-.49,2.52-2.43,1-1,1.08-1L203.94,92l-1.08,1-1,1-4.6,4.45L188.19,95l-3.68-3.81-0.22.21-0.94.9-3.6,3.47-0.2.2h0l-3.4,3.28-3.82-2.78-13.81-10-6.65-4.83-13.1-1.15h0l-0.3,0-3.89-.34L132,79.88l-2.09-.18-0.39,4.48,2.26,6.32,0.7,0.06L136,90.87,137.37,91l1.49,0.13-0.31,3.49-1.49-.13-1.39-.12-6.38-.56L126,84.67l0.46-5.28-0.3,0-1.3-.11-5-.44-0.5,0h0l-13.11-1.15-8.16,4L90.71,85.3,82.8,83h0l-0.08,0L79,81.92l-2.5-.72-2-.58L73.21,85l1,6.64,0.67,0.19,3.36,1,1.35,0.39L81,93.54l-1,3.36-1.44-.41-1.35-.39-6.15-1.76-1.52-9.59,1.46-5.09-0.29-.08-1.25-.36-4.81-1.38-0.25-.07h0l-0.58-.18-0.61-.18h0L48.58,72.87l-10,13.3h0l0,0.07-2.35,3.11-1.56,2.08L33.32,93.1l3.59,2.71,6.56,1.43,0.42-.56L46,93.89l0.84-1.12,0.9-1.2,2.8,2.11-0.9,1.2L48.8,96l-3.85,5.11-9.5-2-4.23-3.19L31,96.13l-0.78,1-3,4-0.3.4h0l-8,10.64L18.45,120l-0.93,14.93,11.11,10h0L28.69,145l2.9,2.61,1.93,1.74,1.56,1.41,3-3.34,2-6.41-0.52-.47L37,138.17l-1-.94-1.11-1,2.34-2.6,1.11,1,1,0.94,4.76,4.28-2.84,9.28-3.55,3.94,0.22,0.2,1,0.87,3.72,3.35,0.21,0.19h0L54,167.75l14.79-2.81,11.76-2.24,10.91-3.13h0l0.29-.08,3.75-1.07,2.5-.72,2-.58-1.24-4.33-4.37-5.09-0.67.19-3.36,1-1.35.39-1.44.41-1-3.36,1.44-.41,1.35-.39,6.15-1.76,6.37,7.33,1.46,5.09,0.29-.08,1.25-.36,4.81-1.38,0.48-.14h0l10.94-3.14,10.24-4,9.23-3.65,10.1-2h0l0.29-.06,3.83-.74,2.55-.5,2.06-.4-0.86-4.42-3.91-5.45L154,130l-3.44.67-1.37.27-1.47.29L147,127.76l1.47-.29,1.37-.27,6.28-1.22,5.7,7.86,1,5.2,0.29-.06,1.28-.25,4.91-1,0.49-.1h0l10-1.95,3.71,0.05,5.44,0.08,11.63-2.69h0l0.29-.07,3.8-.88,2.53-.58,2-.47-1-4.38-4.1-5.31-0.68.16-3.41.79-1.36.31-1.46.34-0.79-3.41,1.46-.34,1.36-.31,6.24-1.44,6,7.65,1.19,5.16,0.29-.07,1.27-.29,4.87-1.12,0.49-.11h0l11.55-2.67L241.8,121l8.25-4h9.24v3.48h-8.45l-7.54,3.61-11,5.25-11,2.53v0l-2.83.65-14.81,3.42-1.95.45-1.36.32v0l-11.07,2.56-5.86-.08-2.25,0h-1.09s0,0,0,0l-8.68,1.69v0l-2.85.55-14.92,2.9-2,.38-1.37.27v0l-8.8,1.71-8.93,3.53-10.4,4.11-10.14,2.91v0l-2.79.8-14.61,4.19-1.92.55-1.35.39v0l-10.11,2.9-11.92,2.27-16.49,3.13L41.38,161.07l0,0-2.16-1.94L27.91,149l-1.49-1.34-1-.94,0,0L13.95,136.37l1-16.6L15.52,111l8-10.68,0,0,1.75-2.32L34.44,85.8l1.2-1.6,0.84-1.12,0,0L47.27,68.83l17,5.25h0l2.79,0.8,14.61,4.19,1.92,0.55L84.93,80v0l5.45,1.56,6.17-3,9-4.45,13.09,1.14v0l2.89,0.25,15.14,1.32,2,0.17,1.39,0.12v0l13.06,1.14,7.43,5.4,13.81,10,1.46,1.06,0.42-.41,0,0,2.09-2,10.93-10.56,1.44-1.39,1-1,0,0h0l-4.47-4,0,0-2.16-1.94-11.3-10.17-1.49-1.34-1-.94,0,0-6.49-5.85h0L164.5,55,164,54.7l-0.94-.53-0.42-.23h0L154,50.27v0l-2.67-1.13-14-5.94-1.84-.78-1.29-.55v0l-2.84-1.21L127.52,39c-1.41-.6-2.93-1.22-4.36-1.95l-11.63-5.6-4.17-2-2.67,1.94,0,0-2.35,1.7-12.3,8.93-1.62,1.18-1.13.82,0,0-6.1,4.43c-0.87.62-1.71,1.26-2.56,1.83l-2.38,1.51-2,1.3,0,0.06-2.54,1.41L58.43,61.95l-1.75,1-1.22.68,0,0-14.6,8.09L25.76,62l-15-9.62-3-1.92H0v3H6.85L39.46,74.28l-26.83,35.6-1.72,27.73,41.15,37.05L82,169l41.18-11.81,19.21-7.59,38-7.39,9.26,0.13,43.63-10.07,18.19-8.72h7.78V95.17H245.08ZM134.44,122.24l-20.36,8L75.47,141.36l-14.89,2.83L40,125.7l0.35-5.56L56.8,98.37l36,10.32,17.64-8.7,33.48,2.93,19,13.78ZM89.61,36.34l-4,2.88-1.21.88h0l-6,4.36c-0.86.61-1.69,1.25-2.52,1.8l-2.32,1.47-1.73,1.1,0,0.06-1.31.73L66.2,52,64.5,49l4.37-2.42,0.62-.34,2.18-1.39L74,43.37c0.82-.54,1.64-1.18,2.49-1.79l5.94-4.32h0l1.21-.88,4-2.88Zm-9.15-3.4,0,0,0.4-.29,4-2.88,2.06,2.83-4,2.88-1.21.88,0,0-5.92,4.3c-0.85.6-1.67,1.24-2.48,1.78L71,43.85l-1.44.92,0.05,0.1-1.31.73L64,48,62.27,45l4.37-2.42L67,42.34v0l2.16-1.37,2.22-1.41c0.8-.53,1.62-1.16,2.46-1.76Zm61.55,7L137.5,38l-1.38-.59h0l-2.8-1.19-3.82-1.62c-1.4-.59-2.9-1.21-4.33-1.93L113.6,27.05l-6.75-3.26-5,3.65h0l-1.21.88-4,2.94-2.06-2.83,4-2.94,1.21-.88h0l6.71-4.87,8.59,4.14,11.54,5.56c1.43,0.72,2.92,1.33,4.3,1.92L134.71,33l2.78,1.18h0l1.38,0.59,4.51,1.91Zm-1.79-9.59v0l0.46,0.2,4.51,1.91-1.37,3.22-4.51-1.91-1.38-.59,0,0-2.77-1.17-3.78-1.6c-1.38-.59-2.87-1.19-4.3-1.92l-11.53-5.56-9.21-4.44L99.09,23.7l0,0-1.21.88-4,2.94-2.06-2.83,4-2.94,0.23-.17,0,0L106,14.38l11,5.32,11.49,5.54c1.42,0.72,2.9,1.32,4.27,1.9l3.75,1.59Zm39.1,31.36-3.64-3.28-1.11-1h0l-6.9-6.21-2.86-1.59-8.89-3.77h0l-1.38-.59-4.6-2L151.3,40l4.6,2,1.38,0.59h0l9.06,3.85,3.36,1.88,7.19,6.48h0l1.11,1L181.66,59ZM180.75,52l0,0,0.37,0.33,3.64,3.28-2.34,2.6L178.75,55l-1.11-1,0,0-7.29-6.56-3.53-2-9.12-3.87,0,0L156.33,41l-4.6-2,1.37-3.22,4.6,2,0.46,0.2v0l10.21,4.34,4,2.25Zm9.77,35.36,3.52-3.4,1.08-1h0l3.14-3-1.85-2.8a5.93,5.93,0,0,0-.79-0.77L195.32,76l-4.77-4.29h0l-1.11-1-3.72-3.35,2.34-2.6,3.72,3.35,1.11,1h0l5,4.49,0.53,0.48L199,74.68a3.31,3.31,0,0,1,.73.77l3.17,4.79-5.36,5.18h0l-1.08,1-3.52,3.4Zm9.37,2.25,0,0-0.2.2-3.52,3.4-2.43-2.52,3.52-3.4,1.08-1,0,0,6.11-5.9-3.62-5.46A3.76,3.76,0,0,0,200,74l-0.7-.63-0.61-.55-5.05-4.55,0,0-1.11-1L188.79,64l2.34-2.6,3.72,3.35,0.37,0.33,0,0,6,5.41,0.83,0.75L203,72.08a5.8,5.8,0,0,1,1.08,1.22L209,80.7ZM133.29,81.4l4.88,0.43L139.66,82v0l11.71,1,6.34,4.6,13.81,10,4.77,3.47,3.37-3.25h0l1.08-1,3.6-3.47,2.43,2.52-3.6,3.47-1.08,1h0l-5.47,5.28-7.13-5.19-13.81-10-5.56-4-10.75-.94h0l-1.49-.13L133,84.88ZM138,90v0l-0.5,0-4.88-.43L132.89,86l4.88,0.43,1.49,0.13v0.05l10.43,0.91,5.3,3.85,13.81,10,7.92,5.76,6.17-6,0,0,1.08-1,3.6-3.47L190,99.15l-3.6,3.47h0l-0.2.2,0,0L177,111.67l-10.28-7.47-13.81-10-4.52-3.28Zm-60.53-7,4.71,1.35,1.44,0.41h0l7.26,2.08,7.87-3.88,7.81-3.85,11.73,1v0l1.49,0.13,5,0.44-0.31,3.49-5-.44-1.49-.13h0l-10.76-.94L100.24,86l-9.07,4.47-8.55-2.45h0l-1.44-.41L76.47,86.3Zm2.74,9.24v0l-0.27-.08L75.2,90.72l1-3.36,4.71,1.35,1.44,0.41v0.05l9,2.58,9.47-4.67,6.65-3.28,10.43,0.91V84.66l1.49,0.13,5,0.44L124,88.72l-5-.44h0l-0.5,0v0l-10.46-.92-5.77,2.85L91.62,95.46Zm-43.63-1,2.95-3.91L40.4,86h0l8.7-11.54,14.1,4.35,1.15,0.33,4.81,1.38-1,3.36-4.81-1.38L62,82.14v0L50.41,78.55l-7.23,9.59h0l-0.9,1.2-2.95,3.91Zm9.61,0.75,0,0L46,92.11,43,96l-2.8-2.11L43.17,90l0.9-1.2,0,0,6.74-8.94,10.79,3.33v0l1.44,0.41L67.9,85l-1,3.36L62.13,87l-0.43-.12v0l-9.53-2.94ZM33.42,147.35l-3.64-3.28-1.11-1h0L19,134.32l0.88-14.25,0.46-7.35,7.16-9.51h0l0.9-1.2,3-4,2.8,2.11-3,4-0.9,1.2h0L23.71,114l-0.39,6.3-0.78,12.57L31,140.47h0l1.11,1,3.64,3.28ZM35,137.84l0,0,0.21,0.19,3.64,3.28-2.34,2.6-3.64-3.28-1.11-1,0,0-8-7.24,0.75-12,0.37-6L31.17,106l0,0,0.9-1.2,3-4,2.8,2.11-3,4-0.3.4,0,0-6.3,8.36L28,120.57l-0.64,10.34Zm61.26,18.9-4.71,1.35-1.44.41h0l-9.89,2.84-11.7,2.22-14.11,2.68-9.77-8.79h0l-1.11-1-3.72-3.35,2.34-2.6,3.72,3.35,1.11,1h0l8.48,7.64,12.41-2.36,11.54-2.19,9.74-2.79h0l1.44-.41,4.71-1.35Zm-7.43-6.33v0l0.48-.14L94,149l1,3.36-4.71,1.35-1.44.41V154l-9.69,2.78L67.66,159l-11.85,2.25L47.75,154l0,0-1.11-1-3.72-3.35,2.34-2.6,3.72,3.35,0.21,0.19,0,0,7.68,6.92L67,155.58l11.33-2.15ZM155.74,139l-4.81.93-1.47.29v0l-9.24,1.8-9.35,3.7-10.18,4-9.91,2.84h0l-1.44.41-4.81,1.38-1-3.36,4.81-1.38,1.44-.41h0l9.75-2.79,10-4,9.65-3.81,9.56-1.86h0l1.47-.29,4.81-.93Zm-6.85-6.95v0l0.49-.1,4.81-.93,0.67,3.44-4.81.93-1.47.29v-0.05l-9.66,1.88-9.75,3.85-10,3.94-9.69,2.78v0.05l-1.44.41L103.27,150l-1-3.36,4.81-1.38,0.48-.14v0l10.49-3,9.81-3.88,10-4Zm56.7-1.45-4.77,1.1-1.46.34v0l-10.49,2.42-5.27-.07-3.85-.05-9.17,1.78v0l-1.47.29-4.91,1-0.67-3.44,4.91-1,1.47-.29h0l9.53-1.85,4.21,0.06,4.85,0.07,10.08-2.33h0l1.46-.34,4.77-1.1Zm-7.09-6.71v0l0.49-.11,4.77-1.1,0.79,3.41-4.77,1.1-1.46.34v-0.05l-9.94,2.3-4.71-.07-4.33-.06-9.64,1.87v0.05l-1.47.29-4.91,1-0.67-3.44,4.91-1,0.49-.1v0l11-2.13,4.69,0.07,4.29,0.06Zm-114.08-73L84,50.08l23.66-17.19,15.58,7.51,38.12,16.2,1.72,1,24.34,21.91L175.58,90.9,154.22,75.37,105,71.07,90.09,78.43,63.21,70.72l-1.86-7.06Zm174.88,64.8h-9.56l-8.54,4.09-10.47,5L220.3,127.2v0l-1.46.34L214,128.67l-0.79-3.41,4.87-1.12,1.46-.34h0l10.05-2.32,10.13-4.85,9.26-4.44H259.3v3.48Zm0-4.64H248.69l-9.49,4.55-10,4.8-9.93,2.29v0.05l-1.46.34-4.87,1.12-0.79-3.41,4.87-1.12,0.49-.11v0L228,117.08l9.66-4.63,10.21-4.89h11.4V111Z"/></svg>