<svg id="Layer_2" data-name="Layer 2" xmlns="http://www.w3.org/2000/svg" viewBox="0 0 364 292"><title>SUN-MOON-PCB</title><polygon points="284.14 84.69 262.25 44.51 259.64 31.89 256.75 32.48 259.45 45.54 260.47 47.42 269.95 64.82 279.43 82.22 281.49 85.99 287.7 100.17 287.73 100.16 289.58 104.37 294.52 115.64 296.37 119.85 296.34 119.86 302.59 134.12 303.58 137.19 309.31 154.95 315.03 172.7 320.76 190.46 326.49 208.22 332.22 225.97 336.03 237.81 338.88 237.01 305.36 133.07 284.14 84.69"/><polygon points="258.67 97.19 278.82 143.14 311.57 244.67 314.42 243.88 310.86 232.86 305.14 215.1 299.41 197.35 293.68 179.59 287.95 161.83 282.23 144.08 281.58 142.09 275.79 128.87 275.76 128.88 274.6 126.23 268.49 112.31 267.69 110.47 267.13 109.19 267.16 109.18 261.33 95.88 259.73 92.96 250.25 75.56 240.77 58.16 238.15 53.34 234.78 37.02 231.88 37.62 235.34 54.37 258.67 97.19"/><polygon points="243.82 56.49 253.31 73.89 262.79 91.29 264.45 94.35 270.74 108.7 270.74 108.7 270.86 108.98 272.42 112.55 273.46 114.93 274.31 116.86 278.43 115.05 282.89 110.03 282.61 109.39 281.21 106.19 280.64 104.91 280.04 103.53 283.25 102.13 283.85 103.5 284.41 104.78 286.98 110.64 280.57 117.93 275.71 120.06 275.83 120.33 276.36 121.53 278.36 126.11 278.56 126.56 278.57 126.56 284.84 140.85 285.54 143.01 291.26 160.77 296.99 178.52 302.72 196.28 308.44 214.04 314.17 231.79 317.76 242.94 319.12 242.55 315.51 231.36 309.78 213.6 304.06 195.85 298.33 178.09 292.6 160.34 286.87 142.58 286.16 140.35 280.26 126.91 280.25 126.92 279.65 125.54 277.64 120.96 280.84 119.56 282.85 124.14 283.45 125.51 283.45 125.51 289.41 139.12 290.18 141.51 295.91 159.27 301.64 177.02 307.37 194.78 313.09 212.54 318.82 230.29 322.47 241.61 323.59 241.3 319.92 229.94 314.2 212.18 308.47 194.43 302.74 176.67 297.01 158.91 291.29 141.15 290.5 138.71 284.51 125.05 284.46 125.07 283.86 123.69 281.85 119.12 285.06 117.71 287.06 122.29 287.26 122.75 287.29 122.74 293.75 137.47 294.6 140.09 300.32 157.84 306.05 175.6 311.78 193.36 317.51 211.11 323.23 228.87 326.94 240.36 332.68 238.75 328.91 227.04 323.18 209.28 317.45 191.53 311.73 173.77 306 156.01 300.27 138.26 299.33 135.35 292.75 120.34 292.76 120.34 292.56 119.88 292 118.6 289.95 113.93 288.91 115.04 290.71 119.16 291.28 120.44 291.88 121.82 288.67 123.22 288.07 121.85 287.51 120.57 286.06 117.27 284.78 114.34 288.42 110.45 285.69 104.22 285.13 102.94 285.13 102.94 284.93 102.48 284.92 102.48 278.36 87.53 276.38 83.89 266.9 66.49 257.42 49.09 256.14 46.75 253.34 33.19 247.5 34.39 250.49 48.82 252.19 51.94 261.67 69.34 271.15 86.74 273.01 90.15 279.46 104.88 279.44 104.89 279.64 105.35 281.6 109.83 278.4 111.24 276.43 106.75 275.83 105.38 275.88 105.36 269.88 91.69 268.09 88.4 258.61 71 249.13 53.6 247.19 50.03 244.1 35.1 242.96 35.33 246.09 50.44 248.11 54.16 257.59 71.56 267.07 88.96 268.84 92.2 274.81 105.82 274.82 105.82 275.42 107.19 277.39 111.68 274.19 113.09 272.22 108.6 271.62 107.22 271.63 107.22 265.71 93.73 264.02 90.62 254.54 73.22 245.06 55.82 242.78 51.65 239.56 36.03 238.18 36.32 241.45 52.14 243.82 56.49"/><path d="M263.89,240.17l-6.51-18.27-6.51-18.27-6.51-18.27-1.51-4.23-4.44-.66-3.74-.56v0l-4.55-.68L218,177.43l-4.55-.68v0l-3.74-.56-4.56-.68-2.81,3.66-11.49,15-11.49,15-11.49,15-11.49,15-11.49,15-10.21,13.29-0.48.08,0,0.24-17-1-3.77-.23v0l-4.59-.28-12.28-.75L92,265v0l-3.77-.23-17.13-1L62.35,249,53,233.27l-6.63-11.19-2.5,1.58,25.44,42.92,66.42,4.05,1.35-1.75,126.46-20.76,0,0.1,0.88-.25,1-.16,0-.11,1-.29Zm-125,26.38,67.5-87.89,34.28,5.12L262.9,246.2Z"/><path d="M288.08,241.22l2.85-.81-29.25-82.15-67.59-10.09-1.35,1.76-126.34,59,0.2,0.44-1.2.76,6.89,11.63,9.34,15.76,2.7,4.55,5.26,0.32,3.77,0.23v0l2.89,0.18,15.17,0.93,2,0.12,1.4,0.09v0l3.77,0.23,5.25,0.32,3.2-4.17,11.49-15,11.49-15,11.49-15,11.49-15,11.49-15,10.86-14.13L213,154l3.74,0.56v0l2.87,0.43,15,2.24,2,0.3,1.38,0.21v0l3.74,0.56,17.75,2.65,6,16.91L272,196.1l6.51,18.27L285,232.65Zm-165.61.2L86.07,239.2,68.77,210l121.32-56.65Z"/><path d="M241,163.09l14.85,2.22,5,14.15,6.51,18.27L273.92,216l6.51,18.27,2.95,8.28,1.35-.39-3-8.36-6.51-18.27-6.51-18.27L262.23,179,256.91,164l-15.69-2.34L236.5,161h0l-0.3,0-3.86-.58-2.57-.38-2.08-.31L227,164.13l1.87,6.45,0.69,0.1,3.46,0.52,1.38,0.21,1.48,0.22-0.52,3.46-1.48-.22-1.38-.21-6.33-.94-2.76-9.31,0.78-5.24-0.3,0-1.29-.19-4.95-.74-0.49-.07h0l-4.73-.71-15.6-2.33-9.61,12.51-11.49,15-11.49,15-11.49,15-11.49,15-11.49,15L125.48,248l-7.09-.43-4.77-.29h0l-0.3,0-3.89-.24-2.6-.16-2.1-.13-0.27,4.49,2.42,6.26,0.7,0,3.49,0.21,1.4,0.09L114,258l-0.21,3.49-1.5-.09-1.4-.09-6.39-.39-3.56-9,0.32-5.29-0.3,0-1.3-.08-5-.3-0.5,0h0l-4.77-.29-7.1-.43-3.64-6.13-9.34-15.75L62.45,212l-1.19.75,6.84,11.53L77.44,240l4,6.77,7.85,0.48,3.77,0.23v0l1.5,0.09,5,0.3-0.21,3.49-5-.3-1.5-.09h0l-3.77-.23-9.69-.59-5-8.35L65.12,226l-6.8-11.46-1,.62,6.78,11.44,9.33,15.74,5.26,8.88L89,251.87l3.77,0.23v-0.05l1.5,0.09,5,0.3-0.21,3.49-5-.3-0.5,0v0l-4.77-.29-12.14-.74-6.2-10.46-9.32-15.73L54.4,217l-5,3.18L56,231.48l9.31,15.71,7.8,13.17,15.29,0.93,4.77,0.29h0l0.5,0,1.4,0.09L100.2,262l-0.51-1.43-4.49-.27-1.4-.09-1.5-.09,0.21-3.49,1.5,0.09,1.4,0.09L99,257l3.19,0.19,1.8,5,6.79,0.41,1.4,0.09h0l0.5,0h0l4.77,0.29,15.3,0.93,9.34-12.16,11.49-15,11.49-15,11.49-15,11.49-15,11.49-15,4.06-5.28,6.59,1,4.73,0.71h0l0.49,0.07,1.38,0.21,5,0.75L221.46,173l-4.45-.66-1.38-.21-1.48-.22,0.52-3.46,1.48,0.22,1.38,0.21,3.56,0.53,3.17,0.47,1.35,5.16,6.73,1,1.38,0.21h0l0.49,0.07h0l4.73,0.71,6.5,1,2.21,6.19,6.51,18.27,6.51,18.27L267.17,239l2.65,7.44,5.74-1.64L272.78,237l-6.51-18.27-6.51-18.27-6.51-18.27-3.4-9.56-10-1.5-4.73-.71v0l-0.49-.07-4.85-.72,0.52-3.46,4.85,0.72,1.48,0.22v0.05l3.74,0.56,12.1,1.81,4.1,11.53L263,199.29l6.51,18.27,6.51,18.27,2.85,8,1.12-.32-2.87-8.07-6.51-18.27-6.51-18.27-6.51-18.27-4.34-12.18-12.79-1.91-3.74-.56h0l-1.48-.22-4.85-.72,0.52-3.46,4.85,0.72,1.48,0.22v0Zm-19.77,5.22-4.95-.74-0.49-.07v0l-4.73-.71L201,165.33l-6.19,8.07-11.49,15-11.49,15-11.49,15-11.49,15-11.49,15L130,257.85l-12.14-.74-4.77-.29v0l-0.5,0-4.89-.3,0.21-3.49,4.89,0.3,1.5,0.09v0.05l3.77,0.23,10.3,0.63,6.28-8.18,11.49-15,11.49-15,11.49-15,11.49-15,11.49-15,7.44-9.69,12.08,1.8,3.74,0.56V163.9l1.48,0.22,4.95,0.74Zm0.68-4.55L217,163l-1.48-.22h0l-3.74-.56L199,160.34l-7.86,10.23-11.49,15-11.49,15-11.49,15-11.49,15-11.49,15-5.91,7.69-9.68-.59-3.77-.23h0l-1.5-.09-4.89-.3,0.21-3.49,4.89,0.3,1.5,0.09v0l3.77,0.23,7.84,0.48,4.78-6.23,11.49-15,11.49-15,11.49-15,11.49-15,11.49-15,9.1-11.85,14.78,2.21,3.74,0.56v0l1.48,0.22,4.95,0.74Z"/><polygon points="29.66 60.77 48.2 58.76 66.75 56.74 85.3 54.72 103.85 52.71 122.4 50.69 140.94 48.68 159.49 46.66 178.04 44.65 196.59 42.63 217.65 40.34 222.41 60.98 223.26 64.66 223.29 64.66 224.32 69.14 227.09 81.12 228.13 85.6 228.1 85.61 228.95 89.3 233.73 110.01 213.68 117.05 196.17 123.2 178.67 129.36 161.16 135.51 143.66 141.66 126.15 147.81 108.65 153.96 91.14 160.11 73.83 166.2 65.48 175.15 65.51 175.17 62.37 178.53 53.98 187.53 50.84 190.89 50.82 190.87 42.52 199.77 38.2 216.25 37.24 219.94 40.29 219.94 45.19 201.24 75.5 168.74 237.2 111.92 219.93 37.12 23.26 58.49 23.47 61.44 29.66 60.77"/><path d="M22.25,188.61l12.16-13,0,0,2-2.12,10.37-11.12,1.36-1.46,1-1,0,0,12.11-13L66,145.17l17.7-6.22,17.5-6.15,17.5-6.15,17.5-6.15,17.5-6.15,17.5-6.15,17.5-6.15,17.5-6.15,1.11-.39-0.27-1.15-0.85-3.68h0l-0.65-2.83L202.13,73l-0.45-1.95-0.31-1.36h0L200.55,66l-0.28-1.23-1.25.14-18.55,2-18.55,2-18.55,2-18.55,2-18.55,2L87.72,77,69.18,79l-18.55,2-18.55,2-7,.77,0.2,2.87L19.37,188l-8.38,32H14l2.45-9.37,4.77-18.22ZM198,68l5.9,25.56L59.52,144.31,21.54,185l5.71-98.47Z"/><path d="M25.9,194L26.66,191,38,178.9h0l1-1.1,3.41-3.66L45,176.52l-3.41,3.66-1,1.1h0L29.8,192.77l-0.61,2.35-4.6,17.57-1.9,7.26h1.2l1.82-7,4.58-17.48,0.56-2.15,10.52-11.28,0,0,1-1.1,3.41-3.66,2.56,2.39-3.41,3.66-0.34.37,0,0L34,195.08l-0.41,1.57-4.51,17.21-1.59,6.08h6.16l1.2-4.57,4.39-16.75,0.15-.58L49,187.77h0l0.34-.37,1-1,3.48-3.73-1.43-.52-3.07,3.29-1,1-1,1.1-2.56-2.39,1-1.1,1-1,2.46-2.63,2.18-2.34,5,1.81,4.64-5,1-1h0l0.34-.37h0l9.61-10.31,0.75-.26L90,156.83l17.5-6.15,17.5-6.15,17.5-6.15,17.5-6.15,17.5-6.15,17.5-6.15,17.5-6.15,17.12-6-4.08-17.68-1.08-4.66h0l-0.11-.49-0.31-1.36-1.15-5-1.23.9,1,4.38L223,85.24l0.34,1.46-3.41.79L219.6,86l-0.31-1.36-0.81-3.51L217.76,78l4.3-3.15-1.53-6.63-0.31-1.36h0l-0.11-.49h0L219,61.76,215,44.13l-18,2-18.55,2-18.55,2-18.55,2-18.55,2-18.55,2-18.55,2-18.55,2-18.55,2L30,64.23l-6.32.69,0.42,6,6.55-.71,18.55-2,18.55-2,18.55-2,18.55-2,18.55-2,18.55-2,18.55-2,18.55-2,18.55-2,12.72-1.38,2.88,12.47,1.08,4.66h0l0.11,0.49,1.1,4.77-3.41.79L211,69l-0.34-1.46h0.05l-0.85-3.68-2.18-9.46-9.65,1-18.55,2-18.55,2-18.55,2-18.55,2-18.55,2-18.55,2-18.55,2-18.55,2-18.55,2-6.68.73,0.08,1.16,6.72-.73,18.55-2,18.55-2,18.55-2,18.55-2,18.55-2,18.55-2,18.55-2,18.55-2,18.55-2,8.63-.94,2,8.46,0.85,3.68h0l0.34,1.46,1.1,4.77-3.41.79-1.1-4.77-0.34-1.46h0l-0.85-3.68L204,59.47l-5.56.6-18.55,2-18.55,2-18.55,2-18.55,2-18.55,2-18.55,2-18.55,2-18.55,2-18.55,2L24.69,79l0.1,1.4,6.91-.75,18.55-2,18.55-2,18.55-2,18.55-2,18.55-2,18.55-2,18.55-2,18.55-2,18.55-2L203,61l1,4.23L205,69.9h0l0.07,0.29,0.88,3.8,0.58,2.53,0.47,2,4.38-1,5.31-4.1-0.16-.68-0.79-3.41L215.44,68l-0.34-1.46,3.41-.79,0.34,1.46,0.31,1.36,1.44,6.24-7.65,6L207.79,82l0.07,0.29,0.29,1.27,1.12,4.87,0.11,0.49h0l1.08,4.66,1,4.18-4,1.42-17.5,6.15-17.5,6.15-17.5,6.15-17.5,6.15-17.5,6.15-17.5,6.15-17.5,6.15-17.64,6.2-4.07,1.43L50.93,162.95h0l-0.2.22L48.06,166l-1.77,1.9-1.43,1.54,3.29,3.07,6.37,2.11,0.48-.51,2.39-2.56,1-1,1-1.1,2.56,2.39-1,1.1-1,1-4.36,4.68-9.23-3L42.47,172l-0.2.22-0.89,1L38,176.84l-0.34.37h0L25.39,190.34l-0.83,3.16-4.7,17.95-2.22,8.49h1.45l2.13-8.14Zm22.37-26.12,3.34-3.58,1-1.1h0l11.29-12.11,3.77-1.32,17.61-6.19,17.5-6.15,17.5-6.15,17.5-6.15,17.5-6.15,17.5-6.15,17.5-6.15,17.5-6.15,5.24-1.84-1.25-5.41L211,89.56h0l-0.34-1.46-1.12-4.87,3.41-.79,1.12,4.87,0.34,1.46h0l0.85,3.68,1.95,8.44L209,103.77l-17.5,6.15L174,116.08l-17.5,6.15L139,128.38l-17.5,6.15L104,140.68l-17.5,6.15L68.92,153l-3,1.06L55.19,165.55h0l-1,1.1-3.34,3.58Zm9.63,1.6,0,0-0.34.37-3.34,3.58L51.63,171,55,167.4l1-1.1,0,0,10.51-11.28,2.77-1,17.53-6.16,17.5-6.15,17.5-6.15,17.5-6.15,17.5-6.15,17.5-6.15,17.5-6.15,17.5-6.15,9.15-3.22-2.18-9.45-0.85-3.68h-0.05l-0.34-1.46L214,82.19l3.41-.79,1.12,4.87,0.11,0.49h0l1.08,4.66,2.88,12.48-12.09,4.25L193,114.3l-17.5,6.15L158,126.6l-17.5,6.15L123,138.91l-17.5,6.15L88,151.21l-17.47,6.14-2,.71Z"/></svg>