<svg id="Layer_1" data-name="Layer 1" xmlns="http://www.w3.org/2000/svg" viewBox="0 0 288 360"><defs><style>.cls-1{fill:none;}.cls-2{fill:#ff0;}</style></defs><title>SUN-MOON-PCB</title><polygon class="cls-1" points="177.92 303.56 160.01 308.57 142.09 313.59 124.17 318.6 106.26 323.61 88.34 328.63 73.18 332.87 62.05 321.74 58.66 318.36 58.66 318.36 58.3 318.01 54.77 314.47 53.85 313.56 53.64 313.34 57.38 309.6 60.71 300.47 56.18 295.95 55.19 294.96 54.13 293.9 51.66 296.37 52.72 297.43 53.71 298.42 56.18 300.9 56.68 301.39 54.34 307.69 51.16 310.87 49.68 309.38 47.84 307.55 45.08 304.79 44.87 304.57 44.88 304.57 41.49 301.19 30.42 290.12 34.39 274.97 38.93 257.62 43.48 240.27 48.02 222.93 52.56 205.58 57.26 187.63 58.09 184.47 70.33 171.34 70.33 171.33 70.67 170.97 74.08 167.31 74.96 166.36 75.17 166.14 79.05 169.76 88.28 172.76 92.64 168.08 93.6 167.06 94.62 165.96 92.06 163.57 91.04 164.67 90.08 165.69 87.69 168.25 87.22 168.76 80.85 166.65 77.56 163.58 78.99 162.05 80.76 160.15 83.42 157.29 83.63 157.07 83.63 157.08 95.84 143.99 99.92 142.55 117.55 136.35 135.06 130.2 152.56 124.05 170.07 117.9 187.57 111.75 205.08 105.6 222.58 99.45 240.09 93.3 244.14 91.87 243.17 87.69 242.09 83.03 242.09 83.03 241.97 82.55 240.85 77.67 240.56 76.41 240.49 76.11 245.65 74.92 253.31 68.95 251.87 62.71 251.55 61.35 251.21 59.89 247.8 60.67 248.14 62.13 248.46 63.5 249.24 66.91 249.4 67.59 244.09 71.69 239.7 72.7 239.23 70.66 238.64 68.13 237.77 64.33 237.7 64.03 237.71 64.03 236.63 59.37 235.66 55.14 231.34 55.61 212.79 57.62 194.24 59.64 175.69 61.65 157.14 63.67 138.59 65.69 120.05 67.7 115.22 68.23 115.61 71.68 120.42 71.16 138.97 69.14 157.52 67.13 176.07 65.11 194.61 63.09 213.16 61.08 231.71 59.06 232.96 58.93 233.24 60.15 234.09 63.84 234.06 63.84 234.38 65.21 234.83 67.16 238.25 81.97 238.9 84.79 238.93 84.79 239.78 88.47 240.05 89.62 238.93 90.02 221.43 96.17 203.92 102.32 186.42 108.47 168.91 114.62 151.41 120.77 133.91 126.92 116.4 133.07 98.7 139.29 93.88 140.99 81.77 153.98 81.75 153.96 80.79 154.98 79.43 156.44 69.06 167.56 67.08 169.68 67.11 169.7 54.95 182.74 53.97 186.48 49.2 204.7 44.66 222.04 40.11 239.39 35.57 256.74 31.03 274.09 26.55 291.16 39.04 303.65 41.71 306.32 41.69 306.34 42.68 307.33 44.09 308.75 54.84 319.5 56.89 321.55 56.91 321.52 59.59 324.2 72.16 336.77 89.28 331.98 107.19 326.96 125.11 321.95 143.03 316.94 160.94 311.92 178.86 306.91 195.04 302.38 194.47 298.93 177.92 303.56"/><polygon class="cls-1" points="138.44 64.29 156.99 62.27 175.54 60.26 194.09 58.24 212.63 56.23 231.18 54.21 236.74 53.6 238 59.05 238.85 62.74 238.84 62.74 239.18 64.2 240.28 68.98 243.69 68.19 242.59 63.42 242.25 61.96 242.24 61.96 241.39 58.27 239.44 49.81 230.81 50.75 212.26 52.77 193.71 54.78 175.16 56.8 156.61 58.81 138.07 60.83 119.52 62.85 114.67 63.37 115.06 66.83 119.89 66.3 138.44 64.29"/><polygon class="cls-1" points="137.94 59.68 156.49 57.66 175.04 55.65 193.59 53.63 212.13 51.61 230.68 49.6 240.34 48.55 242.52 58.01 243.37 61.7 243.32 61.71 243.66 63.17 244.76 67.94 248.17 67.16 247.07 62.38 246.96 61.9 246.99 61.89 245.91 57.23 243.03 44.76 230.31 46.14 211.76 48.16 193.21 50.17 174.66 52.19 156.11 54.2 137.56 56.22 119.02 58.24 114.14 58.77 114.53 62.22 119.39 61.69 137.94 59.68"/><polygon class="cls-1" points="136.92 50.29 155.47 48.28 174.02 46.26 192.57 44.25 211.11 42.23 229.66 40.22 247.65 38.26 251.72 55.89 252.79 60.55 252.8 60.55 252.91 61.03 252.91 61.03 253.23 62.4 254.76 69.02 250.46 72.17 251.18 75.29 251.99 78.8 252.3 80.16 252.64 81.62 256.05 80.83 255.71 79.37 255.4 78.01 254.38 73.63 255.61 72.72 256.76 77.69 257.08 79.06 257.19 79.55 257.18 79.55 258.25 84.21 262.34 101.89 245.22 107.9 227.71 114.05 210.21 120.2 192.71 126.36 175.2 132.51 157.7 138.66 140.19 144.81 122.69 150.96 105.31 157.07 104.57 157.33 94.95 167.64 94.96 167.64 94.62 168.01 94.62 168.01 93.67 169.03 89.03 174.01 84.01 172.2 81.83 174.54 79.37 177.17 78.42 178.2 77.4 179.29 79.96 181.68 80.98 180.59 81.93 179.56 85 176.27 86.44 176.79 82.96 180.52 82 181.54 81.66 181.91 81.66 181.9 72.08 192.17 71.92 192.75 67.54 209.5 62.99 226.85 58.45 244.19 53.91 261.54 49.37 278.89 47.65 285.45 52.44 290.24 55.82 293.62 55.83 293.62 56.18 293.97 56.18 293.97 57.17 294.96 61.98 299.77 60 304.72 62.26 306.98 64.81 309.52 65.8 310.51 66.86 311.57 69.33 309.1 68.28 308.04 67.28 307.05 64.1 303.87 64.67 302.45 68.28 306.06 69.27 307.05 69.62 307.4 69.61 307.41 72.99 310.79 77.72 315.52 84.17 313.72 102.08 308.7 120 303.69 137.92 298.68 155.83 293.66 173.75 288.65 191.67 283.63 191.93 283.56 191.36 280.11 190.73 280.29 172.81 285.3 154.9 290.31 136.98 295.33 119.06 300.34 101.15 305.36 83.23 310.37 78.75 311.63 75.45 308.33 72.78 305.66 72.8 305.64 69.55 302.38 60.85 293.69 57.6 290.43 57.58 290.45 54.9 287.78 51.52 284.4 52.73 279.77 57.27 262.42 61.82 245.08 66.36 227.73 70.9 210.38 75.22 193.9 83.52 185 83.54 185.02 86.68 181.66 95.07 172.66 98.2 169.3 98.18 169.28 106.53 160.33 123.84 154.24 141.34 148.09 158.85 141.94 176.35 135.79 193.86 129.64 211.36 123.48 228.87 117.33 246.37 111.18 266.43 104.14 261.64 83.42 260.79 79.74 260.82 79.73 259.79 75.25 257.02 63.27 255.99 58.78 255.96 58.79 255.1 55.11 250.34 34.47 229.29 36.76 210.74 38.77 192.19 40.79 173.64 42.81 155.09 44.82 136.54 46.84 118 48.85 113.08 49.39 113.47 52.84 118.37 52.31 136.92 50.29"/><polygon class="cls-2" points="178.86 306.91 160.94 311.92 143.03 316.94 125.11 321.95 107.19 326.96 89.28 331.98 72.16 336.77 59.59 324.2 56.91 321.52 56.89 321.55 54.84 319.5 44.09 308.75 42.68 307.33 41.69 306.34 41.71 306.32 39.04 303.65 26.55 291.16 31.03 274.09 35.57 256.74 40.11 239.39 44.66 222.04 49.2 204.7 53.97 186.48 54.95 182.74 67.11 169.7 67.08 169.68 69.06 167.56 79.43 156.44 80.79 154.98 81.75 153.96 81.77 153.98 93.88 140.99 98.7 139.29 116.4 133.07 133.91 126.92 151.41 120.77 168.91 114.62 186.42 108.47 203.92 102.32 221.43 96.17 238.93 90.02 240.05 89.62 239.78 88.47 238.93 84.79 238.9 84.79 238.25 81.97 234.83 67.16 234.38 65.21 234.06 63.84 234.09 63.84 233.24 60.15 232.96 58.93 231.71 59.06 213.16 61.08 194.61 63.09 176.07 65.11 157.52 67.13 138.97 69.14 120.42 71.16 115.61 71.68 115.94 74.62 230.67 62.15 236.57 87.71 92.22 138.44 52.28 181.27 23.27 292.05 71.29 340.08 195.52 305.31 195.04 302.38 178.86 306.91"/><path class="cls-2" d="M138.59,65.69l18.55-2,18.55-2,18.55-2,18.55-2,18.55-2,4.32-.47,1,4.23L237.71,64h0l0.07,0.29,0.88,3.8,0.58,2.53,0.47,2,4.38-1,5.31-4.1-0.16-.68-0.79-3.41-0.31-1.36-0.34-1.46,3.41-.79,0.34,1.46,0.31,1.36,1.44,6.24-7.65,6-5.16,1.19,0.07,0.29,0.29,1.27L242,82.55,242.09,83h0l1.08,4.66,1,4.18-4,1.42-17.5,6.15-17.5,6.15-17.5,6.15-17.5,6.15-17.5,6.15-17.5,6.15-17.5,6.15-17.64,6.2L95.84,144,83.63,157.08h0l-0.2.22-2.66,2.85L79,162l-1.43,1.54,3.29,3.07,6.37,2.11,0.48-.51,2.39-2.56,1-1,1-1.1L94.62,166l-1,1.1-1,1-4.36,4.68-9.23-3-3.88-3.61-0.2.22-0.89,1L70.67,171l-0.34.37h0L58.09,184.47l-0.83,3.16-4.7,17.95L48,222.93l-4.54,17.35-4.54,17.35L34.39,275l-4,15.15,11.07,11.07,3.38,3.38h0l0.21,0.21,2.76,2.76,1.84,1.84,1.48,1.48,3.18-3.18,2.33-6.29-0.49-.49-2.47-2.47-1-1-1.06-1.06,2.47-2.47L55.19,295l1,1,4.53,4.53-3.32,9.12-3.75,3.75,0.21,0.21,0.92,0.92L58.3,318l0.35,0.35h0L62,321.74l11.13,11.13,15.16-4.24,17.92-5,17.92-5,17.92-5,17.92-5,17.92-5,16.54-4.63-0.23-1.4-16.69,4.67-17.92,5-17.92,5-17.92,5-17.92,5-17.92,5-14.37,4L63,320.74l-2.67-2.67h0L59.29,317l-3.54-3.54L58.23,311l3.54,3.54,1.06,1.06h0l2.67,2.67,9.11,9.11L87,323.93l17.92-5,17.92-5,17.92-5,17.92-5,17.92-5,17.06-4.77-0.19-1.15-17.18,4.81-17.92,5-17.92,5-17.92,5-17.92,5-17.92,5L75,326.1l-8.63-8.63-2.67-2.67,0,0-1.06-1.06L59,310.23l2.47-2.47L65,311.29l0.35,0.35,0,0L68.78,315l7.2,7.2,9.8-2.74,17.92-5,17.92-5,17.92-5,17.92-5,17.92-5,17.55-4.91-1-5.92-0.27.07-17.92,5-17.92,5-17.92,5-17.92,5-17.92,5-17.92,5-6.44,1.8L73,310.79l-3.38-3.38h0L69.26,307l-1-1-3.61-3.61-0.57,1.41L67.28,307l1,1,1.06,1.06-2.47,2.47-1.06-1.06-1-1L62.26,307,60,304.72l2-4.95L57.17,295l-1-1h0l-0.35-.35h0l-3.38-3.38-4.79-4.79,1.72-6.56,4.54-17.35,4.54-17.35L63,226.85l4.54-17.35,4.39-16.75,0.15-.58,9.58-10.27h0l0.34-.37,1-1,3.48-3.73L85,176.27l-3.07,3.29-1,1-1,1.1-2.56-2.39,1-1.1,1-1,2.46-2.63L84,172.2,89,174l4.64-5,1-1h0l0.34-.37h0l9.61-10.31,0.75-.26,17.37-6.1,17.5-6.15,17.5-6.15,17.5-6.15,17.5-6.15,17.5-6.15,17.5-6.15,17.5-6.15,17.12-6-4.08-17.68-1.08-4.66h0l-0.11-.49-0.31-1.36-1.15-5-1.23.9,1,4.38,0.31,1.36L256,80.84l-3.41.79-0.34-1.46L252,78.8l-0.81-3.51-0.72-3.12,4.3-3.15-1.53-6.63L252.91,61h0l-0.11-.49h0l-1.08-4.66-4.07-17.63-18,2-18.55,2-18.55,2-18.55,2-18.55,2-18.55,2-18.55,2-4.9.53,0.67,5.92,4.87-.53,18.55-2,18.55-2,18.55-2,18.55-2,18.55-2,18.55-2L243,44.76l2.88,12.47L247,61.89h0l0.11,0.49,1.1,4.77-3.41.79-1.1-4.77-0.34-1.46h0.05L242.52,58l-2.18-9.46-9.65,1-18.55,2-18.55,2-18.55,2-18.55,2-18.55,2-18.55,2-4.86.53,0.13,1.15,4.85-.53,18.55-2,18.55-2,18.55-2,18.55-2,18.55-2,18.55-2,8.63-.94,2,8.46L242.24,62h0l0.34,1.46,1.1,4.77-3.41.79-1.1-4.77-0.34-1.46h0L238,59.05l-1.26-5.45-5.56.6-18.55,2-18.55,2-18.55,2-18.55,2-18.55,2-18.55,2-4.84.53,0.16,1.4L120,67.7ZM49.68,307.4l-3.46-3.46-1.06-1.06h0l-2.67-2.67L32,289.69l3.76-14.37L40.29,258l4.54-17.35,4.54-17.35,4.54-17.35,4.67-17.84,0.77-2.93L70.68,173h0l1-1.1,3.41-3.66,2.56,2.39-3.41,3.66-1,1.1h0L62.5,186.9l-0.61,2.35-4.6,17.57-4.54,17.35L48.2,241.51l-4.54,17.35-4.54,17.35-3.26,12.44,9.09,9.09,2.67,2.67h0l1.06,1.06,3.46,3.46Zm27.94-130-0.34.37,0,0L66.69,189.21l-0.41,1.57L61.77,208l-4.54,17.35-4.54,17.35L48.14,260,43.6,277.38,41,287.24l7.21,7.21,3.38,3.38,0,0,0.35,0.35,3.46,3.46-2.47,2.47-3.46-3.46-1.06-1.06,0,0-2.67-2.67-8.62-8.62,3.09-11.79,4.54-17.35,4.54-17.35,4.54-17.35,4.54-17.35L63,189.63l0.56-2.15,10.52-11.28,0,0,1-1.1,3.41-3.66L81,173.79ZM81,162l3.34-3.58,1-1.1h0L96.64,145.2l3.77-1.32L118,137.68l17.5-6.15,17.5-6.15,17.5-6.15,17.5-6.15,17.5-6.15,17.5-6.15,17.5-6.15,5.24-1.84-1.25-5.41-0.85-3.68h0l-0.34-1.46-1.12-4.87,3.41-.79,1.12,4.87,0.34,1.46h0l0.85,3.68L249.88,95l-8.17,2.87-17.5,6.15-17.5,6.15-17.5,6.15-17.5,6.15-17.5,6.15-17.5,6.15L119.17,141l-17.55,6.17-3,1.06L87.89,159.68h0l-1,1.1-3.34,3.58ZM251.23,80.41l0.11,0.49h0l1.08,4.66L255.33,98l-12.09,4.25-17.5,6.15-17.5,6.15-17.5,6.15-17.5,6.15L155.72,133l-17.5,6.15-17.5,6.15-17.47,6.14-2,.71L90.59,163.57l0,0-0.34.37-3.34,3.58-2.56-2.39,3.34-3.58,1-1.1,0,0,10.51-11.28,2.77-1,17.53-6.16,17.5-6.15,17.5-6.15,17.5-6.15,17.5-6.15,17.5-6.15,17.5-6.15L242.09,99l9.15-3.22-2.18-9.45-0.85-3.68h-0.05l-0.34-1.46-1.12-4.87,3.41-.79Z"/><polygon class="cls-2" points="118 48.85 136.54 46.84 155.09 44.82 173.64 42.81 192.19 40.79 210.74 38.77 229.29 36.76 250.34 34.47 255.1 55.11 255.96 58.79 255.99 58.78 257.02 63.27 259.79 75.25 260.82 79.73 260.79 79.74 261.64 83.42 266.43 104.14 246.37 111.18 228.87 117.33 211.36 123.48 193.86 129.64 176.35 135.79 158.85 141.94 141.34 148.09 123.84 154.24 106.53 160.33 98.18 169.28 98.2 169.3 95.07 172.66 86.68 181.66 83.54 185.02 83.52 185 75.22 193.9 70.9 210.38 66.36 227.73 61.82 245.08 57.27 262.42 52.73 279.77 51.52 284.4 54.9 287.78 57.58 290.45 57.6 290.43 60.85 293.69 69.55 302.38 72.8 305.64 72.78 305.66 75.45 308.33 78.75 311.63 83.23 310.37 101.15 305.36 119.06 300.34 136.98 295.33 154.9 290.31 172.81 285.3 190.73 280.29 191.36 280.11 190.88 277.18 79.61 308.31 54.81 283.51 77.89 195.37 108.19 162.87 269.9 106.05 252.63 31.25 112.75 46.45 113.08 49.39 118 48.85"/></svg>