<svg id="Layer_1" data-name="Layer 1" xmlns="http://www.w3.org/2000/svg" viewBox="0 0 360 288"><defs><style>.cls-1{fill:none;}.cls-2{fill:#ff0;}</style></defs><title>SUN-MOON-PCB</title><polygon class="cls-1" points="28.39 120.77 36.31 134.48 38.7 138.62 38.7 138.62 38.95 139.05 38.95 139.05 39.65 140.26 43.05 146.16 39.86 150.42 41.46 153.19 43.26 156.31 43.96 157.53 44.71 158.82 47.74 157.07 46.99 155.78 46.29 154.56 44.04 150.67 44.95 149.45 47.5 153.86 48.2 155.08 48.45 155.51 48.44 155.51 50.83 159.66 58.74 173.35 50.51 186.85 39.62 204.73 38.22 207.03 38.46 220.78 38.47 220.78 38.48 221.28 38.48 221.28 38.5 222.68 38.62 229.48 33.76 231.66 33.81 234.86 33.87 238.46 33.9 239.86 33.92 241.36 37.42 241.3 37.4 239.8 37.37 238.4 37.29 233.9 38.68 233.28 38.77 238.38 38.8 239.78 38.8 240.28 38.8 240.28 38.88 245.06 38.95 248.92 42.81 249.06 58.82 249.6 74.71 250.15 78.19 250.27 78.25 246.79 78.58 228.99 78.9 211.06 79.23 193.14 79.56 175.21 79.88 157.39 97.53 154.91 102.27 154.25 102.27 154.24 102.76 154.17 102.76 154.17 104.15 153.97 110.89 153.03 113.65 157.59 116.81 157.14 120.38 156.64 121.77 156.45 123.25 156.24 122.77 152.77 121.28 152.98 119.89 153.18 115.44 153.8 114.65 152.5 119.7 151.79 121.08 151.6 121.58 151.53 121.58 151.53 126.32 150.87 144.19 148.36 148.9 165.79 153.34 182.24 157.78 198.7 162.22 215.15 166.66 231.6 170.18 244.63 171.08 247.99 173.89 245.93 186.19 236.91 201.36 225.8 205.89 222.48 204.15 217.13 202.68 212.58 202.67 212.59 202.51 212.11 202.51 212.11 202.08 210.78 199.98 204.31 203.99 200.8 203 197.76 201.89 194.33 201.46 193 201 191.57 197.67 192.66 198.13 194.08 198.56 195.41 199.95 199.69 198.81 200.7 197.23 195.85 196.8 194.51 196.65 194.04 196.65 194.04 192.35 180.79 189.62 178.34 173.45 163.79 157.28 149.24 143.66 136.99 154.68 122.36 157.56 118.54 157.56 118.54 157.86 118.14 157.86 118.14 158.7 117.02 162.79 111.59 167.97 112.86 169.9 110.31 172.06 107.43 172.91 106.32 173.81 105.12 171.01 103.01 170.11 104.21 169.27 105.33 166.56 108.92 165.08 108.56 168.15 104.48 168.99 103.37 169.29 102.97 169.3 102.97 172.18 99.15 183.26 84.46 198.74 94.42 215.84 105.42 232.93 116.42 250.03 127.42 251.64 128.45 265.21 127.98 265.21 127.97 265.71 127.95 265.71 127.95 267.11 127.91 273.9 127.67 276.17 132.49 279.37 132.38 282.97 132.26 284.37 132.21 285.87 132.16 285.75 128.66 284.25 128.71 282.85 128.76 278.35 128.92 277.7 127.54 282.8 127.36 284.2 127.31 284.7 127.3 284.7 127.3 298.32 126.83 298.72 126.54 311.92 116.95 326.15 106.61 331 103.08 329.55 97.26 328.4 92.62 328.39 92.63 328.27 92.14 328.27 92.14 327.93 90.78 326.29 84.18 330.53 80.96 329.76 77.86 328.89 74.36 328.55 73 328.19 71.55 324.79 72.39 325.15 73.85 325.49 75.21 326.58 79.58 325.37 80.5 324.13 75.55 323.8 74.19 323.67 73.7 323.68 73.7 322.53 69.06 321.08 63.25 315.14 62.42 297.93 60.01 291.38 59.1 290.94 62.55 297.44 63.46 314.66 65.86 318.27 66.37 319.15 69.9 320.07 73.57 320.04 73.58 321.15 78.04 324.12 89.98 325.23 94.44 325.26 94.43 326.18 98.1 327.06 101.65 324.11 103.8 309.88 114.14 297.14 123.39 285.58 123.79 285.57 123.76 280.98 123.92 268.69 124.35 264.09 124.51 264.09 124.54 252.61 124.94 251.91 124.5 234.81 113.49 217.72 102.49 200.62 91.49 182.43 79.79 169.4 97.06 167.13 100.08 167.1 100.06 164.33 103.73 156.93 113.56 154.16 117.23 154.18 117.25 151.91 120.27 138.96 137.44 154.95 151.82 171.12 166.37 187.29 180.92 189.33 182.75 193.04 194.16 193.01 194.17 194.43 198.54 198.23 210.24 199.65 214.62 199.68 214.61 200.85 218.21 201.81 221.16 199.3 222.99 184.13 234.11 173.12 242.18 170.02 230.7 165.58 214.24 161.14 197.79 156.7 181.34 152.26 164.88 146.75 144.49 125.83 147.43 122.09 147.95 122.08 147.92 117.53 148.56 105.35 150.27 100.79 150.91 100.8 150.94 97.05 151.47 76.46 154.36 76.08 175.15 75.75 193.07 75.43 211 75.1 228.93 74.78 246.67 58.94 246.13 42.93 245.58 42.37 245.56 42.35 245 42.29 241.22 42.32 241.22 42.24 236.62 42.03 224.32 41.95 219.72 41.92 219.72 41.72 207.97 42.59 206.54 53.48 188.66 62.78 173.4 53.85 157.92 51.95 154.64 51.98 154.63 49.68 150.64 43.53 139.99 41.24 136 41.21 136.02 39.32 132.75 30.37 117.23 13.12 117.72 12.84 121.21 28.39 120.77"/><polygon class="cls-1" points="300.07 44.68 317.29 47.09 333.57 49.36 337.55 65.32 338.71 69.96 338.71 69.96 338.83 70.44 340.04 75.29 340.36 76.56 340.43 76.85 335.29 78.13 327.74 84.23 329.29 90.44 329.63 91.8 329.99 93.26 333.38 92.41 333.02 90.95 332.68 89.6 331.84 86.2 331.67 85.52 336.91 81.33 341.28 80.24 341.79 82.28 342.41 84.8 343.36 88.59 343.43 88.88 343.42 88.88 344.58 93.52 348.55 109.47 335.25 119.13 321.02 129.47 305.76 140.56 303.59 142.14 285.24 142.78 285.24 142.79 284.74 142.8 279.74 142.98 278.44 143.02 278.14 143.03 277.96 137.74 273.55 129.08 267.16 129.31 265.76 129.35 264.26 129.41 264.38 132.9 265.88 132.85 267.28 132.8 270.78 132.68 271.48 132.66 274.49 138.66 274.64 143.15 272.54 143.23 269.94 143.32 266.05 143.45 265.75 143.46 265.75 143.45 247.34 144.09 241.66 140.44 224.56 129.44 207.46 118.44 190.36 107.44 186.97 105.25 184.54 108.47 181.66 112.29 181.67 112.3 181.37 112.7 178.36 116.69 177.58 117.73 177.4 117.97 173.16 114.78 163.67 112.75 159.82 117.86 158.97 118.98 158.07 120.18 160.87 122.29 161.77 121.09 162.61 119.97 164.72 117.18 165.14 116.62 171.7 118.05 175.29 120.76 174.03 122.44 172.46 124.52 170.11 127.63 169.93 127.87 169.93 127.86 167.05 131.68 164.57 134.97 167.63 137.73 183.8 152.28 199.97 166.82 205.8 172.06 211.38 189.25 211.39 189.25 211.54 189.73 213.09 194.48 213.49 195.72 213.58 196 208.54 197.64 201.44 204.26 203.41 210.35 203.84 211.68 204.31 213.1 207.64 212.02 207.17 210.6 206.74 209.27 205.66 205.94 205.44 205.27 210.38 200.72 214.66 199.33 215.31 201.33 216.11 203.8 217.32 207.51 217.41 207.8 217.4 207.8 218.88 212.35 224.07 228.34 210.51 238.29 195.34 249.4 177.31 262.62 162.02 273.82 157.08 255.52 151.71 235.64 147.27 219.19 142.83 202.73 138.39 186.28 133.95 169.82 132.81 165.59 128.47 166.2 123.73 166.87 123.73 166.88 123.24 166.94 118.29 167.64 117 167.82 116.7 167.86 115.97 162.61 110.68 154.47 104.35 155.36 102.96 155.55 101.47 155.76 101.96 159.23 103.45 159.02 104.83 158.82 108.3 158.34 108.99 158.24 112.61 163.89 113.24 168.35 111.16 168.64 108.58 169 104.72 169.54 104.42 169.59 104.42 169.58 99.69 170.24 95.12 170.88 95.04 175.49 94.71 193.42 94.38 211.35 94.06 229.27 93.73 247.32 93.38 266.28 74.43 265.63 58.29 265.08 42.28 264.53 23.72 263.89 23.4 245.33 23.32 240.54 23.31 240.54 23.3 240.04 23.21 235.05 23.19 233.75 23.18 233.45 28.48 233.35 37.21 229.1 37.1 222.7 37.08 221.3 37.05 219.8 33.55 219.87 33.58 221.36 33.6 222.76 33.66 226.26 33.67 226.96 27.62 229.87 23.12 229.95 23.09 227.85 23.04 225.25 22.98 221.35 22.97 221.05 22.98 221.05 22.66 202.81 26.4 196.67 37.29 178.79 40.74 173.13 37.42 167.39 35.03 163.25 35.03 163.26 34.78 162.82 32.28 158.49 31.63 157.37 31.48 157.11 36.07 154.46 41.64 146.51 38.44 140.97 37.74 139.75 36.99 138.45 33.96 140.2 34.71 141.5 35.41 142.72 37.16 145.75 37.51 146.35 33.63 151.83 29.73 154.08 28.68 152.26 27.38 150 25.43 146.63 25.28 146.37 25.29 146.36 22.9 142.22 19.6 136.5 13 136.69 11.58 136.73 11.29 140.22 13.1 140.17 17.62 140.04 19.89 143.96 21.78 147.24 21.75 147.25 22.45 148.46 23.45 150.2 31.05 163.36 32.49 165.87 32.52 165.86 34.41 169.13 36.7 173.09 34.32 176.99 23.43 194.87 19.17 201.86 19.48 220.11 19.45 220.11 19.48 221.51 19.51 223.51 19.77 238.71 19.82 241.6 19.86 241.6 19.92 245.39 20.3 267.25 42.16 268 58.17 268.55 74.37 269.11 96.8 269.88 97.2 247.44 97.53 229.34 97.86 211.41 98.19 193.48 98.51 175.56 98.54 173.91 100.17 173.69 103.92 173.16 103.92 173.19 105.31 173 107.29 172.72 122.34 170.61 125.21 170.2 125.21 170.17 128.95 169.65 130.25 169.46 130.59 170.73 135.03 187.18 139.48 203.64 143.92 220.09 148.36 236.54 154.14 257.96 159.99 279.63 178.08 266.36 197.4 252.21 212.56 241.09 228.16 229.66 222.19 211.28 221.02 207.68 221.05 207.67 220.62 206.34 220 204.44 215.3 189.98 214.41 187.22 214.38 187.23 208.81 170.1 202.3 164.24 186.13 149.69 169.96 135.14 169.26 134.52 169.82 133.78 172.1 130.75 172.13 130.78 172.97 129.66 174.17 128.06 183.32 115.92 185.07 113.61 185.04 113.59 187.32 110.57 187.8 109.92 188.48 110.36 205.58 121.36 222.68 132.36 239.78 143.36 246.37 147.61 264.87 146.96 264.87 147 266.27 146.95 268.27 146.88 283.46 146.35 286.36 146.25 286.36 146.22 304.78 145.58 307.35 143.71 323.07 132.29 337.3 121.95 352.49 110.91 347.95 92.68 347.04 89.01 347.07 89 346.73 87.64 346.25 85.7 342.57 70.95 341.87 68.14 341.84 68.15 340.92 64.48 336.38 46.24 317.77 43.64 300.55 41.24 293.73 40.28 293.3 43.73 300.07 44.68"/><polygon class="cls-2" points="300.55 41.24 317.77 43.64 336.38 46.24 340.92 64.48 341.84 68.15 341.87 68.14 342.57 70.95 346.25 85.7 346.73 87.64 347.07 89 347.04 89.01 347.95 92.68 352.49 110.91 337.3 121.95 323.07 132.29 307.35 143.71 304.78 145.58 286.36 146.22 286.36 146.25 283.46 146.35 268.27 146.88 266.27 146.95 264.87 147 264.87 146.96 246.37 147.61 239.78 143.36 222.68 132.36 205.58 121.36 188.48 110.36 187.8 109.92 187.32 110.57 185.04 113.59 185.07 113.61 183.32 115.92 174.17 128.06 172.97 129.66 172.13 130.78 172.1 130.75 169.82 133.78 169.26 134.52 169.96 135.14 186.13 149.69 202.3 164.24 208.81 170.1 214.38 187.23 214.41 187.22 215.3 189.98 220 204.44 220.62 206.34 221.05 207.67 221.02 207.68 222.19 211.28 228.16 229.66 212.56 241.09 197.4 252.21 178.08 266.36 159.99 279.63 154.14 257.96 148.36 236.54 143.92 220.09 139.48 203.64 135.03 187.18 130.59 170.73 130.25 169.46 128.95 169.65 125.21 170.17 125.21 170.2 122.34 170.61 107.29 172.72 105.31 173 103.92 173.19 103.92 173.16 100.17 173.69 98.54 173.91 98.51 175.56 98.19 193.48 97.86 211.41 97.53 229.34 97.2 247.44 96.8 269.88 74.37 269.11 58.17 268.55 42.16 268 20.3 267.25 19.92 245.39 19.86 241.6 19.82 241.6 19.77 238.71 19.51 223.51 19.48 221.51 19.45 220.11 19.48 220.11 19.17 201.86 23.43 194.87 34.32 176.99 36.7 173.09 34.41 169.13 32.52 165.86 32.49 165.87 31.05 163.36 23.45 150.2 22.45 148.46 21.75 147.25 21.78 147.24 19.89 143.96 17.62 140.04 13.1 140.17 11.29 140.22 11.05 143.18 15.94 143.04 33.26 173.04 16.2 201.05 17.39 270.11 99.69 272.93 101.45 176.49 128.08 172.75 158.25 284.56 231.63 230.78 211.38 168.43 173.25 134.13 188.51 113.9 245.55 150.59 305.78 148.5 355.84 112.13 338.76 43.59 294.1 37.35 293.73 40.28 300.55 41.24"/><path class="cls-2" d="M315.14,62.42l5.93,0.83,1.45,5.81,1.16,4.64h0l0.12,0.49,0.34,1.36,1.23,4.95,1.21-.92-1.09-4.37-0.34-1.36-0.36-1.46,3.4-.85L328.55,73l0.34,1.36,0.87,3.49L330.53,81l-4.25,3.22,1.64,6.6,0.34,1.36h0l0.12,0.49h0l1.16,4.64,1.45,5.82-4.85,3.53-14.23,10.34-13.2,9.59-0.4.29-13.62.47h0l-0.5,0-1.4,0-5.1.18,0.65,1.38,4.5-.16,1.4,0,1.5-.05,0.12,3.5-1.5.05-1.4,0-3.6.13-3.2.11-2.27-4.82-6.8.24-1.4,0h0l-0.5,0h0l-13.57.47-1.61-1-17.1-11-17.1-11-17.1-11-15.48-10-11.08,14.7L169.3,103h0l-0.3.4-0.84,1.12-3.07,4.07,1.48,0.36,2.71-3.59,0.84-1.12L171,103l2.79,2.11-0.9,1.2-0.84,1.12-2.17,2.87L168,112.86l-5.18-1.27L158.7,117l-0.84,1.12h0l-0.3.4h0l-2.88,3.82-11,14.63,13.62,12.25,16.17,14.55,16.17,14.55,2.73,2.46,4.3,13.24h0l0.15,0.48,0.43,1.33,1.58,4.85,1.15-1-1.39-4.28-0.43-1.33-0.46-1.43,3.33-1.08,0.46,1.43,0.43,1.33,1.11,3.42,1,3-4,3.51,2.1,6.47,0.43,1.33h0l0.15,0.48h0l1.48,4.55,1.74,5.34-4.53,3.32-15.17,11.12-12.3,9-2.8,2.06-0.91-3.36-3.52-13-4.44-16.45-4.44-16.45-4.44-16.45-4.44-16.45-4.7-17.43-17.88,2.51-4.74.66h0l-0.5.07-1.39.19-5.05.71,0.79,1.3,4.46-.63,1.39-.19,1.49-.21,0.49,3.47-1.49.21-1.39.19-3.57.5-3.17.44L110.88,153l-6.73.95-1.39.19h0l-0.5.07h0l-4.74.66-17.65,2.48-0.32,17.82-0.33,17.93L78.9,211.06,78.58,229l-0.32,17.8-0.06,3.48-3.47-.12-15.89-.54-16-.55-3.86-.13-0.07-3.87-0.08-4.78h0v-0.5l0-1.4-0.09-5.1-1.39.62,0.08,4.5,0,1.4,0,1.5-3.5.06,0-1.5,0-1.4-0.06-3.6-0.06-3.2,4.86-2.18-0.12-6.8,0-1.4h0v-0.5h0L38.22,207l1.4-2.3,10.89-17.88,8.22-13.5-7.9-13.69-2.39-4.14h0l-0.25-.43-0.7-1.21L45,149.45,44,150.67l2.25,3.9,0.7,1.21,0.75,1.3-3,1.75L44,157.53l-0.7-1.21-1.8-3.12-1.6-2.77,3.19-4.27-3.4-5.89L39,139.05h0l-0.25-.43h0l-2.39-4.14-7.92-13.72-15.55.44-0.49,6h0.38L25,126.83l6.14,10.64,2.39,4.14h0l0.25,0.43,2.45,4.24-3,1.75-2.45-4.24h0L30,142.5l0,0-1.89-3.28L23,130.36l-10.2.29-0.76,0L12,131.84l0.89,0,9.51-.27,4.76,8.24L29,143.06h0l0.75,1.3,2.45,4.24-3,1.75-2.45-4.24h0L26,144.8h0l-1.89-3.28-3.72-6.44-7.44.21-1.27,0-0.11,1.41,1.42,0,6.6-.19,3.3,5.72,2.39,4.14h0l0.15,0.26L27.38,150l1.3,2.25,1,1.82,3.9-2.25,3.88-5.47-0.35-.61-1.75-3-0.7-1.21L34,140.2l3-1.75,0.75,1.3,0.7,1.21,3.2,5.54-5.57,7.95-4.59,2.65,0.15,0.26,0.65,1.13,2.5,4.33L35,163.26h0l2.39,4.14,3.31,5.74-3.45,5.66L26.4,196.67l-3.74,6.13L23,221h0v0.3l0.07,3.9,0,2.6,0,2.1,4.5-.08,6.05-2.9v-0.7l-0.06-3.5,0-1.4,0-1.5,3.5-.06,0,1.5,0,1.4,0.11,6.4-8.73,4.25-5.3.09v0.3l0,1.3,0.09,5v0.5h0l0.08,4.78,0.32,18.57,18.56,0.64,16,0.55,16.14,0.55,18.95,0.65,0.35-19,0.33-18.05,0.33-17.93,0.33-17.93L95,175.49l0.08-4.61,4.57-.64,4.74-.66h0l0.3,0,3.86-.54,2.57-.36,2.08-.29-0.63-4.46L109,158.24l-0.69.1-3.47.49-1.39.19-1.49.21-0.49-3.47,1.49-.21,1.39-.19,6.34-.89,5.28,8.14,0.74,5.25,0.3,0,1.29-.18,5-.7,0.5-.07h0l4.74-.66,4.34-.61,1.14,4.23,4.44,16.45,4.44,16.45,4.44,16.45,4.44,16.45,5.37,19.88,4.94,18.3,15.29-11.21,18-13.21,15.17-11.12,13.56-9.94-5.19-16-1.48-4.55h0l-0.09-.29-1.2-3.71-0.8-2.47-0.65-2-4.28,1.39-4.94,4.55,0.22,0.67,1.08,3.33,0.43,1.33,0.46,1.43-3.33,1.08-0.46-1.43-0.43-1.33-2-6.09,7.1-6.62,5-1.64-0.09-.29-0.4-1.24-1.54-4.76-0.15-.48h0l-5.58-17.19L200,166.83,183.8,152.28l-16.17-14.55L164.57,135l2.48-3.29,2.88-3.82h0l0.18-.24,2.35-3.11,1.57-2.08,1.26-1.68-3.59-2.71-6.56-1.44-0.42.56L162.61,120l-0.84,1.12-0.9,1.2-2.79-2.11L159,119l0.84-1.12,3.85-5.11,9.5,2L177.4,118l0.18-.24,0.78-1,3-4,0.3-.4h0l2.88-3.82,2.43-3.22,3.39,2.18,17.1,11,17.1,11,17.1,11,5.68,3.65,18.41-.64H266l3.9-.14,2.6-.09,2.1-.07-0.16-4.5-3-6-0.7,0-3.5.12-1.4,0-1.5.05-0.12-3.5,1.5-.05,1.4,0,6.4-.22,4.4,8.65,0.18,5.3h0.3l1.3,0,5-.17,0.5,0h0l18.36-.64,2.17-1.58L321,129.47l14.23-10.34,13.3-9.66-4-16-1.16-4.64h0l-0.07-.29-0.94-3.78-0.63-2.52-0.51-2-4.37,1.09-5.24,4.19,0.17,0.68,0.85,3.4L333,91l0.36,1.46-3.4.85-0.36-1.46-0.34-1.36-1.55-6.21,7.55-6.11,5.14-1.28-0.07-.29L340,75.29l-1.21-4.85L338.71,70h0l-1.16-4.64-4-16-16.29-2.28-17.22-2.41-6.77-.95-0.17,1.4,6.75,0.94,17.22,2.41,15.35,2.14,3.75,15,0.91,3.67h0l0.36,1.46,1.21,4.85-3.4.85-1.21-4.85-0.36-1.46h0l-0.91-3.67-3.18-12.76-13-1.82-17.22-2.41-6.7-.94-0.14,1.15,6.68,0.93,17.22,2.41,12.25,1.71,3,12,0.91,3.67h0.05L333,71.89l1.21,4.85-3.4.85-1.21-4.85-0.12-.49h0l-1.16-4.64-2.42-9.72L316,56.51l-17.22-2.41-6.63-.93-0.74,5.92L297.92,60Zm-290.68,164-0.08-4.9,0-1.5h0l-0.29-16.83,3.52-5.78,10.89-17.88,3.88-6.37-3.73-6.46-1.89-3.28h0L36,162.12l-2.5-4.33,3-1.75,2.5,4.33h0l0.75,1.3h0L41.65,165l4.76,8.25-5,8.13L30.57,199.21l-3,4.92L27.84,220h0l0,1.5,0.08,4.9Zm8-5.54h0v0.5l0.08,4.9-3.5.06L29,221.44l0-1.5H29l-0.27-15.49,2.82-4.64,10.89-17.88,5.31-8.72-5.1-8.84-1.89-3.28,0,0L40,159.82l-2.5-4.33,3-1.75,2.5,4.33h0l0.25,0.43h0l2.39,4.14,6.13,10.63-6.38,10.48L34.53,201.63l-2.3,3.77Zm77.08-53.43-4.85.68-1.49.21v0l-3.75.53-5.75.81-0.11,5.81L93.3,193.39,93,211.32l-0.33,17.93-0.33,18L92,264.83l-17.54-.6-16.12-.55-16-.55-17.22-.59L24.8,245.3l-0.07-3.78h0l0-1.5-0.09-5,3.5-.06,0.09,5,0,1.5h0l0.07,3.78,0.24,13.93,13.92,0.48,16,0.55,16.06,0.55,14.07,0.48,0.26-14.07,0.33-18,0.33-17.93,0.33-17.93,0.33-17.93,0.16-8.78L99,165.41l3.75-.53h0l1.49-.21,4.85-.68Zm-6.48-7.3v0l0.5-.07,4.85-.68,0.49,3.47-4.85.68-1.49.21v-0.05l-3.75.53-9.67,1.36L89,175.38l-0.33,17.93-0.33,17.93L88,229.16l-0.33,18L87.45,260l-12.91-.44-16-.55-16-.55L29.66,258l-0.22-12.83-0.07-3.78H29.32l0-1.5-0.09-5,3.5-.06,0.09,5v0.5h0l0.08,4.78,0.16,9.53L42.6,255l16,0.55,16,0.55L84,256.43,84.21,247l0.33-17.9,0.33-17.93,0.33-17.93,0.33-17.93,0.23-12.74,12.61-1.77ZM214.41,203.1l1.51,4.66,0.46,1.43h0l1.17,3.6,4.88,15-12.74,9.34-15.17,11.12L177,261.1l-14.16,10.38-4.57-16.95-5.2-19.26-4.44-16.45-4.44-16.45-4.44-16.45-4.44-16.45L133.84,164l-5.57.78-3.75.53v0l-1.49.21-5,.7-0.49-3.47,5-.7,1.49-.21h0l3.75-.53,8.61-1.21,2.27,8.39L143.11,185l4.44,16.45L152,217.91l4.44,16.45,4.78,17.72,3.67,13.59,11.35-8.32,16.22-11.89,15.17-11.12,10.72-7.85-4.1-12.64-1.17-3.6h0l-0.46-1.43-1.51-4.66Zm-7.7,2.5,3.33-1.08,1.51,4.66L212,210.6l-0.05,0,1.17,3.6L217,226.05l-10,7.36-15.17,11.12L176,256.1l-10.42,7.63-3.37-12.47-4.64-17.21-4.44-16.45-4.44-16.45-4.44-16.45-4.44-16.45-2.53-9.38-9.63,1.35-3.75.53v0.05l-1.49.21-5,.7L117,158.23l5-.7,0.5-.07v0l4.74-.66L139.81,155l3.33,12.35,4.44,16.45L152,200.25l4.44,16.45,4.44,16.45,4.23,15.67,2.46,9.11,7.61-5.58,14.51-10.63,15.17-11.12,8-5.87-3.07-9.45-1.48-4.55h0l-0.15-.48Zm-34.64-82.88-2.95,3.91-0.9,1.2h0l-2.28,3-3.26,4.32,4,3.62,16.17,14.55L199,167.87l5.54,5,5.16,15.88h0l0.46,1.43,1.54,4.76L208.43,196l-1.54-4.76-0.46-1.43h0l-4.87-15-4.85-4.36-16.17-14.55-16.17-14.55L158,135.61l5.18-6.87,2.28-3h0l0.9-1.2,2.95-3.91ZM159.44,126l2.88-3.82,0,0,0.3-.4,2.95-3.91,2.79,2.11-2.95,3.91-0.9,1.2,0,0-2.28,3-5.82,7.72,7.18,6.46,16.17,14.55,16.17,14.55,4.62,4.15,4.77,14.7,0.05,0,0.46,1.43,1.54,4.76-3.33,1.08-1.54-4.76-0.15-.48h0l-4.79-14.76-3.92-3.53-16.17-14.55-16.17-14.55-9.55-8.59ZM271.1,141.88l-4.9.17-1.5.05v0l-17,.59-5.31-3.42-17.1-11-17.1-11-17.1-11-4.49-2.89-3.21,4.26-2.28,3h0l-0.9,1.2-3,4-2.79-2.11,3-4,0.9-1.2h0l2.28-3,5.16-6.84,7.2,4.63,17.1,11,17.1,11,17.1,11,4.4,2.83,15.88-.55h0l1.5-.05,4.9-.17Zm-5.68-7.94v0l0.5,0,4.9-.17,0.12,3.5-4.9.17-1.5.05v-0.05L249,138l-4.09-2.63-17.1-11-17.1-11-17.1-11-8.11-5.22-5.8,7.7-2.28,3,0,0-0.9,1.2-3,4L170.77,111l3-4,0.3-.4,0,0,2.88-3.82,7.75-10.28,10.82,7,17.1,11,17.1,11,17.1,11,3.18,2Zm75.35-50,1.18,4.75,0.36,1.46h0l0.91,3.67,3.74,15L334.43,118,320.2,128.34l-15.07,11-2,1.46-16.93.59v0l-1.5.05-5,.17-0.12-3.5,5-.17,1.5-.05h0l15.86-.55,1.61-1.17,14.61-10.62,14.23-10.34L343,107.46,339.84,94.7,338.92,91h0l-0.36-1.46-1.18-4.75Zm-7.86,2,3.4-.85,1.18,4.75,0.36,1.46H337.8L338.71,95l3,12-10,7.27-14.23,10.34L303,135.09l-1.48,1.08L286,136.7v0.05l-1.5.05-5,.17-0.12-3.5,5-.17,0.5,0v0l15.45-.54,1.08-.79,14-10.17,14.23-10.34,8.1-5.89-2.42-9.72-1.16-4.64h0l-0.12-.49Z"/><path class="cls-2" d="M30.37,117.23l9,15.51L41.21,136l0,0,2.3,4,6.15,10.65,2.3,4,0,0,1.89,3.28,8.93,15.48-9.3,15.26L42.59,206.54,41.72,208l0.2,11.75h0l0.08,4.6,0.21,12.3,0.08,4.6h0L42.36,245v0.56l0.56,0,16,0.55,15.83,0.54,0.32-17.75L75.43,211l0.33-17.93,0.33-17.93,0.38-20.79,20.59-2.89,3.75-.53v0l4.56-.64,12.18-1.71,4.56-.64v0l3.75-.53,20.92-2.94,5.5,20.39,4.44,16.45,4.44,16.45,4.44,16.45L170,230.7l3.1,11.49,11-8.07L199.3,223l2.5-1.84-1-3-1.17-3.6h0l-1.42-4.38-3.8-11.7L193,194.17h0l-3.7-11.4-2-1.83-16.17-14.55L155,151.82l-16-14.38,12.94-17.17,2.28-3,0,0,2.77-3.67,7.4-9.82,2.77-3.67,0,0,2.28-3,13-17.27,18.19,11.7,17.1,11,17.1,11,17.1,11,0.69,0.44,11.48-.4v0l4.6-.16,12.29-.43,4.6-.16v0l11.56-.4,12.74-9.26,14.23-10.34,3-2.15-0.88-3.54-0.91-3.67h0L324.12,90l-3-11.94L320,73.58h0l-0.91-3.67-0.88-3.54-3.61-.5-17.22-2.41-6.5-.91-0.37,2.93L315.89,69l7.83,31.41-27.58,20L253.43,122,181.72,75.82l-46.74,62,5.13,4.62-66.55,9.34-1.67,91.84-26.61-.91-0.59-33.93,21.53-35.34L32,114.23l-18.68.53-0.24,3Zm156.4,67.19L198.33,220l-23.49,17.21-22.65-83.93Z"/><polygon class="cls-2" points="300.64 29.24 235.07 1.34 198.68 40.08 156.76 55.29 41.3 39.13 1.08 94.39 1.24 94.73 4.75 95.27 4.49 94.72 14.98 80.31 17.2 77.25 17.18 77.23 18.89 74.89 27.83 62.6 29.01 60.98 29.83 59.85 29.86 59.87 32.08 56.81 42.65 42.3 60.42 44.79 79.63 47.48 98.84 50.17 118.05 52.86 137.26 55.55 156.48 58.24 157.08 58.32 168.56 54.16 168.55 54.13 171.28 53.14 185.56 47.95 187.44 47.27 188.76 46.79 188.77 46.82 200.35 42.62 211.04 31.24 222.77 18.75 235.82 4.87 253.35 12.32 256.83 13.81 256.84 13.78 259.51 14.91 273.49 20.86 275.33 21.65 276.62 22.2 276.61 22.23 280.09 23.71 297.59 31.15 297.57 31.56 300.6 30.08 300.64 29.24"/><polygon class="cls-2" points="267.82 42.87 267.81 42.9 263.58 41.1 252.26 36.28 248.03 34.48 248.04 34.45 244.56 32.97 241.44 31.64 239.13 34.11 227.39 46.6 214.6 60.22 213.04 61.88 196.43 67.91 196.44 67.94 192.11 69.51 180.55 73.71 176.22 75.28 176.21 75.25 159.49 81.31 153.37 80.46 134.16 77.77 114.94 75.08 95.73 72.39 76.52 69.7 57.31 67.01 52.87 66.39 50.22 70.02 48 73.08 48.02 73.09 45.32 76.81 38.08 86.76 35.37 90.48 35.34 90.46 33.12 93.52 30.4 97.25 31.39 99.36 34.89 99.9 33.81 97.58 54.21 69.56 159.81 84.34 214.71 64.42 242.19 35.17 267.84 46.09 271.35 44.37 271.3 44.35 267.82 42.87"/><path class="cls-2" d="M274.33,25h0l-0.28-.12-3.59-1.53-2.39-1-1.93-.82-1.76,4.14,0.19,6.71,0.64,0.27L268.43,34l1.29,0.55,1.38,0.59-1.37,3.22-1.38-.59-1.29-.55-5.89-2.51L260.85,25l2.08-4.88-0.28-.12-1.2-.51-4.6-2-0.46-.2h0L252,15.52,236.69,9,225.31,21.13,213.57,33.62l-11,11.72-0.24.26L189,50.43h0l-0.28.1-3.67,1.33-2.44.89-2,.72,1.54,4.23,4.71,4.78,0.66-.24L190.84,61l1.32-.48,1.41-.51,1.19,3.29-1.41.51-1.32.48-6,2.18-6.86-6.87-1.81-5-0.28.1-1.22.44-4.7,1.71-0.47.17h0l-13.23,4.8-1.46-.2L136.78,59,117.57,56.3,98.36,53.61,79.15,50.92,59.94,48.24,44.23,46,34.9,58.86l-2.81,3.87h0L31.9,63l-2.3,3.15-1.53,2.1-1.24,1.7,3.64,2.65,6.58,1.33,0.41-.57,2.06-2.83,0.82-1.13,0.88-1.21,2.83,2.06-0.88,1.21-0.82,1.13-3.77,5.17-9.53-1.86-4.28-3.12L24.6,73,23.83,74l-2.94,4-0.29.4h0l-2.81,3.87L8.51,95.11l0.37,0.79,1.67,0.26-0.41-.89,8.8-12.08,2.23-3.06h0L22,78.91l2.94-4,2.83,2.06-2.94,4L24,82.18h0l-2.23,3.06L14.15,95.66l0.53,1.13L16.05,97l-0.56-1.22,7.19-9.88,2.23-3.06,0,0,0.88-1.21,2.94-4,2.83,2.06-2.94,4-0.29.4,0,0L25.49,88l-6,8.22,0.68,1.46,7.08,1.09-0.87-1.87,3.92-5.39,2.81-3.87h0l0.29-.4,0.82-1.13,3-4.12-1.48-.34-2.65,3.64-0.82,1.13-0.88,1.21-2.83-2.06,0.88-1.21,0.82-1.13,2.12-2.91,1.88-2.59,5.2,1.19,4-5.5,0.82-1.13h0l0.29-.4h0L47.41,68l3.87-5.32,6.51,0.91L77,66.26l19.21,2.69,19.21,2.69,19.21,2.69L153.85,77l5.27,0.74L176,71.64h0l0.47-.17,1.32-.48,4.79-1.74-1-1.11-4.23,1.54-1.32.48-1.41.51-1.19-3.29,1.41-.51,1.32-.48,3.38-1.23,3-1.09L186.12,68l6.39-2.32,1.32-.48h0L194.3,65h0l16.78-6.09,1.32-1.41,12.46-13.27,11.74-12.49,4-4.24,5.35,2.28,4.4,1.87h0l0.46,0.2,1.29,0.55,4.69,2V32.87l-4.14-1.76-1.29-.55L249.95,30l1.37-3.22,1.38,0.59L254,27.89l3.31,1.41,2.94,1.25v5.33l6.26,2.66,1.29,0.55h0l0.46,0.2h0l4.4,1.87,2.82,1.2,7.09-3.46L275,35.67l-4.4-1.87v0l-0.46-.2-4.51-1.92L267,28.43l4.51,1.92,1.38,0.59,0,0,3.48,1.48,10.35,4.4,1.38-.67-11.27-4.8-3.48-1.48h0L272,29.34l-4.51-1.92,1.37-3.22,4.51,1.92,1.38,0.59h0l3.48,1.48,14,6,1.67-.82-15.16-6.45ZM30,67.91l2.88-4,0.88-1.21h0L36,59.69l8.84-12.14,14.87,2.08L79,52.32,98.17,55l19.21,2.69,19.21,2.69,19.21,2.69,1.81,0.25,12.62-4.58h0l1.41-.51,4.7-1.71,1.19,3.29-4.7,1.71-1.41.51h0L158,66.89l-2.66-.37-19.21-2.69L116.9,61.14,97.68,58.45,78.47,55.76,59.26,53.07,46.45,51.28,38.84,61.73l-2.23,3.06h0L35.74,66l-2.88,4Zm144.37-2.08-0.47.17v0l-15.46,5.61-3.8-.53-19.21-2.69-19.21-2.69L97,63,77.83,60.35,58.62,57.66,48.57,56.26l-6,8.21-2.81,3.87,0,0-0.29.4-2.88,4-2.83-2.06,2.88-4,0.88-1.21,0,0,2.23-3.06L47,52.53l12.12,1.7,19.21,2.69L97.52,59.6l19.21,2.69L135.95,65l19.21,2.69,2.95,0.41,13.7-5,0,0,1.41-.51,4.7-1.71,1.19,3.29Zm83.33-37.55-4.6-2-0.46-.2v0l-4.4-1.87-9.18-3.91-6.83,7.27L220.51,40.14l-11.9,12.67-0.9,1-15.44,5.6v0l-0.47.17-4.61,1.67L186,57.9l4.61-1.67,1.41-.51,0,0,13.72-5,0.66-.71L218,37.76l11.74-12.49,8.49-9,11.41,4.86,3.48,1.48,0,0,1.38,0.59,4.6,2Zm1.8-4.23-4.6-2-1.38-.59h0L250.07,20l-12.16-5.17-9,9.63L217.13,37,205.66,49.18l-0.58.62-13.46,4.88h0l-1.41.51-4.61,1.67-1.19-3.29L189,51.91l1.41-.51h0l12.68-4.6,0.34-.36L214.6,34.59l11.74-12.49L237,10.69l14.39,6.12,3.48,1.48h0l1.38,0.59,4.6,2Z"/></svg>