<svg id="Layer_2" data-name="Layer 2" xmlns="http://www.w3.org/2000/svg" viewBox="0 0 364 292"><title>SUN-MOON-PCB</title><path d="M116,66l10.1,14.82,10.1,14.82,2.69,4,4.77-.33,3.77-.26v0l4.59-.32,12.27-.84,4.59-.32v0l3.77-.26,4.65-.32,2-4.21,8-16.8,8-16.8,8-16.8,7.14-15-2.7-1.2-0.31.64,0-.25L100.4,37.84l-0.46-.68-2,2.3,7.95,11.67Zm90.52-37.4L175.35,94.07l-35,2.41L101.68,39.72Z"/><polygon points="223.5 51.92 215.51 68.72 207.53 85.53 199.54 102.33 191.91 118.38 174.17 119.61 170.4 119.86 170.4 119.9 167.5 120.1 152.34 121.14 150.35 121.28 148.95 121.37 148.95 121.34 145.17 121.6 127.56 122.81 117.63 108.22 107.53 93.41 97.43 78.58 87.34 63.76 82.69 56.95 80.69 59.26 126.07 125.88 193.83 121.21 233.59 37.59 230.88 36.39 223.5 51.92"/><polygon points="100.31 76.63 110.4 91.45 120.5 106.27 129.31 119.21 144.94 118.13 149.71 117.81 149.71 117.81 150.01 117.79 153.9 117.53 156.49 117.35 158.59 117.2 158.28 112.71 155.06 106.82 154.37 106.87 150.87 107.11 149.48 107.2 147.98 107.31 147.74 103.81 149.24 103.71 150.63 103.62 157.02 103.18 161.71 111.67 162.08 116.96 162.38 116.94 163.67 116.85 168.66 116.51 169.16 116.47 169.16 116.47 173.93 116.14 189.64 115.06 196.4 100.83 204.39 84.03 212.37 67.23 220.36 50.43 227.71 34.98 226.42 34.4 219.09 49.82 211.1 66.63 203.12 83.43 195.13 100.23 188.72 113.71 173.83 114.73 170.06 114.99 170.06 115.01 168.56 115.11 163.58 115.45 163.34 111.96 168.32 111.62 169.82 111.52 169.82 111.52 173.59 111.27 186.45 110.38 191.99 98.74 199.97 81.94 207.96 65.13 215.95 48.33 223.24 32.99 222.18 32.52 214.9 47.83 206.92 64.64 198.93 81.44 190.94 98.24 185.7 109.27 173.51 110.11 169.74 110.37 169.75 110.42 168.25 110.52 163.26 110.87 163.02 107.37 168.01 107.03 168.51 107 168.51 106.97 173.28 106.64 183.43 105.94 187.8 96.75 195.79 79.94 203.78 63.14 211.76 46.34 219.01 31.1 213.56 28.68 206.38 43.78 198.39 60.58 190.4 77.39 182.41 94.19 179.54 100.23 172.87 100.69 168.1 101.02 168.1 101.01 167.6 101.05 166.2 101.14 161.11 101.49 161.81 102.85 166.3 102.54 167.69 102.44 169.19 102.34 169.43 105.83 167.93 105.93 166.54 106.03 162.94 106.28 159.75 106.5 157.32 101.75 150.54 102.22 149.14 102.32 149.14 102.32 148.64 102.35 148.64 102.36 143.87 102.69 137.11 103.15 133.29 97.55 123.2 82.73 113.1 67.91 103 53.09 95.57 42.17 91.52 46.82 98.08 56.45 108.17 71.27 118.27 86.09 128.37 100.91 134.11 109.33 144.28 108.64 149.05 108.31 149.05 108.34 149.55 108.3 154.44 107.97 154.68 111.46 149.79 111.79 148.3 111.9 148.29 111.84 144.52 112.1 132.36 112.94 125.49 102.86 115.4 88.05 105.3 73.22 95.2 58.4 89.16 49.53 88.37 50.44 94.25 59.06 104.34 73.88 114.44 88.7 124.53 103.52 131.77 114.14 144.6 113.26 148.37 113 148.37 112.99 149.87 112.89 154.76 112.55 155 116.05 150.11 116.38 148.61 116.48 148.61 116.47 144.84 116.73 130.02 117.75 121.66 105.48 111.56 90.66 101.47 75.83 91.37 61.01 86.01 53.15 85.06 54.24 90.21 61.81 100.31 76.63"/><path d="M252.1,211.8h0l-1-4.48-2.78-12-1.05-4.48h0l-2.71-11.68-1.88-2L212.9,145.42l-6.31-6.74,1.46,20.88,1.36,19.51,1.36,19.5,1.34,19.22,20.9-2,19.59-1.87Zm-37.25,2.76-4.73-67.79,31.7,33.85L249,211.3Z"/><path d="M246.06,72l-51.87,57.79,4.72,5-66.13,3.57L95.62,101.67l-2-4.2L34.82,94.1l-0.09,3,2,0.11,18.57,1.06L73.85,99.3l17.54,1L92,100.9l7.32,15.64,1.6,3.42h0l2,4.17,5.22,11.14,2,4.17h0l1.6,3.42L119.23,159l-10.57,14.41L96.28,190.34l-1,1.36-0.8,11.72h0L94.2,208l-0.84,12.27-0.31,4.59h0l-0.24,3.51L107.17,229l14.66,0.66,1,0,0.13-1L125.2,212l2.28-16.81,2.28-16.81L132,161.54l2.75-20.31,20.47-1.11,3.78-.2v0l4.59-.25L175.9,139l4.59-.25v0l3.78-.2,21.13-1.14-7.2-7.69,14.36-16,2.53-2.81,0,0,3.07-3.42,8.22-9.15,3.07-3.42,0,0L232,92.09,246.43,76l17.13,13.22,16.1,12.42,7.73,6,1.69-2.43ZM120.23,226.66l-24.29-1.09,2.24-32.81,24.47-33.38L98.07,106.9l33.84,33.44Z"/><path d="M267,166l6.35-38.1,1.27-1.83-8.63-6.66L249.85,107l-0.64-.49-0.54.6-2.53,2.81,0,0-1.94,2.16-10.15,11.31-1.34,1.49-0.94,1,0,0-2.53,2.81-0.62.69,0.64,0.68L244.15,146,259,161.84l6,6.4,4.08,17.54h0l0.66,2.82,3.44,14.8,0.45,1.95,0.32,1.36h0l1.72,7.42,4.58,19.68-22.33,2.13-22.78,2.18-21.48,2.05-22.33,2.13-1.56-22.38-1.38-19.79L187,180.63l-1.36-19.5v-0.17h-0.17l-3.78.2v0l-2.9.16-15.18.82-2,.11-1.4.08v0l-3.78.2-1.94.1-0.26,1.92L152,181.36l-2.28,16.81L147.43,215l-2.28,16.81-2.88,21.28-21.45-1-14.66-.66-14.92-.67-22.41-1,1.53-22.38,0.28-4h0l0.2-2.89,1-15.16,0.14-2,0.1-1.4h0l1.24-18.21,4.84-6.6,12.38-16.88,2.7-3.68-1.94-4.13-1.6-3.42h0l-1.23-2.63L82,132.57l-0.85-1.81-0.59-1.27h0L79,126.05,77.08,122l-4.52-.26L54,120.63l-18.57-1.06L34,119.49,34,121.07l-0.48.12,32,129,0.36-.09-0.17,2.48,79.16,3.57,0.08-.62,43.67-10v0l95.31-9.11-16.2-69.64Zm-34.31-36.63,16.93-18.86,21.8,16.82-6.14,36.83Zm-196.77-6.8,39.27,2.25,14.69,31.37L70.46,182.62,66.21,244.8ZM145.21,253.4l11.91-88,25.79-1.39,5.54,79.44Z"/><path d="M261.43,92L246.86,80.72l-12.29,13.7L231.37,98h0l-0.33.37-0.94,1-3.41,3.8,1.44,0.49,3-3.35,0.94-1,1-1.12,2.6,2.34-1,1.12-0.94,1-2.4,2.68-2.14,2.38-5-1.71-4.54,5.06-0.94,1h0l-0.33.37h0L215.15,116l-12.23,13.63L215.44,143l14.87,15.88,14.87,15.88,2.51,2.68L250.85,191h0l0.11,0.49,0.32,1.36,1.16,5,1.23-.9-1-4.38-0.32-1.36L252,189.75l3.41-.79,0.34,1.46,0.32,1.36,0.82,3.51,0.72,3.12-4.3,3.16,1.54,6.62,0.32,1.36h0l0.11,0.49h0l0.48,2.08,1.14,4.88-3.46.33-20.09,1.92-21,2-3.46.33-0.24-3.47-1.35-19.3-1.36-19.51-1.36-19.51L203.27,141l-18.81,1-4.77.26h0l-0.5,0-1.4.08-5.09.27,0.67,1.37,4.49-.24,1.4-.08,1.5-.08,0.19,3.49-1.5.08-1.4.08-3.59.19-3.2.17-2.36-4.78-6.79.37-1.4.08h0l-0.5,0h0l-4.78.26-17.6,1L135.47,162l-2.28,16.81-2.28,16.81-2.28,16.81-2.28,16.81-0.56,4.1-4.14-.19L107,232.5l-14.48-.65-3.47-.16,0.24-3.47,0.31-4.59h0l0-.5,0.1-1.4,0.35-5.09-1.44.5-0.31,4.49-0.1,1.4-0.1,1.5-3.49-.24,0.1-1.5,0.1-1.4,0.25-3.59,0.22-3.19,5-1.76,0.46-6.78,0.1-1.4h0l0-.5h0l0.94-13.72,1.59-2.17,12.38-16.88,9.35-12.75-6.7-14.32-2-4.33h0l-0.21-.45-0.59-1.27-2.16-4.62-1,1.14,1.91,4.08,0.59,1.27,0.64,1.36L102.46,143l-0.64-1.36-0.59-1.27-1.53-3.26-1.36-2.9,3.55-4L99,124.06l-0.59-1.27h0l-0.21-.45h0l-2-4.33-6.72-14.34-15.81-.9L55.07,101.7,36.5,100.64l-1.88-.11-0.19,6,1.73,0.1,18.57,1.06,18.57,1.06,12.26,0.7,5.21,11.12,2,4.33h0L93,125.34l2.08,4.44-3.17,1.48-2.08-4.44h0l-0.64-1.36,0,0L87.63,122l-4.33-9.24-10.19-.58-18.57-1.06L36,110.06,34.31,110l0,1.16,1.62,0.09,18.57,1.06L73,113.35l9.5,0.54,4,8.62,1.6,3.42h0l0.64,1.36,2.08,4.44-3.17,1.48-2.08-4.44h0L85,127.41h0L83.43,124l-3.15-6.74-7.43-.42-18.57-1.06L35.7,114.69l-1.53-.09,0,1.41,1.49,0.09,18.57,1.06,18.57,1.06,6.59,0.38,2.8,6,2,4.33h0l0.13,0.27L86,132.72l1.1,2.35,0.89,1.9L92,135.06l4.34-5.12-0.3-.63-1.48-3.17L94,124.87l-0.64-1.36L96.52,122l0.64,1.36,0.59,1.27,2.71,5.8-6.23,7.44-4.8,2.25,0.13,0.27,0.55,1.18,2.12,4.53,0.21,0.45h0l2,4.33,2.81,6-3.92,5.35L81,179.13l-4.25,5.79-1.24,18.2h0l0,0.3-0.27,3.89L75,209.91,74.89,212l4.49,0.31,6.28-2.38,0-.7,0.24-3.49,0.1-1.4,0.1-1.5,3.49,0.24-0.1,1.5-0.1,1.4L89,212.36l-9.06,3.49-5.29-.36,0,0.3-0.09,1.3-0.34,5,0,0.5h0l-0.34,5-1.29,18.92,18.94,0.85L106.32,248,121,248.63l18.28,0.82,2.46-18.13L144,214.51l2.28-16.81,2.28-16.81,2.28-16.81,0.65-4.77,4.81-.26,4.77-.26h0l0.3,0,3.89-.21,2.6-.14,2.1-.11-0.24-4.49-3.12-5.94-0.7,0-3.49.19-1.4.08-1.5.08-0.19-3.49,1.5-.08,1.4-.08,6.39-.35,4.57,8.57,0.29,5.29,0.3,0,1.3-.07,5-.27,0.5,0h0l4.77-.26,3.59-.19,0.25,3.59,1.36,19.51,1.36,19.51,1.38,19.71,1.32,18.91,18.87-1.8,21.39-2,22.29-2.13,18.87-1.8-3.95-17-1.68-7.23h0l-0.07-.29-0.88-3.8-0.59-2.53-0.48-2-4.38,1L258.65,203l0.16,0.68,0.79,3.41,0.32,1.36,0.34,1.46-3.41.79-0.34-1.46-0.32-1.36-1.45-6.23,7.64-6,5.16-1.2-0.07-.29-0.29-1.27L266.05,188l-0.11-.49h0l-4.09-17.61-5.35-5.71-14.87-15.88-14.87-15.88-2.82-3,2.75-3.07,3.19-3.56h0l0.2-.22,2.6-2.9,1.74-1.93,1.4-1.56-3.35-3-6.41-2-0.47.52-2.34,2.6-0.94,1-1,1.12-2.6-2.34,1-1.12,0.94-1,4.27-4.76,9.29,2.83,3.94,3.54,0.2-.22,0.87-1,3.34-3.72,0.33-.37h0l3.19-3.56,2.69-3,3.19,2.46,16.1,12.42,8.49,6.55,0.8-1.16-8.44-6.51-16.1-12.42-4.23-3.26-3.56,4-2.53,2.81h0l-1,1.12-3.34,3.72-2.6-2.34,3.34-3.72,1-1.12h0l2.53-2.81,5.72-6.37,6.78,5.23,16.1,12.42,8.3,6.4,0.66-1-8.25-6.37-16.1-12.42L248,93.55l-6.44,7.18-2.53,2.81,0,0-1,1.12-3.34,3.72-2.6-2.34,3.34-3.72,0.33-.37,0,0L239,98.4l8.6-9.58,10.19,7.86,16.1,12.42,8.11,6.26,3.4-4.9-7.87-6.07ZM80.35,204L80,208.84l-3.49-.24,0.33-4.89h0l0.1-1.5h0l1.15-16.8,4-5.46L94.5,163.08l4.41-6-3.16-6.76-1.6-3.42h0l-0.64-1.36L91.38,141l3.17-1.48L96.67,144h0l0.64,1.36h0l1.6,3.42,4,8.62-5.63,7.68L84.93,182l-3.41,4.65-1.08,15.79h0Zm8.32-19.2-2.61,3.56L85,203.77h0l0,0.5-0.33,4.89-3.49-.24L81.45,204l0.1-1.5H81.6l1.06-15.46,3.21-4.38,12.38-16.88,6-8.24L100,148.34l-1.6-3.42,0,0-0.64-1.36L95.54,139l3.17-1.48,2.12,4.53h0l0.21,0.45h0l2,4.33L108.3,158l-7.26,9.9Zm77.69-27.64-4.89.26-1.5.08v0l-3.78.2-6,.32-0.8,5.92-2.28,16.81-2.28,16.81-2.28,16.81-2.28,16.81L138,248l-17-.77-14.66-.66-14.81-.67L74,245.1l1.2-17.51,0.27-3.92h0l0.1-1.5,0.34-5,3.49,0.24-0.34,5-0.1,1.5h0l-0.26,3.84-1,14,14.06,0.63,14.72,0.66,14.66,0.66L135,244.37l1.86-13.71,2.28-16.81L141.42,197l2.28-16.81L146,163.43l1.19-8.77,8.84-.48,3.78-.2h0l1.5-.08,4.89-.26Zm-5.83-7.83v0l0.5,0,4.89-.26,0.19,3.49-4.89.26-1.5.08v-0.05l-3.78.2-9.8.53-1.32,9.73-2.28,16.81-2.28,16.81L138,213.7l-2.28,16.81L134,243.17l-12.76-.57-14.66-.66-14.7-.66L79,240.69l0.88-12.89L80.13,224H80.08l0.1-1.5,0.34-5L84,217.74l-0.34,5,0,0.5h0L83.35,228l-0.64,9.42,9.43,0.42,14.62,0.66,14.66,0.66,9.58,0.43,1.29-9.5,2.28-16.81,2.28-16.81,2.28-16.81,2.28-16.81,1.7-12.58,12.67-.68Zm107.24,52.3,1.11,4.77,0.34,1.46h0l1.35,5.79,3.69,15.87-17.47,1.67-22.09,2.11-21.35,2L195.85,237l-1.22-17.51-1.37-19.67-1.36-19.5-1.36-19.51-0.35-5-5,.27-3.78.2v0l-1.5.08-5,.27-0.19-3.49,5-.27,1.5-.08h0l3.78-.2,8.39-.45,0.59,8.38L195.37,180l1.36,19.51,1.37,19.58,1,14,14-1.34,21.26-2,21.59-2.06,14-1.34-3.06-13.16-1.08-4.63h0l-0.34-1.46-1.11-4.77ZM262,212.75l-0.95-4.07h0l-0.11-.49-1.11-4.77,3.41-.79,1.11,4.77,0.34,1.46h-0.05l1,4.25,2.85,12.25-12.86,1.23-21.43,2-21.23,2-12.86,1.23L199.25,219l-1.36-19.55L196.52,180l-1.36-19.51-0.66-9.52-9.53.51-3.78.2v0.05l-1.5.08-5,.27-0.19-3.49,5-.27,0.5,0v0l4.77-.26,13-.7,0.9,12.94,1.36,19.5,1.36,19.51,1.36,19.46,0.66,9.42,9.4-.9,21.14-2,20.93-2,9.4-.9Zm-29.58-94.87-3.27,3.65-1,1.12h0l-2.53,2.81-3.61,4,3.7,3.95,14.87,15.88,14.87,15.88,5.09,5.44,3.78,16.27h0l0.34,1.46,1.13,4.87-3.41.79-1.13-4.87-0.34-1.46h0l-3.57-15.36-4.46-4.76L238,151.68,223.18,135.8l-5.88-6.28,5.74-6.4,2.53-2.81h0l1-1.12,3.27-3.65ZM219.59,120l3.19-3.56,0,0,0.33-.37,3.27-3.65,2.6,2.34-3.27,3.65-1,1.12,0,0-2.53,2.81-6.45,7.19,6.6,7.05,14.87,15.88,14.87,15.88,4.24,4.53,3.5,15.05h0.05l0.34,1.46,1.13,4.87-3.41.79-1.13-4.87-0.11-.49h0l-3.52-15.12-3.61-3.85-14.87-15.88L219.79,139,211,129.59Z"/></svg>