<?xml version="1.0" encoding="utf-8"?>
<!-- Generator: Adobe Illustrator 19.2.1, SVG Export Plug-In . SVG Version: 6.00 Build 0)  -->
<svg version="1.1" id="Layer_1" xmlns="http://www.w3.org/2000/svg" xmlns:xlink="http://www.w3.org/1999/xlink" x="0px" y="0px"
	 viewBox="0 0 360 288" style="enable-background:new 0 0 360 288;" xml:space="preserve">
<style type="text/css">
	.st0{fill:#FFFF00;}
	.st1{fill:none;}
</style>
<path class="st0" d="M333.8,268.6l-18.7-0.2l-18.7-0.2l-18.7-0.2l-18.7-0.2l-18.7-0.2l-18.7-0.2l-18.7-0.2l-18.7-0.2l-2.1,0
	l-14.4,1.3l0,0l-2.9,0.3l-15.1,1.4l-2,0.2l-1.4,0.1l0,0l-14.5,1.3l-3.3,0.6l-19.5,3.5L90,279.2l-5.4,1L67,278.1l0.4-3.5l17,2
	l4.9-0.9l19.5-3.5l19.5-3.5l3.4-0.6l15.6-1.4l0,0l0.3,0l3.9-0.4l2.6-0.2l2.1-0.2l-0.4-4.5l-3.3-5.8l-0.7,0.1l-3.5,0.3l-1.4,0.1
	l-1.5,0.1l-0.3-3.5l1.5-0.1l1.4-0.1l6.4-0.6l4.9,8.4l0.5,5.3l0.3,0l1.3-0.1l5-0.5l0.5,0l0,0l15.5-1.4l2.3,0l18.7,0.2l18.7,0.2
	l18.7,0.2l18.7,0.2l18.7,0.2l18.7,0.2l18.7,0.2l18.7,0.2l13.8,0.1l0-1.4l-13.8-0.1l-18.7-0.2l-18.7-0.2l-18.7-0.2l-18.7-0.2
	l-18.7-0.2l-18.7-0.2l-18.7-0.2l-18.7-0.2l-2.3,0l-14.6,1.3l0,0l-1.5,0.1l-5,0.5l-0.3-3.5l5-0.5l1.5-0.1l0,0l14.8-1.4l2.5,0
	l18.7,0.2l18.7,0.2l18.7,0.2l18.7,0.2l18.7,0.2l18.7,0.2l18.7,0.2l18.7,0.2l13.8,0.1l0-1.2l-13.8-0.1l-18.7-0.2l-18.7-0.2l-18.7-0.2
	l-18.7-0.2l-18.7-0.2L222,258l-18.7-0.2l-18.7-0.2l-2.6,0l-14.9,1.4l0,0.1l-1.5,0.1l-5,0.5l-0.3-3.5l5-0.5l0.5,0l0,0l16-1.5l2.7,0
	l18.7,0.2l18.7,0.2l18.7,0.2l18.7,0.2L278,255l18.7,0.2l18.7,0.2l18.7,0.2l13.8,0.1l0-6l-13.7-0.1l-18.7-0.2l-18.7-0.2l-18.7-0.2
	l-18.7-0.2l-18.7-0.2l-18.7-0.2l-18.7-0.2l-18.7-0.2l-3,0l-16.3,1.5l0,0l-0.5,0l-1.4,0.1l-5.1,0.5l0.7,1.3l4.5-0.4l1.4-0.1l1.5-0.1
	l0.3,3.5l-1.5,0.1l-1.4,0.1l-3.6,0.3l-3.2,0.3l-2.5-4.7l-6.8,0.6l-1.4,0.1l-0.5,0l0,0l-16.3,1.5l-4.1,0.7l-19.5,3.5l-19.5,3.5
	L84,261l-14.7-1.8l0.4-3.5l14.2,1.7l2.1-0.4l19.5-3.5l19.5-3.5l4.2-0.8l15.4-1.4l0,0l4.6-0.4l12.2-1.1l4.6-0.4l0,0l15.5-1.4l3.2,0
	l18.7,0.2l18.7,0.2l18.7,0.2l18.7,0.2l18.7,0.2l18.7,0.2l18.7,0.2l18.7,0.2l13.7,0.1l0-3l-166.3-1.7l-52.6,4.8l-45,8L70,252.9
	L66.7,281l18,2.1l48-8.6l50-4.6l165,1.7l0-3L333.8,268.6z M68.6,265.2l15.6,1.9l3.5-0.6l19.5-3.5l19.5-3.5l3.8-0.7l16-1.5l0,0l0.5,0
	l4.9-0.4l0.3,3.5l-4.9,0.4l-1.5,0.1l0-0.1l-14.9,1.4l-3.7,0.7l-19.5,3.5l-19.5,3.5l-4,0.7l-16.1-1.9L68.6,265.2z M68,269.8l16.3,1.9
	l4.2-0.7l19.5-3.5l19.5-3.5l3.6-0.6l14.8-1.4l0,0l1.5-0.1l4.9-0.4l0.3,3.5l-4.9,0.4l-1.5,0.1l0,0l-14.7,1.3l-3.5,0.6l-19.5,3.5
	l-19.5,3.5l-4.7,0.8l-16.8-2L68,269.8z"/>
<g>
	<polygon class="st1" points="-150.6,369.6 -168.5,374.6 -186.4,379.6 -204.3,384.6 -222.2,389.6 -240.1,394.6 -255.3,398.9 
		-266.4,387.7 -269.8,384.4 -269.8,384.4 -270.2,384 -273.7,380.5 -274.6,379.6 -274.8,379.3 -271.1,375.6 -267.8,366.5 
		-272.3,361.9 -273.3,361 -274.3,359.9 -276.8,362.4 -275.8,363.4 -274.8,364.4 -272.3,366.9 -271.8,367.4 -274.1,373.7 
		-277.3,376.9 -278.8,375.4 -280.6,373.5 -283.4,370.8 -283.6,370.6 -283.6,370.6 -287,367.2 -298.1,356.1 -294.1,341 -289.5,323.6 
		-285,306.3 -280.5,288.9 -275.9,271.6 -271.2,253.6 -270.4,250.5 -258.1,237.3 -258.2,237.3 -257.8,237 -254.4,233.3 -253.5,232.4 
		-253.3,232.1 -249.4,235.8 -240.2,238.8 -235.8,234.1 -234.9,233 -233.9,232 -236.4,229.6 -237.4,230.7 -238.4,231.7 -240.8,234.2 
		-241.3,234.8 -247.6,232.6 -250.9,229.6 -249.5,228 -247.7,226.1 -245.1,223.3 -244.9,223.1 -244.9,223.1 -232.6,210 -228.6,208.5 
		-210.9,202.4 -193.4,196.2 -175.9,190 -158.4,183.9 -140.9,177.7 -123.4,171.6 -105.9,165.4 -88.4,159.3 -84.3,157.9 -85.3,153.7 
		-86.4,149 -86.4,149 -86.5,148.5 -87.6,143.7 -87.9,142.4 -88,142.1 -82.8,140.9 -75.2,134.9 -76.6,128.7 -76.9,127.3 -77.3,125.9 
		-80.7,126.7 -80.3,128.1 -80,129.5 -79.2,132.9 -79.1,133.6 -84.4,137.7 -88.8,138.7 -89.3,136.7 -89.8,134.1 -90.7,130.3 
		-90.8,130 -90.8,130 -91.8,125.4 -92.8,121.1 -97.1,121.6 -115.7,123.6 -134.2,125.6 -152.8,127.6 -171.3,129.7 -189.9,131.7 
		-208.4,133.7 -213.3,134.2 -212.9,137.7 -208.1,137.2 -189.5,135.1 -171,133.1 -152.4,131.1 -133.9,129.1 -115.3,127.1 
		-96.8,125.1 -95.5,124.9 -95.2,126.1 -94.4,129.8 -94.4,129.8 -94.1,131.2 -93.7,133.2 -90.2,148 -89.6,150.8 -89.6,150.8 
		-88.7,154.5 -88.4,155.6 -89.5,156 -107.1,162.2 -124.6,168.3 -142.1,174.5 -159.6,180.6 -177.1,186.8 -194.6,192.9 -212.1,199.1 
		-229.8,205.3 -234.6,207 -246.7,220 -246.7,219.9 -247.7,221 -249.1,222.4 -259.4,233.6 -261.4,235.7 -261.4,235.7 -273.5,248.7 
		-274.5,252.5 -279.3,270.7 -283.8,288 -288.4,305.4 -292.9,322.7 -297.5,340.1 -301.9,357.2 -289.4,369.6 -286.8,372.3 
		-286.8,372.3 -285.8,373.3 -284.4,374.7 -273.6,385.5 -271.6,387.5 -271.6,387.5 -268.9,390.2 -256.3,402.8 -239.2,398 -221.3,393 
		-203.4,387.9 -185.5,382.9 -167.5,377.9 -149.6,372.9 -133.4,368.4 -134,364.9 	"/>
	<polygon class="st1" points="-190,130.3 -171.5,128.3 -152.9,126.3 -134.4,124.2 -115.8,122.2 -97.3,120.2 -91.7,119.6 -90.5,125 
		-89.6,128.7 -89.6,128.7 -89.3,130.2 -88.2,135 -84.8,134.2 -85.9,129.4 -86.2,128 -86.2,128 -87.1,124.3 -89,115.8 -97.7,116.7 
		-116.2,118.8 -134.8,120.8 -153.3,122.8 -171.9,124.8 -190.4,126.8 -209,128.8 -213.8,129.4 -213.4,132.8 -208.6,132.3 	"/>
	<polygon class="st1" points="-190.5,125.7 -172,123.7 -153.4,121.6 -134.9,119.6 -116.3,117.6 -97.8,115.6 -88.1,114.5 -86,124 
		-85.1,127.7 -85.2,127.7 -84.8,129.2 -83.7,133.9 -80.3,133.2 -81.4,128.4 -81.5,127.9 -81.5,127.9 -82.6,123.2 -85.5,110.8 
		-98.2,112.1 -116.7,114.2 -135.3,116.2 -153.8,118.2 -172.4,120.2 -190.9,122.2 -209.5,124.2 -214.3,124.8 -213.9,128.2 
		-209.1,127.7 	"/>
	<polygon class="st1" points="-191.6,116.3 -173,114.3 -154.5,112.3 -135.9,110.2 -117.4,108.2 -98.8,106.2 -80.8,104.3 
		-76.8,121.9 -75.7,126.5 -75.7,126.5 -75.6,127 -75.6,127 -75.3,128.4 -73.7,135 -78,138.2 -77.3,141.3 -76.5,144.8 -76.2,146.2 
		-75.8,147.6 -72.4,146.8 -72.8,145.4 -73.1,144 -74.1,139.6 -72.9,138.7 -71.7,143.7 -71.4,145.1 -71.3,145.5 -71.3,145.5 
		-70.2,150.2 -66.1,167.9 -83.3,173.9 -100.8,180 -118.3,186.2 -135.8,192.4 -153.3,198.5 -170.8,204.7 -188.3,210.8 -205.8,217 
		-223.2,223.1 -223.9,223.3 -233.5,233.6 -233.5,233.6 -233.9,234 -233.9,234 -234.8,235 -239.5,240 -244.5,238.2 -246.7,240.5 
		-249.1,243.2 -250.1,244.2 -251.1,245.3 -248.5,247.7 -247.5,246.6 -246.5,245.6 -243.5,242.3 -242,242.8 -245.5,246.5 
		-246.5,247.5 -246.8,247.9 -246.8,247.9 -256.4,258.2 -256.6,258.7 -260.9,275.5 -265.5,292.8 -270,310.2 -274.6,327.5 
		-279.1,344.9 -280.8,351.4 -276,356.2 -272.7,359.6 -272.7,359.6 -272.3,360 -272.3,360 -271.3,361 -266.5,365.8 -268.5,370.7 
		-266.2,373 -263.7,375.5 -262.7,376.5 -261.6,377.6 -259.1,375.1 -260.2,374 -261.2,373 -264.4,369.9 -263.8,368.4 -260.2,372.1 
		-259.2,373 -258.9,373.4 -258.9,373.4 -255.5,376.8 -250.8,381.5 -244.3,379.7 -226.4,374.7 -208.5,369.7 -190.6,364.7 
		-172.6,359.7 -154.7,354.6 -136.8,349.6 -136.5,349.6 -137.1,346.1 -137.8,346.3 -155.7,351.3 -173.6,356.3 -191.5,361.3 
		-209.4,366.3 -227.3,371.4 -245.3,376.4 -249.7,377.6 -253,374.3 -255.7,371.7 -255.7,371.6 -258.9,368.4 -267.6,359.7 
		-270.9,356.4 -270.9,356.5 -273.6,353.8 -277,350.4 -275.8,345.8 -271.2,328.4 -266.7,311.1 -262.1,293.7 -257.6,276.4 
		-253.3,259.9 -245,251 -244.9,251 -241.8,247.7 -233.4,238.7 -230.3,235.3 -230.3,235.3 -222,226.3 -204.6,220.2 -187.1,214.1 
		-169.6,207.9 -152.1,201.8 -134.6,195.6 -117.1,189.5 -99.6,183.3 -82.1,177.2 -62.1,170.1 -66.8,149.4 -67.7,145.7 -67.7,145.7 
		-68.7,141.2 -71.5,129.3 -72.5,124.8 -72.5,124.8 -73.4,121.1 -78.1,100.5 -99.2,102.8 -117.7,104.8 -136.3,106.8 -154.8,108.8 
		-173.4,110.8 -191.9,112.8 -210.5,114.8 -215.4,115.4 -215,118.8 -210.1,118.3 	"/>
	<polygon class="st0" points="-149.6,372.9 -167.5,377.9 -185.5,382.9 -203.4,387.9 -221.3,393 -239.2,398 -256.3,402.8 
		-268.9,390.2 -271.6,387.5 -271.6,387.5 -273.6,385.5 -284.4,374.7 -285.8,373.3 -286.8,372.3 -286.8,372.3 -289.4,369.6 
		-301.9,357.2 -297.5,340.1 -292.9,322.7 -288.4,305.4 -283.8,288 -279.3,270.7 -274.5,252.5 -273.5,248.7 -261.4,235.7 
		-261.4,235.7 -259.4,233.6 -249.1,222.4 -247.7,221 -246.7,219.9 -246.7,220 -234.6,207 -229.8,205.3 -212.1,199.1 -194.6,192.9 
		-177.1,186.8 -159.6,180.6 -142.1,174.5 -124.6,168.3 -107.1,162.2 -89.5,156 -88.4,155.6 -88.7,154.5 -89.6,150.8 -89.6,150.8 
		-90.2,148 -93.7,133.2 -94.1,131.2 -94.4,129.8 -94.4,129.8 -95.2,126.1 -95.5,124.9 -96.8,125.1 -115.3,127.1 -133.9,129.1 
		-152.4,131.1 -171,133.1 -189.5,135.1 -208.1,137.2 -212.9,137.7 -212.5,140.6 -97.8,128.1 -91.9,153.7 -236.3,204.4 -276.2,247.3 
		-305.2,358 -257.2,406.1 -133,371.3 -133.4,368.4 	"/>
	<path class="st0" d="M-189.9,131.7l18.5-2l18.5-2l18.5-2l18.5-2l18.5-2l4.3-0.5l1,4.2l1.1,4.7l0,0l0.1,0.3l0.9,3.8l0.6,2.5l0.5,2
		l4.4-1l5.3-4.1l-0.2-0.7l-0.8-3.4l-0.3-1.4l-0.3-1.5l3.4-0.8l0.3,1.5l0.3,1.4l1.4,6.2l-7.7,6l-5.2,1.2l0.1,0.3l0.3,1.3l1.1,4.9
		l0.1,0.5l0,0l1.1,4.7l1,4.2l-4,1.4l-17.5,6.2l-17.5,6.2l-17.5,6.2l-17.5,6.2l-17.5,6.2l-17.5,6.2l-17.5,6.2l-17.6,6.2l-4.1,1.4
		l-12.2,13.1l0,0l-0.2,0.2l-2.7,2.9l-1.8,1.9l-1.4,1.5l3.3,3.1l6.4,2.1l0.5-0.5l2.4-2.6l1-1l1-1.1l2.6,2.4l-1,1.1l-1,1l-4.4,4.7
		l-9.2-3l-3.9-3.6l-0.2,0.2l-0.9,1l-3.4,3.7l-0.3,0.4l0,0l-12.2,13.1l-0.8,3.2l-4.7,17.9l-4.5,17.3l-4.5,17.3l-4.5,17.3l-4.5,17.3
		l-4,15.1l11.1,11.1l3.4,3.4l0,0l0.2,0.2l2.8,2.8l1.8,1.8l1.5,1.5l3.2-3.2l2.3-6.3l-0.5-0.5l-2.5-2.5l-1-1l-1.1-1.1l2.5-2.5l1.1,1.1
		l1,1l4.5,4.5l-3.3,9.1l-3.7,3.7l0.2,0.2l0.9,0.9l3.5,3.5l0.4,0.4l0,0l3.4,3.4l11.1,11.1l15.2-4.2l17.9-5l17.9-5l17.9-5l17.9-5
		l17.9-5l16.5-4.6l-0.2-1.4l-16.7,4.7l-17.9,5l-17.9,5l-17.9,5l-17.9,5l-17.9,5l-14.4,4l-10.6-10.6l-2.7-2.7l0,0l-1.1-1.1l-3.5-3.5
		l2.5-2.5l3.5,3.5l1.1,1.1l0,0l2.7,2.7l9.1,9.1l12.4-3.5l17.9-5l17.9-5l17.9-5l17.9-5l17.9-5l17.1-4.8l-0.2-1.2l-17.2,4.8l-17.9,5
		l-17.9,5l-17.9,5l-17.9,5l-17.9,5l-11.8,3.3l-8.6-8.6l-2.7-2.7l0,0l-1.1-1.1l-3.5-3.5l2.5-2.5l3.5,3.5l0.4,0.4l0,0l3.4,3.4l7.2,7.2
		l9.8-2.7l17.9-5l17.9-5l17.9-5l17.9-5l17.9-5l17.6-4.9l-1-5.9l-0.3,0.1l-17.9,5l-17.9,5l-17.9,5l-17.9,5l-17.9,5l-17.9,5l-6.4,1.8
		l-4.7-4.7l-3.4-3.4l0,0l-0.4-0.4l-1-1l-3.6-3.6l-0.6,1.4l3.2,3.2l1,1l1.1,1.1l-2.5,2.5l-1.1-1.1l-1-1l-2.5-2.5l-2.3-2.3l2-4.9
		l-4.8-4.8l-1-1l0,0l-0.4-0.4l0,0l-3.4-3.4l-4.8-4.8l1.7-6.6l4.5-17.3l4.5-17.3l4.5-17.3l4.5-17.3l4.4-16.7l0.2-0.6l9.6-10.3l0,0
		l0.3-0.4l1-1l3.5-3.7l-1.4-0.5l-3.1,3.3l-1,1l-1,1.1l-2.6-2.4l1-1.1l1-1l2.5-2.6l2.2-2.3l5,1.8l4.6-5l1-1h0l0.3-0.4l0,0l9.6-10.3
		l0.7-0.3l17.4-6.1l17.5-6.2l17.5-6.2l17.5-6.2l17.5-6.2l17.5-6.2l17.5-6.2l17.5-6.2l17.1-6l-4.1-17.7l-1.1-4.7l0,0l-0.1-0.5
		l-0.3-1.4l-1.1-5l-1.2,0.9l1,4.4l0.3,1.4l0.3,1.5l-3.4,0.8l-0.3-1.5l-0.3-1.4l-0.8-3.5l-0.7-3.1l4.3-3.1l-1.5-6.6l-0.3-1.4l0,0
		l-0.1-0.5l0,0l-1.1-4.7l-4.1-17.6l-18,2l-18.5,2l-18.5,2l-18.5,2l-18.5,2l-18.5,2l-18.5,2l-4.9,0.5l0.7,5.9l4.9-0.5l18.5-2l18.5-2
		l18.5-2l18.5-2l18.5-2l18.5-2l12.7-1.4l2.9,12.5l1.1,4.7l0,0l0.1,0.5l1.1,4.8l-3.4,0.8l-1.1-4.8l-0.3-1.5l0.1,0L-86,124l-2.2-9.5
		l-9.7,1l-18.5,2l-18.5,2l-18.5,2l-18.5,2l-18.5,2l-18.5,2l-4.9,0.5l0.1,1.2l4.9-0.5l18.5-2l18.5-2l18.5-2l18.5-2l18.5-2l18.5-2
		l8.6-0.9l2,8.5l0.9,3.7l0,0l0.3,1.5l1.1,4.8l-3.4,0.8l-1.1-4.8l-0.3-1.5l0,0l-0.9-3.7l-1.3-5.5l-5.6,0.6l-18.5,2l-18.5,2l-18.5,2
		l-18.5,2l-18.5,2l-18.5,2l-4.8,0.5l0.2,1.4l4.8-0.5L-189.9,131.7z M-278.8,373.4l-3.5-3.5l-1.1-1.1l0,0l-2.7-2.7l-10.5-10.5
		l3.8-14.4l4.5-17.3l4.5-17.3l4.5-17.3l4.5-17.3l4.7-17.8l0.8-2.9l11.3-12.1l0,0l1-1.1l3.4-3.7l2.6,2.4l-3.4,3.7l-1,1.1l0,0
		l-10.7,11.5l-0.6,2.3l-4.6,17.6l-4.5,17.3l-4.5,17.3l-4.5,17.3l-4.5,17.3l-3.3,12.4l9.1,9.1l2.7,2.7l0,0l1.1,1.1l3.5,3.5
		L-278.8,373.4z M-250.9,243.4l-0.3,0.4l0,0l-10.6,11.4l-0.4,1.6l-4.5,17.2l-4.5,17.3l-4.5,17.3l-4.5,17.3l-4.5,17.3l-2.6,9.9
		l7.2,7.2l3.4,3.4l0,0l0.4,0.4l3.5,3.5l-2.5,2.5l-3.5-3.5l-1.1-1.1l0,0l-2.7-2.7l-8.6-8.6l3.1-11.8l4.5-17.3l4.5-17.3l4.5-17.3
		l4.5-17.3l4.6-17.5l0.6-2.2l10.5-11.3l0,0l1-1.1l3.4-3.7l2.6,2.4L-250.9,243.4z M-247.5,228l3.3-3.6l1-1.1l0,0l11.3-12.1l3.8-1.3
		l17.6-6.2l17.5-6.2l17.5-6.2l17.5-6.2l17.5-6.2l17.5-6.2l17.5-6.2l17.5-6.2l5.2-1.8l-1.2-5.4l-0.9-3.7l0,0l-0.3-1.5l-1.1-4.9
		l3.4-0.8l1.1,4.9l0.3,1.5l0,0l0.9,3.7l1.9,8.4l-8.2,2.9l-17.5,6.2l-17.5,6.2l-17.5,6.2l-17.5,6.2l-17.5,6.2l-17.5,6.2l-17.5,6.2
		l-17.6,6.2l-3,1.1l-10.7,11.5l0,0l-1,1.1l-3.3,3.6L-247.5,228z M-77.3,146.4l0.1,0.5l0,0l1.1,4.7l2.9,12.5l-12.1,4.2l-17.5,6.2
		l-17.5,6.2l-17.5,6.2l-17.5,6.2l-17.5,6.2l-17.5,6.2l-17.5,6.2l-17.5,6.1l-2,0.7l-10.6,11.4l0,0l-0.3,0.4l-3.3,3.6l-2.6-2.4
		l3.3-3.6l1-1.1l0,0l10.5-11.3l2.8-1l17.5-6.2l17.5-6.2l17.5-6.2l17.5-6.2l17.5-6.2l17.5-6.2l17.5-6.2l17.5-6.2l9.2-3.2l-2.2-9.5
		l-0.9-3.7l-0.1,0l-0.3-1.5l-1.1-4.9l3.4-0.8L-77.3,146.4z"/>
	<polygon class="st0" points="-210.5,114.8 -191.9,112.8 -173.4,110.8 -154.8,108.8 -136.3,106.8 -117.7,104.8 -99.2,102.8 
		-78.1,100.5 -73.4,121.1 -72.5,124.8 -72.5,124.8 -71.5,129.3 -68.7,141.2 -67.7,145.7 -67.7,145.7 -66.8,149.4 -62.1,170.1 
		-82.1,177.2 -99.6,183.3 -117.1,189.5 -134.6,195.6 -152.1,201.8 -169.6,207.9 -187.1,214.1 -204.6,220.2 -222,226.3 -230.3,235.3 
		-230.3,235.3 -233.4,238.7 -241.8,247.7 -244.9,251 -245,251 -253.3,259.9 -257.6,276.4 -262.1,293.7 -266.7,311.1 -271.2,328.4 
		-275.8,345.8 -277,350.4 -273.6,353.8 -270.9,356.5 -270.9,356.4 -267.6,359.7 -258.9,368.4 -255.7,371.6 -255.7,371.7 -253,374.3 
		-249.7,377.6 -245.3,376.4 -227.3,371.4 -209.4,366.3 -191.5,361.3 -173.6,356.3 -155.7,351.3 -137.8,346.3 -137.1,346.1 
		-137.6,343.2 -248.9,374.3 -273.7,349.5 -250.6,261.4 -220.3,228.9 -58.6,172 -75.9,97.2 -215.7,112.4 -215.4,115.4 	"/>
</g>
<g>
	<polygon class="st1" points="59.4,213.1 62,209.1 62,209.1 62.3,208.7 65,204.5 65.7,203.4 65.9,203.2 70.3,206.1 79.9,207.4 
		83.4,202 84.2,200.9 85,199.6 82.1,197.7 81.2,199 80.5,200.1 78.6,203.1 78.2,203.7 71.6,202.7 67.8,200.2 68.9,198.5 70.3,196.3 
		72.5,193 72.6,192.8 72.6,192.8 78.1,184.3 80,181.3 76.5,181.3 66.5,181.1 50.4,180.8 34.3,180.5 15.7,180.2 15.3,161.5 
		15.2,156.8 15.2,156.8 15.2,156.3 15.1,151.3 15.1,150 15.1,149.7 20.4,149.6 29.1,145.3 29,138.9 29,137.5 29,136 25.5,136.1 
		25.5,137.6 25.5,139 25.6,142.5 25.6,143.2 19.5,146.1 15,146.2 15,144.1 15,141.5 14.9,137.6 14.9,137.3 14.9,137.3 14.8,132.5 
		14.5,114.8 31.8,111.3 49.9,107.7 68,104.1 72,103.3 89.2,107 89.2,107 89.7,107.1 94.6,108.1 95.8,108.4 96.1,108.4 95,113.6 
		97.2,123.1 103.5,124.4 104.8,124.7 106.3,125 107,121.6 105.6,121.3 104.2,121 100.8,120.3 100.1,120.1 98.6,113.6 99.6,109.2 
		101.6,109.6 104.2,110.1 108,111 108.3,111 108.3,111 125.5,114.7 128.7,117 143.5,127.9 158.2,138.7 161.6,141.2 164.4,138.1 
		167.6,134.5 167.6,134.5 168,134.2 171.3,130.4 172.2,129.5 172.4,129.3 176.3,132.8 185.6,135.6 189.9,130.9 190.8,129.8 
		191.8,128.7 189.2,126.4 188.2,127.5 187.3,128.5 184.9,131.1 184.5,131.7 178.1,129.7 174.7,126.7 176.1,125.1 177.9,123.2 
		180.5,120.3 180.7,120 180.7,120 183.9,116.5 186.8,113.3 183.9,110 172.5,97 161.1,84 150.2,71.7 157.7,57 159.9,52.7 159.9,52.7 
		160.1,52.3 162.4,47.8 163,46.7 163.1,46.4 167.8,48.8 177.5,49.2 180.4,43.5 181.1,42.2 181.8,40.9 178.6,39.3 178,40.6 
		177.3,41.9 175.7,45 175.4,45.6 168.7,45.3 164.7,43.3 165.6,41.4 166.8,39.1 168.6,35.6 168.7,35.4 168.7,35.4 170.9,31.1 
		178.4,16.5 194.7,17.8 212.3,19.3 231.4,20.9 234.1,21.1 247.9,33.6 248,33.6 248.3,33.9 252,37.3 253,38.1 253.2,38.3 249.7,42.3 
		246.8,51.6 251.6,55.8 252.6,56.8 253.8,57.8 256.1,55.2 255,54.2 253.9,53.2 251.3,50.9 250.8,50.4 252.8,44 255.8,40.7 
		257.4,42.1 259.3,43.8 262.2,46.4 262.4,46.6 262.4,46.6 276.2,59.1 277.6,66.1 281.6,86.2 285.7,106.4 289.7,126.6 290.4,130.3 
		294.1,129.7 298.9,128.9 298.9,128.9 299.4,128.9 304.3,128.1 305.6,127.9 305.9,127.8 306.7,133.1 312.1,141.1 318.5,140.1 
		319.8,139.9 321.3,139.7 320.8,136.2 319.3,136.4 317.9,136.7 314.5,137.2 313.8,137.3 310,131.7 309.3,127.3 311.4,127 314,126.5 
		317.8,125.9 318.1,125.9 318.1,125.9 322.9,125.1 326.7,124.5 326.3,120.7 324.4,103.4 323.3,92.9 319.9,93.3 321,103.8 
		322.8,121.1 322.9,121.6 322.3,121.7 318.6,122.3 318.6,122.3 317.2,122.5 315.2,122.8 300.2,125.2 297.3,125.6 297.3,125.7 
		293.6,126.3 293.2,126.3 293.1,125.9 289.1,105.7 285.1,85.6 281,65.4 279.4,57.3 265.5,44.7 265.5,44.7 264.5,43.8 263,42.4 
		251.7,32.3 249.6,30.3 249.5,30.3 235.6,17.8 232.3,17.5 212.6,15.9 195,14.4 176.3,12.8 167.8,29.5 166.1,32.9 166.1,32.9 
		165.4,34.1 164.5,35.9 157.6,49.5 156.3,52 156.3,52.1 154.6,55.4 146.1,72.2 158.5,86.3 169.9,99.3 181.3,112.3 182.1,113.2 
		181.3,114.2 178.8,117 178.7,117 177.8,118 176.5,119.5 166.3,130.8 164.4,132.9 164.4,133 161.9,135.8 161.1,136.6 160.3,135.9 
		145.5,125.1 130.7,114.2 127,111.5 110,107.8 110,107.8 108.6,107.5 106.6,107.1 91.8,103.9 88.9,103.3 88.9,103.4 72,99.8 
		67.3,100.7 49.2,104.3 31.2,107.9 11,112 11.3,132.5 11.4,136.3 11.4,136.3 11.4,137.7 11.4,139.7 11.7,154.9 11.8,157.8 
		11.8,157.8 11.9,161.6 12.2,183.6 34.3,184 50.4,184.3 66.5,184.6 73.7,184.7 70.3,190 70.2,190 69.5,191.2 68.4,192.9 60.1,205.6 
		58.5,208.1 58.5,208.1 56.5,211.2 54.4,214.5 52.9,214.2 53.7,217.9 56.1,218.3 	"/>
	<polygon class="st1" points="75.3,223.5 77.4,220.3 77.4,220.3 79.9,216.5 86.6,206.1 89.1,202.3 89.1,202.3 102.1,181.8 
		114.2,162.9 91.8,162.6 66.8,162.1 50.8,161.9 34.7,161.6 34.3,161.6 34.3,161.2 34.2,157.4 34.2,157.4 34.2,152.8 34,140.5 
		33.9,135.9 33.8,135.9 33.8,132.1 33.7,130.3 35.6,129.9 53.6,126.3 71.7,122.7 71.9,122.7 84.3,125.3 84.3,125.3 88.8,126.3 
		100.8,128.9 105.3,129.8 105.3,129.8 117.6,132.4 132.3,143.2 147,154 164.2,166.7 178.5,150.8 181.1,148 181.1,148 184.2,144.6 
		192.4,135.4 195.5,132 195.4,132 198,129.2 212.2,113.4 198.2,97.5 186.8,84.5 175.4,71.5 173,68.8 174.6,65.6 176.3,62.2 
		176.4,62.3 178.4,58.2 184,47.2 186.1,43.1 186.1,43.1 187.8,39.7 189.5,36.4 193.1,36.7 210.7,38.2 226.2,39.5 234.5,47 234.5,47 
		237.9,50.1 247.1,58.3 250.5,61.4 250.5,61.4 258.9,68.9 259,69.8 263.1,89.9 267.1,110.1 271.1,130.3 275.4,151.9 297.1,148.4 
		300.9,147.8 300.9,147.9 305.4,147.1 317.5,145.2 322.1,144.5 322.1,144.5 325.8,143.9 347.4,140.5 345.1,118.7 343.3,101.4 
		342.1,90.6 338.7,91.1 339.8,101.8 341.7,119.1 343.6,137.5 325.3,140.4 320.6,141.2 320.6,141.2 320.1,141.3 320.1,141.3 
		318.7,141.5 312,142.6 309.1,138 306,138.5 302.4,139.1 301,139.3 299.5,139.6 300.1,143 301.6,142.8 303,142.6 307.4,141.9 
		308.2,143.2 303.2,144 301.8,144.2 301.3,144.2 301.3,144.2 296.6,145 278.1,147.9 274.5,129.6 270.5,109.4 266.5,89.3 262.4,69.1 
		262.1,67.1 252.1,58.1 252.1,58.2 251.7,57.8 251.7,57.8 250.7,56.9 245.6,52.3 247.3,47.3 244.9,45.1 242.3,42.7 241.2,41.8 
		240.1,40.8 237.8,43.4 238.9,44.4 239.9,45.3 243.3,48.3 242.8,49.8 239,46.4 238,45.4 237.6,45.1 237.6,45.1 227.6,36.1 
		227.1,36.1 211,34.7 193.4,33.3 187.4,32.8 184.7,38.1 182.5,42.4 182.5,42.4 182.3,42.8 181.7,44.1 178.6,50.2 173.3,49.8 
		171.8,52.6 170.2,55.9 169.6,57.1 168.9,58.4 172,60 172.7,58.7 173.3,57.4 175.4,53.4 176.9,53.5 174.6,58.1 173.9,59.3 
		173.7,59.8 173.7,59.8 171.5,64 168.8,69.3 172.7,73.8 184.1,86.8 195.6,99.8 207.5,113.4 195.4,126.8 192.2,130.4 192.2,130.4 
		191.9,130.8 191.9,130.8 190.9,131.8 186.4,136.9 181.3,135.2 179.2,137.5 176.8,140.2 175.8,141.2 174.8,142.4 177.4,144.7 
		178.4,143.6 179.4,142.6 182.4,139.2 183.8,139.7 180.4,143.5 179.5,144.5 179.1,144.9 179.1,144.9 175.9,148.4 163.7,162 
		149.1,151.2 134.3,140.4 119.6,129.6 119.1,129.1 105,126.2 105,126.2 104.5,126.1 104.5,126.1 103.2,125.8 96.5,124.4 95.5,119.1 
		92.4,118.5 88.8,117.7 87.5,117.4 86,117.1 85.3,120.5 86.7,120.9 88.1,121.1 92.5,122.1 92.8,123.6 87.8,122.5 86.5,122.2 
		86,122.1 86,122.1 71.9,119.1 71,119.3 53,122.9 34.9,126.5 30.2,127.4 30.3,132.2 30.4,137 30.4,137 30.4,137.5 30.4,137.5 
		30.4,138.9 30.5,145.7 25.7,147.9 25.7,151.1 25.8,154.7 25.8,156.1 25.9,157.6 29.3,157.5 29.3,156 29.3,154.6 29.2,150.1 
		30.6,149.5 30.7,154.6 30.7,156 30.7,156.5 30.7,156.5 30.8,161.3 30.9,165 34.6,165.1 50.7,165.3 66.8,165.6 89,166 108,166.3 
		97.7,182.3 85.6,201.2 85.6,201.2 85.4,201.6 85.4,201.6 84.6,202.8 80.9,208.5 75.6,207.6 73.9,210.3 71.9,213.3 71.2,214.5 
		70.3,215.7 73.3,217.6 74.1,216.4 74.9,215.2 77.3,211.4 78.8,211.7 76,216 75.3,217.1 75,217.6 75,217.6 72.4,221.6 63.5,235.2 
		57.5,234.2 58.4,237.9 65.2,239.1 	"/>
	<polygon class="st0" points="236.8,14.9 174.6,9.7 142.5,72.6 178.2,113.2 160.7,132.6 128.2,108.7 72,96.7 8,109.5 9.3,186.6 
		68.3,187.6 53,211.2 52.1,211.1 52.9,214.2 54.4,214.5 56.5,211.2 58.5,208.1 58.5,208.1 60.1,205.6 68.4,192.9 69.5,191.2 
		70.2,190 70.3,190 73.7,184.7 66.5,184.6 50.4,184.3 34.3,184 12.2,183.6 11.9,161.6 11.8,157.8 11.8,157.8 11.7,154.9 11.4,139.7 
		11.4,137.7 11.4,136.3 11.4,136.3 11.3,132.5 11,112 31.2,107.9 49.2,104.3 67.3,100.7 72,99.8 88.9,103.4 88.9,103.3 91.8,103.9 
		106.6,107.1 108.6,107.5 110,107.8 110,107.8 127,111.5 130.7,114.2 145.5,125.1 160.3,135.9 161.1,136.6 161.9,135.8 164.4,133 
		164.4,132.9 166.3,130.8 176.5,119.5 177.8,118 178.7,117 178.8,117 181.3,114.2 182.1,113.2 181.3,112.3 169.9,99.3 158.5,86.3 
		146.1,72.2 154.6,55.4 156.3,52.1 156.3,52 157.6,49.5 164.5,35.9 165.4,34.1 166.1,32.9 166.1,32.9 167.8,29.5 176.3,12.8 
		195,14.4 212.6,15.9 232.3,17.5 235.6,17.8 249.5,30.3 249.6,30.3 251.7,32.3 263,42.4 264.5,43.8 265.5,44.7 265.5,44.7 
		279.4,57.3 281,65.4 285.1,85.6 289.1,105.7 293.1,125.9 293.2,126.3 293.6,126.3 297.3,125.7 297.3,125.6 300.2,125.2 
		315.2,122.8 317.2,122.5 318.6,122.3 318.6,122.3 322.3,121.7 322.9,121.6 322.8,121.1 321,103.8 319.9,93.3 316.9,93.7 
		319.6,119.1 295.5,123 282.1,55.7 	"/>
	<path class="st0" d="M72.4,221.6l2.6-4l0,0l0.3-0.4L76,216l2.8-4.3l-1.5-0.3l-2.5,3.8l-0.8,1.2l-0.8,1.3l-2.9-1.9l0.8-1.3l0.8-1.2
		l2-3l1.7-2.7l5.3,0.9l3.7-5.7l0.8-1.2v0l0.3-0.5l0,0l12.1-18.9l10.2-16L89,166l-22.2-0.4l-16.1-0.3l-16.1-0.3l-3.7-0.1l-0.1-3.7
		l-0.1-4.8l0,0l0-0.5l0-1.4l-0.1-5.1l-1.4,0.6l0.1,4.5l0,1.4l0,1.5l-3.5,0.1l0-1.5l0-1.4l-0.1-3.6l-0.1-3.2l4.9-2.2l-0.1-6.8l0-1.4
		v0l0-0.5l0,0l-0.1-4.8l-0.1-4.8l4.7-0.9l18.1-3.6l18.1-3.6l0.8-0.2l14.1,3l0,0l0.5,0.1l1.4,0.3l5,1.1l-0.3-1.5l-4.4-0.9l-1.4-0.3
		l-1.5-0.3l0.7-3.4l1.5,0.3l1.4,0.3l3.5,0.7l3.1,0.7l1,5.2l6.7,1.4l1.4,0.3v0l0.5,0.1l0,0l14,3l0.6,0.4l14.7,10.8l14.7,10.8
		l14.7,10.8l12.2-13.5l3.2-3.6l0,0l0.3-0.4l0.9-1l3.4-3.8l-1.4-0.5l-3,3.3l-0.9,1l-1,1.1l-2.6-2.3l1-1.1l0.9-1l2.4-2.7l2.1-2.4
		l5,1.7l4.6-5.1l0.9-1l0,0l0.3-0.4l0,0l3.2-3.6l12.1-13.5l-11.9-13.6l-11.4-13l-11.4-13l-3.9-4.5l2.7-5.3l2.2-4.3l0,0l0.2-0.4
		l0.6-1.2l2.3-4.5l-1.5-0.1l-2,4l-0.6,1.2L172,60l-3.1-1.6l0.7-1.3l0.6-1.2l1.6-3.2l1.5-2.9l5.3,0.4l3.1-6.1l0.6-1.2l0.2-0.4l0,0
		l2.2-4.3l2.7-5.4l6,0.5l17.6,1.5l16.1,1.3l0.5,0l10,9l0,0l0.4,0.3l1,0.9l3.8,3.4l0.5-1.4l-3.3-3l-1-0.9l-1.1-1l2.3-2.6l1.1,1l1,0.9
		l2.7,2.4l2.4,2.1l-1.7,5l5.1,4.6l1,0.9v0l0.4,0.3l0,0l10,9l0.4,2l4,20.2l4,20.2l4,20.2l3.6,18.3l18.4-2.9l4.7-0.7l0,0l0.5-0.1
		l1.4-0.2l5-0.8l-0.8-1.3l-4.4,0.7l-1.4,0.2l-1.5,0.2l-0.5-3.5l1.5-0.2l1.4-0.2l3.6-0.6l3.2-0.5l2.8,4.5l6.7-1.1l1.4-0.2v0l0.5-0.1
		l0,0l4.7-0.7l18.3-2.9l-2-18.5l-1.8-17.3l-1.1-10.7l-5.9,0.7l1.1,10.6l1.8,17.3l1.4,12.8l-12.7,2l-4.7,0.7l0,0l-0.5,0.1l-4.8,0.8
		l-0.5-3.5l4.8-0.8l1.5-0.2l0,0.1l3.7-0.6l9.5-1.5l-1-9.6l-1.8-17.3l-1.1-10.6l-1.2,0.1l1.1,10.6l1.8,17.3l0.9,8.5l-8.4,1.3
		l-3.7,0.6l0,0l-1.5,0.2l-4.8,0.8l-0.5-3.5l4.8-0.8l1.5-0.2l0,0l3.7-0.6l5.1-0.8l-0.5-5.2l-1.8-17.3l-1.1-10.5l-1.4,0.2l1.1,10.5
		l1.8,17.3l0.4,3.8l-3.8,0.6l-4.7,0.7l0,0l-0.3,0l-3.9,0.6l-2.6,0.4l-2.1,0.3l0.7,4.4l3.7,5.6l0.7-0.1l3.5-0.5l1.4-0.2l1.5-0.2
		l0.5,3.5l-1.5,0.2l-1.4,0.2l-6.3,1l-5.4-8.1l-0.8-5.2l-0.3,0l-1.3,0.2l-4.9,0.8l-0.5,0.1l0,0l-4.7,0.7l-3.7,0.6l-0.7-3.7l-4-20.2
		l-4-20.2l-4-20.2l-1.4-7l-13.8-12.4l0,0l-0.2-0.2l-2.9-2.6l-1.9-1.7l-1.6-1.4l-3,3.3l-2,6.4l0.5,0.5l2.6,2.3l1,0.9l1.1,1l-2.3,2.6
		l-1.1-1l-1-0.9l-4.8-4.3l2.8-9.3l3.5-3.9l-0.2-0.2l-1-0.9l-3.7-3.3l-0.4-0.3l0,0l-13.8-12.5l-2.8-0.2l-19-1.6l-17.6-1.5l-16.4-1.4
		l-7.5,14.6l-2.2,4.3l0,0l-0.1,0.3l-1.8,3.5l-1.2,2.3l-1,1.9l4,2l6.7,0.3l0.3-0.6l1.6-3.1l0.6-1.2l0.7-1.3l3.1,1.6l-0.7,1.3
		l-0.6,1.2l-2.9,5.7l-9.7-0.3l-4.7-2.4l-0.1,0.3l-0.6,1.2l-2.3,4.5l-0.2,0.4l0,0l-2.2,4.3l-7.5,14.7L161.1,84l11.4,13l11.4,13
		l2.9,3.3l-2.9,3.2l-3.2,3.6l0,0l-0.2,0.2l-2.6,2.9l-1.7,1.9l-1.4,1.6l3.3,3l6.4,2l0.5-0.5l2.3-2.6l0.9-1l1-1.1l2.6,2.3l-1,1.1
		l-0.9,1l-4.3,4.8l-9.3-2.8l-3.9-3.5l-0.2,0.2l-0.9,1l-3.3,3.7l-0.3,0.4l0,0l-3.2,3.6l-2.8,3.1l-3.4-2.5l-14.7-10.8L128.7,117
		l-3.1-2.3l-17.3-3.7l0,0L108,111l-3.8-0.8l-2.5-0.5l-2.1-0.4l-0.9,4.4l1.5,6.5l0.7,0.1l3.4,0.7l1.4,0.3l1.5,0.3l-0.7,3.4l-1.5-0.3
		l-1.4-0.3l-6.3-1.3l-2.2-9.5l1.1-5.2l-0.3-0.1l-1.3-0.3l-4.9-1l-0.5-0.1l0,0L72,103.3l-4,0.8l-18.1,3.6l-18.1,3.6l-17.3,3.5
		l0.3,17.7l0.1,4.8l0,0l0,0.3l0.1,3.9l0,2.6l0,2.1l4.5-0.1l6.1-2.9l0-0.7l-0.1-3.5l0-1.4l0-1.5L29,136l0,1.5l0,1.4l0.1,6.4l-8.7,4.3
		l-5.3,0.1l0,0.3l0,1.3l0.1,5l0,0.5l0,0l0.1,4.8l0.3,18.7l18.7,0.3l16.1,0.3l16.1,0.3l10,0.2l3.5,0.1l-1.9,2.9l-5.5,8.6l0,0
		l-0.1,0.2l-2.1,3.3l-1.4,2.2l-1.1,1.8l3.8,2.5l6.6,1l0.4-0.6l1.9-2.9l0.8-1.2l0.8-1.3l2.9,1.9l-0.8,1.3l-0.8,1.2l-3.5,5.4l-9.6-1.4
		l-4.4-2.9l-0.2,0.3l-0.7,1.1l-2.7,4.2l-0.3,0.4l0,0l-2.6,4l-3.3,5.1l-2.3-0.4l0.3,1.5l2.7,0.5l3.8-5.9l2.1-3.2l0,0l0.8-1.3l2.7-4.2
		l2.9,1.9l-2.7,4.2l-0.8,1.3l0,0l-2.1,3.2l-5.1,7.8l-3.5-0.6l0.3,1.2l3.8,0.6l5.5-8.5l2.1-3.2l0,0l0.8-1.3l2.7-4.2l2.9,1.9l-2.7,4.2
		l-0.3,0.4l0,0l-2.6,4l-6.7,10.4l-4.6-0.8l1.5,6.3l6,1L72.4,221.6z M257.5,44.1l3.6,3.3l1.1,1l0,0L275,59.8l1.3,6.5l4,20.2l4,20.2
		l4,20.2l1,5l5.1-0.8l3.7-0.6l0,0l1.5-0.2l4.9-0.8l0.5,3.5l-4.9,0.8l-1.5,0.2l0,0l-3.7,0.6l-8.4,1.3l-1.7-8.3l-4-20.2l-4-20.2
		l-4-20.2l-1.1-5.4l-11.9-10.7l0,0l-1.1-1l-3.6-3.3L257.5,44.1z M256.1,53.7L256.1,53.7l-0.4-0.4l-3.6-3.3l2.3-2.6l3.6,3.3l1.1,1
		l0,0l11.6,10.4l1,5l4,20.2l4,20.2l4,20.2l1.9,9.4l9.5-1.5l3.7-0.6l0-0.1l1.5-0.2l4.9-0.8l0.5,3.5l-4.9,0.8l-0.5,0.1l0,0l-4.7,0.7
		l-12.8,2l-2.5-12.7l-4-20.2l-4-20.2l-4-20.2l-0.8-3.9L256.1,53.7z M167.5,40.8l2.2-4.4l0.7-1.3l0,0l1.7-3.4l7-13.8l15.4,1.3
		l17.6,1.5l18.8,1.6l2.6,0.2L246.3,34l0,0l1.1,1l3.7,3.3l-2.3,2.6l-3.7-3.3l-1.1-1l0,0l-11.9-10.7l-2.1-0.2l-18.1-1.5l-17.6-1.5
		l-13.1-1.1l-6,11.7l-1.7,3.4l0,0l-0.7,1.3l-2.2,4.4L167.5,40.8z M177.2,39.7L177.2,39.7l-0.3,0.4l-2.2,4.4l-3.1-1.6l2.2-4.4
		l0.7-1.3l0,0l1.7-3.4l5.6-11l12.3,1l17.6,1.5l17.9,1.5l1.9,0.2l11.6,10.4l0,0l1.1,1l3.7,3.3l-2.3,2.6L242,41l-0.4-0.3l0,0
		l-11.4-10.3l-1.4-0.1l-17.2-1.4l-17.6-1.5l-10-0.8l-4.6,8.9L177.2,39.7z M178.1,125l3.3-3.6l1-1.1l0,0l2.5-2.8l3.7-4.1l-3.7-4.2
		l-11.4-13l-11.4-13l-10.2-11.7l7-13.8l1.7-3.4l0,0l0.7-1.3l2.3-4.5l3.1,1.6l-2.3,4.5l-0.7,1.3l0,0l-1.7,3.4l-6,11.7l8.7,9.9
		l11.4,13l11.4,13l5.7,6.5l-5.8,6.4l-2.5,2.8l0,0l-1,1.1l-3.3,3.6L178.1,125z M187.8,126.4L187.8,126.4l-0.4,0.4l-3.3,3.6l-2.6-2.3
		l3.3-3.6l1-1.1l0,0l2.5-2.8l6.5-7.2l-6.4-7.3l-11.4-13l-11.4-13l-8.2-9.3l5.6-11l1.7-3.4l0,0l0.7-1.3l2.3-4.5l3.1,1.6l-2.3,4.5
		l-0.2,0.4l0,0l-2.2,4.3l-4.5,8.9l6.6,7.5l11.4,13l11.4,13l8.4,9.6l-8.6,9.5L187.8,126.4z M102,114.7l0.7-3.4l4.8,1l1.5,0.3l0,0
		l16,3.4l2.9,2.1l14.8,10.9l14.7,10.8l4.4,3.2l3.7-4.1l2.5-2.8l0,0l1-1.1l3.3-3.7l2.6,2.3l-3.3,3.7l-1,1.1l0,0l-2.5,2.8l-5.8,6.4
		l-7-5.1l-14.7-10.8L125.8,121l-2.3-1.7l-15.3-3.2l0,0l-1.5-0.3L102,114.7z M123.1,124.7l-1.6-1.1l-15.3-3.2l0,0l-0.5-0.1l-4.8-1
		l0.7-3.4l4.8,1l1.5,0.3l0,0.1l15,3.2l2.1,1.6l14.8,10.8l14.7,10.8l7.8,5.7l6.5-7.2l2.5-2.8l0,0l1-1.1l3.3-3.7l2.6,2.3l-3.3,3.7
		l-0.3,0.4l0,0l-3.2,3.6l-8.6,9.5l-10.3-7.6l-14.7-10.8L123.1,124.7z M16.4,142.6l-0.1-4.9l0-1.5l0,0l-0.1-3.8l-0.3-16.5l16.2-3.2
		l18.1-3.6l18.1-3.6l3.7-0.7l16,3.4l0,0l1.5,0.3l4.9,1l-0.7,3.4l-4.9-1l-1.5-0.3l0,0l-15.2-3.2l-3,0.6l-18.1,3.6l-18.1,3.6
		l-13.3,2.7l0.2,13.6l0.1,3.8l0,0l0,1.5l0.1,4.9L16.4,142.6z M24.4,137.1L24.4,137.1l0,0.5l0.1,4.9l-3.5,0.1l-0.1-4.9l0-1.5l0.1,0
		l-0.1-3.8l-0.2-12.6l12.4-2.5l18.1-3.6l18.1-3.6l2.7-0.5l15,3.2l0-0.1l1.5,0.3l4.9,1l-0.7,3.4l-4.9-1l-0.5-0.1l0,0L71.9,113l-2,0.4
		l-18.1,3.6l-18.1,3.6l-9.5,1.9l0.2,9.7L24.4,137.1z M70.9,198.1l2.7-4.1l0.8-1.3l0,0l5.5-8.6l2.6-4.1l-4.9-0.1l-11.1-0.2l-16.1-0.3
		l-16.1-0.3L17,178.8l-0.3-17.3l-0.1-3.8l0,0l0-1.5l-0.1-5l3.5-0.1l0.1,5l0,1.5l0,0l0.1,3.8l0.2,14l14,0.2l16.1,0.3l16.1,0.3
		l13.8,0.2l8.4,0.1l-4.5,7l-7,11l0,0l-0.8,1.3l-2.7,4.1L70.9,198.1z M80.6,198L80.6,198l-0.3,0.4l-2.7,4.1l-2.9-1.9l2.7-4.1l0.8-1.3
		l0,0l7.5-11.7l5.1-8l-9.5-0.2l-14.7-0.3l-16.1-0.3l-16.1-0.3l-12.9-0.2l-0.2-12.9l-0.1-3.8l-0.1,0l0-1.5l-0.1-5l3.5-0.1l0.1,5
		l0,0.5l0,0l0.1,4.8l0.2,9.5l9.5,0.2l16.1,0.3l16.1,0.3l17.5,0.3l13,0.2l-7,10.9L80.6,198z"/>
	<polygon class="st0" points="343.3,101.4 345.1,118.7 347.4,140.5 325.8,143.9 322.1,144.5 322.1,144.5 317.5,145.2 305.4,147.1 
		300.9,147.9 300.9,147.8 297.1,148.4 275.4,151.9 271.1,130.3 267.1,110.1 263.1,89.9 259,69.8 258.9,68.9 250.5,61.4 250.5,61.4 
		247.1,58.3 237.9,50.1 234.5,47 234.5,47 226.2,39.5 210.7,38.2 193.1,36.7 189.5,36.4 187.8,39.7 186.1,43.1 186.1,43.1 184,47.2 
		178.4,58.2 176.4,62.3 176.3,62.2 174.6,65.6 173,68.8 175.4,71.5 186.8,84.5 198.2,97.5 212.2,113.4 198,129.2 195.4,132 
		195.5,132 192.4,135.4 184.2,144.6 181.1,148 181.1,148 178.5,150.8 164.2,166.7 147,154 132.3,143.2 117.6,132.4 105.3,129.8 
		105.3,129.8 100.8,128.9 88.8,126.3 84.3,125.3 84.3,125.3 71.9,122.7 71.7,122.7 53.6,126.3 35.6,129.9 33.7,130.3 33.8,132.1 
		33.8,135.9 33.9,135.9 34,140.5 34.2,152.8 34.2,157.4 34.2,157.4 34.3,161.2 34.3,161.6 34.7,161.6 50.8,161.9 66.8,162.1 
		91.8,162.6 114.2,162.9 102.1,181.8 89.1,202.3 89.1,202.3 86.6,206.1 79.9,216.5 77.4,220.3 77.4,220.3 75.3,223.5 65.2,239.1 
		58.4,237.9 59.1,241 66.6,242.3 91.1,204.6 119.6,160.1 37.2,158.7 36.7,132.7 71.8,125.7 116.4,135.2 164.6,170.6 216.1,113.4 
		176.5,68.4 191.2,39.5 224.9,42.4 256.2,70.5 273,155.2 350.7,142.9 345.1,90.3 342.1,90.6 	"/>
</g>
<g>
	<polygon class="st1" points="17.4,458.8 25.3,472.5 27.7,476.6 27.7,476.6 28,477.1 28,477.1 28.7,478.3 32.1,484.2 28.9,488.4 
		30.5,491.2 32.3,494.3 33,495.5 33.7,496.8 36.7,495.1 36,493.8 35.3,492.6 33,488.7 34,487.4 36.5,491.9 37.2,493.1 37.5,493.5 
		37.4,493.5 39.8,497.7 47.7,511.3 39.5,524.8 28.6,542.7 27.2,545 27.5,558.8 27.5,558.8 27.5,559.3 27.5,559.3 27.5,560.7 
		27.6,567.5 22.8,569.7 22.8,572.9 22.9,576.5 22.9,577.9 22.9,579.4 26.4,579.3 26.4,577.8 26.4,576.4 26.3,571.9 27.7,571.3 
		27.8,576.4 27.8,577.8 27.8,578.3 27.8,578.3 27.9,583.1 27.9,586.9 31.8,587.1 47.8,587.6 63.7,588.1 67.2,588.3 67.3,584.8 
		67.6,567 67.9,549.1 68.2,531.1 68.6,513.2 68.9,495.4 86.5,492.9 91.3,492.2 91.3,492.2 91.8,492.2 91.8,492.2 93.2,492 99.9,491 
		102.6,495.6 105.8,495.1 109.4,494.6 110.8,494.4 112.3,494.2 111.8,490.8 110.3,491 108.9,491.2 104.4,491.8 103.6,490.5 
		108.7,489.8 110.1,489.6 110.6,489.5 110.6,489.5 115.3,488.9 133.2,486.4 137.9,503.8 142.3,520.2 146.8,536.7 151.2,553.2 
		155.7,569.6 159.2,582.6 160.1,586 162.9,583.9 175.2,574.9 190.4,563.8 194.9,560.5 193.2,555.1 191.7,550.6 191.7,550.6 
		191.5,550.1 191.5,550.1 191.1,548.8 189,542.3 193,538.8 192,535.8 190.9,532.3 190.5,531 190,529.6 186.7,530.7 187.1,532.1 
		187.6,533.4 189,537.7 187.8,538.7 186.2,533.8 185.8,532.5 185.6,532 185.7,532 181.4,518.8 178.6,516.3 162.4,501.8 146.3,487.2 
		132.7,475 143.7,460.4 146.6,456.5 146.6,456.5 146.9,456.1 146.9,456.1 147.7,455 151.8,449.6 157,450.9 158.9,448.3 161.1,445.4 
		161.9,444.3 162.8,443.1 160,441 159.1,442.2 158.3,443.3 155.6,446.9 154.1,446.6 157.1,442.5 158,441.4 158.3,441 158.3,441 
		161.2,437.2 172.3,422.5 187.7,432.4 204.8,443.4 221.9,454.4 239,465.4 240.6,466.5 254.2,466 254.2,466 254.7,466 254.7,466 
		256.1,465.9 262.9,465.7 265.2,470.5 268.4,470.4 272,470.3 273.4,470.2 274.9,470.2 274.7,466.7 273.2,466.7 271.8,466.8 
		267.3,466.9 266.7,465.5 271.8,465.4 273.2,465.3 273.7,465.3 273.7,465.3 287.3,464.8 287.7,464.5 300.9,454.9 315.2,444.6 
		320,441.1 318.6,435.3 317.4,430.6 317.4,430.6 317.3,430.1 317.3,430.1 316.9,428.8 315.3,422.2 319.5,419 318.8,415.9 
		317.9,412.4 317.5,411 317.2,409.5 313.8,410.4 314.2,411.9 314.5,413.2 315.6,417.6 314.4,418.5 313.1,413.5 312.8,412.2 
		312.7,411.7 312.7,411.7 311.5,407.1 310.1,401.2 304.1,400.4 286.9,398 280.4,397.1 279.9,400.5 286.4,401.5 303.7,403.9 
		307.3,404.4 308.2,407.9 309.1,411.6 309,411.6 310.1,416 313.1,428 314.2,432.4 314.3,432.4 315.2,436.1 316.1,439.6 313.1,441.8 
		298.9,452.1 286.1,461.4 274.6,461.8 274.6,461.8 270,461.9 257.7,462.3 253.1,462.5 253.1,462.5 241.6,462.9 240.9,462.5 
		223.8,451.5 206.7,440.5 189.6,429.5 171.4,417.8 158.4,435.1 156.1,438.1 156.1,438.1 153.3,441.7 145.9,451.6 143.2,455.2 
		143.2,455.2 140.9,458.3 128,475.4 144,489.8 160.1,504.4 176.3,518.9 178.3,520.8 182,532.2 182,532.2 183.4,536.5 187.2,548.2 
		188.6,552.6 188.7,552.6 189.8,556.2 190.8,559.2 188.3,561 173.1,572.1 162.1,580.2 159,568.7 154.6,552.2 150.1,535.8 
		145.7,519.3 141.3,502.9 135.8,482.5 114.8,485.4 111.1,486 111.1,485.9 106.5,486.6 94.3,488.3 89.8,488.9 89.8,488.9 86.1,489.5 
		65.5,492.4 65.1,513.1 64.8,531.1 64.4,549 64.1,566.9 63.8,584.7 47.9,584.1 31.9,583.6 31.4,583.6 31.4,583 31.3,579.2 
		31.3,579.2 31.2,574.6 31,562.3 31,557.7 30.9,557.7 30.7,546 31.6,544.5 42.5,526.7 51.8,511.4 42.8,495.9 41,492.6 41,492.6 
		38.7,488.6 32.5,478 30.2,474 30.2,474 28.3,470.7 19.4,455.2 2.1,455.7 1.8,459.2 	"/>
	<polygon class="st1" points="289.1,382.7 306.3,385.1 322.6,387.4 326.5,403.3 327.7,408 327.7,408 327.8,408.4 329,413.3 
		329.4,414.6 329.4,414.8 324.3,416.1 316.7,422.2 318.3,428.4 318.6,429.8 319,431.3 322.4,430.4 322,429 321.7,427.6 320.8,424.2 
		320.7,423.5 325.9,419.3 330.3,418.2 330.8,420.3 331.4,422.8 332.4,426.6 332.4,426.9 332.4,426.9 333.6,431.5 337.6,447.5 
		324.3,457.1 310,467.5 294.8,478.6 292.6,480.1 274.2,480.8 274.2,480.8 273.7,480.8 268.7,481 267.4,481 267.1,481 267,475.7 
		262.6,467.1 256.2,467.3 254.8,467.4 253.3,467.4 253.4,470.9 254.9,470.9 256.3,470.8 259.8,470.7 260.5,470.7 263.5,476.7 
		263.6,481.2 261.5,481.2 258.9,481.3 255,481.5 254.7,481.5 254.7,481.5 236.3,482.1 230.7,478.4 213.6,467.4 196.5,456.4 
		179.4,445.4 176,443.3 173.5,446.5 170.7,450.3 170.7,450.3 170.4,450.7 167.4,454.7 166.6,455.7 166.4,456 162.2,452.8 
		152.7,450.8 148.8,455.9 148,457 147.1,458.2 149.9,460.3 150.8,459.1 151.6,458 153.7,455.2 154.1,454.6 160.7,456.1 164.3,458.8 
		163,460.4 161.5,462.5 159.1,465.6 158.9,465.9 158.9,465.9 156,469.7 153.6,473 156.6,475.7 172.8,490.3 189,504.8 194.8,510.1 
		200.4,527.3 200.4,527.3 200.5,527.7 202.1,532.5 202.5,533.7 202.6,534 197.5,535.6 190.4,542.3 192.4,548.3 192.8,549.7 
		193.3,551.1 196.6,550 196.2,548.6 195.7,547.3 194.7,543.9 194.4,543.3 199.4,538.7 203.7,537.3 204.3,539.3 205.1,541.8 
		206.3,545.5 206.4,545.8 206.4,545.8 207.9,550.3 213.1,566.3 199.5,576.3 184.3,587.4 166.3,600.6 151,611.8 146.1,593.5 
		140.7,573.6 136.3,557.2 131.8,540.7 127.4,524.3 123,507.8 121.8,503.6 117.5,504.2 112.7,504.9 112.7,504.9 112.2,504.9 
		107.3,505.6 106,505.8 105.7,505.9 105,500.6 99.7,492.5 93.3,493.4 92,493.6 90.5,493.8 91,497.2 92.4,497 93.8,496.8 97.3,496.3 
		98,496.2 101.6,501.9 102.2,506.3 100.2,506.6 97.6,507 93.7,507.5 93.4,507.6 93.4,507.6 88.7,508.2 84.1,508.9 84,513.5 
		83.7,531.4 83.4,549.3 83.1,567.3 82.7,585.3 82.4,604.3 63.4,603.6 47.3,603.1 31.3,602.5 12.7,601.9 12.4,583.3 12.3,578.5 
		12.3,578.5 12.3,578 12.2,573 12.2,571.7 12.2,571.4 17.5,571.4 26.2,567.1 26.1,560.7 26.1,559.3 26.1,557.8 22.6,557.9 
		22.6,559.4 22.6,560.8 22.7,564.3 22.7,565 16.6,567.9 12.1,567.9 12.1,565.8 12,563.2 12,559.3 12,559 12,559 11.7,540.8 
		15.4,534.7 26.3,516.8 29.7,511.1 26.4,505.4 24,501.3 24,501.3 23.8,500.8 21.3,496.5 20.6,495.4 20.5,495.1 25.1,492.5 
		30.6,484.5 27.4,479 26.7,477.8 26,476.5 23,478.2 23.7,479.5 24.4,480.7 26.2,483.7 26.5,484.4 22.6,489.8 18.7,492.1 17.7,490.3 
		16.4,488 14.4,484.6 14.3,484.4 14.3,484.4 11.9,480.2 8.6,474.5 2,474.7 0.6,474.7 0.3,478.2 2.1,478.2 6.6,478 8.9,482 
		10.8,485.2 10.7,485.3 11.4,486.5 12.4,488.2 20,501.4 21.5,503.9 21.5,503.9 23.4,507.1 25.7,511.1 23.3,515 12.4,532.9 
		8.2,539.9 8.5,558.1 8.5,558.1 8.5,559.5 8.5,561.5 8.8,576.7 8.8,579.6 8.9,579.6 8.9,583.4 9.3,605.3 31.2,606 47.2,606.6 
		63.4,607.1 85.8,607.9 86.2,585.4 86.5,567.3 86.9,549.4 87.2,531.5 87.5,513.6 87.5,511.9 89.2,511.7 92.9,511.2 92.9,511.2 
		94.3,511 96.3,510.7 111.3,508.6 114.2,508.2 114.2,508.2 118,507.6 119.3,507.5 119.6,508.7 124,525.2 128.5,541.6 132.9,558.1 
		137.4,574.5 143.1,596 149,617.6 167.1,604.4 186.4,590.2 201.6,579.1 217.2,567.7 211.2,549.3 210,545.7 210,545.7 209.6,544.3 
		209,542.4 204.3,528 203.4,525.2 203.4,525.2 197.8,508.1 191.3,502.2 175.1,487.7 159,473.1 158.3,472.5 158.8,471.8 161.1,468.8 
		161.1,468.8 162,467.7 163.2,466.1 172.3,453.9 174.1,451.6 174,451.6 176.3,448.6 176.8,447.9 177.5,448.4 194.6,459.4 
		211.7,470.4 228.8,481.4 235.4,485.6 253.9,485 253.9,485 255.3,484.9 257.3,484.9 272.5,484.3 275.4,484.2 275.4,484.2 
		293.8,483.6 296.3,481.7 312.1,470.3 326.3,459.9 341.5,448.9 337,430.7 336,427 336.1,427 335.7,425.6 335.2,423.7 331.6,409 
		330.9,406.1 330.8,406.1 329.9,402.5 325.4,384.2 306.8,381.6 289.5,379.2 282.7,378.3 282.3,381.7 	"/>
	<polygon class="st0" points="289.5,379.2 306.8,381.6 325.4,384.2 329.9,402.5 330.8,406.1 330.9,406.1 331.6,409 335.2,423.7 
		335.7,425.6 336.1,427 336,427 337,430.7 341.5,448.9 326.3,459.9 312.1,470.3 296.3,481.7 293.8,483.6 275.4,484.2 275.4,484.2 
		272.5,484.3 257.3,484.9 255.3,484.9 253.9,485 253.9,485 235.4,485.6 228.8,481.4 211.7,470.4 194.6,459.4 177.5,448.4 
		176.8,447.9 176.3,448.6 174,451.6 174.1,451.6 172.3,453.9 163.2,466.1 162,467.7 161.1,468.8 161.1,468.8 158.8,471.8 
		158.3,472.5 159,473.1 175.1,487.7 191.3,502.2 197.8,508.1 203.4,525.2 203.4,525.2 204.3,528 209,542.4 209.6,544.3 210,545.7 
		210,545.7 211.2,549.3 217.2,567.7 201.6,579.1 186.4,590.2 167.1,604.4 149,617.6 143.1,596 137.4,574.5 132.9,558.1 128.5,541.6 
		124,525.2 119.6,508.7 119.3,507.5 118,507.6 114.2,508.2 114.2,508.2 111.3,508.6 96.3,510.7 94.3,511 92.9,511.2 92.9,511.2 
		89.2,511.7 87.5,511.9 87.5,513.6 87.2,531.5 86.9,549.4 86.5,567.3 86.2,585.4 85.8,607.9 63.4,607.1 47.2,606.6 31.2,606 
		9.3,605.3 8.9,583.4 8.9,579.6 8.8,579.6 8.8,576.7 8.5,561.5 8.5,559.5 8.5,558.1 8.5,558.1 8.2,539.9 12.4,532.9 23.3,515 
		25.7,511.1 23.4,507.1 21.5,503.9 21.5,503.9 20,501.4 12.4,488.2 11.4,486.5 10.7,485.3 10.8,485.2 8.9,482 6.6,478 2.1,478.2 
		0.3,478.2 0.1,481.2 4.9,481 22.3,511 5.2,539.1 6.4,608.1 88.7,610.9 90.5,514.5 117.1,510.8 147.3,622.6 220.6,568.8 
		200.4,506.4 162.3,472.1 177.5,451.9 234.5,488.6 294.8,486.5 344.8,450.1 327.8,381.6 283.1,375.4 282.7,378.3 	"/>
	<path class="st0" d="M304.1,400.4l5.9,0.8l1.4,5.8l1.2,4.6l0,0l0.1,0.5l0.3,1.4l1.2,4.9l1.2-0.9l-1.1-4.4l-0.3-1.4l-0.4-1.5
		l3.4-0.8l0.4,1.5l0.3,1.4l0.9,3.5l0.8,3.1l-4.2,3.2l1.6,6.6l0.3,1.4l0,0l0.1,0.5l0,0l1.2,4.6l1.5,5.8l-4.9,3.5l-14.2,10.3
		l-13.2,9.6l-0.4,0.3l-13.6,0.5l0,0l-0.5,0l-1.4,0l-5.1,0.2l0.6,1.4l4.5-0.2l1.4,0l1.5-0.1l0.1,3.5l-1.5,0.1l-1.4,0l-3.6,0.1
		l-3.2,0.1l-2.3-4.8l-6.8,0.2l-1.4,0l0,0l-0.5,0l0,0l-13.6,0.5l-1.6-1l-17.1-11l-17.1-11l-17.1-11l-15.5-10l-11.1,14.7l-2.9,3.8l0,0
		l-0.3,0.4l-0.8,1.1l-3.1,4.1l1.5,0.4l2.7-3.6l0.8-1.1l0.9-1.2l2.8,2.1l-0.9,1.2l-0.8,1.1l-2.2,2.9l-1.9,2.6l-5.2-1.3l-4.1,5.4
		l-0.8,1.1l0,0l-0.3,0.4l0,0l-2.9,3.8l-11,14.6l13.6,12.2l16.2,14.5l16.2,14.5l2.7,2.5l4.3,13.2l0,0l0.2,0.5l0.4,1.3l1.6,4.9l1.1-1
		l-1.4-4.3l-0.4-1.3l-0.5-1.4l3.3-1.1l0.5,1.4l0.4,1.3l1.1,3.4l1,3l-4,3.5l2.1,6.5l0.4,1.3l0,0l0.2,0.5l0,0l1.5,4.5l1.7,5.3
		l-4.5,3.3l-15.2,11.1l-12.3,9l-2.8,2.1l-0.9-3.4l-3.5-13l-4.4-16.5l-4.4-16.5l-4.4-16.5l-4.4-16.5l-4.7-17.4l-17.9,2.5l-4.7,0.7
		l0,0l-0.5,0.1l-1.4,0.2l-5.1,0.7l0.8,1.3l4.5-0.6l1.4-0.2l1.5-0.2l0.5,3.5l-1.5,0.2l-1.4,0.2l-3.6,0.5l-3.2,0.4l-2.8-4.6l-6.7,0.9
		l-1.4,0.2l0,0l-0.5,0.1l0,0l-4.7,0.7l-17.7,2.5l-0.3,17.8l-0.3,17.9l-0.3,17.9L67.6,567l-0.3,17.8l-0.1,3.5l-3.5-0.1l-15.9-0.5
		l-16-0.5l-3.9-0.1l-0.1-3.9l-0.1-4.8l0,0l0-0.5l0-1.4l-0.1-5.1l-1.4,0.6l0.1,4.5l0,1.4l0,1.5l-3.5,0.1l0-1.5l0-1.4l-0.1-3.6
		l-0.1-3.2l4.9-2.2l-0.1-6.8l0-1.4l0,0l0-0.5l0,0L27.2,545l1.4-2.3l10.9-17.9l8.2-13.5l-7.9-13.7l-2.4-4.1l0,0l-0.2-0.4l-0.7-1.2
		l-2.5-4.4l-0.9,1.2l2.2,3.9l0.7,1.2l0.7,1.3l-3,1.7l-0.7-1.3l-0.7-1.2l-1.8-3.1l-1.6-2.8l3.2-4.3l-3.4-5.9l-0.7-1.2l0,0l-0.2-0.4
		l0,0l-2.4-4.1l-7.9-13.7l-15.6,0.4l-0.5,6l0.4,0l12.3-0.3l6.1,10.6l2.4,4.1l0,0l0.2,0.4l2.4,4.2l-3,1.7l-2.4-4.2l0,0l-0.7-1.3l0,0
		l-1.9-3.3l-5.1-8.8l-10.2,0.3l-0.8,0L1,469.8l0.9,0l9.5-0.3l4.8,8.2l1.9,3.3l0,0l0.7,1.3l2.4,4.2l-3,1.7l-2.4-4.2l0,0l-0.7-1.3l0,0
		l-1.9-3.3l-3.7-6.4L2,473.3l-1.3,0l-0.1,1.4l1.4,0l6.6-0.2l3.3,5.7l2.4,4.1l0,0l0.1,0.3l1.9,3.4l1.3,2.3l1,1.8l3.9-2.2l3.9-5.5
		l-0.3-0.6l-1.7-3l-0.7-1.2l-0.7-1.3l3-1.7l0.7,1.3l0.7,1.2l3.2,5.5l-5.6,7.9l-4.6,2.6l0.1,0.3l0.6,1.1l2.5,4.3l0.2,0.4l0,0l2.4,4.1
		l3.3,5.7l-3.4,5.7l-10.9,17.9l-3.7,6.1L12,559l0,0l0,0.3l0.1,3.9l0,2.6l0,2.1l4.5-0.1l6.1-2.9l0-0.7l-0.1-3.5l0-1.4l0-1.5l3.5-0.1
		l0,1.5l0,1.4l0.1,6.4l-8.7,4.3l-5.3,0.1l0,0.3l0,1.3l0.1,5l0,0.5l0,0l0.1,4.8l0.3,18.6l18.6,0.6l16,0.5l16.1,0.6l18.9,0.6l0.3-19
		l0.3-18.1l0.3-17.9l0.3-17.9l0.3-17.9l0.1-4.6l4.6-0.6l4.7-0.7l0,0l0.3,0l3.9-0.5l2.6-0.4l2.1-0.3l-0.6-4.5l-3.6-5.7l-0.7,0.1
		l-3.5,0.5l-1.4,0.2l-1.5,0.2l-0.5-3.5l1.5-0.2l1.4-0.2l6.3-0.9l5.3,8.1l0.7,5.2l0.3,0l1.3-0.2l5-0.7l0.5-0.1l0,0l4.7-0.7l4.3-0.6
		l1.1,4.2l4.4,16.5l4.4,16.5l4.4,16.5l4.4,16.5l5.4,19.9l4.9,18.3l15.3-11.2l18-13.2l15.2-11.1l13.6-9.9l-5.2-16l-1.5-4.5l0,0
		l-0.1-0.3l-1.2-3.7l-0.8-2.5l-0.6-2l-4.3,1.4l-4.9,4.5l0.2,0.7l1.1,3.3l0.4,1.3l0.5,1.4l-3.3,1.1l-0.5-1.4l-0.4-1.3l-2-6.1l7.1-6.6
		l5-1.6l-0.1-0.3l-0.4-1.2l-1.5-4.8l-0.2-0.5l0,0l-5.6-17.2l-5.8-5.2l-16.2-14.5l-16.2-14.5l-3.1-2.8l2.5-3.3l2.9-3.8l0,0l0.2-0.2
		l2.3-3.1l1.6-2.1l1.3-1.7l-3.6-2.7l-6.6-1.4l-0.4,0.6l-2.1,2.8l-0.8,1.1l-0.9,1.2l-2.8-2.1l0.9-1.2l0.8-1.1l3.9-5.1l9.5,2l4.2,3.2
		l0.2-0.2l0.8-1l3-4l0.3-0.4l0,0l2.9-3.8l2.4-3.2l3.4,2.2l17.1,11l17.1,11l17.1,11l5.7,3.7l18.4-0.6l0,0l0.3,0l3.9-0.1l2.6-0.1
		l2.1-0.1l-0.2-4.5l-3-6l-0.7,0l-3.5,0.1l-1.4,0l-1.5,0.1l-0.1-3.5l1.5-0.1l1.4,0l6.4-0.2l4.4,8.7l0.2,5.3l0.3,0l1.3,0l5-0.2l0.5,0
		l0,0l18.4-0.6l2.2-1.6l15.3-11.1l14.2-10.3l13.3-9.7l-4-16l-1.2-4.6l0,0l-0.1-0.3l-0.9-3.8l-0.6-2.5l-0.5-2l-4.4,1.1l-5.2,4.2
		l0.2,0.7l0.8,3.4l0.3,1.4l0.4,1.5l-3.4,0.8l-0.4-1.5l-0.3-1.4l-1.5-6.2l7.5-6.1l5.1-1.3l-0.1-0.3l-0.3-1.3l-1.2-4.9l-0.1-0.5l0,0
		l-1.2-4.6l-4-16l-16.3-2.3l-17.2-2.4l-6.8-0.9l-0.2,1.4l6.8,0.9l17.2,2.4l15.3,2.1l3.7,15l0.9,3.7l0,0l0.4,1.5l1.2,4.9l-3.4,0.8
		l-1.2-4.9l-0.4-1.5l0,0l-0.9-3.7l-3.2-12.8l-13-1.8l-17.2-2.4l-6.7-0.9l-0.1,1.2l6.7,0.9l17.2,2.4l12.2,1.7l3,12l0.9,3.7l0.1,0
		l0.4,1.5l1.2,4.9l-3.4,0.8l-1.2-4.9l-0.1-0.5l0,0l-1.2-4.6l-2.4-9.7l-9.9-1.4l-17.2-2.4l-6.6-0.9l-0.7,5.9l6.5,0.9L304.1,400.4z
		 M13.5,564.4l-0.1-4.9l0-1.5l0,0l-0.3-16.8l3.5-5.8l10.9-17.9l3.9-6.4l-3.7-6.5l-1.9-3.3l0,0l-0.7-1.3l-2.5-4.3l3-1.7l2.5,4.3l0,0
		l0.7,1.3l0,0l1.9,3.3l4.8,8.2l-5,8.1l-10.9,17.9l-3,4.9l0.3,15.8l0,0l0,1.5l0.1,4.9L13.5,564.4z M21.5,558.9L21.5,558.9l0,0.5
		l0.1,4.9l-3.5,0.1l-0.1-4.9l0-1.5l0.1,0l-0.3-15.5l2.8-4.6l10.9-17.9l5.3-8.7l-5.1-8.8l-1.9-3.3l0,0l-0.7-1.3l-2.5-4.3l3-1.7
		l2.5,4.3l0,0l0.2,0.4l0,0l2.4,4.1l6.1,10.6l-6.4,10.5l-10.9,17.9l-2.3,3.8L21.5,558.9z M98.6,505.4l-4.9,0.7l-1.5,0.2l0,0l-3.7,0.5
		l-5.8,0.8l-0.1,5.8l-0.3,17.9L82,549.3l-0.3,17.9l-0.3,18L81,602.8l-17.5-0.6l-16.1-0.6l-16-0.5l-17.2-0.6l-0.3-17.2l-0.1-3.8l0,0
		l0-1.5l-0.1-5l3.5-0.1l0.1,5l0,1.5l0,0l0.1,3.8l0.2,13.9l13.9,0.5l16,0.5l16.1,0.6l14.1,0.5l0.3-14.1l0.3-18l0.3-17.9l0.3-17.9
		l0.3-17.9l0.2-8.8l8.7-1.2l3.7-0.5l0,0l1.5-0.2l4.9-0.7L98.6,505.4z M92.1,498.1L92.1,498.1l0.5,0l4.9-0.7l0.5,3.5l-4.9,0.7
		l-1.5,0.2l0-0.1l-3.7,0.5l-9.7,1.4l-0.2,9.8l-0.3,17.9l-0.3,17.9L77,567.2l-0.3,18L76.5,598l-12.9-0.4l-16-0.5l-16-0.5L18.7,596
		l-0.2-12.8l-0.1-3.8l-0.1,0l0-1.5l-0.1-5l3.5-0.1l0.1,5l0,0.5l0,0l0.1,4.8l0.2,9.5l9.5,0.3l16,0.5l16,0.5l9.4,0.3l0.2-9.4l0.3-17.9
		l0.3-17.9l0.3-17.9l0.3-17.9l0.2-12.7l12.6-1.8L92.1,498.1z M203.4,541.1l1.5,4.7l0.5,1.4l0,0l1.2,3.6l4.9,15l-12.7,9.3l-15.2,11.1
		L166,599.1l-14.2,10.4l-4.6-16.9l-5.2-19.3l-4.4-16.5l-4.4-16.5l-4.4-16.5l-4.4-16.5l-1.5-5.4l-5.6,0.8l-3.7,0.5l0,0l-1.5,0.2
		l-5,0.7l-0.5-3.5l5-0.7l1.5-0.2l0,0l3.7-0.5l8.6-1.2l2.3,8.4l4.4,16.5l4.4,16.5l4.4,16.5l4.4,16.5l4.8,17.7l3.7,13.6l11.4-8.3
		l16.2-11.9l15.2-11.1l10.7-7.9l-4.1-12.6l-1.2-3.6l0,0l-0.5-1.4l-1.5-4.7L203.4,541.1z M195.7,543.6l3.3-1.1l1.5,4.7l0.5,1.4
		l-0.1,0l1.2,3.6l3.8,11.8l-10,7.4l-15.2,11.1L165,594.1l-10.4,7.6l-3.4-12.5l-4.6-17.2l-4.4-16.5l-4.4-16.5l-4.4-16.5l-4.4-16.5
		l-2.5-9.4l-9.6,1.4l-3.7,0.5l0,0.1l-1.5,0.2l-5,0.7l-0.5-3.5l5-0.7l0.5-0.1l0,0l4.7-0.7l12.7-1.8l3.3,12.3l4.4,16.5l4.4,16.5
		l4.4,16.5l4.4,16.5l4.2,15.7l2.5,9.1l7.6-5.6l14.5-10.6l15.2-11.1l8-5.9l-3.1-9.4l-1.5-4.5l0,0l-0.2-0.5L195.7,543.6z M161.1,460.7
		l-2.9,3.9l-0.9,1.2l0,0l-2.3,3l-3.3,4.3l4,3.6l16.2,14.5l16.2,14.5l5.5,5l5.2,15.9l0,0l0.5,1.4l1.5,4.8l-3.3,1.1l-1.5-4.8l-0.5-1.4
		l0,0l-4.9-15l-4.8-4.4l-16.2-14.5l-16.2-14.5l-6.4-5.8l5.2-6.9l2.3-3l0,0l0.9-1.2l2.9-3.9L161.1,460.7z M148.4,464l2.9-3.8l0,0
		l0.3-0.4l2.9-3.9l2.8,2.1l-2.9,3.9l-0.9,1.2l0,0l-2.3,3l-5.8,7.7l7.2,6.5l16.2,14.5l16.2,14.5l4.6,4.2l4.8,14.7l0.1,0l0.5,1.4
		l1.5,4.8l-3.3,1.1l-1.5-4.8l-0.2-0.5l0,0l-4.8-14.8l-3.9-3.5l-16.2-14.5l-16.2-14.5l-9.6-8.6L148.4,464z M260.1,479.9l-4.9,0.2
		l-1.5,0.1l0,0l-17,0.6l-5.3-3.4l-17.1-11l-17.1-11l-17.1-11l-4.5-2.9l-3.2,4.3l-2.3,3l0,0l-0.9,1.2l-3,4l-2.8-2.1l3-4l0.9-1.2l0,0
		l2.3-3l5.2-6.8l7.2,4.6l17.1,11l17.1,11l17.1,11l4.4,2.8l15.9-0.6l0,0l1.5-0.1l4.9-0.2L260.1,479.9z M254.4,471.9L254.4,471.9
		l0.5,0l4.9-0.2l0.1,3.5l-4.9,0.2l-1.5,0.1l0-0.1L238,476l-4.1-2.6l-17.1-11l-17.1-11l-17.1-11l-8.1-5.2l-5.8,7.7l-2.3,3l0,0
		l-0.9,1.2l-3,4l-2.8-2.1l3-4l0.3-0.4l0,0l2.9-3.8l7.7-10.3l10.8,7l17.1,11l17.1,11l17.1,11l3.2,2L254.4,471.9z M329.8,422l1.2,4.8
		l0.4,1.5l0,0l0.9,3.7l3.7,15l-12.5,9.1l-14.2,10.3l-15.1,11l-2,1.5l-16.9,0.6l0,0l-1.5,0.1l-5,0.2l-0.1-3.5l5-0.2l1.5-0.1l0,0
		l15.9-0.6l1.6-1.2l14.6-10.6l14.2-10.3l10.6-7.7l-3.2-12.8l-0.9-3.7l0,0l-0.4-1.5l-1.2-4.8L329.8,422z M321.9,423.9l3.4-0.8
		l1.2,4.8l0.4,1.5l-0.1,0l0.9,3.7l3,12l-10,7.3l-14.2,10.3L292,473.1l-1.5,1.1l-15.5,0.5l0,0.1l-1.5,0.1l-5,0.2l-0.1-3.5l5-0.2
		l0.5,0l0,0l15.4-0.5l1.1-0.8l14-10.2l14.2-10.3l8.1-5.9l-2.4-9.7l-1.2-4.6l0,0l-0.1-0.5L321.9,423.9z"/>
	<path class="st0" d="M19.4,455.2l9,15.5l1.9,3.3l0,0l2.3,4l6.1,10.7l2.3,4l0,0l1.9,3.3l8.9,15.5l-9.3,15.3l-10.9,17.9l-0.9,1.4
		l0.2,11.7l0,0l0.1,4.6l0.2,12.3l0.1,4.6l0,0l0.1,3.8l0,0.6l0.6,0l16,0.5l15.8,0.5l0.3-17.7l0.3-17.9l0.3-17.9l0.3-17.9l0.4-20.8
		l20.6-2.9l3.7-0.5l0,0l4.6-0.6l12.2-1.7l4.6-0.6l0,0l3.7-0.5l20.9-2.9l5.5,20.4l4.4,16.5l4.4,16.5l4.4,16.5l4.4,16.5l3.1,11.5
		l11-8.1l15.2-11.1l2.5-1.8l-1-3l-1.2-3.6l0,0l-1.4-4.4l-3.8-11.7l-1.4-4.4l0,0l-3.7-11.4l-2-1.8l-16.2-14.5L144,489.8l-16-14.4
		l12.9-17.2l2.3-3l0,0l2.8-3.7l7.4-9.8l2.8-3.7l0,0l2.3-3l13-17.3l18.2,11.7l17.1,11l17.1,11l17.1,11l0.7,0.4l11.5-0.4l0,0l4.6-0.2
		l12.3-0.4l4.6-0.2l0,0l11.6-0.4l12.7-9.3l14.2-10.3l3-2.1l-0.9-3.5l-0.9-3.7l0,0l-1.1-4.5l-3-11.9l-1.1-4.5l0,0l-0.9-3.7l-0.9-3.5
		l-3.6-0.5l-17.2-2.4l-6.5-0.9l-0.4,2.9l25.3,3.5l7.8,31.4l-27.6,20l-42.7,1.5l-71.7-46.1l-46.7,62l5.1,4.6l-66.6,9.3l-1.7,91.8
		l-26.6-0.9l-0.6-33.9l21.5-35.3L21,452.2l-18.7,0.5l-0.2,3L19.4,455.2z M175.8,522.4l11.6,35.6l-23.5,17.2l-22.7-83.9L175.8,522.4z
		"/>
</g>
<g>
	<path class="st0" d="M312.6,164.8l-18.1,31.6l-188.3,14.2l-16.8,2.4l0.4,2.9c0,0,4.6-0.7,9.3-1.3c2.3-0.3,4.6-0.7,6.4-0.9
		c0.9-0.1,1.6-0.1,2.1-0.2c0.5,0,0.8-0.1,0.8-0.1l18.3-1.4l18.3-1.4l18.3-1.4l18.3-1.4l18.3-1.4l18.3-1.4l18.3-1.4l18.3-1.4
		l18.3-1.4l18.3-1.4l5.3-0.4l2.6-4.6l1.9-3.3l0,0l1.4-2.5l7.6-13.2l1-1.7l0.7-1.2l0,0l1.9-3.3l2.6-4.6l-2.3-4.7l-3.1-6.3l-3.1,0.4
		L312.6,164.8z"/>
	<path class="st0" d="M332.8,180.6l-1.9,3.3l0,0l-2.3,4l-6.1,10.7l-2.3,4l0,0l-1.9,3.3l-8.5,14.9l-17.1,1.3l-18.2,1.4l-18.2,1.4
		l-18.2,1.4l-18.2,1.4l-18.2,1.4l-18.2,1.4l-18.2,1.4l-18.2,1.4l-18.2,1.4l-18.2,1.4c0,0-0.3,0-0.8,0.1c-0.5,0.1-1.2,0.1-2,0.2
		c-1.7,0.2-3.9,0.6-6.1,0.9c-4.4,0.6-8.8,1.3-8.8,1.3l0.4,2.9l15.4-2.2l202.9-15.2l33.1-57.7l-7.6-15.5l-3.1,0.4l7.4,15L332.8,180.6
		z"/>
	<path class="st0" d="M319.9,165l-3.5,6.2l-2.4,4.1l0,0l-0.1,0.3l-1.9,3.4l-1.3,2.3l-1,1.8l3.9,2.2l6.7,0.6l0.3-0.6l1.7-3l0.7-1.2
		l0.7-1.3l3,1.7l-0.7,1.3l-0.7,1.2l-3.2,5.6l-9.7-0.8l-4.6-2.6l-0.1,0.3l-0.6,1.1l-2.5,4.3l-0.2,0.4l0,0l-2.4,4.1l-3.5,6.2l-7.1,0.5
		l-18.3,1.4l-18.3,1.4l-18.3,1.4l-18.3,1.4L200,210l-18.3,1.4l-18.3,1.4l-18.3,1.4l-18.3,1.4l-18.3,1.4c0,0-0.3,0-0.8,0.1
		c-0.5,0.1-1.2,0.1-2.1,0.2c-1.7,0.2-4,0.6-6.3,0.9c-4.6,0.7-9.2,1.3-9.2,1.3l0.2,1.4c0,0,4.6-0.7,9.2-1.3c2.3-0.3,4.6-0.7,6.3-0.9
		c0.9-0.1,1.6-0.1,2.1-0.2c0.5,0,0.8-0.1,0.8-0.1l18.3-1.4l18.3-1.4l18.3-1.4l18.3-1.4l18.3-1.4l18.3-1.4l18.3-1.4l18.3-1.4
		l18.3-1.4l18.3-1.4l7.9-0.6l3.9-6.8l1.9-3.3l0,0l0.7-1.3l2.5-4.3l3,1.7l-2.5,4.3l-0.7,1.3l0,0l-1.9,3.3l-4.8,8.4l-9.7,0.7
		l-18.2,1.4l-18.2,1.4l-18.2,1.4l-18.2,1.4l-18.2,1.4l-18.2,1.4l-18.2,1.4l-18.2,1.4l-18.2,1.4l-18.2,1.4c0,0-0.3,0-0.8,0.1
		c-0.5,0.1-1.2,0.1-2.1,0.2c-1.7,0.2-4,0.6-6.3,0.9c-4.6,0.7-9.1,1.3-9.1,1.3l0.2,1.1c0,0,4.5-0.7,9.1-1.3c2.3-0.3,4.5-0.6,6.2-0.9
		c0.9-0.1,1.6-0.1,2.1-0.2c0.5,0,0.8-0.1,0.8-0.1l18.2-1.4l18.2-1.4l18.2-1.4l18.2-1.4l18.2-1.4l18.2-1.4l18.2-1.4l18.2-1.4
		l18.2-1.4l18.2-1.4l10.3-0.8l5.1-8.9l1.9-3.3l0,0l0.7-1.3l2.5-4.3l3,1.7l-2.5,4.3l-0.2,0.4l0,0l-2.4,4.1l-6.1,10.5l-12.1,0.9
		l-18.2,1.4l-18.2,1.4l-18.2,1.4l-18.2,1.4l-18.2,1.4l-18.2,1.4l-18.2,1.4l-18.2,1.4l-18.2,1.4l-18.2,1.4c0,0-0.3,0-0.8,0.1
		c-0.5,0.1-1.2,0.1-2.1,0.2c-1.7,0.2-3.9,0.6-6.2,0.9c-4.5,0.6-9,1.3-9,1.3l0.8,5.9c0,0,4.5-0.6,8.9-1.3c2.2-0.3,4.5-0.6,6.1-0.9
		c0.8-0.1,1.6-0.1,2.1-0.2c0.5,0,0.8-0.1,0.8-0.1l18.2-1.4l18.2-1.4l18.2-1.4l18.2-1.4l18.2-1.4l18.2-1.4l18.2-1.4l18.2-1.4
		l18.2-1.4l18.2-1.4l15.3-1.1l7.6-13.3l2.4-4.1l0,0l0.2-0.4l0.7-1.2l2.5-4.4l-1.5-0.2l-2.2,3.9l-0.7,1.2l-0.7,1.3l-3-1.7l0.7-1.3
		l0.7-1.2l1.8-3.1l1.6-2.8l5.3,0.6l3.4-5.9l0.7-1.2h0l0.2-0.4l0,0l2.4-4.1l7.6-13.3l-6.7-13.8l-0.3-0.6l-6.2,0.8l1.2,2.4l5.4,10.9
		l-6.1,10.5l-2.4,4.1l0,0l-0.2,0.4l-2.4,4.2l-3-1.7l2.4-4.2l0.7-1.3l0,0l1.9-3.3l5.1-8.9l-4.5-9.3l-1.7-3.4l-1.2,0.2l1.9,3.8
		l4.3,8.7l-4.8,8.4l-1.9,3.3l0,0l-0.7,1.3l-2.4,4.2l-3-1.7l2.4-4.2l0.7-1.3l0,0l1.9-3.3l3.9-6.8l-3.5-7.1l-2.4-4.8l-1.5,0.2l2.6,5.3
		L319.9,165z"/>
</g>
<g>
	<polygon class="st0" points="289.6,367.2 224.1,339.3 187.7,378.1 145.8,393.3 30.3,377.1 -9.9,432.4 -9.8,432.7 -6.3,433.3 
		-6.5,432.7 4,418.3 6.2,415.3 6.2,415.2 7.9,412.9 16.8,400.6 18,399 18.8,397.9 18.9,397.9 21.1,394.8 31.6,380.3 49.4,382.8 
		68.6,385.5 87.8,388.2 107.1,390.9 126.3,393.5 145.5,396.2 146.1,396.3 157.6,392.2 157.5,392.1 160.3,391.1 174.6,386 
		176.4,385.3 177.8,384.8 177.8,384.8 189.4,380.6 200,369.2 211.8,356.8 224.8,342.9 242.3,350.3 245.8,351.8 245.8,351.8 
		248.5,352.9 262.5,358.9 264.3,359.6 265.6,360.2 265.6,360.2 269.1,361.7 286.6,369.2 286.6,369.6 289.6,368.1 	"/>
	<polygon class="st0" points="256.8,380.9 256.8,380.9 252.6,379.1 241.3,374.3 237,372.5 237,372.5 233.6,371 230.4,369.6 
		228.1,372.1 216.4,384.6 203.6,398.2 202,399.9 185.4,405.9 185.4,405.9 181.1,407.5 169.5,411.7 165.2,413.3 165.2,413.2 
		148.5,419.3 142.4,418.5 123.2,415.8 103.9,413.1 84.7,410.4 65.5,407.7 46.3,405 41.9,404.4 39.2,408 37,411.1 37,411.1 
		34.3,414.8 27.1,424.8 24.4,428.5 24.3,428.5 22.1,431.5 19.4,435.2 20.4,437.4 23.9,437.9 22.8,435.6 43.2,407.6 148.8,422.3 
		203.7,402.4 231.2,373.2 256.8,384.1 260.4,382.4 260.3,382.4 	"/>
	<path class="st0" d="M263.3,363L263.3,363l-0.3-0.1l-3.6-1.5l-2.4-1l-1.9-0.8l-1.8,4.1l0.2,6.7l0.6,0.3l3.2,1.4l1.3,0.5l1.4,0.6
		l-1.4,3.2l-1.4-0.6l-1.3-0.5l-5.9-2.5l-0.3-9.7l2.1-4.9l-0.3-0.1l-1.2-0.5l-4.6-2l-0.5-0.2l0,0l-4.4-1.9l-15.3-6.5l-11.4,12.1
		l-11.7,12.5l-11,11.7l-0.2,0.3l-13.3,4.8l0,0l-0.3,0.1l-3.7,1.3l-2.4,0.9l-2,0.7l1.5,4.2l4.7,4.8l0.7-0.2l3.3-1.2l1.3-0.5l1.4-0.5
		l1.2,3.3l-1.4,0.5l-1.3,0.5l-6,2.2l-6.9-6.9l-1.8-5l-0.3,0.1l-1.2,0.4l-4.7,1.7l-0.5,0.2l0,0l-13.2,4.8l-1.5-0.2l-19.2-2.7
		l-19.2-2.7l-19.2-2.7l-19.2-2.7l-19.2-2.7L33.2,384l-9.3,12.8l-2.8,3.9l0,0l-0.2,0.2l-2.3,3.2l-1.5,2.1l-1.2,1.7l3.6,2.6l6.6,1.3
		l0.4-0.6l2.1-2.8l0.8-1.1l0.9-1.2l2.8,2.1l-0.9,1.2l-0.8,1.1l-3.8,5.2l-9.5-1.9l-4.3-3.1l-0.2,0.2l-0.8,1.1l-2.9,4l-0.3,0.4l0,0
		l-2.8,3.9l-9.3,12.8l0.4,0.8l1.7,0.3l-0.4-0.9l8.8-12.1l2.2-3.1l0,0l0.9-1.2l2.9-4l2.8,2.1l-2.9,4l-0.9,1.2l0,0l-2.2,3.1l-7.6,10.4
		l0.5,1.1l1.4,0.2l-0.6-1.2l7.2-9.9l2.2-3.1l0,0l0.9-1.2l2.9-4l2.8,2.1l-2.9,4l-0.3,0.4l0,0l-2.8,3.9l-6,8.2l0.7,1.5l7.1,1.1
		l-0.9-1.9l3.9-5.4l2.8-3.9l0,0l0.3-0.4l0.8-1.1l3-4.1l-1.5-0.3l-2.6,3.6l-0.8,1.1l-0.9,1.2l-2.8-2.1l0.9-1.2l0.8-1.1l2.1-2.9
		l1.9-2.6l5.2,1.2l4-5.5l0.8-1.1h0l0.3-0.4l0,0l2.8-3.9l3.9-5.3l6.5,0.9l19.2,2.7l19.2,2.7l19.2,2.7l19.2,2.7l19.2,2.7l5.3,0.7
		l16.8-6.1l0,0l0.5-0.2l1.3-0.5l4.8-1.7l-1-1.1l-4.2,1.5l-1.3,0.5l-1.4,0.5l-1.2-3.3l1.4-0.5l1.3-0.5l3.4-1.2l3-1.1l3.6,3.9l6.4-2.3
		l1.3-0.5l0,0l0.5-0.2l0,0l16.8-6.1l1.3-1.4l12.5-13.3l11.7-12.5l4-4.2l5.3,2.3l4.4,1.9l0,0l0.5,0.2l1.3,0.5l4.7,2l0-1.5l-4.1-1.8
		l-1.3-0.5l-1.4-0.6l1.4-3.2l1.4,0.6l1.3,0.5l3.3,1.4l2.9,1.3l0,5.3l6.3,2.7l1.3,0.5h0l0.5,0.2l0,0l4.4,1.9l2.8,1.2l7.1-3.5
		l-7.6-3.2l-4.4-1.9l0,0l-0.5-0.2l-4.5-1.9l1.4-3.2l4.5,1.9l1.4,0.6l0,0l3.5,1.5l10.3,4.4l1.4-0.7l-11.3-4.8l-3.5-1.5l0,0l-1.4-0.6
		l-4.5-1.9l1.4-3.2l4.5,1.9l1.4,0.6l0,0l3.5,1.5l14,6l1.7-0.8l-15.2-6.5L263.3,363z M19,405.9l2.9-4l0.9-1.2l0,0l2.2-3.1l8.8-12.1
		l14.9,2.1l19.2,2.7l19.2,2.7l19.2,2.7l19.2,2.7l19.2,2.7l1.8,0.3l12.6-4.6l0,0l1.4-0.5l4.7-1.7l1.2,3.3l-4.7,1.7l-1.4,0.5l0,0
		l-13.4,4.9l-2.7-0.4l-19.2-2.7l-19.2-2.7l-19.2-2.7l-19.2-2.7l-19.2-2.7l-12.8-1.8l-7.6,10.5l-2.2,3.1l0,0l-0.9,1.2l-2.9,4
		L19,405.9z M163.4,403.8l-0.5,0.2l0,0l-15.5,5.6l-3.8-0.5l-19.2-2.7l-19.2-2.7L86,401l-19.2-2.7l-19.2-2.7l-10.1-1.4l-6,8.2
		l-2.8,3.9l0,0l-0.3,0.4l-2.9,4l-2.8-2.1l2.9-4l0.9-1.2l0,0l2.2-3.1l7.2-9.9l12.1,1.7l19.2,2.7l19.2,2.7l19.2,2.7l19.2,2.7l19.2,2.7
		l2.9,0.4l13.7-5l0,0l1.4-0.5l4.7-1.7l1.2,3.3L163.4,403.8z M246.7,366.3l-4.6-2l-0.5-0.2l0,0l-4.4-1.9l-9.2-3.9l-6.8,7.3
		l-11.7,12.5l-11.9,12.7l-0.9,1l-15.4,5.6l0,0l-0.5,0.2l-4.6,1.7l-1.2-3.3l4.6-1.7l1.4-0.5l0,0l13.7-5l0.7-0.7l11.6-12.3l11.7-12.5
		l8.5-9l11.4,4.9l3.5,1.5l0,0l1.4,0.6l4.6,2L246.7,366.3z M248.5,362.1l-4.6-2l-1.4-0.6l0,0l-3.5-1.5l-12.2-5.2l-9,9.6L206.1,375
		l-11.5,12.2l-0.6,0.6l-13.5,4.9l0,0l-1.4,0.5l-4.6,1.7l-1.2-3.3l4.6-1.7l1.4-0.5l0,0l12.7-4.6l0.3-0.4l11.1-11.9l11.7-12.5
		l10.7-11.4l14.4,6.1l3.5,1.5l0,0l1.4,0.6l4.6,2L248.5,362.1z"/>
</g>
</svg>
