<svg id="Layer_1" data-name="Layer 1" xmlns="http://www.w3.org/2000/svg" viewBox="0 0 360 288"><defs><style>.cls-1{fill:#ff0;}.cls-2{fill:none;}</style></defs><title>SUN-MOON-PCB</title><path class="cls-1" d="M333.83,268.61l-18.66-.19-18.66-.19L277.86,268l-18.66-.19-18.66-.19-18.66-.19-18.66-.19-18.66-.19-2.09,0-14.37,1.31v0l-2.89.26-15.14,1.38-2,.18-1.39.13v0l-14.46,1.32-3.28.59-19.51,3.48L90,279.22l-5.4,1L67,278.1l0.41-3.45,17,2,4.89-.87,19.51-3.48,19.51-3.48,3.43-.61,15.6-1.42h0l0.3,0,3.88-.35,2.59-.24,2.09-.19-0.41-4.48-3.34-5.82-0.7.06-3.49.32-1.39.13-1.49.14-0.32-3.49,1.49-.14,1.39-.13,6.37-.58,4.88,8.39,0.48,5.28,0.3,0,1.29-.12,5-.45,0.5,0h0l15.54-1.42,2.27,0,18.66,0.19L221.93,264l18.66,0.19,18.66,0.19,18.66,0.19,18.66,0.19,18.66,0.19,18.66,0.19,13.8,0.14v-1.41l-13.79-.14-18.66-.19-18.66-.19-18.66-.19L259.26,263l-18.66-.19-18.66-.19-18.66-.19-18.66-.19-2.34,0-14.62,1.33v0l-1.49.14-5,.45-0.32-3.49,5-.45,1.49-.14h0l14.79-1.35,2.51,0,18.66,0.19L222,259.12l18.66,0.19,18.66,0.19,18.66,0.19,18.66,0.19,18.66,0.19,18.66,0.19,13.78,0.14v-1.16l-13.77-.14-18.66-.19-18.66-.19L278,258.52l-18.66-.19-18.66-.19L222,258l-18.66-.19-18.66-.19-2.57,0-14.85,1.36V259l-1.49.14-5,.45-0.32-3.49,5-.45,0.5,0v0l16-1.46,2.75,0,18.66,0.19L222,254.48l18.66,0.19,18.66,0.19L278,255l18.66,0.19,18.66,0.19L334,255.61l13.76,0.14,0-6L334,249.65l-18.66-.19-18.66-.19-18.66-.19-18.66-.19-18.66-.19-18.66-.19-18.66-.19-18.66-.19-3,0L165.4,249.6h0l-0.5,0-1.39.13-5.08.46,0.72,1.34,4.48-.41L165,251l1.49-.14,0.32,3.49-1.49.14-1.39.13-3.59.33-3.19.29-2.54-4.69-6.77.62-1.39.13-0.5,0h0l-16.26,1.49-4.08.73-19.51,3.48-19.51,3.48L84,261l-14.75-1.75,0.41-3.45,14.23,1.69,2.11-.38,19.51-3.48L125,250.17l4.23-.76L144.67,248v0l4.58-.42,12.25-1.12,4.58-.42v0l15.5-1.42,3.23,0,18.66,0.19L222.12,245l18.66,0.19,18.66,0.19,18.66,0.19,18.66,0.19L315.4,246l18.66,0.19,13.71,0.14,0-3-166.33-1.68-52.61,4.8-45,8L70,252.89,66.67,281l18,2.14,48-8.57,50-4.56,165,1.67,0-3ZM68.55,265.19l15.63,1.86,3.49-.62,19.51-3.48,19.51-3.48,3.83-.68,16-1.46v0l0.5,0,4.88-.45,0.32,3.49-4.88.45-1.49.14v-0.05L131,262.22l-3.68.66-19.51,3.48-19.51,3.48-4,.72-16.14-1.92ZM68,269.8l16.31,1.94,4.17-.75L108,267.51,127.5,264l3.63-.65L145.95,262h0l1.49-.14,4.88-.45,0.32,3.49-4.88.45-1.49.14v0l-14.67,1.34-3.49.62-19.51,3.48L89.1,274.41l-4.68.84-16.82-2Z"/><polygon class="cls-2" points="59.41 213.14 62.01 209.13 62 209.13 62.28 208.71 65 204.51 65.71 203.42 65.87 203.17 70.31 206.06 79.93 207.41 83.41 202.04 84.18 200.87 84.99 199.61 82.06 197.71 81.24 198.96 80.48 200.14 78.57 203.07 78.19 203.66 71.55 202.69 67.78 200.24 68.92 198.47 70.34 196.29 72.46 193.02 72.6 192.81 72.6 192.82 78.09 184.25 79.97 181.32 76.49 181.26 66.53 181.09 50.44 180.82 34.35 180.55 15.65 180.23 15.33 161.53 15.24 156.75 15.23 156.75 15.23 156.25 15.14 151.25 15.12 149.95 15.11 149.65 20.41 149.56 29.14 145.31 29.02 138.91 29 137.51 28.98 136.01 25.48 136.07 25.5 137.57 25.53 138.97 25.59 142.47 25.6 143.17 19.55 146.08 15.05 146.15 15.01 144.06 14.97 141.46 14.9 137.56 14.89 137.26 14.9 137.25 14.82 132.47 14.51 114.8 31.85 111.33 49.93 107.72 68.01 104.1 71.97 103.31 89.19 106.97 89.19 106.96 89.68 107.06 94.57 108.11 95.84 108.38 96.13 108.44 95.03 113.62 97.21 123.08 103.47 124.41 104.84 124.7 106.31 125.02 107.04 121.59 105.57 121.28 104.2 120.99 100.78 120.26 100.09 120.11 98.62 113.57 99.56 109.17 101.61 109.6 104.15 110.14 107.97 110.95 108.26 111.02 108.26 111.02 125.54 114.7 128.67 117 143.48 127.89 158.23 138.72 161.62 141.22 164.44 138.09 167.64 134.53 167.63 134.53 167.96 134.16 171.31 130.44 172.18 129.47 172.38 129.25 176.32 132.8 185.6 135.64 189.88 130.88 190.82 129.84 191.82 128.73 189.22 126.39 188.22 127.5 187.28 128.54 184.94 131.14 184.47 131.66 178.07 129.66 174.72 126.65 176.13 125.09 177.87 123.16 180.48 120.26 180.68 120.04 180.68 120.04 183.88 116.49 186.78 113.27 183.92 110.02 172.52 97.03 161.11 84.05 150.24 71.68 157.72 57 159.89 52.74 159.88 52.74 160.11 52.29 162.38 47.84 162.97 46.68 163.1 46.41 167.83 48.82 177.53 49.16 180.44 43.46 181.07 42.21 181.75 40.87 178.63 39.28 177.95 40.62 177.32 41.87 175.73 44.99 175.41 45.61 168.7 45.34 164.69 43.29 165.65 41.42 166.83 39.1 168.6 35.63 168.73 35.36 168.74 35.37 170.91 31.11 178.37 16.48 194.73 17.85 212.31 19.32 231.36 20.91 234.12 21.14 247.95 33.59 247.95 33.59 248.32 33.92 252.04 37.27 253.01 38.14 253.23 38.34 249.68 42.27 246.84 51.56 251.6 55.84 252.64 56.78 253.75 57.78 256.1 55.18 254.98 54.18 253.94 53.24 251.34 50.9 250.82 50.43 252.82 44.02 255.83 40.68 257.39 42.08 259.32 43.82 262.22 46.43 262.44 46.63 262.44 46.64 276.24 59.07 277.63 66.07 281.65 86.24 285.67 106.41 289.68 126.58 290.42 130.29 294.15 129.7 298.87 128.95 298.87 128.94 299.37 128.86 304.3 128.08 305.59 127.88 305.88 127.83 306.71 133.06 312.14 141.11 318.46 140.11 319.84 139.89 321.32 139.66 320.78 136.2 319.3 136.44 317.91 136.66 314.45 137.2 313.76 137.31 310.04 131.73 309.34 127.28 311.41 126.95 313.98 126.55 317.83 125.94 318.13 125.89 318.13 125.9 322.86 125.15 326.67 124.55 326.26 120.7 324.43 103.41 323.32 92.92 319.87 93.33 320.97 103.78 322.81 121.07 322.87 121.63 322.31 121.72 318.58 122.31 318.57 122.28 317.19 122.5 315.21 122.81 300.2 125.19 297.34 125.64 297.34 125.67 293.61 126.26 293.18 126.33 293.09 125.9 289.08 105.73 285.06 85.56 281.04 65.39 279.42 57.26 265.51 44.73 265.53 44.7 264.49 43.77 263 42.43 251.71 32.26 249.55 30.32 249.53 30.34 235.58 17.77 232.31 17.5 212.6 15.85 195.02 14.38 176.33 12.82 167.81 29.53 166.1 32.9 166.07 32.88 165.43 34.13 164.53 35.91 157.63 49.46 156.31 52.04 156.34 52.05 154.62 55.42 146.07 72.2 158.5 86.34 169.91 99.33 181.31 112.31 182.13 113.24 181.3 114.16 178.77 116.97 178.75 116.95 177.81 117.99 176.47 119.48 166.3 130.78 164.36 132.93 164.38 132.95 161.85 135.76 161.14 136.55 160.29 135.92 145.54 125.08 130.7 114.18 127 111.45 109.96 107.83 109.97 107.8 108.6 107.51 106.64 107.09 91.77 103.93 88.94 103.33 88.93 103.36 72 99.76 67.33 100.69 49.25 104.31 31.16 107.92 10.98 111.96 11.34 132.53 11.41 136.32 11.38 136.32 11.4 137.72 11.44 139.72 11.7 154.91 11.75 157.81 11.78 157.81 11.85 161.59 12.23 183.65 34.29 184.02 50.38 184.3 66.47 184.57 73.68 184.69 70.25 190.04 70.23 190.03 69.47 191.2 68.38 192.88 60.1 205.63 58.52 208.06 58.55 208.07 56.49 211.25 54.4 214.47 52.87 214.21 53.72 217.88 56.07 218.28 59.41 213.14"/><polygon class="cls-2" points="75.31 223.47 77.37 220.29 77.39 220.31 79.9 216.45 86.6 206.14 89.1 202.28 89.07 202.26 102.15 181.84 114.25 162.94 91.81 162.56 66.85 162.14 50.76 161.86 34.67 161.59 34.29 161.58 34.28 161.2 34.22 157.42 34.25 157.42 34.17 152.82 33.95 140.52 33.87 135.92 33.84 135.93 33.78 132.14 33.74 130.29 35.56 129.92 53.65 126.31 71.73 122.69 71.86 122.67 84.27 125.31 84.26 125.34 88.76 126.29 100.79 128.85 105.29 129.81 105.3 129.78 117.6 132.39 132.25 143.16 147 154 164.22 166.66 178.53 150.78 181.06 147.96 181.08 147.99 184.16 144.57 192.39 135.43 195.47 132.01 195.44 131.99 197.97 129.18 212.16 113.42 198.17 97.5 186.76 84.52 175.35 71.54 172.97 68.83 174.61 65.61 176.33 62.24 176.36 62.26 178.44 58.16 184.03 47.2 186.12 43.1 186.09 43.08 187.81 39.71 189.48 36.43 193.15 36.74 210.73 38.21 226.18 39.5 234.52 47.01 234.5 47.04 237.91 50.11 247.06 58.34 250.47 61.42 250.5 61.4 258.87 68.94 259.04 69.77 263.06 89.94 267.07 110.11 271.09 130.28 275.38 151.86 297.12 148.42 300.85 147.83 300.86 147.86 305.4 147.14 317.55 145.22 322.09 144.5 322.09 144.47 325.82 143.88 347.43 140.45 345.12 118.7 343.28 101.41 342.14 90.65 338.69 91.06 339.83 101.78 341.66 119.07 343.62 137.54 325.28 140.44 320.55 141.19 320.56 141.2 320.06 141.28 320.06 141.28 318.68 141.5 311.96 142.56 309.12 138.05 305.96 138.55 302.41 139.11 301.02 139.33 299.54 139.56 300.09 143.02 301.57 142.79 302.95 142.57 307.4 141.87 308.21 143.15 303.17 143.95 301.79 144.17 301.3 144.25 301.29 144.24 296.57 144.99 278.14 147.91 274.5 129.61 270.48 109.43 266.46 89.26 262.45 69.09 262.06 67.13 252.08 58.15 252.07 58.15 251.7 57.82 251.7 57.82 250.66 56.88 245.61 52.33 247.33 47.28 244.95 45.14 242.27 42.73 241.23 41.8 240.12 40.79 237.78 43.4 238.89 44.4 239.93 45.34 243.28 48.35 242.78 49.79 238.99 46.38 237.95 45.44 237.58 45.1 237.59 45.1 227.63 36.14 227.13 36.09 211.02 34.74 193.44 33.27 187.44 32.77 184.71 38.13 182.54 42.4 182.54 42.4 182.32 42.84 181.68 44.09 178.59 50.15 173.28 49.8 171.82 52.65 170.19 55.86 169.55 57.1 168.87 58.44 171.99 60.03 172.67 58.69 173.31 57.45 175.35 53.44 176.87 53.54 174.56 58.08 173.92 59.33 173.69 59.77 173.68 59.77 171.51 64.03 168.8 69.35 172.74 73.83 184.15 86.81 195.56 99.8 207.5 113.4 195.39 126.85 192.19 130.4 192.2 130.41 191.86 130.78 191.86 130.78 190.93 131.82 186.38 136.87 181.33 135.16 179.19 137.53 176.78 140.21 175.84 141.25 174.84 142.37 177.44 144.71 178.44 143.59 179.38 142.55 182.39 139.21 183.83 139.7 180.42 143.49 179.48 144.53 179.15 144.9 179.14 144.89 175.94 148.45 163.75 161.99 149.06 151.2 134.31 140.36 119.63 129.57 119.06 129.15 105.04 126.17 105.04 126.18 104.55 126.07 104.55 126.07 103.18 125.78 96.53 124.37 95.49 119.14 92.36 118.47 88.84 117.72 87.47 117.43 86 117.12 85.28 120.55 86.75 120.86 88.11 121.15 92.52 122.08 92.81 123.58 87.82 122.52 86.45 122.23 85.97 122.12 85.97 122.11 71.88 119.12 71.05 119.28 52.97 122.9 34.88 126.52 30.22 127.45 30.3 132.2 30.38 136.99 30.39 136.99 30.4 137.49 30.4 137.49 30.43 138.88 30.54 145.68 25.68 147.87 25.74 151.07 25.8 154.67 25.82 156.07 25.85 157.57 29.35 157.51 29.32 156.01 29.3 154.61 29.22 150.11 30.61 149.48 30.7 154.58 30.72 155.98 30.73 156.48 30.72 156.48 30.81 161.26 30.87 165 34.61 165.07 50.7 165.34 66.79 165.61 89 165.99 107.96 166.31 97.74 182.28 85.64 201.17 85.65 201.17 85.35 201.63 85.35 201.63 84.59 202.81 80.89 208.51 75.63 207.6 73.89 210.28 71.93 213.31 71.17 214.48 70.35 215.74 73.28 217.64 74.1 216.38 74.86 215.21 77.31 211.44 78.81 211.7 76.04 215.97 75.28 217.15 75 217.57 75 217.56 72.39 221.57 63.51 235.25 57.51 234.23 58.37 237.9 65.18 239.06 75.31 223.47"/><polygon class="cls-1" points="236.81 14.91 174.6 9.71 142.53 72.64 178.18 113.22 160.74 132.58 128.23 108.69 72.01 96.75 7.99 109.54 9.33 186.55 68.33 187.56 52.98 211.23 52.14 211.09 52.87 214.21 54.4 214.47 56.49 211.25 58.55 208.07 58.52 208.06 60.1 205.63 68.38 192.88 69.47 191.2 70.23 190.03 70.25 190.04 73.68 184.69 66.47 184.57 50.38 184.3 34.29 184.02 12.23 183.65 11.85 161.59 11.78 157.81 11.75 157.81 11.7 154.91 11.44 139.72 11.4 137.72 11.38 136.32 11.41 136.32 11.34 132.53 10.98 111.96 31.16 107.92 49.25 104.31 67.33 100.69 72 99.76 88.93 103.36 88.94 103.33 91.77 103.93 106.64 107.09 108.6 107.51 109.97 107.8 109.96 107.83 127 111.45 130.7 114.18 145.54 125.08 160.29 135.92 161.14 136.55 161.85 135.76 164.38 132.95 164.36 132.93 166.3 130.78 176.47 119.48 177.81 117.99 178.75 116.95 178.77 116.97 181.3 114.16 182.13 113.24 181.31 112.31 169.91 99.33 158.5 86.34 146.07 72.2 154.62 55.42 156.34 52.05 156.31 52.04 157.63 49.46 164.53 35.91 165.43 34.13 166.07 32.88 166.1 32.9 167.81 29.53 176.33 12.82 195.02 14.38 212.6 15.85 232.31 17.5 235.58 17.77 249.53 30.34 249.55 30.32 251.71 32.26 263 42.43 264.49 43.77 265.53 44.7 265.51 44.73 279.42 57.26 281.04 65.39 285.06 85.56 289.08 105.73 293.09 125.9 293.18 126.33 293.61 126.26 297.34 125.67 297.34 125.64 300.2 125.19 315.21 122.81 317.19 122.5 318.57 122.28 318.58 122.31 322.31 121.72 322.87 121.63 322.81 121.07 320.97 103.78 319.87 93.33 316.93 93.69 319.63 119.15 295.52 122.97 282.13 55.72 236.81 14.91"/><path class="cls-1" d="M72.39,221.57l2.6-4h0l0.27-.42L76,216l2.78-4.28-1.5-.26-2.45,3.77-0.76,1.17-0.82,1.26-2.94-1.91,0.82-1.26,0.76-1.17,2-3,1.74-2.68,5.25,0.91,3.7-5.7,0.76-1.17h0l0.3-.46h0l12.09-18.89,10.22-16L89,166l-22.22-.38-16.09-.27-16.09-.27L30.87,165l-0.07-3.74-0.08-4.78h0V156l0-1.4-0.09-5.1-1.39.62,0.08,4.5,0,1.4,0,1.5-3.5.06,0-1.5,0-1.4-0.06-3.6-0.06-3.2,4.86-2.19-0.12-6.8,0-1.4h0V137h0L30.3,132.2l-0.08-4.76,4.67-.93L53,122.9,71,119.28l0.83-.17,14.09,3h0l0.49,0.1,1.37,0.29,5,1.06-0.3-1.49-4.4-.94-1.37-.29-1.47-.31L86,117.12l1.47,0.31,1.37,0.29,3.52,0.75,3.13,0.67,1,5.23,6.65,1.41,1.37,0.29h0l0.49,0.1h0l14,3,0.57,0.42,14.68,10.79,14.75,10.84L163.75,162l12.2-13.55,3.2-3.55h0l0.33-.37,0.94-1,3.41-3.79-1.44-.49-3,3.34-0.94,1-1,1.11-2.6-2.34,1-1.11,0.94-1,2.41-2.68,2.14-2.38,5,1.72,4.55-5.05,0.94-1h0l0.33-.37h0l3.2-3.55L207.5,113.4,195.55,99.8l-11.41-13-11.41-13-3.94-4.48L171.51,64l2.17-4.26h0l0.23-.45,0.64-1.25,2.32-4.54-1.52-.1-2,4-0.64,1.25L172,60l-3.12-1.59,0.68-1.34,0.64-1.25,1.63-3.21,1.45-2.85,5.32,0.35,3.09-6.06,0.64-1.25,0.23-.45h0l2.17-4.26,2.73-5.36,6,0.5L211,34.75l16.11,1.35,0.51,0,10,9h0L238,45.44l1,0.94,3.79,3.41,0.49-1.44-3.34-3-1-.94-1.11-1,2.34-2.6,1.11,1,1,0.94,2.68,2.41,2.38,2.14-1.72,5,5.05,4.55,1,0.94h0l0.37,0.33h0l10,9,0.39,2,4,20.17,4,20.17,4,20.17,3.64,18.3L296.57,145l4.72-.75h0l0.49-.08,1.38-.22,5-.8-0.81-1.29-4.44.7-1.38.22-1.48.23-0.55-3.46,1.48-.23,1.38-.22,3.56-.56,3.16-.5,2.84,4.51,6.72-1.06,1.38-.22h0l0.49-.08h0l4.72-.75,18.34-2.91-2-18.47-1.83-17.29-1.14-10.71-5.92.71,1.13,10.63,1.83,17.29,1.36,12.84-12.75,2-4.72.75v0l-0.49.08-4.84.77-0.55-3.46,4.84-.77,1.48-.23v0.05l3.74-.59,9.49-1.5-1-9.55-1.83-17.29-1.12-10.58-1.15.14,1.12,10.56,1.83,17.29,0.9,8.46-8.4,1.33-3.74.59h0l-1.48.23-4.84.77L313,128.12l4.84-.77,1.48-.23v0l3.74-.59,5.14-.81-0.55-5.17-1.83-17.29-1.12-10.51-1.4.17,1.11,10.49,1.83,17.29,0.41,3.84-3.82.6-4.72.75h0l-0.3,0-3.85.61-2.57.41-2.07.33,0.7,4.44,3.72,5.59,0.69-.11,3.46-.55,1.38-.22,1.48-.23,0.55,3.46-1.48.23-1.38.22-6.32,1-5.43-8.05-0.83-5.23-0.3,0-1.28.2-4.94.78-0.49.08h0l-4.72.75-3.73.59-0.74-3.7-4-20.17-4-20.17-4-20.17-1.39-7-13.8-12.43h0l-0.22-.2-2.9-2.61-1.93-1.74-1.56-1.41-3,3.34-2,6.41,0.52,0.47,2.6,2.34,1,0.94,1.11,1-2.34,2.6-1.11-1-1-.94-4.76-4.28,2.84-9.28,3.55-3.94-0.22-.2-1-.87-3.72-3.35L248,33.59h0L234.12,21.14l-2.76-.23-19-1.59-17.58-1.47-16.36-1.37-7.45,14.63-2.17,4.26h0l-0.14.27-1.77,3.47-1.18,2.32-1,1.87,4,2,6.71,0.27,0.32-.62,1.59-3.12L178,40.62l0.68-1.34,3.12,1.59-0.68,1.34-0.64,1.25-2.91,5.7-9.7-.34-4.72-2.41-0.14.27-0.59,1.16-2.27,4.46-0.23.45h0L157.72,57l-7.48,14.67L161.11,84l11.41,13,11.41,13,2.86,3.26-2.9,3.22-3.2,3.55h0l-0.2.22-2.61,2.9-1.74,1.93-1.41,1.56,3.34,3,6.41,2,0.47-.52,2.34-2.6,0.94-1,1-1.11,2.6,2.34-1,1.11-0.94,1-4.28,4.76-9.28-2.84-3.94-3.55-0.2.22-0.87,1L168,134.16l-0.33.37h0l-3.2,3.55-2.82,3.13-3.39-2.49-14.75-10.84L128.67,117l-3.13-2.3L108.26,111h0L108,111l-3.81-.81-2.54-.54-2.05-.44-0.94,4.4,1.47,6.55,0.68,0.15L104.2,121l1.37,0.29,1.47,0.31L106.31,125l-1.47-.31-1.37-.29-6.26-1.33L95,113.62l1.1-5.18-0.29-.06-1.27-.27-4.89-1-0.49-.1h0L72,103.31l-4,.79-18.08,3.61-18.08,3.61L14.51,114.8l0.31,17.68,0.08,4.78h0v0.3l0.07,3.9,0,2.6,0,2.1,4.5-.08,6.05-2.91v-0.7L25.53,139l0-1.4,0-1.5L29,136l0,1.5,0,1.4,0.11,6.4-8.73,4.25-5.3.09V150l0,1.3,0.09,5v0.5h0l0.08,4.78,0.33,18.69,18.69,0.32,16.09,0.27,16.09,0.27,10,0.17L80,181.32l-1.88,2.93-5.49,8.57h0l-0.14.21-2.12,3.27-1.42,2.18-1.14,1.76,3.77,2.45,6.64,1,0.38-.59,1.91-2.94L81.24,199l0.82-1.26L85,199.61l-0.82,1.26L83.41,202l-3.49,5.37-9.61-1.35-4.44-2.89-0.16.25L65,204.51l-2.72,4.19-0.27.42h0l-2.6,4-3.34,5.14-2.35-.4,0.34,1.49,2.68,0.46,3.84-5.92,2.06-3.17h0l0.82-1.26,2.72-4.19,2.94,1.91-2.72,4.19-0.82,1.26h0L63.5,215.8l-5.09,7.83-3.5-.59,0.28,1.23L59,224.9l5.5-8.47,2.06-3.17,0,0L67.31,212,70,207.78,73,209.69l-2.72,4.19L70,214.3l0,0-2.6,4-6.75,10.39-4.59-.78,1.46,6.3,6,1ZM257.49,44.06l3.64,3.28,1.11,1h0L275,59.8l1.3,6.54,4,20.17,4,20.17,4,20.17,1,5,5.07-.8,3.74-.59v0l1.48-.23,4.94-.78,0.55,3.46-4.94.78-1.48.23h0l-3.74.59-8.37,1.33-1.65-8.31-4-20.17-4-20.17-4-20.17-1.08-5.41L259.91,50.94h0l-1.11-1-3.64-3.28Zm-1.43,9.65,0,0-0.37-.33-3.64-3.28,2.34-2.6,3.64,3.28,1.11,1,0,0L270.7,62.21l1,5,4,20.17,4,20.17,4,20.17,1.87,9.4,9.47-1.5,3.74-.59V135l1.48-.23,4.94-.78,0.55,3.46-4.94.78-0.49.08v0l-4.72.75-12.77,2-2.52-12.68-4-20.17-4-20.17-4-20.17L267.52,64ZM167.53,40.81l2.22-4.37,0.68-1.34h0l1.72-3.37,7-13.79,15.42,1.29,17.58,1.47L231,22.29l2.56,0.21L246.26,34h0l1.11,1,3.72,3.35-2.34,2.6L245,37.56l-1.11-1h0L232.07,25.87,230,25.7,211.9,24.18l-17.58-1.47-13.09-1.1-6,11.71-1.72,3.37h0L172.87,38l-2.22,4.37Zm9.7-1.12h0l-0.23.45-2.22,4.37-3.12-1.59,2.22-4.37,0.68-1.34,0,0,1.72-3.37,5.61-11,12.32,1,17.58,1.47,17.9,1.5L231.59,27l11.57,10.42,0,0,1.11,1L248,41.72l-2.34,2.6L242,41l-0.37-.33,0,0L230.13,30.36l-1.38-.12L211.51,28.8l-17.58-1.47-10-.84-4.55,8.93ZM178.1,125l3.28-3.64,1-1.11h0l2.53-2.81,3.74-4.15-3.69-4.2-11.41-13-11.41-13L151.93,71.47l7-13.82,1.72-3.37h0l0.68-1.34,2.27-4.46,3.12,1.59-2.27,4.46-0.68,1.34h0l-1.72,3.37-6,11.72,8.68,9.88,11.41,13,11.41,13,5.73,6.52-5.81,6.45L185,122.57h0l-1,1.11-3.28,3.64Zm9.65,1.43,0,0-0.33.37-3.28,3.64-2.6-2.34,3.28-3.64,1-1.11,0,0,2.53-2.81,6.5-7.21L188.46,106,177.06,93l-11.41-13-8.16-9.29,5.62-11,1.72-3.37,0,0L165.45,55l2.27-4.46,3.12,1.59-2.27,4.46-0.23.45h0l-2.17,4.26-4.54,8.92,6.61,7.52,11.41,13,11.41,13,8.45,9.62L191,122.86ZM102,114.69l0.73-3.42,4.79,1,1.47,0.31v0l16,3.4,2.9,2.13L142.65,129l14.75,10.84,4.42,3.25,3.67-4.07,2.53-2.81h0l1-1.11,3.35-3.72,2.6,2.34-3.35,3.72-1,1.11h0l-2.53,2.81-5.78,6.41-7-5.11-14.75-10.84L125.82,121l-2.33-1.71L108.22,116h0l-1.47-.31Zm21.15,10-1.56-1.15-15.28-3.25v0l-0.49-.1-4.79-1,0.73-3.42,4.79,1,1.47,0.31v0.05l15,3.19,2.13,1.57,14.76,10.85,14.75,10.84,7.8,5.73,6.48-7.19,2.53-2.81,0,0,1-1.11,3.35-3.72,2.6,2.34L175,140.51l-0.33.37,0,0-3.2,3.55L162.93,154l-10.34-7.6-14.75-10.84ZM16.39,142.63l-0.09-4.9,0-1.5h0l-0.07-3.78-0.29-16.5,16.18-3.24,18.08-3.62,18.08-3.61,3.68-.73,16,3.39v0l1.47,0.31,4.89,1-0.73,3.42-4.89-1-1.47-.31h0L71.94,108.3l-3,.59-18.08,3.61L32.8,116.12l-13.34,2.67,0.24,13.6,0.07,3.78h0l0,1.5,0.09,4.9Zm8-5.54h0v0.5l0.09,4.9-3.5.06-0.09-4.9,0-1.5h0.05l-0.07-3.78-0.22-12.63L33,117.26l18.08-3.61L69.2,110l2.74-.55,15,3.19v-0.05l1.47,0.31,4.89,1-0.73,3.42-4.89-1-0.49-.1v0L71.91,113l-2,.41L51.8,117.05l-18.08,3.61-9.54,1.91,0.17,9.73Zm46.43,61L73.53,194l0.82-1.26h0l5.53-8.63L82.51,180l-4.88-.08-11.08-.19-16.09-.27-16.09-.27L17,178.84l-0.3-17.34-0.07-3.78h0l0-1.5-0.09-5,3.5-.06,0.09,5,0,1.5h0l0.07,3.78,0.24,14,14,0.24,16.09,0.27,16.09,0.27,13.83,0.24,8.36,0.14-4.51,7-7,11h0l-0.82,1.26L73.79,200Zm9.77-.11,0,0-0.28.43-2.67,4.11-2.94-1.91,2.67-4.11,0.82-1.26,0,0,7.52-11.74,5.13-8-9.52-.16-14.75-.25-16.09-.27-16.09-.27-12.86-.22-0.22-12.86-0.07-3.78H21.25l0-1.5-0.09-5,3.5-.06,0.09,5v0.5h0l0.08,4.78,0.17,9.5,9.5,0.16L50.6,171.3l16.09,0.27,17.5,0.3,13,0.22-7,10.95Z"/><polygon class="cls-1" points="343.28 101.41 345.12 118.7 347.43 140.45 325.82 143.88 322.09 144.47 322.09 144.5 317.55 145.22 305.4 147.14 300.86 147.86 300.85 147.83 297.12 148.42 275.38 151.86 271.09 130.28 267.07 110.11 263.06 89.94 259.04 69.77 258.87 68.94 250.5 61.4 250.47 61.42 247.06 58.34 237.91 50.11 234.5 47.04 234.52 47.01 226.18 39.5 210.73 38.21 193.15 36.74 189.48 36.43 187.81 39.71 186.09 43.08 186.12 43.1 184.03 47.2 178.44 58.16 176.36 62.26 176.33 62.24 174.61 65.61 172.97 68.83 175.35 71.54 186.76 84.52 198.17 97.5 212.16 113.42 197.97 129.18 195.44 131.99 195.47 132.01 192.39 135.43 184.16 144.57 181.08 147.99 181.06 147.96 178.53 150.78 164.22 166.66 147 154 132.25 143.16 117.6 132.39 105.3 129.78 105.29 129.81 100.79 128.85 88.76 126.29 84.26 125.34 84.27 125.31 71.86 122.67 71.73 122.69 53.65 126.31 35.56 129.92 33.74 130.29 33.78 132.14 33.84 135.93 33.87 135.92 33.95 140.52 34.17 152.82 34.25 157.42 34.22 157.42 34.28 161.2 34.29 161.58 34.67 161.59 50.76 161.86 66.85 162.14 91.81 162.56 114.25 162.94 102.15 181.84 89.07 202.26 89.1 202.28 86.6 206.14 79.9 216.45 77.39 220.31 77.37 220.29 75.31 223.47 65.18 239.06 58.37 237.9 59.09 241.02 66.6 242.3 91.06 204.63 119.59 160.08 37.2 158.68 36.74 132.7 71.84 125.69 116.37 135.15 164.63 170.63 216.11 113.45 176.52 68.38 191.21 39.54 224.94 42.37 256.17 70.48 273.04 155.23 350.66 142.93 345.08 90.29 342.14 90.65 343.28 101.41"/><path class="cls-1" d="M312.65,164.8L294.5,196.42,106.16,210.57l-16.79,2.37,0.42,2.93,9.27-1.32,6.37-.91c0.87-.14,1.57-0.14,2.08-0.2l0.79-.06L126.56,212l18.27-1.37,18.27-1.37,18.27-1.37,18.27-1.37,18.27-1.37,18.27-1.37,18.27-1.37L272.73,201,291,199.65l5.28-.4,2.62-4.57,1.88-3.28,0,0,1.44-2.52,7.57-13.18,1-1.73,0.7-1.21,0,0,1.88-3.28,2.62-4.56-2.31-4.72-3.09-6.3-3.09.41Z"/><path class="cls-1" d="M332.84,180.64L331,183.92l0,0-2.29,4-6.12,10.67-2.29,4,0,0-1.88,3.28-8.54,14.89L292.73,222l-18.2,1.37-18.2,1.37-18.2,1.37-18.2,1.37-18.2,1.37-18.2,1.37-18.2,1.37L147.11,233l-18.2,1.37-18.2,1.37-0.78.06c-0.49.05-1.23,0.05-2,.19l-6.08.87L93,238.08,93.39,241l15.37-2.2,202.85-15.24,33.12-57.71-7.61-15.52-3.09.41,7.35,15Z"/><path class="cls-1" d="M319.93,165l-3.54,6.16L314,175.35h0l-0.15.26L311.91,179l-1.29,2.26-1,1.82,3.9,2.24,6.68,0.61,0.35-.61,1.74-3,0.7-1.21,0.75-1.3,3,1.74L326,182.8l-0.7,1.21-3.19,5.55-9.67-.82-4.6-2.64-0.15.26L307,187.49l-2.49,4.34-0.25.43h0l-2.38,4.15-3.54,6.17-7.11.53L273,204.49l-18.26,1.37-18.26,1.37-18.26,1.37L200,210l-18.26,1.37-18.26,1.37-18.26,1.37-18.26,1.37-18.26,1.37-0.78.06c-0.5.05-1.21,0.05-2.07,0.19l-6.32.9-9.2,1.32,0.2,1.39,9.17-1.31,6.31-.9c0.86-.14,1.57-0.14,2.07-0.19l0.78-.06,18.26-1.37,18.26-1.37,18.26-1.37,18.26-1.37,18.26-1.37L218.36,210l18.26-1.37,18.26-1.37,18.26-1.37,18.26-1.37,7.85-.59,3.91-6.82,1.88-3.28h0l0.75-1.3,2.49-4.34,3,1.74-2.49,4.34-0.75,1.3h0l-1.88,3.28-4.83,8.42-9.68.73-18.25,1.37-18.25,1.37-18.25,1.37-18.25,1.37-18.25,1.37-18.25,1.37-18.25,1.37L145.68,219l-18.25,1.37-18.25,1.37-0.78.06c-0.5.05-1.21,0.05-2.07,0.19l-6.26.9L91,224.14l0.16,1.15,9.08-1.3,6.25-.89c0.85-.14,1.57-0.14,2.06-0.19l0.78-.06,18.24-1.37,18.24-1.37L164,218.73l18.24-1.37L200.53,216l18.24-1.37L237,213.25l18.24-1.37,18.24-1.37,18.24-1.37,10.29-.77,5.14-8.95,1.88-3.28,0,0,0.75-1.3,2.49-4.34,3,1.74-2.49,4.34-0.25.43h0l-2.38,4.15-6.05,10.55-12.12.91L273.77,214l-18.23,1.37-18.23,1.37-18.23,1.37-18.23,1.37-18.23,1.37-18.23,1.37-18.23,1.37-18.23,1.37-18.23,1.37-0.78.06c-0.5.05-1.22,0.05-2.06,0.19l-6.2.89-9,1.29,0.84,5.9,8.9-1.28,6.12-.88c0.83-.14,1.56-0.14,2.05-0.19l0.78-.06,18.21-1.37,18.21-1.37L165,228.13l18.21-1.37,18.21-1.37L219.61,224l18.21-1.37L256,221.29l18.21-1.37,18.21-1.37,15.26-1.15,7.63-13.29,2.38-4.15h0l0.25-.43,0.7-1.21,2.54-4.42-1.51-.18-2.24,3.9-0.7,1.21-0.75,1.3-3-1.74,0.75-1.3,0.7-1.21,1.79-3.12,1.59-2.78,5.3,0.62,3.38-5.9,0.7-1.21h0l0.25-.43h0l2.38-4.15,7.63-13.3-6.75-13.77-0.3-.61-6.23.84,1.18,2.4,5.35,10.92-6.05,10.55-2.38,4.15h0l-0.25.43-2.44,4.25-3-1.74,2.44-4.25,0.75-1.3,0,0,1.88-3.28,5.13-8.95L322.23,156l-1.69-3.44-1.21.16,1.86,3.79,4.27,8.71-4.83,8.41-1.88,3.28h0l-0.75,1.3-2.44,4.25-3-1.74,2.44-4.25,0.75-1.3h0l1.88-3.28,3.91-6.81L318.06,158l-2.37-4.83-1.47.2,2.58,5.26Z"/></svg>