<svg id="Layer_2" data-name="Layer 2" xmlns="http://www.w3.org/2000/svg" viewBox="0 0 364 292"><title>SUN-MOON-PCB</title><path d="M111.71,95.07l60.19,14.2,0,0.23,72.69,17.84v0.06l1.4,0.28,0.22,0.05h0l38.85,7.87,0.4-2-39-7.89,5.86-41.81L241.61,54.09l24-8.84,18.17,30.83,5.71,45.16-4.2,13.65,2.84,0.81,4.37-14.21L290.93,109h0l-0.58-4.56-1.54-12.2L288.2,87.7h0l-1.59-12.59L286.58,75l-9.36-15.89-9.36-15.89-0.94-1.6-1.74.64-3.55,1.31v0l-4.32,1.59-11.54,4.25L241.45,51v0l-3.55,1.31-0.06,0,0,0.06,7.63,21.12,3.88,10.74-2.47,17.62-3.12,22.22-19.35-4.75-7.28-1.79v0l-4.47-1.1-11.95-2.93-4.47-1.1v0l-3.67-.9-18.06-4.43-3.09-18.34-3.7-22-0.57-3.37-3.35-.64-3.71-.71v0l-4.52-.86-12.08-2.3L139,58.07v0l-3.71-.71-3.33-.63-1.74,2.9-8.81,14.7-9.6,16-1.17,2-15,9.42,0,0-3.89,2.45-10.41,6.56-3.89,2.45,0,0-15.05,9.48-6.17.46L36.9,124.55l-11.69.88,0,3,38.12-2.86ZM133.42,60l31.18,5.94,6.94,41.2L113.38,93.41Z"/><path d="M54.56,100.73l0.61,0,10.33-6.51,0,0,2.45-1.55L80.8,84.5l1.69-1.07,1.18-.75,0,0,10.43-6.57,8-13.38L111,48.06l9.8-16.34,18.71,3.57L143.19,36v0L146,36.51,161,39.35l2,0.37L164.31,40v0L168,40.73l18.69,3.56L189.87,63l3.7,22,0.64,3.79,3.73,0.92,3.67,0.9v0l2.82,0.69,14.76,3.62,1.94,0.48,1.36,0.33v0l0.07,0,2.44,0.6,1.37-9.74-2-5.51L216.75,60l-7.6-21,21-7.73,3.55-1.31v0l2.72-1,14.26-5.25,1.88-.69,1.31-.48v0l3.55-1.31,19.31-7.11,10.45,17.73,9.36,15.89,9.36,15.89,2.41,4.1,2.17,17.18h0l0.36,2.88,1.91,15.08,0.25,2,0.18,1.39h0l2.19,17.28-1.35,4.4-4.31,14,2.84,0.81,5.83-18.95-7.21-57L278,10.47,205.37,37.22l0,0-17,4.34-69.1-13.17L92,74,54.22,97.79,24.92,100l0,3,10.27-.77ZM223.34,87l-0.81,5.77L196.8,86.42l-7.09-42.06,16.7-4.26Z"/><path d="M56,119.63l5.31-.4,15.17-9.55h0l0.42-.27,1.18-.75L82.39,106l-1.25-.86-3.81,2.4-1.18.75-1.27.8-1.87-3,1.27-.8,1.18-.75,3-1.92,2.71-1.71,4.39,3,5.75-3.62,1.18-.75h0L93,99.3h0l15.1-9.51,1-1.65,9.36-15.61,8.81-14.7,3-5,5.71,1.09,4.7,0.9h0l0.49,0.09,1.38,0.26,5,1-0.33-1.49-4.42-.84-1.38-.26-1.47-.28,0.66-3.44L142,50.1l1.38,0.26L146.94,51l3.14,0.6,1.15,5.21,6.68,1.27,1.38,0.26h0l0.49,0.09h0l4.7,0.9,5.73,1.09,1,5.75,3.7,22,2.71,16.08,15.84,3.89,4.64,1.14h0l0.49,0.12,1.36,0.33,5,1.22-0.25-1.5-4.37-1.07-1.36-.33-1.46-.36,0.83-3.4,1.46,0.36,1.36,0.33,3.5,0.86,3.11,0.76,0.87,5.26,6.6,1.62,1.36,0.33h0L217,114h0l7.13,1.75,16.73,4.11L243.5,101l2.3-16.4-3.59-9.93-7.63-21.12-1.2-3.31L236.69,49l4.49-1.65h0l0.47-.17,1.31-.48L247.75,45l-1-1.11-4.22,1.55-1.31.48-1.41.52-1.21-3.28,1.41-.52,1.31-.48,3.38-1.24,3-1.11,3.66,3.87,6.38-2.35,1.31-.48h0l0.47-.17h0L264,39l4.46-1.64,2.42,4.1,9.36,15.89,9.36,15.89L290,74l1.81,14.29h0l0.06,0.5L292,90.13l0.64,5.06,1.31-.77L293.43,90l-0.18-1.39-0.19-1.49,3.47-.44,0.19,1.49,0.18,1.39,0.45,3.57,0.4,3.17-4.6,2.7,0.85,6.75,0.18,1.39h0l0.06,0.5h0l1.8,14.22-0.21.68-4.36,14.17,5.73,1.64,4.35-14.12,0.57-1.85-2-15.49h0l-0.06-.5-0.61-4.86L303,101l0.61,4.86,0.19,1.49h-0.05l1.93,15.24-0.78,2.53-4.34,14.09,1.12,0.32L306,125.51l0.85-2.76-2-15.49h0l-0.19-1.49-0.61-4.86,3.47-.44,0.61,4.86,0.19,1.49h0l2.05,16.24-1.06,3.44-4.32,14,1.35,0.39,4.32-14,1.14-3.71-2.22-17.53h0l0-.3-0.49-3.87-0.33-2.58-0.26-2.08-4.46.56-5.7,3.54,0.09,0.69,0.44,3.47,0.18,1.39,0.19,1.49-3.47.44-0.19-1.49-0.18-1.39-0.8-6.35L302.81,94l5.26-.67,0-.3-0.16-1.29-0.63-5-0.06-.5h0L305,68.85l-2.05-3.48-9.36-15.89L284.18,33.6l-9-15.23-16.59,6.11-4.49,1.65h0l-0.28.1-3.66,1.35-2.44.9-2,.73,1.55,4.22,4.73,4.76,0.66-.24L256,36.72l1.31-.48,1.41-.52L259.94,39l-1.41.52-1.31.48-6,2.21-6.89-6.84-1.83-5-0.28.1L241,31l-4.69,1.73-0.47.17h0l-4.49,1.65L213.6,41,220,58.83,227.65,80l2.28,6.32-1.54,11-0.48,3.44-5.06-1.24-2.16-.53h0l-0.29-.07-3.79-.93-2.53-.62-2-.5L211,101.15l1.27,6.59,0.68,0.17,3.4,0.83,1.36,0.33,1.46,0.36-0.83,3.4-1.46-.36-1.36-.33-6.22-1.53-1.88-9.52,1.26-5.15-0.29-.07-1.26-.31-4.86-1.19-0.49-.12h0l-4.64-1.14-6-1.46-1-6-3.7-22-2.76-16.37-16.31-3.11-4.7-.9h0l-0.29-.06-3.83-.73L156,42l-2.06-.39L153.09,46l1.61,6.52,0.69,0.13,3.44,0.66,1.38,0.26,1.47,0.28L161,57.28,159.54,57l-1.38-.26-6.29-1.2-2.38-9.41,1-5.21-0.29-.06-1.28-.24L144,39.68l-0.49-.09h0l-4.7-.9-16.33-3.11-8.55,14.26-8.81,14.7L96.86,78.34l-0.18.3-12,7.54h0l-0.25.16-3.3,2.08-2.2,1.39-1.78,1.12,2.4,3.81,5.62,3.67L85.78,98l3-1.87,1.18-.75,1.27-.8,1.87,3-1.27.8-1.18.75-5.42,3.41L77,97.27l-2.83-4.48L74,93l-1.1.69-4.23,2.67-0.42.27h0l-11.91,7.5-1.47.11-19.34,1.45L25,106.44l0,1.41,10.58-.79,19.34-1.45,1.82-.14,11.36-7.16h0l1.27-.8,4.23-2.67,1.87,3-4.23,2.67-1.27.8h0l-12.09,7.62-2.68.2-19.34,1.45-10.8.81v1.16l10.87-.82,19.34-1.45,3-.22,12.33-7.77,0,0,1.27-.8,4.23-2.67,1.87,3-4.23,2.67-0.42.27,0,0L59.37,113.4l-3.83.29-19.34,1.45L25.1,116l0.07,6,11.47-.86ZM249.54,29.29l4.6-1.69,1.41-.52h0l3.55-1.31,15.49-5.7L283,34.31l9.36,15.89,9.36,15.89,1.9,3.23,2,16.18h0L305.85,87l0.63,5-3.47.44-0.63-5-0.19-1.49h0l-2-15.47-1.54-2.61L289.34,52,280,36.07l-6.91-11.72-12.77,4.7-3.55,1.31h0l-1.41.52-4.6,1.69Zm7.88,5.76v0l-0.47.17-4.6,1.69-1.21-3.28,4.6-1.69,1.41-.52,0,0,3.55-1.31,11.86-4.36L279,36.66l9.36,15.89,9.36,15.89,1.42,2.4L301,86.07h0.05l0.19,1.49,0.63,5-3.47.44-0.63-5-0.06-.5h0l-2-15.51-1.05-1.79-9.36-15.89L276,38.43,271,30l-9.13,3.36ZM215.12,99l4.76,1.17,1.46,0.36v0l1.64,0.4,6.12,1.5,0.68-4.84,1.61-11.45L229,79.47l-7.63-21.12-6-16.47,16.44-6.05,3.55-1.31h0l1.41-.52,4.69-1.73,1.21,3.28L238,37.28l-1.41.52h0L233,39.1,219.84,44l4.78,13.22,7.63,21.12,2.7,7.46-1.78,12.67L232,106.71l-8.74-2.15-2.75-.68h0l-1.46-.36-4.76-1.17Zm3.31,9.18v0l-0.49-.12-4.76-1.17,0.83-3.4,4.76,1.17,1.46,0.36V105l3.13,0.77,9.62,2.36,1.32-9.43,1.83-13.08-2.79-7.73L225.7,56.78l-4.38-12.14,12.11-4.46L237,38.88l0,0,1.41-.52,4.69-1.73,1.21,3.28-4.69,1.73-0.47.17v0l-4.49,1.65-8.87,3.26L229,55.6l7.63,21.12,3.09,8.54-2,14.3-1.81,12.87-12.24-3ZM157.11,43.61l4.81,0.92,1.47,0.28v0l3.71,0.71,15.35,2.93,2.6,15.41,3.7,22,1.17,7,6.85,1.68,3.67,0.9v0l1.46,0.36,4.86,1.19-0.83,3.4-4.86-1.19-1.46-.36h0l-3.67-.9-9.07-2.23-1.55-9.21-3.7-22-2.19-13-13-2.47-3.71-.71h0L161.27,48,156.45,47Zm3.78,9v0l-0.49-.09-4.81-.92,0.66-3.44L161.06,49l1.47,0.28v0.05l3.72,0.71,12.18,2.32,2.06,12.23,3.7,22,1.68,10L195.67,99l3.67,0.9V99.84l1.46,0.36,4.86,1.19-0.83,3.4L200,103.59l-0.49-.12v0l-4.64-1.14-12-3-2.06-12.22-3.7-22-1.66-9.84-9.8-1.87Zm-80,37.64L85,87.63l1.27-.8h0l11.41-7.19L98,79.23l8.37-14,8.81-14.7,8-13.41,15.36,2.93,3.71,0.71v0l1.47,0.28L148.66,42,148,45.43l-4.91-.94-1.47-.28h0l-3.72-.71-13-2.47-6.79,11.33-8.81,14.7-8.61,14.37-0.44.73L88.15,89.79h0l-1.27.8-4.15,2.61Zm8.9,4,0,0-0.42.27L85.19,97.1l-1.87-3,4.15-2.61,1.27-.8,0,0L101.12,83l0.5-.83,8.69-14.5L119.13,53l6.38-10.64,12.18,2.32,3.71,0.71V45.3l1.47,0.28,4.91,0.94L147.14,50,142.23,49l-0.49-.09v0l-4.7-.9-9.8-1.87-5.13,8.56-8.81,14.7-8.94,14.91-0.68,1.13Z"/><path d="M311.07,249.56l0.36-.74-1.81-11.35h0l-0.73-4.54-1.94-12.15-0.73-4.54h0l-1.83-11.42-10.76-11.5-12-12.84-2.5-2.67-3.41,1.31-3.53,1.36v0l-4.29,1.65-11.48,4.42-4.29,1.65v0l-3.53,1.36-3.4,1.31-0.05,3.64-0.26,17.39-0.26,17.39-0.26,17.39L244,268.55l-21.86.79-3.78.14v0l-4.6.17-12.29.45-4.6.17v0l-3.78.14-22,.8-1.67-21.94-1.56-20.51-1.56-20.51-1.56-20.51-0.06-.84-7.41-8.5,0,0-3-3.47-8.08-9.27-3-3.47,0,0-7.37-8.46-15.18-3.14L103.36,147l-3.61-.75-2.05,3.06-2.11,3.14,0,0L93,156.29,86.18,166.5l-2.57,3.82,0,0-2.11,3.14-2,3,2,3,9.76,14.26L101,207.93l12,17.49L97,239.36l-2.85,2.49,0,0-3.47,3L81.45,253,78,256l0,0-2.85,2.49L59,272.5,43.42,257.86,30.09,245.32l-2.42-2.27-2,2.19,33.23,31.24,56.48-49.24,53,46.59,0,0.42,78.53-2.86v-1l48.1,5.66-0.08.18,2.73,1.14,4.58-9.52ZM116.91,225.91L83,176.42l18.06-26.86,33.15,6.86,27.61,31.67L168.15,271ZM296,274.18l-49-5.76,1.14-75.49,30.21-11.64,23.29,24.9,6.74,42.2Z"/><path d="M286,148l-65.9,25.4L219,244.05l-24.4.89-5.19-68.37-40.07-46L88.2,117.94,48.79,176.56l0.75,1.1L43.7,225.31l-1,1.09L45.46,229l13.33,12.54,0.77,0.73,0.8-.7,2.85-2.49,0,0,2.19-1.91,11.46-10,1.51-1.31,1.06-.92,0,0,2.85-2.49,0.94-.82-0.7-1-9.76-14.26L63,192.08,52.36,176.54l10.51-15.62L65,157.78l0,0,1.62-2.41L75,142.74l1.12-1.66,0.78-1.16,0,0,2.11-3.14,10.46-15.56,18.36,3.8,17.27,3.58,19.37,4,3.21,0.67,12.34,14.15,0,0,1.91,2.19,10,11.46,1.31,1.51,0.92,1.06,0,0,12.31,14.11,0.63,8.27,1.56,20.51,1.56,20.51,1.56,20.51,0,0.43,0.43,0,3.78-.14v0l2.9-.11,15.19-.55,2-.07,1.4-.05v0l3.78-.14,0.56,0v-0.56L222.18,229l0.26-17.39,0.26-17.39L223,175.4l17.53-6.76,3.53-1.36v0l2.71-1,14.18-5.47,1.87-.72,1.31-.5v0l3.53-1.36,17.53-6.76L298,165.14,310,178l13.28,14.19,2.17,2.32,2.91,18.2h0l0.46,2.86,2.4,15,0.32,2,0.22,1.38h0l2.92,18.28-3.4,7.07-8.81,18.33-4.08,8.5,2.73,1.15,16.62-34.59-9.51-59.51ZM79.28,221.13L59.64,238.25,45.73,225.18l5.51-45Z"/><path d="M328.16,257.77l2.93-6.09-2.91-18.19h0l0-.3-0.62-3.85-0.41-2.57-0.33-2.07-4.44.71-5.58,3.73,0.11,0.69,0.55,3.46,0.22,1.38,0.24,1.48-3.46.55-0.24-1.48L314,233.84l-1-6.32,8-5.44,5.23-.84,0-.3L326,219.66l-0.79-4.94-0.08-.49h0l-2.9-18.14-1.84-2-12.89-13.77-12-12.84-11.23-12-15.34,5.91-4.46,1.72h0l-0.28.11-3.64,1.4-2.43.94-2,.76,1.62,4.2,4.81,4.68,0.65-.25,3.27-1.26,1.31-.5,1.4-.54,1.26,3.27-1.4.54-1.31.5-6,2.3-7-6.74-1.91-4.95-0.28.11-1.21.47L246.7,170l-0.47.18h0l-4.46,1.72-15.34,5.92-0.25,16.44-0.26,17.39L225.66,229l-0.26,17.39-0.06,3.86-3.86.14-4.78.17h-0.3l-3.9.14-2.6.09-2.1.08,0.16,4.5,3,6,0.7,0,3.5-.13,1.4-.05,1.5-.05,0.13,3.5-1.5.05-1.4.05-6.4.23-4.42-8.65L204.3,251H204l-1.3,0-5,.18-0.5,0h0l-4.78.17-3.77.14-0.29-3.77-1.56-20.51-1.56-20.51L183.7,186.3l-0.54-7.12-12.2-14h0l-0.2-.23L168.2,162l-1.71-2-1.38-1.58-3.39,3L159,167.55l0.46,0.53,2.3,2.64,0.92,1.06,1,1.13L161,175.2l-1-1.13L159.08,173l-4.21-4.82,3.94-8.87,4-3.48-0.2-.23-0.85-1-3.29-3.77-0.33-.38h0l-12.23-14-2.72-.56L124.48,132l-17.27-3.58-16.08-3.33L82,138.74l-2.67,4h0l-0.17.25-2.18,3.24-1.45,2.16-1.17,1.74,3.73,2.51,6.62,1.08,0.39-.58,2-2.9L87.81,149l0.84-1.24,2.9,2L90.71,151l-0.78,1.16-3.57,5.31L76.77,156l-4.4-3-0.17.25-0.73,1.08-2.79,4.15-0.28.41h0l-2.67,4-9.19,13.67,9.3,13.59,9.76,14.26,9.76,14.26,2.45,3.58-3.27,2.85L81,228.21h0l-0.23.2L77.78,231l-2,1.71L74.24,234l3,3.39,6.12,2.76,0.53-.46,2.64-2.3,1.06-.92,1.13-1,2.3,2.64-1.13,1-1.06.92L84,244.28l-8.87-3.94-3.48-4-0.23.2-1,.85-3.77,3.29-0.38.33h0l-3.6,3.14-3.17,2.77L56.41,244,43.08,231.51,40.38,229l-0.94,1,2.67,2.51,13.33,12.54,4,3.76,4.13-3.6,2.85-2.49h0l1.13-1,3.77-3.29,2.3,2.64-3.77,3.29-1.13,1h0l-2.85,2.49-6.51,5.67-6.29-5.91L39.73,235.07l-2.62-2.47-0.78.86,2.61,2.45,13.33,12.54,7.05,6.63,7.3-6.36,2.85-2.49,0,0,1.13-1,3.77-3.29,2.3,2.64-3.77,3.29-0.38.33,0,0-3.6,3.14-9.67,8.43L49.89,251,36.56,238.45,34,236l-4,4.42,2.47,2.32,13.33,12.54,13.28,12.49,13.74-12,3.6-3.14h0l0.38-.33,1.06-.92,3.84-3.35-1.37-.66-3.39,3-1.06.92-1.13,1-2.3-2.64,1.13-1,1.06-.92,2.71-2.37,2.41-2.1,4.8,2.31,5.13-4.47,1.06-.92h0l0.38-.33h0l3.6-3.14,13.65-11.9L98.15,209.9l-9.76-14.26-9.76-14.26-3.37-4.92,3.33-5,2.67-4h0l0.28-.41L82.33,166l2.85-4.23-1.5-.28-2.51,3.73-0.78,1.16-0.84,1.24-2.9-2,0.84-1.24,0.78-1.16,2-3,1.79-2.66,5.24,1,3.79-5.64,0.78-1.16,0.28-.41h0l2.67-4,3.36-5,5.89,1.22,17.27,3.58,15.83,3.28,0.5,0.1,8.8,10.1h0l0.33,0.38,0.92,1.06,3.35,3.84,0.66-1.37-3-3.39-0.92-1.06-1-1.13,2.64-2.3,1,1.13,0.92,1.06,2.37,2.71,2.1,2.41-2.31,4.8,4.47,5.13,0.92,1.06h0l0.33,0.38h0l8.82,10.12,0.15,2L169.82,208l1.56,20.51L172.93,249l1.41,18.61,18.65-.68,4.78-.17h0l0.5,0,1.4-.05,5.1-.19-0.65-1.38-4.5.16-1.4.05-1.5.05-0.13-3.5,1.5-.05,1.4-.05,3.6-.13,3.2-.12,2.28,4.82,6.8-.25,1.4-.05h0l0.5,0h0l4.78-.17,18.56-.67,0.28-18.57,0.26-17.39,0.26-17.39,0.26-17.39,0.09-6,5.59-2.16,4.46-1.72h0l0.47-.18,1.31-.5,4.76-1.83L257.27,181l-4.2,1.62-1.31.5-1.4.54-1.26-3.27,1.4-.54,1.31-.5,3.36-1.29,3-1.15,3.72,3.82,6.34-2.45,1.31-.5h0l0.47-.18h0l4.46-1.72,5.6-2.16,4.1,4.38,12,12.84,11.15,11.92,0.34,0.36,2.15,13.46h0l0.08,0.49,0.22,1.38,0.81,5,1.29-.81-0.71-4.44L311.26,217,311,215.47l3.46-.55,0.24,1.48,0.22,1.38,0.57,3.55,0.51,3.16-4.51,2.85,1.07,6.71,0.22,1.38h0l0.08,0.49h0L315,249.34l-0.83,1.72-8.81,18.33-4.5,9.36,5.5,2.31,4.37-9.09,8.81-18.33,1.64-3.4L318.77,235h0l-0.08-.49L318,229.65l3.46-.55,0.77,4.84,0.24,1.48h-0.05l2.45,15.34-2.11,4.38-8.81,18.33-4.29,8.93,1.07,0.45,4.27-8.88,8.81-18.33,2.26-4.71-2.51-15.69h0l-0.24-1.48-0.77-4.84,3.46-.55,0.77,4.84,0.24,1.48h0l2.68,16.77-2.73,5.69-8.81,18.33-4.19,8.72,1.3,0.54,4.16-8.66ZM77.8,232.8l3.69-3.22,1.13-1h0l2.85-2.49,4.21-3.67-3.15-4.61-9.76-14.26L67,189.32l-8.76-12.8,8.66-12.88L69,160.51h0l0.84-1.24,2.79-4.15,2.9,2-2.79,4.15-0.84,1.24h0l-2.11,3.14L62.46,176.5l7.43,10.86,9.76,14.26,9.76,14.26,4.9,7.16-6.54,5.7-2.85,2.49h0l-1.13,1-3.69,3.22Zm-1.23-69-0.28.41,0,0-2.67,4-5.59,8.31,5.65,8.26L83.47,199l9.76,14.26,7.23,10.56-9.65,8.41-3.6,3.14,0,0-0.38.33-3.69,3.22-2.3-2.64,3.69-3.22,1.13-1,0,0,2.85-2.49,7.32-6.38-5.48-8L80.61,201,70.85,186.7l-7-10.21,6.9-10.26,2.11-3.14,0,0,0.84-1.24,2.79-4.15,2.9,2ZM77.44,148l2.73-4.07L81,142.66h0l2.11-3.14,8.63-12.84,15.15,3.14,17.27,3.58,18.46,3.82,2.51,0.52,11.26,12.91h0l1,1.13,3.29,3.77-2.64,2.3-3.29-3.77-1-1.13h0l-10.49-12-2-.42-17.81-3.69-17.27-3.58-12.86-2.66L86,141.47l-2.11,3.14h0l-0.84,1.24-2.73,4.07Zm77.16,12.9-3.29-3.77-0.33-.38,0,0-10.12-11.61-1.35-.28-16.94-3.51-17.27-3.58-9.81-2-5.59,8.32-2.67,4,0,0-0.28.41-2.73,4.07-2.9-2L84,146.47l0.84-1.24,0,0L87,142.11l6.9-10.26,12.1,2.51,17.27,3.58,17.59,3.64,1.85,0.38,10.23,11.74,0,0,1,1.13,3.29,3.77ZM166.36,162l3.22,3.69,1,1.13h0l11.24,12.89,0.51,6.65,1.56,20.51,1.56,20.51L187,247.93l0.39,5.11,5.13-.19,3.78-.14v0l1.5-.05,5-.18,0.13,3.5-5,.18-1.5.05h0l-3.78.14-8.47.31-0.64-8.45-1.56-20.51-1.56-20.51-1.56-20.51-0.42-5.5-10.48-12h0l-1-1.13-3.22-3.69Zm31.7,98.72-0.5,0v0l-4.78.17-12.92.47-1-12.89L177.32,228l-1.56-20.51L174.2,187l-0.3-4-10.13-11.61,0,0-0.33-.38-3.22-3.69,2.64-2.3,3.22,3.69,1,1.13,0,0,10.23,11.73,0.39,5.12,1.56,20.51,1.56,20.51,1.56,20.51,0.73,9.56,9.58-.35,3.78-.14v-0.05l1.5-.05,5-.18,0.13,3.5Zm13.3-8.59,4.9-.18,1.5-.05v0l3.78-.14,5.2-.19,0.08-5.2L227.06,229l0.26-17.39,0.26-17.39,0.23-15.49,14.46-5.57,3.53-1.36h0l1.4-.54,4.67-1.8,1.26,3.27-4.67,1.8-1.4.54h0l-3.53,1.36-12.27,4.73-0.2,13.15L230.8,211.7l-0.26,17.39-0.26,17.39-0.13,8.5-8.5.31-3.78.14h0l-1.5.05-4.9.18Zm38.77-73.32-0.47.18v0l-4.46,1.72-9.35,3.6-0.15,10-0.26,17.39-0.26,17.39-0.26,17.39-0.19,12.91-12.9.47-4.78.17v0l-0.5,0-4.9.18-0.13-3.5,4.9-.18,1.5-.05v0.05l3.78-.14,9.6-.35,0.14-9.6,0.26-17.39L232,211.72l0.26-17.39L232.41,182l11.54-4.45,3.53-1.36,0,0,1.4-.54,4.67-1.8,1.26,3.27Zm9.78-12.45,4.57-1.76,1.4-.54h0l3.53-1.36,14.45-5.57,10.58,11.31,12,12.84,12.73,13.6,1.7,1.82,2.67,16.73h0l0.24,1.48,0.79,4.94-3.46.55-0.79-4.94L320.11,214h0l-2.51-15.68-1.36-1.46L303.91,183.7l-12-12.84-9-9.6L270.65,166l-3.53,1.36h0l-1.4.54-4.57,1.76Zm55.91,49.84-0.08-.49h0l-2.44-15.26-0.91-1-11.82-12.63-12-12.84-6.84-7.32-9.35,3.6L267.85,172v0l-0.47.18-4.57,1.76-1.26-3.27,4.57-1.76,1.4-.54,0,0,3.53-1.36,11.54-4.45,8.45,9,12,12.84,12.21,13,1.25,1.34L319,214.2H319l0.24,1.48,0.79,4.94-3.46.55Z"/></svg>