<?xml version="1.0" encoding="utf-8"?>
<!-- Generator: Adobe Illustrator 19.2.1, SVG Export Plug-In . SVG Version: 6.00 Build 0)  -->
<svg version="1.1" id="Layer_2" xmlns="http://www.w3.org/2000/svg" xmlns:xlink="http://www.w3.org/1999/xlink" x="0px" y="0px"
	 viewBox="0 0 364 292" style="enable-background:new 0 0 364 292;" xml:space="preserve">
<title>SUN-MOON-PCB</title>
<polygon points="161.6,162.2 160.2,162.3 156.4,162.5 154.5,162.6 154.2,164.5 152,181.4 149.7,198.2 147.4,215 145.2,231.8 
	142.3,253.1 120.8,252.1 106.2,251.4 91.2,250.8 68.8,249.8 70.4,227.4 70.6,223.4 70.8,220.5 71.8,205.3 72,203.3 72.1,201.9 
	72.8,191.3 69.9,191 66.2,244.8 52.3,188.9 50.2,188.6 65.5,250.2 65.9,250.1 65.7,252.6 144.9,256.1 145,255.5 176.5,248.3 
	176.5,246.2 145.2,253.4 157.1,165.4 176.5,164.4 176.5,161.4 163.6,162.1 "/>
<path d="M174.9,156.6l-0.2-3.5l1.8-0.1V152l-1.8,0.1l-0.2-3.5l2-0.1v-1.2l-2,0.1l-3.2,0.2l-2.4-4.8l-6.8,0.4l-1.4,0.1h-0.5l-4.8,0.3
	l-17.6,1l-2.4,17.5l-2.3,16.8l-2.3,16.8l-2.3,16.8l-2.3,16.8l-0.6,4.1l-4.1-0.2l-14.7-0.6l-14.5-0.7l-3.5-0.2l0.2-3.5l0.3-4.6v-0.5
	l0.1-1.4l0.3-5.1l-1.4,0.5l-0.3,4.5l-0.1,1.4l-0.1,1.5l-3.5-0.2l0.1-1.5l0.1-1.4l0.2-3.6l0.2-3.2l5-1.8l0.5-6.8l0.1-1.4v-0.5
	l0.7-10.6l-5.8-0.7L85,203.8v0.5l-0.3,4.9l-3.5-0.2l0.3-4.9l0.1-1.5h0l0.7-10l-1.2-0.1l-0.7,10.1l-0.1,1.6l-0.3,4.8l-3.5-0.2
	l0.3-4.9l0.1-1.5l0.7-10.3l-1.4-0.2l-0.8,11.4v0.3l-0.3,3.9l-0.2,2.6l-0.1,2.1l4.5,0.3l6.3-2.4v-0.7l0.2-3.5l0.1-1.4l0.1-1.5
	l3.5,0.2l-0.1,1.5l-0.1,1.4l-0.4,6.4l-9.1,3.5l-5.3-0.4v0.3l-0.1,1.3l-0.3,5v0.5l-0.3,5l-1.3,18.9l18.9,0.8l14.8,0.6l14.7,0.6
	l18.3,0.8l2.5-18.1l2.3-16.8l2.3-16.8l2.3-16.8l2.3-16.8l0.6-4.8l4.8-0.3l4.8-0.3h0.3l3.9-0.2l2.6-0.1l2.1-0.1l-0.2-4.5l-3.1-5.9
	h-0.7l-3.5,0.2l-1.4,0.1l-1.5,0.1l-0.2-3.5l1.5-0.1l1.4-0.1l6.4-0.3l4.6,8.6l0.3,5.3h0.3l1.3-0.1l1.4-0.1v-1.4L174.9,156.6z
	 M166.4,157.2l-4.9,0.3l-1.5,0.1l-3.8,0.2l-6,0.3l-0.8,5.9l-2.3,16.8l-2.3,16.8l-2.3,16.8l-2.3,16.8L138,248l-17-0.8l-14.7-0.7
	l-14.8-0.7L74,245.1l1.2-17.5l0.3-3.9l0.1-1.5l0.3-5l3.5,0.2l-0.3,5l-0.1,1.5l-0.3,3.8l-1,14l14.1,0.6l14.7,0.7l14.7,0.7l13.9,0.7
	l1.9-13.7l2.3-16.8l2.3-16.8l2.3-16.8l2.3-16.8l1.2-8.8l8.8-0.5l3.8-0.2l1.5-0.1l4.9-0.3L166.4,157.2z M160.5,149.3h0.5l4.9-0.3
	l0.2,3.5l-4.9,0.3l-1.5,0.1v-0.1l-3.8,0.2l-9.8,0.5l-1.3,9.7l-2.3,16.8l-2.3,16.8l-2.3,16.8l-2.3,16.8l-1.7,12.7l-12.8-0.6
	l-14.7-0.7l-14.7-0.7L79,240.7l0.9-12.9l0.2-3.8h0l0.1-1.5l0.3-5l3.5,0.2l-0.3,5v0.5l-0.3,4.8l-0.6,9.4l9.4,0.4l14.6,0.7l14.7,0.7
	l9.6,0.4l1.3-9.5l2.3-16.8l2.3-16.8l2.3-16.8l2.3-16.8l1.7-12.6l12.7-0.7L160.5,149.3z"/>
<rect x="33.5" y="250.4" width="5.8" height="5.8"/>
</svg>
