<?xml version="1.0" encoding="utf-8"?>
<!-- Generator: Adobe Illustrator 19.2.1, SVG Export Plug-In . SVG Version: 6.00 Build 0)  -->
<svg version="1.1" id="ELD:_Sun_and_Moon" xmlns="http://www.w3.org/2000/svg" xmlns:xlink="http://www.w3.org/1999/xlink" x="0px"
	 y="0px" viewBox="0 0 766.4 701.8" style="enable-background:new 0 0 766.4 701.8;" xml:space="preserve">
<style type="text/css">
	.st0{fill:#231F20;}
	.st1{fill:#2B3990;stroke:#231F20;stroke-width:9;stroke-miterlimit:10;}
	.st2{fill:#FFF200;stroke:#231F20;stroke-width:9;stroke-miterlimit:10;}
	.st3{fill:#00AEEF;}
	.st4{fill:#0C00FF;}
	.st5{fill:none;stroke:#FFF200;stroke-width:4;}
</style>
<path id="DIF:_SUNSHINE" class="st0" d="M406.2,186.6c-4.1,0-8.3,0.1-12.3,0.5c-0.7,8.5-0.8,21.6,2.8,30.9c0.5,1.2,1,2.3,1.4,3.3
	c-11.8,5-13.9,7.2-15.1,8.3c-4.8,5-7.6,12.2-8,20.8c4.4-0.1,9.7-0.2,16-0.2c55.6,0,100.7,45,100.7,100.5s-45.1,100.5-100.7,100.5
	c-5.1,0-9.6-0.4-12-0.6l0,0c-1-0.1-1.5-0.1-1.7-0.1c-0.1,0,0.5,0.1,1.7,0.2v0c0,7.3,2,19.4,14.5,28.7c-0.3,0.5-0.6,1-0.9,1.5
	c-0.1,0.1-0.2,0.3-0.3,0.5c0,0.1-0.1,0.2-0.1,0.3c-0.1,0.2-0.3,0.5-0.4,0.8c-0.2,0.5-0.5,0.9-0.7,1.4c-0.1,0.2-0.2,0.4-0.3,0.6
	c-0.1,0.2-0.2,0.5-0.3,0.7c-0.1,0.3-0.3,0.6-0.4,0.9c0,0.1-0.1,0.2-0.1,0.3c-2.8,6.2-4.1,12.2-4.8,17.4c0,0.1,0,0.2,0,0.3
	c0,0.1,0,0.3,0,0.4c-0.2,1.9-0.2,6.1-0.1,10.2c7,0.9,14.1,1.3,21.3,1.3c91.1,0,164.9-73.7,164.9-164.6S497.2,186.6,406.2,186.6z"/>
<path id="DIF:_MoonShine" class="st0" d="M377.7,450.5c-26.5-3.2-49.8-16.8-65.9-36.4l-2.8-3.6c-12.5-16.8-19.9-37.6-19.9-60.1
	c0-23.9,8.4-46,22.4-63.2c0,0,1.6-2.1,1.7-2.1c15.2-17.8,36.4-30.3,60.5-34.2c0.3-8.9,3.1-16.2,8-21.3c1.1-1.2,3.2-3.3,15.1-8.3
	c-0.5-1-1-2.1-1.4-3.3c-4.8-11.9-4.3-23.5-3.2-30.2c-39.2,2.9-75.7,19.5-103.8,47.6c-16.4,16.4-28.9,35.7-37,56.6
	c0.1,0.1-0.8,2.3-0.9,2.3c-6.7,18.1-10.2,37.3-10.2,57.1c0,10.4,1,20.7,2.9,30.8c1.7,7.5,3.9,15.6,6.6,24.4
	c1.5,4.2,3.2,8.4,5.1,12.5c0,0,0,0,0.1,0c0,0,0,0,0,0.1l0.5,2l0.3-0.2c0.5,1.1,1.1,2.4,1.1,2.4c7.9,16.2,18.5,31,31.6,44.1
	c26,26,59.2,42.2,95,46.7c-0.2-2.4-0.2-5.8,0.2-9.8c0-0.1,0-0.3,0-0.4c0-0.1,0-0.2,0-0.3c0.6-5.2,2-11.3,4.8-17.4
	c0-0.1,0.1-0.2,0.1-0.3c0.1-0.3,0.3-0.6,0.4-0.9c0.1-0.2,0.2-0.5,0.3-0.7c0.1-0.2,0.2-0.4,0.3-0.6c0.2-0.5,0.5-0.9,0.7-1.4
	c0.1-0.2,0.3-0.5,0.4-0.8c0-0.1,0.1-0.2,0.2-0.3c0.1-0.1,0.2-0.3,0.3-0.5c0.3-0.5,0.6-1,0.9-1.5
	C379.7,469.9,377.7,457.7,377.7,450.5z M256.7,420L256.7,420c0.5-0.9,0.2-1.6,0.2-1.7c0.1,0.3,0.6,1.3,1.1,2.4L256.7,420z"/>
<path id="DIF:_Moon" class="st1" d="M432.4,436.5c-13.2,6.5-27.7,9.9-42.6,9.9c-52.9,0-96-43.1-96-96s43.1-96,96-96
	c11.6,0,22.9,2,33.6,6.1c-0.3,0.1-0.6,0.2-1,0.3c-0.2,0.1-0.5,0.1-0.8,0.2c-0.5,0.1-1,0.3-1.4,0.5c-0.1,0-0.3,0.1-0.5,0.2
	c-0.6,0.2-1.3,0.4-1.9,0.7c-0.2,0.1-0.4,0.1-0.7,0.2c-0.4,0.1-0.9,0.3-1.3,0.5c-0.2,0.1-0.5,0.2-0.8,0.3c-0.4,0.1-0.7,0.3-1.1,0.4
	c-0.3,0.1-0.6,0.2-0.8,0.3c-0.3,0.1-0.7,0.3-1.1,0.4c-0.3,0.1-0.6,0.2-0.9,0.3c-0.3,0.1-0.7,0.3-1,0.4c-0.3,0.1-0.6,0.2-0.9,0.4
	c-0.3,0.1-0.7,0.3-1,0.5c-0.3,0.1-0.6,0.2-0.8,0.4c-0.3,0.1-0.7,0.3-1,0.5c-0.2,0.1-0.5,0.2-0.8,0.4c-0.4,0.2-0.7,0.3-1.1,0.5
	c-0.2,0.1-0.5,0.2-0.7,0.4c-0.4,0.2-0.9,0.4-1.3,0.7c-0.1,0.1-0.3,0.1-0.5,0.2c-0.6,0.3-1.2,0.6-1.7,0.9c-0.2,0.1-0.4,0.2-0.6,0.3
	c-0.4,0.2-0.7,0.4-1.1,0.6c-0.2,0.1-0.5,0.3-0.7,0.4c-0.3,0.2-0.7,0.4-1,0.6c-0.2,0.1-0.5,0.3-0.8,0.5c-0.3,0.2-0.6,0.4-1,0.6
	c-0.2,0.1-0.5,0.3-0.8,0.5c-0.3,0.2-0.6,0.4-0.9,0.6c-0.2,0.1-0.5,0.3-0.7,0.5c-0.3,0.2-0.6,0.4-0.9,0.6c-0.2,0.1-0.5,0.3-0.7,0.5
	c-0.3,0.2-0.6,0.4-0.9,0.6c-0.2,0.1-0.4,0.3-0.7,0.5c-0.3,0.2-0.7,0.5-1,0.7c-0.2,0.1-0.4,0.3-0.6,0.4c-0.4,0.3-0.9,0.7-1.3,1
	c-0.1,0-0.2,0.1-0.2,0.2c-0.5,0.4-1,0.8-1.5,1.2c-0.2,0.1-0.3,0.3-0.5,0.4c-0.3,0.2-0.7,0.5-1,0.8c-0.2,0.1-0.4,0.3-0.6,0.5
	c-0.3,0.2-0.6,0.5-0.9,0.8c-0.2,0.2-0.4,0.3-0.6,0.5c-0.3,0.2-0.6,0.5-0.9,0.7c-0.2,0.2-0.4,0.4-0.6,0.5c-0.3,0.2-0.5,0.5-0.8,0.7
	c-0.2,0.2-0.4,0.4-0.6,0.6c-0.3,0.2-0.5,0.5-0.8,0.8c-0.2,0.2-0.4,0.4-0.6,0.5c-0.3,0.3-0.6,0.5-0.8,0.8l-0.5,0.5
	c-0.3,0.3-0.6,0.6-0.9,0.9c-0.1,0.1-0.3,0.3-0.4,0.4c-0.4,0.4-0.9,0.9-1.3,1.4c-14.9,16.2-22.7,35.5-22.7,55.9
	c0,21.4,9,42.3,25.5,58.8c0.5,0.5,1,1,1.4,1.4c0.1,0.1,0.3,0.3,0.5,0.5c0.3,0.3,0.7,0.6,1,1c0.2,0.2,0.4,0.4,0.6,0.5
	c0.3,0.3,0.6,0.6,0.9,0.9c0.2,0.2,0.4,0.4,0.6,0.6c0.3,0.3,0.6,0.5,0.9,0.8c0.2,0.2,0.4,0.4,0.7,0.6c0.3,0.2,0.6,0.5,0.9,0.8
	c0.2,0.2,0.5,0.4,0.7,0.6c0.3,0.2,0.6,0.5,0.9,0.7c0.2,0.2,0.5,0.4,0.7,0.6c0.3,0.2,0.6,0.5,1,0.7c0.2,0.2,0.5,0.3,0.7,0.5
	c0.3,0.2,0.7,0.5,1,0.7c0.2,0.2,0.5,0.3,0.7,0.5c0.4,0.2,0.7,0.5,1.1,0.8c0.2,0.1,0.4,0.3,0.6,0.4c0.5,0.3,1,0.7,1.4,1
	c0.1,0,0.2,0.1,0.3,0.2c0.6,0.4,1.2,0.8,1.8,1.2c0.2,0.1,0.4,0.2,0.6,0.4c0.4,0.2,0.8,0.5,1.2,0.7c0.2,0.1,0.5,0.3,0.8,0.4
	c0.3,0.2,0.7,0.4,1.1,0.6c0.3,0.1,0.5,0.3,0.8,0.5c0.3,0.2,0.7,0.4,1.1,0.6c0.3,0.1,0.6,0.3,0.9,0.5c0.3,0.2,0.7,0.4,1.1,0.6
	c0.3,0.1,0.6,0.3,0.9,0.4c0.3,0.2,0.7,0.4,1.1,0.5c0.3,0.1,0.6,0.3,0.9,0.4c0.3,0.2,0.7,0.3,1.1,0.5c0.3,0.1,0.6,0.3,0.9,0.4
	c0.4,0.2,0.7,0.3,1.1,0.5c0.3,0.1,0.6,0.2,0.9,0.4c0.4,0.2,0.8,0.3,1.2,0.5c0.3,0.1,0.5,0.2,0.8,0.3c0.5,0.2,1,0.4,1.4,0.6
	c0.2,0.1,0.4,0.1,0.5,0.2c0.7,0.3,1.3,0.5,2,0.8c0.2,0.1,0.5,0.2,0.7,0.2c0.4,0.2,0.9,0.3,1.3,0.5c0.3,0.1,0.6,0.2,0.8,0.3
	c0.4,0.1,0.8,0.3,1.2,0.4c0.3,0.1,0.6,0.2,0.9,0.3c0.4,0.1,0.8,0.3,1.2,0.4c0.3,0.1,0.6,0.2,0.9,0.3c0.4,0.1,0.8,0.2,1.2,0.4
	c0.3,0.1,0.6,0.2,0.9,0.3c0.4,0.1,0.8,0.2,1.2,0.4c0.3,0.1,0.6,0.2,0.9,0.3c0.4,0.1,0.8,0.2,1.3,0.3c0.3,0.1,0.6,0.1,0.9,0.2
	c0.4,0.1,0.9,0.2,1.3,0.3c0.3,0.1,0.6,0.1,0.9,0.2c0.5,0.1,1,0.2,1.4,0.3C431.8,436.5,432.1,436.5,432.4,436.5
	C432.3,436.5,432.4,436.5,432.4,436.5z"/>
<path id="DIF:_Sun" class="st2" d="M485.8,355.6L485.8,355.6C485.8,355.7,485.8,355.7,485.8,355.6c-0.8,13.7-4.4,27.1-10.7,39.2
	c0,0,0,0,0,0l-1.1,2.2l0,0c-0.4,0.6-0.7,1.3-1.1,1.9c-8.2,14-19.9,25.8-33.8,34c-0.2,0-0.4-0.1-0.6-0.1c-0.4-0.1-0.8-0.1-1.2-0.2
	c-0.3-0.1-0.7-0.1-1.1-0.2c-0.4-0.1-0.8-0.1-1.1-0.2c-0.3-0.1-0.7-0.1-1.1-0.2c-0.4-0.1-0.7-0.1-1.1-0.2c-0.3-0.1-0.7-0.1-1.1-0.2
	c-0.4-0.1-0.7-0.2-1.1-0.3c-0.3-0.1-0.7-0.2-1.1-0.3c-0.3-0.1-0.7-0.2-1.1-0.3c-0.3-0.1-0.7-0.2-1.1-0.3s-0.7-0.2-1.1-0.3
	c-0.3-0.1-0.7-0.2-1.1-0.3c-0.3-0.1-0.7-0.2-1.1-0.3c-0.3-0.1-0.7-0.2-1.1-0.3c-0.3-0.1-0.7-0.2-1-0.3c-0.3-0.1-0.7-0.2-1.1-0.4
	c-0.3-0.1-0.7-0.2-1-0.3c-0.3-0.1-0.7-0.2-1.1-0.4c-0.3-0.1-0.7-0.2-1-0.4s-0.7-0.2-1.1-0.4s-0.7-0.2-1-0.4
	c-0.3-0.1-0.7-0.3-1.1-0.4c-0.3-0.1-0.6-0.2-1-0.4c-0.3-0.1-0.7-0.3-1.1-0.4c-0.3-0.1-0.6-0.3-1-0.4c-0.3-0.1-0.7-0.3-1.1-0.4
	c-0.3-0.1-0.6-0.3-0.9-0.4c-0.3-0.1-0.7-0.3-1-0.5c-0.3-0.1-0.6-0.3-0.9-0.4c-0.3-0.1-0.7-0.3-1-0.5c-0.3-0.1-0.6-0.3-0.9-0.4
	c-0.3-0.2-0.7-0.3-1-0.5c-0.3-0.1-0.6-0.3-0.9-0.5c-0.3-0.2-0.7-0.3-1-0.5c-0.3-0.1-0.6-0.3-0.9-0.5c-0.3-0.2-0.7-0.4-1-0.6
	c-0.3-0.1-0.6-0.3-0.9-0.5c-0.3-0.2-0.6-0.4-1-0.6c-0.3-0.2-0.6-0.3-0.9-0.5c-0.3-0.2-0.6-0.4-1-0.6c-0.3-0.2-0.6-0.3-0.9-0.5
	c-0.3-0.2-0.6-0.4-1-0.6c-0.3-0.2-0.5-0.3-0.8-0.5c-0.3-0.2-0.6-0.4-1-0.6c-0.2-0.2-0.5-0.3-0.8-0.5s-0.6-0.4-0.9-0.6
	c-0.2-0.2-0.5-0.4-0.8-0.6c-0.3-0.2-0.6-0.4-0.9-0.7c-0.2-0.2-0.5-0.4-0.8-0.6c-0.3-0.2-0.6-0.5-0.9-0.7c-0.2-0.2-0.5-0.4-0.8-0.6
	c-0.3-0.2-0.6-0.5-0.9-0.7c-0.2-0.2-0.5-0.4-0.7-0.6c-0.3-0.2-0.6-0.5-0.9-0.7c-0.2-0.2-0.5-0.4-0.7-0.6c-0.3-0.2-0.6-0.5-0.9-0.8
	c-0.2-0.2-0.4-0.4-0.7-0.6c-0.3-0.2-0.6-0.5-0.9-0.8c-0.2-0.2-0.4-0.4-0.6-0.6c-0.3-0.3-0.7-0.6-1-0.9c-0.1-0.1-0.3-0.3-0.5-0.5
	c-0.5-0.5-1-1-1.4-1.4c-15.5-15.6-24-35.2-24-55.4c0-19.2,7.4-37.4,21.5-52.7c0.4-0.5,0.9-0.9,1.3-1.4c0.1-0.1,0.3-0.3,0.4-0.4
	c0.3-0.3,0.6-0.6,0.9-0.9c0.2-0.2,0.4-0.4,0.6-0.6c0.2-0.2,0.5-0.5,0.8-0.8c0.2-0.2,0.4-0.4,0.6-0.6c0.2-0.2,0.5-0.5,0.8-0.7
	c0.2-0.2,0.4-0.4,0.7-0.6c0.2-0.2,0.5-0.5,0.8-0.7c0.2-0.2,0.5-0.4,0.7-0.6c0.2-0.2,0.5-0.4,0.7-0.6c0.2-0.2,0.5-0.4,0.7-0.6
	c0.2-0.2,0.5-0.4,0.7-0.6c0.2-0.2,0.5-0.4,0.8-0.6c0.2-0.2,0.5-0.4,0.8-0.6c0.2-0.2,0.5-0.4,0.8-0.6c0.2-0.2,0.5-0.4,0.8-0.6
	c0.2-0.2,0.5-0.4,0.8-0.6c0.2-0.2,0.5-0.4,0.8-0.6c0.3-0.2,0.5-0.4,0.8-0.6c0.2-0.2,0.5-0.4,0.8-0.6c0.3-0.2,0.6-0.4,0.8-0.6
	c0.2-0.2,0.5-0.3,0.8-0.5c0.3-0.2,0.6-0.4,0.9-0.6c0.2-0.2,0.5-0.3,0.8-0.5c0.3-0.2,0.6-0.4,0.9-0.5c0.3-0.2,0.5-0.3,0.8-0.5
	s0.6-0.4,0.9-0.5c0.3-0.1,0.5-0.3,0.8-0.5c0.3-0.2,0.6-0.3,0.9-0.5c0.3-0.1,0.5-0.3,0.8-0.5c0.3-0.2,0.6-0.3,0.9-0.5
	c0.3-0.1,0.5-0.3,0.8-0.5s0.6-0.3,0.9-0.5s0.6-0.3,0.9-0.5c0.3-0.1,0.6-0.3,0.9-0.5c0.3-0.1,0.6-0.3,0.9-0.4c0.3-0.1,0.6-0.3,1-0.5
	c0.3-0.1,0.6-0.3,0.9-0.4c0.3-0.1,0.6-0.3,1-0.4c0.3-0.1,0.6-0.3,0.9-0.4c0.3-0.1,0.6-0.3,1-0.4c0.3-0.1,0.6-0.3,0.9-0.4
	c0.3-0.1,0.6-0.3,1-0.4c0.3-0.1,0.6-0.2,0.9-0.4c0.3-0.1,0.6-0.2,1-0.4c0.3-0.1,0.6-0.2,0.9-0.4c0.3-0.1,0.6-0.2,1-0.4
	c0.3-0.1,0.6-0.2,1-0.4c0.3-0.1,0.6-0.2,1-0.4c0.3-0.1,0.6-0.2,1-0.3c0.3-0.1,0.6-0.2,1-0.3c0.3-0.1,0.6-0.2,1-0.3
	c0.3-0.1,0.7-0.2,1-0.3c0.3-0.1,0.6-0.2,1-0.3c0.3-0.1,0.7-0.2,1-0.3c0.3-0.1,0.7-0.2,1-0.3c0.3-0.1,0.7-0.2,1-0.3
	c0.3-0.1,0.7-0.2,1-0.3c0.3-0.1,0.7-0.2,1-0.3c0.1,0,0.2,0,0.3-0.1c0,0,2.5,0,2.7-0.4c15.2,7.2,28.2,18.3,37.8,32.1
	c-0.3,0.2,1.4,2.1,1.4,2.2c9.2,14,14.4,30,15.5,46.7c-0.3,0-0.1,2.4,0.1,2.4c0,1.1,0,2.3,0,3.4C485.9,352.1,485.9,353.9,485.8,355.6
	z"/>
<rect id="NLED:_APA102C" x="262.6" y="354" class="st3" width="6.8" height="6.8"/>
<rect id="NLED:_APA102C_1_" x="329.2" y="236" class="st3" width="6.8" height="6.8"/>
<rect id="NLED:_APA102C_2_" x="441.7" y="227" class="st3" width="6.8" height="6.8"/>
<rect id="NLED:_APA102C_3_" x="401.7" y="238" class="st3" width="6.8" height="6.8"/>
<rect id="NLED:_APA102C_4_" x="459.2" y="261.2" class="st3" width="6.8" height="6.8"/>
<rect id="NLED:_APA102C_5_" x="487.3" y="236.7" class="st3" width="6.8" height="6.8"/>
<rect id="NLED:_APA102C_6_" x="501.9" y="272.4" class="st3" width="6.8" height="6.8"/>
<rect id="NLED:_APA102C_7_" x="494.2" y="312.3" class="st3" width="6.8" height="6.8"/>
<rect id="NLED:_APA102C_8_" x="535.1" y="308.1" class="st3" width="6.8" height="6.8"/>
<rect id="NLED:_APA102C_9_" x="493" y="374.8" class="st3" width="6.8" height="6.8"/>
<rect id="NLED:_APA102C_10_" x="535.9" y="346" class="st3" width="6.8" height="6.8"/>
<rect id="NLED:_APA102C_11_" x="536.5" y="394.2" class="st3" width="6.8" height="6.8"/>
<rect id="NLED:_APA102C_12_" x="463.9" y="429.2" class="st3" width="6.8" height="6.8"/>
<rect id="NLED:_APA102C_13_" x="515.5" y="426.2" class="st3" width="6.8" height="6.8"/>
<rect id="NLED:_APA102C_14_" x="491.3" y="464.8" class="st3" width="6.8" height="6.8"/>
<rect id="NLED:_APA102C_15_" x="442.7" y="456.9" class="st3" width="6.8" height="6.8"/>
<rect id="NLED:_APA102C_16_" x="406" y="461.3" class="st3" width="6.8" height="6.8"/>
<rect id="NLED:_APA102C_17_" x="412.5" y="499.2" class="st3" width="6.8" height="6.8"/>
<rect id="NLED:_APA102C_18_" x="326.5" y="461" class="st3" width="6.8" height="6.8"/>
<rect id="NLED:_APA102C_19_" x="330.5" y="308.3" class="st3" width="6.8" height="6.8"/>
<rect id="NLED:_APA102C_20_" x="338.7" y="395.3" class="st3" width="6.8" height="6.8"/>
<rect id="NLED:_APA102C_21_" x="418" y="348.2" class="st3" width="6.8" height="6.8"/>
<path id="BI:_Breakin" class="st4" d="M224.7,332.5v-4.3v-2.9v-8.7v-2.9v-8.7v-11.6h-10.7v11.6v8.7v2.9v8.7v2.9v4.3v4.3h10.7
	C224.7,336.8,224.7,332.5,224.7,332.5z"/>
<polyline id="CP:_CircuitPath" class="st5" points="219.8,316.1 337.3,308.3 329.2,236 408.5,244.8 445.1,230.4 466,268 
	494.1,236.7 505.3,275.8 497.6,315.7 535.1,308.1 539.3,349.4 496.4,378.2 536.5,394.2 522.4,426.2 463.9,436 494.7,468.1 
	442.7,456.9 412.5,506 409.4,464.6 329.9,464.4 342.1,398.6 421.5,351.6 247.3,359.4 224.9,368.1 "/>
<path id="ART:_Sun_and_Moon" d="M572.1,325.8l-0.5-3.2c-2.2-12.7-5.8-25.2-10.9-37.1c-1.2-2.8-2.6-5.8-4-8.8l-1.5-3
	c-7.8-15.2-18-29.1-30.1-41.3l-2.4-2.4c-10.2-9.9-21.4-18.4-33.5-25.4l-3.1-1.7c-5.1-2.7-10.2-5.3-15.5-7.5c-9.3-3.9-19-7-28.8-9.2
	l-3-0.7c-11.1-2.3-22.6-3.4-34.1-3.4c-2.6,0-5.4,0-8.1,0.2c-0.2-0.1-0.4-0.1-0.5-0.1c0,0-1.8-0.1-2.6,0.3
	c-19,1.2-37.4,5.5-54.8,12.9c-20.2,8.5-38.3,20.7-53.9,36.3c-15.5,15.5-27.8,33.6-36.3,53.9c-8.9,20.9-13.3,43.1-13.3,65.9
	s4.5,45.1,13.3,65.9c8.5,20.2,20.7,38.3,36.3,53.9c15.5,15.5,33.6,27.8,53.9,36.3c20.9,8.9,43.1,13.3,65.9,13.3s45.1-4.5,65.9-13.3
	c20.2-8.5,38.3-20.7,53.9-36.3c3.5-3.5,6.8-7.1,10.1-11l1.9-2.3c7.5-9.3,14.1-19.4,19.4-30l1.4-2.9c1.2-2.5,2.4-5.1,3.4-7.6
	c5.9-14,9.9-28.8,11.9-43.9l0.4-3.2c0.7-6.3,1.1-12.6,1.1-18.8C574,342.9,573.4,334.3,572.1,325.8z M383.1,513.8
	c-35.9-4.7-68.4-20.7-94.2-46.5c-13.3-13.3-24.2-28.6-32.2-45.4c0.1,0,0.1,0,0.2,0c0.1,0,0.3,0,0.4-0.1s0.3,0,0.5-0.1
	c0.1,0,0.3,0,0.4,0c0.2,0,0.3,0,0.5,0l0.5,0c0.2,0,0.4,0,0.6,0c0.1,0,0.3,0,0.5,0c0.2,0,0.4,0,0.6,0l0.5,0c0.2,0,0.4,0,0.6,0l0.5,0
	c0.2,0,0.4,0,0.7,0l10.4-0.1c1.6,0,3.1,0,4.6,0.1c4.3,0.2,7.4,0.8,10.2,1.2c0.5,0.1,1,0.2,1.5,0.2l0.6,0.1c0.2,0,0.4,0,0.6,0.1
	l0.3,0c0.2,0,0.4,0,0.6,0.1l0.3,0c0.1,0,0.3,0,0.5,0l0.3,0c0.1,0,0.3,0,0.5,0h0.3c0.1,0,0.3,0,0.5,0h0.4c0.1,0,0.3,0,0.5,0h0
	c0,0,0.1,0,0.2,0h0.2c0.1,0,0.2,0,0.3,0c0.1,0,0.2,0,0.3,0h0.2c0.1,0,0.2,0,0.3,0s0.2,0,0.3,0l0.2,0c0.1,0,0.2,0,0.3,0
	c0.1,0,0.2,0,0.3,0l0.2,0c0.1,0,0.2,0,0.3,0c0.1,0,0.2,0,0.4-0.1l0.2,0c0.1,0,0.1,0,0.2,0c0.1,0,0.3-0.1,0.5-0.1l0.2,0
	c0,0,0.1,0,0.2,0c0.2,0,0.4-0.1,0.6-0.2l0.1,0c0,0,0.1,0,0.1,0c0.3-0.1,0.6-0.2,0.9-0.3c0.3-0.1,0.7-0.3,1-0.4c0.1,0,0.1,0,0.2-0.1
	l0.2-0.1c0.2-0.1,0.4-0.1,0.5-0.2c0.1,0,0.2-0.1,0.3-0.1l0.2-0.1c0.1-0.1,0.3-0.1,0.4-0.2c0.1,0,0.2-0.1,0.3-0.1l0.1-0.1
	c0.1-0.1,0.3-0.1,0.4-0.2c0.1,0,0.2-0.1,0.3-0.2l0.1-0.1c0.1-0.1,0.2-0.1,0.4-0.2c0.1-0.1,0.2-0.1,0.3-0.2c0.1-0.1,0.3-0.2,0.4-0.3
	c0.1-0.1,0.2-0.1,0.3-0.2c0.1-0.1,0.2-0.2,0.4-0.3c0.1-0.1,0.2-0.2,0.3-0.2c0.1-0.1,0.2-0.2,0.3-0.3c0.1-0.1,0.2-0.2,0.3-0.2
	c0.1-0.1,0.2-0.2,0.3-0.3c0.1-0.1,0.2-0.2,0.3-0.3s0.2-0.2,0.3-0.3c0.1-0.1,0.2-0.2,0.2-0.3c0.1-0.1,0.2-0.2,0.3-0.3
	c0.1-0.1,0.1-0.1,0.2-0.2c0.1-0.1,0.2-0.2,0.3-0.3l0.2-0.3c0.1-0.1,0.2-0.2,0.3-0.3l0,0c16.6,20.1,39.8,33,65.5,36.2
	c0,6.8,2,19.1,14.3,28.4c-0.2,0.4-0.4,0.7-0.7,1.1c-0.1,0.1-0.2,0.3-0.3,0.5l-0.2,0.3c-0.1,0.2-0.3,0.5-0.4,0.8
	c-0.2,0.5-0.5,0.9-0.7,1.4c-0.1,0.1-0.1,0.3-0.2,0.5l-0.1,0.1c-0.1,0.2-0.2,0.5-0.3,0.7c-0.1,0.3-0.3,0.6-0.4,0.9l-0.1,0.3
	c-2.5,5.5-4.1,11.4-4.8,17.6l-0.1,0.7C382.9,508.7,383,511.9,383.1,513.8z M469.7,480.4c-2.4-5.1-4.7-11.8-5.2-19.5
	c-0.1-2.4-0.1-4.5-0.1-6.4c0-1.3,0-2.6,0-3.9c2.9-0.2,6.7-0.7,11.4-1.5c0.2,0,0.5-0.1,0.8-0.1c-1.5,4-2.8,7-3.9,9.3
	c-2.1,4.7-3.4,7.6-3.7,12.7C468.8,474,469.1,477.2,469.7,480.4z M474.1,244.1c0.3,1,0.7,2.1,1.1,3.4c-2.8-0.6-5.8-1.3-9-1.8
	l-0.6-0.1c0.1-1.5,0.3-3.1,0.6-4.9c1.3-7.7,4.2-14.2,7.1-19c-1,3.1-1.5,6.3-1.6,9.4C471.5,236.2,472.5,239.2,474.1,244.1z
	 M534.8,367.3c-4.5,2.2-6.7,4.5-10.3,8.3c-1.6,1.7-3.6,3.8-6.3,6.3c-0.4-1.5-0.7-3.1-1.2-4.7c-0.6-2.5-1.3-4.8-1.9-6.7
	c0.9-0.3,1.7-0.7,2.6-1.1c1.7-0.8,3.7-1.6,6-2.4c7.4-2.5,14.5-2.9,20.1-2.7C540.6,364.9,537.6,365.9,534.8,367.3z M515.9,321.7
	c0.7-2.2,1.3-4.2,2-6.3c1.5,1.6,2.7,3,3.8,4.2c3.4,3.9,5.5,6.2,10,8.6c2.8,1.5,5.8,2.6,9,3.3c-5.6,0-12.7-0.6-19.9-3.4
	c-2.3-0.9-4.2-1.8-5.9-2.6l-0.1,0C514.9,324.3,515.4,323,515.9,321.7z M522.1,290.5c-2.7,4.2-3.4,7.3-4.6,12.4
	c-0.4,1.6-0.8,3.6-1.4,6c-1.6-1.6-3.3-3.2-5.1-4.9c-1-0.9-1.9-1.7-2.7-2.5l0.3-0.5c1.1-1.5,2.3-3.3,3.9-5.1
	c5.1-5.9,10.9-10,15.8-12.6C525.9,285.5,523.8,287.9,522.1,290.5z M510.3,327.2c-2.4,6.1-3.6,7.5-4.3,8.3c-3.5,3.9-8.5,6.6-14.7,8
	c-0.2-3.2-0.6-6.4-1.1-9.4c4-4.8,8.3-7.6,12.8-8.1C505.7,325.7,507.8,326.2,510.3,327.2z M506.1,368.6c-5-0.8-10.9-6-14.8-10.5
	c0.1-1.6,0.2-3.3,0.2-4.9c7.3,1.6,13.1,5,16.8,9.6c0.5,0.7,1.4,1.8,2.7,5.6C509.3,368.8,507.8,368.8,506.1,368.6z M483,391.4
	c6.1-2,11.3-2,15.4,0c1.8,0.9,3.2,2,4.5,3.6c-3,2.1-4.2,2.5-5,2.7c-5.2,1.6-11.2,1.3-17.5-0.9C481.3,395,482.2,393.2,483,391.4z
	 M484.6,387.4c3.1-8,5.2-16.3,6.2-24.9c3.3,3.4,9,8.4,14.7,9.4c2.2,0.3,4.3,0.2,6.5-0.3c0.6,1.9,1.2,4,1.8,6.5
	c0.6,2.3,1.1,4.4,1.6,6.5c-1.3,1.2-2.7,2.5-4.2,3.7c-2.1,1.8-4,3.4-5.7,4.7c-1.7-2.1-3.5-3.6-5.7-4.7c-2.5-1.2-5.3-1.8-8.4-1.8
	C489.3,386.5,487,386.8,484.6,387.4z M498.1,306.3c-4.8,1.9-10.8,1.2-17.8-2.1c-1.2-2.3-2.5-4.5-3.8-6.7c7-2.6,13.6-2.9,19.2-0.9
	c1,0.3,2.8,1,8,5.4C502.2,303.9,500.6,305.3,498.1,306.3z M489.4,329.9c-1.5-7.3-3.9-14.4-6.9-21.1c6.4,2.4,12,2.6,16.8,0.6
	c3.3-1.3,5.3-3.3,6.9-5.3c0.8,0.7,1.6,1.5,2.5,2.3c2.3,2.1,4.4,4.1,6.4,6.2c-0.7,2.6-1.5,5.2-2.5,8c-0.4,1.2-0.8,2.4-1.2,3.5
	c-2.8-1.2-5.5-1.9-9-1.4C497.9,323.2,493.5,325.7,489.4,329.9z M475.3,445.7c-4.7,0.8-8.4,1.3-11.2,1.4c-0.4-1.8-1-3.4-2-5.1
	c-2.6-4.1-6.8-7.2-12.8-9.1c8.3-6,15.7-13.2,21.9-21.4c0.9,5.2,3.1,13.3,7.7,17.1c1.1,0.9,2.3,1.7,3.5,2.2
	c-0.6,2.6-1.6,6.1-2.9,10.2c-0.5,1.4-1,2.8-1.4,4.1C477.1,445.4,476.2,445.5,475.3,445.7L475.3,445.7z M400.9,222.9
	c3.4-1.3,6.5-2.6,9.7-3.6c2.5,2.3,5,4.6,7.5,7.2c-3.5,2.9-6.2,5.2-7.6,9.8c-1.4,4.5-1,9.7,1.3,15.3c-5.3-1.2-10.8-1.9-16.3-2.2
	c5-4.5,7.8-9.3,8.4-14.4C404.5,230.3,402.9,227,400.9,222.9z M449.4,247.8c1.1-0.2,3.4-0.8,12.7,0.6c-0.3,3.3-0.7,5.9-2.8,8.6
	c-3.1,4-8.5,6.5-16,7.3c-1.3-0.8-2.6-1.5-3.9-2.3l0.5-0.1l-6.2-2.8C438.1,253,443.6,249.1,449.4,247.8z M485.6,356.1
	c-0.8,13.3-4.4,26.6-10.5,38.4l0,0l-1.3,2.6l-0.1,0.1c-0.3,0.6-0.7,1.2-1,1.8c-8.1,13.9-19.7,25.5-33.5,33.7l-0.5-0.1
	c-0.4-0.1-0.8-0.1-1.2-0.2c-0.3,0-0.7-0.1-1.1-0.2c-0.4-0.1-0.8-0.1-1.1-0.2c-0.3-0.1-0.7-0.1-1.1-0.2c-0.4-0.1-0.7-0.1-1.1-0.2
	c-0.3-0.1-0.7-0.2-1.1-0.2c-0.4-0.1-0.7-0.2-1.1-0.3c-0.3-0.1-0.7-0.2-1.1-0.3s-0.7-0.2-1.1-0.3c-0.3-0.1-0.7-0.2-1-0.3h-0.1
	c-0.3-0.1-0.7-0.2-1-0.3s-0.6-0.2-0.9-0.3l-0.1,0c-0.3-0.1-0.7-0.2-1-0.3c-0.3-0.1-0.7-0.2-1.1-0.3l-0.1,0c-0.3-0.1-0.6-0.2-0.9-0.3
	c-0.3-0.1-0.7-0.2-1.1-0.4c-0.3-0.1-0.7-0.2-1-0.3c-0.3-0.1-0.6-0.2-0.9-0.3l-0.2-0.1c-0.3-0.1-0.6-0.2-0.9-0.3
	c-0.3-0.1-0.6-0.2-1-0.3l-0.3-0.1c-0.3-0.1-0.5-0.2-0.8-0.3c-0.3-0.1-0.5-0.2-0.8-0.3l-0.4-0.2c-0.2-0.1-0.5-0.2-0.7-0.3
	c-0.3-0.1-0.6-0.2-0.9-0.4l-0.4-0.1c-0.2-0.1-0.5-0.2-0.7-0.3c-0.3-0.1-0.6-0.2-0.9-0.4l-0.4-0.1c-0.2-0.1-0.5-0.2-0.7-0.3
	c-0.3-0.1-0.7-0.3-1-0.5l-0.2-0.1c-0.2-0.1-0.5-0.2-0.7-0.3c-0.3-0.1-0.6-0.3-0.9-0.4l-0.4-0.2c-0.2-0.1-0.4-0.2-0.6-0.3
	c-0.2-0.1-0.5-0.3-0.8-0.4l-0.5-0.2c-0.2-0.1-0.4-0.2-0.6-0.3c-0.2-0.1-0.5-0.3-0.8-0.4l-0.4-0.2c-0.2-0.1-0.4-0.2-0.7-0.4
	c-0.3-0.1-0.5-0.3-0.8-0.4l-0.4-0.2c-0.2-0.1-0.4-0.2-0.6-0.3c-0.2-0.1-0.5-0.3-0.7-0.4l-0.5-0.3c-0.2-0.1-0.4-0.2-0.6-0.3
	c-0.3-0.1-0.5-0.3-0.8-0.5l-0.4-0.2c-0.2-0.1-0.4-0.2-0.6-0.4c-0.2-0.1-0.5-0.3-0.8-0.5l-0.4-0.3c-0.2-0.1-0.4-0.2-0.6-0.4
	c-0.2-0.1-0.5-0.3-0.7-0.5l-0.4-0.3c-0.2-0.1-0.4-0.2-0.6-0.4c-0.2-0.1-0.5-0.3-0.7-0.5l-0.5-0.3c-0.2-0.1-0.3-0.2-0.5-0.4
	c-0.2-0.1-0.4-0.3-0.7-0.5l-0.5-0.3c-0.2-0.1-0.3-0.2-0.5-0.4c-0.2-0.1-0.4-0.3-0.6-0.5l-0.5-0.4c-0.1-0.1-0.3-0.2-0.5-0.4
	c-0.2-0.1-0.4-0.3-0.6-0.5l-0.5-0.4c-0.1-0.1-0.3-0.2-0.5-0.4c-0.2-0.1-0.4-0.3-0.6-0.5l-0.5-0.4c-0.1-0.1-0.3-0.2-0.4-0.4
	c-0.2-0.2-0.4-0.4-0.6-0.5l-0.5-0.4c-0.1-0.1-0.3-0.2-0.4-0.4c-0.2-0.2-0.4-0.4-0.7-0.6l-0.5-0.4c-0.1-0.1-0.2-0.2-0.4-0.3
	c-0.3-0.2-0.5-0.5-0.8-0.8l-0.4-0.4c-0.1-0.1-0.2-0.2-0.3-0.3c-0.5-0.5-1-1-1.4-1.4c-15.4-15.5-23.9-35-23.9-55
	c0-19,7.4-37.1,21.3-52.3c0.4-0.5,0.9-0.9,1.3-1.3c0.1-0.1,0.2-0.2,0.2-0.2l0.3-0.3c0.2-0.2,0.5-0.5,0.8-0.8
	c0.1-0.1,0.2-0.2,0.3-0.3l0.4-0.4c0.2-0.2,0.4-0.4,0.6-0.6c0.1-0.1,0.3-0.2,0.4-0.4l0.4-0.4c0.2-0.2,0.4-0.3,0.6-0.5
	c0.1-0.1,0.3-0.2,0.4-0.4l0.4-0.4c0.2-0.1,0.3-0.3,0.5-0.5c0.1-0.1,0.3-0.3,0.5-0.4l0.4-0.4c0.2-0.1,0.3-0.3,0.5-0.5
	c0.1-0.1,0.3-0.3,0.5-0.4l0.4-0.4c0.2-0.1,0.3-0.3,0.5-0.4s0.3-0.3,0.5-0.4l0.4-0.3c0.2-0.1,0.3-0.3,0.5-0.4
	c0.2-0.1,0.4-0.3,0.6-0.4l0.4-0.3c0.2-0.1,0.4-0.3,0.5-0.4c0.2-0.1,0.4-0.3,0.6-0.4l0.4-0.3c0.2-0.1,0.4-0.3,0.6-0.4
	s0.4-0.3,0.6-0.4l0.4-0.3c0.2-0.1,0.4-0.3,0.6-0.4c0.2-0.1,0.4-0.3,0.6-0.4l0.4-0.3c0.2-0.1,0.4-0.2,0.5-0.4
	c0.2-0.1,0.4-0.3,0.6-0.4l0.4-0.3c0.2-0.1,0.4-0.2,0.5-0.4c0.2-0.1,0.5-0.3,0.7-0.5l0.3-0.2c0.2-0.1,0.4-0.2,0.6-0.4
	c0.2-0.1,0.5-0.3,0.7-0.4l0.4-0.2c0.2-0.1,0.4-0.2,0.6-0.3c0.2-0.1,0.5-0.3,0.8-0.4l0.3-0.2c0.2-0.1,0.4-0.2,0.6-0.3
	c0.2-0.1,0.5-0.2,0.7-0.4l0.4-0.2c0.2-0.1,0.4-0.2,0.7-0.4c0.2-0.1,0.5-0.2,0.7-0.4l0.4-0.2c0.2-0.1,0.4-0.2,0.7-0.3
	c0.2-0.1,0.5-0.3,0.8-0.4l0.2-0.1c0.2-0.1,0.5-0.2,0.8-0.4c0.2-0.1,0.5-0.2,0.8-0.4l0.3-0.2c0.2-0.1,0.4-0.2,0.7-0.3
	c0.3-0.1,0.6-0.3,0.8-0.4l0.3-0.1c0.2-0.1,0.4-0.2,0.7-0.3c0.3-0.1,0.6-0.2,0.9-0.4l0.2-0.1c0.2-0.1,0.5-0.2,0.8-0.3
	c0.3-0.1,0.6-0.2,0.9-0.4l0.2-0.1c0.2-0.1,0.5-0.2,0.8-0.3c0.3-0.1,0.6-0.2,0.9-0.4l0.1,0c0.3-0.1,0.6-0.2,0.9-0.3
	c0.3-0.1,0.6-0.2,0.9-0.3l0.2,0c0.3-0.1,0.5-0.2,0.8-0.3c0.3-0.1,0.6-0.2,1-0.4c0.3-0.1,0.6-0.2,1-0.3c0.3-0.1,0.6-0.2,1-0.3
	c0.3-0.1,0.6-0.2,1-0.3c0.3-0.1,0.7-0.2,1-0.3c0.3-0.1,0.6-0.2,1-0.3c0.3-0.1,0.7-0.2,1-0.3c0.3-0.1,0.7-0.2,1-0.3
	c0.3-0.1,0.7-0.2,1-0.3c0.3-0.1,0.7-0.2,1-0.3c0.3-0.1,0.7-0.2,1-0.3l0.2,0c1.6,0,2.3-0.1,2.7-0.3c14.9,7.1,27.7,18.1,37.2,31.6
	c0,0.4,0.2,0.9,1.5,2.3l0.1,0.1c9,13.8,14.3,29.8,15.4,46.3c-0.1,0.3-0.2,0.8-0.1,1.7c0,0.3,0,0.8,0.2,1.1c0,1.1,0,2.2,0,3.2
	c0,1.5,0,3.2-0.1,5.1l-0.2,0.1L485.6,356.1z M427.7,430.5L427.7,430.5L427.7,430.5L427.7,430.5z M421.9,260.7
	c-0.5,0.1-1,0.3-1.4,0.5l-0.5,0.2c-0.6,0.2-1.3,0.4-1.9,0.7l-0.7,0.2c-0.4,0.1-0.9,0.3-1.3,0.5c-0.2,0-0.4,0.1-0.5,0.2l-0.3,0.1
	c-0.3,0.1-0.7,0.3-1.1,0.4c-0.2,0.1-0.4,0.2-0.7,0.3l-0.1,0c-0.3,0.1-0.7,0.3-1.1,0.4c-0.3,0.1-0.6,0.2-0.9,0.3
	c-0.3,0.1-0.7,0.3-1,0.4c-0.3,0.1-0.6,0.2-0.9,0.4c-0.3,0.1-0.7,0.3-1,0.5c-0.3,0.1-0.6,0.2-0.8,0.4c-0.3,0.1-0.7,0.3-1.1,0.5
	l-0.2,0.1c-0.2,0.1-0.4,0.2-0.6,0.3c-0.3,0.1-0.7,0.3-1,0.5l-0.3,0.2c-0.1,0.1-0.3,0.1-0.5,0.2c-0.4,0.2-0.9,0.4-1.3,0.7l-0.5,0.2
	c-0.6,0.3-1.2,0.6-1.7,1l-0.7,0.4c-0.3,0.2-0.7,0.4-1.1,0.6c-0.2,0.1-0.3,0.2-0.5,0.3l-0.2,0.1c-0.3,0.2-0.7,0.4-1,0.6
	c-0.2,0.1-0.4,0.2-0.6,0.4l-0.1,0.1c-0.3,0.2-0.6,0.4-1,0.6c-0.2,0.1-0.5,0.3-0.8,0.5c-0.3,0.2-0.6,0.4-0.9,0.6
	c-0.2,0.1-0.5,0.3-0.8,0.5c-0.3,0.2-0.6,0.4-0.9,0.6l0,0c-0.2,0.1-0.4,0.3-0.7,0.4c-0.3,0.2-0.6,0.4-1,0.7l-0.2,0.1
	c-0.1,0.1-0.3,0.2-0.5,0.3c-0.3,0.2-0.7,0.5-1,0.7l-0.2,0.1c-0.1,0.1-0.2,0.2-0.4,0.3c-0.4,0.3-0.9,0.7-1.3,1l-0.2,0.2
	c-0.5,0.4-1,0.8-1.5,1.2c-0.1,0.1-0.2,0.2-0.3,0.3l-0.2,0.1c-0.3,0.3-0.7,0.5-1,0.8c-0.1,0.1-0.3,0.2-0.4,0.3l-0.1,0.1
	c-0.3,0.2-0.6,0.5-0.9,0.8c-0.2,0.1-0.3,0.3-0.5,0.4l-0.1,0.1c-0.3,0.2-0.6,0.5-0.9,0.7c-0.2,0.2-0.4,0.4-0.6,0.5
	c-0.3,0.2-0.5,0.5-0.8,0.8c-0.2,0.2-0.4,0.4-0.6,0.6c-0.3,0.2-0.5,0.5-0.8,0.8l0,0c-0.2,0.1-0.3,0.3-0.5,0.5
	c-0.3,0.3-0.5,0.5-0.8,0.8l-0.5,0.5c-0.3,0.3-0.6,0.6-0.9,0.9l-0.4,0.4c-0.4,0.5-0.9,0.9-1.3,1.4c-15,16.3-22.9,35.7-22.9,56.2
	c0,21.5,9.1,42.5,25.6,59.1c0.5,0.5,1,1,1.5,1.4l0.5,0.5c0.3,0.3,0.7,0.6,1,1c0.1,0.1,0.3,0.2,0.4,0.4l0.2,0.1
	c0.3,0.3,0.6,0.6,0.9,0.9c0.2,0.1,0.4,0.3,0.5,0.5l0.1,0.1c0.3,0.3,0.6,0.5,0.9,0.8c0.2,0.2,0.4,0.3,0.6,0.5l0,0
	c0.3,0.2,0.6,0.5,0.9,0.8c0.2,0.2,0.5,0.4,0.7,0.6c0.3,0.2,0.6,0.5,0.9,0.7c0.2,0.2,0.5,0.4,0.7,0.6c0.3,0.2,0.6,0.5,1,0.7l0.1,0.1
	c0.2,0.1,0.4,0.3,0.6,0.5c0.3,0.2,0.7,0.5,1,0.7l0.2,0.1c0.2,0.1,0.3,0.2,0.5,0.4c0.4,0.2,0.7,0.5,1.1,0.8l0.2,0.1
	c0.1,0.1,0.2,0.2,0.4,0.3c0.5,0.3,1,0.7,1.4,1l0.3,0.2c0.6,0.4,1.2,0.8,1.8,1.2c0.1,0.1,0.2,0.1,0.4,0.2l0.2,0.1
	c0.4,0.2,0.8,0.5,1.2,0.7c0.2,0.1,0.3,0.2,0.5,0.3l0.2,0.1c0.3,0.2,0.7,0.4,1.1,0.6c0.2,0.1,0.5,0.3,0.7,0.4l0.1,0
	c0.3,0.2,0.7,0.4,1.1,0.6c0.3,0.1,0.6,0.3,0.9,0.5c0.3,0.2,0.7,0.4,1.1,0.6c0.3,0.1,0.6,0.3,0.9,0.4c0.3,0.2,0.7,0.4,1.1,0.5
	c0.3,0.1,0.6,0.3,0.9,0.4c0.3,0.2,0.7,0.3,1.1,0.5l0.1,0c0.2,0.1,0.5,0.2,0.7,0.3c0.3,0.1,0.7,0.3,1.1,0.5l0.3,0.1
	c0.2,0.1,0.4,0.2,0.6,0.3c0.4,0.2,0.8,0.3,1.2,0.5l0.2,0.1c0.2,0.1,0.3,0.1,0.5,0.2c0.5,0.2,1,0.4,1.4,0.6l0.6,0.2
	c0.7,0.3,1.3,0.5,2,0.8l0.8,0.3c0.4,0.1,0.8,0.3,1.3,0.5c0.2,0,0.4,0.1,0.6,0.2l0.3,0.1c0.4,0.1,0.8,0.3,1.2,0.4
	c0.2,0.1,0.4,0.1,0.6,0.2l0.2,0.1c0.4,0.1,0.8,0.3,1.2,0.4c0.3,0.1,0.6,0.2,0.9,0.3c0.4,0.1,0.8,0.2,1.2,0.4
	c0.3,0.1,0.6,0.2,0.9,0.3c0.4,0.1,0.8,0.2,1.2,0.4c0.3,0.1,0.6,0.2,0.9,0.3c0.4,0.1,0.8,0.2,1.3,0.3c0.3,0.1,0.6,0.1,0.9,0.2
	c0.4,0.1,0.9,0.2,1.3,0.3l0.3,0.1c0.2,0,0.4,0.1,0.6,0.1c0.3,0.1,0.7,0.2,1,0.2c-12.8,6.1-27,9.3-41.1,9.3
	c-52.7,0-95.5-42.9-95.5-95.5s42.9-95.6,95.6-95.6c11.1,0,21.9,1.9,32.1,5.5L421.9,260.7z M465,282.3c0.7-6.3,2.9-10.9,6.3-13.8
	c2.6-2.2,5.2-2.7,8.5-3.2c1.9,9.2,1.4,11.5,1.2,12.6c-1,5.1-3.7,9.8-8.1,14.1C470.5,288.7,467.9,285.4,465,282.3z M479.1,262.1
	c-3.5,0.5-6.7,1.2-10,3.9c-3.6,3-6,7.5-7.1,13.2c-4.5-4.5-9.4-8.6-14.6-12.2c6.5-1.3,11.3-4,14.4-8c2.6-3.3,3.1-6.6,3.5-10.1l0.3,0
	c3.9,0.7,7.4,1.4,10.7,2.2c1,3.3,1.9,6.8,2.7,10.6L479.1,262.1z M482.9,427.5c-0.7-0.4-1.3-0.8-1.9-1.3c-3.9-3.3-6.2-11.6-7-18.2
	c5.3,5.3,8.5,11.3,9,17.3C483,425.6,483,426.3,482.9,427.5z M445.9,435.5c6.4,1.6,10.8,4.4,13.3,8.4c0.7,1.1,1.1,2.1,1.4,3.3
	c-0.8,0-1.3-0.2-1.6-0.3c-5.4-1.3-10.6-4.9-15-10.3L445.9,435.5z M487.3,260.8c-1.8,0.4-3.4,0.6-4.9,0.8l-0.1-0.6
	c-0.7-3.2-1.4-6.1-2.2-8.9c1.3,0.3,2.5,0.7,3.4,1c5,1.4,8,2.3,13,1.8c3.1-0.2,6.3-1,9.3-2.1C501.3,255.9,495,259.2,487.3,260.8z
	 M430.4,257.6c-4.7-2-9.5-3.7-14.4-5c-2.8-5.7-3.6-10.9-2.3-15.3c1.2-3.7,3.5-5.6,6.6-8.3l0.1-0.1c8.2,8.7,9.2,11.3,9.6,12.5
	C431.9,246.2,432,251.7,430.4,257.6z M400.6,234.7c-0.6,5.2-4,10.1-10.2,14.6h-0.2c-4.4,0-8.9,0.3-13.3,0.9c0.5-7.7,2.9-14,7.1-18.4
	c0.9-0.9,2.8-2.9,13.8-7.6l0.1,0.1C399.7,228.1,401,230.8,400.6,234.7z M393.7,476.6l-0.1,0.2c-10.3-7.9-12.7-18-12.8-25v-0.1v0
	c3.1,0.3,6.3,0.4,9.4,0.4h0.4c4.9,5,7.3,10,7.2,14.8C397.7,470.6,396,473.1,393.7,476.6z M396.5,478.5L396.5,478.5
	c2.6-3.8,4.5-6.8,4.6-11.6c0.1-5-2-10.1-6.1-15c7.6-0.4,15-1.6,22.3-3.6c-0.1,7.6,1.5,13.9,4.9,18.7c0.5,0.7,1,1.3,1.5,2
	c-1.9,1.8-4.4,3.9-7.4,6.4c-3.6,2.9-7,5.4-10.3,7.7c-2.9-0.8-4.3-1.4-5.2-1.9l-0.3-0.1c-1.4-0.7-2.8-1.5-4.1-2.4L396.5,478.5z
	 M420.7,447.3c3-1,6-2,8.9-3.3c1.7,7.6,1.2,14.5-1.7,19.9c-0.3,0.5-0.7,1.3-1.9,2.6c-0.4-0.4-0.7-0.9-1.1-1.4
	C421.9,460.6,420.5,454.7,420.7,447.3z M506.2,439.8c-5.1-0.4-8,0.4-13,1.8c-2.8,0.8-6.4,1.8-11.4,2.8c0.2-0.7,0.5-1.5,0.8-2.3
	c1.3-4,2.3-7.4,2.9-10.1c1.6,0.4,3.3,0.6,5.1,0.8c1.9,0.2,4,0.5,6.4,1c7.6,1.6,13.9,4.9,18.6,8C512.5,440.7,509.4,440.1,506.2,439.8
	z M513.4,390.9c1-0.8,1.9-1.6,2.8-2.5c0.6,3.1,1,5.6,1.3,7.7l0,0c0.8,5.1,1.3,8.2,3.8,12.6c1.5,2.7,3.5,5.3,5.7,7.6
	c-4.7-3-10.3-7.4-15-13.6c-1.4-1.9-2.6-3.8-3.6-5.3c-0.3-0.5-0.7-1.1-1-1.6C509.3,394.4,511.2,392.8,513.4,390.9z M420.7,224.4
	c-2.2-2.2-4.3-4.3-6.4-6.2c0.5-0.1,0.9-0.3,1.3-0.4c5-1.5,7.9-2.5,11.9-5.5c2.5-1.9,4.7-4.2,6.7-6.8c-2.3,5.1-5.8,11.3-11.3,16.8
	C422.3,222.9,421.5,223.6,420.7,224.4z M295.7,422.6L295.7,422.6L295.7,422.6L295.7,422.6z M390.5,489.6L390.5,489.6
	c0.1-0.2,0.1-0.3,0.2-0.5c0.1-0.3,0.2-0.5,0.3-0.8c0.1-0.2,0.2-0.5,0.3-0.7c0.1-0.2,0.2-0.5,0.3-0.7c0.1-0.3,0.3-0.6,0.4-0.9
	l0.1-0.2c0-0.1,0.1-0.2,0.2-0.4c0.2-0.5,0.5-1,0.8-1.4c0.1-0.3,0.3-0.6,0.5-0.9l0.1-0.2c0.1-0.2,0.2-0.4,0.4-0.6l0.1-0.2
	c0.1-0.1,0.2-0.3,0.3-0.4c1.4,0.9,2.9,1.8,4.5,2.6l0.3,0.1c0.7,0.3,1.6,0.8,3.1,1.3c-0.3,0.2-0.6,0.4-0.9,0.6
	c-4.3,2.8-6.9,4.5-10,8.6c-1.8,2.5-3.4,5.3-4.5,8.3C387.5,499.2,388.5,494.5,390.5,489.6z M447.7,488.4c-4.9-2.1-7.9-2.1-13-2.2
	c-3.9,0-9.3-0.1-18.1-1.2c-2.3-0.3-4.4-0.6-6.2-0.9c2.6-1.9,5.2-3.9,7.9-6.1c3.2-2.6,5.8-4.8,7.7-6.7c2.1,1.6,4.3,2.7,6.8,3.9
	c1.8,0.9,3.8,1.8,6,3.1c7.3,4.3,13,10.1,17.1,15C453.4,491.3,450.6,489.6,447.7,488.4z M564.7,326.1c-2.8,1.4-5.9,2.5-9,3.1
	c-0.4-0.2-0.8-0.3-1.4-0.3c-0.3,0-0.8,0-1.3,0c-3.5,0.1-11.6,0.6-19.8-3.8c-3.9-2.1-5.7-4.1-9-7.8c-1.3-1.5-3-3.4-5.2-5.7
	c0.9-3.3,1.4-5.9,1.9-8c1.1-4.9,1.7-7.5,4.1-11.3c5.1-7.8,12.4-11.4,15.5-12.9c0.5-0.2,0.9-0.4,1.2-0.6c1.9-0.6,3.9-1,5.9-1.3
	c1-0.1,2-0.2,3.1-0.3c7.7,15.1,12.9,31.2,15.6,48C565.6,325.7,565.1,325.9,564.7,326.1z M547,273.8c-2.4,0.3-4.8,0.8-7.2,1.6
	c-4.7,0.8-19.1,5.7-29.8,18.3c-1.6,1.9-2.9,3.8-4.1,5.3l-0.1,0.2c-5.6-4.7-7.7-5.4-8.9-5.8c-2.8-1-5.7-1.5-8.9-1.5
	c-3.9,0-8.2,0.8-12.5,2.4c4.8-4.8,7.8-10,8.9-15.7c0.3-1.5,0.8-4-1.2-13.7c1.4-0.2,3-0.4,4.9-0.8c18.4-3.9,30.2-16.8,31-18.7
	c0-0.1,0.1-0.2,0.1-0.4c1.1-1.4,2.1-2.9,2.9-4.5c0.3-0.6,0.7-1.3,1-1.9c10.1,10.5,18.7,22.3,25.5,34.9
	C548,273.7,547.5,273.7,547,273.8z M518.7,238.7c-1,1.9-2.3,3.7-3.7,5.3h0c-2.8,2-9.4,6.7-18.7,7.5c-4.4,0.4-7.1-0.4-11.8-1.7
	c-1.5-0.4-3.3-0.9-5.4-1.5c-0.6-2.1-1.3-3.9-1.7-5.4c-1.6-4.7-2.4-7.3-2.3-11.7c0.3-9.3,4.8-16.1,6.6-19c0.8-1.2,1.2-1.7,1.2-2.4
	c0.4-0.4,0.9-0.9,1.3-1.3c13.1,7.3,25.2,16.5,36,27.1C519.7,236.8,519.3,237.7,518.7,238.7z M477.3,210.8
	c-2.7,2.9-11.7,13.5-14.3,29.3c-0.3,1.8-0.5,3.5-0.6,4.9c-9.7-1.5-12.2-0.9-13.7-0.5c-5.1,1.2-9.7,3.9-13.9,8.2
	c0.4-4.4,0-8.6-1.4-12.3c-0.6-1.5-1.6-4.4-10.3-13.5c0.9-0.8,1.6-1.5,2.4-2.2c11.9-11.8,15.1-26.2,15.6-29.1c0.4-1.1,0.7-2.2,1-3.4
	c13.5,3.1,26.5,7.9,38.7,14.4C479.4,207.8,478.2,209.3,477.3,210.8z M437.2,193.1c-1.3,3.2-4.3,10.8-11.6,16.5
	c-3.5,2.7-6.2,3.5-10.9,5c-1,0.3-2.1,0.6-3.2,1c-0.9-0.8-1.7-1.5-2.5-2.2c-3.8-3.2-5.8-5-8-8.9c-2.6-4.8-4-10.3-4.1-16.3
	c2.6-0.1,5.2-0.2,7.8-0.2c11.2,0,22.4,1.2,33.3,3.4C437.7,191.7,437.5,192.3,437.2,193.1z M407.7,216.8c-2.7,0.9-5.4,2-8.3,3.1
	c-0.5-1-0.9-1.9-1.2-2.8c-2.8-7.3-3.7-14.3-3.7-19.9c0.8,3.2,1.9,6.2,3.4,8.9c2.5,4.4,4.8,6.5,8.7,9.9
	C407,216.2,407.4,216.5,407.7,216.8z M381.6,229.4c-4.9,5.1-7.7,12.4-8.1,21.2c-23.3,3.9-44.7,16-60.2,34.1
	c-5.8-1.4-14.5-2.7-24.2-1c-7.7,1.4-12.5,4.2-16.7,6.6c-4.1,2.4-7.4,4.2-12.2,3.9c-2.8-0.1-5.3-1-7.9-2.5
	c8.2-21,20.6-39.9,36.8-56.1c13.9-13.9,29.9-25.1,47.6-33.2c17.4-8,36-12.8,55.3-14.2c-0.8,5.2-1.8,17.1,3.2,29.9
	c0.4,0.9,0.8,1.9,1.3,2.9C384.8,226.1,382.7,228.3,381.6,229.4z M274,293.4c4-2.3,8.5-4.9,15.6-6.2c6.7-1.3,13.9-1.1,21.1,0.5
	c-14.2,17.9-22,40.2-22,63c0,22.5,7.3,43.8,21,61.7l-1.7,2c0,0-0.1,0.1-0.2,0.2l-0.1,0.1c0,0-0.1,0.1-0.2,0.2c0,0-0.1,0.1-0.2,0.2
	l-0.1,0.1c0,0-0.1,0.1-0.1,0.1c0,0-0.1,0.1-0.2,0.2l-0.2,0.1c0,0-0.1,0.1-0.1,0.1c-0.1,0-0.1,0.1-0.2,0.2l-0.2,0.1
	c0,0-0.1,0.1-0.1,0.1c-0.1,0-0.2,0.1-0.3,0.2l-0.2,0.1c0,0-0.1,0.1-0.1,0.1c-0.1,0-0.2,0.1-0.3,0.2l-0.2,0.1c0,0-0.1,0-0.1,0.1
	c-0.1,0.1-0.2,0.1-0.4,0.2l-0.2,0.1c0,0-0.1,0-0.1,0.1c-0.1,0.1-0.3,0.1-0.5,0.2l-0.1,0.1c0,0-0.1,0-0.1,0c-0.2,0.1-0.4,0.2-0.7,0.3
	l-0.2,0.1c-0.3,0.1-0.6,0.2-0.9,0.3c-4.3,1.6-7.4,1.1-12,0.3c-3.8-0.6-8.4-1.4-15.4-1.4h-1.6l-6.8,0c-0.3,0-0.5,0-0.8,0h-0.6
	c-0.2,0-0.5,0-0.8,0l-0.6,0c-0.2,0-0.4,0-0.6,0l-0.6,0c-0.2,0-0.5,0-0.8,0l-0.5,0c-0.3,0-0.5,0-0.8,0.1l-0.4,0
	c-0.4,0-0.8,0.1-1.1,0.1l-0.3,0c-0.2,0-0.5,0.1-0.8,0.1c-0.1,0-0.2,0-0.3,0l-0.1,0c-0.2,0-0.4,0.1-0.6,0.1c-0.1,0-0.2,0-0.3,0.1
	h-0.1c-1.8-4-3.5-8.1-4.9-12.1c-2.7-8.8-4.9-16.9-6.6-24.4c-1.9-10.1-2.9-20.4-2.9-30.7c0-19.4,3.4-38.4,10-56.4
	c2.8,1.6,5.9,2.5,8.9,2.6C265.7,298.1,269.6,295.9,274,293.4z M394.2,496.8c2.6-3.6,4.9-5.1,9-7.8c1-0.7,2.1-1.4,3.4-2.3
	c2.6,0.6,5.8,1.2,9.6,1.6c8.9,1.1,14.4,1.2,18.4,1.2c4.8,0,7.5,0,11.7,1.9c8.2,3.5,13.8,10.3,16.1,13.2
	c-18.4,6.9-37.8,10.4-57.8,10.4c-5.6,0-11.3-0.3-16.9-0.9C388.1,511.3,389.1,503.7,394.2,496.8z M434.4,472.2
	c-2.4-1.2-4.2-2-5.9-3.4c1.5-1.7,2.1-2.7,2.4-3.4c3.3-6.3,3.9-14.2,1.8-22.9c2.5-1.2,5.1-2.5,7.5-3.9l0,0l0.8-0.5
	c4.9,6.3,10.8,10.3,17.1,11.9c0.6,0.1,1.4,0.3,2.9,0.4c0,1.2,0,2.5,0,3.8c0,1.9-0.1,4.1,0.1,6.7c1.2,17.5,10.7,30.3,13.3,32.8
	c1,1.4,2.1,2.8,3.4,4.1c-3.8,1.9-7.5,3.6-11.2,5.1c-1.6-3.1-10.3-18.3-25.9-27.6C438.4,474.1,436.3,473.1,434.4,472.2z M472.4,471.1
	c0.3-4.4,1.4-6.9,3.4-11.5c1.3-2.8,2.8-6.3,4.7-11.5c6.3-1.3,10.5-2.5,13.6-3.3c4.8-1.3,7.4-2.1,11.8-1.7c9.2,0.8,15.9,5.5,18.7,7.6
	c0.7,0.5,1.1,0.8,1.5,1c0.9,0.9,1.6,1.7,2.3,2.5c0.6,0.6,1.2,1.3,1.9,2.1c-3.2,3.9-6.5,7.5-10,11c-11.6,11.6-24.7,21.3-39,28.9
	c-1.3-1.4-2.6-2.9-3.8-4.5c-0.1-0.2-0.3-0.6-0.5-1C475.5,487.6,471.8,480.3,472.4,471.1z M497.7,430.6c-2.5-0.5-4.7-0.8-6.6-1.1
	c-1.8-0.2-3.4-0.4-4.9-0.8c0.3-2.1,0.2-3.1,0.1-3.9c-0.6-7-4.2-13.9-10.5-19.9c0.7-1.1,1.3-2.1,1.9-3c0.4-0.6,0.8-1.3,1.2-2.1
	c7.2,2.6,14.1,3,20.1,1.1c1-0.3,2.5-0.8,5.9-3.2c0.3,0.4,0.6,0.9,0.9,1.3c1,1.6,2.2,3.5,3.7,5.6c11.2,15,26.8,20.1,29.5,20.5
	c2.2,0.9,4.5,1.6,6.7,2.1c1.3,0.3,2.6,0.5,3.9,0.7c-4.7,8.9-10.3,17.4-16.6,25.3c-0.5-0.6-1.1-1.2-1.5-1.7c-1.4-1.5-2.9-3.1-4.5-4.6
	C524.9,444.8,514.5,434.2,497.7,430.6z M524.2,407.1c-2.2-3.9-2.6-6.6-3.4-11.5c-0.4-2.6-0.9-5.7-1.7-9.8c3.5-3.3,5.9-5.8,7.8-7.9
	c3.4-3.6,5.3-5.6,9.3-7.6c8.3-4.1,16.5-3.4,19.9-3.1c0.7,0,1.2,0.1,1.5,0.1c2,0.6,4,1.3,5.9,2.1c1.2,0.5,2.3,1.1,3.5,1.7
	c-2.2,18.6-7.5,36.5-15.8,53.2c-1.7-0.1-3.3-0.4-4.9-0.8c-2.5-0.6-5-1.4-7.5-2.5l-0.1,0C535.8,419.2,528.8,415.2,524.2,407.1z
	 M522.7,363.9c-2.4,0.8-4.4,1.7-6.2,2.5c-0.8,0.3-1.6,0.7-2.3,1c-1.6-4.4-2.6-5.8-3.3-6.6c-4.2-5.5-10.9-9.3-19.4-11
	c0-0.9,0-1.8,0-2.7c7.2-1.5,13-4.7,17.1-9.2c0.9-1,2.3-2.6,4.8-9.1c1.7,0.8,3.7,1.7,6,2.6c14.3,5.4,27.5,3.4,31.9,2.5v0.1l0.5,0
	c5.1-0.5,10-2,14.6-4.2c0.1,0,0.3-0.1,0.4-0.2c1,7.4,1.5,14.8,1.5,22.1c0,5.2-0.2,10.3-0.7,15.5c-0.8-0.4-1.6-0.8-2.4-1.1
	c-2.6-1.1-5.3-2-8.1-2.7C551,361.1,537,359,522.7,363.9z"/>
</svg>
