<?xml version="1.0" encoding="utf-8"?>
<!-- Generator: Adobe Illustrator 19.2.1, SVG Export Plug-In . SVG Version: 6.00 Build 0)  -->
<svg version="1.1" id="ELD:_Sun_and_Moon" xmlns="http://www.w3.org/2000/svg" xmlns:xlink="http://www.w3.org/1999/xlink" x="0px"
	 y="0px" viewBox="0 0 766.4 701.8" style="enable-background:new 0 0 766.4 701.8;" xml:space="preserve">
<style type="text/css">
	.st0{fill:#231F20;}
	.st1{fill:#2B3990;}
	.st2{fill:#FFF200;}
	.st3{display:none;fill:#00AEEF;}
	.st4{display:none;stroke:#FFFFFF;stroke-width:2;stroke-miterlimit:10;}
	.st5{display:none;fill:#0C00FF;}
	.st6{display:none;fill:none;stroke:#FFF200;stroke-width:4;}
	.st7{display:none;fill:#2449CE;}
</style>
<path id="DIF:_SUNSHINE" class="st0" d="M406.2,186.6c-4.1,0-8.3,0.1-12.3,0.5c-0.7,8.5-0.8,21.6,2.8,30.9c0.5,1.2,1,2.3,1.4,3.3
	c-11.8,5-13.9,7.2-15.1,8.3c-4.8,5-7.6,12.2-8,20.8c4.4-0.1,9.7-0.2,16-0.2c55.6,0,100.7,45,100.7,100.5S446.6,451.2,391,451.2
	c-5.1,0-9.6-0.4-12-0.6l0,0c-1-0.1-1.5-0.1-1.7-0.1c-0.1,0,0.5,0.1,1.7,0.2l0,0c0,7.3,2,19.4,14.5,28.7c-0.3,0.5-0.6,1-0.9,1.5
	c-0.1,0.1-0.2,0.3-0.3,0.5c0,0.1-0.1,0.2-0.1,0.3c-0.1,0.2-0.3,0.5-0.4,0.8c-0.2,0.5-0.5,0.9-0.7,1.4c-0.1,0.2-0.2,0.4-0.3,0.6
	c-0.1,0.2-0.2,0.5-0.3,0.7c-0.1,0.3-0.3,0.6-0.4,0.9c0,0.1-0.1,0.2-0.1,0.3c-2.8,6.2-4.1,12.2-4.8,17.4c0,0.1,0,0.2,0,0.3
	c0,0.1,0,0.3,0,0.4c-0.2,1.9-0.2,6.1-0.1,10.2c7,0.9,14.1,1.3,21.3,1.3c91.1,0,164.9-73.7,164.9-164.6S497.2,186.6,406.2,186.6z"/>
<path id="DIF:_Moonshine" class="st0" d="M392.1,479.3l-0.9,1.5c-0.1,0.2-0.2,0.4-0.3,0.5c-0.1,0.1-0.2,0.2-0.2,0.3
	c-0.1,0.3-0.3,0.6-0.4,0.8c-0.2,0.5-0.5,0.9-0.7,1.4c-0.1,0.2-0.2,0.4-0.3,0.6c-0.1,0.2-0.2,0.5-0.3,0.7c-0.1,0.3-0.3,0.6-0.4,0.9
	c0,0.1-0.1,0.2-0.1,0.3c-2.8,6.1-4.2,12.2-4.8,17.4v0.7c-0.4,4-0.4,7.4-0.2,9.8c-35.8-4.5-69-20.7-95-46.7
	c-13.1-13.1-23.7-27.9-31.6-44.1c0,0-0.6-1.3-1.1-2.4l-0.3,0.2l-0.5-2c0-0.1,0-0.1,0-0.1c-0.1,0-0.1,0-0.1,0
	c-1.9-4.1-3.6-8.3-5.1-12.5c-2.7-8.8-4.9-16.9-6.6-24.4c-1.9-10.1-2.9-20.4-2.9-30.8c0-19.8,3.5-39,10.2-57.1c0.1,0,1-2.2,0.9-2.3
	c8.1-20.9,20.6-40.2,37-56.6c28.1-28.1,64.6-44.7,103.8-47.6c-1.1,6.7-1.6,18.3,3.2,30.2c0.4,1.2,0.9,2.3,1.4,3.3
	c-11.9,5-14,7.1-15.1,8.3c-4.9,5.1-7.7,12.4-8,21.3c-24.1,3.9-45.3,16.4-60.5,34.2c-0.1,0-1.7,2.1-1.7,2.1
	c-14,17.2-22.4,39.3-22.4,63.2c0,22.5,7.4,43.3,19.9,60.1l2.8,3.6c16.1,19.6,39.4,33.2,65.9,36.4
	C377.7,457.7,379.7,469.9,392.1,479.3z"/>
<path id="DIF:_Moon" class="st1" d="M432.4,436.5c-13.2,6.5-27.7,9.9-42.6,9.9c-52.9,0-96-43.1-96-96s43.1-96,96-96
	c11.6,0,22.9,2,33.6,6.1c-0.3,0.1-0.6,0.2-1,0.3c-0.2,0.1-0.5,0.1-0.8,0.2c-0.5,0.1-1,0.3-1.4,0.5c-0.1,0-0.3,0.1-0.5,0.2
	c-0.6,0.2-1.3,0.4-1.9,0.7c-0.2,0.1-0.4,0.1-0.7,0.2c-0.4,0.1-0.9,0.3-1.3,0.5c-0.2,0.1-0.5,0.2-0.8,0.3c-0.4,0.1-0.7,0.3-1.1,0.4
	c-0.3,0.1-0.6,0.2-0.8,0.3c-0.3,0.1-0.7,0.3-1.1,0.4c-0.3,0.1-0.6,0.2-0.9,0.3c-0.3,0.1-0.7,0.3-1,0.4s-0.6,0.2-0.9,0.4
	c-0.3,0.1-0.7,0.3-1,0.5c-0.3,0.1-0.6,0.2-0.8,0.4c-0.3,0.1-0.7,0.3-1,0.5c-0.2,0.1-0.5,0.2-0.8,0.4c-0.4,0.2-0.7,0.3-1.1,0.5
	c-0.2,0.1-0.5,0.2-0.7,0.4c-0.4,0.2-0.9,0.4-1.3,0.7c-0.1,0.1-0.3,0.1-0.5,0.2c-0.6,0.3-1.2,0.6-1.7,0.9c-0.2,0.1-0.4,0.2-0.6,0.3
	c-0.4,0.2-0.7,0.4-1.1,0.6c-0.2,0.1-0.5,0.3-0.7,0.4c-0.3,0.2-0.7,0.4-1,0.6c-0.2,0.1-0.5,0.3-0.8,0.5s-0.6,0.4-1,0.6
	c-0.2,0.1-0.5,0.3-0.8,0.5s-0.6,0.4-0.9,0.6c-0.2,0.1-0.5,0.3-0.7,0.5c-0.3,0.2-0.6,0.4-0.9,0.6c-0.2,0.1-0.5,0.3-0.7,0.5
	c-0.3,0.2-0.6,0.4-0.9,0.6c-0.2,0.1-0.4,0.3-0.7,0.5c-0.3,0.2-0.7,0.5-1,0.7c-0.2,0.1-0.4,0.3-0.6,0.4c-0.4,0.3-0.9,0.7-1.3,1
	c-0.1,0-0.2,0.1-0.2,0.2c-0.5,0.4-1,0.8-1.5,1.2c-0.2,0.1-0.3,0.3-0.5,0.4c-0.3,0.2-0.7,0.5-1,0.8c-0.2,0.1-0.4,0.3-0.6,0.5
	c-0.3,0.2-0.6,0.5-0.9,0.8c-0.2,0.2-0.4,0.3-0.6,0.5c-0.3,0.2-0.6,0.5-0.9,0.7c-0.2,0.2-0.4,0.4-0.6,0.5c-0.3,0.2-0.5,0.5-0.8,0.7
	c-0.2,0.2-0.4,0.4-0.6,0.6c-0.3,0.2-0.5,0.5-0.8,0.8c-0.2,0.2-0.4,0.4-0.6,0.5c-0.3,0.3-0.6,0.5-0.8,0.8l-0.5,0.5
	c-0.3,0.3-0.6,0.6-0.9,0.9c-0.1,0.1-0.3,0.3-0.4,0.4c-0.4,0.4-0.9,0.9-1.3,1.4c-14.9,16.2-22.7,35.5-22.7,55.9
	c0,21.4,9,42.3,25.5,58.8c0.5,0.5,1,1,1.4,1.4c0.1,0.1,0.3,0.3,0.5,0.5c0.3,0.3,0.7,0.6,1,1c0.2,0.2,0.4,0.4,0.6,0.5
	c0.3,0.3,0.6,0.6,0.9,0.9c0.2,0.2,0.4,0.4,0.6,0.6c0.3,0.3,0.6,0.5,0.9,0.8c0.2,0.2,0.4,0.4,0.7,0.6c0.3,0.2,0.6,0.5,0.9,0.8
	c0.2,0.2,0.5,0.4,0.7,0.6c0.3,0.2,0.6,0.5,0.9,0.7c0.2,0.2,0.5,0.4,0.7,0.6c0.3,0.2,0.6,0.5,1,0.7c0.2,0.2,0.5,0.3,0.7,0.5
	c0.3,0.2,0.7,0.5,1,0.7c0.2,0.2,0.5,0.3,0.7,0.5c0.4,0.2,0.7,0.5,1.1,0.8c0.2,0.1,0.4,0.3,0.6,0.4c0.5,0.3,1,0.7,1.4,1
	c0.1,0,0.2,0.1,0.3,0.2c0.6,0.4,1.2,0.8,1.8,1.2c0.2,0.1,0.4,0.2,0.6,0.4c0.4,0.2,0.8,0.5,1.2,0.7c0.2,0.1,0.5,0.3,0.8,0.4
	c0.3,0.2,0.7,0.4,1.1,0.6c0.3,0.1,0.5,0.3,0.8,0.5s0.7,0.4,1.1,0.6c0.3,0.1,0.6,0.3,0.9,0.5s0.7,0.4,1.1,0.6
	c0.3,0.1,0.6,0.3,0.9,0.4c0.3,0.2,0.7,0.4,1.1,0.5c0.3,0.1,0.6,0.3,0.9,0.4c0.3,0.2,0.7,0.3,1.1,0.5c0.3,0.1,0.6,0.3,0.9,0.4
	c0.4,0.2,0.7,0.3,1.1,0.5c0.3,0.1,0.6,0.2,0.9,0.4c0.4,0.2,0.8,0.3,1.2,0.5c0.3,0.1,0.5,0.2,0.8,0.3c0.5,0.2,1,0.4,1.4,0.6
	c0.2,0.1,0.4,0.1,0.5,0.2c0.7,0.3,1.3,0.5,2,0.8c0.2,0.1,0.5,0.2,0.7,0.2c0.4,0.2,0.9,0.3,1.3,0.5c0.3,0.1,0.6,0.2,0.8,0.3
	c0.4,0.1,0.8,0.3,1.2,0.4c0.3,0.1,0.6,0.2,0.9,0.3c0.4,0.1,0.8,0.3,1.2,0.4c0.3,0.1,0.6,0.2,0.9,0.3c0.4,0.1,0.8,0.2,1.2,0.4
	c0.3,0.1,0.6,0.2,0.9,0.3c0.4,0.1,0.8,0.2,1.2,0.4c0.3,0.1,0.6,0.2,0.9,0.3c0.4,0.1,0.8,0.2,1.3,0.3c0.3,0.1,0.6,0.1,0.9,0.2
	c0.4,0.1,0.9,0.2,1.3,0.3c0.3,0.1,0.6,0.1,0.9,0.2c0.5,0.1,1,0.2,1.4,0.3C431.8,436.5,432.1,436.5,432.4,436.5
	C432.3,436.5,432.4,436.5,432.4,436.5z"/>
<path id="DIF:_Sun" class="st2" d="M485.8,355.6L485.8,355.6C485.8,355.7,485.8,355.7,485.8,355.6c-0.8,13.7-4.4,27.1-10.7,39.2l0,0
	L474,397l0,0c-0.4,0.6-0.7,1.3-1.1,1.9c-8.2,14-19.9,25.8-33.8,34c-0.2,0-0.4-0.1-0.6-0.1c-0.4-0.1-0.8-0.1-1.2-0.2
	c-0.3-0.1-0.7-0.1-1.1-0.2s-0.8-0.1-1.1-0.2c-0.3-0.1-0.7-0.1-1.1-0.2s-0.7-0.1-1.1-0.2c-0.3-0.1-0.7-0.1-1.1-0.2s-0.7-0.2-1.1-0.3
	c-0.3-0.1-0.7-0.2-1.1-0.3c-0.3-0.1-0.7-0.2-1.1-0.3c-0.3-0.1-0.7-0.2-1.1-0.3s-0.7-0.2-1.1-0.3c-0.3-0.1-0.7-0.2-1.1-0.3
	c-0.3-0.1-0.7-0.2-1.1-0.3c-0.3-0.1-0.7-0.2-1.1-0.3c-0.3-0.1-0.7-0.2-1-0.3c-0.3-0.1-0.7-0.2-1.1-0.4c-0.3-0.1-0.7-0.2-1-0.3
	c-0.3-0.1-0.7-0.2-1.1-0.4c-0.3-0.1-0.7-0.2-1-0.4s-0.7-0.2-1.1-0.4s-0.7-0.2-1-0.4c-0.3-0.1-0.7-0.3-1.1-0.4
	c-0.3-0.1-0.6-0.2-1-0.4c-0.3-0.1-0.7-0.3-1.1-0.4c-0.3-0.1-0.6-0.3-1-0.4c-0.3-0.1-0.7-0.3-1.1-0.4c-0.3-0.1-0.6-0.3-0.9-0.4
	s-0.7-0.3-1-0.5c-0.3-0.1-0.6-0.3-0.9-0.4s-0.7-0.3-1-0.5c-0.3-0.1-0.6-0.3-0.9-0.4c-0.3-0.2-0.7-0.3-1-0.5
	c-0.3-0.1-0.6-0.3-0.9-0.5s-0.7-0.3-1-0.5c-0.3-0.1-0.6-0.3-0.9-0.5s-0.7-0.4-1-0.6c-0.3-0.1-0.6-0.3-0.9-0.5s-0.6-0.4-1-0.6
	c-0.3-0.2-0.6-0.3-0.9-0.5s-0.6-0.4-1-0.6c-0.3-0.2-0.6-0.3-0.9-0.5s-0.6-0.4-1-0.6c-0.3-0.2-0.5-0.3-0.8-0.5s-0.6-0.4-1-0.6
	c-0.2-0.2-0.5-0.3-0.8-0.5s-0.6-0.4-0.9-0.6c-0.2-0.2-0.5-0.4-0.8-0.6s-0.6-0.4-0.9-0.7c-0.2-0.2-0.5-0.4-0.8-0.6s-0.6-0.5-0.9-0.7
	c-0.2-0.2-0.5-0.4-0.8-0.6s-0.6-0.5-0.9-0.7c-0.2-0.2-0.5-0.4-0.7-0.6c-0.3-0.2-0.6-0.5-0.9-0.7c-0.2-0.2-0.5-0.4-0.7-0.6
	c-0.3-0.2-0.6-0.5-0.9-0.8c-0.2-0.2-0.4-0.4-0.7-0.6c-0.3-0.2-0.6-0.5-0.9-0.8c-0.2-0.2-0.4-0.4-0.6-0.6c-0.3-0.3-0.7-0.6-1-0.9
	c-0.1-0.1-0.3-0.3-0.5-0.5c-0.5-0.5-1-1-1.4-1.4c-15.5-15.6-24-35.2-24-55.4c0-19.2,7.4-37.4,21.5-52.7c0.4-0.5,0.9-0.9,1.3-1.4
	c0.1-0.1,0.3-0.3,0.4-0.4c0.3-0.3,0.6-0.6,0.9-0.9c0.2-0.2,0.4-0.4,0.6-0.6s0.5-0.5,0.8-0.8c0.2-0.2,0.4-0.4,0.6-0.6
	s0.5-0.5,0.8-0.7c0.2-0.2,0.4-0.4,0.7-0.6c0.2-0.2,0.5-0.5,0.8-0.7c0.2-0.2,0.5-0.4,0.7-0.6s0.5-0.4,0.7-0.6s0.5-0.4,0.7-0.6
	s0.5-0.4,0.7-0.6s0.5-0.4,0.8-0.6c0.2-0.2,0.5-0.4,0.8-0.6c0.2-0.2,0.5-0.4,0.8-0.6c0.2-0.2,0.5-0.4,0.8-0.6
	c0.2-0.2,0.5-0.4,0.8-0.6c0.2-0.2,0.5-0.4,0.8-0.6s0.5-0.4,0.8-0.6c0.2-0.2,0.5-0.4,0.8-0.6s0.6-0.4,0.8-0.6
	c0.2-0.2,0.5-0.3,0.8-0.5s0.6-0.4,0.9-0.6c0.2-0.2,0.5-0.3,0.8-0.5s0.6-0.4,0.9-0.5c0.3-0.2,0.5-0.3,0.8-0.5s0.6-0.4,0.9-0.5
	s0.5-0.3,0.8-0.5s0.6-0.3,0.9-0.5c0.3-0.1,0.5-0.3,0.8-0.5s0.6-0.3,0.9-0.5c0.3-0.1,0.5-0.3,0.8-0.5s0.6-0.3,0.9-0.5
	s0.6-0.3,0.9-0.5c0.3-0.1,0.6-0.3,0.9-0.5c0.3-0.1,0.6-0.3,0.9-0.4s0.6-0.3,1-0.5c0.3-0.1,0.6-0.3,0.9-0.4s0.6-0.3,1-0.4
	c0.3-0.1,0.6-0.3,0.9-0.4s0.6-0.3,1-0.4c0.3-0.1,0.6-0.3,0.9-0.4s0.6-0.3,1-0.4c0.3-0.1,0.6-0.2,0.9-0.4c0.3-0.1,0.6-0.2,1-0.4
	c0.3-0.1,0.6-0.2,0.9-0.4c0.3-0.1,0.6-0.2,1-0.4c0.3-0.1,0.6-0.2,1-0.4c0.3-0.1,0.6-0.2,1-0.4c0.3-0.1,0.6-0.2,1-0.3
	c0.3-0.1,0.6-0.2,1-0.3c0.3-0.1,0.6-0.2,1-0.3c0.3-0.1,0.7-0.2,1-0.3c0.3-0.1,0.6-0.2,1-0.3c0.3-0.1,0.7-0.2,1-0.3
	c0.3-0.1,0.7-0.2,1-0.3c0.3-0.1,0.7-0.2,1-0.3c0.3-0.1,0.7-0.2,1-0.3c0.3-0.1,0.7-0.2,1-0.3c0.1,0,0.2,0,0.3-0.1c0,0,2.5,0,2.7-0.4
	c15.2,7.2,28.2,18.3,37.8,32.1c-0.3,0.2,1.4,2.1,1.4,2.2c9.2,14,14.4,30,15.5,46.7c-0.3,0-0.1,2.4,0.1,2.4c0,1.1,0,2.3,0,3.4
	C485.9,352.1,485.9,353.9,485.8,355.6z"/>
<rect id="NLED:_APA102C" x="262.6" y="354" class="st3" width="6.8" height="6.8"/>
<circle id="BASE:_Base" class="st4" cx="404.6" cy="351.6" r="169.4"/>
<rect id="NLED:_APA102C_1_" x="329.2" y="236" class="st3" width="6.8" height="6.8"/>
<rect id="NLED:_APA102C_2_" x="441.7" y="227" class="st3" width="6.8" height="6.8"/>
<rect id="NLED:_APA102C_3_" x="401.7" y="238" class="st3" width="6.8" height="6.8"/>
<rect id="NLED:_APA102C_4_" x="459.2" y="261.2" class="st3" width="6.8" height="6.8"/>
<rect id="NLED:_APA102C_5_" x="487.3" y="236.7" class="st3" width="6.8" height="6.8"/>
<rect id="NLED:_APA102C_6_" x="501.9" y="272.4" class="st3" width="6.8" height="6.8"/>
<rect id="NLED:_APA102C_7_" x="494.2" y="312.3" class="st3" width="6.8" height="6.8"/>
<rect id="NLED:_APA102C_8_" x="535.1" y="308.1" class="st3" width="6.8" height="6.8"/>
<rect id="NLED:_APA102C_9_" x="493" y="374.8" class="st3" width="6.8" height="6.8"/>
<rect id="NLED:_APA102C_10_" x="535.9" y="346" class="st3" width="6.8" height="6.8"/>
<rect id="NLED:_APA102C_11_" x="536.5" y="394.2" class="st3" width="6.8" height="6.8"/>
<rect id="NLED:_APA102C_12_" x="463.9" y="429.2" class="st3" width="6.8" height="6.8"/>
<rect id="NLED:_APA102C_13_" x="515.5" y="426.2" class="st3" width="6.8" height="6.8"/>
<rect id="NLED:_APA102C_14_" x="491.3" y="464.8" class="st3" width="6.8" height="6.8"/>
<rect id="NLED:_APA102C_15_" x="442.7" y="456.9" class="st3" width="6.8" height="6.8"/>
<rect id="NLED:_APA102C_16_" x="406" y="461.3" class="st3" width="6.8" height="6.8"/>
<rect id="NLED:_APA102C_17_" x="412.5" y="499.2" class="st3" width="6.8" height="6.8"/>
<rect id="NLED:_APA102C_18_" x="326.5" y="461" class="st3" width="6.8" height="6.8"/>
<rect id="NLED:_APA102C_19_" x="330.5" y="308.3" class="st3" width="6.8" height="6.8"/>
<rect id="NLED:_APA102C_20_" x="338.7" y="395.3" class="st3" width="6.8" height="6.8"/>
<rect id="NLED:_APA102C_21_" x="418" y="348.2" class="st3" width="6.8" height="6.8"/>
<path id="BI:_Breakin" class="st5" d="M224.7,332.5v-4.3v-2.9v-8.7v-2.9V305v-11.6H214V305v8.7v2.9v8.7v2.9v4.3v4.3h10.7V332.5z"/>
<polyline id="CP:_CircuitPath" class="st6" points="219.8,316.1 337.3,308.3 329.2,236 408.5,244.8 445.1,230.4 466,268 
	494.1,236.7 505.3,275.8 497.6,315.7 535.1,308.1 539.3,349.4 496.4,378.2 536.5,394.2 522.4,426.2 463.9,436 494.7,468.1 
	442.7,456.9 412.5,506 409.4,464.6 329.9,464.4 342.1,398.6 421.5,351.6 247.3,359.4 224.9,368.1 "/>
<path id="DDS:_element_32_" class="st7" d="M400.6,234.7c-0.6,5.2-4,10.1-10.2,14.6h-0.2c-4.4,0-8.9,0.3-13.3,0.9
	c0.5-7.7,2.9-14,7.1-18.4c0.9-0.9,2.8-2.9,13.8-7.5l0.1,0.1C399.7,228.1,401,230.8,400.6,234.7z"/>
<path id="DDS:_element_31_" class="st7" d="M438,191.3c-0.3,0.4-0.5,1-0.8,1.8c-1.3,3.2-4.3,10.8-11.7,16.5c-3.5,2.7-6.2,3.5-10.9,5
	c-1,0.3-2.1,0.6-3.2,1c-0.9-0.8-1.7-1.5-2.5-2.2c-3.8-3.2-5.8-5-8-8.9c-2.6-4.8-4-10.2-4.1-16.3c2.6-0.1,5.2-0.2,7.8-0.2
	C415.9,187.9,427.1,189.1,438,191.3z"/>
<path id="DDS:_element_30_" class="st7" d="M407.7,216.8c-2.7,0.9-5.4,2-8.3,3.1c-0.5-1-0.9-1.9-1.2-2.8c-2.8-7.3-3.7-14.3-3.7-19.9
	c0.8,3.2,1.9,6.2,3.4,8.9c2.5,4.4,4.8,6.5,8.7,9.9C407,216.2,407.4,216.5,407.7,216.8z"/>
<path id="DDS:_element_29_" class="st7" d="M434.3,205.5c-2.3,5.1-5.8,11.3-11.3,16.8c-0.7,0.7-1.5,1.4-2.3,2.2
	c-2.2-2.2-4.3-4.3-6.3-6.2c0.5-0.1,0.9-0.3,1.3-0.4c5-1.5,7.9-2.5,11.9-5.5C430.1,210.3,432.3,208.1,434.3,205.5z"/>
<path id="DDS:_element_28_" class="st7" d="M410.5,236.4c-1.4,4.5-1,9.7,1.4,15.2c-5.4-1.2-10.8-1.9-16.3-2.2
	c5-4.5,7.8-9.3,8.4-14.4c0.5-4.8-1.1-8-3.1-12.1c3.4-1.3,6.5-2.6,9.7-3.6c2.5,2.3,5,4.6,7.5,7.2
	C414.6,229.4,411.9,231.7,410.5,236.4z"/>
<path id="DDS:_element_27_" class="st7" d="M430.4,257.6c-4.7-2-9.5-3.7-14.4-5c-2.8-5.7-3.6-10.9-2.3-15.3c1.2-3.7,3.5-5.6,6.6-8.3
	l0.1-0.1c8.2,8.7,9.2,11.3,9.6,12.5C431.9,246.2,432,251.7,430.4,257.6z"/>
<path id="DDS:_element_26_" class="st7" d="M475.2,247.4c-2.8-0.6-5.8-1.3-9-1.8l-0.6-0.1c0.1-1.5,0.3-3.1,0.6-4.9
	c1.3-7.7,4.2-14.2,7.1-19c-1,3.1-1.5,6.3-1.6,9.4c-0.1,5,0.8,8,2.5,13C474.5,245,474.8,246.2,475.2,247.4z"/>
<path id="DDS:_element_25_" class="st7" d="M520.2,235.6c-0.5,1.2-0.9,2.1-1.5,3.1c-1,1.9-2.3,3.7-3.7,5.3l0,0
	c-2.8,2-9.4,6.7-18.7,7.5c-4.4,0.4-7.1-0.4-11.8-1.7c-1.5-0.4-3.3-0.9-5.4-1.5c-0.6-2.1-1.2-3.9-1.7-5.4c-1.6-4.7-2.4-7.3-2.3-11.7
	c0.3-9.3,4.8-16.1,6.6-19c0.8-1.2,1.2-1.7,1.2-2.4c0.4-0.4,0.9-0.9,1.3-1.3C497.3,215.8,509.4,224.9,520.2,235.6z"/>
<path id="DDS:_element_24_" class="st7" d="M505.8,252.9c-4.6,3-10.9,6.3-18.5,7.9c-1.8,0.4-3.4,0.6-4.9,0.8l-0.1-0.6
	c-0.7-3.2-1.5-6.1-2.2-8.9c1.3,0.3,2.5,0.7,3.4,1c5,1.4,8,2.3,13,1.8C499.7,254.7,502.8,254,505.8,252.9z"/>
<path id="DDS:_element_23_" class="st7" d="M479.1,262.1c-3.5,0.5-6.7,1.2-10,3.9c-3.6,3-6,7.5-7.1,13.2c-4.5-4.5-9.4-8.6-14.6-12.2
	c6.5-1.3,11.3-4,14.4-8c2.5-3.3,3.1-6.6,3.5-10.1h0.3c3.8,0.7,7.4,1.4,10.7,2.2c1,3.3,1.9,6.8,2.7,10.6L479.1,262.1z"/>
<path id="DDS:_element_22_" class="st7" d="M462,248.4c-0.3,3.3-0.7,5.9-2.8,8.6c-3.1,4-8.5,6.5-16,7.3c-1.2-0.8-2.6-1.5-3.9-2.3
	l0.5-0.1l-6.2-2.8c4.5-6.1,9.9-10,15.7-11.4C450.5,247.5,452.8,247,462,248.4z"/>
<path id="DDS:_element_21_" class="st7" d="M481,278c-1,5.1-3.7,9.8-8.1,14.1c-2.4-3.4-5-6.7-7.8-9.8c0.7-6.2,2.9-10.9,6.3-13.8
	c2.6-2.2,5.2-2.8,8.5-3.2C481.7,274.6,481.2,276.9,481,278z"/>
<path id="DDS:_element_20_" class="st7" d="M548.5,273.6c-0.5,0-1.1,0.1-1.6,0.2c-2.4,0.3-4.8,0.8-7.2,1.6
	c-4.7,0.8-19.1,5.7-29.8,18.3c-1.6,1.9-2.9,3.8-4.1,5.3l-0.1,0.2c-5.6-4.7-7.7-5.4-8.9-5.8c-2.8-1-5.7-1.5-8.9-1.5
	c-4,0-8.2,0.8-12.5,2.4c4.8-4.8,7.8-10,8.9-15.7c0.3-1.5,0.8-4-1.2-13.7c1.4-0.2,3-0.4,4.9-0.8c18.4-4,30.2-16.8,31-18.7
	c0-0.1,0.1-0.2,0.1-0.4c1.1-1.4,2.1-2.9,2.9-4.5c0.3-0.6,0.7-1.2,1-1.9C533.1,249.2,541.7,261,548.5,273.6z"/>
<path id="DDS:_element_19_" class="st7" d="M503.7,302c-1.5,1.9-3.1,3.3-5.6,4.3c-4.8,1.9-10.8,1.2-17.8-2.1
	c-1.2-2.3-2.5-4.5-3.8-6.7c7-2.6,13.6-2.9,19.2-0.9C496.7,296.9,498.5,297.5,503.7,302z"/>
<path id="DDS:_element_18_" class="st7" d="M540.5,331.4c-5.6,0-12.7-0.6-19.9-3.4c-2.3-0.9-4.2-1.8-5.9-2.5h-0.2
	c0.3-1.2,0.8-2.5,1.3-3.8c0.7-2.2,1.3-4.2,2-6.3c1.5,1.6,2.7,3,3.8,4.2c3.4,3.9,5.5,6.2,10,8.6C534.4,329.7,537.4,330.8,540.5,331.4
	z"/>
<path id="DDS:_element_17_" class="st7" d="M528.3,283.3c-2.5,2.2-4.5,4.6-6.3,7.2c-2.7,4.2-3.4,7.3-4.6,12.4
	c-0.4,1.6-0.8,3.6-1.4,6c-1.6-1.6-3.3-3.2-5.1-4.9c-1-0.9-1.9-1.7-2.7-2.5l0.3-0.5c1.1-1.5,2.3-3.3,3.9-5.1
	C517.5,290,523.4,285.9,528.3,283.3z"/>
<path id="DDS:_element_16_" class="st7" d="M566.2,325.3c-0.6,0.3-1,0.6-1.5,0.8c-2.8,1.4-5.9,2.5-9,3.1c-0.4-0.2-0.8-0.3-1.4-0.3
	c-0.3,0-0.8,0-1.2,0c-3.5,0.1-11.6,0.6-19.8-3.8c-3.9-2.1-5.7-4.1-9-7.8c-1.3-1.5-3-3.4-5.2-5.7c0.9-3.3,1.4-5.9,1.9-8
	c1.1-4.9,1.7-7.5,4.1-11.3c5.1-7.8,12.4-11.4,15.5-12.9c0.5-0.2,0.9-0.4,1.2-0.6c1.9-0.6,4-1,5.9-1.2c1-0.2,2-0.2,3.1-0.3
	C558.3,292.4,563.5,308.5,566.2,325.3z"/>
<path id="DDS:_element_15_" class="st7" d="M515.1,312.6c-0.7,2.6-1.5,5.2-2.5,8c-0.4,1.2-0.8,2.4-1.2,3.5c-2.8-1.2-5.5-1.9-9-1.5
	c-4.6,0.7-9,3.1-13.1,7.4c-1.5-7.3-3.8-14.4-6.9-21.1c6.3,2.4,12,2.5,16.8,0.6c3.3-1.3,5.3-3.3,6.9-5.3c0.8,0.7,1.6,1.5,2.5,2.3
	C511,308.5,513.1,310.5,515.1,312.6z"/>
<path id="DDS:_element_14_" class="st7" d="M510.3,327.2c-2.4,6.1-3.6,7.5-4.3,8.3c-3.5,3.9-8.5,6.6-14.7,8
	c-0.2-3.2-0.6-6.3-1.1-9.4c4-4.8,8.3-7.6,12.8-8.1C505.7,325.7,507.8,326.2,510.3,327.2z"/>
<path id="DDS:_element_13_" class="st7" d="M485.7,355.6l-0.2,0.1l0.1,0.3c-0.8,13.3-4.4,26.6-10.5,38.4l0,0l-1.3,2.6l-0.1,0.1
	c-0.3,0.6-0.7,1.2-1,1.8c-8.1,13.9-19.7,25.5-33.5,33.8l-0.5-0.1c-0.4-0.1-0.8-0.1-1.2-0.2c-0.3,0-0.7-0.1-1.1-0.2s-0.8-0.1-1.1-0.2
	c-0.3-0.1-0.7-0.2-1.1-0.2c-0.4-0.1-0.7-0.2-1.1-0.2c-0.3-0.1-0.7-0.2-1.1-0.2c-0.4-0.1-0.7-0.2-1.1-0.3c-0.3-0.1-0.7-0.2-1.1-0.3
	c-0.3-0.1-0.7-0.2-1-0.3c-0.3-0.1-0.7-0.2-1-0.3h-0.1c-0.3-0.1-0.7-0.2-1-0.3c-0.3-0.1-0.6-0.2-0.9-0.3h-0.1c-0.3-0.1-0.7-0.2-1-0.3
	c-0.3-0.1-0.7-0.2-1.1-0.3h-0.1c-0.3-0.1-0.6-0.2-0.9-0.3c-0.3-0.1-0.7-0.2-1.1-0.4c-0.3-0.1-0.7-0.2-1-0.3
	c-0.3-0.1-0.6-0.2-0.9-0.3l-0.2-0.1c-0.3-0.1-0.6-0.2-0.9-0.3c-0.3-0.1-0.6-0.2-1-0.3l-0.3-0.1c-0.3-0.1-0.5-0.2-0.8-0.3
	c-0.3-0.1-0.5-0.2-0.8-0.3l-0.4-0.2c-0.2-0.1-0.5-0.2-0.7-0.3c-0.3-0.2-0.6-0.2-0.9-0.4l-0.4-0.1c-0.2-0.1-0.5-0.2-0.7-0.3
	c-0.3-0.1-0.6-0.2-0.9-0.4l-0.4-0.2c-0.2-0.1-0.5-0.2-0.7-0.3c-0.3-0.2-0.7-0.3-1-0.5l-0.2-0.1c-0.2-0.1-0.5-0.2-0.7-0.3
	c-0.3-0.1-0.6-0.3-0.9-0.4l-0.4-0.2c-0.2-0.1-0.4-0.2-0.6-0.3c-0.2-0.2-0.5-0.3-0.8-0.4l-0.5-0.2c-0.2-0.1-0.4-0.2-0.6-0.3
	c-0.2-0.2-0.5-0.3-0.8-0.4l-0.4-0.2c-0.2-0.1-0.4-0.2-0.7-0.4c-0.3-0.2-0.5-0.3-0.8-0.4l-0.4-0.2c-0.2-0.1-0.4-0.2-0.6-0.3
	c-0.2-0.1-0.5-0.3-0.7-0.4l-0.5-0.3c-0.2-0.1-0.4-0.2-0.6-0.3c-0.3-0.1-0.5-0.3-0.8-0.5l-0.4-0.2c-0.2-0.2-0.4-0.2-0.6-0.4
	c-0.2-0.1-0.5-0.3-0.8-0.5l-0.4-0.3c-0.2-0.1-0.4-0.2-0.6-0.4c-0.2-0.1-0.5-0.3-0.7-0.5l-0.4-0.3c-0.2-0.1-0.4-0.2-0.6-0.4
	c-0.2-0.1-0.5-0.3-0.7-0.5l-0.5-0.3c-0.2-0.1-0.3-0.2-0.5-0.4c-0.2-0.2-0.4-0.3-0.7-0.5l-0.5-0.3c-0.2-0.1-0.3-0.2-0.5-0.4
	c-0.2-0.1-0.4-0.3-0.6-0.5l-0.5-0.4c-0.2-0.1-0.3-0.2-0.5-0.4c-0.2-0.1-0.4-0.3-0.6-0.5l-0.5-0.4c-0.2-0.1-0.3-0.2-0.5-0.4
	c-0.2-0.1-0.4-0.3-0.6-0.5l-0.5-0.4c-0.1-0.2-0.3-0.2-0.4-0.4c-0.2-0.2-0.4-0.4-0.6-0.5l-0.5-0.4c-0.1-0.2-0.3-0.2-0.4-0.4
	c-0.2-0.2-0.4-0.4-0.7-0.6l-0.5-0.4c-0.1-0.1-0.2-0.2-0.4-0.3c-0.3-0.2-0.5-0.5-0.8-0.8l-0.4-0.4l-1.7-1.7
	c-15.4-15.5-23.9-35-23.9-55c0-19,7.4-37.1,21.3-52.3c0.4-0.5,0.9-0.9,1.3-1.4c0.1-0.1,0.2-0.2,0.2-0.2l0.3-0.3
	c0.2-0.2,0.5-0.5,0.8-0.8c0.1-0.1,0.2-0.2,0.3-0.3l0.4-0.4c0.2-0.2,0.4-0.4,0.6-0.6c0.1-0.1,0.3-0.2,0.4-0.4l0.4-0.4
	c0.2-0.2,0.4-0.3,0.6-0.5c0.1-0.1,0.3-0.2,0.4-0.4l0.4-0.4c0.2-0.1,0.3-0.3,0.5-0.5c0.1-0.2,0.3-0.3,0.5-0.4l0.4-0.4
	c0.2-0.1,0.3-0.3,0.5-0.5c0.2-0.1,0.3-0.3,0.5-0.4l0.4-0.4c0.2-0.1,0.3-0.3,0.5-0.4s0.3-0.3,0.5-0.4l0.4-0.3
	c0.2-0.1,0.3-0.3,0.5-0.4s0.4-0.3,0.6-0.4l0.4-0.3c0.2-0.2,0.4-0.3,0.5-0.4c0.2-0.2,0.4-0.3,0.6-0.4l0.4-0.3
	c0.2-0.1,0.4-0.3,0.6-0.4s0.4-0.3,0.6-0.4l0.4-0.3c0.2-0.2,0.4-0.3,0.6-0.4c0.2-0.2,0.4-0.3,0.6-0.4l0.4-0.3
	c0.2-0.1,0.4-0.2,0.5-0.4c0.2-0.1,0.4-0.3,0.6-0.4l0.4-0.3c0.2-0.2,0.4-0.2,0.5-0.4c0.2-0.1,0.5-0.3,0.7-0.5l0.3-0.2
	c0.2-0.2,0.4-0.2,0.6-0.4c0.2-0.1,0.5-0.3,0.7-0.4l0.4-0.2c0.2-0.1,0.4-0.2,0.6-0.3c0.2-0.1,0.5-0.3,0.8-0.4l0.3-0.2
	c0.2-0.1,0.4-0.2,0.6-0.3c0.2-0.1,0.5-0.2,0.7-0.4l0.4-0.2c0.2-0.1,0.4-0.2,0.7-0.4c0.2-0.1,0.5-0.2,0.7-0.4l0.4-0.2
	c0.2-0.1,0.4-0.2,0.7-0.3c0.2-0.1,0.5-0.3,0.8-0.4l0.2-0.1c0.2-0.2,0.5-0.2,0.8-0.4c0.2-0.1,0.5-0.2,0.8-0.4l0.3-0.2
	c0.2-0.1,0.4-0.2,0.7-0.3c0.3-0.1,0.6-0.3,0.8-0.4l0.3-0.1c0.2-0.1,0.4-0.2,0.7-0.3c0.3-0.1,0.6-0.2,0.9-0.4l0.2-0.1
	c0.2-0.1,0.5-0.2,0.8-0.3c0.3-0.1,0.6-0.2,0.9-0.4l0.2-0.1c0.2-0.1,0.5-0.2,0.8-0.3c0.3-0.1,0.6-0.2,0.9-0.4l0.1-0.1
	c0.3-0.1,0.6-0.2,0.9-0.3c0.3-0.1,0.6-0.2,0.9-0.3h0.2c0.3-0.1,0.5-0.2,0.8-0.3c0.3-0.1,0.6-0.2,1-0.4c0.3-0.1,0.6-0.2,1-0.3
	c0.3-0.1,0.6-0.2,1-0.3c0.3-0.1,0.6-0.2,1-0.3c0.3-0.1,0.7-0.2,1-0.3c0.3-0.1,0.6-0.2,1-0.3c0.3-0.1,0.7-0.2,1-0.3
	c0.3-0.1,0.7-0.2,1-0.3c0.3-0.1,0.7-0.2,1-0.3c0.3-0.1,0.7-0.2,1-0.3c0.3-0.1,0.7-0.2,1-0.3h0.2c1.6,0,2.3-0.1,2.7-0.3
	c14.9,7.1,27.7,18,37.2,31.6c0,0.4,0.2,0.9,1.5,2.3l0.1,0.1c9,13.8,14.3,29.8,15.4,46.3c-0.2,0.3-0.2,0.8-0.1,1.7c0,0.3,0,0.8,0.2,1
	c0,1.1,0,2.2,0,3.2C485.8,352.1,485.8,353.8,485.7,355.6z"/>
<path id="DDS:_element_12_" class="st7" d="M511,368.4c-1.7,0.4-3.2,0.4-4.9,0.2c-5-0.8-10.9-6-14.8-10.5c0.1-1.6,0.2-3.3,0.2-4.9
	c7.3,1.6,13.1,5,16.8,9.6C508.8,363.4,509.7,364.5,511,368.4z"/>
<path id="DDS:_element_11_" class="st7" d="M568.3,351.5c0,5.2-0.2,10.3-0.7,15.5c-0.8-0.4-1.6-0.8-2.4-1.1c-2.6-1.1-5.3-2-8.1-2.7
	c-6.1-2-20.1-4.1-34.4,0.7c-2.4,0.8-4.4,1.7-6.2,2.5c-0.8,0.3-1.6,0.7-2.3,1c-1.6-4.4-2.6-5.8-3.3-6.6c-4.2-5.5-10.9-9.3-19.4-11
	c0-0.9,0-1.8,0-2.7c7.2-1.5,13-4.7,17.1-9.2c0.9-1,2.3-2.6,4.8-9.1c1.7,0.8,3.7,1.7,6,2.6c14.3,5.4,27.5,3.4,31.9,2.5v0.1h0.5
	c5.1-0.5,10-2,14.6-4.2c0.1,0,0.3-0.1,0.4-0.2C567.8,336.7,568.3,344.1,568.3,351.5z"/>
<path id="DDS:_element_10_" class="st7" d="M543.8,364.4c-3.2,0.6-6.2,1.6-9,3c-4.5,2.2-6.7,4.5-10.3,8.3c-1.6,1.7-3.6,3.8-6.3,6.3
	c-0.4-1.5-0.7-3.1-1.2-4.7c-0.6-2.5-1.3-4.8-1.9-6.7c0.9-0.3,1.7-0.7,2.6-1.1c1.7-0.8,3.7-1.6,6-2.4
	C531.1,364.5,538.2,364.1,543.8,364.4z"/>
<path id="DDS:_element_9_" class="st7" d="M515.5,384.7c-1.3,1.2-2.7,2.5-4.2,3.7c-2.1,1.8-4,3.4-5.7,4.7c-1.7-2.1-3.5-3.6-5.7-4.7
	c-2.5-1.2-5.3-1.8-8.4-1.8c-2.2,0-4.5,0.2-6.9,0.8c3.1-8,5.2-16.3,6.2-24.9c3.3,3.4,9,8.4,14.7,9.4c2.2,0.3,4.3,0.2,6.5-0.3
	c0.6,1.9,1.2,4,1.8,6.5C514.5,380.4,515,382.5,515.5,384.7z"/>
<path id="DDS:_element_7_" class="st7" d="M527,416.3c-4.7-3-10.3-7.4-15-13.6c-1.4-1.9-2.5-3.8-3.6-5.3c-0.3-0.5-0.7-1.1-1-1.6
	c1.8-1.3,3.8-3,6-4.9c1-0.8,1.9-1.6,2.8-2.5c0.6,3.1,1,5.6,1.3,7.7c0.4,2.5,0.7,4.6,1.2,6.6s1.3,3.8,2.5,6
	C522.8,411.4,524.8,414,527,416.3z"/>
<path id="DDS:_element_8_" class="st7" d="M567.1,371c-2.2,18.6-7.5,36.5-15.8,53.2c-1.7-0.2-3.3-0.4-4.9-0.8
	c-2.5-0.6-5-1.4-7.5-2.5h-0.1c-3-1.6-10-5.7-14.6-13.8c-2.2-3.9-2.6-6.6-3.4-11.5c-0.4-2.5-0.9-5.7-1.7-9.8c3.5-3.3,5.9-5.8,7.8-7.9
	c3.4-3.6,5.3-5.6,9.3-7.5c8.3-4.1,16.5-3.4,19.9-3.1c0.7,0,1.2,0.1,1.5,0.1c2,0.6,4,1.3,5.9,2.1C564.8,369.8,565.9,370.4,567.1,371z
	"/>
<path id="DDS:_element_6_" class="st7" d="M502.9,395c-3,2.1-4.2,2.5-5,2.7c-5.1,1.6-11.2,1.3-17.5-0.9c0.9-1.8,1.8-3.7,2.6-5.4
	c6.1-2,11.3-2,15.4,0C500.2,392.3,501.6,393.4,502.9,395z"/>
<path id="DDS:_element_5_" class="st7" d="M482.9,427.5c-0.7-0.4-1.3-0.8-1.9-1.4c-3.9-3.3-6.2-11.5-7-18.2c5.3,5.3,8.5,11.3,9,17.3
	C483,425.6,483,426.3,482.9,427.5z"/>
<path id="DDS:_element_4_" class="st7" d="M549.5,427.9c-4.7,8.9-10.2,17.4-16.6,25.3c-0.5-0.6-1-1.2-1.5-1.7
	c-1.4-1.5-2.9-3.1-4.5-4.6c-2-2.1-12.4-12.7-29.2-16.3c-2.5-0.5-4.7-0.8-6.6-1.1c-1.8-0.2-3.4-0.4-4.9-0.8c0.3-2.1,0.2-3.1,0.1-3.9
	c-0.6-7-4.2-13.9-10.5-19.9c0.7-1.1,1.3-2.1,1.9-3c0.4-0.6,0.8-1.4,1.2-2.1c7.2,2.6,14,3,20.1,1.1c1-0.3,2.5-0.8,5.9-3.2
	c0.3,0.4,0.6,0.9,0.9,1.3c1,1.6,2.2,3.5,3.7,5.6c11.2,15,26.8,20.1,29.5,20.5c2.2,0.9,4.5,1.6,6.7,2.1
	C546.8,427.6,548.1,427.8,549.5,427.9z"/>
<path id="DDS:_element_3_" class="st7" d="M515.5,441.8c-3-1.1-6.2-1.8-9.3-2.1c-5.1-0.4-8,0.4-13,1.8c-2.8,0.8-6.3,1.8-11.4,2.8
	c0.2-0.7,0.5-1.5,0.8-2.3c1.3-4,2.3-7.4,2.9-10.1c1.6,0.4,3.3,0.6,5.1,0.8c1.9,0.2,4,0.5,6.4,1C504.5,435.5,510.8,438.8,515.5,441.8
	z"/>
<path id="DDS:_element_2_" class="st7" d="M482.3,430.9c-0.6,2.6-1.6,6.1-2.9,10.2c-0.5,1.4-1,2.8-1.4,4.1c-0.9,0.2-1.8,0.3-2.7,0.5
	c-4.7,0.8-8.4,1.3-11.2,1.5c-0.4-1.8-1-3.4-2-5.1c-2.5-4.1-6.8-7.2-12.8-9.1c8.3-6,15.7-13.2,21.9-21.4c0.9,5.1,3.1,13.3,7.6,17.1
	C479.9,429.6,481,430.4,482.3,430.9z"/>
<path id="DDS:_element_1_" class="st7" d="M460.6,447.2c-0.8-0.1-1.2-0.2-1.6-0.3c-5.4-1.3-10.6-4.9-15-10.3l1.9-1.1
	c6.4,1.6,10.8,4.4,13.3,8.4C459.9,444.9,460.3,446,460.6,447.2z"/>
<path id="DDS:_element" class="st7" d="M427.9,463.9c-0.3,0.5-0.7,1.2-1.9,2.6c-0.4-0.4-0.7-0.9-1.1-1.4c-3-4.5-4.5-10.5-4.2-17.9
	c3-1,6-2,8.9-3.3C431.3,451.6,430.8,458.5,427.9,463.9z"/>
<path id="DDS:_element_33_" class="st7" d="M469,470.9c-0.2,3.1,0,6.3,0.7,9.5c-2.4-5-4.7-11.8-5.2-19.5c-0.1-2.4-0.1-4.5-0.1-6.4
	c0-1.3,0-2.6,0-3.9c2.9-0.2,6.7-0.7,11.4-1.5c0.2,0,0.5-0.1,0.8-0.1c-1.5,4-2.8,7-3.9,9.3C470.6,462.9,469.4,465.8,469,470.9z"/>
<path id="DDS:_element_34_" class="st7" d="M530.3,456.3c-3.2,3.9-6.5,7.5-10,11c-11.5,11.5-24.7,21.3-39,28.9
	c-1.4-1.5-2.7-2.9-3.8-4.5c-0.2-0.2-0.3-0.6-0.5-1c-1.6-3.1-5.3-10.3-4.7-19.6c0.3-4.4,1.4-6.9,3.4-11.5c1.2-2.8,2.8-6.3,4.7-11.5
	c6.3-1.2,10.5-2.5,13.6-3.3c4.8-1.4,7.4-2.1,11.8-1.7c9.2,0.8,15.9,5.5,18.7,7.6c0.7,0.5,1.1,0.8,1.5,1c0.9,0.9,1.6,1.7,2.3,2.5
	C529,454.8,529.7,455.5,530.3,456.3z"/>
<path id="DDS:_element_35_" class="st7" d="M477.7,497.9c-3.8,1.9-7.5,3.6-11.2,5.1c-1.6-3.1-10.3-18.3-25.9-27.6
	c-2.3-1.4-4.3-2.4-6.2-3.2c-2.4-1.2-4.2-2-5.9-3.4c1.5-1.7,2.1-2.7,2.4-3.4c3.3-6.3,3.9-14.2,1.8-22.9c2.5-1.2,5.1-2.5,7.5-3.8
	l0.8-0.5c4.9,6.3,10.8,10.4,17.1,11.9c0.6,0.1,1.4,0.3,2.9,0.4c0.1,1.2,0.1,2.5,0,3.8c0,1.9-0.1,4.1,0.1,6.7
	c1.1,17.5,10.7,30.3,13.3,32.8C475.4,495.2,476.5,496.6,477.7,497.9z"/>
<path id="DDS:_element_36_" class="st7" d="M456,493.4c-2.6-2.1-5.4-3.8-8.3-5c-4.9-2.1-8-2.1-13-2.2c-4,0-9.3-0.1-18.1-1.2
	c-2.3-0.3-4.4-0.6-6.2-0.9c2.6-1.9,5.2-3.9,7.9-6.1c3.2-2.5,5.8-4.8,7.7-6.7c2.1,1.6,4.3,2.7,6.8,4c1.8,0.9,3.8,1.8,6,3.1
	C446.2,482.7,451.9,488.5,456,493.4z"/>
<path id="DDS:_element_37_" class="st7" d="M462.4,504.7c-18.4,6.9-37.8,10.4-57.8,10.4c-5.6,0-11.3-0.3-16.9-0.9
	c0.3-3,1.4-10.5,6.5-17.4c2.7-3.6,4.9-5.1,9-7.8c1-0.7,2.1-1.4,3.4-2.3c2.6,0.6,5.8,1.2,9.6,1.6c8.9,1.1,14.4,1.2,18.4,1.2
	c4.8,0,7.5,0,11.8,1.9C454.6,495,460.2,501.8,462.4,504.7z"/>
<path id="DDS:_element_38_" class="st7" d="M402.4,485.6c-0.3,0.2-0.6,0.4-0.9,0.6c-4.3,2.8-6.9,4.5-10,8.6
	c-1.8,2.5-3.4,5.3-4.5,8.3c0.5-3.9,1.5-8.6,3.5-13.6v-0.1c0-0.2,0.1-0.2,0.1-0.4c0.1-0.3,0.2-0.5,0.3-0.8c0.1-0.2,0.2-0.5,0.3-0.7
	c0.1-0.2,0.2-0.5,0.3-0.7c0.1-0.3,0.3-0.6,0.4-0.9l0.1-0.2c0-0.1,0.1-0.2,0.2-0.4c0.2-0.5,0.5-1,0.8-1.5c0.1-0.3,0.3-0.6,0.5-0.9
	l0.1-0.2c0.1-0.2,0.2-0.4,0.4-0.6l0.1-0.2c0.1-0.2,0.2-0.3,0.3-0.4c1.4,0.9,2.9,1.8,4.5,2.5l0.3,0.1
	C400,484.5,400.9,485,402.4,485.6z"/>
<path id="DDS:_element_39_" class="st7" d="M423.7,468.9c-1.9,1.8-4.4,3.9-7.4,6.4c-3.6,2.9-7,5.4-10.3,7.8
	c-2.9-0.8-4.3-1.5-5.2-1.9l-0.3-0.1c-1.5-0.7-2.8-1.5-4.1-2.4l0.2-0.2c2.5-3.8,4.5-6.8,4.6-11.6c0.1-5-2-10.1-6.1-15
	c7.6-0.4,15-1.6,22.3-3.6c-0.1,7.6,1.5,13.9,4.9,18.7C422.7,467.7,423.2,468.3,423.7,468.9z"/>
<path id="DDS:_element_40_" class="st7" d="M397.8,466.8c-0.1,3.8-1.7,6.3-4,9.8l-0.1,0.2c-10.3-7.9-12.7-18-12.8-25v-0.2
	c3.1,0.3,6.3,0.4,9.4,0.4h0.4C395.5,457,397.9,462,397.8,466.8z"/>
<path id="DDS:_element_41_" class="st7" d="M391.7,479.6c-0.2,0.4-0.4,0.7-0.7,1.1c-0.1,0.1-0.2,0.3-0.3,0.5l-0.2,0.3
	c-0.1,0.2-0.3,0.5-0.4,0.8c-0.2,0.5-0.5,0.9-0.7,1.4c-0.1,0.2-0.1,0.3-0.2,0.5l-0.1,0.2c-0.1,0.2-0.2,0.5-0.3,0.7
	c-0.1,0.3-0.3,0.6-0.4,0.9l-0.1,0.3c-2.5,5.5-4.1,11.4-4.8,17.6l-0.1,0.7c-0.3,4.2-0.2,7.5-0.1,9.3c-35.9-4.7-68.4-20.8-94.2-46.5
	c-13.3-13.3-24.2-28.6-32.2-45.4c0.1,0,0.1,0,0.2,0s0.3,0,0.4-0.1c0.1,0,0.3,0,0.5-0.1c0.1,0,0.3,0,0.4,0c0.2-0.1,0.3-0.1,0.5-0.1
	h0.5c0.2,0,0.4,0,0.6,0c0.1,0,0.3,0,0.5,0s0.4-0.1,0.6-0.1h0.5c0.2,0,0.4,0,0.6,0h0.5c0.2,0,0.4,0,0.7,0l10.5-0.1
	c1.6,0,3.1,0,4.6,0.1c4.3,0.2,7.4,0.8,10.2,1.2c0.5,0.1,1,0.2,1.5,0.2l0.6,0.1c0.2,0,0.4,0,0.6,0.1l0.3,0.1c0.2,0,0.4,0,0.6,0.1h0.3
	c0.1,0,0.3,0.1,0.5,0.1h0.3c0.2,0,0.3,0,0.5,0h0.3c0.2,0,0.3,0,0.5,0h2.5c0.1,0,0.2,0,0.3,0h0.2c0.1,0,0.2,0,0.3,0
	c0.1,0,0.2-0.1,0.3-0.1h0.2c0.1,0,0.2,0,0.3,0c0.1,0,0.2,0,0.4-0.1h0.2c0.1,0,0.1,0,0.2,0s0.3-0.1,0.5-0.1h0.2c0,0,0.1,0,0.2,0
	c0.2,0,0.4-0.1,0.6-0.2h0.1c0.1,0,0.1,0,0.2,0c0.3-0.1,0.6-0.2,0.9-0.3c0.3-0.2,0.7-0.3,1-0.4c0.1,0,0.2,0,0.2-0.1l0.2-0.1
	c0.2-0.1,0.4-0.1,0.5-0.2c0.1,0,0.2-0.1,0.3-0.2l0.2-0.1c0.1-0.1,0.3-0.2,0.4-0.2s0.2-0.1,0.3-0.2l0.1-0.1c0.2-0.1,0.3-0.2,0.4-0.2
	s0.2-0.1,0.3-0.2l0.1-0.1c0.2-0.1,0.2-0.2,0.4-0.2c0.1-0.1,0.2-0.2,0.3-0.2c0.2-0.1,0.3-0.2,0.4-0.3c0.1-0.1,0.2-0.1,0.3-0.2
	c0.1-0.1,0.2-0.2,0.4-0.3c0.1-0.1,0.2-0.2,0.3-0.2c0.1-0.1,0.2-0.2,0.3-0.3c0.1-0.1,0.2-0.2,0.3-0.2c0.1-0.1,0.2-0.2,0.3-0.3
	l0.3-0.3c0.1-0.1,0.2-0.2,0.3-0.3c0.1-0.1,0.2-0.2,0.2-0.3c0.1-0.1,0.2-0.2,0.3-0.3c0.1-0.1,0.1-0.1,0.2-0.2s0.2-0.2,0.3-0.3
	l0.2-0.3c0.1-0.1,0.2-0.2,0.3-0.3h0.1c16.5,20.1,39.8,33,65.5,36.2C377.4,458,379.4,470.3,391.7,479.6z"/>
<path id="DDS:_element_42_" class="st7" d="M431.2,436.9c-12.8,6.1-27,9.3-41.1,9.3c-52.7,0-95.5-42.9-95.5-95.5
	c0-52.7,42.9-95.6,95.6-95.6c11.1,0,21.9,1.9,32.1,5.5l-0.3,0.1c-0.5,0.2-1,0.3-1.4,0.5l-0.5,0.2c-0.6,0.2-1.3,0.4-1.9,0.7l-0.7,0.2
	c-0.4,0.1-0.9,0.3-1.2,0.5c-0.2,0.1-0.4,0.2-0.5,0.2l-0.3,0.1c-0.3,0.1-0.7,0.3-1.1,0.4c-0.2,0.1-0.4,0.2-0.7,0.3h-0.2
	c-0.3,0.1-0.7,0.3-1,0.4s-0.6,0.2-0.9,0.3c-0.3,0.1-0.7,0.3-1,0.4c-0.3,0.2-0.6,0.2-0.9,0.4c-0.3,0.1-0.7,0.3-1,0.5
	c-0.3,0.1-0.6,0.2-0.8,0.4c-0.3,0.1-0.7,0.3-1.1,0.5l-0.2,0.1c-0.2,0.1-0.4,0.2-0.6,0.3c-0.3,0.2-0.7,0.3-1,0.5l-0.3,0.2
	c-0.2,0.1-0.3,0.1-0.5,0.2c-0.4,0.2-0.9,0.4-1.3,0.7l-0.5,0.2c-0.6,0.3-1.2,0.6-1.7,1l-0.7,0.4c-0.3,0.2-0.7,0.4-1.1,0.6
	c-0.2,0.1-0.3,0.2-0.5,0.3l-0.2,0.1c-0.3,0.2-0.7,0.4-1,0.6c-0.2,0.1-0.4,0.2-0.6,0.4l-0.1,0.1c-0.3,0.2-0.6,0.4-1,0.6
	c-0.2,0.1-0.5,0.3-0.8,0.5s-0.6,0.4-0.9,0.6c-0.2,0.2-0.5,0.3-0.8,0.5s-0.6,0.4-0.9,0.6v0.1c-0.2,0.1-0.4,0.3-0.7,0.4
	c-0.3,0.2-0.6,0.4-1,0.7l-0.2,0.1c-0.2,0.1-0.3,0.2-0.5,0.3c-0.3,0.2-0.7,0.5-1,0.7l-0.2,0.1c-0.1,0.1-0.2,0.2-0.4,0.3
	c-0.4,0.3-0.9,0.7-1.3,1l-0.2,0.2c-0.5,0.4-1,0.8-1.5,1.2c-0.1,0.1-0.2,0.2-0.3,0.3l-0.2,0.2c-0.3,0.3-0.7,0.5-1,0.8
	c-0.2,0.1-0.3,0.2-0.4,0.3l-0.1,0.1c-0.3,0.2-0.6,0.5-0.9,0.8c-0.2,0.1-0.3,0.3-0.5,0.4l-0.1,0.1c-0.3,0.2-0.6,0.5-0.9,0.7
	c-0.2,0.2-0.4,0.4-0.6,0.5c-0.3,0.2-0.5,0.5-0.8,0.8c-0.2,0.2-0.4,0.4-0.6,0.6c-0.3,0.2-0.5,0.5-0.8,0.8l0,0
	c-0.2,0.1-0.3,0.3-0.5,0.5c-0.3,0.3-0.5,0.5-0.8,0.8l-0.5,0.5c-0.3,0.3-0.6,0.6-0.9,0.9l-0.4,0.4c-0.4,0.5-0.9,0.9-1.3,1.4
	c-15,16.3-22.9,35.7-22.9,56.2c0,21.5,9.1,42.5,25.6,59.1c0.5,0.5,1,1,1.5,1.4l0.5,0.5c0.3,0.3,0.7,0.6,1,1c0.2,0.2,0.3,0.2,0.4,0.4
	l0.2,0.1c0.3,0.3,0.6,0.6,0.9,0.9c0.2,0.1,0.4,0.3,0.5,0.5l0.1,0.1c0.3,0.3,0.6,0.5,0.9,0.8c0.2,0.2,0.4,0.3,0.6,0.5l0,0
	c0.3,0.2,0.6,0.5,0.9,0.8c0.2,0.2,0.5,0.4,0.7,0.6c0.3,0.2,0.6,0.5,0.9,0.7c0.2,0.2,0.5,0.4,0.7,0.6c0.3,0.2,0.6,0.5,1,0.7l0.1,0.1
	c0.2,0.1,0.4,0.3,0.6,0.5c0.3,0.2,0.7,0.5,1,0.7l0.2,0.1c0.2,0.1,0.3,0.2,0.5,0.4c0.4,0.2,0.7,0.5,1.1,0.8l0.2,0.1
	c0.1,0.1,0.2,0.2,0.4,0.3c0.5,0.3,1,0.7,1.4,1l0.3,0.2c0.6,0.4,1.2,0.8,1.8,1.2c0.2,0.1,0.2,0.1,0.4,0.2l0.2,0.1
	c0.4,0.2,0.8,0.5,1.2,0.7c0.2,0.1,0.3,0.2,0.5,0.3l0.2,0.1c0.3,0.2,0.7,0.4,1.1,0.6c0.2,0.2,0.5,0.3,0.7,0.4h0.1
	c0.3,0.2,0.7,0.4,1.1,0.6c0.3,0.2,0.6,0.3,0.9,0.5s0.7,0.4,1.1,0.6c0.3,0.1,0.6,0.3,0.9,0.4c0.3,0.2,0.7,0.4,1.1,0.5
	c0.3,0.2,0.6,0.3,0.9,0.4c0.3,0.2,0.7,0.3,1,0.5h0.2c0.2,0.1,0.5,0.2,0.7,0.3c0.3,0.1,0.7,0.3,1.1,0.5l0.3,0.1
	c0.2,0.1,0.4,0.2,0.6,0.3c0.4,0.2,0.8,0.3,1.2,0.5l0.2,0.1c0.2,0.1,0.3,0.1,0.5,0.2c0.5,0.2,1,0.4,1.4,0.6l0.6,0.2
	c0.7,0.3,1.3,0.5,2,0.8l0.8,0.3c0.4,0.1,0.8,0.3,1.2,0.5c0.2,0,0.4,0.1,0.6,0.2l0.3,0.1c0.4,0.1,0.8,0.3,1.2,0.4
	c0.2,0.1,0.4,0.1,0.6,0.2l0.2,0.1c0.4,0.1,0.8,0.3,1.2,0.4c0.3,0.1,0.6,0.2,0.9,0.3c0.4,0.1,0.8,0.2,1.2,0.4
	c0.3,0.1,0.6,0.2,0.9,0.3c0.4,0.2,0.8,0.2,1.2,0.4c0.3,0.1,0.6,0.2,0.9,0.3c0.4,0.1,0.8,0.2,1.2,0.3c0.3,0.1,0.6,0.2,0.9,0.2
	c0.4,0.1,0.9,0.2,1.3,0.3l0.3,0.1c0.2,0,0.4,0.1,0.6,0.1C430.5,436.8,430.8,436.9,431.2,436.9z"/>
<path id="DDS:_element_43_" class="st7" d="M396.3,221.2c-11.6,5-13.7,7.1-14.8,8.3c-4.9,5.1-7.7,12.4-8.1,21.2
	c-23.3,3.9-44.7,16-60.2,34.1c-5.8-1.4-14.5-2.7-24.2-1c-7.7,1.4-12.5,4.2-16.7,6.6c-4.1,2.4-7.4,4.2-12.2,4c-2.8-0.1-5.3-1-7.9-2.5
	c8.2-21,20.6-39.9,36.8-56.1c13.9-13.9,29.9-25.1,47.5-33.2c17.4-8,36-12.8,55.3-14.2c-0.8,5.2-1.8,17.1,3.2,29.9
	C395.5,219.2,395.9,220.1,396.3,221.2z"/>
<path id="DDS:_element_44_" class="st7" d="M288.8,350.6c0,22.5,7.3,43.8,21,61.7l-1.7,2c0,0-0.2,0.1-0.2,0.2l-0.1,0.1
	c0,0-0.1,0.1-0.2,0.2s-0.2,0.1-0.2,0.2l-0.2,0.2l-0.1,0.1c0,0-0.1,0.1-0.2,0.2l-0.2,0.1l-0.1,0.1c-0.1,0-0.1,0.2-0.2,0.2l-0.2,0.2
	l-0.1,0.1c-0.1,0.1-0.2,0.2-0.3,0.2l-0.2,0.1l-0.1,0.1c-0.1,0-0.2,0.1-0.3,0.2l-0.2,0.1c0,0-0.1,0-0.1,0.1c-0.1,0.1-0.2,0.1-0.4,0.2
	l-0.2,0.1c0,0-0.1,0-0.1,0.1c-0.1,0.1-0.3,0.2-0.5,0.2l-0.2,0.1h-0.1c-0.2,0.1-0.4,0.2-0.7,0.3l-0.2,0.1c-0.3,0.2-0.6,0.2-0.9,0.3
	c-4.3,1.6-7.4,1.1-12,0.3c-3.8-0.6-8.4-1.4-15.4-1.4h-1.6h-6.8h-1.4c-0.2,0-0.5,0-0.8,0H263c-0.2,0-0.4,0-0.6,0h-0.6
	c-0.2,0-0.5,0-0.8,0h-0.5c-0.3,0-0.5,0-0.8,0.1h-0.4c-0.4,0-0.8,0.1-1.1,0.1l-0.3,0.1c-0.2,0-0.5,0.1-0.8,0.1
	c-0.1,0-0.2,0.1-0.3,0.1h-0.1c-0.2,0-0.4,0.1-0.6,0.1c-0.1,0-0.2,0-0.3,0.1h-0.1c-1.8-4-3.5-8.1-4.9-12.1c-2.7-8.8-4.9-17-6.6-24.4
	c-1.9-10.1-2.9-20.4-2.9-30.7c0-19.4,3.4-38.4,10-56.4c2.8,1.6,5.9,2.5,8.9,2.6c5.9,0.3,9.7-1.9,14.2-4.4c4-2.3,8.5-4.9,15.6-6.2
	c6.7-1.2,13.9-1.1,21.1,0.5C296.6,305.5,288.8,327.9,288.8,350.6z"/>
<path id="DDS:element" class="st7" d="M443.3,193.3c-0.6,12.1-4.6,18.6-8.3,22.3c-4.8,4.7-12,7.8-11.3,11.3c0.2,1,0.8,1.1,3,3.3
	c1.8,1.8,4.5,4.6,6.3,8.3c0.8,1.6,2.6,5.3,2.3,10c-0.1,2.2-0.6,3.7,0,4c0.8,0.4,2.4-2.5,5.3-4.7c2.6-1.9,5.2-2.3,9-3
	c4.2-0.8,6.5-1.2,9.3-0.3c1.7,0.5,2.6,1.1,3.3,0.7c1.4-0.8,0.3-3.7,0.7-7.7c0.2-1.9,1-4,2.7-8c1.6-4,2.9-7.1,5-10.7
	c4.7-7.9,9.9-9.4,8-11C463.2,195.3,457.8,196.3,443.3,193.3z"/>
</svg>
